<svg width="34" height="34" viewBox="0 0 34 34" fill="none" xmlns="http://www.w3.org/2000/svg">
<g opacity="1" filter="url(#filter0_dii_16818_46170)">
<path d="M5 16C5 9.37258 10.3726 4 17 4C23.6274 4 29 9.37258 29 16C29 22.6274 23.6274 28 17 28C10.3726 28 5 22.6274 5 16Z" fill="#1B4DFF" shape-rendering="crispEdges"/>
<path d="M19.75 15.75C19.75 15.9489 19.671 16.1397 19.5303 16.2803C19.3897 16.421 19.1989 16.5 19 16.5H15C14.8011 16.5 14.6103 16.421 14.4697 16.2803C14.329 16.1397 14.25 15.9489 14.25 15.75C14.25 15.5511 14.329 15.3603 14.4697 15.2197C14.6103 15.079 14.8011 15 15 15H19C19.1989 15 19.3897 15.079 19.5303 15.2197C19.671 15.3603 19.75 15.5511 19.75 15.75ZM19 17.5H15C14.8011 17.5 14.6103 17.579 14.4697 17.7197C14.329 17.8603 14.25 18.0511 14.25 18.25C14.25 18.4489 14.329 18.6397 14.4697 18.7803C14.6103 18.921 14.8011 19 15 19H19C19.1989 19 19.3897 18.921 19.5303 18.7803C19.671 18.6397 19.75 18.4489 19.75 18.25C19.75 18.0511 19.671 17.8603 19.5303 17.7197C19.3897 17.579 19.1989 17.5 19 17.5ZM22.75 11V20.5C22.75 21.0967 22.5129 21.669 22.091 22.091C21.669 22.5129 21.0967 22.75 20.5 22.75H13.5C12.9033 22.75 12.331 22.5129 11.909 22.091C11.4871 21.669 11.25 21.0967 11.25 20.5V11C11.25 10.6685 11.3817 10.3505 11.6161 10.1161C11.8505 9.8817 12.1685 9.75 12.5 9.75H13.5V9.5C13.5 9.30109 13.579 9.11032 13.7197 8.96967C13.8603 8.82902 14.0511 8.75 14.25 8.75C14.4489 8.75 14.6397 8.82902 14.7803 8.96967C14.921 9.11032 15 9.30109 15 9.5V9.75H16.25V9.5C16.25 9.30109 16.329 9.11032 16.4697 8.96967C16.6103 8.82902 16.8011 8.75 17 8.75C17.1989 8.75 17.3897 8.82902 17.5303 8.96967C17.671 9.11032 17.75 9.30109 17.75 9.5V9.75H19V9.5C19 9.30109 19.079 9.11032 19.2197 8.96967C19.3603 8.82902 19.5511 8.75 19.75 8.75C19.9489 8.75 20.1397 8.82902 20.2803 8.96967C20.421 9.11032 20.5 9.30109 20.5 9.5V9.75H21.5C21.8315 9.75 22.1495 9.8817 22.3839 10.1161C22.6183 10.3505 22.75 10.6685 22.75 11ZM21.25 11.25H20.5V11.5C20.5 11.6989 20.421 11.8897 20.2803 12.0303C20.1397 12.171 19.9489 12.25 19.75 12.25C19.5511 12.25 19.3603 12.171 19.2197 12.0303C19.079 11.8897 19 11.6989 19 11.5V11.25H17.75V11.5C17.75 11.6989 17.671 11.8897 17.5303 12.0303C17.3897 12.171 17.1989 12.25 17 12.25C16.8011 12.25 16.6103 12.171 16.4697 12.0303C16.329 11.8897 16.25 11.6989 16.25 11.5V11.25H15V11.5C15 11.6989 14.921 11.8897 14.7803 12.0303C14.6397 12.171 14.4489 12.25 14.25 12.25C14.0511 12.25 13.8603 12.171 13.7197 12.0303C13.579 11.8897 13.5 11.6989 13.5 11.5V11.25H12.75V20.5C12.75 20.6989 12.829 20.8897 12.9697 21.0303C13.1103 21.171 13.3011 21.25 13.5 21.25H20.5C20.6989 21.25 20.8897 21.171 21.0303 21.0303C21.171 20.8897 21.25 20.6989 21.25 20.5V11.25Z" fill="white"/>
</g>
<defs>
<filter id="filter0_dii_16818_46170" x="0" y="0" width="34" height="34" filterUnits="userSpaceOnUse" color-interpolation-filters="sRGB">
<feFlood flood-opacity="0" result="BackgroundImageFix"/>
<feColorMatrix in="SourceAlpha" type="matrix" values="0 0 0 0 0 0 0 0 0 0 0 0 0 0 0 0 0 0 127 0" result="hardAlpha"/>
<feOffset dy="1"/>
<feGaussianBlur stdDeviation="2.5"/>
<feComposite in2="hardAlpha" operator="out"/>
<feColorMatrix type="matrix" values="0 0 0 0 0.105882 0 0 0 0 0.301961 0 0 0 0 1 0 0 0 0.16 0"/>
<feBlend mode="normal" in2="BackgroundImageFix" result="effect1_dropShadow_16818_46170"/>
<feBlend mode="normal" in="SourceGraphic" in2="effect1_dropShadow_16818_46170" result="shape"/>
<feColorMatrix in="SourceAlpha" type="matrix" values="0 0 0 0 0 0 0 0 0 0 0 0 0 0 0 0 0 0 127 0" result="hardAlpha"/>
<feOffset dy="4"/>
<feGaussianBlur stdDeviation="3"/>
<feComposite in2="hardAlpha" operator="arithmetic" k2="-1" k3="1"/>
<feColorMatrix type="matrix" values="0 0 0 0 1 0 0 0 0 1 0 0 0 0 1 0 0 0 0.06 0"/>
<feBlend mode="normal" in2="shape" result="effect2_innerShadow_16818_46170"/>
<feColorMatrix in="SourceAlpha" type="matrix" values="0 0 0 0 0 0 0 0 0 0 0 0 0 0 0 0 0 0 127 0" result="hardAlpha"/>
<feOffset dy="1"/>
<feGaussianBlur stdDeviation="1.5"/>
<feComposite in2="hardAlpha" operator="arithmetic" k2="-1" k3="1"/>
<feColorMatrix type="matrix" values="0 0 0 0 1 0 0 0 0 1 0 0 0 0 1 0 0 0 0.32 0"/>
<feBlend mode="normal" in2="effect2_innerShadow_16818_46170" result="effect3_innerShadow_16818_46170"/>
</filter>
</defs>
</svg>
