<svg width="24" height="24" viewBox="0 0 24 24" fill="none" xmlns="http://www.w3.org/2000/svg">
<g filter="url(#filter0_i_16781_7174)">
<path d="M0 12C0 5.37258 5.37258 0 12 0C18.6274 0 24 5.37258 24 12C24 18.6274 18.6274 24 12 24C5.37258 24 0 18.6274 0 12Z" fill="#1B4DFF" fill-opacity="0.04"/>
<path d="M14.75 11.75C14.75 11.9489 14.671 12.1397 14.5303 12.2803C14.3897 12.421 14.1989 12.5 14 12.5H10C9.80109 12.5 9.61032 12.421 9.46967 12.2803C9.32902 12.1397 9.25 11.9489 9.25 11.75C9.25 11.5511 9.32902 11.3603 9.46967 11.2197C9.61032 11.079 9.80109 11 10 11H14C14.1989 11 14.3897 11.079 14.5303 11.2197C14.671 11.3603 14.75 11.5511 14.75 11.75ZM14 13.5H10C9.80109 13.5 9.61032 13.579 9.46967 13.7197C9.32902 13.8603 9.25 14.0511 9.25 14.25C9.25 14.4489 9.32902 14.6397 9.46967 14.7803C9.61032 14.921 9.80109 15 10 15H14C14.1989 15 14.3897 14.921 14.5303 14.7803C14.671 14.6397 14.75 14.4489 14.75 14.25C14.75 14.0511 14.671 13.8603 14.5303 13.7197C14.3897 13.579 14.1989 13.5 14 13.5ZM17.75 7V16.5C17.75 17.0967 17.5129 17.669 17.091 18.091C16.669 18.5129 16.0967 18.75 15.5 18.75H8.5C7.90326 18.75 7.33097 18.5129 6.90901 18.091C6.48705 17.669 6.25 17.0967 6.25 16.5V7C6.25 6.66848 6.3817 6.35054 6.61612 6.11612C6.85054 5.8817 7.16848 5.75 7.5 5.75H8.5V5.5C8.5 5.30109 8.57902 5.11032 8.71967 4.96967C8.86032 4.82902 9.05109 4.75 9.25 4.75C9.44891 4.75 9.63968 4.82902 9.78033 4.96967C9.92098 5.11032 10 5.30109 10 5.5V5.75H11.25V5.5C11.25 5.30109 11.329 5.11032 11.4697 4.96967C11.6103 4.82902 11.8011 4.75 12 4.75C12.1989 4.75 12.3897 4.82902 12.5303 4.96967C12.671 5.11032 12.75 5.30109 12.75 5.5V5.75H14V5.5C14 5.30109 14.079 5.11032 14.2197 4.96967C14.3603 4.82902 14.5511 4.75 14.75 4.75C14.9489 4.75 15.1397 4.82902 15.2803 4.96967C15.421 5.11032 15.5 5.30109 15.5 5.5V5.75H16.5C16.8315 5.75 17.1495 5.8817 17.3839 6.11612C17.6183 6.35054 17.75 6.66848 17.75 7ZM16.25 7.25H15.5V7.5C15.5 7.69891 15.421 7.88968 15.2803 8.03033C15.1397 8.17098 14.9489 8.25 14.75 8.25C14.5511 8.25 14.3603 8.17098 14.2197 8.03033C14.079 7.88968 14 7.69891 14 7.5V7.25H12.75V7.5C12.75 7.69891 12.671 7.88968 12.5303 8.03033C12.3897 8.17098 12.1989 8.25 12 8.25C11.8011 8.25 11.6103 8.17098 11.4697 8.03033C11.329 7.88968 11.25 7.69891 11.25 7.5V7.25H10V7.5C10 7.69891 9.92098 7.88968 9.78033 8.03033C9.63968 8.17098 9.44891 8.25 9.25 8.25C9.05109 8.25 8.86032 8.17098 8.71967 8.03033C8.57902 7.88968 8.5 7.69891 8.5 7.5V7.25H7.75V16.5C7.75 16.6989 7.82902 16.8897 7.96967 17.0303C8.11032 17.171 8.30109 17.25 8.5 17.25H15.5C15.6989 17.25 15.8897 17.171 16.0303 17.0303C16.171 16.8897 16.25 16.6989 16.25 16.5V7.25Z" fill="#1B4DFF"/>
</g>
<defs>
<filter id="filter0_i_16781_7174" x="0" y="-1" width="24" height="25" filterUnits="userSpaceOnUse" color-interpolation-filters="sRGB">
<feFlood flood-opacity="0" result="BackgroundImageFix"/>
<feBlend mode="normal" in="SourceGraphic" in2="BackgroundImageFix" result="shape"/>
<feColorMatrix in="SourceAlpha" type="matrix" values="0 0 0 0 0 0 0 0 0 0 0 0 0 0 0 0 0 0 127 0" result="hardAlpha"/>
<feOffset dy="-1"/>
<feGaussianBlur stdDeviation="2"/>
<feComposite in2="hardAlpha" operator="arithmetic" k2="-1" k3="1"/>
<feColorMatrix type="matrix" values="0 0 0 0 0.105882 0 0 0 0 0.301961 0 0 0 0 1 0 0 0 0.08 0"/>
<feBlend mode="normal" in2="shape" result="effect1_innerShadow_16781_7174"/>
</filter>
</defs>
</svg>
