<svg width="16" height="16" viewBox="0 0 16 16" fill="none" xmlns="http://www.w3.org/2000/svg">
<path d="M10.75 7.75C10.75 7.94891 10.671 8.13968 10.5303 8.28033C10.3897 8.42098 10.1989 8.5 10 8.5H6C5.80109 8.5 5.61032 8.42098 5.46967 8.28033C5.32902 8.13968 5.25 7.94891 5.25 7.75C5.25 7.55109 5.32902 7.36032 5.46967 7.21967C5.61032 7.07902 5.80109 7 6 7H10C10.1989 7 10.3897 7.07902 10.5303 7.21967C10.671 7.36032 10.75 7.55109 10.75 7.75ZM10 9.5H6C5.80109 9.5 5.61032 9.57902 5.46967 9.71967C5.32902 9.86032 5.25 10.0511 5.25 10.25C5.25 10.4489 5.32902 10.6397 5.46967 10.7803C5.61032 10.921 5.80109 11 6 11H10C10.1989 11 10.3897 10.921 10.5303 10.7803C10.671 10.6397 10.75 10.4489 10.75 10.25C10.75 10.0511 10.671 9.86032 10.5303 9.71967C10.3897 9.57902 10.1989 9.5 10 9.5ZM13.75 3V12.5C13.75 13.0967 13.5129 13.669 13.091 14.091C12.669 14.5129 12.0967 14.75 11.5 14.75H4.5C3.90326 14.75 3.33097 14.5129 2.90901 14.091C2.48705 13.669 2.25 13.0967 2.25 12.5V3C2.25 2.66848 2.3817 2.35054 2.61612 2.11612C2.85054 1.8817 3.16848 1.75 3.5 1.75H4.5V1.5C4.5 1.30109 4.57902 1.11032 4.71967 0.96967C4.86032 0.829018 5.05109 0.75 5.25 0.75C5.44891 0.75 5.63968 0.829018 5.78033 0.96967C5.92098 1.11032 6 1.30109 6 1.5V1.75H7.25V1.5C7.25 1.30109 7.32902 1.11032 7.46967 0.96967C7.61032 0.829018 7.80109 0.75 8 0.75C8.19891 0.75 8.38968 0.829018 8.53033 0.96967C8.67098 1.11032 8.75 1.30109 8.75 1.5V1.75H10V1.5C10 1.30109 10.079 1.11032 10.2197 0.96967C10.3603 0.829018 10.5511 0.75 10.75 0.75C10.9489 0.75 11.1397 0.829018 11.2803 0.96967C11.421 1.11032 11.5 1.30109 11.5 1.5V1.75H12.5C12.8315 1.75 13.1495 1.8817 13.3839 2.11612C13.6183 2.35054 13.75 2.66848 13.75 3ZM12.25 3.25H11.5V3.5C11.5 3.69891 11.421 3.88968 11.2803 4.03033C11.1397 4.17098 10.9489 4.25 10.75 4.25C10.5511 4.25 10.3603 4.17098 10.2197 4.03033C10.079 3.88968 10 3.69891 10 3.5V3.25H8.75V3.5C8.75 3.69891 8.67098 3.88968 8.53033 4.03033C8.38968 4.17098 8.19891 4.25 8 4.25C7.80109 4.25 7.61032 4.17098 7.46967 4.03033C7.32902 3.88968 7.25 3.69891 7.25 3.5V3.25H6V3.5C6 3.69891 5.92098 3.88968 5.78033 4.03033C5.63968 4.17098 5.44891 4.25 5.25 4.25C5.05109 4.25 4.86032 4.17098 4.71967 4.03033C4.57902 3.88968 4.5 3.69891 4.5 3.5V3.25H3.75V12.5C3.75 12.6989 3.82902 12.8897 3.96967 13.0303C4.11032 13.171 4.30109 13.25 4.5 13.25H11.5C11.6989 13.25 11.8897 13.171 12.0303 13.0303C12.171 12.8897 12.25 12.6989 12.25 12.5V3.25Z" fill="#1B4DFF"/>
</svg>
