<svg xmlns="http://www.w3.org/2000/svg" width="14" height="14" viewBox="0 0 14 14" fill="none">
  <path d="M6.75 0C4.95979 0 3.2429 0.711159 1.97703 1.97703C0.711159 3.2429 0 4.95979 0 6.75C0 8.54021 0.711159 10.2571 1.97703 11.523C3.2429 12.7888 4.95979 13.5 6.75 13.5C8.14188 13.5 9.60562 13.0794 10.665 12.375C10.8308 12.2649 10.946 12.0934 10.9853 11.8983C11.0246 11.7032 10.9848 11.5004 10.8747 11.3347C10.7645 11.1689 10.5931 11.0537 10.398 11.0144C10.2029 10.9751 10.0001 11.0149 9.83438 11.125C9.02188 11.6644 7.84125 12 6.75 12C5.71165 12 4.69661 11.6921 3.83326 11.1152C2.9699 10.5383 2.29699 9.7184 1.89963 8.75909C1.50227 7.79978 1.3983 6.74418 1.60088 5.72578C1.80345 4.70738 2.30346 3.77191 3.03769 3.03769C3.77191 2.30346 4.70738 1.80345 5.72578 1.60088C6.74418 1.3983 7.79978 1.50227 8.75909 1.89963C9.7184 2.29699 10.5383 2.9699 11.1152 3.83326C11.6921 4.69661 12 5.71165 12 6.75C12 7.33062 11.8956 7.8175 11.7069 8.12187C11.5419 8.38687 11.3319 8.5 11 8.5C10.6681 8.5 10.4581 8.38687 10.2931 8.12187C10.1056 7.8175 10 7.33062 10 6.75V4.25C9.99998 4.07004 9.93526 3.89608 9.81763 3.75988C9.70001 3.62367 9.53733 3.53431 9.35929 3.50808C9.18125 3.48186 8.99972 3.52052 8.84782 3.61703C8.69592 3.71353 8.58378 3.86144 8.53187 4.03375C8.01621 3.69492 7.41475 3.50988 6.7978 3.50026C6.18085 3.49065 5.57391 3.65686 5.04794 3.97946C4.52197 4.30206 4.0987 4.76772 3.82762 5.32201C3.55654 5.87629 3.44884 6.49629 3.51712 7.10953C3.5854 7.72276 3.82684 8.30389 4.21321 8.78496C4.59958 9.26604 5.11492 9.62719 5.69897 9.82619C6.28302 10.0252 6.91165 10.0538 7.51137 9.90874C8.1111 9.76365 8.65712 9.45084 9.08562 9.00688C9.51875 9.64375 10.1756 10 11 10C12.5419 10 13.5 8.755 13.5 6.75C13.498 4.9604 12.7862 3.24466 11.5208 1.97922C10.2553 0.713781 8.5396 0.00198514 6.75 0ZM6.75 8.5C6.40388 8.5 6.06554 8.39736 5.77775 8.20507C5.48997 8.01278 5.26566 7.73947 5.13321 7.4197C5.00076 7.09993 4.9661 6.74806 5.03363 6.40859C5.10115 6.06912 5.26782 5.75731 5.51256 5.51256C5.75731 5.26782 6.06912 5.10115 6.40859 5.03363C6.74806 4.9661 7.09993 5.00076 7.4197 5.13321C7.73947 5.26566 8.01278 5.48997 8.20507 5.77775C8.39736 6.06554 8.5 6.40388 8.5 6.75C8.5 7.21413 8.31563 7.65925 7.98744 7.98744C7.65925 8.31563 7.21413 8.5 6.75 8.5Z" fill="#1B4DFF"/>
</svg>