<svg width="24" height="24" viewBox="0 0 24 24" fill="none" xmlns="http://www.w3.org/2000/svg">
<circle cx="12" cy="12" r="12" fill="#0A66C2"/>
<path d="M8.92787 16.993H6.19561V8.99805H8.92787V16.993ZM7.55985 7.89012C7.24992 7.88851 6.94746 7.80237 6.69063 7.64255C6.43379 7.48274 6.23411 7.25643 6.11677 6.99217C5.99943 6.72791 5.9697 6.43756 6.03132 6.15775C6.09295 5.87794 6.24317 5.62121 6.46302 5.41998C6.68288 5.21874 6.96252 5.08201 7.26666 5.02704C7.57079 4.97207 7.88579 5.00132 8.17189 5.11111C8.45799 5.2209 8.70238 5.4063 8.87421 5.64391C9.04604 5.88152 9.13761 6.1607 9.13737 6.44621C9.14029 6.63736 9.10141 6.8271 9.02304 7.00411C8.94467 7.18112 8.82841 7.34178 8.6812 7.47653C8.53399 7.61127 8.35884 7.71733 8.16619 7.78838C7.97354 7.85944 7.76733 7.89404 7.55985 7.89012ZM18.9987 17H16.2677V12.6322C16.2677 11.3441 15.6733 10.9465 14.906 10.9465C14.0958 10.9465 13.3007 11.5092 13.3007 12.6648V17H10.5685V9.00386H13.196V10.1118H13.2313C13.4951 9.62002 14.4189 8.77949 15.8286 8.77949C17.3531 8.77949 19 9.61305 19 12.0544L18.9987 17Z" fill="white"/>
</svg>
