<svg viewBox="0 0 24 24" fill="none" xmlns="http://www.w3.org/2000/svg">
<rect width="24" height="24" rx="12" fill="#156FF7"/>
<path d="M6.99986 18.4287H16.9999C17.3787 18.4287 17.7421 18.2782 18.01 18.0103C18.2779 17.7423 18.4284 17.379 18.4284 17.0001V8.42868C18.4284 8.0498 18.2779 7.68643 18.01 7.41852C17.7421 7.15061 17.3787 7.0001 16.9999 7.0001H14.857H9.14272H6.99986C6.62098 7.0001 6.25762 7.15061 5.98971 7.41852C5.7218 7.68643 5.57129 8.0498 5.57129 8.42868V17.0001C5.57129 17.379 5.7218 17.7423 5.98971 18.0103C6.25762 18.2782 6.62098 18.4287 6.99986 18.4287Z" fill="white" fill-opacity="0.4"/>
<path d="M9.14272 8.42868V7.0001M9.14272 5.57153V7.0001M14.857 8.42868V7.0001M14.857 5.57153V7.0001M8.42843 11.2858H15.5713M14.857 7.0001H16.9999C17.3787 7.0001 17.7421 7.15061 18.01 7.41852C18.2779 7.68643 18.4284 8.0498 18.4284 8.42868V17.0001C18.4284 17.379 18.2779 17.7423 18.01 18.0103C17.7421 18.2782 17.3787 18.4287 16.9999 18.4287H6.99986C6.62098 18.4287 6.25762 18.2782 5.98971 18.0103C5.7218 17.7423 5.57129 17.379 5.57129 17.0001V8.42868C5.57129 8.0498 5.7218 7.68643 5.98971 7.41852C6.25762 7.15061 6.62098 7.0001 6.99986 7.0001H9.14272M14.857 7.0001H9.14272" stroke="white" stroke-linecap="round" stroke-linejoin="round"/>
</svg>
