<svg width="24" height="24" viewBox="0 0 24 24" fill="none" xmlns="http://www.w3.org/2000/svg">
<path d="M0 12C0 5.37258 5.37258 0 12 0V0C18.6274 0 24 5.37258 24 12V12C24 18.6274 18.6274 24 12 24V24C5.37258 24 0 18.6274 0 12V12Z" fill="#1B4DFF"/>
<path d="M12 5.25C10.665 5.25 9.35994 5.64588 8.2499 6.38758C7.13987 7.12928 6.27471 8.18349 5.76382 9.41689C5.25292 10.6503 5.11925 12.0075 5.3797 13.3169C5.64015 14.6262 6.28303 15.829 7.22703 16.773C8.17104 17.717 9.37377 18.3599 10.6831 18.6203C11.9925 18.8808 13.3497 18.7471 14.5831 18.2362C15.8165 17.7253 16.8707 16.8601 17.6124 15.7501C18.3541 14.6401 18.75 13.335 18.75 12C18.748 10.2104 18.0362 8.49466 16.7708 7.22922C15.5053 5.96378 13.7896 5.25199 12 5.25ZM10.6919 14.75H13.3081C13.0246 15.6137 12.5808 16.4163 12 17.1156C11.4192 16.4163 10.9754 15.6137 10.6919 14.75ZM10.3381 13.25C10.2206 12.4208 10.2206 11.5792 10.3381 10.75H13.6619C13.7794 11.5792 13.7794 12.4208 13.6619 13.25H10.3381ZM6.75 12C6.74998 11.5787 6.80098 11.159 6.90188 10.75H8.82625C8.72458 11.5802 8.72458 12.4198 8.82625 13.25H6.90188C6.80098 12.841 6.74998 12.4213 6.75 12ZM13.3081 9.25H10.6919C10.9754 8.38627 11.4192 7.58372 12 6.88438C12.5808 7.58372 13.0246 8.38627 13.3081 9.25ZM15.1738 10.75H17.0981C17.3006 11.571 17.3006 12.429 17.0981 13.25H15.1738C15.2754 12.4198 15.2754 11.5802 15.1738 10.75ZM16.47 9.25H14.875C14.6716 8.51628 14.3788 7.81036 14.0031 7.14812C15.0254 7.5729 15.8883 8.30815 16.47 9.25ZM10 7.14812C9.62323 7.81021 9.32936 8.51614 9.125 9.25H7.53C8.1125 8.30765 8.97659 7.57234 10 7.14812ZM7.53 14.75H9.125C9.32936 15.4839 9.62323 16.1898 10 16.8519C8.97659 16.4277 8.1125 15.6923 7.53 14.75ZM14.0031 16.8519C14.3788 16.1896 14.6716 15.4837 14.875 14.75H16.47C15.8883 15.6918 15.0254 16.4271 14.0031 16.8519Z" fill="white"/>
</svg>
