<svg width="182" height="119" viewBox="0 0 182 119" fill="none" xmlns="http://www.w3.org/2000/svg">
<g clip-path="url(#clip0_25780_152270)">
<path d="M98.3267 27.9784C100.058 28.9836 100.652 31.2107 99.6521 32.9537C98.6523 34.6943 96.4373 35.2914 94.7037 34.2862C93.6191 33.6568 92.9358 32.5087 92.8945 31.2499V31.1323V31.0147C92.9587 29.0043 94.6327 27.4274 96.6322 27.4942C97.2284 27.5127 97.8085 27.681 98.3267 27.9807V27.9784ZM97.6755 31.9623C97.5333 31.8217 97.304 31.824 97.1642 31.9669C96.8133 32.3266 96.2401 32.3312 95.8846 31.9807C95.8801 31.9761 95.8755 31.9715 95.8709 31.9669C95.731 31.824 95.5017 31.8217 95.3595 31.9623C95.2174 32.1029 95.2151 32.3335 95.355 32.4764C95.9855 33.122 97.0174 33.1335 97.6595 32.4995C97.6663 32.4926 97.6755 32.4833 97.6824 32.4764C97.8223 32.3335 97.82 32.1029 97.6778 31.9623H97.6755ZM95.4329 30.0372H95.3871C95.1876 30.0626 95.0454 30.2424 95.0683 30.443C95.089 30.6274 95.2449 30.768 95.4306 30.7657H95.4765C95.676 30.7404 95.8181 30.5605 95.7952 30.36C95.7746 30.1755 95.6187 30.0349 95.4329 30.0372ZM97.6067 30.0372H97.5608C97.3614 30.0626 97.2192 30.2424 97.2421 30.443C97.2628 30.6274 97.4187 30.768 97.6044 30.7657H97.6503C97.8498 30.7404 97.9919 30.5605 97.969 30.36C97.9484 30.1755 97.7924 30.0349 97.6067 30.0372Z" fill="#93C5FD"/>
<path d="M136.815 100.108H136.753L133.703 100.106C133.511 100.106 133.35 99.9626 133.325 99.7713V99.7275L133.323 96.1101C133.323 95.9741 133.396 95.8496 133.513 95.7827C133.843 95.596 134.056 95.2548 134.082 94.8744V94.7983L134.084 94.4179C134.086 93.7862 134.598 93.2767 135.226 93.2813C135.829 93.279 136.329 93.747 136.368 94.3533V94.4202V95.9372H137.131C137.709 95.9349 138.198 96.366 138.266 96.9424L138.273 97.007V97.0738L138.266 97.1476L137.884 99.0566C137.741 99.6675 137.317 100.11 136.824 100.11H136.81L136.815 100.108ZM132.25 100.103C131.853 100.106 131.523 99.8012 131.491 99.4024V99.3447L131.488 96.6911C131.488 96.2923 131.798 95.9626 132.195 95.9349H132.252H132.635C132.827 95.9349 132.99 96.0778 133.013 96.2692V96.313L133.015 99.7251C133.015 99.9188 132.869 100.08 132.678 100.101H132.635H132.252L132.25 100.103Z" fill="#93C5FD"/>
<path d="M122.562 98.5375C112.225 98.5375 100.992 96.9929 89.8337 94.0234C76.0342 90.3507 63.3836 84.806 53.2461 77.9909L53.5465 77.5391C63.6358 84.3218 76.2314 89.8412 89.9712 93.4977C102.39 96.8038 114.901 98.3347 126.148 97.9312L126.169 98.473C124.981 98.5168 123.78 98.5375 122.564 98.5375H122.562Z" fill="#C4C7CA"/>
<path d="M121.015 27.9929C117.658 26.8932 114.205 25.8695 110.752 24.9519C90.8778 19.6631 71.3435 17.7842 54.2582 19.5225L54.2031 18.983C71.3527 17.2401 90.9558 19.1213 110.889 24.4286C114.352 25.3508 117.816 26.3767 121.182 27.4788L121.015 27.9952V27.9929Z" fill="#C4C7CA"/>
<path d="M29.9476 70.2527C21.6651 62.0544 18.166 53.501 20.0967 46.1695C22.5732 36.7607 33.5797 30.2546 50.2913 28.3203L50.3532 28.8598C33.8732 30.7664 23.0364 37.125 20.6195 46.3078C18.7415 53.4433 22.1879 61.81 30.3259 69.8654L29.9453 70.2527H29.9476Z" fill="#C4C7CA"/>
<path d="M142.285 95.1715L142.11 94.6573C151.356 91.5149 157.139 86.4521 158.834 80.0151C160.989 71.8329 156.307 62.3389 145.656 53.2806C134.949 44.1761 119.508 36.621 102.18 32.01L102.317 31.4844C119.721 36.1161 135.236 43.7104 146.004 52.8656C156.825 62.0668 161.567 71.7568 159.356 80.1534C157.614 86.7748 151.711 91.9668 142.285 95.1715Z" fill="#C4C7CA"/>
<path d="M50.3438 96.6952C30.0322 87.6369 14.3777 75.8858 6.26953 63.6044L6.71896 63.3047C14.7721 75.5008 30.3417 87.1827 50.5617 96.1995L50.3438 96.6952Z" fill="#C4C7CA"/>
<path d="M131.035 73.0779C132.228 73.0779 133.195 72.1056 133.195 70.9062C133.195 69.7067 132.228 68.7344 131.035 68.7344C129.842 68.7344 128.875 69.7067 128.875 70.9062C128.875 72.1056 129.842 73.0779 131.035 73.0779Z" fill="#E2E8F0"/>
<path d="M90.828 12.8123C92.021 12.8123 92.988 11.84 92.988 10.6405C92.988 9.44109 92.021 8.46875 90.828 8.46875C89.6351 8.46875 88.668 9.44109 88.668 10.6405C88.668 11.84 89.6351 12.8123 90.828 12.8123Z" fill="#E2E8F0"/>
<path d="M45.543 93.9787C45.543 94.532 45.5613 95.0853 45.6003 95.634C45.6416 96.2888 45.7104 96.9412 45.8067 97.5868C46.1254 99.7632 46.7376 101.887 47.6227 103.897L47.758 104.197L47.8268 104.346C47.8498 104.397 47.875 104.446 47.8979 104.494C47.93 104.561 47.9598 104.623 47.9896 104.688C48.0286 104.766 48.0676 104.847 48.1066 104.927C48.1112 104.937 48.1157 104.948 48.1226 104.96C48.157 105.029 48.1891 105.093 48.2235 105.163C48.2304 105.176 48.2373 105.193 48.2465 105.206C48.2854 105.285 48.3267 105.363 48.3657 105.442C48.4115 105.522 48.4551 105.608 48.4987 105.691C48.6065 105.893 48.7211 106.094 48.8358 106.295C48.8702 106.355 48.9045 106.412 48.9389 106.472C48.971 106.527 49.0032 106.581 49.0353 106.636C49.0582 106.673 49.0811 106.712 49.104 106.747C49.1407 106.809 49.1774 106.866 49.2141 106.929C49.2967 107.062 49.3838 107.196 49.4686 107.332H49.4709C49.5099 107.394 49.5512 107.454 49.5902 107.514C49.7094 107.699 49.8355 107.881 49.9593 108.061C49.9593 108.061 49.9616 108.061 49.9616 108.063C50.0602 108.208 50.1657 108.349 50.2666 108.492C50.3354 108.584 50.3996 108.674 50.4684 108.762C50.5234 108.835 50.5785 108.909 50.6358 108.983C50.6473 108.999 50.661 109.013 50.6725 109.029C50.6885 109.052 50.7046 109.07 50.7206 109.091C50.9614 109.4 51.209 109.704 51.4636 110L51.5048 110.048C51.5186 110.064 51.5347 110.08 51.5484 110.099C51.5713 110.124 51.592 110.149 51.6149 110.175C51.6378 110.2 51.6585 110.226 51.6814 110.251C53.0114 111.756 54.5179 113.094 56.1712 114.232C56.3913 114.385 56.6137 114.532 56.8384 114.675C56.8958 114.712 56.9508 114.749 57.0081 114.781C57.0242 114.793 57.0425 114.804 57.0586 114.816C57.0907 114.834 57.1205 114.853 57.1503 114.873C57.1801 114.894 57.2099 114.91 57.2397 114.929C57.3589 115.005 57.4828 115.076 57.6043 115.15C57.6341 115.169 57.6662 115.187 57.696 115.205C57.7258 115.224 57.7579 115.24 57.7877 115.258C57.7877 115.258 57.7885 115.259 57.79 115.261H57.7923L57.7946 115.263C57.946 115.351 58.0996 115.438 58.2555 115.521C58.3381 115.567 58.4252 115.613 58.5123 115.657C58.7072 115.763 58.9044 115.867 59.1016 115.964C59.1727 115.998 59.2438 116.033 59.3149 116.068C59.3745 116.095 59.4318 116.125 59.4915 116.151C59.5098 116.16 59.5259 116.167 59.5419 116.176C59.5924 116.199 59.6382 116.222 59.6887 116.245C59.7437 116.271 59.7964 116.296 59.8492 116.321C59.9111 116.349 59.9684 116.377 60.0303 116.4C60.2573 116.501 60.4843 116.6 60.7136 116.692C61.5323 117.029 62.3692 117.322 63.2222 117.566C63.2612 117.578 63.3025 117.589 63.3415 117.601C63.706 117.702 64.0729 117.797 64.4421 117.88C65.0865 118.03 65.7377 118.152 66.3958 118.249H66.4004L66.6365 118.283C66.6365 118.283 66.6503 118.286 66.6595 118.286C66.6595 118.286 66.6602 118.286 66.6618 118.286L66.9232 118.32C66.9232 118.32 66.9346 118.322 66.9415 118.322C67.0241 118.334 67.1066 118.343 67.1892 118.352L67.4529 118.38L67.6569 118.401C67.6569 118.401 67.6684 118.403 67.6753 118.403C67.7372 118.408 67.7968 118.415 67.8587 118.419H67.8679L68.0261 118.433C68.6567 118.484 69.2919 118.507 69.9339 118.507C70.6287 118.507 71.3189 118.479 71.9999 118.419H72.0068L72.4425 118.378C72.4815 118.373 72.5182 118.371 72.5549 118.366C72.5617 118.366 72.5709 118.364 72.5778 118.364C72.5892 118.362 72.6007 118.362 72.6145 118.359C72.6213 118.359 72.6259 118.359 72.6328 118.357C72.6833 118.352 72.7314 118.345 72.7842 118.341L72.9538 118.32C73.0112 118.313 73.0662 118.304 73.1235 118.297C73.1373 118.295 73.1487 118.295 73.1625 118.292C73.2038 118.288 73.2451 118.281 73.284 118.274L73.3436 118.267C73.3849 118.26 73.4239 118.256 73.4629 118.249H73.4652C74.708 118.069 75.9325 117.792 77.1317 117.419C77.1959 117.398 77.2578 117.379 77.3221 117.359C77.3243 117.359 77.3266 117.356 77.3289 117.356C77.3473 117.35 77.3679 117.345 77.3863 117.338C77.5559 117.283 77.7233 117.227 77.8907 117.167C78.1223 117.089 78.3493 117.006 78.5786 116.918C78.6405 116.893 78.7002 116.87 78.7621 116.845C78.8859 116.796 79.0097 116.748 79.1313 116.697C79.3399 116.614 79.5486 116.524 79.755 116.432C79.9476 116.344 80.1379 116.259 80.3282 116.167C80.3328 116.164 80.3397 116.164 80.3443 116.16C80.3878 116.139 80.4314 116.118 80.4704 116.098H80.4727C81.516 115.595 82.5204 115.016 83.4811 114.371C83.7884 114.163 84.0934 113.949 84.3915 113.73C84.6322 113.55 84.8661 113.368 85.1023 113.181C86.2626 112.252 87.338 111.219 88.3148 110.094C88.3859 110.013 88.4501 109.935 88.5189 109.854C88.5304 109.843 88.5396 109.831 88.5487 109.822C88.5923 109.769 88.6313 109.721 88.6748 109.67C88.7322 109.601 88.7872 109.534 88.8422 109.465C88.856 109.449 88.8675 109.435 88.8789 109.421C88.9248 109.363 88.9683 109.31 89.0119 109.253C89.0348 109.225 89.0555 109.197 89.0784 109.172C89.2114 109.001 89.3421 108.833 89.4705 108.66C89.5049 108.614 89.5393 108.568 89.5737 108.519C89.7365 108.298 89.8947 108.074 90.0484 107.849C90.108 107.761 90.163 107.676 90.2226 107.59L90.3923 107.332C90.4496 107.24 90.507 107.152 90.5643 107.062L90.5712 107.049C90.6285 106.961 90.6835 106.871 90.7386 106.781C90.7821 106.707 90.8257 106.638 90.867 106.567C90.8945 106.518 90.9243 106.472 90.9495 106.421C90.961 106.405 90.9702 106.389 90.9793 106.373L91.1697 106.039C91.2453 105.91 91.3164 105.776 91.3898 105.644C91.4173 105.589 91.4471 105.536 91.4769 105.481C91.4884 105.462 91.4976 105.444 91.5067 105.425C91.5411 105.361 91.5755 105.296 91.6053 105.23C91.6351 105.163 91.6741 105.1 91.7062 105.034C91.7383 104.967 91.7727 104.904 91.8025 104.838C91.8278 104.787 91.8507 104.738 91.8759 104.688C91.8759 104.683 91.8805 104.681 91.8828 104.676C91.8943 104.651 91.9057 104.628 91.9149 104.605C91.9172 104.602 91.9195 104.598 91.9218 104.593C91.947 104.542 91.9699 104.492 91.9952 104.441C92.0273 104.374 92.0571 104.307 92.0869 104.24C92.1075 104.194 92.1304 104.148 92.1511 104.1C92.1809 104.033 92.213 103.968 92.2405 103.899C92.2726 103.83 92.3024 103.763 92.3322 103.692C92.3414 103.676 92.3483 103.657 92.3552 103.639C92.3712 103.606 92.3827 103.574 92.3964 103.544C92.4331 103.461 92.4698 103.374 92.5019 103.288C92.5432 103.194 92.5799 103.095 92.6166 103C92.6532 102.91 92.6876 102.82 92.7197 102.73L92.7335 102.698C93.2609 101.301 93.6599 99.86 93.9282 98.3891C94.0795 97.5476 94.1873 96.7015 94.2515 95.8507C94.2538 95.8023 94.2584 95.7585 94.2607 95.7124C94.3019 95.136 94.3203 94.5597 94.3203 93.9787C94.3203 93.7205 94.3157 93.4669 94.3088 93.2109C94.1506 87.8806 92.2611 82.7486 88.9271 78.5987C88.8537 78.5065 88.7826 78.4166 88.7069 78.3266C88.6313 78.2367 88.5556 78.1468 88.4799 78.0592C79.732 67.7605 64.3366 66.5409 54.0937 75.3341C52.2317 76.9341 50.6174 78.8062 49.3104 80.8881C49.2004 81.0656 49.088 81.2454 48.9825 81.4252C48.877 81.6051 48.7693 81.7895 48.6661 81.9739C46.6161 85.6397 45.543 89.7734 45.5498 93.9787H45.543Z" fill="#F1F5F9"/>
<path d="M60.3379 80.5277C60.3196 80.5254 60.3012 80.5208 60.2852 80.5185C60.3608 80.4723 60.4296 80.4193 60.4961 80.3594L60.3379 80.5277Z" fill="white"/>
<path d="M67.1088 101.75H72.3277L72.6533 107.777L66.4805 107.295L67.1088 101.752V101.75Z" fill="#FFB9B9"/>
<path d="M57.0335 114.838C57.2674 114.967 57.5036 115.089 57.7421 115.206C57.8269 115.248 57.9141 115.289 57.9989 115.333C58.07 115.366 58.1411 115.402 58.2122 115.435C58.2351 115.446 58.2534 115.453 58.2718 115.465C58.3314 115.492 58.3887 115.52 58.4483 115.548C58.5148 115.578 58.579 115.608 58.641 115.638C58.7143 115.67 58.7854 115.702 58.8588 115.734C59.1317 115.857 59.4068 115.974 59.682 116.087C60.668 116.493 61.6746 116.843 62.6996 117.138C62.7455 117.152 62.7959 117.166 62.8441 117.18C63.282 117.302 63.7246 117.415 64.1672 117.517C64.9445 117.696 65.7264 117.846 66.5175 117.959H66.5221L66.8041 118.001C66.8041 118.001 66.8202 118.003 66.8317 118.003C66.8317 118.003 66.8324 118.003 66.8339 118.003L67.1481 118.045C67.1481 118.045 67.1641 118.047 67.171 118.047C67.2696 118.061 67.3705 118.072 67.4691 118.084L67.7878 118.116L68.0332 118.141C68.0332 118.141 68.047 118.144 68.0561 118.144C68.1295 118.148 68.2029 118.158 68.2763 118.162H68.2877L68.4781 118.178C69.237 118.238 70.0006 118.266 70.7734 118.266C71.6103 118.266 72.4404 118.234 73.259 118.162H73.2682L73.7933 118.114C73.8391 118.109 73.8827 118.104 73.9286 118.1C73.9377 118.1 73.9469 118.098 73.9561 118.098C73.9699 118.095 73.9836 118.095 73.9997 118.093C74.0065 118.093 74.0134 118.093 74.0226 118.091C74.0822 118.086 74.1418 118.077 74.206 118.072L74.4101 118.047C74.4789 118.038 74.5454 118.028 74.6142 118.019C74.6302 118.017 74.644 118.017 74.6601 118.015C74.7082 118.01 74.7587 118.001 74.8068 117.992L74.8779 117.982C74.926 117.973 74.9742 117.968 75.0224 117.959H75.0246C76.5197 117.743 77.9941 117.408 79.4364 116.959C79.5121 116.933 79.5878 116.913 79.6657 116.887C78.9526 113.544 76.7352 110.727 73.6649 109.258C74.0386 108.899 74.2978 108.435 74.4078 107.928C74.55 107.266 74.4262 106.575 74.0593 106.005C73.7062 105.459 73.1512 105.078 72.5184 104.942L68.4826 104.094C67.1297 103.829 65.8181 104.71 65.5407 106.065C65.4994 106.266 65.4811 106.469 65.4856 106.674C61.5967 109.279 58.7992 111.976 57.0312 114.84L57.0335 114.838Z" fill="#93C5FD"/>
<path d="M68.345 103.603C72.6647 103.603 76.1665 100.082 76.1665 95.7391C76.1665 91.3959 72.6647 87.875 68.345 87.875C64.0252 87.875 60.5234 91.3959 60.5234 95.7391C60.5234 100.082 64.0252 103.603 68.345 103.603Z" fill="#FFB9B9"/>
<path d="M63.4696 102.514C62.6349 101.942 61.7842 100.84 61.2155 100.015C59.6907 97.8223 59.1655 95.081 59.7663 92.4758C59.8603 91.9617 60.0942 91.4822 60.4405 91.0879C60.8096 90.7213 61.4104 90.5484 61.8599 90.8066C61.6122 90.1381 61.6489 89.398 61.963 88.7594C62.2795 88.1277 62.7358 87.579 63.2999 87.157C65.4943 85.4579 68.4409 85.1075 70.9701 86.2441C71.4585 86.4723 70.6559 84.7132 71.1673 84.8838C71.674 85.0821 72.2404 85.0706 72.7403 84.8562C73.2218 84.6118 74.8155 86.0596 74.6297 85.5501C75.8244 86.0942 76.3518 87.5098 75.8106 88.711C75.6639 89.0337 75.4506 89.3196 75.1801 89.5478C74.7765 89.8914 74.272 90.0873 73.8295 90.3778C72.2266 91.5121 71.7176 93.6701 72.644 95.4061C72.1785 95.1064 71.6694 94.8828 71.1329 94.7467C70.5871 94.613 70.0116 94.7514 69.5874 95.1202C69.2342 95.5283 69.0623 96.0632 69.115 96.6004C69.1333 97.1329 69.2595 97.6586 69.2732 98.1935C69.3145 99.7589 70.1492 102.738 68.9407 103.57C67.9868 104.227 64.6046 103.293 63.4673 102.512L63.4696 102.514Z" fill="#3F3D54"/>
<path d="M181.261 40.2645C181.261 40.8179 181.242 41.3712 181.203 41.9199C181.162 42.5746 181.093 43.2271 180.997 43.8726C180.678 46.049 180.066 48.1724 179.181 50.1828L179.046 50.4825L178.977 50.6324C178.954 50.6831 178.929 50.7315 178.906 50.7799C178.874 50.8468 178.844 50.909 178.814 50.9736C178.775 51.0543 178.736 51.1326 178.697 51.2133C178.693 51.2226 178.688 51.2341 178.681 51.2456C178.647 51.3148 178.615 51.3793 178.58 51.4485C178.573 51.4623 178.566 51.4785 178.557 51.4923C178.518 51.5707 178.477 51.6491 178.438 51.7275C178.392 51.8105 178.349 51.8935 178.305 51.9765C178.197 52.1793 178.083 52.3799 177.968 52.5805C177.934 52.6404 177.899 52.6981 177.865 52.758C177.833 52.8134 177.801 52.8664 177.768 52.9217C177.746 52.9586 177.723 52.9978 177.7 53.0324C177.663 53.0946 177.626 53.1523 177.59 53.2145C177.507 53.3482 177.42 53.4843 177.335 53.618H177.333C177.294 53.6802 177.253 53.7402 177.214 53.8001C177.094 53.9846 176.968 54.1667 176.844 54.3465H176.842C176.743 54.4918 176.638 54.6324 176.537 54.7753C176.468 54.8676 176.404 54.9575 176.335 55.0474C176.28 55.1212 176.225 55.1949 176.168 55.2687C176.156 55.2849 176.143 55.2987 176.131 55.3148C176.115 55.3379 176.099 55.3563 176.083 55.3771C175.842 55.686 175.595 55.9903 175.34 56.2854L175.299 56.3339C175.285 56.35 175.269 56.3661 175.255 56.3846C175.232 56.4099 175.212 56.4353 175.189 56.4607C175.166 56.486 175.145 56.5114 175.122 56.5367C173.792 58.0422 172.286 59.3794 170.633 60.5183C170.412 60.6705 170.19 60.8181 169.965 60.961C169.908 60.9979 169.853 61.0348 169.796 61.067C169.78 61.0786 169.761 61.0901 169.745 61.1016C169.713 61.1201 169.683 61.1385 169.653 61.1593C169.624 61.18 169.594 61.1961 169.562 61.2146C169.442 61.2907 169.319 61.3621 169.197 61.4359C169.167 61.4544 169.135 61.4728 169.105 61.4913C169.076 61.5097 169.044 61.5258 169.014 61.5443C169.014 61.5443 169.013 61.545 169.011 61.5466H169.009L169.007 61.5489C168.855 61.6365 168.702 61.7241 168.546 61.8071C168.463 61.8532 168.376 61.8993 168.289 61.9431C168.094 62.0492 167.897 62.1529 167.7 62.2498C167.629 62.2843 167.558 62.3189 167.487 62.3535C167.427 62.3812 167.37 62.4111 167.31 62.4365C167.292 62.4457 167.276 62.4526 167.26 62.4619C167.209 62.4849 167.163 62.508 167.113 62.531C167.058 62.5564 167.005 62.5818 166.952 62.6071C166.89 62.6348 166.833 62.6624 166.771 62.6855C166.544 62.7869 166.317 62.8861 166.088 62.9783C165.269 63.3149 164.432 63.6077 163.579 63.8521C163.54 63.8636 163.499 63.8751 163.46 63.8867C163.095 63.9881 162.728 64.0826 162.359 64.1656C161.715 64.3155 161.064 64.4377 160.406 64.5345H160.401L160.165 64.5691C160.165 64.5691 160.151 64.5714 160.142 64.5714C160.142 64.5714 160.141 64.5714 160.14 64.5714L159.878 64.606C159.878 64.606 159.867 64.6083 159.86 64.6083C159.78 64.6198 159.695 64.629 159.612 64.6383L159.346 64.6659L159.142 64.6867C159.142 64.6867 159.131 64.689 159.124 64.689C159.062 64.6936 159.002 64.7005 158.94 64.7051H158.931L158.773 64.719C158.142 64.7697 157.507 64.7927 156.865 64.7927C156.17 64.7927 155.48 64.7651 154.799 64.7051H154.792L154.354 64.6636C154.315 64.659 154.279 64.6567 154.242 64.6521C154.235 64.6521 154.226 64.6498 154.219 64.6498C154.208 64.6475 154.196 64.6475 154.182 64.6452C154.176 64.6452 154.171 64.6452 154.164 64.6429C154.114 64.6383 154.065 64.6313 154.013 64.6267L153.843 64.606C153.786 64.5991 153.731 64.5898 153.673 64.5829C153.66 64.5806 153.648 64.5806 153.634 64.5783C153.593 64.5737 153.554 64.5668 153.513 64.5599L153.453 64.553C153.412 64.546 153.373 64.5414 153.334 64.5345H153.332C152.089 64.3547 150.864 64.078 149.665 63.7045C149.601 63.6838 149.539 63.6653 149.475 63.6446C149.472 63.6446 149.47 63.6423 149.468 63.6423C149.45 63.6354 149.429 63.6308 149.411 63.6238C149.241 63.5685 149.074 63.5132 148.906 63.4532C148.675 63.3748 148.448 63.2918 148.218 63.2042C148.156 63.1789 148.097 63.1558 148.035 63.1305C147.911 63.0821 147.787 63.0336 147.666 62.9829C147.457 62.8999 147.248 62.81 147.042 62.7178C146.849 62.6302 146.659 62.5449 146.469 62.4526C146.464 62.4503 146.457 62.4503 146.453 62.4457C146.409 62.425 146.365 62.4042 146.326 62.3835H146.324C145.281 61.8809 144.276 61.3022 143.316 60.6567C143.008 60.4492 142.703 60.2348 142.405 60.0157C142.165 59.8359 141.931 59.6538 141.695 59.467C140.534 58.5379 139.459 57.505 138.482 56.38C138.411 56.2993 138.347 56.2209 138.278 56.1402C138.266 56.1287 138.257 56.1171 138.248 56.1079C138.205 56.0549 138.166 56.0065 138.122 55.9558C138.065 55.8866 138.01 55.8197 137.955 55.7506C137.941 55.7344 137.929 55.7206 137.918 55.7068C137.872 55.6491 137.828 55.5961 137.785 55.5385C137.762 55.5108 137.741 55.4831 137.718 55.4555C137.585 55.2849 137.455 55.1166 137.326 54.9436C137.292 54.8975 137.258 54.8514 137.223 54.803C137.06 54.5817 136.902 54.358 136.748 54.1321C136.689 54.0445 136.634 53.9592 136.574 53.8739L136.405 53.6157C136.347 53.5258 136.29 53.4358 136.233 53.3459L136.226 53.3321C136.168 53.2445 136.113 53.1546 136.058 53.067C136.015 52.9932 135.971 52.924 135.93 52.8526C135.902 52.8041 135.873 52.7557 135.847 52.7073C135.836 52.6912 135.827 52.675 135.818 52.6589L135.627 52.3246C135.552 52.1955 135.48 52.0618 135.407 51.9304C135.38 51.875 135.35 51.822 135.32 51.7667C135.308 51.7482 135.299 51.7298 135.29 51.7113C135.256 51.6468 135.221 51.5822 135.192 51.5154C135.162 51.4485 135.123 51.3863 135.091 51.3194C135.059 51.2525 135.024 51.1903 134.994 51.1234C134.969 51.0727 134.946 51.0243 134.921 50.9736C134.921 50.969 134.916 50.9667 134.914 50.962C134.903 50.9367 134.891 50.9136 134.882 50.8906C134.88 50.8883 134.877 50.8837 134.875 50.879C134.85 50.8283 134.827 50.7776 134.802 50.7269C134.77 50.66 134.74 50.5932 134.71 50.5263C134.689 50.4802 134.666 50.4341 134.646 50.3857C134.616 50.3188 134.584 50.2543 134.556 50.1851C134.524 50.1159 134.494 50.0491 134.465 49.9776C134.455 49.9615 134.449 49.943 134.442 49.9246C134.426 49.8923 134.414 49.86 134.4 49.8277C134.364 49.7447 134.327 49.6571 134.295 49.5718C134.254 49.475 134.217 49.3782 134.18 49.2836C134.144 49.1937 134.109 49.1038 134.077 49.0139L134.063 48.9816C133.536 47.5845 133.137 46.1436 132.869 44.6726C132.717 43.8311 132.61 42.985 132.545 42.1343C132.543 42.0859 132.538 42.0421 132.536 41.996C132.495 41.4196 132.477 40.8432 132.477 40.2622C132.477 40.004 132.481 39.7504 132.488 39.4945C132.646 34.1642 134.536 29.0321 137.87 24.8822C137.943 24.7923 138.014 24.7001 138.09 24.6102C138.166 24.5203 138.241 24.4304 138.317 24.3405C147.065 14.0418 162.46 12.8222 172.703 21.6154C174.565 23.2154 176.179 25.0874 177.486 27.1693C177.597 27.3468 177.709 27.5267 177.814 27.7065C177.92 27.8863 178.028 28.0708 178.131 28.2552C180.181 31.9209 181.256 36.0547 181.249 40.2599L181.261 40.2645Z" fill="#F1F5F9"/>
<path d="M166.471 26.8167C166.489 26.8144 166.507 26.8121 166.523 26.8075C166.448 26.7614 166.379 26.7084 166.312 26.6484L166.471 26.8167Z" fill="white"/>
<path d="M152.807 50.2449L158.989 49.5625L160.461 55.0081L154.605 56.3891L152.805 50.2449H152.807Z" fill="#ED9DA0"/>
<path d="M154.351 51.9065C158.396 51.9065 161.675 48.5363 161.675 44.379C161.675 40.2217 158.396 36.8516 154.351 36.8516C150.306 36.8516 147.027 40.2217 147.027 44.379C147.027 48.5363 150.306 51.9065 154.351 51.9065Z" fill="#ED9DA0"/>
<path d="M169.984 61.6827C169.773 61.8003 169.558 61.9109 169.342 62.017C169.266 62.0539 169.186 62.0908 169.11 62.13C169.046 62.1599 168.982 62.1922 168.918 62.2222C168.897 62.2314 168.881 62.2406 168.863 62.2498C168.808 62.2752 168.757 62.3006 168.702 62.3236C168.643 62.3513 168.583 62.379 168.528 62.4043C168.461 62.4343 168.397 62.4643 168.331 62.4919C168.083 62.6026 167.835 62.7109 167.586 62.8124C166.694 63.1813 165.781 63.4994 164.852 63.7646C164.811 63.7761 164.765 63.7899 164.722 63.8015C164.325 63.9121 163.924 64.0136 163.522 64.1058C162.818 64.2695 162.11 64.4032 161.394 64.5069H161.39L161.133 64.5438C161.133 64.5438 161.117 64.5461 161.108 64.5461C161.108 64.5461 161.107 64.5461 161.105 64.5461L160.821 64.583C160.821 64.583 160.807 64.5853 160.8 64.5853C160.711 64.5968 160.622 64.6084 160.532 64.6176L160.243 64.6476L160.021 64.6706C160.021 64.6706 160.007 64.6729 160 64.6729C159.934 64.6775 159.867 64.6845 159.801 64.6914H159.792L159.62 64.7075C158.932 64.7628 158.241 64.7859 157.54 64.7859C156.783 64.7859 156.031 64.7559 155.288 64.6914H155.281L154.804 64.6476C154.763 64.643 154.724 64.6407 154.68 64.636C154.673 64.636 154.662 64.6337 154.655 64.6337C154.644 64.6314 154.63 64.6314 154.616 64.6291C154.609 64.6291 154.602 64.6291 154.596 64.6268C154.54 64.6222 154.488 64.6153 154.43 64.6084L154.245 64.5853C154.183 64.5784 154.121 64.5669 154.059 64.56C154.043 64.5577 154.031 64.5577 154.018 64.5553C153.974 64.5507 153.928 64.5438 153.885 64.5346L153.82 64.5277C153.777 64.5208 153.733 64.5162 153.69 64.5069H153.687C152.335 64.311 150.998 64.0089 149.691 63.6009C149.622 63.5778 149.553 63.5594 149.484 63.5363C150.131 60.5092 152.137 57.9547 154.919 56.6267C154.579 56.3017 154.346 55.8821 154.245 55.421C154.116 54.8215 154.229 54.1944 154.561 53.6803C154.882 53.1869 155.384 52.8411 155.958 52.7189L159.613 51.9489C160.837 51.7091 162.027 52.5045 162.277 53.7356C162.314 53.9178 162.33 54.1022 162.328 54.2867C165.847 56.6429 168.381 59.0867 169.982 61.6804L169.984 61.6827Z" fill="#93C5FD"/>
<path d="M173.949 41.113C172.704 39.6537 172.113 37.717 171.118 36.0594C170.122 34.4017 168.391 32.917 166.561 33.3043C165.3 33.5694 164.326 34.6899 163.833 35.9372C163.34 37.1845 163.248 38.5609 163.161 39.9096C163.19 37.1384 161.377 34.4548 158.875 33.5695C156.373 32.6841 153.383 33.6709 151.812 35.898C150.393 34.5746 148.215 34.5285 146.743 35.792C145.337 37.0554 145.027 39.4577 146.059 41.0692C147.091 42.6808 149.331 43.2802 150.973 42.3857L151.553 42.9229C151.228 44.071 151.861 45.4289 152.925 45.8624C153.789 46.2128 155.009 46.1552 155.332 47.0658C155.557 47.7022 155.135 48.3823 154.686 48.871C154.236 49.3598 153.704 49.867 153.649 50.5425C153.569 51.5639 154.617 52.2809 155.573 52.4953C157.875 53.0163 160.43 51.9443 161.757 49.8993C161.783 49.8601 161.81 49.8209 161.84 49.7817C163.344 47.8474 163.991 45.3759 163.628 42.9459C163.553 42.4733 163.628 42.1228 163.952 42.0099C165.351 41.5257 169.272 42.5401 170.459 43.4577C171.647 44.3753 172.597 45.588 173.738 46.5632C174.88 47.5385 176.339 48.2924 177.79 48.0272C178.953 47.8151 179.941 46.9667 180.606 45.9431C181.271 44.9194 181.654 43.7275 181.998 42.5401C179.425 44.0341 175.908 43.407 173.947 41.1107L173.949 41.113Z" fill="#3F3D54"/>
<path d="M23.3617 25.0192C23.3617 25.5726 23.38 26.1259 23.419 26.6746C23.4603 27.3293 23.5291 27.9818 23.6254 28.6273C23.9441 30.8037 24.5564 32.9271 25.4415 34.9375L25.5768 35.2372L25.6456 35.3871C25.6685 35.4378 25.6937 35.4862 25.7166 35.5346C25.7487 35.6015 25.7786 35.6637 25.8084 35.7283C25.8473 35.809 25.8863 35.8874 25.9253 35.968C25.9299 35.9773 25.9345 35.9888 25.9414 36.0003C25.9758 36.0695 26.0079 36.134 26.0423 36.2032C26.0491 36.217 26.056 36.2332 26.0652 36.247C26.1042 36.3254 26.1454 36.4038 26.1844 36.4822C26.2303 36.5652 26.2738 36.6482 26.3174 36.7312C26.4252 36.934 26.5398 37.1346 26.6545 37.3352C26.6889 37.3952 26.7233 37.4528 26.7577 37.5127C26.7898 37.5681 26.8219 37.6211 26.854 37.6764C26.8769 37.7133 26.8998 37.7525 26.9228 37.7871C26.9595 37.8493 26.9962 37.907 27.0328 37.9692C27.1154 38.1029 27.2025 38.239 27.2874 38.3727H27.2897C27.3286 38.4349 27.3699 38.4949 27.4089 38.5548C27.5281 38.7393 27.6543 38.9214 27.7781 39.1012C27.8767 39.2465 27.9822 39.3871 28.083 39.53C28.1518 39.6223 28.216 39.7122 28.2848 39.8021C28.3399 39.8759 28.3949 39.9496 28.4522 40.0234C28.4637 40.0396 28.4774 40.0534 28.4889 40.0695C28.505 40.0926 28.521 40.111 28.5371 40.1318C28.7778 40.4407 29.0255 40.745 29.28 41.0401L29.3213 41.0886C29.335 41.1047 29.3511 41.1208 29.3648 41.1393C29.3878 41.1646 29.4084 41.19 29.4313 41.2154C29.4543 41.2407 29.4749 41.2661 29.4978 41.2914C30.8278 42.7969 32.3343 44.1341 33.9876 45.273C34.2077 45.4252 34.4302 45.5728 34.6549 45.7157C34.7122 45.7526 34.7672 45.7895 34.8245 45.8217C34.8406 45.8333 34.8589 45.8448 34.875 45.8563C34.9071 45.8748 34.9369 45.8932 34.9667 45.914C34.9965 45.9347 35.0263 45.9509 35.0561 45.9693C35.1754 46.0454 35.2992 46.1168 35.4207 46.1906C35.4505 46.2091 35.4826 46.2275 35.5125 46.246C35.5423 46.2644 35.5744 46.2805 35.6042 46.299C35.6042 46.299 35.6049 46.2998 35.6065 46.3013H35.6088L35.6111 46.3036C35.7624 46.3912 35.916 46.4788 36.072 46.5618C36.1545 46.6079 36.2416 46.654 36.3288 46.6978C36.5237 46.8039 36.7209 46.9076 36.9181 47.0045C36.9892 47.0391 37.0603 47.0736 37.1313 47.1082C37.191 47.1359 37.2483 47.1659 37.3079 47.1912C37.3262 47.2004 37.3423 47.2074 37.3583 47.2166C37.4088 47.2396 37.4547 47.2627 37.5051 47.2857C37.5601 47.3111 37.6129 47.3365 37.6656 47.3618C37.7275 47.3895 37.7849 47.4172 37.8468 47.4425C38.0738 47.544 38.3008 47.6431 38.5301 47.7353C39.3487 48.0719 40.1857 48.3647 41.0387 48.6091C41.0776 48.6206 41.1189 48.6321 41.1579 48.6437C41.5225 48.7451 41.8894 48.8396 42.2586 48.9226C42.9029 49.0725 43.5541 49.1947 44.2122 49.2915H44.2168L44.453 49.3261C44.453 49.3261 44.4667 49.3284 44.4759 49.3284C44.4759 49.3284 44.4767 49.3284 44.4782 49.3284L44.7396 49.363C44.7396 49.363 44.7511 49.3653 44.758 49.3653C44.8405 49.3768 44.9231 49.386 45.0056 49.3953L45.2693 49.4229L45.4734 49.4437C45.4734 49.4437 45.4848 49.446 45.4917 49.446C45.5536 49.4506 45.6133 49.4575 45.6752 49.4621H45.6843L45.8426 49.476C46.4731 49.5267 47.1083 49.5497 47.7504 49.5497C48.4451 49.5497 49.1353 49.5221 49.8164 49.4621H49.8233L50.2589 49.4206C50.2979 49.416 50.3346 49.4137 50.3713 49.4091C50.3782 49.4091 50.3873 49.4068 50.3942 49.4068C50.4057 49.4045 50.4171 49.4045 50.4309 49.4022C50.4378 49.4022 50.4424 49.4022 50.4492 49.3999C50.4997 49.3953 50.5478 49.3884 50.6006 49.3837L50.7703 49.363C50.8276 49.3561 50.8826 49.3469 50.94 49.3399C50.9537 49.3376 50.9652 49.3376 50.9789 49.3353C51.0202 49.3307 51.0615 49.3238 51.1005 49.3169L51.1601 49.31C51.2014 49.3031 51.2403 49.2984 51.2793 49.2915H51.2816C52.5244 49.1117 53.7489 48.835 54.9482 48.4615C55.0124 48.4408 55.0743 48.4223 55.1385 48.4016C55.1408 48.4016 55.1431 48.3993 55.1454 48.3993C55.1637 48.3924 55.1844 48.3878 55.2027 48.3808C55.3724 48.3255 55.5398 48.2702 55.7072 48.2102C55.9388 48.1319 56.1658 48.0489 56.3951 47.9612C56.457 47.9359 56.5166 47.9128 56.5785 47.8875C56.7023 47.8391 56.8262 47.7906 56.9477 47.7399C57.1564 47.6569 57.365 47.567 57.5691 47.4771C57.7617 47.3895 57.952 47.3042 58.1424 47.2143C58.1469 47.212 58.1538 47.212 58.1584 47.2073C58.202 47.1866 58.2455 47.1659 58.2845 47.1451H58.2868C59.3302 46.6425 60.3345 46.0638 61.2953 45.4183C61.6025 45.2108 61.9075 44.9964 62.2056 44.7774C62.4464 44.5975 62.6803 44.4154 62.9165 44.2286C64.0767 43.2995 65.1522 42.2667 66.129 41.1416C66.2001 41.0609 66.2643 40.9825 66.3331 40.9018C66.3445 40.8903 66.3537 40.8788 66.3629 40.8695C66.4064 40.8165 66.4454 40.7681 66.489 40.7174C66.5463 40.6482 66.6013 40.5813 66.6564 40.5122C66.6701 40.496 66.6816 40.4822 66.6931 40.4684C66.7389 40.4107 66.7825 40.3577 66.8261 40.3001C66.849 40.2724 66.8696 40.2447 66.8926 40.2171C67.0256 40.0465 67.154 39.8782 67.2847 39.7053C67.3191 39.6591 67.3535 39.613 67.3879 39.5646C67.5507 39.3433 67.7089 39.1197 67.8625 38.8937C67.9221 38.8061 67.9772 38.7208 68.0368 38.6355L68.2065 38.3773C68.2638 38.2874 68.3211 38.1975 68.3784 38.1075L68.3853 38.0937C68.4426 38.0061 68.4977 37.9162 68.5527 37.8286C68.5963 37.7548 68.6398 37.6856 68.6811 37.6142C68.7086 37.5658 68.7384 37.5173 68.7637 37.4689C68.7751 37.4528 68.7843 37.4366 68.7935 37.4205L68.9838 37.0862C69.0595 36.9571 69.1306 36.8234 69.2039 36.692C69.2314 36.6366 69.2613 36.5836 69.2911 36.5283C69.3025 36.5098 69.3117 36.4914 69.3209 36.4729C69.3553 36.4084 69.3897 36.3438 69.4195 36.277C69.4493 36.2101 69.4883 36.1479 69.5204 36.081C69.5525 36.0142 69.5869 35.9519 69.6167 35.885C69.6419 35.8343 69.6648 35.7859 69.6901 35.7352C69.6901 35.7306 69.6946 35.7283 69.6969 35.7237C69.7084 35.6983 69.7199 35.6752 69.729 35.6522C69.7313 35.6499 69.7336 35.6453 69.7359 35.6407C69.7611 35.5899 69.7841 35.5392 69.8093 35.4885C69.8414 35.4216 69.8712 35.3548 69.901 35.2879C69.9216 35.2418 69.9446 35.1957 69.9652 35.1473C69.995 35.0804 70.0271 35.0159 70.0546 34.9467C70.0868 34.8775 70.1166 34.8107 70.1441 34.7392C70.1532 34.7231 70.1601 34.7046 70.167 34.6862C70.1831 34.6539 70.1945 34.6216 70.2083 34.5894C70.245 34.5064 70.2817 34.4188 70.3138 34.3335C70.355 34.2366 70.394 34.1398 70.4284 34.0453C70.4651 33.9553 70.4995 33.8654 70.5316 33.7755L70.5454 33.7432C71.0728 32.3461 71.4717 30.9052 71.74 29.4343C71.8914 28.5928 71.9991 27.7466 72.0633 26.8959C72.0656 26.8475 72.0702 26.8037 72.0725 26.7576C72.1138 26.1812 72.1321 25.6048 72.1321 25.0238C72.1321 24.7656 72.1275 24.512 72.1207 24.2561C71.9624 18.9258 70.073 13.7938 66.7366 9.64387C66.6633 9.55395 66.5922 9.46173 66.5165 9.37182C66.4408 9.28191 66.3652 9.19199 66.2895 9.10208C57.5439 -1.20119 42.1485 -2.4208 31.9055 6.37467C30.0436 7.97469 28.4293 9.84675 27.1223 11.9286C27.0122 12.1061 26.8998 12.286 26.7944 12.4658C26.6889 12.6456 26.5811 12.8301 26.4779 13.0145C24.428 16.6802 23.3525 20.814 23.3594 25.0192H23.3617Z" fill="#F1F5F9"/>
<path d="M38.1504 11.5667C38.1321 11.5644 38.1137 11.5621 38.0977 11.5575C38.1733 11.5114 38.2421 11.4584 38.3086 11.3984L38.1504 11.5667Z" fill="white"/>
<path d="M46.4655 31.5859H52.1522L51.9092 38.9912L45.4727 38.484L46.4655 31.5859Z" fill="#9E616A"/>
<path d="M36.3311 46.481C36.5535 46.6032 36.7782 46.7231 37.0007 46.8337C37.0809 46.8729 37.1635 46.9121 37.2437 46.9536C37.3102 46.9859 37.3767 47.0182 37.4455 47.0505C37.4661 47.062 37.4845 47.0689 37.5028 47.0781C37.5602 47.1035 37.6129 47.1312 37.6702 47.1565C37.7321 47.1842 37.794 47.2142 37.8537 47.2441C37.9225 47.2764 37.9912 47.3064 38.06 47.3363C38.3169 47.4539 38.5783 47.5669 38.8397 47.6729C39.7729 48.0603 40.7268 48.3969 41.6991 48.6781C41.7426 48.692 41.7885 48.7035 41.8367 48.7173C42.2517 48.8349 42.669 48.9433 43.0909 49.0401C43.827 49.213 44.5677 49.3537 45.3175 49.4643H45.3221L45.5903 49.5035C45.5903 49.5035 45.6064 49.5058 45.6156 49.5058C45.6156 49.5058 45.6163 49.5058 45.6179 49.5058L45.9137 49.545C45.9137 49.545 45.9274 49.5473 45.9343 49.5473C46.026 49.5611 46.1223 49.5704 46.2163 49.5819L46.519 49.6142L46.7506 49.6372C46.7506 49.6372 46.7644 49.6395 46.7713 49.6395C46.84 49.6441 46.9111 49.6534 46.9799 49.658H46.9914L47.1725 49.6741C47.8925 49.7318 48.6149 49.7571 49.3463 49.7571C50.1374 49.7571 50.9262 49.7248 51.7013 49.658H51.7081L52.2057 49.6119C52.2493 49.6073 52.2906 49.605 52.3341 49.598C52.341 49.598 52.3525 49.5957 52.3594 49.5957C52.3731 49.5934 52.3846 49.5934 52.4006 49.5911C52.4075 49.5911 52.4144 49.5911 52.4213 49.5888C52.4786 49.5842 52.5359 49.575 52.5933 49.5704L52.7859 49.5473C52.8501 49.5404 52.9143 49.5289 52.9785 49.522C52.9945 49.5196 53.006 49.5197 53.0221 49.5173C53.0679 49.5127 53.1138 49.5035 53.1619 49.4966L53.2284 49.4897C53.2743 49.4828 53.3179 49.4758 53.366 49.4689H53.3683C54.7831 49.2614 56.1818 48.941 57.5462 48.5121C57.6196 48.4891 57.6907 48.4683 57.764 48.443C57.0968 45.2568 54.9963 42.5617 52.0796 41.1461C52.435 40.8026 52.6804 40.3576 52.7836 39.8734C52.9189 39.2417 52.7996 38.5801 52.4534 38.036C52.1209 37.5149 51.5958 37.1507 50.9927 37.0192L47.1702 36.2077C45.8839 35.9587 44.6387 36.8002 44.3842 38.0936C44.3452 38.285 44.3269 38.4809 44.3315 38.6746C40.6489 41.1622 38.0004 43.7444 36.3242 46.4833L36.3311 46.481Z" fill="#93C5FD"/>
<path d="M48.1616 35.7948C52.6712 35.7948 56.327 32.1191 56.327 27.5849C56.327 23.0507 52.6712 19.375 48.1616 19.375C43.6519 19.375 39.9961 23.0507 39.9961 27.5849C39.9961 32.1191 43.6519 35.7948 48.1616 35.7948Z" fill="#9E616A"/>
<path d="M47.0046 35.3582C44.9592 35.9138 42.7075 35.1761 41.1115 33.7743C39.5156 32.3726 38.5181 30.3898 37.9426 28.3426C37.5206 26.8417 37.3211 25.1771 37.9861 23.7662C38.6511 22.3552 40.4397 21.4076 41.8201 22.1177C40.9694 21.1194 41.3936 19.471 42.3887 18.618C43.3839 17.7649 44.7483 17.5206 46.0484 17.3868C47.9356 17.1932 49.8847 17.1701 51.6801 17.7857C53.4755 18.4013 55.1082 19.7431 55.67 21.5667C56.8509 22.12 58.2519 21.8019 59.082 20.7921C59.2952 21.9494 58.7105 23.1091 57.6534 23.6186L60.4051 22.7218C60.8774 23.7293 60.0496 24.9742 58.988 25.297C57.9263 25.6198 56.7844 25.267 55.7777 24.8013C54.7711 24.3356 53.7966 23.7454 52.7051 23.5656C51.6136 23.3857 50.3295 23.7362 49.8227 24.7275C49.559 25.2463 49.5453 25.8549 49.3894 26.4175C49.2334 26.98 48.8459 27.5633 48.2681 27.6094C47.9035 27.6394 47.5458 27.4434 47.1812 27.4826C46.7249 27.5725 46.3649 27.9276 46.264 28.3841C46.1722 28.8336 46.1722 29.2947 46.2617 29.7443L46.961 35.1161L47.0046 35.3582Z" fill="#3F3D54"/>
<path d="M1.80596 55.6323C2.45488 55.5217 3.11986 55.713 3.61286 56.1511L3.62662 56.1626L3.63809 56.1511C4.10816 55.7361 4.73186 55.5447 5.35098 55.6254L5.44041 55.6392C6.62361 55.8444 7.41471 56.9741 7.21063 58.1615C7.13954 58.5811 6.94693 58.9707 6.65801 59.2819L6.5938 59.3488L6.57546 59.3649L3.87656 62.0508C3.74815 62.1799 3.54407 62.1915 3.4019 62.0808L3.36751 62.0508L0.657149 59.3488C-0.202737 58.5073 -0.221081 57.1263 0.615875 56.2617C0.936899 55.9297 1.35423 55.7084 1.80825 55.6323H1.80596Z" fill="#93C5FD"/>
<path d="M124.88 32.3315C124.304 32.3315 123.83 31.8796 123.795 31.3032V31.2387L123.793 27.7943L127.214 30.0883L127.255 30.1113C127.356 30.162 127.473 30.162 127.574 30.1113L127.615 30.0883L131.037 27.7943V31.2387C131.037 31.8174 130.587 32.2946 130.014 32.3292L129.95 32.3338H124.88V32.3315ZM123.953 27.0265C124.137 26.7245 124.456 26.5332 124.806 26.5101H124.88L129.95 26.5078C130.328 26.5078 130.677 26.7038 130.876 27.0289L127.416 29.3482L123.956 27.0289L123.953 27.0265Z" fill="#93C5FD"/>
<path d="M38.0227 70.25C38.8229 70.25 39.4719 70.9025 39.4719 71.7071V74.6212C39.4719 75.4258 38.8229 76.0783 38.0227 76.0783H36.3121L34.5877 77.1181C34.4157 77.2218 34.1933 77.1665 34.0901 76.9936C34.0626 76.9498 34.0465 76.8991 34.0397 76.8483V76.8068V76.0783H33.6774C32.9046 76.0783 32.2695 75.4696 32.2305 74.695V74.6212V71.7071C32.2305 70.9025 32.8794 70.25 33.6797 70.25H38.025H38.0227ZM36.5735 73.5284H34.3997C34.2002 73.5284 34.0374 73.6921 34.0374 73.8927C34.0374 74.0933 34.2002 74.257 34.3997 74.257H36.5735C36.773 74.257 36.9358 74.0933 36.9358 73.8927C36.9358 73.6921 36.773 73.5284 36.5735 73.5284ZM37.2981 72.0713H34.3997C34.2002 72.0713 34.0374 72.235 34.0374 72.4356C34.0374 72.6362 34.2002 72.7999 34.3997 72.7999H37.2981C37.4976 72.7999 37.6604 72.6362 37.6604 72.4356C37.6604 72.235 37.4976 72.0713 37.2981 72.0713Z" fill="#93C5FD"/>
<path d="M34.3905 58.8748C35.5835 58.8748 36.5505 57.9025 36.5505 56.703C36.5505 55.5036 35.5835 54.5312 34.3905 54.5312C33.1975 54.5312 32.2305 55.5036 32.2305 56.703C32.2305 57.9025 33.1975 58.8748 34.3905 58.8748Z" fill="#E2E8F0"/>
</g>
<defs>
<clipPath id="clip0_25780_152270">
<rect width="182" height="118" fill="white" transform="translate(0 0.5)"/>
</clipPath>
</defs>
</svg>
