<svg width="199" height="140" viewBox="0 0 199 121" fill="none" xmlns="http://www.w3.org/2000/svg">
<path d="M14 116.4C10.8 109.6 3.33333 116.233 0 120.4L40.5 120.899C41.3 109.299 33.8333 113.733 30 117.4C32.4 105 26 105.902 22.5 108.9L14 116.4Z" fill="white"/>
<path d="M179.209 64.7626C176.921 59.8703 171.583 64.6427 169.199 67.6405L198.157 68C198.729 59.6542 193.39 62.8444 190.649 65.4828C192.365 56.5614 187.789 57.2103 185.287 59.3673L179.209 64.7626Z" fill="white"/>
<path d="M46.0455 103.439C43.5208 98.0573 37.6299 103.307 35 106.605L66.9531 107C67.5842 97.8196 61.6933 101.329 58.6689 104.231C60.5625 94.4175 55.5131 95.1313 52.7517 97.5041L46.0455 103.439Z" fill="white"/>
<path d="M37 9.39953C33.8 2.59953 26.3333 9.23286 23 13.3995L63.5 13.8992C64.3 2.2992 56.8333 6.73338 53 10.4005C55.4 -1.99953 49 -1.09766 45.5 1.90047L37 9.39953Z" fill="white"/>
<path d="M159.046 106.439C156.521 101.057 150.63 106.307 148 109.605L179.953 110C180.584 100.82 174.693 104.329 171.669 107.231C173.562 97.4175 168.513 98.1313 165.752 100.504L159.046 106.439Z" fill="white"/>
<path d="M155 19.3995C151.8 12.5995 144.333 19.2329 141 23.3995L181.5 23.8992C182.3 12.2992 174.833 16.7334 171 20.4005C173.4 8.00047 167 8.90234 163.5 11.9005L155 19.3995Z" fill="white"/>
</svg>
