<svg width="525" height="140" viewBox="0 0 525 140" fill="none" xmlns="http://www.w3.org/2000/svg">
<g clip-path="url(#clip0_2415_78638)">
<path d="M65.5118 134.791C61.8072 126.918 53.1632 134.598 49.3042 139.424L96.1907 140.001C97.1168 126.569 88.4728 131.703 84.0349 135.95C86.8134 121.591 79.4042 122.635 75.3522 126.106L65.5118 134.791Z" fill="white"/>
<path d="M256.773 74.995C254.123 69.3297 247.944 74.8561 245.184 78.3276L278.708 78.7438C279.37 69.0794 273.19 72.7737 270.017 75.8289C272.003 65.4981 266.706 66.2495 263.809 68.7472L256.773 74.995Z" fill="white"/>
<path d="M35.5884 74.995C32.9397 69.3297 26.7599 74.8561 24 78.3276L57.5244 78.7438C58.1866 69.0794 52.0057 72.7737 48.8324 75.8289C50.8191 65.4981 45.5214 66.2495 42.6249 68.7472L35.5884 74.995Z" fill="white"/>
<path d="M102.61 119.783C99.6866 113.55 92.8668 119.629 89.8223 123.448L126.814 123.906C127.545 113.275 120.725 117.338 117.223 120.699C119.416 109.335 113.57 110.162 110.373 112.91L102.61 119.783Z" fill="white"/>
<path d="M92.1383 10.8844C88.4337 3.01005 79.7896 10.6914 75.9307 15.5163L122.817 16.095C123.743 2.66226 115.099 7.79699 110.661 12.0434C113.44 -2.31562 106.031 -1.27127 101.979 2.20054L92.1383 10.8844Z" fill="white"/>
<path d="M233.43 123.257C230.507 117.024 223.687 123.104 220.642 126.923L257.634 127.38C258.365 116.75 251.544 120.814 248.044 124.174C250.234 112.81 244.39 113.636 241.193 116.384L233.43 123.257Z" fill="white"/>
<path d="M228.745 22.4644C225.04 14.5901 216.396 22.2715 212.538 27.0963L259.424 27.675C260.35 14.2424 251.705 19.3771 247.268 23.6235C250.046 9.26446 242.638 10.3088 238.586 13.7806L228.745 22.4644Z" fill="white"/>
<path d="M286.83 134.791C283.126 126.918 274.482 134.598 270.623 139.424L317.509 140.001C318.435 126.569 309.792 131.703 305.353 135.95C308.132 121.591 300.723 122.635 296.671 126.106L286.83 134.791Z" fill="white"/>
<path d="M478.091 74.995C475.442 69.3297 469.262 74.8561 466.502 78.3276L500.027 78.7438C500.689 69.0794 494.508 72.7737 491.335 75.8289C493.321 65.4981 488.024 66.2495 485.128 68.7472L478.091 74.995Z" fill="white"/>
<path d="M256.907 74.995C254.259 69.3297 248.078 74.8561 245.318 78.3276L278.843 78.7438C279.505 69.0794 273.324 72.7737 270.151 75.8289C272.138 65.4981 266.84 66.2495 263.944 68.7472L256.907 74.995Z" fill="white"/>
<path d="M323.931 119.783C321.008 113.55 314.188 119.629 311.144 123.448L348.135 123.906C348.866 113.275 342.046 117.338 338.545 120.699C340.736 109.335 334.891 110.162 331.694 112.91L323.931 119.783Z" fill="white"/>
<path d="M313.457 10.8844C309.753 3.01005 301.108 10.6914 297.249 15.5163L344.135 16.095C345.062 2.66226 336.418 7.79699 331.98 12.0434C334.759 -2.31562 327.349 -1.27127 323.297 2.20054L313.457 10.8844Z" fill="white"/>
<path d="M454.748 123.257C451.825 117.024 445.005 123.104 441.961 126.923L478.952 127.38C479.683 116.75 472.863 120.814 469.362 124.174C471.554 112.81 465.708 113.636 462.512 116.384L454.748 123.257Z" fill="white"/>
<path d="M450.064 22.4644C446.36 14.5901 437.715 22.2715 433.856 27.0963L480.742 27.675C481.668 14.2424 473.024 19.3771 468.587 23.6235C471.366 9.26446 463.956 10.3088 459.904 13.7806L450.064 22.4644Z" fill="white"/>
</g>
<defs>
<clipPath id="clip0_2415_78638">
<rect width="525" height="140" fill="white"/>
</clipPath>
</defs>
</svg>
