<svg width="50" height="50" viewBox="0 0 50 50" fill="none" xmlns="http://www.w3.org/2000/svg">
<mask id="mask0_26402_133275" style="mask-type:alpha" maskUnits="userSpaceOnUse" x="4" y="2" width="42" height="46">
<path d="M5.00831 24.2319H44.9907C45.3997 24.2319 45.7314 23.9002 45.7314 23.4912C45.7314 23.0821 45.3997 22.7504 44.9907 22.7504H43.9063V13.8913C43.9063 13.4822 43.5746 13.1505 43.1656 13.1505H38.1074V5.73197C38.1074 5.32289 37.7757 4.99123 37.3666 4.99123H29.6251C29.216 4.99123 28.8844 5.32289 28.8844 5.73197V9.04109L21.1511 6.55544V3.51808C21.1511 3.10901 20.8195 2.77734 20.4104 2.77734H6.83339C6.42432 2.77734 6.09265 3.10901 6.09265 3.51808V8.10933C6.09265 8.5184 6.42432 8.85007 6.83339 8.85007C7.24246 8.85007 7.57412 8.5184 7.57412 8.10933V4.25881H19.6697V22.7273H7.57412V10.9696C7.57412 10.5605 7.24246 10.2288 6.83339 10.2288C6.42432 10.2288 6.09265 10.5605 6.09265 10.9696V22.7504H5.00831C4.59924 22.7504 4.26758 23.0821 4.26758 23.4912C4.26758 23.9002 4.59924 24.2319 5.00831 24.2319ZM42.4248 14.632V22.7273H38.1074V14.632H42.4248ZM30.3658 6.4727H36.6259V22.7273H30.3658V6.4727ZM28.8844 10.5974V22.7273H21.1511V8.1115L28.8844 10.5974Z" fill="black"/>
<path d="M44.9907 25.7461H5.00831C4.59924 25.7461 4.26758 26.0778 4.26758 26.4868C4.26758 37.9183 13.568 47.2187 24.9995 47.2187C31.5254 47.2187 37.5395 44.2381 41.4996 39.041C41.7478 38.7158 41.6848 38.2511 41.3593 38.0029C41.0331 37.7541 40.569 37.8185 40.3213 38.1433C39.3427 39.4276 38.2256 40.5611 37.0038 41.5405C35.3836 39.6076 34.552 37.411 34.552 34.9977C34.552 31.0274 31.797 30.3106 29.5835 29.7344C27.5898 29.2154 26.3739 28.807 26.0589 27.2276H44.2362C44.1313 30.0614 43.422 32.7704 42.1239 35.2899C41.9366 35.6538 42.0798 36.1005 42.4433 36.2878C42.8082 36.4759 43.2542 36.3316 43.4412 35.9685C44.9393 33.0598 45.7314 29.7811 45.7314 26.4868C45.7314 26.0778 45.3997 25.7461 44.9907 25.7461ZM5.76315 27.2276H17.6634C18.5942 28.9218 18.8343 30.7004 18.3213 32.2684C17.8334 33.76 16.6818 34.9539 15.0788 35.6303C12.8567 36.5677 11.9672 38.3959 11.3471 40.0383C8.05322 36.7201 5.95281 32.2156 5.76315 27.2276ZM29.2102 31.1681C31.367 31.7295 33.0705 32.1729 33.0705 34.9977C33.0705 37.7007 34.0233 40.251 35.8116 42.4207C32.6686 44.5626 28.9362 45.7373 24.9995 45.7373C20.2432 45.7373 15.8873 43.9999 12.5245 41.131C13.1444 39.4124 13.7512 37.7984 15.6546 36.9953C17.659 36.1493 19.1062 34.6342 19.7293 32.7292C20.2983 30.9903 20.1426 29.0724 19.3172 27.2276H24.552C24.9538 30.0565 27.3012 30.6713 29.2102 31.1681Z" fill="black"/>
<path d="M9.10304 9.28616H10.5545C10.9636 9.28616 11.2952 8.95449 11.2952 8.54542C11.2952 8.13635 10.9636 7.80469 10.5545 7.80469H9.10304C8.69397 7.80469 8.3623 8.13635 8.3623 8.54542C8.3623 8.95449 8.69397 9.28616 9.10304 9.28616Z" fill="black"/>
<path d="M12.897 9.28616H14.3484C14.7575 9.28616 15.0892 8.95449 15.0892 8.54542C15.0892 8.13635 14.7575 7.80469 14.3484 7.80469H12.897C12.4879 7.80469 12.1562 8.13635 12.1562 8.54542C12.1562 8.95449 12.4879 9.28616 12.897 9.28616Z" fill="black"/>
<path d="M16.69 9.28616H18.1414C18.5505 9.28616 18.8821 8.95449 18.8821 8.54542C18.8821 8.13635 18.5505 7.80469 18.1414 7.80469H16.69C16.2809 7.80469 15.9492 8.13635 15.9492 8.54542C15.9492 8.95449 16.2809 9.28616 16.69 9.28616Z" fill="black"/>
<path d="M32.771 11.0987H34.2225C34.6315 11.0987 34.9632 10.767 34.9632 10.3579C34.9632 9.94885 34.6315 9.61719 34.2225 9.61719H32.771C32.3619 9.61719 32.0303 9.94885 32.0303 10.3579C32.0303 10.767 32.3619 11.0987 32.771 11.0987Z" fill="black"/>
<path d="M32.771 15.3408H34.2225C34.6315 15.3408 34.9632 15.0092 34.9632 14.6001C34.9632 14.191 34.6315 13.8594 34.2225 13.8594H32.771C32.3619 13.8594 32.0303 14.191 32.0303 14.6001C32.0303 15.0092 32.3619 15.3408 32.771 15.3408Z" fill="black"/>
<path d="M32.771 19.583H34.2225C34.6315 19.583 34.9632 19.2514 34.9632 18.8423C34.9632 18.4332 34.6315 18.1016 34.2225 18.1016H32.771C32.3619 18.1016 32.0303 18.4332 32.0303 18.8423C32.0303 19.2514 32.3619 19.583 32.771 19.583Z" fill="black"/>
<path d="M9.10304 14.2354H10.5545C10.9636 14.2354 11.2952 13.9037 11.2952 13.4946C11.2952 13.0856 10.9636 12.7539 10.5545 12.7539H9.10304C8.69397 12.7539 8.3623 13.0856 8.3623 13.4946C8.3623 13.9037 8.69397 14.2354 9.10304 14.2354Z" fill="black"/>
<path d="M12.897 14.2354H14.3484C14.7575 14.2354 15.0892 13.9037 15.0892 13.4946C15.0892 13.0856 14.7575 12.7539 14.3484 12.7539H12.897C12.4879 12.7539 12.1562 13.0856 12.1562 13.4946C12.1562 13.9037 12.4879 14.2354 12.897 14.2354Z" fill="black"/>
<path d="M16.69 14.2354H18.1414C18.5505 14.2354 18.8821 13.9037 18.8821 13.4946C18.8821 13.0856 18.5505 12.7539 18.1414 12.7539H16.69C16.2809 12.7539 15.9492 13.0856 15.9492 13.4946C15.9492 13.9037 16.2809 14.2354 16.69 14.2354Z" fill="black"/>
<path d="M9.10304 19.1846H10.5545C10.9636 19.1846 11.2952 18.8529 11.2952 18.4439C11.2952 18.0348 10.9636 17.7031 10.5545 17.7031H9.10304C8.69397 17.7031 8.3623 18.0348 8.3623 18.4439C8.3623 18.8529 8.69397 19.1846 9.10304 19.1846Z" fill="black"/>
<path d="M12.897 19.1846H14.3484C14.7575 19.1846 15.0892 18.8529 15.0892 18.4439C15.0892 18.0348 14.7575 17.7031 14.3484 17.7031H12.897C12.4879 17.7031 12.1562 18.0348 12.1562 18.4439C12.1562 18.8529 12.4879 19.1846 12.897 19.1846Z" fill="black"/>
<path d="M16.69 19.1846H18.1414C18.5505 19.1846 18.8821 18.8529 18.8821 18.4439C18.8821 18.0348 18.5505 17.7031 18.1414 17.7031H16.69C16.2809 17.7031 15.9492 18.0348 15.9492 18.4439C15.9492 18.8529 16.2809 19.1846 16.69 19.1846Z" fill="black"/>
</mask>
<g mask="url(#mask0_26402_133275)">
<rect x="3.37891" y="2.77734" width="44.4412" height="44.4412" fill="#156FF7"/>
</g>
<path d="M45.8799 6.33203L42.9531 9.25879L40.0264 6.33203L42.9531 3.40527L45.8799 6.33203Z" stroke="#156FF7" stroke-width="0.888824"/>
<path d="M41.4355 10.7754L41.1758 11.0352L40.915 10.7754L41.1758 10.5146L41.4355 10.7754Z" stroke="#156FF7" stroke-width="0.888824"/>
</svg>
