<svg width="25" height="28" viewBox="0 0 25 28" fill="none" xmlns="http://www.w3.org/2000/svg">
<path d="M9.74163 15.6458L10.592 12.8761L8.35679 11.0782H11.1265L12.0011 8.35712L12.8757 11.0782H15.6454L13.3859 12.8761L14.2363 15.6458L12.0011 13.9208L9.74163 15.6458ZM6.1702 24.6837V17.1764C5.55471 16.4961 5.0769 15.7186 4.73677 14.844C4.39663 13.9694 4.22656 13.038 4.22656 12.05C4.22656 9.87964 4.97972 8.04128 6.48604 6.53496C7.99236 5.02865 9.83071 4.27549 12.0011 4.27549C14.1715 4.27549 16.0098 5.02865 17.5162 6.53496C19.0225 8.04128 19.7756 9.87964 19.7756 12.05C19.7756 13.038 19.6056 13.9694 19.2654 14.844C18.9253 15.7186 18.4475 16.4961 17.832 17.1764V24.6837L12.0011 22.74L6.1702 24.6837ZM12.0011 17.8809C13.6208 17.8809 14.9975 17.314 16.1313 16.1803C17.2651 15.0465 17.832 13.6697 17.832 12.05C17.832 10.4303 17.2651 9.05359 16.1313 7.9198C14.9975 6.78602 13.6208 6.21912 12.0011 6.21912C10.3814 6.21912 9.00466 6.78602 7.87088 7.9198C6.73709 9.05359 6.1702 10.4303 6.1702 12.05C6.1702 13.6697 6.73709 15.0465 7.87088 16.1803C9.00466 17.314 10.3814 17.8809 12.0011 17.8809ZM8.11383 21.7925L12.0011 20.7964L15.8884 21.7925V18.7799C15.3215 19.1038 14.71 19.3589 14.0541 19.5452C13.3981 19.7314 12.7138 19.8246 12.0011 19.8246C11.2884 19.8246 10.6041 19.7314 9.94814 19.5452C9.29216 19.3589 8.68073 19.1038 8.11383 18.7799V21.7925Z" fill="#9CA3AF"/>
</svg>
