<svg width="170" height="114" viewBox="0 0 170 114" fill="none" xmlns="http://www.w3.org/2000/svg">
<g clip-path="url(#clip0_11379_2281)">
<path d="M136.335 41.477C133.807 28.5678 99.6458 8.43845 68.2613 25.1733C53.6648 32.957 56.9104 40.083 47.4548 52.3703C41.8188 59.6936 32.6986 66.256 32.0288 75.315C31.4488 83.1347 34.985 90.6625 40.574 94.8653C53.1438 104.317 74.5681 108.086 89.0119 85.9723C103.456 63.8582 142.85 74.7716 136.335 41.477Z" fill="#F2F5FF"/>
<path d="M133.545 93.86C132.502 93.86 131.656 93.0519 131.656 92.055C131.656 91.0581 132.502 90.25 133.545 90.25C134.588 90.25 135.434 91.0581 135.434 92.055C135.434 93.0519 134.588 93.86 133.545 93.86Z" fill="#94ABFF"/>
<path d="M133.074 45.3741C132.383 45.3741 131.823 44.9231 131.823 44.3668C131.823 43.8104 132.383 43.3594 133.074 43.3594C133.766 43.3594 134.326 43.8104 134.326 44.3668C134.326 44.9231 133.766 45.3741 133.074 45.3741Z" fill="#94ABFF"/>
<path fill-rule="evenodd" clip-rule="evenodd" d="M118.925 39.3915V29.6724C118.925 24.3045 114.6 19.9531 109.263 19.9531H60.9515C55.6152 19.9531 51.2891 24.3045 51.2891 29.6724V53.9702" fill="white"/>
<path d="M118.925 39.3915V29.6724C118.925 24.3045 114.599 19.9531 109.263 19.9531H60.9513C55.615 19.9531 51.2891 24.3045 51.2891 29.6724V53.9702" stroke="#94ABFF" stroke-width="0.780111"/>
<path fill-rule="evenodd" clip-rule="evenodd" d="M51.2894 41.0865H82.5227C83.3179 41.0866 84.1008 40.8893 84.802 40.512C85.5032 40.1348 86.1009 39.5893 86.5423 38.9239L93.3204 28.6752C93.7625 28.0068 94.3623 27.4591 95.0663 27.0809C95.7702 26.7027 96.5564 26.5058 97.3545 26.5078H118.926C124.262 26.5078 128.588 30.8592 128.588 36.2269V84.8226C128.588 90.1905 124.262 94.5419 118.926 94.5419H51.2894C45.9531 94.5419 41.627 90.1905 41.627 84.8226V50.8056C41.627 45.4379 45.9531 41.0865 51.2894 41.0865Z" fill="white" stroke="#94ABFF" stroke-width="0.780111"/>
<path d="M35.67 84.9277H35.7027C35.8967 87.6915 37.9399 87.734 37.9399 87.734C37.9399 87.734 35.6868 87.7783 35.6868 90.9716C35.6868 87.7783 33.4336 87.734 33.4336 87.734C33.4336 87.734 35.476 87.6915 35.67 84.9277ZM143.652 55.1562H143.686C143.888 58.0746 146.011 58.1195 146.011 58.1195C146.011 58.1195 143.67 58.1662 143.67 61.5383C143.67 58.1662 141.328 58.1195 141.328 58.1195C141.328 58.1195 143.451 58.0746 143.652 55.1562Z" fill="#94ABFF"/>
<path fill-rule="evenodd" clip-rule="evenodd" d="M60.0705 84.7393V85.4932H60.8193C60.9701 85.4939 61.1146 85.5545 61.2212 85.6618C61.3278 85.7692 61.388 85.9145 61.3886 86.0662C61.388 86.218 61.3278 86.3633 61.2212 86.4707C61.1146 86.578 60.9701 86.6386 60.8193 86.6393H60.0705V87.3932C60.0699 87.5449 60.0098 87.6903 59.9031 87.7976C59.7965 87.9049 59.652 87.9655 59.5012 87.9662C59.3504 87.9655 59.2059 87.9049 59.0993 87.7976C58.9927 87.6902 58.9325 87.5449 58.9319 87.3932V86.6425H58.1801C58.0293 86.6418 57.8848 86.5811 57.7782 86.4738C57.6716 86.3664 57.6114 86.221 57.6108 86.0693C57.6115 85.9176 57.6716 85.7723 57.7782 85.6649C57.8849 85.5576 58.0293 85.497 58.1801 85.4962H58.9289V84.7393C58.9296 84.5871 58.9902 84.4414 59.0975 84.334C59.2047 84.2266 59.3499 84.1663 59.5012 84.1662C59.652 84.1669 59.7965 84.2276 59.9031 84.3349C60.0098 84.4422 60.0699 84.5876 60.0705 84.7393ZM53.8107 79.4586V80.5139H54.8965C55.3496 80.5139 55.7219 80.8758 55.7219 81.3162C55.7219 81.7567 55.3496 82.1186 54.8965 82.1186H53.8107V83.1739C53.8107 83.6143 53.4384 83.9762 52.9853 83.9762C52.5322 83.9762 52.1599 83.6143 52.1599 83.1739V82.123H51.0696C50.6164 82.123 50.2441 81.761 50.2441 81.3206C50.2441 80.8802 50.6164 80.5182 51.0696 80.5182H52.1553V79.4586C52.1553 79.0182 52.5276 78.6562 52.9853 78.6562C53.4384 78.6562 53.8107 79.0182 53.8107 79.4586Z" fill="#94ABFF"/>
<path fill-rule="evenodd" clip-rule="evenodd" d="M91.3655 81.8863H79.2013C74.1627 81.8863 70.0781 77.7776 70.0781 72.7095V60.4737C70.0781 55.4054 74.1627 51.2969 79.2013 51.2969H91.3655C96.4039 51.2969 100.489 55.4054 100.489 60.4737V72.7095C100.489 77.7776 96.4039 81.8863 91.3655 81.8863Z" fill="#4A72FF" stroke="#4A72FF" stroke-width="4.55959" stroke-linecap="round" stroke-linejoin="round"/>
<path fill-rule="evenodd" clip-rule="evenodd" d="M85.2835 72.2188C85.2473 72.2188 85.2114 72.226 85.178 72.24C85.1446 72.254 85.1143 72.2746 85.0889 72.3005C85.0634 72.3264 85.0433 72.3571 85.0297 72.3908C85.0162 72.4246 85.0094 72.4607 85.0098 72.4971C85.0097 72.5524 85.026 72.6063 85.0566 72.6522C85.0871 72.6981 85.1306 72.7339 85.1813 72.7549C85.2321 72.7759 85.288 72.7813 85.3418 72.7703C85.3956 72.7593 85.445 72.7324 85.4836 72.6932C85.5222 72.6539 85.5483 72.604 85.5587 72.5497C85.569 72.4955 85.5631 72.4394 85.5416 72.3885C85.5202 72.3377 85.4842 72.2944 85.4382 72.2641C85.3922 72.2339 85.3384 72.2181 85.2835 72.2188Z" fill="white"/>
<path d="M85.2835 72.2188C85.2473 72.2188 85.2114 72.226 85.178 72.24C85.1446 72.254 85.1143 72.2746 85.0889 72.3005C85.0634 72.3264 85.0433 72.3571 85.0297 72.3908C85.0162 72.4246 85.0094 72.4607 85.0098 72.4971C85.0097 72.5524 85.026 72.6063 85.0566 72.6522C85.0871 72.6981 85.1306 72.7339 85.1813 72.7549C85.2321 72.7759 85.288 72.7813 85.3418 72.7703C85.3956 72.7593 85.445 72.7324 85.4836 72.6932C85.5222 72.6539 85.5483 72.604 85.5587 72.5497C85.569 72.4955 85.5631 72.4394 85.5416 72.3885C85.5202 72.3377 85.4842 72.2944 85.4382 72.2641C85.3922 72.2339 85.3384 72.2181 85.2835 72.2188" stroke="white" stroke-width="4.55959" stroke-linecap="round" stroke-linejoin="round"/>
<path d="M85.2832 66.027V60.4141" stroke="white" stroke-width="4.55959" stroke-linecap="round" stroke-linejoin="round"/>
<path d="M107.573 41.0422C106.582 41.0422 105.778 40.1915 105.778 39.1422C105.778 38.0928 106.582 37.2422 107.573 37.2422C108.564 37.2422 109.367 38.0928 109.367 39.1422C109.367 40.1915 108.564 41.0422 107.573 41.0422Z" fill="#94ABFF"/>
<path d="M48.2012 30.2547C48.3761 30.9111 47.9888 31.5858 47.3362 31.7617C46.6837 31.9376 46.0129 31.548 45.8381 30.8916C45.6632 30.2352 46.0505 29.5605 46.703 29.3847C47.3556 29.2088 48.0264 29.5983 48.2012 30.2547Z" fill="#94ABFF"/>
<path d="M122.331 22.6613C121.847 22.6613 121.455 22.2666 121.455 21.7798C121.455 21.2931 121.847 20.8984 122.331 20.8984C122.815 20.8984 123.207 21.2931 123.207 21.7798C123.207 22.2666 122.815 22.6613 122.331 22.6613Z" fill="#94ABFF"/>
</g>
<defs>
<clipPath id="clip0_11379_2281">
<rect width="170" height="114" fill="white"/>
</clipPath>
</defs>
</svg>
