<svg width="200" height="178" viewBox="0 0 200 178" fill="none" xmlns="http://www.w3.org/2000/svg">
<g clip-path="url(#clip0_80_213)">
<path d="M110.737 38.4916H63.7348C61.5047 38.4943 59.6974 40.311 59.6947 42.5527V147.56L59.1561 147.726L47.6257 151.275C46.4891 151.624 45.2851 150.98 44.935 149.837L10.6374 37.2218C10.29 36.0792 10.931 34.8663 12.0676 34.5171L29.8359 29.0481L81.3469 13.1988L99.1151 7.72974C100.252 7.37778 101.456 8.01944 101.806 9.16197L110.573 37.9501L110.737 38.4916Z" fill="#F2F2F2"/>
<path d="M120.993 37.95L110.427 3.25704C109.689 0.825767 107.13 -0.541485 104.711 0.203058C104.711 0.203058 104.711 0.203058 104.709 0.203058L79.7276 7.88945L28.222 23.7415L3.24085 31.4306C0.824883 32.1751 -0.535276 34.7472 0.202711 37.1784L36.3156 155.745C36.9055 157.678 38.6831 158.999 40.6951 159.002C41.1475 159.002 41.6 158.934 42.0337 158.799L59.1582 153.53L59.6969 153.362V152.797L59.1582 152.962L41.8748 158.282C39.7416 158.934 37.4845 157.729 36.8301 155.588L0.719841 37.0187C0.0653488 34.8771 1.26121 32.6083 3.39168 31.9504C3.39437 31.9504 3.39707 31.9504 3.39976 31.9477L28.3809 24.2586L79.8892 8.40928L104.87 0.720177C105.255 0.60105 105.657 0.541487 106.058 0.541487C107.83 0.544194 109.395 1.7111 109.915 3.41407L120.433 37.95L120.6 38.4915H121.16L120.996 37.95H120.993Z" fill="#C4C7CA"/>
<path d="M33.0438 34.6064C31.9772 34.6064 31.0372 33.9079 30.7248 32.8818L27.2557 21.4916C26.8625 20.2056 27.5843 18.8438 28.8637 18.4485L76.2511 3.86356C77.5305 3.47099 78.8852 4.19387 79.2785 5.4799L82.7475 16.8701C83.1381 18.1561 82.4189 19.5179 81.1396 19.9132L33.7522 34.4981C33.5232 34.5685 33.2835 34.6037 33.0438 34.6064Z" fill="#8BB1F9"/>
<path d="M51.2149 12.1699C54.1899 12.1699 56.6017 9.74558 56.6017 6.75504C56.6017 3.76449 54.1899 1.34018 51.2149 1.34018C48.2399 1.34018 45.8281 3.76449 45.8281 6.75504C45.8281 9.74558 48.2399 12.1699 51.2149 12.1699Z" fill="#8BB1F9"/>
<path d="M51.2145 10.1826C53.0977 10.1826 54.6243 8.64804 54.6243 6.75503C54.6243 4.86202 53.0977 3.32742 51.2145 3.32742C49.3313 3.32742 47.8047 4.86202 47.8047 6.75503C47.8047 8.64804 49.3313 10.1826 51.2145 10.1826Z" fill="white"/>
<path d="M162.314 157.618H71.2777C70.0145 157.618 68.991 156.587 68.9883 155.317V45.6662C68.9883 44.3964 70.0145 43.3676 71.2777 43.3649H162.314C163.577 43.3649 164.601 44.3964 164.603 45.6662V155.317C164.603 156.587 163.577 157.616 162.314 157.618Z" fill="#E6E6E6"/>
<path d="M120.431 37.9501H63.735C61.2086 37.9528 59.1589 40.0131 59.1562 42.5527V152.962L59.6949 152.797V42.5527C59.6976 40.311 61.5049 38.4943 63.735 38.4916H120.598L120.431 37.9501ZM169.854 37.9501H63.735C61.2086 37.9528 59.1589 40.0131 59.1562 42.5527V166.553C59.1589 169.093 61.2086 171.153 63.735 171.156H169.854C172.381 171.153 174.43 169.093 174.433 166.553V42.5527C174.43 40.0131 172.381 37.9528 169.854 37.9501ZM173.894 166.553C173.892 168.795 172.084 170.611 169.854 170.614H63.735C61.5049 170.611 59.6976 168.795 59.6949 166.553V42.5527C59.6976 40.311 61.5049 38.4943 63.735 38.4916H169.854C172.084 38.4943 173.892 40.311 173.894 42.5527V166.553Z" fill="#C4C7CA"/>
<path d="M141.574 49.8627H92.0158C90.6772 49.8627 89.5945 48.7716 89.5918 47.426V35.5133C89.5918 34.1678 90.6772 33.0794 92.0158 33.0767H141.574C142.913 33.0767 143.995 34.1678 143.998 35.5133V47.426C143.998 48.7716 142.913 49.86 141.574 49.8627Z" fill="#8BB1F9"/>
<path d="M116.793 33.8889C119.768 33.8889 122.18 31.4646 122.18 28.4741C122.18 25.4835 119.768 23.0592 116.793 23.0592C113.818 23.0592 111.406 25.4835 111.406 28.4741C111.406 31.4646 113.818 33.8889 116.793 33.8889Z" fill="#8BB1F9"/>
<path d="M116.794 31.7717C118.606 31.7717 120.075 30.2953 120.075 28.474C120.075 26.6528 118.606 25.1764 116.794 25.1764C114.982 25.1764 113.514 26.6528 113.514 28.474C113.514 30.2953 114.982 31.7717 116.794 31.7717Z" fill="white"/>
<path d="M123.846 141.688C139.358 141.688 151.933 129.048 151.933 113.455C151.933 97.8622 139.358 85.2218 123.846 85.2218C108.335 85.2218 95.7598 97.8622 95.7598 113.455C95.7598 129.048 108.335 141.688 123.846 141.688Z" fill="white"/>
<path d="M147.816 85.3816C132.467 72.3615 109.522 74.3163 96.5692 89.7459C83.6167 105.176 85.5613 128.24 100.911 141.26C115.269 153.438 136.491 152.621 149.877 139.37L194.484 177.207C195.899 178.409 198.013 178.23 199.206 176.809C200.402 175.387 200.224 173.262 198.81 172.063L198.805 172.057L154.197 134.221C164.935 118.726 162.169 97.5623 147.814 85.3843L147.816 85.3816ZM144.94 130.577C135.235 142.137 118.046 143.602 106.545 133.847C95.0447 124.092 93.5876 106.814 103.292 95.2529C112.996 83.6921 130.185 82.2274 141.686 91.9823C153.187 101.737 154.644 119.016 144.94 130.577Z" fill="#3F3D54"/>
<path opacity="0.3" d="M106.545 133.845C95.7067 124.65 93.6974 108.638 101.92 97.0262C101.4 97.5541 100.897 98.1064 100.409 98.6831C90.7051 110.244 92.1622 127.523 103.663 137.278C115.164 147.032 132.353 145.568 142.057 134.007C142.542 133.43 143 132.837 143.428 132.231C133.425 142.335 117.383 143.036 106.545 133.845Z" fill="black"/>
<path d="M120.618 119.92C120.618 118.567 120.914 117.31 121.504 116.154C122.097 114.998 122.819 113.999 123.672 113.157C124.526 112.315 125.38 111.506 126.234 110.729C127.088 109.954 127.812 109.109 128.402 108.202C128.995 107.295 129.288 106.345 129.288 105.354C129.288 103.968 128.811 102.901 127.858 102.159C126.905 101.415 125.622 101.044 124.015 101.044C122.407 101.044 121.138 101.439 120.023 102.233C118.905 103.026 118.1 104.149 117.607 105.601L112.727 102.826C113.645 100.481 115.134 98.6723 117.187 97.3998C119.239 96.13 121.566 95.4911 124.16 95.4911C127.085 95.4911 129.614 96.3331 131.75 98.0171C133.886 99.7011 134.952 102.03 134.952 105.002C134.952 106.388 134.656 107.685 134.066 108.893C133.476 110.098 132.752 111.132 131.898 111.99C131.044 112.848 130.188 113.682 129.334 114.492C128.48 115.301 127.756 116.168 127.166 117.094C126.576 118.02 126.28 118.959 126.28 119.918H120.613L120.618 119.92ZM126.088 130.325C125.364 131.05 124.494 131.416 123.476 131.416C122.458 131.416 121.585 131.053 120.863 130.325C120.141 129.599 119.778 128.722 119.778 127.699C119.778 126.675 120.131 125.801 120.836 125.072C121.542 124.347 122.42 123.981 123.473 123.981C124.526 123.981 125.361 124.344 126.086 125.072C126.808 125.798 127.168 126.675 127.168 127.699C127.168 128.722 126.808 129.599 126.086 130.325H126.088Z" fill="#8BB1F9"/>
</g>
<defs>
<clipPath id="clip0_80_213">
<rect width="200" height="178" fill="white"/>
</clipPath>
</defs>
</svg>
