<svg width="350" height="234" viewBox="0 0 350 234" fill="none" xmlns="http://www.w3.org/2000/svg">
<g clip-path="url(#clip0_11349_10919)">
<path d="M171.067 199.2C169.373 199.2 168 197.822 168 196.123C168 194.424 169.373 193.047 171.067 193.047C172.761 193.047 174.135 194.424 174.135 196.123C174.135 197.822 172.761 199.2 171.067 199.2Z" fill="#AEBFFF"/>
<path d="M90.7859 183.971C90.7859 186.711 88.5703 188.933 85.8373 188.933C83.1042 188.933 80.8887 186.711 80.8887 183.971C80.8887 181.23 83.1042 179.008 85.8373 179.008C88.5703 179.008 90.7859 181.23 90.7859 183.971Z" fill="#AEBFFF"/>
<path d="M197.815 174.076C195.953 174.076 194.443 172.562 194.443 170.694C194.443 168.827 195.953 167.312 197.815 167.312C199.678 167.312 201.188 168.827 201.188 170.694C201.188 172.562 199.678 174.076 197.815 174.076Z" fill="#AEBFFF"/>
<path d="M289.51 159.778C287.607 159.778 286.065 158.54 286.065 157.014C286.065 155.487 287.607 154.25 289.51 154.25C291.413 154.25 292.955 155.487 292.955 157.014C292.955 158.54 291.413 159.778 289.51 159.778Z" fill="#AEBFFF"/>
<path d="M256.481 152.875H256.571C257.105 160.459 262.729 160.576 262.729 160.576C262.729 160.576 256.527 160.697 256.527 169.459C256.527 160.697 250.326 160.576 250.326 160.576C250.326 160.576 255.948 160.459 256.481 152.875Z" fill="#AEBFFF"/>
<path d="M91.267 131.943C90.3524 133.58 88.3492 133.805 85.1397 133.494C82.7262 133.26 80.5251 133.078 78.1113 131.758C76.422 130.835 75.0846 129.587 74.1085 128.374C73.0507 127.059 71.5741 125.56 72.2978 124.07C73.2926 122.023 79.0442 120.299 84.6295 123.118C90.765 126.216 92.1619 130.343 91.267 131.943Z" fill="#E8EDFF"/>
<path d="M274.661 121.139C270.921 123.936 264.986 122.304 264.986 122.304C264.986 122.304 265.118 116.137 268.86 113.342C272.6 110.545 278.532 112.175 278.532 112.175C278.532 112.175 278.401 118.342 274.661 121.139Z" fill="#E8EDFF"/>
<path d="M74.6525 82.0448C75.1337 83.8459 74.0679 85.6972 72.2719 86.1798C70.476 86.6624 68.6299 85.5935 68.1487 83.7924C67.6675 81.9913 68.7333 80.14 70.5292 79.6574C72.3252 79.1748 74.1713 80.2437 74.6525 82.0448Z" fill="#AEBFFF"/>
<path d="M264.055 70.4522C262.552 70.4522 261.333 69.2299 261.333 67.7222C261.333 66.2145 262.552 64.9922 264.055 64.9922C265.559 64.9922 266.777 66.2145 266.777 67.7222C266.777 69.2299 265.559 70.4522 264.055 70.4522Z" fill="#AEBFFF"/>
<path d="M84.0466 67.9982C87.6014 72.1244 94.7651 71.7629 94.7651 71.7629C94.7651 71.7629 96.1608 64.7117 92.6021 60.5874C89.0473 56.4612 81.8871 56.8204 81.8871 56.8204C81.8871 56.8204 80.4917 63.872 84.0466 67.9982Z" fill="#E8EDFF"/>
<path d="M125.035 53.0536C122.561 53.0536 120.556 51.0426 120.556 48.5619C120.556 46.0813 122.561 44.0703 125.035 44.0703C127.508 44.0703 129.514 46.0813 129.514 48.5619C129.514 51.0426 127.508 53.0536 125.035 53.0536Z" fill="#AEBFFF"/>
<path d="M120.381 185.399H237.249C246.469 185.399 253.944 177.903 253.944 168.656V51.454C253.944 42.2071 246.469 34.7109 237.249 34.7109H153.772C144.551 34.7109 137.076 42.2071 137.076 51.454V168.656C137.076 177.903 129.601 185.399 120.381 185.399C111.16 185.399 103.686 177.903 103.686 168.656V76.5689C103.686 67.3216 111.16 59.8258 120.381 59.8258H137.076M166.294 68.1975H224.728M166.294 101.684H224.728M166.294 135.171H224.728" stroke="#AEBFFF" stroke-width="3" stroke-linecap="round" stroke-linejoin="round"/>
<path fill-rule="evenodd" clip-rule="evenodd" d="M210.389 164.079V147.867C210.389 145.187 211.09 142.554 212.422 140.231C213.754 137.908 215.67 135.976 217.979 134.627L233.255 125.711C235.589 124.35 238.24 123.633 240.939 123.633C243.639 123.633 246.29 124.35 248.623 125.711L263.899 134.627C266.209 135.975 268.126 137.907 269.459 140.23C270.792 142.553 271.493 145.187 271.493 147.867V164.079C271.493 166.759 270.792 169.391 269.46 171.715C268.128 174.038 266.212 175.97 263.903 177.319L248.627 186.235C246.293 187.596 243.642 188.313 240.943 188.313C238.243 188.313 235.592 187.596 233.259 186.235L217.982 177.319C215.672 175.971 213.755 174.039 212.423 171.715C211.09 169.392 210.389 166.759 210.389 164.079Z" fill="#4A72FF"/>
<path d="M240.94 155.968V140.648M240.937 167.884C240.826 167.884 240.715 167.905 240.612 167.948C240.51 167.991 240.416 168.054 240.338 168.133C240.259 168.212 240.197 168.306 240.155 168.409C240.113 168.513 240.091 168.623 240.092 168.735C240.092 168.904 240.142 169.068 240.235 169.208C240.329 169.349 240.461 169.458 240.617 169.522C240.772 169.586 240.943 169.603 241.108 169.57C241.273 169.537 241.424 169.455 241.542 169.336C241.661 169.216 241.742 169.064 241.774 168.899C241.806 168.733 241.789 168.562 241.724 168.407C241.659 168.251 241.55 168.118 241.41 168.025C241.269 167.932 241.105 167.883 240.937 167.884Z" stroke="#E8EDFF" stroke-width="5.09211" stroke-linecap="round" stroke-linejoin="round"/>
</g>
<defs>
<clipPath id="clip0_11349_10919">
<rect width="350" height="234" fill="white"/>
</clipPath>
</defs>
</svg>
