<svg width="23" height="23" viewBox="0 0 23 23" fill="none" xmlns="http://www.w3.org/2000/svg">
<path d="M12.5939 17.0696V18.5387C12.4672 21.6016 9.2721 23 6.30054 23C3.50922 23 0.467622 21.7488 0 19.0199H2.51836C2.94478 20.6325 4.80909 21.4733 6.591 21.4733C7.79301 21.4733 8.87658 21.0968 9.56668 20.4419C10.0127 20.0173 10.2867 19.4861 10.3732 18.8869L10.4072 18.3519V16.3071C11.2281 16.6147 12.0202 16.8988 12.5939 17.0696Z" fill="white"/>
<path d="M13.0974 16.0939C11.0085 15.5003 4.54834 12.7441 4.54834 12.7441L5.05819 11.8807L10.407 13.7981V4.64435C10.4266 2.8336 11.505 1.36066 13.3662 0.60956C14.3571 0.211366 15.5086 0 16.6952 0C19.5596 0 22.5126 1.23516 22.9998 3.97628H20.4877C20.0612 2.36369 18.1969 1.5239 16.413 1.5239C15.212 1.5239 14.1284 1.89945 13.4393 2.55524C12.9933 2.97986 12.7194 3.51015 12.6328 4.10933H12.605L12.5958 4.64435V14.5266L13.0067 14.6436C13.9543 14.9125 14.8535 15.0484 15.6806 15.0484C18.4998 15.0484 20.329 13.4877 20.7658 10.7437L22.9679 10.8918C22.2716 14.2869 19.5967 16.5109 16.1266 16.5119C15.1419 16.5119 14.0779 16.3722 13.0994 16.0948L13.0974 16.0939Z" fill="white"/>
</svg>
