<svg width="18" height="18" viewBox="0 0 18 18" fill="none" xmlns="http://www.w3.org/2000/svg">
<path d="M6.79296 15.0098L6.63525 15.6146L6.79296 15.0098ZM5.6597 13.636L5.06412 13.8255L5.6597 13.636ZM5.93514 14.3621L5.40064 14.686L5.93514 14.3621ZM12.2556 13.636L12.8512 13.8255L12.2556 13.636ZM11.9801 14.3621L12.5146 14.686L11.9801 14.3621ZM11.1223 15.0098L11.28 15.6146L11.1223 15.0098ZM12.078 12.8474L12.313 12.2683L12.078 12.8474ZM12.3502 13.2431L12.9746 13.2145L12.3502 13.2431ZM5.83734 12.8474L5.60226 12.2683L5.83734 12.8474ZM5.56509 13.2431L4.94074 13.2145L5.56509 13.2431ZM11.7143 15.1716C11.7793 14.8326 11.5571 14.5051 11.2181 14.4401C10.8791 14.3752 10.5516 14.5974 10.4866 14.9364L11.1005 15.054L11.7143 15.1716ZM11.0081 15.5361L10.3943 15.4185V15.4185L11.0081 15.5361ZM6.90712 15.5361L7.52096 15.4185V15.4185L6.90712 15.5361ZM7.42858 14.9364C7.36363 14.5974 7.03615 14.3752 6.69714 14.4401C6.35813 14.5051 6.13596 14.8326 6.20091 15.1716L6.81475 15.054L7.42858 14.9364ZM7.96717 17.2158L7.76378 17.8068L7.96717 17.2158ZM7.1718 16.5352L6.62261 16.8335H6.62261L7.1718 16.5352ZM10.7434 16.5352L11.2926 16.8335V16.8335L10.7434 16.5352ZM9.94805 17.2158L10.1514 17.8068H10.1514L9.94805 17.2158ZM6.22305 12.8171V13.4421H11.6922V12.8171V12.1921H6.22305V12.8171ZM10.3777 15.054V14.429H7.53755V15.054V15.679H10.3777V15.054ZM7.53755 15.054V14.429C7.11859 14.429 7.02368 14.4241 6.95068 14.405L6.79296 15.0098L6.63525 15.6146C6.90089 15.6839 7.1895 15.679 7.53755 15.679V15.054ZM5.6597 13.636L5.06412 13.8255C5.17528 14.1749 5.25919 14.4526 5.40064 14.686L5.93514 14.3621L6.46964 14.0381C6.42403 13.9629 6.38667 13.8595 6.25528 13.4465L5.6597 13.636ZM6.79296 15.0098L6.95068 14.405C6.75869 14.355 6.58424 14.2272 6.46964 14.0381L5.93514 14.3621L5.40064 14.686C5.67793 15.1435 6.11779 15.4797 6.63525 15.6146L6.79296 15.0098ZM12.2556 13.636L11.66 13.4465C11.5286 13.8595 11.4913 13.9629 11.4456 14.0381L11.9801 14.3621L12.5146 14.686C12.6561 14.4526 12.74 14.1749 12.8512 13.8255L12.2556 13.636ZM10.3777 15.054V15.679C10.7258 15.679 11.0144 15.6839 11.28 15.6146L11.1223 15.0098L10.9646 14.405C10.8916 14.4241 10.7967 14.429 10.3777 14.429V15.054ZM11.9801 14.3621L11.4456 14.0381C11.3311 14.2272 11.1566 14.355 10.9646 14.405L11.1223 15.0098L11.28 15.6146C11.7975 15.4797 12.2374 15.1435 12.5146 14.686L11.9801 14.3621ZM11.6922 12.8171V13.4421C11.7452 13.4421 11.7866 13.4421 11.8222 13.4426C11.8579 13.443 11.8809 13.4438 11.8965 13.4447C11.9325 13.447 11.8983 13.4489 11.8429 13.4265L12.078 12.8474L12.313 12.2683C12.1832 12.2156 12.0598 12.2024 11.9735 12.1971C11.8885 12.1919 11.7881 12.1921 11.6922 12.1921V12.8171ZM12.2556 13.636L12.8512 13.8255C12.8818 13.7293 12.9129 13.6322 12.9343 13.549C12.9559 13.4648 12.9807 13.3479 12.9746 13.2145L12.3502 13.2431L11.7259 13.2717C11.7236 13.2218 11.7338 13.1983 11.7236 13.238C11.7191 13.2557 11.7121 13.2802 11.701 13.3163C11.69 13.3524 11.6767 13.394 11.66 13.4465L12.2556 13.636ZM12.078 12.8474L11.8429 13.4265C11.7626 13.3939 11.7283 13.3259 11.7259 13.2717L12.3502 13.2431L12.9746 13.2145C12.9559 12.8069 12.7082 12.4287 12.313 12.2683L12.078 12.8474ZM6.22305 12.8171V12.1921C6.12723 12.1921 6.02674 12.1919 5.94178 12.1971C5.85545 12.2024 5.73209 12.2156 5.60226 12.2683L5.83734 12.8474L6.07241 13.4265C6.01703 13.4489 5.98278 13.447 6.01881 13.4447C6.03438 13.4438 6.05736 13.443 6.09307 13.4426C6.12871 13.4421 6.1701 13.4421 6.22305 13.4421V12.8171ZM5.6597 13.636L6.25528 13.4465C6.23857 13.394 6.22534 13.3524 6.21429 13.3163C6.20322 13.2802 6.19623 13.2557 6.1917 13.238C6.18149 13.1983 6.19172 13.2218 6.18944 13.2717L5.56509 13.2431L4.94074 13.2145C4.93464 13.3479 4.95936 13.4648 4.981 13.549C5.00237 13.6322 5.03351 13.7293 5.06412 13.8255L5.6597 13.636ZM5.83734 12.8474L5.60226 12.2683C5.20704 12.4287 4.95939 12.8069 4.94074 13.2145L5.56509 13.2431L6.18944 13.2717C6.18695 13.3259 6.15273 13.3939 6.07241 13.4265L5.83734 12.8474ZM11.1005 15.054L10.4866 14.9364L10.3943 15.4185L11.0081 15.5361L11.6219 15.6537L11.7143 15.1716L11.1005 15.054ZM6.90712 15.5361L7.52096 15.4185L7.42858 14.9364L6.81475 15.054L6.20091 15.1716L6.29329 15.6537L6.90712 15.5361ZM8.95761 17.2908V16.6658C8.39443 16.6658 8.26536 16.6575 8.17055 16.6249L7.96717 17.2158L7.76378 17.8068C8.10474 17.9242 8.49071 17.9158 8.95761 17.9158V17.2908ZM6.90712 15.5361L6.29329 15.6537C6.38576 16.1363 6.45163 16.5188 6.62261 16.8335L7.1718 16.5352L7.72099 16.2368C7.66564 16.1349 7.6305 15.9902 7.52096 15.4185L6.90712 15.5361ZM7.96717 17.2158L8.17055 16.6249C7.98612 16.5614 7.82373 16.426 7.72099 16.2368L7.1718 16.5352L6.62261 16.8335C6.86983 17.2886 7.27445 17.6384 7.76378 17.8068L7.96717 17.2158ZM11.0081 15.5361L10.3943 15.4185C10.2847 15.9902 10.2496 16.1349 10.1942 16.2368L10.7434 16.5352L11.2926 16.8335C11.4636 16.5188 11.5295 16.1363 11.6219 15.6537L11.0081 15.5361ZM8.95761 17.2908V17.9158C9.4245 17.9158 9.81047 17.9242 10.1514 17.8068L9.94805 17.2158L9.74466 16.6249C9.64986 16.6575 9.52078 16.6658 8.95761 16.6658V17.2908ZM10.7434 16.5352L10.1942 16.2368C10.0915 16.426 9.92909 16.5614 9.74466 16.6249L9.94805 17.2158L10.1514 17.8068C10.6408 17.6384 11.0454 17.2886 11.2926 16.8335L10.7434 16.5352Z" fill="#156FF7"/>
<path d="M4.0329 11.458C3.71756 10.7492 3.54175 9.9606 3.54175 9.12962C3.54175 6.04332 5.96687 3.54138 8.95841 3.54138C11.95 3.54138 14.3751 6.04332 14.3751 9.12962C14.3751 9.9606 14.1993 10.7492 13.8839 11.458" stroke="#156FF7" stroke-width="1.25" stroke-linecap="round"/>
<path d="M8.95834 0.625V1.45833" stroke="#156FF7" stroke-width="1.25" stroke-linecap="round" stroke-linejoin="round"/>
<path d="M17.2917 8.95813L16.4584 8.95813" stroke="#156FF7" stroke-width="1.25" stroke-linecap="round" stroke-linejoin="round"/>
<path d="M1.45834 8.95813L0.62501 8.95813" stroke="#156FF7" stroke-width="1.25" stroke-linecap="round" stroke-linejoin="round"/>
<path d="M14.8503 3.06555L14.2611 3.65481" stroke="#156FF7" stroke-width="1.25" stroke-linecap="round" stroke-linejoin="round"/>
<path d="M3.65561 3.65503L3.06635 3.06577" stroke="#156FF7" stroke-width="1.25" stroke-linecap="round" stroke-linejoin="round"/>
</svg>
