<svg width="16" height="16" viewBox="0 0 16 16" fill="none" xmlns="http://www.w3.org/2000/svg">
<g clip-path="url(#clip0_43_229)">
<path d="M7.99992 11.3333C8.18881 11.3333 8.34725 11.2693 8.47525 11.1413C8.60325 11.0133 8.66703 10.8551 8.66659 10.6667V7.98334C8.66659 7.79446 8.60259 7.6389 8.47459 7.51668C8.34659 7.39445 8.18836 7.33334 7.99992 7.33334C7.81103 7.33334 7.65259 7.39734 7.52459 7.52534C7.39659 7.65334 7.33281 7.81157 7.33325 8.00001V10.6833C7.33325 10.8722 7.39725 11.0278 7.52525 11.15C7.65325 11.2722 7.81147 11.3333 7.99992 11.3333ZM7.99992 6.00001C8.18881 6.00001 8.34725 5.93601 8.47525 5.80801C8.60325 5.68001 8.66703 5.52179 8.66659 5.33334C8.66659 5.14445 8.60259 4.98601 8.47459 4.85801C8.34659 4.73001 8.18836 4.66623 7.99992 4.66668C7.81103 4.66668 7.65259 4.73068 7.52459 4.85868C7.39659 4.98668 7.33281 5.1449 7.33325 5.33334C7.33325 5.52223 7.39725 5.68068 7.52525 5.80868C7.65325 5.93668 7.81147 6.00045 7.99992 6.00001ZM7.99992 14.6667C7.0777 14.6667 6.21103 14.4916 5.39992 14.1413C4.58881 13.7911 3.88325 13.3162 3.28325 12.7167C2.68325 12.1167 2.20836 11.4111 1.85859 10.6C1.50881 9.7889 1.3337 8.92223 1.33325 8.00001C1.33325 7.07779 1.50836 6.21112 1.85859 5.40001C2.20881 4.5889 2.6837 3.88334 3.28325 3.28334C3.88325 2.68334 4.58881 2.20845 5.39992 1.85868C6.21103 1.5089 7.0777 1.33379 7.99992 1.33334C8.92214 1.33334 9.78881 1.50845 10.5999 1.85868C11.411 2.2089 12.1166 2.68379 12.7166 3.28334C13.3166 3.88334 13.7917 4.5889 14.1419 5.40001C14.4921 6.21112 14.667 7.07779 14.6666 8.00001C14.6666 8.92223 14.4915 9.7889 14.1413 10.6C13.791 11.4111 13.3161 12.1167 12.7166 12.7167C12.1166 13.3167 11.411 13.7918 10.5999 14.142C9.78881 14.4922 8.92214 14.6671 7.99992 14.6667Z" fill="#64748B"/>
</g>
<defs>
<clipPath id="clip0_43_229">
<rect width="16" height="16" fill="white"/>
</clipPath>
</defs>
</svg>
