<svg width="1400" height="90" viewBox="0 0 1400 90" fill="none" xmlns="http://www.w3.org/2000/svg">
<g clip-path="url(#clip0_2120_235)">
<rect width="1400" height="90" fill="#EEF8FF"/>
<g opacity="0.35" clip-path="url(#clip1_2120_235)">
<g style="mix-blend-mode:overlay">
<path d="M1399.41 -2.27344H1391.3V5.81839H1399.41V-2.27344Z" fill="#3DFEB1"/>
<path d="M1374.1 -2.27246H1365.99V5.81937H1374.1V-2.27246Z" fill="white"/>
<path d="M1348.79 -2.27246H1340.68V5.81937H1348.79V-2.27246Z" fill="white"/>
<path d="M1336.13 -2.27344H1328.03V5.81839H1336.13V-2.27344Z" fill="#3F84EB"/>
<path d="M1323.47 -2.27344H1315.37V5.81839H1323.47V-2.27344Z" fill="white"/>
<path d="M1298.17 -2.27344H1290.06V5.81839H1298.17V-2.27344Z" fill="#3DFEB1"/>
<path d="M1251.48 6.43174V-2.87988H1260.81V6.43174H1251.48ZM1252.7 -1.66009V5.21193H1259.59V-1.66009H1252.7Z" fill="white"/>
<path d="M1234.88 -2.27344H1226.78V5.81839H1234.88V-2.27344Z" fill="white"/>
<path d="M1222.23 -2.27344H1214.12V5.81839H1222.23V-2.27344Z" fill="white"/>
<path d="M1200.86 6.43077V-2.88086H1210.18V6.43077H1200.86ZM1202.08 -1.66107V5.21096H1208.96V-1.66107H1202.08Z" fill="white"/>
<path d="M1188.2 6.43077V-2.88086H1197.53V6.43077H1188.2ZM1189.42 -1.66107V5.21096H1196.31V-1.66107H1189.42Z" fill="white"/>
<path d="M1175.54 6.43077V-2.88086H1184.87V6.43077H1175.54ZM1176.76 -1.66107V5.21096H1183.65V-1.66107H1176.76Z" fill="white"/>
<path d="M1171.6 -2.27246H1163.5V5.81937H1171.6V-2.27246Z" fill="white"/>
<path d="M1158.95 -2.27246H1150.84V5.81937H1158.95V-2.27246Z" fill="white"/>
<path d="M1146.29 -2.27246H1138.18V5.81937H1146.29V-2.27246Z" fill="#3F84EB"/>
<path d="M1133.64 -2.27344H1125.53V5.81839H1133.64V-2.27344Z" fill="#3DFEB1"/>
<path d="M1108.33 -2.27344H1100.22V5.81839H1108.33V-2.27344Z" fill="white"/>
<path d="M1399.41 10.3613H1391.3V18.4531H1399.41V10.3613Z" fill="white"/>
<path d="M1386.76 10.3623H1378.65V18.4541H1386.76V10.3623Z" fill="white"/>
<path d="M1374.1 10.3623H1365.99V18.4541H1374.1V10.3623Z" fill="white"/>
<path d="M1352.72 19.0606V9.74902H1362.05V19.0606H1352.72ZM1353.95 10.9688V17.8408H1360.83V10.9688H1353.95Z" fill="#3DFEB1"/>
<path d="M1340.07 19.0606V9.74902H1349.4V19.0606H1340.07ZM1341.29 10.9688V17.8408H1348.18V10.9688H1341.29Z" fill="white"/>
<path d="M1327.41 19.0606V9.74902H1336.74V19.0606H1327.41ZM1328.64 10.9688V17.8408H1335.52V10.9688H1328.64Z" fill="white"/>
<path d="M1287.43 8.44434H1279.32V16.5362H1287.43V8.44434Z" fill="white"/>
<path d="M1260.19 10.3623H1252.09V18.4541H1260.19V10.3623Z" fill="#3DFEB1"/>
<path d="M1247.54 10.3613H1239.43V18.4531H1247.54V10.3613Z" fill="white"/>
<path d="M1234.88 10.3613H1226.78V18.4531H1234.88V10.3613Z" fill="white"/>
<path d="M1222.23 10.3613H1214.12V18.4531H1222.23V10.3613Z" fill="#3F84EB"/>
<path d="M1209.57 10.3613H1201.46V18.4531H1209.57V10.3613Z" fill="#999999"/>
<path d="M1196.92 10.3623H1188.81V18.4541H1196.92V10.3623Z" fill="white"/>
<path d="M1184.26 10.3623H1176.15V18.4541H1184.26V10.3623Z" fill="white"/>
<path d="M1158.95 10.3623H1150.84V18.4541H1158.95V10.3623Z" fill="white"/>
<path d="M1133.64 10.3613H1125.53V18.4531H1133.64V10.3613Z" fill="white"/>
<path d="M1386.76 22.9912H1378.65V31.083H1386.76V22.9912Z" fill="#3F84EB"/>
<path d="M1340.07 31.6954V22.3838H1349.4V31.6954H1340.07ZM1341.29 23.6036V30.4756H1348.18V23.6036H1341.29Z" fill="white"/>
<path d="M1327.41 31.6954V22.3838H1336.74V31.6954H1327.41ZM1328.64 23.6036V30.4756H1335.52V23.6036H1328.64Z" fill="#3F84EB"/>
<path d="M1323.47 22.9922H1315.37V31.084H1323.47V22.9922Z" fill="white"/>
<path d="M1285.51 22.9912H1277.4V31.083H1285.51V22.9912Z" fill="white"/>
<path d="M1260.19 22.9912H1252.09V31.083H1260.19V22.9912Z" fill="white"/>
<path d="M1234.88 22.9922H1226.78V31.084H1234.88V22.9922Z" fill="#3DFEB1"/>
<path d="M1222.23 22.9922H1214.12V31.084H1222.23V22.9922Z" fill="white"/>
<path d="M1209.57 22.9922H1201.46V31.084H1209.57V22.9922Z" fill="#3DFEB1"/>
<path d="M1196.92 22.9912H1188.81V31.083H1196.92V22.9912Z" fill="#999999"/>
<path d="M1186.18 21.0791H1178.08V29.1709H1186.18V21.0791Z" fill="white"/>
<path d="M1171.6 22.9912H1163.5V31.083H1171.6V22.9912Z" fill="#3DFEB1"/>
<path d="M1146.29 22.9912H1138.18V31.083H1146.29V22.9912Z" fill="white"/>
<path d="M1133.64 22.9922H1125.53V31.084H1133.64V22.9922Z" fill="#3DFEB1"/>
<path d="M1112.26 31.6964V22.3848H1121.59V31.6964H1112.26ZM1113.49 23.6046V30.4766H1120.37V23.6046H1113.49Z" fill="#ABABAB"/>
<path d="M1108.33 22.9922H1100.22V31.084H1108.33V22.9922Z" fill="#3F84EB"/>
<path d="M1399.41 35.626H1391.3V43.7178H1399.41V35.626Z" fill="white"/>
<path d="M1374.1 35.626H1365.99V43.7178H1374.1V35.626Z" fill="white"/>
<path d="M1361.44 35.626H1353.34V43.7178H1361.44V35.626Z" fill="#3DFEB1"/>
<path d="M1336.13 35.626H1328.03V43.7178H1336.13V35.626Z" fill="white"/>
<path d="M1323.47 35.626H1315.37V43.7178H1323.47V35.626Z" fill="white"/>
<path d="M1272.85 35.626H1264.75V43.7178H1272.85V35.626Z" fill="#3DFEB1"/>
<path d="M1262.11 33.709H1254.01V41.8008H1262.11V33.709Z" fill="white"/>
<path d="M1226.17 44.3302V35.0186H1235.5V44.3302H1226.17ZM1227.39 36.2383V43.1104H1234.27V36.2383H1227.39Z" fill="#3DFEB1"/>
<path d="M1188.2 44.3312V35.0195H1197.53V44.3312H1188.2ZM1189.42 36.2393V43.1113H1196.31V36.2393H1189.42Z" fill="white"/>
<path d="M1184.26 35.626H1176.15V43.7178H1184.26V35.626Z" fill="white"/>
<path d="M1171.6 35.626H1163.5V43.7178H1171.6V35.626Z" fill="#3F84EB"/>
<path d="M1158.95 35.626H1150.84V43.7178H1158.95V35.626Z" fill="white"/>
<path d="M1146.29 35.626H1138.18V43.7178H1146.29V35.626Z" fill="#3DFEB1"/>
<path d="M1112.26 44.3312V35.0195H1121.59V44.3312H1112.26ZM1113.49 36.2393V43.1113H1120.37V36.2393H1113.49Z" fill="white"/>
<path d="M1361.44 48.2607H1353.34V56.3526H1361.44V48.2607Z" fill="#3DFEB1"/>
<path d="M1348.79 48.2607H1340.68V56.3526H1348.79V48.2607Z" fill="white"/>
<path d="M1323.47 48.2607H1315.37V56.3526H1323.47V48.2607Z" fill="white"/>
<path d="M1285.51 48.2607H1277.4V56.3526H1285.51V48.2607Z" fill="white"/>
<path d="M1274.77 46.3438H1266.67V54.4356H1274.77V46.3438Z" fill="#3F84EB"/>
<path d="M1260.19 48.2607H1252.09V56.3526H1260.19V48.2607Z" fill="#3DFEB1"/>
<path d="M1247.54 48.2607H1239.43V56.3526H1247.54V48.2607Z" fill="white"/>
<path d="M1226.17 56.96V47.6484H1235.5V56.96H1226.17ZM1227.39 48.8682V55.7403H1234.28V48.8682H1227.39Z" fill="white"/>
<path d="M1184.26 48.2607H1176.15V56.3526H1184.26V48.2607Z" fill="#3F84EB"/>
<path d="M1150.23 56.96V47.6484H1159.56V56.96H1150.23ZM1151.45 48.8682V55.7403H1158.34V48.8682H1151.45Z" fill="#3F84EB"/>
<path d="M1112.26 56.96V47.6484H1121.59V56.96H1112.26ZM1113.49 48.8682V55.7403H1120.37V48.8682H1113.49Z" fill="white"/>
<path d="M1099.61 56.96V47.6484H1108.94V56.96H1099.61ZM1100.83 48.8682V55.7403H1107.71V48.8682H1100.83Z" fill="white"/>
<path d="M1348.79 60.8906H1340.68V68.9824H1348.79V60.8906Z" fill="#3F84EB"/>
<path d="M1386.76 60.8906H1378.65V68.9824H1386.76V60.8906Z" fill="#3F84EB"/>
<path d="M1336.13 60.8906H1328.03V68.9824H1336.13V60.8906Z" fill="white"/>
<path d="M1260.19 60.8906H1252.09V68.9824H1260.19V60.8906Z" fill="white"/>
<path d="M1196.92 60.8906H1188.81V68.9824H1196.92V60.8906Z" fill="white"/>
<path d="M1184.26 60.8906H1176.15V68.9824H1184.26V60.8906Z" fill="white"/>
<path d="M1171.6 60.8906H1163.5V68.9824H1171.6V60.8906Z" fill="white"/>
<path d="M1150.23 69.5948V60.2832H1159.56V69.5948H1150.23ZM1151.45 61.503V68.375H1158.34V61.503H1151.45Z" fill="white"/>
<path d="M1137.58 69.5948V60.2832H1146.91V69.5948H1137.58ZM1138.8 61.503V68.375H1145.68V61.503H1138.8Z" fill="white"/>
<path d="M1399.41 73.5254H1391.3V81.6172H1399.41V73.5254Z" fill="white"/>
<path d="M1352.72 82.2247V72.9131H1362.05V82.2247H1352.72ZM1353.95 74.1329V81.0049H1360.83V74.1329H1353.95Z" fill="white"/>
<path d="M1340.07 82.2247V72.9131H1349.4V82.2247H1340.07ZM1341.29 74.1329V81.0049H1348.18V74.1329H1341.29Z" fill="white"/>
<path d="M1327.41 82.2247V72.9131H1336.74V82.2247H1327.41ZM1328.64 74.1329V81.0049H1335.52V74.1329H1328.64Z" fill="#3DFEB1"/>
<path d="M1310.82 73.5254H1302.71V81.6172H1310.82V73.5254Z" fill="white"/>
<path d="M1285.51 73.5254H1277.4V81.6172H1285.51V73.5254Z" fill="white"/>
<path d="M1251.48 82.2247V72.9131H1260.81V82.2247H1251.48ZM1252.7 74.1329V81.0049H1259.59V74.1329H1252.7Z" fill="#ABABAB"/>
<path d="M1247.54 73.5254H1239.43V81.6172H1247.54V73.5254Z" fill="white"/>
<path d="M1200.86 82.2247V72.9131H1210.18V82.2247H1200.86ZM1202.08 74.1329V81.0049H1208.96V74.1329H1202.08Z" fill="white"/>
<path d="M1188.2 82.2247V72.9131H1197.53V82.2247H1188.2ZM1189.42 74.1329V81.0049H1196.31V74.1329H1189.42Z" fill="#3F84EB"/>
<path d="M1175.54 82.2247V72.9131H1184.87V82.2247H1175.54ZM1176.76 74.1329V81.0049H1183.65V74.1329H1176.76Z" fill="white"/>
<path d="M1137.58 82.2247V72.9131H1146.91V82.2247H1137.58ZM1138.8 74.1329V81.0049H1145.68V74.1329H1138.8Z" fill="#3F84EB"/>
<path d="M1399.41 86.1543H1391.3V94.2461H1399.41V86.1543Z" fill="white"/>
<path d="M1386.76 86.1553H1378.65V94.2471H1386.76V86.1553Z" fill="white"/>
<path d="M1374.1 86.1553H1365.99V94.2471H1374.1V86.1553Z" fill="white"/>
<path d="M1352.72 94.8595V85.5479H1362.05V94.8595H1352.72ZM1353.95 86.7676V93.6397H1360.83V86.7676H1353.95Z" fill="white"/>
<path d="M1327.41 94.8595V85.5479H1336.74V94.8595H1327.41ZM1328.64 86.7676V93.6397H1335.52V86.7676H1328.64Z" fill="#ABABAB"/>
<path d="M1323.47 86.1543H1315.37V94.2461H1323.47V86.1543Z" fill="white"/>
<path d="M1310.82 86.1543H1302.71V94.2461H1310.82V86.1543Z" fill="white"/>
<path d="M1287.43 84.2422H1279.32V92.334H1287.43V84.2422Z" fill="white"/>
<path d="M1272.85 86.1553H1264.75V94.2471H1272.85V86.1553Z" fill="white"/>
<path d="M1247.54 86.1543H1239.43V94.2461H1247.54V86.1543Z" fill="#3DFEB1"/>
<path d="M1226.17 94.8595V85.5479H1235.5V94.8595H1226.17ZM1227.39 86.7676V93.6397H1234.27V86.7676H1227.39Z" fill="white"/>
<path d="M1213.51 94.8585V85.5469H1222.84V94.8585H1213.51ZM1214.73 86.7667V93.6387H1221.62V86.7667H1214.73Z" fill="#3F84EB"/>
<path d="M1200.86 94.8585V85.5469H1210.18V94.8585H1200.86ZM1202.08 86.7667V93.6387H1208.96V86.7667H1202.08Z" fill="white"/>
<path d="M1196.92 86.1553H1188.81V94.2471H1196.92V86.1553Z" fill="white"/>
<path d="M1184.26 86.1553H1176.15V94.2471H1184.26V86.1553Z" fill="#999999"/>
<path d="M1171.6 86.1553H1163.5V94.2471H1171.6V86.1553Z" fill="white"/>
<path d="M1158.95 86.1553H1150.84V94.2471H1158.95V86.1553Z" fill="#3F84EB"/>
<path d="M1095.73 23.7148H1087.62V31.8067H1095.73V23.7148Z" fill="white"/>
<path d="M1070.42 23.7148H1062.31V31.8067H1070.42V23.7148Z" fill="#3DFEB1"/>
<path d="M1045.11 23.7148H1037V31.8067H1045.11V23.7148Z" fill="#3DFEB1"/>
<path d="M1057.77 36.3438H1049.66V44.4356H1057.77V36.3438Z" fill="#3F84EB"/>
<path d="M1083.08 48.9785H1074.97V57.0703H1083.08V48.9785Z" fill="white"/>
<path d="M1083.08 61.6084H1074.97V69.7002H1083.08V61.6084Z" fill="white"/>
<path d="M1045.11 61.6084H1037V69.7002H1045.11V61.6084Z" fill="#3F84EB"/>
</g>
</g>
<g opacity="0.35" clip-path="url(#clip2_2120_235)">
<g style="mix-blend-mode:overlay">
<path d="M352.34 41.7753V51.0869H361.669V41.7753H352.34ZM353.562 49.8671V42.9951H360.447V49.8671H353.562Z" fill="#ABABAB"/>
<path d="M398.999 25.2109H390.893V17.1191H398.999V25.2109Z" fill="#3F84EB"/>
<path d="M285.001 88.374H276.894V80.2822H285.001V88.374Z" fill="white"/>
<path d="M263.628 79.6698V88.9814H272.957V79.6698H263.628ZM264.85 87.7617V80.8896H271.735V87.7617H264.85Z" fill="white"/>
<path d="M250.975 79.6698V88.9814H260.304V79.6698H250.975ZM252.197 87.7617V80.8896H259.081V87.7617H252.197Z" fill="white"/>
<path d="M221.72 88.374H213.613V80.2822H221.72V88.374Z" fill="white"/>
<path d="M196.41 88.374H188.303V80.2822H196.41V88.374Z" fill="white"/>
<path d="M171.098 88.374H162.991V80.2822H171.098V88.374Z" fill="white"/>
<path d="M158.445 88.374H150.338V80.2822H158.445V88.374Z" fill="#3DFEB1"/>
<path d="M133.133 88.374H125.026V80.2822H133.133V88.374Z" fill="white"/>
<path d="M120.475 88.374H112.368V80.2822H120.475V88.374Z" fill="white"/>
<path d="M69.853 88.374H61.7461V80.2822H69.853V88.374Z" fill="#3DFEB1"/>
<path d="M59.1156 90.291H51.0088V82.1992H59.1156V90.291Z" fill="white"/>
<path d="M23.168 79.6698V88.9814H32.4969V79.6698H23.168ZM24.39 87.7617V80.8896H31.2748V87.7617H24.39Z" fill="#3DFEB1"/>
<path d="M301.597 67.04V76.3516H310.926V67.04H301.597ZM302.819 75.1318V68.2597H309.704V75.1318H302.819Z" fill="#ABABAB"/>
<path d="M259.69 75.7393H251.583V67.6474H259.69V75.7393Z" fill="white"/>
<path d="M238.316 67.04V76.3516H247.645V67.04H238.316ZM239.539 75.1318V68.2597H246.423V75.1318H239.539Z" fill="#3F84EB"/>
<path d="M221.72 75.7393H213.613V67.6474H221.72V75.7393Z" fill="white"/>
<path d="M209.068 75.7393H200.961V67.6474H209.068V75.7393Z" fill="white"/>
<path d="M158.445 75.7393H150.338V67.6474H158.445V75.7393Z" fill="#3DFEB1"/>
<path d="M145.787 75.7393H137.68V67.6474H145.787V75.7393Z" fill="white"/>
<path d="M120.475 75.7393H112.368V67.6474H120.475V75.7393Z" fill="white"/>
<path d="M82.5061 75.7393H74.3992V67.6474H82.5061V75.7393Z" fill="white"/>
<path d="M71.7738 77.6562H63.667V69.5644H71.7738V77.6562Z" fill="#3F84EB"/>
<path d="M57.1948 75.7393H49.0879V67.6474H57.1948V75.7393Z" fill="#3DFEB1"/>
<path d="M44.5414 75.7393H36.4346V67.6474H44.5414V75.7393Z" fill="white"/>
<path d="M23.1682 67.04V76.3516H32.4971V67.04H23.1682ZM24.3902 75.1318V68.2597H31.275V75.1318H24.3902Z" fill="white"/>
<path d="M145.787 63.1094H137.68V55.0176H145.787V63.1094Z" fill="#3F84EB"/>
<path d="M183.756 63.1094H175.649V55.0176H183.756V63.1094Z" fill="#3F84EB"/>
<path d="M133.133 63.1094H125.026V55.0176H133.133V63.1094Z" fill="white"/>
<path d="M57.1948 63.1094H49.0879V55.0176H57.1948V63.1094Z" fill="white"/>
<path d="M297.659 50.4746H289.553V42.3828H297.659V50.4746Z" fill="#3F84EB"/>
<path d="M285.001 50.4746H276.894V42.3828H285.001V50.4746Z" fill="white"/>
<path d="M247.037 50.4746H238.93V42.3828H247.037V50.4746Z" fill="white"/>
<path d="M234.378 50.4746H226.271V42.3828H234.378V50.4746Z" fill="white"/>
<path d="M221.72 50.4746H213.613V42.3828H221.72V50.4746Z" fill="white"/>
<path d="M200.347 41.7753V51.0869H209.676V41.7753H200.347ZM201.569 49.8671V42.9951H208.454V49.8671H201.569Z" fill="#ABABAB"/>
<path d="M196.41 50.4746H188.303V42.3828H196.41V50.4746Z" fill="white"/>
<path d="M149.725 41.7753V51.0869H159.054V41.7753H149.725ZM150.947 49.8671V42.9951H157.831V49.8671H150.947Z" fill="white"/>
<path d="M137.071 41.7753V51.0869H146.4V41.7753H137.071ZM138.293 49.8671V42.9951H145.178V49.8671H138.293Z" fill="white"/>
<path d="M124.413 41.7753V51.0869H133.742V41.7753H124.413ZM125.635 49.8671V42.9951H132.52V49.8671H125.635Z" fill="#3DFEB1"/>
<path d="M107.823 50.4746H99.7158V42.3828H107.823V50.4746Z" fill="white"/>
<path d="M82.5061 50.4746H74.3992V42.3828H82.5061V50.4746Z" fill="white"/>
<path d="M48.4795 41.7753V51.0869H57.8084V41.7753H48.4795ZM49.7016 49.8671V42.9951H56.5863V49.8671H49.7016Z" fill="#ABABAB"/>
<path d="M44.5414 50.4746H36.4346V42.3828H44.5414V50.4746Z" fill="white"/>
<path d="M-2.14355 41.7753V51.0869H7.18535V41.7753H-2.14355ZM-0.921496 49.8671V42.9951H5.96329V49.8671H-0.921496Z" fill="white"/>
<path d="M196.41 37.8457H188.303V29.7539H196.41V37.8457Z" fill="white"/>
<path d="M183.756 37.8447H175.649V29.7529H183.756V37.8447Z" fill="white"/>
<path d="M171.098 37.8447H162.991V29.7529H171.098V37.8447Z" fill="white"/>
<path d="M149.725 29.1405V38.4521H159.054V29.1405H149.725ZM150.947 37.2324V30.3603H157.831V37.2324H150.947Z" fill="white"/>
<path d="M124.413 29.1405V38.4521H133.742V29.1405H124.413ZM125.635 37.2324V30.3603H132.52V37.2324H125.635Z" fill="#ABABAB"/>
<path d="M120.475 37.8457H112.368V29.7539H120.475V37.8457Z" fill="white"/>
<path d="M107.823 37.8457H99.7158V29.7539H107.823V37.8457Z" fill="white"/>
<path d="M84.4271 39.7578H76.3203V31.666H84.4271V39.7578Z" fill="white"/>
<path d="M69.853 37.8447H61.7461V29.7529H69.853V37.8447Z" fill="white"/>
<path d="M44.5414 37.8457H36.4346V29.7539H44.5414V37.8457Z" fill="#3DFEB1"/>
<path d="M23.168 29.1405V38.4521H32.4969V29.1405H23.168ZM24.39 37.2324V30.3603H31.2748V37.2324H24.39Z" fill="white"/>
<path d="M10.5098 29.1415V38.4531H19.8387V29.1415H10.5098ZM11.7318 37.2333V30.3613H18.6166V37.2333H11.7318Z" fill="#3F84EB"/>
<path d="M-2.14355 29.1415V38.4531H7.18535V29.1415H-2.14355ZM-0.921496 37.2333V30.3613H5.96329V37.2333H-0.921496Z" fill="white"/>
<path d="M285.001 25.21H276.895V17.1181H285.001V25.21Z" fill="white"/>
<path d="M259.69 25.21H251.583V17.1181H259.69V25.21Z" fill="white"/>
<path d="M234.378 25.2109H226.271V17.1191H234.378V25.2109Z" fill="#3DFEB1"/>
<path d="M221.72 25.2109H213.613V17.1191H221.72V25.2109Z" fill="white"/>
<path d="M171.098 25.21H162.991V17.1181H171.098V25.21Z" fill="white"/>
<path d="M149.725 16.5116V25.8232H159.054V16.5116H149.725ZM150.947 24.6034V17.7314H157.831V24.6034H150.947Z" fill="white"/>
<path d="M124.413 16.5116V25.8232H133.742V16.5116H124.413ZM125.635 24.6034V17.7314H132.52V24.6034H125.635Z" fill="white"/>
<path d="M120.475 25.2109H112.368V17.1191H120.475V25.2109Z" fill="white"/>
<path d="M82.5063 25.21H74.3994V17.1181H82.5063V25.21Z" fill="white"/>
<path d="M69.853 25.21H61.7461V17.1181H69.853V25.21Z" fill="white"/>
<path d="M57.1947 25.21H49.0879V17.1181H57.1947V25.21Z" fill="#3F84EB"/>
<path d="M44.5414 25.2109H36.4346V17.1191H44.5414V25.2109Z" fill="white"/>
<path d="M23.168 16.5116V25.8232H32.4969V16.5116H23.168ZM24.39 24.6034V17.7314H31.2748V24.6034H24.39Z" fill="#ABABAB"/>
<path d="M-2.14355 16.5106V25.8223H7.18535V16.5106H-2.14355ZM-0.921496 24.6024V17.7304H5.96329V24.6024H-0.921496Z" fill="white"/>
<path d="M238.316 3.87687V13.1885H247.645V3.87687H238.316ZM239.538 11.9687V5.09666H246.423V11.9687H239.538Z" fill="#ABABAB"/>
<path d="M221.72 12.5801H213.613V4.48826H221.72V12.5801Z" fill="#3DFEB1"/>
<path d="M196.41 12.5801H188.303V4.48826H196.41V12.5801Z" fill="#3F84EB"/>
<path d="M183.756 12.5811H175.649V4.48924H183.756V12.5811Z" fill="white"/>
<path d="M107.823 12.5801H99.7158V4.48826H107.823V12.5801Z" fill="#3F84EB"/>
<path d="M69.853 12.5811H61.7461V4.48924H69.853V12.5811Z" fill="#999999"/>
<path d="M44.5414 12.5801H36.4346V4.48826H44.5414V12.5801Z" fill="#3DFEB1"/>
<path d="M23.168 3.87687V13.1885H32.4969V3.87687H23.168ZM24.39 11.9687V5.09666H31.2748V11.9687H24.39Z" fill="white"/>
<path d="M10.5098 3.87589V13.1875H19.8387V3.87589H10.5098ZM11.7318 11.9677V5.09568H18.6166V11.9677H11.7318Z" fill="#3F84EB"/>
<path d="M-2.14355 3.87589V13.1875H7.18535V3.87589H-2.14355ZM-0.921496 11.9677V5.09568H5.96329V11.9677H-0.921496Z" fill="white"/>
<path d="M124.413 -8.75302V0.558594H133.742V-8.75302H124.413ZM125.635 -0.661199V-7.53322H132.52V-0.661199H125.635Z" fill="white"/>
</g>
</g>
</g>
<defs>
<clipPath id="clip0_2120_235">
<rect width="1400" height="90" fill="white"/>
</clipPath>
<clipPath id="clip1_2120_235">
<rect width="565" height="384" fill="white" transform="translate(1037 -205)"/>
</clipPath>
<clipPath id="clip2_2120_235">
<rect width="565" height="384" fill="white" transform="matrix(1 0 0 -1 -166 329)"/>
</clipPath>
</defs>
</svg>
