<svg width="320" height="156" viewBox="0 0 320 156" fill="none" xmlns="http://www.w3.org/2000/svg">
<g clip-path="url(#clip0_2128_937)">
<rect width="320" height="155.747" fill="#EEF8FF"/>
<g opacity="0.35" clip-path="url(#clip1_2128_937)">
<g style="mix-blend-mode:overlay">
<path d="M285.793 125.387V130.043H290.433V125.387H285.793ZM286.401 129.433V125.997H289.825V129.433H286.401Z" fill="#ABABAB"/>
<path d="M309.001 117.105H304.969V113.06H309.001V117.105Z" fill="#3F84EB"/>
<path d="M214.538 155.004H210.506V150.958H214.538V155.004Z" fill="white"/>
<path d="M201.95 155.004H197.918V150.958H201.95V155.004Z" fill="#3F84EB"/>
<path d="M178.73 150.653V155.309H183.37V150.653H178.73ZM179.338 154.699V151.263H182.762V154.699H179.338Z" fill="white"/>
<path d="M172.436 150.652V155.308H177.075V150.652H172.436ZM173.043 154.698V151.262H176.467V154.698H173.043Z" fill="#3F84EB"/>
<path d="M170.477 155.004H166.445V150.958H170.477V155.004Z" fill="white"/>
<path d="M151.592 155.004H147.561V150.958H151.592V155.004Z" fill="white"/>
<path d="M139.005 155.004H134.973V150.958H139.005V155.004Z" fill="white"/>
<path d="M126.417 155.004H122.385V150.958H126.417V155.004Z" fill="#3DFEB1"/>
<path d="M120.124 155.004H116.092V150.958H120.124V155.004Z" fill="white"/>
<path d="M113.829 155.004H109.797V150.958H113.829V155.004Z" fill="#3DFEB1"/>
<path d="M107.536 155.004H103.504V150.958H107.536V155.004Z" fill="#999999"/>
<path d="M102.196 155.961H98.1641V151.915H102.196V155.961Z" fill="white"/>
<path d="M94.944 155.004H90.9121V150.958H94.944V155.004Z" fill="#3DFEB1"/>
<path d="M82.3561 155.004H78.3242V150.958H82.3561V155.004Z" fill="white"/>
<path d="M76.0632 155.004H72.0312V150.958H76.0632V155.004Z" fill="#3DFEB1"/>
<path d="M65.4336 150.652V155.308H70.0733V150.652H65.4336ZM66.0414 154.698V151.262H69.4655V154.698H66.0414Z" fill="#ABABAB"/>
<path d="M63.4733 155.004H59.4414V150.958H63.4733V155.004Z" fill="#3F84EB"/>
<path d="M252.303 148.687H248.271V144.641H252.303V148.687Z" fill="white"/>
<path d="M241.672 144.334V148.99H246.312V144.334H241.672ZM242.28 148.38V144.944H245.704V148.38H242.28Z" fill="white"/>
<path d="M235.379 144.334V148.99H240.019V144.334H235.379ZM235.987 148.38V144.944H239.411V148.38H235.987Z" fill="white"/>
<path d="M220.831 148.688H216.799V144.642H220.831V148.688Z" fill="white"/>
<path d="M208.243 148.688H204.211V144.642H208.243V148.688Z" fill="white"/>
<path d="M195.655 148.687H191.623V144.641H195.655V148.687Z" fill="white"/>
<path d="M189.362 148.687H185.33V144.641H189.362V148.687Z" fill="#3DFEB1"/>
<path d="M176.772 148.688H172.74V144.642H176.772V148.688Z" fill="white"/>
<path d="M170.477 148.688H166.445V144.642H170.477V148.688Z" fill="white"/>
<path d="M145.299 148.687H141.268V144.641H145.299V148.687Z" fill="#3DFEB1"/>
<path d="M139.962 149.646H135.93V145.6H139.962V149.646Z" fill="white"/>
<path d="M122.082 144.334V148.99H126.722V144.334H122.082ZM122.69 148.38V144.944H126.114V148.38H122.69Z" fill="#3DFEB1"/>
<path d="M103.197 144.334V148.99H107.837V144.334H103.197ZM103.805 148.38V144.944H107.229V148.38H103.805Z" fill="white"/>
<path d="M101.239 148.688H97.207V144.642H101.239V148.688Z" fill="white"/>
<path d="M94.944 148.687H90.9121V144.641H94.944V148.687Z" fill="#3F84EB"/>
<path d="M88.651 148.687H84.6191V144.641H88.651V148.687Z" fill="white"/>
<path d="M82.3561 148.688H78.3242V144.642H82.3561V148.688Z" fill="#3DFEB1"/>
<path d="M65.4316 144.334V148.99H70.0713V144.334H65.4316ZM66.0394 148.38V144.944H69.4635V148.38H66.0394Z" fill="white"/>
<path d="M260.557 138.02V142.676H265.196V138.02H260.557ZM261.164 142.066V138.63H264.589V142.066H261.164Z" fill="#ABABAB"/>
<path d="M239.715 142.369H235.684V138.323H239.715V142.369Z" fill="white"/>
<path d="M229.084 138.02V142.676H233.724V138.02H229.084ZM229.692 142.066V138.63H233.116V142.066H229.692Z" fill="#3F84EB"/>
<path d="M220.831 142.369H216.799V138.323H220.831V142.369Z" fill="white"/>
<path d="M214.538 142.369H210.506V138.323H214.538V142.369Z" fill="white"/>
<path d="M189.362 142.369H185.33V138.323H189.362V142.369Z" fill="#3DFEB1"/>
<path d="M183.067 142.369H179.035V138.323H183.067V142.369Z" fill="white"/>
<path d="M170.477 142.369H166.445V138.323H170.477V142.369Z" fill="white"/>
<path d="M151.592 142.369H147.561V138.323H151.592V142.369Z" fill="white"/>
<path d="M146.257 143.328H142.225V139.282H146.257V143.328Z" fill="#3F84EB"/>
<path d="M139.005 142.369H134.973V138.323H139.005V142.369Z" fill="#3DFEB1"/>
<path d="M132.712 142.369H128.68V138.323H132.712V142.369Z" fill="white"/>
<path d="M122.082 138.02V142.676H126.722V138.02H122.082ZM122.69 142.066V138.63H126.114V142.066H122.69Z" fill="white"/>
<path d="M101.239 142.369H97.207V138.323H101.239V142.369Z" fill="#3F84EB"/>
<path d="M84.3145 138.02V142.676H88.9541V138.02H84.3145ZM84.9222 142.066V138.63H88.3464V142.066H84.9222Z" fill="#3F84EB"/>
<path d="M65.4316 138.02V142.676H70.0713V138.02H65.4316ZM66.0394 142.066V138.63H69.4635V142.066H66.0394Z" fill="white"/>
<path d="M59.1367 138.02V142.676H63.7764V138.02H59.1367ZM59.7445 142.066V138.63H63.1686V142.066H59.7445Z" fill="white"/>
<path d="M183.067 136.055H179.035V132.009H183.067V136.055Z" fill="#3F84EB"/>
<path d="M201.95 136.055H197.918V132.009H201.95V136.055Z" fill="#3F84EB"/>
<path d="M176.772 136.055H172.74V132.009H176.772V136.055Z" fill="white"/>
<path d="M139.005 136.055H134.973V132.009H139.005V136.055Z" fill="white"/>
<path d="M107.536 136.055H103.504V132.009H107.536V136.055Z" fill="white"/>
<path d="M101.239 136.055H97.207V132.009H101.239V136.055Z" fill="white"/>
<path d="M94.944 136.055H90.9121V132.009H94.944V136.055Z" fill="white"/>
<path d="M84.3145 131.703V136.358H88.9541V131.703H84.3145ZM84.9222 135.749V132.312H88.3464V135.749H84.9222Z" fill="white"/>
<path d="M78.0215 131.703V136.358H82.6612V131.703H78.0215ZM78.6293 135.749V132.312H82.0534V135.749H78.6293Z" fill="white"/>
<path d="M258.598 129.737H254.566V125.691H258.598V129.737Z" fill="#3F84EB"/>
<path d="M252.303 129.737H248.271V125.691H252.303V129.737Z" fill="white"/>
<path d="M233.423 129.737H229.391V125.691H233.423V129.737Z" fill="white"/>
<path d="M227.126 129.737H223.094V125.691H227.126V129.737Z" fill="white"/>
<path d="M220.831 129.737H216.799V125.691H220.831V129.737Z" fill="white"/>
<path d="M210.201 125.387V130.043H214.841V125.387H210.201ZM210.809 129.433V125.997H214.233V129.433H210.809Z" fill="#ABABAB"/>
<path d="M208.243 129.737H204.211V125.691H208.243V129.737Z" fill="white"/>
<path d="M185.023 125.387V130.043H189.663V125.387H185.023ZM185.631 129.433V125.997H189.055V129.433H185.631Z" fill="white"/>
<path d="M178.73 125.387V130.043H183.37V125.387H178.73ZM179.338 129.433V125.997H182.762V129.433H179.338Z" fill="white"/>
<path d="M172.436 125.387V130.043H177.075V125.387H172.436ZM173.043 129.433V125.997H176.467V129.433H173.043Z" fill="#3DFEB1"/>
<path d="M164.184 129.737H160.152V125.691H164.184V129.737Z" fill="white"/>
<path d="M151.592 129.737H147.561V125.691H151.592V129.737Z" fill="white"/>
<path d="M134.67 125.387V130.043H139.31V125.387H134.67ZM135.278 129.433V125.997H138.702V129.433H135.278Z" fill="#ABABAB"/>
<path d="M132.712 129.737H128.68V125.691H132.712V129.737Z" fill="white"/>
<path d="M120.242 77.0004V81.6562H124.882V77.0004H120.242ZM120.85 81.0464V77.6103H124.274V81.0464H120.85Z" fill="#3F84EB"/>
<path d="M109.494 125.387V130.043H114.134V125.387H109.494ZM110.102 129.433V125.997H113.526V129.433H110.102Z" fill="white"/>
<path d="M103.197 125.387V130.043H107.837V125.387H103.197ZM103.805 129.433V125.997H107.229V129.433H103.805Z" fill="#3F84EB"/>
<path d="M96.9023 125.387V130.043H101.542V125.387H96.9023ZM97.5101 129.433V125.997H100.934V129.433H97.5101Z" fill="white"/>
<path d="M78.0215 125.387V130.043H82.6612V125.387H78.0215ZM78.6293 129.433V125.997H82.0534V129.433H78.6293Z" fill="#3F84EB"/>
<path d="M208.243 123.423H204.211V119.377H208.243V123.423Z" fill="white"/>
<path d="M201.95 123.422H197.918V119.376H201.95V123.422Z" fill="white"/>
<path d="M195.655 123.423H191.623V119.377H195.655V123.423Z" fill="white"/>
<path d="M185.023 119.071V123.727H189.663V119.071H185.023ZM185.631 123.117V119.681H189.055V123.117H185.631Z" fill="white"/>
<path d="M172.436 119.071V123.727H177.075V119.071H172.436ZM173.043 123.117V119.681H176.467V123.117H173.043Z" fill="#ABABAB"/>
<path d="M170.477 123.423H166.445V119.377H170.477V123.423Z" fill="white"/>
<path d="M164.184 123.423H160.152V119.377H164.184V123.423Z" fill="white"/>
<path d="M152.549 124.379H148.518V120.333H152.549V124.379Z" fill="white"/>
<path d="M145.299 123.423H141.268V119.377H145.299V123.423Z" fill="white"/>
<path d="M132.712 123.423H128.68V119.377H132.712V123.423Z" fill="#3DFEB1"/>
<path d="M122.082 119.071V123.727H126.722V119.071H122.082ZM122.69 123.117V119.681H126.114V123.117H122.69Z" fill="white"/>
<path d="M115.785 119.071V123.727H120.425V119.071H115.785ZM116.393 123.117V119.681H119.817V123.117H116.393Z" fill="#3F84EB"/>
<path d="M109.492 119.071V123.727H114.132V119.071H109.492ZM110.1 123.117V119.681H113.524V123.117H110.1Z" fill="white"/>
<path d="M107.536 123.423H103.504V119.377H107.536V123.423Z" fill="white"/>
<path d="M101.239 123.422H97.207V119.376H101.239V123.422Z" fill="#999999"/>
<path d="M94.944 123.423H90.9121V119.377H94.944V123.423Z" fill="white"/>
<path d="M88.651 123.423H84.6191V119.377H88.651V123.423Z" fill="#3F84EB"/>
<path d="M252.303 117.105H248.271V113.06H252.303V117.105Z" fill="white"/>
<path d="M239.715 117.105H235.684V113.06H239.715V117.105Z" fill="white"/>
<path d="M227.126 117.105H223.094V113.06H227.126V117.105Z" fill="#3DFEB1"/>
<path d="M220.831 117.105H216.799V113.06H220.831V117.105Z" fill="white"/>
<path d="M195.655 117.105H191.623V113.06H195.655V117.105Z" fill="white"/>
<path d="M185.023 112.756V117.412H189.663V112.756H185.023ZM185.631 116.802V113.366H189.055V116.802H185.631Z" fill="white"/>
<path d="M172.436 112.755V117.411H177.075V112.755H172.436ZM173.043 116.801V113.365H176.467V116.801H173.043Z" fill="white"/>
<path d="M170.477 117.105H166.445V113.06H170.477V117.105Z" fill="white"/>
<path d="M151.592 117.105H147.561V113.06H151.592V117.105Z" fill="white"/>
<path d="M145.299 117.105H141.268V113.06H145.299V117.105Z" fill="white"/>
<path d="M139.005 117.105H134.973V113.06H139.005V117.105Z" fill="#3F84EB"/>
<path d="M132.712 117.105H128.68V113.06H132.712V117.105Z" fill="white"/>
<path d="M122.082 112.755V117.411H126.722V112.755H122.082ZM122.69 116.801V113.365H126.114V116.801H122.69Z" fill="#ABABAB"/>
<path d="M109.492 112.755V117.411H114.132V112.755H109.492ZM110.1 116.801V113.365H113.524V116.801H110.1Z" fill="white"/>
<path d="M94.944 117.105H90.9121V113.06H94.944V117.105Z" fill="white"/>
<path d="M82.3561 117.105H78.3242V113.06H82.3561V117.105Z" fill="#3DFEB1"/>
<path d="M76.0632 117.105H72.0312V113.06H76.0632V117.105Z" fill="white"/>
<path d="M63.4733 117.105H59.4414V113.06H63.4733V117.105Z" fill="white"/>
<path d="M229.084 106.438V111.094H233.724V106.438H229.084ZM229.692 110.484V107.048H233.116V110.484H229.692Z" fill="#ABABAB"/>
<path d="M220.831 110.79H216.799V106.744H220.831V110.79Z" fill="#3DFEB1"/>
<path d="M208.243 110.79H204.211V106.744H208.243V110.79Z" fill="#3F84EB"/>
<path d="M201.95 110.791H197.918V106.745H201.95V110.791Z" fill="white"/>
<path d="M164.184 110.79H160.152V106.744H164.184V110.79Z" fill="#3F84EB"/>
<path d="M145.299 110.79H141.268V106.744H145.299V110.79Z" fill="#999999"/>
<path d="M132.712 110.79H128.68V106.744H132.712V110.79Z" fill="#3DFEB1"/>
<path d="M122.082 106.438V111.094H126.722V106.438H122.082ZM122.69 110.484V107.048H126.114V110.484H122.69Z" fill="white"/>
<path d="M115.785 106.438V111.094H120.425V106.438H115.785ZM116.393 110.484V107.048H119.817V110.484H116.393Z" fill="#3F84EB"/>
<path d="M109.492 106.438V111.094H114.132V106.438H109.492ZM110.1 110.484V107.048H113.524V110.484H110.1Z" fill="white"/>
<path d="M107.536 110.79H103.504V106.744H107.536V110.79Z" fill="white"/>
<path d="M101.239 110.791H97.207V106.745H101.239V110.791Z" fill="#3F84EB"/>
<path d="M88.651 110.79H84.6191V106.744H88.651V110.79Z" fill="white"/>
<path d="M82.3561 110.791H78.3242V106.745H82.3561V110.791Z" fill="white"/>
<path d="M76.0632 110.79H72.0312V106.744H76.0632V110.79Z" fill="#3F84EB"/>
<path d="M69.7663 110.79H65.7344V106.744H69.7663V110.79Z" fill="white"/>
<path d="M63.4733 110.79H59.4414V106.744H63.4733V110.79Z" fill="#3F84EB"/>
<path d="M246.01 104.473H241.979V100.427H246.01V104.473Z" fill="#3DFEB1"/>
<path d="M220.831 104.473H216.799V100.427H220.831V104.473Z" fill="white"/>
<path d="M214.538 104.473H210.506V100.427H214.538V104.473Z" fill="white"/>
<path d="M201.95 104.473H197.918V100.427H201.95V104.473Z" fill="#999999"/>
<path d="M172.436 100.123V104.779H177.075V100.123H172.436ZM173.043 104.169V100.733H176.467V104.169H173.043Z" fill="white"/>
<path d="M151.592 104.473H147.561V100.427H151.592V104.473Z" fill="white"/>
<path d="M145.299 104.473H141.268V100.427H145.299V104.473Z" fill="#999999"/>
<path d="M139.005 104.473H134.973V100.427H139.005V104.473Z" fill="white"/>
<path d="M132.712 104.473H128.68V100.427H132.712V104.473Z" fill="white"/>
<path d="M96.9023 100.123V104.779H101.542V100.123H96.9023ZM97.5101 104.169V100.733H100.934V104.169H97.5101Z" fill="white"/>
<path d="M84.3145 100.123V104.779H88.9541V100.123H84.3145ZM84.9222 104.169V100.733H88.3464V104.169H84.9222Z" fill="white"/>
<path d="M78.0215 100.123V104.779H82.6612V100.123H78.0215ZM78.6293 104.169V100.733H82.0534V104.169H78.6293Z" fill="white"/>
<path d="M69.7663 104.473H65.7344V100.427H69.7663V104.473Z" fill="white"/>
<path d="M246.01 98.1582H241.978V94.1123H246.01V98.1582Z" fill="white"/>
<path d="M227.126 98.1582H223.094V94.1123H227.126V98.1582Z" fill="white"/>
<path d="M57.2077 154.643H53.1758V150.597H57.2077V154.643Z" fill="white"/>
<path d="M44.6217 154.643H40.5898V150.597H44.6217V154.643Z" fill="#3DFEB1"/>
<path d="M32.0319 154.643H28V150.597H32.0319V154.643Z" fill="#3DFEB1"/>
<path d="M38.3288 148.328H34.2969V144.282H38.3288V148.328Z" fill="#3F84EB"/>
<path d="M50.9147 142.011H46.8828V137.965H50.9147V142.011Z" fill="white"/>
<path d="M50.9147 135.695H46.8828V131.649H50.9147V135.695Z" fill="white"/>
<path d="M32.0319 135.695H28V131.649H32.0319V135.695Z" fill="#3F84EB"/>
<path d="M220.831 98.1582H216.799V94.1123H220.831V98.1582Z" fill="#3F84EB"/>
<path d="M201.95 98.1582H197.918V94.1123H201.95V98.1582Z" fill="white"/>
<path d="M157.889 98.1582H153.857V94.1123H157.889V98.1582Z" fill="white"/>
<path d="M145.299 98.1582H141.268V94.1123H145.299V98.1582Z" fill="white"/>
<path d="M139.005 98.1582H134.973V94.1123H139.005V98.1582Z" fill="#3F84EB"/>
<path d="M122.082 93.8061V98.4619H126.722V93.8061H122.082ZM122.69 97.852V94.416H126.114V97.852H122.69Z" fill="white"/>
<path d="M115.787 93.8061V98.4619H120.427V93.8061H115.787ZM116.395 97.852V94.416H119.819V97.852H116.395Z" fill="white"/>
<path d="M109.494 93.8061V98.4619H114.134V93.8061H109.494ZM110.102 97.852V94.416H113.526V97.852H110.102Z" fill="#3F84EB"/>
<path d="M90.6095 93.8061V98.4619H95.2492V93.8061H90.6095ZM91.2173 97.852V94.416H94.6414V97.852H91.2173Z" fill="#3DFEB1"/>
<path d="M208.243 91.8408H204.211V87.7949H208.243V91.8408Z" fill="#3DFEB1"/>
<path d="M172.436 87.4917V92.1475H177.075V87.4917H172.436ZM173.043 91.5376V88.1016H176.467V91.5376H173.043Z" fill="white"/>
<path d="M157.889 91.8408H153.857V87.7949H157.889V91.8408Z" fill="white"/>
<path d="M147.26 87.4907V92.1465H151.899V87.4907H147.26ZM147.868 91.5366V88.1006H151.292V91.5366H147.868Z" fill="#ABABAB"/>
<path d="M145.299 91.8408H141.268V87.7949H145.299V91.8408Z" fill="white"/>
<path d="M109.494 87.4907V92.1465H114.134V87.4907H109.494ZM110.102 91.5366V88.1006H113.526V91.5366H110.102Z" fill="white"/>
<path d="M96.9023 87.4907V92.1465H101.542V87.4907H96.9023ZM97.5101 91.5366V88.1006H100.934V91.5366H97.5101Z" fill="#3DFEB1"/>
<path d="M90.6094 87.4917V92.1475H95.2491V87.4917H90.6094ZM91.2172 91.5376V88.1016H94.6413V91.5376H91.2172Z" fill="white"/>
</g>
</g>
</g>
<defs>
<clipPath id="clip0_2128_937">
<rect width="320" height="155.747" fill="white"/>
</clipPath>
<clipPath id="clip1_2128_937">
<rect width="281" height="192" fill="white" transform="matrix(1 0 0 -1 28 269)"/>
</clipPath>
</defs>
</svg>
