<svg width="9" height="10" viewBox="0 0 9 10" fill="none" xmlns="http://www.w3.org/2000/svg">
<path d="M0.43398 8.04067C0.160613 8.31404 0.160613 8.75725 0.43398 9.03062C0.707347 9.30399 1.15056 9.30399 1.42393 9.03062L0.43398 8.04067ZM8.70002 1.46458C8.70002 1.07798 8.38662 0.764577 8.00002 0.764577L1.70002 0.764577C1.31342 0.764577 1.00002 1.07798 1.00002 1.46458C1.00002 1.85118 1.31342 2.16458 1.70002 2.16458H7.30002V7.76458C7.30002 8.15118 7.61342 8.46458 8.00002 8.46458C8.38662 8.46458 8.70002 8.15118 8.70002 7.76458L8.70002 1.46458ZM1.42393 9.03062L8.495 1.95955L7.50505 0.969602L0.43398 8.04067L1.42393 9.03062Z" fill="white"/>
</svg>
