<svg width="360" height="134" viewBox="0 0 360 134" fill="none" xmlns="http://www.w3.org/2000/svg">
<g clip-path="url(#clip0_6098_123311)">
<rect width="360" height="134" fill="url(#paint0_linear_6098_123311)"/>
<g opacity="0.2">
<g style="mix-blend-mode:overlay">
<g style="mix-blend-mode:overlay">
<path d="M-62.6875 391.122L-47.3186 300.061L-46.8545 298.464L-39.9736 274.697L-17.1785 196.041L-15.9659 193.293L-1.17726 159.991L25.3078 100.328L26.6132 98.2552L47.3718 65.2607L76.5721 18.8472L133.853 -43.1499L191.708 -83.8672L246.332 -102.199L293.767 -101.877L294.486 -101.57L294.544 -101.554L326.86 -87.767L331.844 -85.6329L333.265 -84.3125L355.457 -63.57L359.825 -59.486L360.452 -58.3498L374.823 -31.9573L377.579 -26.8906L378.565 -23.1444L384.03 -2.38656L386.601 7.36288L387.697 40.9255" stroke="url(#paint1_linear_6098_123311)" stroke-width="0.5" stroke-linecap="round" stroke-linejoin="round"/>
</g>
<g style="mix-blend-mode:overlay">
<path d="M-62.2759 377.397L-52.9873 309.841L-52.4013 307.538L-49.2741 295.225L-29.7106 218.151L-26.1541 204.133L-24.8661 200.909L-24.2511 199.373L-22.94 196.088L-22.0117 193.754L13.2572 105.41L14.5452 103.138L29.0438 77.6821L62.0964 19.6154L64.0865 17.2203L87.775 -11.3678L117.938 -47.7401L175.59 -94.2917L231.253 -118.274L280.782 -122.818L312.088 -113.13L321.673 -110.167L323.431 -108.816L344.781 -92.3725L352.828 -86.1697L353.554 -85.0643L368.505 -62.3105L373.767 -54.296" stroke="url(#paint2_linear_6098_123311)" stroke-width="0.5" stroke-linecap="round" stroke-linejoin="round"/>
</g>
<g style="mix-blend-mode:overlay">
<path d="M298.814 27.1072L261.776 25.2188L217.027 37.394L167.376 67.3025L115.879 115.267L67.2081 180.718L26.0795 256.963L24.9249 259.113L24.3158 260.234L-8.63823 347.948L-9.11978 349.238L-32.0425 441.481L-32.408 442.97L-32.849 446.363L-44.3074 534.554L-44.5395 536.304L-46.9937 626.198L-40.6581 709.46L-29.8205 773.192L-29.0256 777.844L-27.7434 785.413L-11.307 843.941L-9.68835 852.784L4.43893 890.784L6.53337 893.824L8.94109 902.928L20.1733 930.012L21.966 933.374L25.4587 942.141L26.1027 944.413L27.3153 946.809L28.261 948.851" stroke="url(#paint3_linear_6098_123311)" stroke-width="0.5" stroke-linecap="round" stroke-linejoin="round"/>
</g>
<g style="mix-blend-mode:overlay">
<path d="M280.196 82.5039L244.846 87.893L203.062 106.547L157.605 141.108L111.278 191.498L68.1417 256.596L31.3876 331.798L30.6972 333.21L3.4289 412.695L2.41359 415.643L1.89723 417.163L-17.382 502.681L-17.7707 504.416L-27.4249 588.799L-27.6337 590.656L-29.0029 673.304L-28.9971 673.365L-22.766 749.948L-10.8202 819.837L-9.92095 823.276L3.72479 875.217L5.51174 882.019L18.2292 918.821L20.1206 924.302L22.0003 927.68L31.0105 948.852" stroke="url(#paint4_linear_6098_123311)" stroke-width="0.5" stroke-linecap="round" stroke-linejoin="round"/>
</g>
<g style="mix-blend-mode:overlay">
<path d="M339.45 -58.2571L305.445 -76.7426L304.778 -77.1111L260.267 -81.625L209.983 -69.2962L207.715 -68.7435L150.713 -34.2136L141.946 -39.5105L133.853 -43.1493L125.597 -46.2046L117.938 -47.74L110.036 -48.8301L76.2818 -5.30307L57.2694 19.2164L56.5848 20.0915L55.6449 21.3044L48.9787 23.3925L14.6903 89.9496L4.32257 110.093L3.89904 110.907L3.08099 112.488L-1.76348 116.665L-1.79249 116.741L-10.8722 143.932L-21.884 176.896L-31.0043 204.225L-34.8161 215.633L-35.5993 217.967L-49.4133 283.894L-54.3216 307.293L-55.5574 314.831L-56.8164 319.33L-57.9013 324.366L-57.9535 324.627L-57.9825 324.903L-58.1276 325.517L-58.348 326.868L-58.6439 328.88L-58.6903 329.141L-59.694 334.775L-60.0421 338.03L-60.3032 340.057L-61.1387 356.854" stroke="url(#paint5_linear_6098_123311)" stroke-width="0.5" stroke-linecap="round" stroke-linejoin="round"/>
</g>
<g style="mix-blend-mode:overlay">
<path d="M385.98 523.545L375.6 521.227L367.153 515.255L360.626 511.8L357.719 509.436L354.848 507.071L344.979 498.918L341.73 496.262L339.444 493.453L337.059 490.535L331.02 483.135L329.453 481.201L323.071 473.324L322.567 472.572L316.602 461.256L309.733 448.605L307.256 444.076L303.717 433.513L298.779 418.988L295.652 410.16L294.045 400.841L291.051 384.735L288.951 374.371L287.692 368.199L283.811 351.172L279.332 333.808L274.093 316.044L268.047 298.142L261.045 280.055L253.102 262.107L244.08 244.266L234.113 226.948L223.078 210.074L211.26 194.153L198.525 179.014L185.326 165.165L171.483 152.376L157.605 141.107L143.408 131.035L129.652 122.56L115.879 115.267L102.97 109.509L90.2699 104.811L78.7361 101.495L67.527 99.0536L57.6583 97.7793L48.1086 97.2266L28.4174 135.395L3.48144 183.728L2.29788 186.015L-5.26761 189.025L-11.3479 192.341L-17.1786 196.041L-21.6982 199.91L-26.1539 204.132L-29.5132 208.478L-32.9826 213.16L-33.0232 213.329L-45.4912 269.722L-50.7244 293.382L-54.5535 310.701L-54.9307 312.42" stroke="url(#paint6_linear_6098_123311)" stroke-width="0.5" stroke-linecap="round" stroke-linejoin="round"/>
</g>
<g style="mix-blend-mode:overlay">
<path d="M-68.7621 548.235L-77.72 516.207L-95.4212 419.957L-105.035 317.304L-105.528 210.597L-105.406 209.123L-97.0689 110.508L-96.3901 102.448L-95.8331 99.331L-77.4183 -3.55238L-77.1224 -4.59645L-76.8439 -5.59441L-49.0883 -104.025L-48.9259 -104.424L-48.3341 -105.898L-12.3922 -195.04L-12.1021 -195.562L31.0746 -273.558L67.2543 -321" stroke="url(#paint7_linear_6098_123311)" stroke-width="0.5" stroke-linecap="round" stroke-linejoin="round"/>
</g>
<g style="mix-blend-mode:overlay">
<path d="M-68.0712 561.684L-77.3192 531.392L-77.7544 529.319L-97.2773 435.771L-109.258 333.241L-112.315 225.644L-105.632 115.851L-105.423 114.485L-88.9518 6.9033L-88.7661 6.16632L-62.4435 -97.2698L-62.136 -98.1142L-26.989 -193.091L15.9847 -276.705L47.3025 -321" stroke="url(#paint8_linear_6098_123311)" stroke-width="0.5" stroke-linecap="round" stroke-linejoin="round"/>
</g>
<g style="mix-blend-mode:overlay">
<path d="M-70.8563 515.992L-77.3601 487.957L-76.7045 474.907L-88.1804 376.86L-90.9072 274.452L-86.3064 200.971L-84.3744 170.095L-84.2758 169.465L-83.9335 167.27L-70.6939 82.5036L-68.3094 67.2576L-68.0367 66.1676L-67.8394 65.3999L-43.385 -30.0371L-43.1588 -30.9122L-43.0311 -31.2654L-42.3929 -32.9849L-9.84505 -120.546L-9.48535 -121.252L-9.31709 -121.574L-8.26117 -123.647L30.1291 -198.879L74.7794 -262.995L122.017 -311.711L135.646 -321" stroke="url(#paint9_linear_6098_123311)" stroke-width="0.5" stroke-linecap="round" stroke-linejoin="round"/>
</g>
<g style="mix-blend-mode:overlay">
<path d="M-67.0562 586.173L-75.196 563.65L-77.8184 553.624L-99.7027 469.717L-116.731 367.525L-125.126 258.546L-123.768 145.238L-123.606 143.656L-112.02 30.5169L-111.823 29.5342L-89.6076 -81.7167L-89.3001 -82.7147L-56.9611 -187.517L-15.1595 -282.478L8.40148 -321" stroke="url(#paint10_linear_6098_123311)" stroke-width="0.5" stroke-linecap="round" stroke-linejoin="round"/>
</g>
<g style="mix-blend-mode:overlay">
<path d="M280.196 82.5039L285.047 103.339L289.09 124.296L292.281 145.821L294.602 167.163L296.006 188.611L296.557 209.615L296.238 230.357L295.176 250.424L293.651 270.322L292.798 274.729" stroke="url(#paint11_linear_6098_123311)" stroke-width="0.5" stroke-linecap="round" stroke-linejoin="round"/>
</g>
<g style="mix-blend-mode:overlay">
<path d="M298.814 27.1074L302.464 46.9441L305.498 67.0571L307.784 88.0452L309.356 109.049L310.087 130.497L310.052 151.67L309.147 172.888L307.505 193.554L305.046 213.882L301.947 233.488L299.192 247.352" stroke="url(#paint12_linear_6098_123311)" stroke-width="0.5" stroke-linecap="round" stroke-linejoin="round"/>
</g>
<g style="mix-blend-mode:overlay">
<path d="M-31.492 789.037L-38.9066 779.011L-49.4658 763.105L-59.6247 746.139L-69.2962 728.083L-78.405 709.06L-86.8756 689.101L-94.6499 668.358L-101.647 646.894L-107.832 624.893L-113.158 602.431L-117.59 579.723L-121.129 556.862L-123.769 534.047L-126.264 525.848L-128.196 519.492L-156.706 425.697L-155.249 402.191L-176.565 280.454L-170.694 258.069L-164.126 236.62L-156.926 216.231L-149.215 196.855L-146.059 73.5972L-134.874 58.1055L-123.49 43.8268L-112.02 30.5154L-100.481 18.3094L-88.9526 6.90184L-77.4187 -3.55385L-65.9486 -13.3954L-54.5192 -22.3772L-53.9622 -24.0046L-22.7893 -115.619L-9.84563 -120.547L2.98786 -125.214L15.6937 -129.268L28.3183 -133.137L40.8211 -136.392L53.2485 -139.509L65.5366 -141.98L77.7377 -144.376L77.7725 -144.406L79.252 -146.08L124.181 -196.669L171.192 -232.689L216.168 -252.157L257.441 -257.085L293.203 -249.255L294.404 -248.549L323.001 -231.644L323.274 -231.353L346.057 -206.833L346.081 -206.787L352.608 -186.521L358.491 -166.408L364.124 -146.54L368.986 -127.011L373.552 -107.896L376.615 -91.7133L377.277 -89.2721L379.963 -75.6229L380.317 -77.2043L379.847 -78.5093L380.154 -79.8604L381.97 -90.5157L383.728 -118.797L381.994 -149.396L376.192 -179.412L375.803 -181.423L364.704 -213.082L364.669 -213.19L364.484 -213.512L348.291 -241.993L347.717 -242.991L324.864 -268.523L304.401 -281.727L295.687 -287.347L260.824 -296.943L220.676 -294.655L208.132 -307.061L163.267 -286.917L149.691 -295.3L103.022 -255.366L89.0105 -259.357L74.7788 -262.996L60.4369 -266.712L16.4538 -198.374L16.1289 -197.867L-22.0061 -117.277L-22.6675 -115.88L-22.7893 -115.619L-35.8665 -110.015L-49.0887 -104.027L-62.4444 -97.2712L-75.9625 -89.9476L-99.8889 15.6993L-100.481 18.3094L-114.654 128.916L-114.794 130.021L-118.843 241.671L-113.204 349.928L-98.6937 452.397L-80.3834 530.7L-76.9604 545.347L-76.531 547.174L-67.5383 574.181L-67.0626 586.018V586.156L-66.8421 597.057L-66.8131 597.364L-66.3896 602.845L-65.1596 611.75L-64.9043 612.856L-64.0863 618.613L-63.0651 626.597L-63.0129 626.981L-61.3304 640.108L-59.4739 650.902L-58.1453 663.722L-57.4839 672.489L-57.0081 676.895L-56.5962 680.779L-56.2597 682.392L-55.0181 686.122L-52.5524 696.578L-50.8234 706.865L-48.7812 717.443L-46.9595 725.995L-46.5765 727.991L-44.7026 737.833L-43.49 743.544L-43.0201 745.509L-42.9098 746.753L-42.4167 749.855L-41.8771 752.71L-41.1403 754.783L-39.6086 760.279L-38.0364 766.713L-36.0522 773.437L-34.1956 779.717L-32.4609 785.597L-31.9619 787.302L-31.492 789.037ZM-31.492 789.037L-31.3063 789.712L-30.8828 790.526L-30.3664 791.769L-29.7805 794.103L-29.6528 795.239L-29.6354 795.915L-26.4851 806.601L-25.0114 813.034L-24.9302 813.448L-22.7719 821.325L-15.1832 841.653L-10.5244 855.118L-9.21903 858.296L-7.87302 862.411L4.39189 892.979L6.30648 896.219L8.94047 902.928L11.499 911.971L11.6093 912.371L14.8931 920.661L18.6178 928.446L22.3947 935.8L25.4581 942.141L27.4713 946.762L28.4402 948.85" stroke="url(#paint13_linear_6098_123311)" stroke-width="0.5" stroke-linecap="round" stroke-linejoin="round"/>
</g>
<g style="mix-blend-mode:overlay">
<path d="M343.366 152.147L348.384 135.764L348.176 117.125L341.799 97.6265L327.765 80.1082L305.498 67.0578L274.656 62.6667L268.448 43.26L226.727 53.1936L217.027 37.395L207.338 23.2852L155.337 56.7096L102.97 109.51L53.6783 179.491L12.5612 262.154L12.0275 263.229L-18.9655 352.14L-19.8068 354.551L-20.2419 355.81L-22.3537 365.575L-40.1013 447.593L-40.989 451.707L-42.6541 467.368L-50.9158 545.179L-51.0898 546.807L-50.8752 636.9L-42.5497 720.469L-33.7832 764.15L-32.7447 769.339L-29.1824 790.481L-29.3274 792.968L-27.3375 801.888L-26.502 806.372L-25.2952 811.991L-24.9297 813.45L-15.1828 841.654" stroke="url(#paint14_linear_6098_123311)" stroke-width="0.5" stroke-linecap="round" stroke-linejoin="round"/>
</g>
<g style="mix-blend-mode:overlay">
<path d="M335.957 164.567L337.204 161.604L338.498 158.011L341.77 150.734L343.18 134.244L338.603 116.895L327.179 100.39L307.784 88.0457L280.196 82.5031L274.656 62.6664L235.946 69.8211L226.727 53.1934L179.257 78.9257L129.652 122.56L81.1381 183.007L38.7737 256.857L38.1297 257.977L4.43886 339.427L3.40035 341.93L2.84337 343.281L-20.9554 429.675L-21.7271 432.469L-22.1448 433.974L-36.7536 524.175L-37.0263 525.864L-41.6909 614.592L-37.9488 698.13L-26.9951 774.16L-11.5334 839.98L-10.8952 842.682L4.46787 889.341" stroke="url(#paint15_linear_6098_123311)" stroke-width="0.5" stroke-linecap="round" stroke-linejoin="round"/>
</g>
<g style="mix-blend-mode:overlay">
<path d="M-59.781 652.223L-63.9756 634.767L-67.7816 616.327L-71.895 604.551L-73.943 598.686L-75.701 593.65L-99.3605 525.88L-100.092 506.519L-100.167 487.804L-99.7029 469.717L-98.6933 452.399L-97.2777 435.771L-95.4212 419.957L-93.2861 404.818L-90.8204 390.524L-95.8157 287.933L-90.9074 274.452L-85.9353 261.571L-85.8889 260.987L-79.9479 191.252L-77.134 158.165L-76.9251 156.998L-76.7917 156.262L-62.3801 75.9016L-58.9571 56.7866L-58.8411 56.3721L-58.2899 54.4529L-32.6809 -35.7946L-31.8629 -38.6964L-31.509 -39.5716L-31.3291 -40.0168L-30.3428 -42.458L2.98827 -125.213L3.0753 -125.382L3.85274 -126.794L43.9313 -199.385L44.3258 -199.907L89.0109 -259.356L135.878 -303.42L164.892 -321" stroke="url(#paint16_linear_6098_123311)" stroke-width="0.5" stroke-linecap="round" stroke-linejoin="round"/>
</g>
<g style="mix-blend-mode:overlay">
<path d="M29.5952 948.852L24.5767 937.183L22.3489 926.635L21.2639 923.166L20.0804 919.358L18.5023 914.307L4.86815 870.641L-9.38677 807.263L-19.1569 737.128L-22.667 660.253L-18.8146 578.604L-18.5361 576.731L-6.06236 493.838L-5.63303 492.179L15.584 409.655L16.199 408.058L46.3217 329.494L84.0911 257.717L127.053 197.885L171.483 152.377L214.573 122.361L253.05 106.562L260.615 126.338L289.09 124.296L310.087 130.498L323.675 141.369L330.312 154.68L331.182 167.823L327.04 177.526" stroke="url(#paint17_linear_6098_123311)" stroke-width="0.5" stroke-linecap="round" stroke-linejoin="round"/>
</g>
<g style="mix-blend-mode:overlay">
<path d="M-63.0647 626.598L-67.7815 616.327L-70.8797 598.286L-73.357 580.676L-75.1962 563.649L-76.5306 547.175L-77.3196 531.391L-77.7199 516.207L-77.6793 501.775L-77.3602 487.957L-90.8203 390.524L-88.1805 376.859L-85.3028 364.008L-85.9352 261.57L-80.8239 249.487L-80.6962 248.32L-80.6382 247.752L-73.8618 183.959L-69.905 146.711L-62.6238 136.041L-62.3047 134.628L-46.0771 63.2346L-40.2928 37.7786L-31.01 29.1806L-21.82 20.8591L-21.7794 20.7516L-21.031 18.8632L6.55061 -50.1812L12.5844 -65.289L23.4917 -70.9851L34.3062 -75.9904L34.8922 -76.9116L36.6791 -79.7213L72.0815 -135.47L77.7382 -144.375L89.771 -146.048L90.5775 -146.877L135.396 -193.444L137.096 -195.194L149.721 -192.984L197.086 -221.433L241.162 -233.24L280.411 -231.091L291.162 -217.672L291.243 -217.61L301.663 -204.36L311.392 -190.65L320.803 -177.139L329.337 -163.275L337.495 -149.718L344.7 -135.838L351.5 -122.358L357.296 -108.54L362.663 -95.1668L367.002 -81.4255L370.901 -68.0833L373.767 -54.296L373.79 -54.2039L376.186 -40.8464L377.579 -26.8901L378.53 -13.1641L378.472 1.11456L377.968 15.2858L376.494 29.979L374.579 44.6108L371.725 59.734L368.447 74.7496L364.27 90.1184L359.669 105.334L354.227 120.687L348.384 135.764L341.77 150.734L338.8 158.886L335.615 164.414L334.791 165.258L331.78 170.831" stroke="url(#paint18_linear_6098_123311)" stroke-width="0.5" stroke-linecap="round" stroke-linejoin="round"/>
</g>
<g style="mix-blend-mode:overlay">
<path d="M-66.3774 407.197L-67.2534 392.673L-66.1569 384.781L-66.0583 382.924L-65.3853 377.504L-63.6331 364.407L-62.5888 358.542L-62.4147 357.022L-61.5039 349.515L-61.0745 345.814L-61.0339 345.523L-60.1985 339.903L-60.1869 339.827L-59.8098 335.389L-59.5777 333.025L-59.5487 332.749L-59.4094 331.566L-58.8641 328.787L-58.2375 326.515L-58.1273 325.517L-57.5297 321.495L-56.9901 318.255L-51.5481 274.037L-48.0902 247.384L-47.9394 246.201L-43.8955 229.696L-40.049 214.021L-22.841 143.779L-22.2028 142.044L-14.6083 121.516L-1.53691 86.1878L12.2365 48.9711L12.3351 48.7101L18.6416 43.3978L19.5177 41.8318L33.4767 16.8825L57.496 -26.0457L64.0926 -37.8372L64.1506 -37.9446L72.1048 -41.1382L79.6761 -44.1782L87.4563 -46.1895L92.3181 -51.2714L110.188 -69.9412L142.173 -103.35L197.289 -139.016L248.739 -154.846L293.604 -152.067L295.85 -151.053L318.639 -140.782L330.173 -135.592L330.857 -134.902L349.33 -116.493L357.296 -108.54L359.895 -103.918L368.203 -89.1176L375.624 -75.9137L376.894 -72.4899L378.989 -67.4693L381.031 -61.4201L382.157 -58.6104L382.94 -55.77L383.218 -54.0811L383.271 -53.7894L383.584 -51.5171L383.607 -51.3636L384.036 -48.646L384.866 -42.7196L385.098 -41.4145L385.324 -40.5854" stroke="url(#paint19_linear_6098_123311)" stroke-width="0.5" stroke-linecap="round" stroke-linejoin="round"/>
</g>
<g style="mix-blend-mode:overlay">
<path d="M-68.0776 431.639L-67.4627 421.521L-66.5982 411.894L-66.2153 409.868L-66.2617 408.056L-66.3777 407.196L-65.4378 400.364L-64.7648 397.616L-64.1324 392.825L-65.3856 377.503L-65.2696 367.63L-63.0823 325.316L-60.8602 282.388L-58.1276 274.374L-55.3196 266.804L-52.8364 259.573L-50.6724 252.08L-49.3206 242.669L-47.1565 232.275L-31.5556 157.212L-27.2855 150.241L-21.4489 133.583L-21.0428 132.416L6.20227 54.6967L12.3347 48.7088L13.8838 45.7917L16.9123 40.1109L17.3648 39.2511L21.1824 32.0964L22.2673 30.0544L56.2947 -33.8312L64.1502 -37.9459L66.4013 -40.7556L66.7784 -41.2316L70.6946 -46.1293L71.7738 -47.4804L76.5486 -53.4376L115.293 -101.878L124.419 -103.167L133.499 -103.321L142.172 -103.352L150.869 -102.077L159.166 -100.588L167.561 -97.6094L175.59 -94.293L183.806 -89.3185L191.708 -83.8681L199.842 -76.6059L253.386 -92.8345L260.267 -81.6265L266.777 -69.8811L309.518 -62.8953L313.811 -48.2941L317.53 -32.1116L320.785 -15.5299L323.402 2.44896L325.514 20.7502L326.906 40.1877V40.2184L327.736 59.748L327.765 80.1066L327.179 100.389L325.746 121.054L323.674 141.367L320.756 161.679L317.223 181.409L312.918 200.8L308.079 219.408L306.687 223.999" stroke="url(#paint20_linear_6098_123311)" stroke-width="0.5" stroke-linecap="round" stroke-linejoin="round"/>
</g>
<g style="mix-blend-mode:overlay">
<path d="M-59.6822 652.991L-64.9618 640.309L-67.5842 634.014L-95.8504 566.106L-95.8852 565.999L-98.1247 558.767L-99.9116 553.01L-101.687 547.283L-126.518 467.153L-149.842 356.992L-164.125 236.621L-167.612 108.098L-158.765 -25.431L-144.997 -39.0649L-131.137 -51.4551L-117.236 -62.5864L-103.381 -72.6889L-89.6077 -81.7167L-75.9619 -89.9462L-75.7589 -90.5449L-75.2019 -92.1878L-41.836 -190.527L-41.5401 -191.156L0.603856 -279.776L27.7213 -321" stroke="url(#paint21_linear_6098_123311)" stroke-width="0.5" stroke-linecap="round" stroke-linejoin="round"/>
</g>
<g style="mix-blend-mode:overlay">
<path d="M-30.5751 792.429L-35.2978 787.271L-35.8838 786.626L-36.2261 786.257L-72.0287 747.121L-72.8584 745.939L-82.3384 731.768L-92.2943 715.278L-101.803 697.607L-110.808 678.845L-119.197 658.977L-126.931 638.127L-133.904 616.356L-140.066 593.802L-145.334 570.542L-149.685 546.79L-153.05 522.639L-155.446 498.304L-156.833 473.907L-157.245 449.679L-156.705 425.697L-181.63 303.745L-176.565 280.454L-187.368 147.539L-185.546 6.04181L-169.231 -139.739L-152.841 -150.333L-136.446 -159.422L-120.125 -167.191L-103.973 -173.716L-88.0416 -179.213L-72.3594 -183.727L-56.9616 -187.519L-41.8364 -190.528L-26.9897 -193.092L-12.3924 -195.042L1.97852 -196.716L16.129 -197.867L30.1287 -198.88L43.931 -199.387L57.6464 -199.832L71.1819 -199.74L84.6594 -199.602L97.9512 -198.88L111.179 -198.113L124.181 -196.67L137.096 -195.196L184.2 -227.069L228.914 -242.991L269.004 -244.081L303.525 -233.287L303.809 -233.088L331.304 -213.082L344.305 -196.885L352.608 -186.521L353.037 -185.646L367.217 -156.213L371.301 -135.133L374.701 -114.513L377.805 -94.5999L377.845 -94.3236L379.18 -78.5863L380.033 -73.8882L380.508 -75.5003L380.015 -76.7132L379.795 -78.0029L379.337 -81.4574L379.94 -81.918L381.785 -97.8549L383.728 -118.797L385.701 -139.739L382.33 -171.521L374.48 -204.07L374.231 -204.684L361.589 -235.191L361.258 -235.974L342.385 -265.131L342.089 -265.422L317.71 -288.898L317.281 -289.312L286.282 -306.047L249.493 -312.695L208.132 -307.061L195.311 -319.267L149.691 -295.3L135.877 -303.422L122.017 -311.713L107.924 -319.881L60.437 -266.712L45.8514 -270.12L31.0743 -273.56L15.984 -276.707L0.603507 -279.778L-15.1599 -282.48L-31.312 -284.906L-47.8992 -286.779L-64.9216 -288.115L-82.3965 -288.621L-100.301 -288.222L-118.588 -286.671L-137.182 -283.816L-156.021 -279.44L-185.465 -127.564L-198.142 21.687L-198.333 23.9593L-196.291 169.049L-181.63 303.745L-185.801 327.773L-189.021 352.446L-191.203 377.58L-192.334 403.036L-192.346 428.599L-191.272 454.116L-189.085 479.357L-185.848 504.199L-181.56 528.442L-176.339 551.964L-170.194 574.595L-163.256 596.289L-155.562 616.909L-147.237 636.454L-138.325 654.817L-130.986 668.635L-129.762 670.953L-128.712 672.504L-126.67 675.82L-119.116 688.103L-108.963 703.011L-80.975 736.328L-76.148 742.27L-75.1269 743.59L-73.63 745.248L-72.7133 746.354L-72.6321 746.461L-71.8431 747.444L-69.5978 750.422L-61.4115 761.293L-50.568 774.343L-39.5331 786.273L-29.6353 795.915" stroke="url(#paint22_linear_6098_123311)" stroke-width="0.5" stroke-linecap="round" stroke-linejoin="round"/>
</g>
<g style="mix-blend-mode:overlay">
<path d="M-64.3066 400.703L-63.2101 391.859L-62.4907 384.259L-50.7421 305.097L-50.5275 304.329L-44.1281 281.146L-21.6985 199.91L-21.13 198.544L-20.66 197.423L-10.4605 172.842L11.1394 120.81L18.7165 102.539L20.254 100.021L39.6493 68.0245L69.3775 18.9857L70.2129 18.0184L95.6652 -11.5063L125.597 -46.205L183.806 -89.3175L238.882 -111.119L287.512 -112.455L289.061 -111.918L318.145 -101.723L327.155 -98.5602L327.886 -97.9154L351.418 -77.2957L356.57 -72.7665L358.067 -70.3406L371.353 -48.723L376.186 -40.8467L376.749 -38.9121L383.322 -16.3579L386.374 -5.88691L386.943 1.43669L388.358 11.4471L389.431 15.5311" stroke="url(#paint23_linear_6098_123311)" stroke-width="0.5" stroke-linecap="round" stroke-linejoin="round"/>
</g>
<g style="mix-blend-mode:overlay">
<path d="M-57.4836 672.489L-58.5163 670.37L-89.283 607.713L-92.973 586.786L-95.8506 566.105L-95.8564 566.044L-97.9799 545.762L-99.3607 525.879L-100.974 519.416L-124.471 425.099L-122.434 405.125L-119.853 385.902L-116.731 367.524L-113.204 349.929L-109.258 333.24L-105.035 317.303L-100.509 302.272L-95.8158 287.932L-91.5167 182.884L-84.3748 170.094L-77.1342 158.165L-69.9052 146.711L-69.8239 146.312L-69.412 144.285L-53.9097 68.2855L-49.5932 47.1132L-40.293 37.7783L-40.206 37.5326L-39.5736 35.6749L-12.52 -43.9788L-9.48566 -52.8991L-9.07954 -53.7743L28.3186 -133.136L28.3882 -133.244L29.3339 -134.718L71.182 -199.739L116.981 -251.404L163.267 -286.916L176.832 -278.641L209.101 -290.432L220.676 -294.654L233.213 -282.341L245.368 -269.705L257.442 -257.084L269.005 -244.08L280.411 -231.091L280.672 -230.984L292.345 -225.994L313.202 -217.104L322.648 -201.014L331.321 -184.77L339.693 -168.741L347.189 -152.62L354.331 -136.867L360.527 -121.114L366.346 -105.822L371.174 -90.5918L375.623 -75.9139L379.052 -61.2667L381.64 -50.3812L382.417 -46.4507L384.117 -33.1085L385.568 -23.6201L386.148 -18.3846L386.374 -5.88691L386.6 7.36312L385.823 20.7667L384.651 33.8785L382.51 47.1899L379.969 60.3017L376.488 73.6285L372.624 86.8018L367.867 100.113L362.732 113.256L356.768 126.429L350.438 139.357L345.744 148.154L343.035 153.221L342.258 154.664L340.059 157.689" stroke="url(#paint24_linear_6098_123311)" stroke-width="0.5" stroke-linecap="round" stroke-linejoin="round"/>
</g>
<g style="mix-blend-mode:overlay">
<path d="M-68.0718 473.8L-65.6002 439.009L-62.8966 401.04L-62.5253 399.013L-58.6787 377.795L-49.4191 326.76L-43.7044 295.27L-42.7065 292.107L-32.3504 259.143L-11.348 192.341L-10.2747 190.022L6.13271 154.51L31.9737 98.5926L34.5207 94.7849L60.4024 56.2017L84.7465 19.9216L141.946 -39.5116L199.842 -76.6055L207.715 -68.7445L215.82 -58.9797L266.777 -69.8807L273.077 -56.2622L278.995 -42.0756L317.53 -32.1112L318.47 -31.4357L346.174 -11.814L346.684 -11.077L364.774 15.3462L374.579 44.6099L376.488 73.6279L372.96 96.919L372.531 99.7594" stroke="url(#paint25_linear_6098_123311)" stroke-width="0.5" stroke-linecap="round" stroke-linejoin="round"/>
</g>
<g style="mix-blend-mode:overlay">
<path d="M-68.1064 460.612L-66.4355 428.232L-65.8264 416.333L-65.7219 407.72L-65.0663 401.578L-64.7646 397.617L-64.5558 393.303L-64.5268 393.057L-63.8247 386.885L-63.0995 382.218L-62.3047 377.581L-62.2873 377.443L-62.4671 376.644L-62.6412 375.723L-62.7514 357.898L-61.9392 350.344L-61.2314 346.152L-61.3068 341.869L-61.6607 335.298L-58.4349 278.951L-58.1622 274.851L-58.1274 274.375L-53.8109 249.027L-49.0187 220.915L-40.9716 173.687L-40.7105 172.137L-40.3798 170.97L-31.4103 138.897L-17.1902 88.0766L-13.4539 74.7192L-13.4133 74.581L-6.70063 67.6259L-6.16108 66.413L9.5965 30.3631L31.3589 -19.382L31.4053 -19.4895L39.8991 -24.6022L40.7055 -25.8304L63.8313 -61.3122L86.2493 -95.7193L86.2783 -95.7653L96.1935 -98.1605L105.79 -100.51L105.819 -100.54L108.383 -102.889L108.783 -103.242L137.038 -129.052L157.808 -148.028L208.777 -176.709L255.666 -186.627L296.435 -181.315L296.813 -181.1L324.986 -165.654L329.337 -163.274L331.809 -160.664L349.295 -142.194L354.331 -136.866L355.022 -135.546L366.526 -113.652L371.04 -105.07L375.879 -87.9044L378.594 -78.6309" stroke="url(#paint26_linear_6098_123311)" stroke-width="0.5" stroke-linecap="round" stroke-linejoin="round"/>
</g>
<g style="mix-blend-mode:overlay">
<path d="M-65.1245 398.092L-64.7416 395.298L-64.5095 393.624L-63.8133 387.544L-63.0997 379.944L-62.6588 376.643L-62.183 373.373L-62.096 372.651L-62.0264 371.131L-61.98 369.719L-61.8117 367.477L-61.7073 365.543L-61.1561 358.265L-58.5917 327.497L-57.5648 315.782L-55.598 298.924L-50.2604 253.202L-50.2024 252.741L-49.7324 250.638L-46.8258 237.633L-41.6274 214.373L-27.3899 150.717L-27.2854 150.241L-22.8413 143.778L-18.7743 137.544L-14.9973 128.04L-14.6376 127.135L-11.8818 120.195L18.6413 43.3969L24.5649 38.2689L26.4679 35.0753L41.2681 10.3716L72.1045 -41.1391L73.2765 -42.5363L73.5491 -42.8587L76.6937 -46.5896L77.622 -47.6797L81.8631 -52.7156L124.419 -103.167L127.447 -105.516L154.524 -126.427L178.236 -144.744L229.698 -166.868L275.793 -170.139L314.618 -158.854L315.146 -158.439L337.564 -141.305L344.7 -135.839L347.41 -132.078L359.164 -115.788L366.346 -105.823L367.356 -103.213L373.929 -86.1554L379.714 -72.7979L380.398 -72.5369L380.503 -72.3066L380.578 -71.7692L380.625 -71.5082L380.706 -71.2165L380.81 -70.5256L381.205 -67.8541L381.013 -66.5644L381.472 -62.465L381.901 -61.5899L382.261 -58.8109L382.87 -55.9859" stroke="url(#paint27_linear_6098_123311)" stroke-width="0.5" stroke-linecap="round" stroke-linejoin="round"/>
</g>
<g style="mix-blend-mode:overlay">
<path d="M-69.6323 495.65L-68.5416 488.403L-64.7356 450.066L-60.1523 395.377L-59.9318 394.317L-52.9465 360.064L-38.6857 290.19L-37.7807 287.458L-25.7362 250.993L-5.26762 189.027L-4.04345 186.555L18.2527 141.462L39.9281 97.6124L40.5083 96.7833L70.573 53.6862L92.9504 21.6129L150.713 -34.2122L159.38 -28.1937L168.704 -20.3941L223.687 -48.5063L273.078 -56.2598L313.812 -48.2913L314.432 -47.8768L344.515 -27.8713L345.437 -26.6737L365.273 -0.726397L376.494 29.9805L379.969 60.3035L377.051 85.345L376.842 87.1413L376.697 88.3696L372.363 100.852L368.174 111.615L367.234 112.382L363.672 121.886" stroke="url(#paint28_linear_6098_123311)" stroke-width="0.5" stroke-linecap="round" stroke-linejoin="round"/>
</g>
<g style="mix-blend-mode:overlay">
<path d="M-69.2958 483.736L-69.1682 481.233L-68.8781 471.99L-68.9593 469.61L-68.6867 457.927L-68.3676 444.062L-71.1582 419.174L-69.7948 409.855L-69.9282 308.937L-66.7953 299.663L-66.482 296.838L-63.0299 266.101L-55.331 197.456L-50.3183 188.643L-49.9992 187.292L-48.5662 181.227L-40.7048 147.879L-27.0358 89.9047L-20.1027 82.1512L-19.6908 81.0765L-2.91212 37.0428L14.1335 -7.68174L22.8941 -13.6389L31.4053 -19.4885L32.8151 -21.7916L57.403 -61.8026L76.2471 -92.4941L86.2783 -95.7644L88.3786 -98.0213L119.546 -131.43L136.121 -149.194L186.185 -184.615H186.254L233.475 -201.596L275.862 -202.916L276.141 -202.824L311.392 -190.649L313.481 -189.037L339.015 -169.261L339.693 -168.739L340.204 -168.018L358.897 -141.748L360.104 -140.044L362.796 -133.611L370.425 -115.371L373.552 -107.894L377.312 -89.1778L379.337 -81.455L379.795 -80.933" stroke="url(#paint29_linear_6098_123311)" stroke-width="0.5" stroke-linecap="round" stroke-linejoin="round"/>
</g>
<g style="mix-blend-mode:overlay">
<path d="M-67.0625 586.019L-67.2133 578.496L-67.4106 574.565L-67.9154 564.8L-68.072 561.684L-68.7624 548.234L-69.0989 541.632L-69.3832 534.324L-70.3579 505.075L-76.705 474.906L-75.887 462.454L-85.3032 364.008L-82.3559 351.725L-80.8243 249.487L-75.7245 237.91L-75.6839 237.603L-67.7007 175.514L-62.6241 136.04L-55.4126 125.769L-55.3661 125.569L-54.873 123.619L-37.9435 56.6323L-31.0104 29.1804L-30.6565 28.2285L-3.28376 -46.1896L1.58392 -59.4396L1.65354 -59.5778L2.52961 -61.2974L2.60502 -61.4356L40.8212 -136.391L41.3318 -137.128L84.6593 -199.601L130.714 -246.997L176.832 -278.641L190.095 -269.966L203.323 -261.307L216.168 -252.156L228.914 -242.99L241.162 -233.241L253.229 -223.522L264.676 -213.174L275.862 -202.917L286.317 -192.032L296.435 -181.315L305.73 -169.969L314.618 -158.853L322.618 -147.077L330.172 -135.593L336.786 -123.371L342.93 -111.442L348.123 -98.6984L352.828 -86.17L356.57 -72.7664L359.825 -59.4857L362.134 -45.2684L363.962 -31.0665L364.849 -15.9127L365.273 -0.728123L364.774 15.3469L363.805 31.4527L361.937 48.3107L359.605 65.1535L356.39 82.4875L352.706 99.6987L348.175 117.125L343.18 134.244L337.396 151.286L331.182 167.822L327.126 179.444L324.237 184.373L323.779 185.156L323.535 185.57" stroke="url(#paint30_linear_6098_123311)" stroke-width="0.5" stroke-linecap="round" stroke-linejoin="round"/>
</g>
<g style="mix-blend-mode:overlay">
<path d="M-67.2885 574.933L-67.7526 551.826L-68.8201 498.719L-68.5416 488.401L-68.4082 473.37L-68.3966 459.26L-72.4114 429.137L-76.1768 329.171L-76.171 329.079L-73.653 283.387L-70.5433 227.07L-65.4493 216.63L-65.107 214.634L-56.1085 162.31L-48.1833 116.188L-41.0761 106.914L-40.4785 104.934L-22.9108 46.99L-12.6649 13.2125L-3.64317 5.75068L-2.7323 3.7701L-0.980162 0.00848827L24.5128 -54.8954L34.3061 -75.991L44.9872 -80.9041L46.3274 -82.8386L82.7392 -135.808L89.7709 -146.049L101.676 -147.661L113.372 -148.49L124.872 -149.273L174.303 -187.672L186.185 -184.617H186.254L197.637 -180.64L208.777 -176.71L219.434 -171.75L229.698 -166.868L239.445 -160.834L248.739 -154.846L257.5 -147.599L265.779 -140.322L273.524 -131.616L280.782 -122.819L287.512 -112.455L293.767 -101.877L294.712 -99.8656L299.499 -89.6556L300.793 -89.0568L332.447 -74.3021L336.044 -72.6132L339.45 -58.2578L339.467 -58.2271L342.38 -43.7181L344.515 -27.8733L346.174 -11.8137L347.033 5.4129L347.398 22.8237L346.94 41.1864L345.965 59.5952L344.149 78.6795L341.799 97.6256L338.603 116.894L334.86 135.81L330.312 154.679L325.247 172.996L319.445 190.959L314.931 203.411" stroke="url(#paint31_linear_6098_123311)" stroke-width="0.5" stroke-linecap="round" stroke-linejoin="round"/>
</g>
<g style="mix-blend-mode:overlay">
<path d="M-56.2651 682.393L-57.0541 680.904L-84.7865 628.733L-89.2829 607.714L-92.3462 599.561L-94.6727 593.404L-97.063 587.048L-125.526 511.402L-126.42 489.062L-126.519 467.153L-125.834 445.827L-124.471 425.1L-141.562 314.909L-136.55 295.179L-131.027 276.417L-125.126 258.546L-118.843 241.673L-112.316 225.644L-105.528 210.597L-98.6063 196.273L-91.5165 182.884L-91.3483 181.579L-79.4547 91.4546L-77.7026 78.2046L-68.3095 67.2576L-58.9571 56.7866L-49.593 47.1139L-49.2797 46.1006L-49.1347 45.64L-22.7831 -39.2491L-20.6423 -46.1429L-9.48549 -52.8984L1.58426 -59.4389L12.5844 -65.2886L14.5628 -68.8966L51.7115 -136.713L53.2489 -139.507L53.3011 -139.584L54.4789 -141.15L97.9515 -198.879L144.406 -242.605L190.095 -269.965L233.214 -282.34L271.807 -281.066L301.425 -270.134L305.109 -268.783L314.102 -250.175L323.002 -231.643L331.304 -213.081L339.409 -194.641L346.771 -176.232L353.861 -158.069L360.104 -140.044L366.027 -122.419L371.04 -105.069L375.246 -90.33L375.879 -87.9042L379.459 -71.7984L380.219 -70.9233L385.046 -82.2234L390.766 -94.5369L396.591 -105.944L402.584 -116.262L408.728 -125.428L415.047 -133.35L421.504 -139.998L428.089 -145.372L434.755 -149.487L441.479 -152.465L448.204 -154.338L454.91 -155.321L461.559 -155.521L468.127 -155.183L474.607 -154.446L480.989 -153.586L487.296 -152.772L493.509 -152.235L499.677 -152.143L505.78 -152.742L511.872 -154.139L517.923 -156.549L523.992 -160.035L530.032 -164.794L536.077 -170.843L542.088 -178.336L548.075 -187.256L553.981 -197.727L559.806 -209.688L565.498 -223.245L570.858 -237.477L572.129 -241.285L576.335 -254.934L581.4 -273.021L586.158 -292.642L590.573 -313.646L591.896 -321" stroke="url(#paint32_linear_6098_123311)" stroke-width="0.5" stroke-linecap="round" stroke-linejoin="round"/>
</g>
<g style="mix-blend-mode:overlay">
<path d="M339.473 -58.2422L363.829 -31.2048L363.962 -31.0666L364.461 -29.9458L378.275 0.699636L378.473 1.11416L384.651 33.8784L383.897 63.2495L383.166 68.4543L381.565 73.6591L380.486 77.2672L380.416 77.912L379.36 81.4587L378.09 84.5908L377.225 87.4312L376.401 90.9164" stroke="url(#paint33_linear_6098_123311)" stroke-width="0.5" stroke-linecap="round" stroke-linejoin="round"/>
</g>
<g style="mix-blend-mode:overlay">
<path d="M-46.9589 725.996L-47.2083 724.676L-48.0438 718.549L-51.0665 699.158L-52.8709 688.779L-56.8857 665.657L-58.9453 635.564L-63.1226 574.596L-61.8578 535.398L-59.9838 477.316L-59.7924 475.965L-52.0818 423.303L-45.1545 375.984L-44.2785 372.667L-29.571 316.858L-18.7275 275.695L-17.5323 272.778L9.0165 207.864L19.8368 181.41L22.581 176.681L57.1653 116.956L67.5272 99.0538L121.983 33.7863L177.952 -11.7673L187.734 -1.29627L239.457 -22.96L284.617 -26.1074L320.786 -15.5289L321.383 -15.053L347.033 5.41318L347.799 6.61074L363.806 31.4526L371.725 59.7336L372.624 86.8017L372.102 89.2583L367.629 110.507" stroke="url(#paint34_linear_6098_123311)" stroke-width="0.5" stroke-linecap="round" stroke-linejoin="round"/>
</g>
<g style="mix-blend-mode:overlay">
<path d="M-9.49708 856.884L-11.8468 848.854L-27.4941 795.486L-27.7842 794.042L-29.1824 790.48L-31.6714 782.466L-35.3787 765.853L-37.9721 754.246L-43.3155 730.28L-46.2222 707.602L-53.9327 647.356L-56.1084 556.494L-51.2175 493.484L-48.6705 460.643L-48.4037 459.245L-33.7658 383.645L-29.6524 362.411L-29.2521 361.137L-28.55 358.911L-4.19427 281.652L0.429733 266.974L1.86858 263.904L40.5257 181.471L41.5294 179.322L90.27 104.811L143.907 47.8501L197.382 10.0806L207.338 23.2846L254.599 7.79297L261.776 25.2191L268.448 43.2594L302.463 46.9442L327.736 59.749L344.149 78.6798L352.707 99.6986L354.227 120.687L350.438 139.357L343.111 152.96L342.258 154.664" stroke="url(#paint35_linear_6098_123311)" stroke-width="0.5" stroke-linecap="round" stroke-linejoin="round"/>
</g>
<g style="mix-blend-mode:overlay">
<path d="M-62.6411 375.755L-62.0261 371.133L-55.4817 315.554L-55.3541 312.652L-53.3989 299.525L-45.4447 255.031L-40.6931 228.439L-38.4536 223.126L-33.2842 206.944L-33.0057 206.069L-32.2631 203.735L-5.92313 121.348L-5.07027 119.506L-4.86141 119.061L3.30167 101.481L19.564 66.5058L36.6328 29.765L36.6444 29.7343L42.9683 26.418L43.9836 24.9594L44.4884 24.2378L60.0081 1.99068L94.865 -47.9694L102.61 -48.5682L103.829 -49.689L127.796 -71.7365L159.166 -100.586L214.944 -130.371L265.779 -140.32L308.921 -132.183L310.986 -130.924L332.343 -117.889L342.931 -111.441L343.697 -110.473L359.826 -90.3756L367.002 -81.4245L369.126 -76.6036L375.78 -61.5111L382.418 -46.4494L383.833 -41.1371L385.255 -35.1339L386.792 -28.6855L387.459 -25.8604" stroke="url(#paint36_linear_6098_123311)" stroke-width="0.5" stroke-linecap="round" stroke-linejoin="round"/>
</g>
<g style="mix-blend-mode:overlay">
<path d="M21.8898 932.207L20.1493 927.678L6.84008 892.995L5.95821 889.985L4.56 885.226L-11.2324 831.458L-25.4583 762.552L-33.9579 685.831L-35.4199 602.907L-27.9066 514.962L-27.5875 513.274L-10.9307 425.467L-10.4434 423.917L16.4014 337.784L16.9874 336.448L52.5289 256.733L53.2657 255.535L96.1291 186.629L143.408 131.034L191.365 92.2363L235.946 69.8203L244.846 87.8913L253.049 106.561L285.046 103.337L309.355 109.048L325.745 121.055L334.86 135.809L337.395 151.286L334.79 165.257" stroke="url(#paint37_linear_6098_123311)" stroke-width="0.5" stroke-linecap="round" stroke-linejoin="round"/>
</g>
<g style="mix-blend-mode:overlay">
<path d="M-69.0984 541.631L-69.5858 533.525L-70.8622 516.022L-70.8564 515.991L-70.6649 510.295L-70.4677 506.441L-70.4038 505.044L-70.3458 504.077L-69.9049 494.204L-69.493 482.582L-74.8248 450.739L-73.6992 439.592L-79.2573 340.209L-76.1766 329.17L-72.9972 318.837L-69.9687 277.828L-65.4491 216.63L-60.3088 206.88L-60.1173 205.867L-59.6416 203.41L-50.8983 157.964L-41.076 106.914L-33.963 98.3007L-33.7309 97.5944L-32.7446 94.5852L-16.2908 44.3487L-3.643 5.75019L5.33812 -1.03603L5.84287 -2.04936L7.29331 -4.9665L32.2699 -55.2797L44.9873 -80.9046L55.5697 -85.0654L65.9665 -89.1801L76.2472 -92.4964L77.1639 -93.5712L79.9371 -96.8108L109.317 -131.11L124.872 -149.273L136.121 -149.197L147.104 -149.105L157.808 -148.03L168.164 -146.955L178.236 -144.744L187.902 -142.518L197.289 -139.017L206.241 -135.409L214.944 -130.373L223.206 -125.138L231.253 -118.275L238.882 -111.12L246.332 -102.2L253.387 -92.8342L299.499 -89.6561L304.779 -77.1123L309.519 -62.895L310.603 -62.2655L333.834 -48.7084L342.38 -43.7186L342.954 -43.0123L364.85 -15.9135L365.68 -13.9483L377.968 15.2847L382.51 47.1891L380.52 76.7598L378.977 81.7343L378.333 85.6648L378.734 86.7088L378.438 87.108L376.958 92.5585L372.99 102.63L368.725 112.41L363.672 121.884L361.056 126.413L358.311 131.157" stroke="url(#paint38_linear_6098_123311)" stroke-width="0.5" stroke-linecap="round" stroke-linejoin="round"/>
</g>
<g style="mix-blend-mode:overlay">
<path d="M-62.6411 375.722L-62.0725 369.565L-61.8115 367.477L-56.7929 319.989L-56.3404 316.565L-55.8415 313.848L-54.0777 305.235L-47.8466 272.486L-39.4225 225.765L-37.2758 216.922L-30.8011 195.089L-23.6707 171.046L-10.5123 126.69L-10.8604 125.354L-8.81819 118.399L-5.62723 110.737L23.8051 40.0808L24.5651 38.2691L30.7904 33.878L36.6444 29.7326L38.7446 26.6005L54.6763 2.7873L87.4562 -46.1902L94.865 -47.9712L97.5339 -50.5505L120.961 -73.1815L150.869 -102.077L206.241 -135.409L257.5 -147.6L301.651 -142.671L302.336 -142.303L326.93 -128.792L336.787 -123.372L339.09 -120.869L353.838 -104.779L362.663 -95.1676L363.492 -93.448L372.81 -74.1795L379.053 -61.2672L382.099 -47.1881L383.346 -40.4019L385.208 -30.2226L385.289 -29.7927L385.51 -28.5798L386.989 -20.5346L387.773 -12.996L388.399 -5.11974L389.513 2.17314" stroke="url(#paint39_linear_6098_123311)" stroke-width="0.5" stroke-linecap="round" stroke-linejoin="round"/>
</g>
<g style="mix-blend-mode:overlay">
<path d="M-61.707 365.543L-61.4866 363.163L-61.1559 358.266L-60.0419 338.03L-60.158 336.111L-58.6089 318.132L-52.9058 260.326L-52.8361 259.574L-50.6721 252.081L-47.9395 246.201L-45.4157 239.998L-44.7137 237.281L-42.2711 227.9L-36.9219 207.311L-18.9017 138.036L-18.774 137.545L-14.4053 131.803L-10.4021 126.321L-8.7892 122.698L-8.50491 122.068L-6.17841 116.833L11.1921 77.8659L30.7904 33.8784L31.7883 32.2816L32.032 31.8978L46.0258 9.5585L79.676 -44.1785L82.2462 -47.0035L83.0352 -47.8787L103.991 -70.9088L133.418 -103.243L133.499 -103.32L134.996 -104.41L161.365 -123.402L187.902 -142.517L239.445 -160.834L285.076 -161.602L285.604 -161.402L312.796 -150.87L322.619 -147.077L325.085 -144.974L342.571 -130.004L351.5 -122.358L352.243 -121.145L364.508 -101.355L371.174 -90.5919L374.452 -80.9039L376.894 -72.4902L380.416 -58.4418L382.174 -52.0548L382.418 -51.1643" stroke="url(#paint40_linear_6098_123311)" stroke-width="0.5" stroke-linecap="round" stroke-linejoin="round"/>
</g>
<g style="mix-blend-mode:overlay">
<path d="M-68.3677 444.061L-68.1704 435.463L-68.1878 427.018L-68.1994 426.865L-69.7949 409.853L-68.5591 400.979L-67.2538 392.673L-66.6388 374.264L-65.8091 349.238L-64.8808 321.54L-63.8597 290.956L-63.8539 290.757L-60.8602 282.389L-60.692 281.268L-56.9034 255.981L-51.1365 217.49L-45.561 180.273L-45.5378 180.104L-40.7107 172.136L-36.1795 164.413L-35.5065 162.202L-26.3514 132.14L-14.6608 93.7719L-6.7008 67.625L-0.289857 60.8388L0.882092 58.3515L16.7209 24.6815L39.8989 -24.6031L48.0852 -29.6236L72.8297 -64.8751L96.1934 -98.1614L97.3305 -99.2975L97.3769 -99.3436L100.777 -102.752L126.728 -128.715L147.104 -149.104L197.637 -180.64L244.887 -194.52L286.317 -192.032L288.388 -191.142L317.455 -178.583L320.803 -177.139L321.232 -176.74L344.944 -154.708L347.189 -152.62L349.765 -148.49L362.198 -128.561L366.027 -122.42L367.048 -119.411L373.517 -100.357L376.616 -91.7129L377.341 -89.0875" stroke="url(#paint41_linear_6098_123311)" stroke-width="0.5" stroke-linecap="round" stroke-linejoin="round"/>
</g>
<g style="mix-blend-mode:overlay">
<path d="M-68.1704 435.463L-68.0776 431.64L-67.7759 418.497L-67.7411 417.115L-67.4742 415.626L-66.5981 411.895L-66.2152 409.869L-65.3333 406.798L-64.8692 400.534L-66.1572 384.781L-64.9852 377.35L-64.0918 370.303L-63.6334 364.407L-62.7052 349.146L-61.3998 344.125L-60.6223 340.44L-60.7848 336.08L-57.7098 295.04L-55.3311 266.943L-55.3195 266.805L-55.041 265.331L-51.5658 246.754L-46.0715 217.337L-36.2433 164.751L-36.1795 164.413L-31.5555 157.212L-31.0972 155.785L-22.8297 130.313L-9.416 88.9665L-0.365254 61.0847L-0.289828 60.839L6.20234 54.6976L6.89856 53.2851L21.5596 23.7758L45.9444 -25.3091L48.0156 -29.4853L48.0852 -29.6234L56.2947 -33.8303L57.2984 -35.1814L78.8578 -64.2301L105.761 -100.48L105.79 -100.51L115.293 -101.877L116.645 -103.028L120.706 -106.498L143.907 -126.273L168.164 -146.954L219.434 -171.75L266.086 -178.828L297.897 -171.719L305.73 -169.969L308.085 -168.465L330.329 -154.278L337.494 -149.718L338.063 -149.012L355.033 -127.931L360.527 -121.115L363.637 -114.39L369.816 -101.017L375.722 -88.2429" stroke="url(#paint42_linear_6098_123311)" stroke-width="0.5" stroke-linecap="round" stroke-linejoin="round"/>
</g>
<g style="mix-blend-mode:overlay">
<path d="M-31.7291 786.35L-33.0867 780.93L-35.0303 774.62L-37.2582 767.68L-39.6079 760.28L-41.3368 755.535L-41.7836 752.833L-42.6248 747.813L-42.9091 746.753L-43.2456 745.494L-43.3907 744.757L-43.4893 743.544L-43.8664 738.923L-46.1465 721.389L-48.8733 702.981L-55.7368 656.659L-60.3086 566.074L-60.2158 564.431L-57.1756 511.738L-54.7099 468.964L-54.4488 467.367L-44.5452 407.442L-38.2503 369.366L-37.2234 365.85L-16.8186 296.145L-9.48519 271.089L-9.03265 270.029L22.3317 197.5L29.9029 179.997L31.4694 177.479L75.8413 106.147L78.7364 101.494L132.501 39.9886L187.734 -1.29677L197.382 10.0801L247.214 -7.94481L289.81 -9.57227L294.568 8.54479H294.591L325.514 20.7508L326.112 21.3188L333.631 28.4889L346.94 41.1862L359.605 65.1529L364.27 90.1176L362.732 113.255L361.665 116.403L355.973 133.245" stroke="url(#paint43_linear_6098_123311)" stroke-width="0.5" stroke-linecap="round" stroke-linejoin="round"/>
</g>
<g style="mix-blend-mode:overlay">
<path d="M-67.9149 564.799L-68.0367 561.805L-68.5473 548.985L-69.2899 534.691L-70.6823 510.57L-70.5721 509.02L-70.3574 505.074V503.769L-69.9571 493.927L-75.8865 462.453L-74.8248 450.738L-82.3555 351.724L-79.2573 340.209L-77.5864 291.799L-75.7241 237.909L-70.5431 227.069L-70.3864 226.01L-61.9913 169.801L-55.4121 125.767L-48.1831 116.187L-47.9046 115.189L-30.6792 52.8846L-21.8199 20.8573L-12.6647 13.2113L-12.2644 12.2748L-11.0402 9.41902L15.0677 -51.3806L23.4918 -70.9869L24.5942 -72.86L62.7871 -137.344L65.5372 -141.981L66.1753 -142.764L111.18 -198.113L157.832 -237.648L171.193 -232.689L184.201 -227.07L197.086 -221.435L209.531 -215.079L221.773 -208.723L233.475 -201.599L244.887 -194.521L255.667 -186.629L266.087 -178.829L275.793 -170.139L285.076 -161.603L293.604 -152.068L301.651 -142.672L308.921 -132.186L315.697 -121.776L321.673 -110.169L327.156 -98.5617L331.844 -85.6341L336.044 -72.6144L336.7 -71.9388L343.407 -64.8916L360.8 -46.6517L362.135 -45.2699L363.254 -43.0744L376.482 -17.1731L378.53 -13.1659L385.823 20.7652L386.032 53.3145L385.4 56.8304L385.144 57.4599L383.973 63.1868L383.427 65.5051L381.64 73.6117L381.257 77.2966L380.52 80.6283L380.12 82.1329L379.731 83.4226L379.099 85.4953L378.646 86.2476L377.944 86.8925L377.225 87.4298L376.697 88.3664L374.806 94.0779L374.075 96.2734L372.363 100.849L367.623 110.66L367.507 111.074L362.14 122.221L356.751 131.955L355.927 133.383L349.823 143.439L349.481 144.069" stroke="url(#paint44_linear_6098_123311)" stroke-width="0.5" stroke-linecap="round" stroke-linejoin="round"/>
</g>
<g style="mix-blend-mode:overlay">
<path d="M-69.6787 533.158L-71.2278 527.093L-77.6794 501.775L-93.2861 404.818L-100.509 302.273L-98.6063 196.273L-98.5135 195.397L-88.1225 99.8377L-87.0492 90.0115L-86.8055 88.8139L-65.9482 -13.3939L-65.7858 -13.9006L-35.8661 -110.013L-35.3207 -111.272L1.97878 -196.714L45.8517 -270.119L87.7114 -321" stroke="url(#paint45_linear_6098_123311)" stroke-width="0.5" stroke-linecap="round" stroke-linejoin="round"/>
</g>
<g style="mix-blend-mode:overlay">
<path d="M-70.3052 505.121L-69.7424 495.065L-69.3943 483.15L-69.2551 476.855L-69.0172 471.067L-73.6992 439.593L-72.4112 429.137L-71.158 419.173L-72.9972 318.838L-69.9281 308.935L-66.2846 270.29L-60.3088 206.881L-55.3309 197.454L-54.9363 195.642L-45.3402 151.086L-33.963 98.3013L-27.0357 89.9029L-26.3395 87.9531L-25.0399 84.2989L-8.85298 38.8221L5.33813 -1.03545L14.1336 -7.68349L15.2417 -9.75621L41.4019 -58.6108L55.5697 -85.0648L56.3008 -86.0628L58.5054 -89.0567L91.2157 -133.459L101.676 -147.661L101.694 -147.676L103.556 -149.442L146.553 -189.99L149.721 -192.984L162.189 -190.742L174.303 -187.672L221.773 -208.721L264.677 -213.174L301.663 -204.361L302.005 -204.131L331.321 -184.77L333.375 -182.344L353.861 -158.07L354.465 -156.827L368.139 -128.745L368.986 -127.01L371.829 -116.524L375.281 -103.765L377.846 -94.3229L377.863 -94.2308L379.911 -82.1016L379.859 -79.6911L379.923 -78.4782" stroke="url(#paint46_linear_6098_123311)" stroke-width="0.5" stroke-linecap="round" stroke-linejoin="round"/>
</g>
<g style="mix-blend-mode:overlay">
<path d="M-61.1733 359.679L-58.7366 329.986L-58.696 329.525L-58.6844 329.464L-58.3537 327.268L-57.9534 324.627L-57.9244 324.505L-57.7619 323.936L-56.8162 319.33L-54.6116 302.119L-49.9933 270.906L-45.468 240.322L-45.4158 239.999L-43.2633 234.104L-39.0106 219.027L-26.5833 174.977L-14.4054 131.804L-11.6321 125.14L-10.8605 125.355L-5.92319 121.348L-1.76333 116.665L-0.0750197 113.257L10.3391 92.2378L42.9682 26.4177L48.9789 23.393L51.0849 20.568L52.0248 19.309L69.9058 -4.67303L102.61 -48.5685L110.037 -48.8295L167.561 -97.6074L223.206 -125.136L273.524 -131.615L315.697 -121.774L316.446 -121.252L339.954 -104.516L348.123 -98.6975L350.055 -96.1027L363.626 -77.8628L370.901 -68.0827L371.644 -66.1021L374.858 -57.6117L379.279 -45.9124L384.117 -33.1076L385.754 -19.5352L386.212 -15.1594L387.645 -1.51023L388.359 11.4481L389.037 28.3522" stroke="url(#paint47_linear_6098_123311)" stroke-width="0.5" stroke-linecap="round" stroke-linejoin="round"/>
</g>
<g style="mix-blend-mode:overlay">
<path d="M-68.959 469.609L-68.5297 459.138L-68.1351 449.45L-67.4621 421.522L-67.7406 417.116L-67.4737 415.627L-67.4621 415.089L-68.5587 400.979L-68.1583 377.734L-66.7949 299.662L-63.8534 290.757L-63.6504 289.222L-63.3545 286.98L-59.653 259.052L-50.3179 188.641L-45.5373 180.105L-45.4909 179.936L-44.1565 174.793L-35.448 141.261L-20.1024 82.15L-13.413 74.5808L-12.5369 72.4467L4.28241 31.5758L22.8945 -13.64L23.5268 -14.7455L25.3602 -17.9544L48.4396 -58.4414L65.9667 -89.1789L67.6318 -91.267L101.578 -133.719L113.373 -148.489L114.382 -149.364L155.151 -184.647L162.189 -190.742L209.531 -215.077L253.23 -223.521L291.162 -217.672L291.243 -217.61L292.85 -216.781L322.648 -201.013L323.048 -200.614L346.772 -176.233L348.721 -172.901L364.125 -146.539L364.833 -144.421L373.918 -116.892L374.701 -114.512" stroke="url(#paint48_linear_6098_123311)" stroke-width="0.5" stroke-linecap="round" stroke-linejoin="round"/>
</g>
<g style="mix-blend-mode:overlay">
<path d="M-58.9803 658.486L-59.6127 653.097L-59.4735 650.901L-60.8369 631.448L-61.9566 619.288L-65.3101 582.931L-63.761 484.808L-63.5289 482.919L-63.2678 480.77L-58.9513 445.226L-51.3742 382.784L-51.1074 381.694L-38.3899 329.784L-26.2816 280.361L-25.8697 279.271L-25.2489 277.613L-24.2394 274.942L10.2752 183.466L11.6155 181.04L43.7572 122.927L57.6582 97.7783L111.58 28.4575L168.704 -20.3971L177.952 -11.7685L231.705 -36.1037L278.995 -42.0762L284.617 -26.1086L289.81 -9.57295L323.402 2.44879L324.255 3.18575L347.398 22.8228L361.937 48.3095L368.447 74.7481L367.867 100.112L366.77 104.334L362.14 122.221L355.973 133.245" stroke="url(#paint49_linear_6098_123311)" stroke-width="0.5" stroke-linecap="round" stroke-linejoin="round"/>
</g>
<g style="mix-blend-mode:overlay">
<path d="M-43.0488 746.539L-43.4549 745.295L-43.5014 744.527L-50.1908 730.725L-58.6381 711.18L-66.3603 691.097L-73.3108 670.555L-79.4548 649.735L-84.7867 628.732L-90.8321 614.038L-93.7214 607.022L-123.769 534.047L-125.527 511.401L-129.257 497.69L-155.249 402.192L-152.946 379.238L-149.842 356.991L-146.03 335.512L-141.563 314.908L-149.215 196.855L-141.058 178.615L-132.564 161.373L-123.769 145.237L-114.793 130.022L-105.632 115.85L-96.3902 102.447L-87.0493 90.0105L-77.7027 78.2037L-77.5635 77.6049L-77.0877 75.5322L-54.5189 -22.3766L-43.159 -30.9131L-31.863 -38.6973L-20.6424 -46.1437L-20.538 -46.3894L-19.807 -48.0629L15.694 -129.267L16.1175 -129.973L16.2394 -130.188L17.5273 -132.353L57.6465 -199.832L103.022 -255.365L116.981 -251.404L130.714 -246.997L144.406 -242.606L157.831 -237.647L203.323 -261.307L245.368 -269.705L282.755 -265.268L314.102 -250.176L315.134 -249.239L339.345 -227.299L339.571 -226.961L347.555 -214.97L358.05 -199.202L359.03 -196.853L370.936 -168.25L371.208 -167.067L378.211 -136.637L379.151 -114.62L379.505 -102.506L379.725 -92.2655L379.754 -82.0861L379.795 -80.9346L379.818 -80.4894L379.766 -78.6009L379.801 -76.4514L380.178 -74.4708L380.451 -72.7359L380.433 -72.352L380.578 -71.7686L380.271 -70.6325L381.013 -66.5638L381.86 -63.3856L381.901 -61.5893L382.359 -59.0406L382.94 -55.7703L383.067 -54.711L383.206 -54.0661L383.27 -53.7897L383.293 -53.3138L382.998 -51.3332L383.38 -47.6637L384.866 -42.7199L385.324 -40.5858L385.956 -36.2101L387.001 -29.0093L387.459 -25.8618L387.54 -24.8639L387.825 -21.4708L388.463 -13.748L388.643 -11.5217L389.008 -5.77955L389.513 2.17351V2.25029L389.461 10.7254L389.432 15.531L389.327 19.0316L389.072 27.0921L389.037 28.3511L388.306 35.1988L387.697 40.9256L387.43 42.9062L387.076 45.4548L386.508 50.0916L386.305 51.8112L386.032 53.3158L385.788 54.237L385.185 57.0006L384.193 63.0345L383.508 66.6119L381.309 73.8434L381.112 74.9488L380.485 77.2672L379.238 81.5508L378.994 83.9459L378.403 85.1895L378.17 86.7249L376.679 91.7454L372.757 101.203L370.414 105.042L367.234 112.38L363.602 119.612L362.088 122.913L358.311 131.158L355.474 134.735L352.202 140.17L350.015 143.179L349.481 144.07L343.11 152.96L340.059 157.688L338.742 158.533L335.615 164.413L334.512 166.732L331.78 170.831L327.08 178.492L324.266 184.004L323.535 185.57L319.706 192.065L316.979 199.511L314.931 203.411L314.189 205.453L313.202 208.171L308.364 219.916L307.232 222.664L306.687 224L302.603 237.419L299.191 247.353L298.17 252.496L293.65 270.321L292.798 274.728L291.04 288.715L291.028 288.791L288.858 302.487L288.394 305.419L288.359 308.444L287.605 326.714L286.781 338.951L287.495 347.334L288.539 364.653L287.692 368.199L281.6 373.266L274.772 357.467L267.165 341.484L258.765 325.501L249.4 309.534L239.131 293.889L227.789 278.566L215.559 263.95L202.296 250.009L188.331 237.142L173.513 225.29L158.348 214.819L142.642 205.591L127.053 197.884L111.278 191.497L96.1296 186.63L81.1378 183.006L67.2078 180.719L53.6781 179.49L41.5292 179.321L29.9025 179.997L19.8365 181.409L10.2751 183.467L2.29773 186.016L-30.2385 276.893L-31.4163 280.163L-32.2285 282.435L-33.2729 285.352L-47.3131 349.376L-55.6792 387.499L-56.0157 389.034L-62.7806 452.92L-63.3376 458.17L-66.8012 490.858L-66.9463 492.255L-66.2965 590.087L-63.5754 615.482L-62.183 628.517L-61.51 634.812L-60.837 641.107L-59.6128 653.098L-58.9804 658.487L-58.145 663.722L-56.973 673.364L-55.0178 686.123L-54.4899 690.652L-53.6254 694.721L-50.8232 706.865L-49.4656 712.807L-48.0441 718.549L-45.8975 728.928L-45.3637 732.03L-43.8669 738.923L-43.4375 739.706L-40.9022 749.794L-40.8615 749.978L-37.6126 762.905L-35.0308 774.62L-33.9285 780.025L-32.4026 785.659L-31.8456 786.826L-30.8825 790.526L-30.575 792.43L-30.2559 793.612L-29.9832 794.626L-29.8208 795.224L-29.6525 795.24L-28.4052 799.6L-26.5022 806.371L-12.2299 849.56L-8.98089 859.601L-7.73931 863.133L-5.35479 870.794L-2.37849 878.701L2.12368 888.788L6.475 899.198L7.38008 901.424L9.89225 907.688L11.157 911.097L11.6096 912.371L22.1282 935.708L22.7373 937.059L24.414 940.775L26.1024 944.414L27.1525 946.855L27.9821 948.851" stroke="url(#paint50_linear_6098_123311)" stroke-width="0.5" stroke-linecap="round" stroke-linejoin="round"/>
</g>
<g style="mix-blend-mode:overlay">
<path d="M-56.5146 319.575L-55.8997 315.844L-55.5574 314.831L-55.0816 314.262L-51.6296 299.984L-29.5133 208.477L-27.2564 202.428L-26.595 200.647L-25.2316 196.993L-24.2917 194.475L7.71081 108.665L13.2573 105.41L18.7167 102.539L25.3076 100.328L31.9738 98.5928L39.928 97.6102L48.1085 97.2263L102.21 24.666L111.58 28.4583L121.982 33.7859L132.501 39.9887L143.907 47.8497L155.337 56.7086L167.375 67.3025L179.257 78.925L191.365 92.2365L203.062 106.546L214.573 122.36L225.399 139.003L260.615 126.336L267.31 146.434L273.147 167.192L278.009 187.95L281.925 208.938L284.878 229.588L286.926 250.116L288.127 270.075L288.568 289.605L288.394 305.419" stroke="url(#paint51_linear_6098_123311)" stroke-width="0.5" stroke-linecap="round" stroke-linejoin="round"/>
</g>
<g style="mix-blend-mode:overlay">
<path d="M-57.9014 324.366L-57.4604 322.263L-57.2806 320.159L-56.9905 318.255L-52.4245 291.371L-43.4202 235.07L-43.3506 234.625L-43.2635 234.103L-40.6934 228.438L-39.4228 225.766L-38.4539 223.125L-35.5994 217.967L-32.9828 213.161L-29.6874 203.964L-28.9622 201.938L-27.5176 197.915L-26.5487 195.198L3.08091 112.489L7.71071 108.666L9.34101 105.702L23.2768 80.3078L55.6448 21.3046L62.0964 19.6157L69.3776 18.9862L76.5718 18.848L84.7465 19.9228L92.9502 21.6117L102.21 24.667L159.38 -28.1949L215.82 -58.9785L223.687 -48.5075L231.705 -36.1019L239.456 -22.9594L247.213 -7.9437L254.599 7.79357L294.567 8.5459L298.814 27.1082L326.906 40.1893L326.923 40.2047L345.965 59.5961L356.391 82.488L359.669 105.334L356.768 126.43L354.308 132.371L349.626 143.702" stroke="url(#paint52_linear_6098_123311)" stroke-width="0.5" stroke-linecap="round" stroke-linejoin="round"/>
</g>
</g>
</g>
</g>
<defs>
<linearGradient id="paint0_linear_6098_123311" x1="0" y1="0" x2="265.419" y2="-105.025" gradientUnits="userSpaceOnUse">
<stop stop-color="#BCFFCC"/>
<stop offset="1" stop-color="#A4E8FF"/>
</linearGradient>
<linearGradient id="paint1_linear_6098_123311" x1="-87.5049" y1="144.459" x2="347.003" y2="11.486" gradientUnits="userSpaceOnUse">
<stop stop-color="#427DFF"/>
<stop offset="1" stop-color="#44D5BB"/>
</linearGradient>
<linearGradient id="paint2_linear_6098_123311" x1="-86.303" y1="127.287" x2="337.574" y2="3.42837" gradientUnits="userSpaceOnUse">
<stop stop-color="#427DFF"/>
<stop offset="1" stop-color="#44D5BB"/>
</linearGradient>
<linearGradient id="paint3_linear_6098_123311" x1="-66.0486" y1="487.03" x2="293.156" y2="441.95" gradientUnits="userSpaceOnUse">
<stop stop-color="#427DFF"/>
<stop offset="1" stop-color="#44D5BB"/>
</linearGradient>
<linearGradient id="paint4_linear_6098_123311" x1="-46.0406" y1="515.674" x2="275.592" y2="477.195" gradientUnits="userSpaceOnUse">
<stop stop-color="#427DFF"/>
<stop offset="1" stop-color="#44D5BB"/>
</linearGradient>
<linearGradient id="paint5_linear_6098_123311" x1="-83.2121" y1="137.612" x2="303.209" y2="19.2746" gradientUnits="userSpaceOnUse">
<stop stop-color="#427DFF"/>
<stop offset="1" stop-color="#44D5BB"/>
</linearGradient>
<linearGradient id="paint6_linear_6098_123311" x1="-79.226" y1="310.384" x2="336.066" y2="166.411" gradientUnits="userSpaceOnUse">
<stop stop-color="#427DFF"/>
<stop offset="1" stop-color="#44D5BB"/>
</linearGradient>
<linearGradient id="paint7_linear_6098_123311" x1="-115.049" y1="113.613" x2="66.4483" y2="101.52" gradientUnits="userSpaceOnUse">
<stop stop-color="#427DFF"/>
<stop offset="1" stop-color="#44D5BB"/>
</linearGradient>
<linearGradient id="paint8_linear_6098_123311" x1="-121.111" y1="120.338" x2="46.6857" y2="110.167" gradientUnits="userSpaceOnUse">
<stop stop-color="#427DFF"/>
<stop offset="1" stop-color="#44D5BB"/>
</linearGradient>
<linearGradient id="paint9_linear_6098_123311" x1="-103.391" y1="97.4922" x2="133.694" y2="75.9811" gradientUnits="userSpaceOnUse">
<stop stop-color="#427DFF"/>
<stop offset="1" stop-color="#44D5BB"/>
</linearGradient>
<linearGradient id="paint10_linear_6098_123311" x1="-132.484" y1="132.582" x2="8.05914" y2="125.648" gradientUnits="userSpaceOnUse">
<stop stop-color="#427DFF"/>
<stop offset="1" stop-color="#44D5BB"/>
</linearGradient>
<linearGradient id="paint11_linear_6098_123311" x1="279.295" y1="178.615" x2="296.543" y2="178.123" gradientUnits="userSpaceOnUse">
<stop stop-color="#427DFF"/>
<stop offset="1" stop-color="#44D5BB"/>
</linearGradient>
<linearGradient id="paint12_linear_6098_123311" x1="298.193" y1="137.229" x2="310.084" y2="137.025" gradientUnits="userSpaceOnUse">
<stop stop-color="#427DFF"/>
<stop offset="1" stop-color="#44D5BB"/>
</linearGradient>
<linearGradient id="paint13_linear_6098_123311" x1="-207.439" y1="320.889" x2="370.796" y2="234.417" gradientUnits="userSpaceOnUse">
<stop stop-color="#427DFF"/>
<stop offset="1" stop-color="#44D5BB"/>
</linearGradient>
<linearGradient id="paint14_linear_6098_123311" x1="-73.1019" y1="432.466" x2="337.393" y2="365.298" gradientUnits="userSpaceOnUse">
<stop stop-color="#427DFF"/>
<stop offset="1" stop-color="#44D5BB"/>
</linearGradient>
<linearGradient id="paint15_linear_6098_123311" x1="-62.8983" y1="471.263" x2="333.737" y2="410.066" gradientUnits="userSpaceOnUse">
<stop stop-color="#427DFF"/>
<stop offset="1" stop-color="#44D5BB"/>
</linearGradient>
<linearGradient id="paint16_linear_6098_123311" x1="-114.772" y1="165.607" x2="162.58" y2="140.286" gradientUnits="userSpaceOnUse">
<stop stop-color="#427DFF"/>
<stop offset="1" stop-color="#44D5BB"/>
</linearGradient>
<linearGradient id="paint17_linear_6098_123311" x1="-42.165" y1="527.703" x2="323.922" y2="476.15" gradientUnits="userSpaceOnUse">
<stop stop-color="#427DFF"/>
<stop offset="1" stop-color="#44D5BB"/>
</linearGradient>
<linearGradient id="paint18_linear_6098_123311" x1="-116.683" y1="196.675" x2="362.487" y2="108.999" gradientUnits="userSpaceOnUse">
<stop stop-color="#427DFF"/>
<stop offset="1" stop-color="#44D5BB"/>
</linearGradient>
<linearGradient id="paint19_linear_6098_123311" x1="-92.1916" y1="126.173" x2="352.896" y2="6.03494" gradientUnits="userSpaceOnUse">
<stop stop-color="#427DFF"/>
<stop offset="1" stop-color="#44D5BB"/>
</linearGradient>
<linearGradient id="paint20_linear_6098_123311" x1="-89.8896" y1="164.141" x2="303.561" y2="66.557" gradientUnits="userSpaceOnUse">
<stop stop-color="#427DFF"/>
<stop offset="1" stop-color="#44D5BB"/>
</linearGradient>
<linearGradient id="paint21_linear_6098_123311" x1="-178.376" y1="165.991" x2="26.7937" y2="152.198" gradientUnits="userSpaceOnUse">
<stop stop-color="#427DFF"/>
<stop offset="1" stop-color="#44D5BB"/>
</linearGradient>
<linearGradient id="paint22_linear_6098_123311" x1="-230.515" y1="238.012" x2="367.297" y2="133.122" gradientUnits="userSpaceOnUse">
<stop stop-color="#427DFF"/>
<stop offset="1" stop-color="#44D5BB"/>
</linearGradient>
<linearGradient id="paint23_linear_6098_123311" x1="-89.3088" y1="144.121" x2="350.771" y2="13.6853" gradientUnits="userSpaceOnUse">
<stop stop-color="#427DFF"/>
<stop offset="1" stop-color="#44D5BB"/>
</linearGradient>
<linearGradient id="paint24_linear_6098_123311" x1="-152.632" y1="188.913" x2="370.195" y2="96.3022" gradientUnits="userSpaceOnUse">
<stop stop-color="#427DFF"/>
<stop offset="1" stop-color="#44D5BB"/>
</linearGradient>
<linearGradient id="paint25_linear_6098_123311" x1="-92.5682" y1="198.595" x2="344.452" y2="80.2735" gradientUnits="userSpaceOnUse">
<stop stop-color="#427DFF"/>
<stop offset="1" stop-color="#44D5BB"/>
</linearGradient>
<linearGradient id="paint26_linear_6098_123311" x1="-92.7208" y1="136.99" x2="354.65" y2="33.4918" gradientUnits="userSpaceOnUse">
<stop stop-color="#427DFF"/>
<stop offset="1" stop-color="#44D5BB"/>
</linearGradient>
<linearGradient id="paint27_linear_6098_123311" x1="-89.8102" y1="113.974" x2="352.011" y2="-2.78957" gradientUnits="userSpaceOnUse">
<stop stop-color="#427DFF"/>
<stop offset="1" stop-color="#44D5BB"/>
</linearGradient>
<linearGradient id="paint28_linear_6098_123311" x1="-94.4065" y1="219.693" x2="347.051" y2="99.1444" gradientUnits="userSpaceOnUse">
<stop stop-color="#427DFF"/>
<stop offset="1" stop-color="#44D5BB"/>
</linearGradient>
<linearGradient id="paint29_linear_6098_123311" x1="-96.0069" y1="140.407" x2="357.801" y2="40.5033" gradientUnits="userSpaceOnUse">
<stop stop-color="#427DFF"/>
<stop offset="1" stop-color="#44D5BB"/>
</linearGradient>
<linearGradient id="paint30_linear_6098_123311" x1="-110.131" y1="153.685" x2="351.196" y2="73.1017" gradientUnits="userSpaceOnUse">
<stop stop-color="#427DFF"/>
<stop offset="1" stop-color="#44D5BB"/>
</linearGradient>
<linearGradient id="paint31_linear_6098_123311" x1="-99.5168" y1="193.627" x2="332.424" y2="113.206" gradientUnits="userSpaceOnUse">
<stop stop-color="#427DFF"/>
<stop offset="1" stop-color="#44D5BB"/>
</linearGradient>
<linearGradient id="paint32_linear_6098_123311" x1="-181.978" y1="180.692" x2="548.064" y2="1.81063" gradientUnits="userSpaceOnUse">
<stop stop-color="#427DFF"/>
<stop offset="1" stop-color="#44D5BB"/>
</linearGradient>
<linearGradient id="paint33_linear_6098_123311" x1="336.984" y1="16.3364" x2="384.165" y2="11.5461" gradientUnits="userSpaceOnUse">
<stop stop-color="#427DFF"/>
<stop offset="1" stop-color="#44D5BB"/>
</linearGradient>
<linearGradient id="paint34_linear_6098_123311" x1="-87.1334" y1="349.941" x2="355.913" y2="263.897" gradientUnits="userSpaceOnUse">
<stop stop-color="#427DFF"/>
<stop offset="1" stop-color="#44D5BB"/>
</linearGradient>
<linearGradient id="paint35_linear_6098_123311" x1="-78.7189" y1="432.334" x2="343.155" y2="363.994" gradientUnits="userSpaceOnUse">
<stop stop-color="#427DFF"/>
<stop offset="1" stop-color="#44D5BB"/>
</linearGradient>
<linearGradient id="paint36_linear_6098_123311" x1="-87.4428" y1="117.715" x2="350.064" y2="-10.1922" gradientUnits="userSpaceOnUse">
<stop stop-color="#427DFF"/>
<stop offset="1" stop-color="#44D5BB"/>
</linearGradient>
<linearGradient id="paint37_linear_6098_123311" x1="-55.963" y1="501.01" x2="329.304" y2="445.18" gradientUnits="userSpaceOnUse">
<stop stop-color="#427DFF"/>
<stop offset="1" stop-color="#44D5BB"/>
</linearGradient>
<linearGradient id="paint38_linear_6098_123311" x1="-104.702" y1="196.176" x2="359.224" y2="92.2393" gradientUnits="userSpaceOnUse">
<stop stop-color="#427DFF"/>
<stop offset="1" stop-color="#44D5BB"/>
</linearGradient>
<linearGradient id="paint39_linear_6098_123311" x1="-87.556" y1="114.059" x2="352.593" y2="-13.4175" gradientUnits="userSpaceOnUse">
<stop stop-color="#427DFF"/>
<stop offset="1" stop-color="#44D5BB"/>
</linearGradient>
<linearGradient id="paint40_linear_6098_123311" x1="-86.1795" y1="101.968" x2="347.803" y2="-20.5948" gradientUnits="userSpaceOnUse">
<stop stop-color="#427DFF"/>
<stop offset="1" stop-color="#44D5BB"/>
</linearGradient>
<linearGradient id="paint41_linear_6098_123311" x1="-94.4333" y1="124.767" x2="352.707" y2="19.818" gradientUnits="userSpaceOnUse">
<stop stop-color="#427DFF"/>
<stop offset="1" stop-color="#44D5BB"/>
</linearGradient>
<linearGradient id="paint42_linear_6098_123311" x1="-92.6301" y1="128.314" x2="349.765" y2="21.1559" gradientUnits="userSpaceOnUse">
<stop stop-color="#427DFF"/>
<stop offset="1" stop-color="#44D5BB"/>
</linearGradient>
<linearGradient id="paint43_linear_6098_123311" x1="-83.704" y1="388.385" x2="350.389" y2="310.763" gradientUnits="userSpaceOnUse">
<stop stop-color="#427DFF"/>
<stop offset="1" stop-color="#44D5BB"/>
</linearGradient>
<linearGradient id="paint44_linear_6098_123311" x1="-108.165" y1="163.571" x2="367.81" y2="70.4423" gradientUnits="userSpaceOnUse">
<stop stop-color="#427DFF"/>
<stop offset="1" stop-color="#44D5BB"/>
</linearGradient>
<linearGradient id="paint45_linear_6098_123311" x1="-110.881" y1="106.075" x2="86.6334" y2="91.4852" gradientUnits="userSpaceOnUse">
<stop stop-color="#427DFF"/>
<stop offset="1" stop-color="#44D5BB"/>
</linearGradient>
<linearGradient id="paint46_linear_6098_123311" x1="-98.695" y1="145.97" x2="359.394" y2="48.9968" gradientUnits="userSpaceOnUse">
<stop stop-color="#427DFF"/>
<stop offset="1" stop-color="#44D5BB"/>
</linearGradient>
<linearGradient id="paint47_linear_6098_123311" x1="-85.9811" y1="114.03" x2="348.08" y2="-19.3032" gradientUnits="userSpaceOnUse">
<stop stop-color="#427DFF"/>
<stop offset="1" stop-color="#44D5BB"/>
</linearGradient>
<linearGradient id="paint48_linear_6098_123311" x1="-93.4058" y1="123.041" x2="354.099" y2="27.024" gradientUnits="userSpaceOnUse">
<stop stop-color="#427DFF"/>
<stop offset="1" stop-color="#44D5BB"/>
</linearGradient>
<linearGradient id="paint49_linear_6098_123311" x1="-89.2112" y1="308.201" x2="349.547" y2="217.139" gradientUnits="userSpaceOnUse">
<stop stop-color="#427DFF"/>
<stop offset="1" stop-color="#44D5BB"/>
</linearGradient>
<linearGradient id="paint50_linear_6098_123311" x1="-185.267" y1="339.567" x2="376.888" y2="255.325" gradientUnits="userSpaceOnUse">
<stop stop-color="#427DFF"/>
<stop offset="1" stop-color="#44D5BB"/>
</linearGradient>
<linearGradient id="paint51_linear_6098_123311" x1="-75.5296" y1="172.119" x2="240.02" y2="48.3488" gradientUnits="userSpaceOnUse">
<stop stop-color="#427DFF"/>
<stop offset="1" stop-color="#44D5BB"/>
</linearGradient>
<linearGradient id="paint52_linear_6098_123311" x1="-80.9106" y1="132.692" x2="307.839" y2="-9.2537" gradientUnits="userSpaceOnUse">
<stop stop-color="#427DFF"/>
<stop offset="1" stop-color="#44D5BB"/>
</linearGradient>
<clipPath id="clip0_6098_123311">
<rect width="360" height="134" fill="white"/>
</clipPath>
</defs>
</svg>
