<svg width="900" height="64" viewBox="0 0 900 64" fill="none" xmlns="http://www.w3.org/2000/svg">
<g clip-path="url(#clip0_6098_123565)">
<rect width="900" height="64" fill="url(#paint0_linear_6098_123565)"/>
<g opacity="0.35">
<g style="mix-blend-mode:overlay">
<g style="mix-blend-mode:overlay">
<path d="M896.746 0.890625L883.823 44.5244L883.58 44.9209L865.154 75.9063L857.029 89.5742L856.301 90.3673L834.444 114.288L823.171 126.629L785.356 156.02L746.051 178.476L707.111 194.734L690.287 199.694L689.349 199.97" stroke="url(#paint1_linear_6098_123565)" stroke-width="0.5" stroke-linecap="round" stroke-linejoin="round"/>
</g>
<g style="mix-blend-mode:overlay">
<path d="M906.733 0.890625L894.109 41.7649L893.745 42.3556L875.626 72.2081L865.527 88.8378L865.122 89.2667L864.467 89.9789L829.67 127.317L789.904 157.736L748.731 180.791L708.067 197.412L690.086 202.543L688.176 203.093L687.949 203.158" stroke="url(#paint2_linear_6098_123565)" stroke-width="0.5" stroke-linecap="round" stroke-linejoin="round"/>
</g>
<g style="mix-blend-mode:overlay">
<path d="M916.184 0.890625L904.305 38.4875L903.9 39.143L903.188 40.2921L885.96 68.1701L873.967 87.5673L873.408 88.1581L872.624 88.9916L852.425 110.412L836.273 127.543L794.63 158.941L751.692 182.668L709.385 199.63L687.285 205.804L686.573 206.006" stroke="url(#paint3_linear_6098_123565)" stroke-width="0.5" stroke-linecap="round" stroke-linejoin="round"/>
</g>
<g style="mix-blend-mode:overlay">
<path d="M972.984 0.890625L955.44 35.7118L948.036 44.4839L942.598 50.9011L938.794 55.9102L936.083 60.0211L921.436 78.6172L916.403 85.0425L908.974 92.6493L901.44 99.4792L895.128 104.683L893.607 105.856L886.275 110.865L878.749 115.429L871.312 119.208L864.013 122.267L856.835 124.582L849.835 126.224L842.981 127.171L836.273 127.543L829.669 127.317L823.171 126.629L816.689 125.488L810.207 124.023L803.661 122.291L796.993 120.43L790.163 118.512L783.131 116.683L775.864 115.025L768.354 113.673L760.61 112.702L752.639 112.249L744.506 112.362L736.219 113.131L727.86 114.571L719.452 116.748L711.077 119.637L702.709 123.238L694.439 127.503L686.193 132.374L683.271 134.317" stroke="url(#paint4_linear_6098_123565)" stroke-width="0.5" stroke-linecap="round" stroke-linejoin="round"/>
</g>
<g style="mix-blend-mode:overlay">
<path d="M925.134 0.890625L914.299 34.5708L913.757 35.4529L896.52 63.1124L882.431 85.7304L881.808 86.3859L880.716 87.535L861.537 107.677L842.981 127.171L842.221 127.738L821.359 143.348L799.607 159.637L754.986 184.02L711.133 201.41L686.5 208.159L685.489 209.34L684.623 210.481L683.765 211.444L682.859 213.014L680.957 214.835L679.824 215.782" stroke="url(#paint5_linear_6098_123565)" stroke-width="0.5" stroke-linecap="round" stroke-linejoin="round"/>
</g>
<g style="mix-blend-mode:overlay">
<path d="M549.473 0.890625L583.655 6.53906L594.11 17.5931L604.687 28.5501L614.818 39.4424L624.885 50.278L634.248 61.065" stroke="url(#paint6_linear_6098_123565)" stroke-width="0.5" stroke-linecap="round" stroke-linejoin="round"/>
</g>
<g style="mix-blend-mode:overlay">
<path d="M933.534 0.890625L924.164 30.0068L923.573 30.9374L906.886 57.6015L890.856 83.2218L890.022 84.0876L888.841 85.3258L871.078 103.946L849.836 126.224L849.002 126.847L847.562 127.916L829.37 141.47L804.842 159.735L758.684 184.861L713.383 202.672L685.732 210.918L683.943 212.14" stroke="url(#paint7_linear_6098_123565)" stroke-width="0.5" stroke-linecap="round" stroke-linejoin="round"/>
</g>
<g style="mix-blend-mode:overlay">
<path d="M785.89 0.890625L791.029 29.8125L787.533 60.9436L776.722 88.7326L760.61 112.702L740.97 132.739L734.593 131.112L727.836 130.068L720.788 129.655L713.432 129.947L705.873 130.966L698.105 132.731L690.231 135.223L684.51 137.513" stroke="url(#paint8_linear_6098_123565)" stroke-width="0.5" stroke-linecap="round" stroke-linejoin="round"/>
</g>
<g style="mix-blend-mode:overlay">
<path d="M730.425 0.890625L743.866 26.5918L748.956 51.7993L746.998 75.2427L739.48 96.2908L728.321 113.859L727.859 114.571L714.078 129.259L713.431 129.947L697.367 142.393L690.748 142.457L687.22 144.44" stroke="url(#paint9_linear_6098_123565)" stroke-width="0.5" stroke-linecap="round" stroke-linejoin="round"/>
</g>
<g style="mix-blend-mode:overlay">
<path d="M699.513 0.890625L716.571 20.8382L727.545 43.6666L731.17 65.5805L728.791 85.8518L721.661 103.97L711.667 118.763L711.077 119.637L698.938 131.897L698.105 132.731L686.096 141.567" stroke="url(#paint10_linear_6098_123565)" stroke-width="0.5" stroke-linecap="round" stroke-linejoin="round"/>
</g>
<g style="mix-blend-mode:overlay">
<path d="M941.384 0.890625L933.761 24.6739L932.992 25.912L917.422 50.9173L899.287 80.0334L898.405 80.964L896.835 82.6068L880.521 99.7382L856.835 124.582L855.743 125.399L854.181 126.564L837.98 138.654L810.385 159.249L809.333 159.824L792.291 169.089L762.802 185.12L716.175 203.441L685.65 211.679" stroke="url(#paint11_linear_6098_123565)" stroke-width="0.5" stroke-linecap="round" stroke-linejoin="round"/>
</g>
<g style="mix-blend-mode:overlay">
<path d="M798.716 0.890625L802.6 25.3051L798.222 58.6131L786.189 87.9234L786.076 88.2147L768.354 113.673L746.982 134.826L723.603 151.812L699.593 164.849L694.155 167.034" stroke="url(#paint12_linear_6098_123565)" stroke-width="0.5" stroke-linecap="round" stroke-linejoin="round"/>
</g>
<g style="mix-blend-mode:overlay">
<path d="M621.786 0.890625L642.001 9.16096L646.233 21.4451L650.87 33.6321L655.45 45.7058L660.208 57.7148L664.603 69.5943L668.948 81.401L672.671 93.0216L676.158 104.513L677.146 107.822L680.261 118.27L681.078 120.997" stroke="url(#paint13_linear_6098_123565)" stroke-width="0.5" stroke-linecap="round" stroke-linejoin="round"/>
</g>
<g style="mix-blend-mode:overlay">
<path d="M55.656 459.037L43.1614 442.156L18.4718 391.425L5.06284 337.32L4.375 281.079L4.54494 280.302L16.1736 228.325L17.1204 224.076L17.8972 222.434L43.5822 168.207L43.9949 167.657L44.3834 167.131L83.097 115.251L83.3236 115.041L84.149 114.264L134.281 67.2799L134.685 67.0048L194.908 25.8959L245.372 0.890625" stroke="url(#paint14_linear_6098_123565)" stroke-width="0.5" stroke-linecap="round" stroke-linejoin="round"/>
</g>
<g style="mix-blend-mode:overlay">
<path d="M56.6192 466.125L43.72 450.159L43.1131 449.067L15.8825 399.76L-0.828127 345.72L-5.09277 289.009L4.22957 231.141L4.52089 230.421L27.4949 173.718L27.7539 173.33L64.4687 118.812L64.8976 118.367L113.921 68.3076L173.861 24.2369L217.543 0.890625" stroke="url(#paint15_linear_6098_123565)" stroke-width="0.5" stroke-linecap="round" stroke-linejoin="round"/>
</g>
<g style="mix-blend-mode:overlay">
<path d="M811.664 0.890625L814.464 21.0728L809.009 56.6304L795.35 88.1095L775.863 115.025L752.622 137.303L727.39 155.073L701.568 168.668L694.859 171.266" stroke="url(#paint16_linear_6098_123565)" stroke-width="0.5" stroke-linecap="round" stroke-linejoin="round"/>
</g>
<g style="mix-blend-mode:overlay">
<path d="M743.793 0.890625L753.132 18.548L758.724 45.633L756.676 70.8324L748.665 93.4585L736.219 113.131L720.787 129.655L703.559 143.064L697.368 142.393L688.507 147.491" stroke="url(#paint17_linear_6098_123565)" stroke-width="0.5" stroke-linecap="round" stroke-linejoin="round"/>
</g>
<g style="mix-blend-mode:overlay">
<path d="M948.707 0.890625L943.156 18.5966L942.355 19.8995L927.667 43.6908L907.671 76.0843L906.498 77.3144L904.879 79.038L890.329 94.4215L864.013 122.267L862.799 123.182L860.768 124.703L846.591 135.336L816.244 158.084L814.844 158.852L812.951 159.888L800.173 166.872L767.618 185.581L727.876 202.502L725.465 203.198L719.792 204.809L689.745 213.362L684.914 214.738L680.698 215.628" stroke="url(#paint18_linear_6098_123565)" stroke-width="0.5" stroke-linecap="round" stroke-linejoin="round"/>
</g>
<g style="mix-blend-mode:overlay">
<path d="M52.7346 442.043L43.6631 427.266L44.5775 420.388L28.571 368.71L24.7676 314.735L31.1848 276.005L33.8795 259.731L34.0171 259.399L34.4945 258.242L52.9612 213.565L56.2871 205.529L56.6675 204.954L56.9426 204.55L91.0517 154.248L91.3673 153.787L91.5453 153.601L92.4355 152.694L137.833 106.544L138.335 106.172L138.57 106.002L140.043 104.909L193.589 65.2568L255.868 31.4634L321.755 5.78647L340.764 0.890625" stroke="url(#paint19_linear_6098_123565)" stroke-width="0.5" stroke-linecap="round" stroke-linejoin="round"/>
</g>
<g style="mix-blend-mode:overlay">
<path d="M58.035 479.033L46.6815 467.161L43.0237 461.877L12.4996 417.653L-11.2514 363.79L-22.9609 306.351L-21.0673 246.63L-20.8408 245.796L-4.68041 186.164L-4.40527 185.646L26.5802 127.009L27.0091 126.483L72.1156 71.2452L130.421 21.1942L163.284 0.890625" stroke="url(#paint20_linear_6098_123565)" stroke-width="0.5" stroke-linecap="round" stroke-linejoin="round"/>
</g>
<g style="mix-blend-mode:overlay">
<path d="M824.644 0.890625L826.514 17.0429L819.846 54.9311L804.511 88.2876L783.131 116.683L757.915 140.038L730.717 158.577L703.057 172.642L694.787 175.733" stroke="url(#paint21_linear_6098_123565)" stroke-width="0.5" stroke-linecap="round" stroke-linejoin="round"/>
</g>
<g style="mix-blend-mode:overlay">
<path d="M682.235 0.890625L693.565 9.71933L710.995 31.2368L720.447 52.6814L723.166 73.1711L720.285 92.0181L713.091 108.802L703.397 122.283L702.709 123.238L691.185 134.309L690.231 135.223L685.035 138.856" stroke="url(#paint22_linear_6098_123565)" stroke-width="0.5" stroke-linecap="round" stroke-linejoin="round"/>
</g>
<g style="mix-blend-mode:overlay">
<path d="M540.118 0.890625L550.873 8.77253L563.99 18.629L573.402 25.6369L577.132 28.4126L577.262 28.453L614.818 39.4424L615.951 39.9927L643.918 53.5392L644.04 53.6039L644.242 53.7496L664.602 69.5943L665.549 70.8082L677.558 86.2564L677.639 86.3535L677.833 86.8957L683.651 102.854L682.883 114.312L681.62 125.512L681.337 127.657" stroke="url(#paint23_linear_6098_123565)" stroke-width="0.5" stroke-linecap="round" stroke-linejoin="round"/>
</g>
<g style="mix-blend-mode:overlay">
<path d="M714.337 0.890625L722.996 10.6014L735.321 34.9592L739.78 58.4593L737.684 80.2519L730.473 99.7948L719.978 115.939L719.452 116.748L706.577 130.23L705.873 130.966L691.655 141.77L690.748 142.457L686.589 142.927" stroke="url(#paint24_linear_6098_123565)" stroke-width="0.5" stroke-linecap="round" stroke-linejoin="round"/>
</g>
<g style="mix-blend-mode:overlay">
<path d="M837.567 0.890625L838.725 13.11L830.665 53.3935L814.1 87.5431L813.549 88.676L790.163 118.512L762.883 142.943L733.686 162.187L704.117 176.696L695.199 179.892L694.601 180.111" stroke="url(#paint25_linear_6098_123565)" stroke-width="0.5" stroke-linecap="round" stroke-linejoin="round"/>
</g>
<g style="mix-blend-mode:overlay">
<path d="M729.964 0.890625L722.996 10.6014L716.571 20.8382L710.995 31.2368L706.116 41.7892L701.964 52.5115L698.299 63.339L695.151 74.3121L692.213 85.3258L689.543 96.4284L688.79 112.014L687.997 114.264L684.25 124.978L684.08 126.459L682.203 130.044L681.475 129.866" stroke="url(#paint26_linear_6098_123565)" stroke-width="0.5" stroke-linecap="round" stroke-linejoin="round"/>
</g>
<g style="mix-blend-mode:overlay">
<path d="M107.641 585.956L97.2992 580.672L82.5712 572.288L68.4015 563.346L54.9117 553.83L42.2067 543.803L30.392 533.283L19.5483 522.351L9.78895 511.038L1.16254 499.441L-6.2662 487.602L-12.4487 475.634L-17.385 463.584L-21.067 451.559L-24.5467 447.238L-27.2415 443.888L-67.0071 394.452L-64.9759 382.062L-94.707 317.899L-86.5176 306.1L-77.3571 294.795L-67.3146 284.048L-56.5599 273.836L-52.1577 208.871L-36.5557 200.706L-20.6786 193.18L-4.6801 186.164L11.4155 179.73L27.4949 173.718L43.5824 168.207L59.5809 163.02L75.5228 158.286L76.2996 157.428L119.78 109.141L137.834 106.544L155.734 104.084L173.456 101.947L191.065 99.9079L208.504 98.1924L225.837 96.5496L242.977 95.2468L259.995 93.9844L260.044 93.9682L262.107 93.0861L324.774 66.422L390.346 47.4374L453.077 37.1764L510.646 34.5787L560.527 38.7058L562.202 39.0781L602.089 47.9877L602.47 48.1415L634.248 61.0649L634.28 61.0891L643.384 71.771L651.59 82.3719L659.448 92.8434L666.229 103.137L672.598 113.212L676.87 121.741L677.793 123.028L681.54 130.222L682.033 129.388L681.378 128.7L681.807 127.988L684.339 122.372L686.791 107.466L684.372 91.3382L676.28 75.5177L675.737 74.4576L660.257 57.7713L660.208 57.7147L659.949 57.5447L637.364 42.5335L636.562 42.0075L604.687 28.55L576.145 21.5906L563.991 18.6288L515.364 13.5711L459.365 14.7769L441.87 8.23828L379.292 18.8554L360.356 14.437L295.261 35.4851L275.718 33.3811L255.868 31.4632L235.864 29.5049L174.516 65.5237L174.063 65.7908L120.872 108.267L119.95 109.004L119.78 109.141L101.54 112.095L83.0972 115.251L64.4687 118.812L45.6136 122.672L12.2409 178.355L11.4155 179.73L-8.35401 238.027L-8.54823 238.61L-14.1967 297.457L-6.33094 354.516L13.9079 408.524L39.4473 449.795L44.2217 457.515L44.8205 458.478L57.3636 472.713L58.0272 478.952V479.025L58.3347 484.77L58.3752 484.932L58.9659 487.821L60.6815 492.514L61.0375 493.097L62.1785 496.132L63.6028 500.34L63.6756 500.542L66.0224 507.461L68.6119 513.15L70.4651 519.907L71.3876 524.528L72.0512 526.85L72.6257 528.897L73.0951 529.747L74.8268 531.714L78.2661 537.224L80.6776 542.646L83.5261 548.222L86.067 552.729L86.6011 553.781L89.2149 558.968L90.9062 561.979L91.5617 563.015L91.7155 563.67L92.4033 565.305L93.1559 566.81L94.1836 567.902L96.32 570.799L98.513 574.19L101.281 577.734L103.87 581.044L106.29 584.144L106.986 585.042L107.641 585.956ZM107.641 585.956L107.9 586.312L108.491 586.741L109.211 587.397L110.028 588.627L110.206 589.226L110.231 589.582L114.625 595.214L116.68 598.605L116.794 598.823L119.804 602.974L130.389 613.689L136.887 620.786L138.708 622.461L140.585 624.629L157.692 640.741L160.363 642.449L164.036 645.985L167.605 650.751L167.759 650.962L172.339 655.332L177.534 659.434L182.802 663.311L187.075 666.653L189.883 669.089L191.235 670.189" stroke="url(#paint27_linear_6098_123565)" stroke-width="0.5" stroke-linecap="round" stroke-linejoin="round"/>
</g>
<g style="mix-blend-mode:overlay">
<path d="M955.513 0.890625L952.228 11.6696L951.176 13.4175L937.953 35.2182L916.023 71.3827L914.768 72.7341L899.967 88.5627L871.312 119.208L869.686 120.446L867.542 122.065L855.759 131.007L822.427 156.279L820.784 157.185L818.316 158.545L808.16 164.145L772.4 183.866L770.588 184.586L767.885 185.136L766.072 185.322L752.833 190.534L719.93 204.129L682.746 215.062L680.698 215.628" stroke="url(#paint28_linear_6098_123565)" stroke-width="0.5" stroke-linecap="round" stroke-linejoin="round"/>
</g>
<g style="mix-blend-mode:overlay">
<path d="M757.89 0.890625L763.126 10.8199L769.017 39.9279L766.703 66.9967L757.963 91.2898L744.861 111.804L744.505 112.362L727.835 130.068L709.328 144.4L703.558 143.064L689.898 150.995" stroke="url(#paint29_linear_6098_123565)" stroke-width="0.5" stroke-linecap="round" stroke-linejoin="round"/>
</g>
<g style="mix-blend-mode:overlay">
<path d="M68.1831 513.846L62.3324 504.645L57.0238 494.926L51.2864 488.719L48.4298 485.628L45.9778 482.974L12.9774 447.254L11.9577 437.05L11.8525 427.185L12.4999 417.653L13.908 408.524L15.8825 399.761L18.472 391.425L21.45 383.446L24.8892 375.913L17.9218 321.84L24.7679 314.735L31.703 307.945L31.7677 307.638L40.0542 270.882L43.979 253.443L44.2703 252.828L44.4565 252.44L64.5577 210.085L69.3322 200.01L69.494 199.791L70.2628 198.78L105.982 151.213L107.123 149.684L107.617 149.223L107.868 148.988L109.243 147.701L155.734 104.084L155.855 103.995L156.94 103.25L212.841 64.9898L213.391 64.7147L275.718 33.3812L341.088 10.1563L381.558 0.890625" stroke="url(#paint30_linear_6098_123565)" stroke-width="0.5" stroke-linecap="round" stroke-linejoin="round"/>
</g>
<g style="mix-blend-mode:overlay">
<path d="M491.33 0.890625L499.56 5.26856L515.364 13.5713L530.683 21.9387L545.953 30.2657L560.527 38.706L574.924 47.122L588.422 55.6513L590.655 56.3715L624.975 67.4903L625.573 67.8221L651.59 82.3721L654.058 84.646L669.458 98.8561L670.478 100.685L677.793 113.835L678.845 115.72L681.208 126.718" stroke="url(#paint31_linear_6098_123565)" stroke-width="0.5" stroke-linecap="round" stroke-linejoin="round"/>
</g>
<g style="mix-blend-mode:overlay">
<path d="M696.283 0.890625L693.564 9.71933L690.837 21.3561L688.717 32.9766L687.261 44.6538L686.16 56.3148L685.48 68.0244L684.841 79.6773L684.372 91.3384L683.651 102.854L684.08 118.504" stroke="url(#paint32_linear_6098_123565)" stroke-width="0.5" stroke-linecap="round" stroke-linejoin="round"/>
</g>
<g style="mix-blend-mode:overlay">
<path d="M639.338 0.890625L642 9.16096L668.211 25.9282L668.673 26.2276L687.261 44.6538L698.298 63.339L702.935 81.4738L702.094 98.3463L697.004 113.552L689.324 125.634L688.628 126.742L682.721 132.909" stroke="url(#paint33_linear_6098_123565)" stroke-width="0.5" stroke-linecap="round" stroke-linejoin="round"/>
</g>
<g style="mix-blend-mode:overlay">
<path d="M63.6033 500.34L57.0242 494.926L52.7029 485.418L49.2475 476.136L46.6822 467.162L44.821 458.479L43.7205 450.16L43.1621 442.156L43.2187 434.55L43.6638 427.267L24.8896 375.913L28.5716 368.711L32.5854 361.937L31.7034 307.945L38.8327 301.577L39.0107 300.962L39.0916 300.662L48.5435 267.039L54.0624 247.407L64.2183 241.783L64.6633 241.038L87.2975 203.409L95.3656 189.992L108.313 185.46L121.131 181.074L121.188 181.018L122.232 180.022L160.703 143.631L169.119 135.668L184.332 132.666L199.416 130.028L200.234 129.542L202.726 128.061L252.105 98.6783L259.995 93.9848L276.779 93.1027L277.904 92.6657L340.417 68.1217L342.788 67.1992L360.397 68.3645L426.462 53.3695L487.94 47.1465L542.684 48.2794L557.679 55.3521L557.792 55.3845L572.326 62.3681L585.897 69.5945L599.023 76.7158L610.927 84.0231L622.304 91.1686L632.355 98.4841L641.839 105.589L649.923 112.872L657.409 119.921L663.462 127.163L668.9 134.195L672.897 141.462L672.93 141.511L676.272 148.551L678.214 155.907L679.541 163.142L679.46 170.667L678.756 178.137L676.701 185.881L674.03 193.593L670.049 201.564L665.477 209.478L659.65 217.579L653.233 225.598L645.643 233.69L637.494 241.637L628.268 249.527L624.125 253.824L619.682 256.737L618.533 257.182L614.333 260.12" stroke="url(#paint34_linear_6098_123565)" stroke-width="0.5" stroke-linecap="round" stroke-linejoin="round"/>
</g>
<g style="mix-blend-mode:overlay">
<path d="M850.369 0.890625L850.968 9.19333L841.468 51.9288L824.198 85.7142L822.451 89.1292L796.992 120.43L767.601 145.872L736.348 165.812L704.869 180.702L694.244 184.359" stroke="url(#paint35_linear_6098_123565)" stroke-width="0.5" stroke-linecap="round" stroke-linejoin="round"/>
</g>
<g style="mix-blend-mode:overlay">
<path d="M610.4 0.890625L613.977 6.68472L621.43 18.5642L629.126 30.3385L636.563 42.0076L644.04 53.6039L650.975 65.0869L657.765 76.4971L658.283 77.0797L672.671 93.0216L674.2 96.307L680.407 109.667L681.208 121.45L681.621 125.512" stroke="url(#paint36_linear_6098_123565)" stroke-width="0.5" stroke-linecap="round" stroke-linejoin="round"/>
</g>
<g style="mix-blend-mode:overlay">
<path d="M-126 263.154L-122.221 259.181L-109.775 247.844L-96.3902 237.121L-82.2206 227.054L-67.436 217.627L-52.1577 208.871L-51.8825 207.981L-31.3443 142.959L6.54393 78.5201L7.03755 77.978L7.70112 77.2416L61.0133 18.2244L83.5665 0.890625" stroke="url(#paint37_linear_6098_123565)" stroke-width="0.5" stroke-linecap="round" stroke-linejoin="round"/>
</g>
<g style="mix-blend-mode:overlay">
<path d="M66.0228 507.461L62.3327 504.645L61.742 504.062L60.5605 502.905L52.6381 495.064L49.2393 491.697L14.9037 457.734L10.2182 451.381L-23.9475 405.061L-52.1168 346.918L-67.3142 284.049L-67.4355 217.627L-50.6764 149.49L-50.2637 148.689L-15.9847 81.9594L-15.5315 81.4091L36.6396 17.9573L57.2103 0.890625" stroke="url(#paint38_linear_6098_123565)" stroke-width="0.5" stroke-linecap="round" stroke-linejoin="round"/>
</g>
<g style="mix-blend-mode:overlay">
<path d="M777.685 0.890625L773.784 3.37496L763.127 10.8199L753.133 18.548L743.867 26.5918L735.321 34.9592L727.545 43.6666L720.448 52.6814L714.063 62.0199L708.22 71.6093L702.936 81.4738L697.975 91.5083L693.347 101.737L688.791 112.014L684.34 122.372" stroke="url(#paint39_linear_6098_123565)" stroke-width="0.5" stroke-linecap="round" stroke-linejoin="round"/>
</g>
<g style="mix-blend-mode:overlay">
<path d="M863.026 0.890625L863.253 5.18764L852.183 50.4075L852.15 50.4803L834.428 83.6264L831.248 89.558L803.661 122.291L772.133 148.761L738.817 169.324L705.42 184.602L694.828 188.09L693.177 188.632" stroke="url(#paint40_linear_6098_123565)" stroke-width="0.5" stroke-linecap="round" stroke-linejoin="round"/>
</g>
<g style="mix-blend-mode:overlay">
<path d="M963.953 0.890625L960.983 3.95761L952.227 11.6696L943.156 18.5966L933.761 24.6739L924.163 30.0068L914.299 34.5708L904.305 38.4875L894.108 41.7649L883.823 44.5244L873.368 46.8064L862.84 48.7404L852.182 50.4075L841.468 51.9288L830.665 53.3935L819.845 54.9311L809.01 56.6304L798.223 58.6131L787.533 60.9436L777.005 63.7193L766.703 66.9967L756.677 70.8324L746.998 75.2427L737.684 80.2519L728.791 85.8518L720.286 92.0181L712.193 98.7347L704.433 105.921L697.004 113.552L689.761 121.523L682.26 130.958L681.345 130.181L681.596 129.664L684.081 126.459L689.778 116.651L693.346 101.737L692.213 85.3258L685.481 68.0244L672.064 50.6745L671.902 50.4641L671.708 50.3103L650.87 33.6321L650.344 33.3651L621.713 18.718L621.43 18.5642L621.292 18.5238L583.655 6.53906L578.266 0.890625" stroke="url(#paint41_linear_6098_123565)" stroke-width="0.5" stroke-linecap="round" stroke-linejoin="round"/>
</g>
<g style="mix-blend-mode:overlay">
<path d="M961.881 0.890625L960.983 3.95761L959.866 5.83503L947.817 26.1548L924.26 65.8638L922.569 67.7088L909.864 81.5467L878.749 115.429L876.879 116.878L864.854 126.119L861.893 128.401L828.892 153.771L822.426 156.279L816.244 158.084L810.385 159.249L804.842 159.735L799.606 159.637L794.629 158.941L789.903 157.736L785.355 156.02L780.929 153.924L776.543 151.456L772.133 148.761L767.601 145.872L762.883 142.943L757.914 140.038L752.622 137.303L746.982 134.826L740.969 132.739L719.363 148.858L697.02 161.337L693.395 162.834" stroke="url(#paint42_linear_6098_123565)" stroke-width="0.5" stroke-linecap="round" stroke-linejoin="round"/>
</g>
<g style="mix-blend-mode:overlay">
<path d="M772.497 0.890625L773.784 3.37496L779.812 34.6679L777.004 63.7193L767.52 89.2424L767.342 89.7199L752.639 112.249L734.593 131.112L714.589 146.374L709.329 144.4L691.355 154.79" stroke="url(#paint43_linear_6098_123565)" stroke-width="0.5" stroke-linecap="round" stroke-linejoin="round"/>
</g>
<g style="mix-blend-mode:overlay">
<path d="M692.108 156.975L693.864 158.189L697.02 161.337L699.594 164.849L701.568 168.668L703.057 172.642L704.117 176.696L704.87 180.702L705.42 184.602L705.906 188.276L706.424 191.683L707.112 194.734L708.066 197.412L709.386 199.63L711.133 201.41L713.383 202.672L716.175 203.441L719.525 203.66L723.45 203.352L760.246 188.705L768.37 185.978L775.88 183.259L777.879 182.32L783.77 180.135L796.621 173.362L803.653 169.793L808.079 167.066L823.001 158.124L823.762 157.671L823.956 157.566L833.076 152.144L835.245 150.898L837.098 149.894L842.625 146.674L867.93 125.812L870.617 123.683L882.65 114.774L885.612 112.532L890.855 108.089L893.858 105.565L901.44 99.4792L926.348 70.0799L938.608 55.9669L939.636 55.0848L945.495 47.8988L945.964 47.3243L947.801 44.9128L950.633 39.58L971.155 0.890625" stroke="url(#paint44_linear_6098_123565)" stroke-width="0.5" stroke-linecap="round" stroke-linejoin="round"/>
</g>
<g style="mix-blend-mode:overlay">
<path d="M665.646 0.890625L667.152 1.69986L690.838 21.3561L706.116 41.7892L714.063 62.0199L715.673 81.1825L712.193 98.7347L704.732 114.24L695.256 126.443L694.439 127.503L684.186 136.671" stroke="url(#paint45_linear_6098_123565)" stroke-width="0.5" stroke-linecap="round" stroke-linejoin="round"/>
</g>
<g style="mix-blend-mode:overlay">
<path d="M-126 183.267L-125.069 182.709L-107.234 173.265L-88.7754 164.598L-69.8798 156.676L-38.7487 86.0541L11.6663 18.1677L30.9098 0.890625" stroke="url(#paint46_linear_6098_123565)" stroke-width="0.5" stroke-linecap="round" stroke-linejoin="round"/>
</g>
<g style="mix-blend-mode:overlay">
<path d="M667.168 0.890625L667.151 1.69986L667.694 14.0163L668.673 26.2276L670.21 38.3904L671.902 50.4641L673.892 62.5216L675.737 74.4578L677.639 86.3535L679.096 98.0631L679.937 101.688L682.883 114.312" stroke="url(#paint47_linear_6098_123565)" stroke-width="0.5" stroke-linecap="round" stroke-linejoin="round"/>
</g>
<g style="mix-blend-mode:overlay">
<path d="M875.674 0.890625L875.448 0.971548L863.253 5.18764L850.969 9.19333L838.725 13.11L826.513 17.0429L814.464 21.0728L802.601 25.3051L791.029 29.8125L779.813 34.6679L769.018 39.9279L758.724 45.633L748.957 51.7993L739.78 58.4593L731.17 65.5805L723.167 73.1711L715.673 81.1825L708.706 89.6066L702.094 98.3463L695.863 107.41L689.778 116.651L684.267 125.447L683.862 126.087" stroke="url(#paint48_linear_6098_123565)" stroke-width="0.5" stroke-linecap="round" stroke-linejoin="round"/>
</g>
<g style="mix-blend-mode:overlay">
<path d="M875.447 0.890625V0.971548L865.073 40.2597L862.839 48.7404L844.575 81.4819L839.914 89.8413L810.207 124.023L776.543 151.456L741.196 172.674L705.905 188.276L692.407 192.549L691.954 192.695" stroke="url(#paint49_linear_6098_123565)" stroke-width="0.5" stroke-linecap="round" stroke-linejoin="round"/>
</g>
<g style="mix-blend-mode:overlay">
<path d="M68.3205 514.251L60.9565 507.566L57.2988 504.248L17.8731 468.456L17.8245 468.399L14.7009 464.588L12.2084 461.553L9.73219 458.535L-24.9029 416.301L-57.434 358.239L-77.3572 294.795L-82.2207 227.054L-69.8799 156.676L-50.6769 149.49L-31.3444 142.959L-11.9552 137.092L7.36924 131.768L26.5804 127.009L45.6135 122.672L45.8967 122.356L46.6736 121.49L93.2124 69.6591L93.6251 69.3273L152.408 22.6185L190.231 0.890625" stroke="url(#paint50_linear_6098_123565)" stroke-width="0.5" stroke-linecap="round" stroke-linejoin="round"/>
</g>
<g style="mix-blend-mode:overlay">
<path d="M966.122 0.890625L957.544 15.8209L932.385 59.5599L930.476 61.6962L919.47 73.9399L918.556 74.9514L886.276 110.865L883.654 113.333L882.65 114.774L879.972 117.193L867.728 126.346L841.865 145.711L835.245 150.898L833.077 152.144L825.567 156.32L822.646 158.157L815.095 162.729L790.066 177.335L783.77 180.135L779.7 181.81L775.88 183.259L768.104 186.431L738.542 199.055L732.983 201.062L728.111 202.446L727.941 202.486L725.311 203.206L721.063 204.202L713.157 206.168L683.013 214.414L680.52 215.385L679.873 215.717" stroke="url(#paint51_linear_6098_123565)" stroke-width="0.5" stroke-linecap="round" stroke-linejoin="round"/>
</g>
<g style="mix-blend-mode:overlay">
<path d="M69.963 519.486L63.3273 513.951L21.8866 479.356L15.4613 472.268L12.281 468.756L-24.7656 427.849L-25.7529 426.311L-57.7256 376.293L-61.7636 369.965L-86.518 306.1L-96.3906 237.121L-88.7758 164.598L-88.4197 163.619L-61.618 90.8447L-61.1082 90.0841L-13.841 18.985L4.71468 0.890625" stroke="url(#paint52_linear_6098_123565)" stroke-width="0.5" stroke-linecap="round" stroke-linejoin="round"/>
</g>
<g style="mix-blend-mode:overlay">
<path d="M108.92 587.744L102.333 585.025L101.515 584.685L101.038 584.491L51.1002 563.864L49.943 563.24L36.7202 555.771L22.8338 547.08L9.5705 537.766L-2.98877 527.877L-14.6903 517.406L-25.4773 506.416L-35.2042 494.941L-43.7983 483.054L-51.1461 470.794L-57.2153 458.275L-61.9089 445.546L-65.251 432.72L-67.1851 419.861L-67.7596 407.091L-67.007 394.451L-101.772 330.174L-94.707 317.898L-109.775 247.843L-107.234 173.264L-84.4783 96.4275L-61.6175 90.8438L-38.7487 86.0532L-15.985 81.9585L6.54397 78.5192L28.7655 75.6222L50.639 73.2431L72.1159 71.2443L93.2126 69.6582L113.921 68.3067L134.281 67.279L154.326 66.397L174.063 65.79L193.59 65.2559L212.841 64.9889L231.971 64.7542L250.851 64.8028L269.649 64.8756L288.189 65.2559L306.639 65.6606L324.774 66.4212L342.788 67.1981L408.489 50.3985L470.856 42.0067L526.774 41.4322L574.923 47.1211L575.32 47.2263L613.669 57.7706L631.804 66.3079L643.384 71.7703L643.983 72.2315L663.761 87.7445L669.458 98.8552L674.2 109.723L678.529 120.219L678.586 120.365L680.447 128.659L681.637 131.135L682.3 130.286L681.612 129.646L681.305 128.967L680.666 127.146L681.507 126.903L684.081 118.503L686.792 107.465L689.543 96.4275L684.841 79.6764L673.892 62.5207L673.544 62.1971L655.911 46.1176L655.45 45.7049L629.126 30.3376L628.713 30.1839L594.709 17.8107L594.11 17.5923L550.873 8.77164L499.56 5.26767L441.87 8.23755L423.986 1.80416L360.356 14.4363L341.088 10.1554L321.756 5.78558L302.099 1.48047L235.864 29.5041L215.52 27.7076L194.909 25.895L173.861 24.236L152.408 22.6176L130.421 21.1933L107.892 19.9147L84.7561 18.9275L61.0133 18.2235L36.6393 17.9564L11.6664 18.1668L-13.8406 18.9841L-39.7764 20.4893L-66.0521 22.7956L-107.121 102.845L-124.802 181.51L-125.069 182.708L-122.221 259.18L-101.772 330.174L-107.59 342.838L-112.081 355.843L-115.124 369.09L-116.702 382.507L-116.718 395.98L-115.221 409.43L-112.17 422.734L-107.655 435.827L-101.674 448.605L-94.3914 461.002L-85.8216 472.93L-76.1432 484.365L-65.4128 495.233L-53.8004 505.534L-41.3706 515.213L-31.1338 522.496L-29.4263 523.718L-27.9616 524.535L-25.1131 526.283L-14.5769 532.757L-0.415407 540.614L38.6219 558.175L45.3547 561.306L46.7789 562.002L48.8667 562.876L50.1453 563.459L50.2586 563.516L51.3592 564.033L54.4909 565.603L65.9091 571.333L81.0337 578.211L96.4253 584.499L110.231 589.581" stroke="url(#paint53_linear_6098_123565)" stroke-width="0.5" stroke-linecap="round" stroke-linejoin="round"/>
</g>
<g style="mix-blend-mode:overlay">
<path d="M968.906 0.890625L954.154 27.49L940.324 52.4144L937.605 55.5299L929.156 65.1759L915.165 81.1906L893.607 105.856L890.855 108.089L883.653 113.333L874.841 120.754L864.588 130.772L857.143 136.769L849.811 142.085L842.625 146.674L835.642 150.582L828.893 153.771L826.554 155.073L816.851 160.511L777.879 182.32L772.4 183.866L767.375 184.805L762.803 185.12L758.684 184.861L754.986 184.02L751.692 182.668L748.73 180.791L746.052 178.476L743.567 175.733L741.196 172.674L738.817 169.324L736.349 165.812L733.687 162.187L730.717 158.577L727.391 155.073L723.604 151.812L719.363 148.858L714.589 146.374L693.864 158.189L692.505 158.763" stroke="url(#paint54_linear_6098_123565)" stroke-width="0.5" stroke-linecap="round" stroke-linejoin="round"/>
</g>
<g style="mix-blend-mode:overlay">
<path d="M71.3879 524.528L69.9475 523.411L27.034 490.387L21.8872 479.357L17.8735 468.456L17.8654 468.424L14.9036 457.734L12.9776 447.255L10.728 443.848L-22.0459 394.137L-19.2055 383.609L-15.6044 373.477L-11.2508 363.791L-6.33063 354.517L-0.827864 345.72L5.06334 337.321L11.3753 329.398L17.922 321.84L23.9184 266.472L33.88 259.732L43.9792 253.444L54.0623 247.407L54.1756 247.197L54.7501 246.128L76.3728 206.071L82.3934 194.912L95.3654 189.992L95.4868 189.863L96.3689 188.883L134.103 146.9L138.336 142.199L138.902 141.738L191.065 99.9084L191.162 99.8518L192.481 99.0749L250.851 64.804L314.732 37.5734L379.292 18.8559L398.212 23.2176L443.221 17.0027L459.366 14.7773L476.853 21.2674L493.806 27.9273L510.647 34.5792L526.774 41.4334L542.684 48.2795L543.048 48.3361L559.33 50.9661L588.422 55.6516L601.596 64.1323L613.694 72.694L625.371 81.1424L635.826 89.6393L645.788 97.942L654.431 106.245L662.547 114.305L669.28 122.332L675.487 130.068L680.269 137.789L683.879 143.526L684.963 145.598L687.334 152.63L689.357 157.631L690.166 160.39L690.482 166.977L690.797 173.961L689.713 181.026L688.078 187.937L685.092 194.953L681.548 201.863L676.693 208.888L671.303 215.831L664.667 222.847L657.506 229.774L649.187 236.717L640.358 243.531L633.811 248.168L630.032 250.838L628.948 251.599L625.881 253.193" stroke="url(#paint55_linear_6098_123565)" stroke-width="0.5" stroke-linecap="round" stroke-linejoin="round"/>
</g>
<g style="mix-blend-mode:overlay">
<path d="M54.9121 425.041L55.0901 423.722L55.4947 418.851L55.3814 417.596L55.7618 411.438L56.2069 404.131L52.3145 391.013L54.2161 386.101L54.03 332.91L58.3999 328.023L58.8369 326.534L63.6518 310.333L74.3903 274.152L81.382 269.507L81.8271 268.795L83.8259 265.598L94.791 248.022L113.856 217.465L123.527 213.379L124.101 212.812L147.504 189.604L171.279 166.031L183.499 162.891L195.37 159.808L197.337 158.594L231.632 137.505L257.916 121.329L271.907 119.605L274.837 118.416L318.309 100.807L341.428 91.4439L411.257 72.7749H411.354L477.217 63.8248L536.34 63.1289L536.728 63.1775L585.897 69.5947L588.81 70.4444L624.424 80.8672L625.371 81.1424L626.083 81.5227L652.157 95.3687L653.84 96.2669L657.595 99.6576L668.236 109.271L672.598 113.212L677.842 123.077L680.666 127.147L681.305 127.422" stroke="url(#paint56_linear_6098_123565)" stroke-width="0.5" stroke-linecap="round" stroke-linejoin="round"/>
</g>
<g style="mix-blend-mode:overlay">
<path d="M58.0272 478.951L57.8168 474.986L57.5416 472.914L56.8376 467.768L56.6191 466.125L55.6561 459.036L55.1868 455.556L54.7903 451.705L53.4308 436.289L44.5778 420.387L45.7188 413.824L32.585 361.937L36.6959 355.463L38.8322 301.576L45.9454 295.474L46.002 295.313L57.137 262.587L64.2178 241.782L74.2765 236.368L74.3413 236.263L75.0291 235.235L98.6425 199.929L108.313 185.459L108.806 184.958L146.986 145.734L153.775 138.751L153.872 138.678L155.094 137.772L155.2 137.699L208.504 98.192L209.216 97.8036L269.649 64.876L333.886 39.895L398.212 23.2168L416.711 27.789L435.161 32.353L453.078 37.176L470.856 42.0071L487.939 47.1458L504.771 52.2682L520.737 57.7224L536.339 63.1281L550.922 68.8655L565.035 74.5139L577.999 80.4942L590.396 86.353L601.555 92.5598L612.091 98.6128L621.317 105.054L629.886 111.342L637.129 118.059L643.692 124.662L648.911 131.727L653.451 138.726L656.672 146.22L659.221 153.705L660.459 161.692L661.05 169.696L660.354 178.168L659.003 186.657L656.397 195.543L653.144 204.42L648.661 213.556L643.522 222.627L637.202 231.812L630.234 240.835L622.166 249.818L613.499 258.533L607.843 264.659L603.813 267.257L603.174 267.669L602.834 267.888" stroke="url(#paint57_linear_6098_123565)" stroke-width="0.5" stroke-linecap="round" stroke-linejoin="round"/>
</g>
<g style="mix-blend-mode:overlay">
<path d="M73.0874 529.747L71.9868 528.962L33.3056 501.465L27.034 490.386L22.7613 486.089L19.5163 482.844L16.1823 479.494L-23.5186 439.623L-24.7648 427.849L-24.9024 416.301L-23.9475 405.061L-22.0458 394.136L-45.8857 336.058L-38.894 325.659L-31.1901 315.77L-22.9602 306.351L-14.1963 297.458L-5.09242 289.009L4.37558 281.079L14.0297 273.529L23.9185 266.472L24.1532 265.784L40.7424 218.282L43.1863 211.299L56.2877 205.529L69.3325 200.01L82.3935 194.912L82.8305 194.378L83.0328 194.135L119.788 149.393L122.774 145.759L138.336 142.199L153.776 138.751L169.119 135.668L171.878 133.766L223.693 98.0226L225.838 96.5498L225.911 96.5093L227.553 95.6839L288.189 65.2568L352.984 42.21L416.711 27.7895L476.853 21.2671L530.683 21.9387L571.994 27.7004L577.133 28.4126L589.676 38.2204L602.09 47.9879L613.67 57.7715L624.975 67.4903L635.244 77.193L645.133 86.7662L653.84 96.2666L662.102 105.557L669.094 114.701L674.961 122.469L675.843 123.748L680.836 132.237L681.896 132.698L688.629 126.742L696.608 120.252L704.732 114.24L713.092 108.802L721.662 103.97L730.474 99.7948L739.481 96.2908L748.666 93.4585L757.964 91.2898L767.343 89.7199L776.722 88.7326L786.076 88.2147L795.35 88.1095L804.511 88.2876L813.55 88.676L822.451 89.1292L831.248 89.558L839.914 89.8413L848.517 89.8898L857.03 89.5742L865.527 88.8378L873.967 87.5673L882.431 85.7304L890.856 83.2218L899.288 80.0334L907.671 76.0843L916.023 71.3827L924.261 65.8638L932.385 59.5599L940.324 52.4144L947.801 44.9128L949.573 42.9059L955.44 35.7118L962.505 26.1791L969.14 15.8371L975.299 4.76684L977.144 0.890625" stroke="url(#paint58_linear_6098_123565)" stroke-width="0.5" stroke-linecap="round" stroke-linejoin="round"/>
</g>
<g style="mix-blend-mode:overlay">
<path d="M886.331 0.890625L876.564 35.4772L873.368 46.8064L873.181 47.1301L854.909 78.8034L848.516 89.8898L816.689 125.488L780.929 153.924L743.567 175.733L706.423 191.683L692.691 195.867L690.765 196.449" stroke="url(#paint59_linear_6098_123565)" stroke-width="0.5" stroke-linecap="round" stroke-linejoin="round"/>
</g>
<g style="mix-blend-mode:overlay">
<path d="M634.289 61.0879L635.972 62.1965L657.765 76.4956L663.761 87.744L665.833 90.552L676.159 104.511L678.845 115.719" stroke="url(#paint60_linear_6098_123565)" stroke-width="0.5" stroke-linecap="round" stroke-linejoin="round"/>
</g>
<g style="mix-blend-mode:overlay">
<path d="M645.148 0.890625L666.949 13.5875L667.694 14.0164L688.717 32.9766L701.965 52.5115L708.22 71.6093L708.705 89.6066L704.433 105.921L696.607 120.252L687.156 131.25L686.193 132.374L683.409 134.665" stroke="url(#paint61_linear_6098_123565)" stroke-width="0.5" stroke-linecap="round" stroke-linejoin="round"/>
</g>
<g style="mix-blend-mode:overlay">
<path d="M592.961 0.890625L606.103 4.51598L613.977 6.68472L645.893 21.2913L646.233 21.4451L669.628 37.9777L670.21 38.3904L686.16 56.3149L695.151 74.3121L697.975 91.5083L695.863 107.41L689.761 121.523L683.223 129.194L682.171 129.817L681.904 130.675L681.839 130.829L682.082 131.565L682.195 131.784" stroke="url(#paint62_linear_6098_123565)" stroke-width="0.5" stroke-linecap="round" stroke-linejoin="round"/>
</g>
<g style="mix-blend-mode:overlay">
<path d="M56.838 467.769L56.6681 466.191L55.956 459.434L54.9202 451.9L52.978 439.187L53.1318 438.369L53.4312 436.29V435.602L53.9896 430.415L45.7192 413.825L47.2001 407.651L36.6963 355.464L41.0176 349.394L43.3482 323.879L45.9458 295.475L53.1722 289.762L53.3907 289.204L65.1003 259.578L74.277 236.369L84.36 231.32L84.7484 230.794L108.774 197.955L121.131 181.074L133.901 177.044L134.459 176.551L136.167 175.046L172.582 143L184.332 132.666L185.87 131.679L239.142 97.6913L242.977 95.2474L243.867 94.8347L306.64 65.6619L371.71 44.8242L390.346 47.438L408.489 50.3998L426.462 53.3697L443.82 56.7199L460.895 60.0701L477.217 63.825L493.135 67.5555L508.17 71.715L522.704 75.8259L536.243 80.4061L549.19 84.9054L561.086 89.9307L572.31 94.8832L582.45 100.41L591.901 105.897L600.237 112.015L607.884 118.132L614.422 124.946L620.281 131.808L621.196 132.164L630.55 135.879L654.811 145.493L656.672 146.221L658.234 147.378L676.685 161.03L679.541 163.142L689.713 181.026L690.005 198.182L689.122 200.035L688.766 200.366L687.132 203.385L686.371 204.607L683.879 208.88L683.345 210.822L682.317 212.578L681.758 213.371L681.216 214.051L680.334 215.143L679.703 215.54L678.724 215.879L677.72 216.163L676.984 216.656L674.346 219.667L673.326 220.824L670.939 223.235L664.328 228.406L664.166 228.625L656.68 234.5L649.163 239.63L648.014 240.383L639.5 245.683L639.023 246.015" stroke="url(#paint63_linear_6098_123565)" stroke-width="0.5" stroke-linecap="round" stroke-linejoin="round"/>
</g>
<g style="mix-blend-mode:overlay">
<path d="M54.3775 451.09L52.2169 447.894L43.2182 434.549L21.4499 383.446L11.375 329.398L14.0293 273.529L14.1588 273.067L28.6521 222.701L30.1492 217.522L30.489 216.891L59.5809 163.02L59.8075 162.753L101.539 112.095L102.3 111.432L154.326 66.3979L215.52 27.7085L273.906 0.890625" stroke="url(#paint64_linear_6098_123565)" stroke-width="0.5" stroke-linecap="round" stroke-linejoin="round"/>
</g>
<g style="mix-blend-mode:overlay">
<path d="M53.5035 436.313L54.2885 431.013L54.774 424.733L54.9682 421.415L55.3 418.364L48.7695 401.775L50.566 396.264L52.314 391.012L49.7487 338.129L54.0295 332.91L59.1115 312.541L67.4466 279.12L74.3898 274.151L74.9401 273.197L88.3247 249.713L104.194 221.891L113.856 217.465L114.827 216.437L116.64 214.511L139.217 190.542L159.011 169.534L171.279 166.03L172.825 164.938L209.313 139.188L229.074 125.245L230.094 124.719L233.169 123.141L278.793 99.7379L293.384 92.2525L293.408 92.2444L296.006 91.3138L355.978 69.942L360.396 68.364L377.787 69.5455L394.683 71.164L460.895 60.0694L520.737 57.7227L572.326 62.3676L572.803 62.489L613.694 72.6934L616.558 73.972L645.132 86.766L645.974 87.4214L665.047 102.222L666.229 103.137L670.194 108.664L675.009 115.388L678.586 120.365L678.61 120.414L681.467 126.807L681.394 128.077L681.483 128.716" stroke="url(#paint65_linear_6098_123565)" stroke-width="0.5" stroke-linecap="round" stroke-linejoin="round"/>
</g>
<g style="mix-blend-mode:overlay">
<path d="M55.3809 417.595L55.9797 412.076L56.53 406.97L57.4687 392.25L57.0802 389.927L57.4525 389.142L57.4687 388.859L55.9392 381.422L56.4976 369.17L58.3993 328.021L62.5021 323.328L62.7853 322.518L63.198 321.337L68.3609 306.617L81.3814 269.506L88.0495 265.006L88.1142 264.917L89.9755 262.206L102.122 244.533L123.526 213.377L132.857 209.388L134.079 208.263L157.538 186.721L183.498 162.889L184.38 162.307L186.938 160.615L219.129 139.276L243.576 123.075L245.898 121.975L293.246 99.5995L309.698 91.8147L311.106 91.3534L367.971 72.7573L377.787 69.5447L443.82 56.7183L504.771 52.2676L557.679 55.3507L557.792 55.3831L560.033 55.8201L601.595 64.1309L602.154 64.3413L635.243 77.1919L637.962 78.9479L659.447 92.8424L660.435 93.9591L673.107 108.469L674.2 109.723" stroke="url(#paint66_linear_6098_123565)" stroke-width="0.5" stroke-linecap="round" stroke-linejoin="round"/>
</g>
<g style="mix-blend-mode:overlay">
<path d="M58.3671 484.916L58.3104 484.867L49.247 476.136L42.9836 467.938L11.8525 427.185L-15.6047 373.477L-31.1905 315.77L-33.335 255.135L-33.1812 254.39L-20.6786 193.18L-20.3387 192.427L7.36935 131.768L7.70114 131.314L8.46181 130.279L50.6389 73.244L51.084 72.8312L107.892 19.9156L136.563 0.890625" stroke="url(#paint67_linear_6098_123565)" stroke-width="0.5" stroke-linecap="round" stroke-linejoin="round"/>
</g>
<g style="mix-blend-mode:overlay">
<path d="M60.6496 492.49L60.4392 492.296L59.7675 491.697L52.7029 485.418L49.2961 481.371L47.5967 479.356L45.5655 476.937L42.9436 473.829L11.9582 437.05L11.2703 435.868L-19.2053 383.608L-38.8939 325.659L-45.1816 264.222L-36.5552 200.706L-36.2882 200.018L-11.9546 137.092L-11.5257 136.445L28.7659 75.6231L29.1381 75.2508L84.7566 18.9284L110.021 0.890625" stroke="url(#paint68_linear_6098_123565)" stroke-width="0.5" stroke-linecap="round" stroke-linejoin="round"/>
</g>
<g style="mix-blend-mode:overlay">
<path d="M91.5216 563.556L90.9551 562.9L90.8904 562.496L81.5599 555.221L69.7775 544.919L59.0067 534.334L49.3121 523.507L40.7423 512.534L33.3055 501.463L24.8733 493.719L20.8433 490.021L-21.0667 451.558L-23.5187 439.622L-28.722 432.396L-64.9756 382.061L-61.7629 369.963L-57.4336 358.238L-52.1169 346.916L-45.8858 336.057L-56.5596 273.835L-45.1818 264.221L-33.3347 255.134L-21.0667 246.629L-8.54792 238.609L4.22984 231.14L17.1209 224.075L30.1495 217.52L43.1862 211.297L43.3804 210.982L44.044 209.889L75.5231 158.285L91.3678 153.785L107.124 149.683L122.774 145.758L122.92 145.628L123.939 144.746L173.456 101.946L174.047 101.574L174.217 101.461L176.013 100.32L231.972 64.7539L295.262 35.484L314.732 37.5718L333.886 39.8943L352.984 42.2087L371.71 44.8225L435.161 32.3523L493.806 27.9258L545.953 30.2645L589.676 38.2192L591.116 38.7128L624.886 50.2767L625.201 50.4548L636.336 56.7749L650.975 65.0857L652.343 66.3238L668.948 81.3997L669.329 82.0229L679.096 98.0618L680.407 109.666L680.901 116.051L681.208 121.449L681.249 126.814L681.305 127.421L681.338 127.655L681.265 128.651L681.313 129.784L681.839 130.828L682.22 131.742L682.195 131.944L682.398 132.252L681.969 132.851L683.005 134.995L684.186 136.67L684.243 137.617L684.882 138.96L685.691 140.684L685.869 141.242L686.064 141.582L686.153 141.728L686.185 141.979L685.772 143.023L686.306 144.957L688.378 147.562L689.017 148.687L689.899 150.994L691.356 154.789L691.995 156.448L692.108 156.974L692.505 158.762L693.395 162.833L693.646 164.006L694.156 167.033L694.86 171.224V171.265L694.787 175.732L694.747 178.265L694.601 180.11L694.245 184.358L694.196 185.022L693.177 188.631L692.327 191.649L691.955 192.693L691.461 194.037L690.668 196.48L690.385 197.387L690.004 198.18L689.665 198.665L688.823 200.122L687.439 203.302L686.484 205.188L683.417 208.999L683.142 209.582L682.268 210.804L680.528 213.062L680.188 214.324L679.363 214.979L679.039 215.789L676.96 218.435L671.489 223.42L668.22 225.443L663.785 229.311L658.72 233.122L656.607 234.862L651.339 239.208L647.382 241.093L642.818 243.958L639.767 245.544L639.023 246.013L630.138 250.699L625.881 253.191L624.044 253.636L619.682 256.736L618.145 257.958L614.333 260.118L607.779 264.156L603.854 267.062L602.834 267.887L597.493 271.31L593.69 275.235L590.833 277.29L589.797 278.367L588.422 279.799L581.673 285.989L580.095 287.438L579.334 288.142L573.637 295.215L568.879 300.45L567.455 303.161L561.151 312.557L559.961 314.879L557.509 322.251L557.493 322.292L554.466 329.51L553.819 331.056L553.77 332.65L552.718 342.28L551.569 348.729L552.565 353.148L554.021 362.276L552.84 364.145L544.343 366.815L534.818 358.488L524.209 350.064L512.492 341.64L499.431 333.224L485.107 324.978L469.287 316.902L452.228 309.198L433.729 301.85L414.251 295.069L393.583 288.822L372.43 283.303L350.524 278.439L328.78 274.377L306.777 271.011L285.648 268.445L264.737 266.536L245.308 265.33L226.437 264.682L209.491 264.593L193.274 264.949L179.234 265.694L165.898 266.778L154.771 268.122L109.389 316.02L107.747 317.744L106.614 318.941L105.157 320.479L85.5737 354.224L73.9046 374.317L73.4353 375.126L63.9996 408.798L63.2228 411.566L58.3917 428.794L58.1893 429.531L59.0957 481.095L62.891 494.48L64.8331 501.35L65.7719 504.668L66.7106 507.986L68.418 514.306L69.3001 517.146L70.4654 519.906L72.1 524.988L74.8271 531.712L75.5635 534.1L76.7693 536.244L80.6779 542.645L82.5715 545.777L84.5541 548.803L87.5483 554.274L88.2927 555.908L90.3806 559.542L90.9794 559.955L94.5157 565.271L94.5724 565.368L99.1041 572.182L102.705 578.356L104.243 581.205L106.371 584.175L107.148 584.79L108.491 586.74L108.92 587.744L109.365 588.367L109.745 588.901L109.972 589.216L110.207 589.224L111.947 591.523L114.601 595.091L134.508 617.855L139.04 623.147L140.771 625.009L144.097 629.047L148.249 633.214L154.528 638.531L160.598 644.017L161.86 645.191L165.364 648.493L167.128 650.289L167.759 650.961L182.431 663.261L183.28 663.973L185.619 665.931L187.974 667.849L189.439 669.136L190.596 670.188" stroke="url(#paint69_linear_6098_123565)" stroke-width="0.5" stroke-linecap="round" stroke-linejoin="round"/>
</g>
</g>
</g>
</g>
<defs>
<linearGradient id="paint0_linear_6098_123565" x1="0" y1="32" x2="38.7591" y2="-150.704" gradientUnits="userSpaceOnUse">
<stop stop-color="#BCFFCC"/>
<stop offset="1" stop-color="#A4E8FF"/>
</linearGradient>
<linearGradient id="paint1_linear_6098_123565" x1="677.92" y1="100.429" x2="872.961" y2="32.3184" gradientUnits="userSpaceOnUse">
<stop stop-color="#427DFF"/>
<stop offset="1" stop-color="#44D5BB"/>
</linearGradient>
<linearGradient id="paint2_linear_6098_123565" x1="675.894" y1="102.023" x2="879.912" y2="28.0508" gradientUnits="userSpaceOnUse">
<stop stop-color="#427DFF"/>
<stop offset="1" stop-color="#44D5BB"/>
</linearGradient>
<linearGradient id="paint3_linear_6098_123565" x1="673.921" y1="103.448" x2="886.283" y2="23.7614" gradientUnits="userSpaceOnUse">
<stop stop-color="#427DFF"/>
<stop offset="1" stop-color="#44D5BB"/>
</linearGradient>
<linearGradient id="paint4_linear_6098_123565" x1="667.308" y1="67.603" x2="867.127" y2="-77.835" gradientUnits="userSpaceOnUse">
<stop stop-color="#427DFF"/>
<stop offset="1" stop-color="#44D5BB"/>
</linearGradient>
<linearGradient id="paint5_linear_6098_123565" x1="666.307" y1="108.335" x2="892.076" y2="21.9434" gradientUnits="userSpaceOnUse">
<stop stop-color="#427DFF"/>
<stop offset="1" stop-color="#44D5BB"/>
</linearGradient>
<linearGradient id="paint6_linear_6098_123565" x1="544.801" y1="30.9775" x2="617.937" y2="-3.56054" gradientUnits="userSpaceOnUse">
<stop stop-color="#427DFF"/>
<stop offset="1" stop-color="#44D5BB"/>
</linearGradient>
<linearGradient id="paint7_linear_6098_123565" x1="670.19" y1="106.514" x2="897.828" y2="16.3594" gradientUnits="userSpaceOnUse">
<stop stop-color="#427DFF"/>
<stop offset="1" stop-color="#44D5BB"/>
</linearGradient>
<linearGradient id="paint8_linear_6098_123565" x1="678.64" y1="69.2012" x2="783.843" y2="41.7068" gradientUnits="userSpaceOnUse">
<stop stop-color="#427DFF"/>
<stop offset="1" stop-color="#44D5BB"/>
</linearGradient>
<linearGradient id="paint9_linear_6098_123565" x1="683.818" y1="72.6647" x2="747.63" y2="63.4654" gradientUnits="userSpaceOnUse">
<stop stop-color="#427DFF"/>
<stop offset="1" stop-color="#44D5BB"/>
</linearGradient>
<linearGradient id="paint10_linear_6098_123565" x1="683.612" y1="71.2283" x2="730.627" y2="66.1787" gradientUnits="userSpaceOnUse">
<stop stop-color="#427DFF"/>
<stop offset="1" stop-color="#44D5BB"/>
</linearGradient>
<linearGradient id="paint11_linear_6098_123565" x1="671.559" y1="106.284" x2="903.09" y2="12.1246" gradientUnits="userSpaceOnUse">
<stop stop-color="#427DFF"/>
<stop offset="1" stop-color="#44D5BB"/>
</linearGradient>
<linearGradient id="paint12_linear_6098_123565" x1="688.18" y1="83.9614" x2="797.373" y2="60.0704" gradientUnits="userSpaceOnUse">
<stop stop-color="#427DFF"/>
<stop offset="1" stop-color="#44D5BB"/>
</linearGradient>
<linearGradient id="paint13_linear_6098_123565" x1="618.519" y1="60.9431" x2="679.411" y2="50.8667" gradientUnits="userSpaceOnUse">
<stop stop-color="#427DFF"/>
<stop offset="1" stop-color="#44D5BB"/>
</linearGradient>
<linearGradient id="paint14_linear_6098_123565" x1="-8.90457" y1="229.961" x2="237.704" y2="186.478" gradientUnits="userSpaceOnUse">
<stop stop-color="#427DFF"/>
<stop offset="1" stop-color="#44D5BB"/>
</linearGradient>
<linearGradient id="paint15_linear_6098_123565" x1="-17.3606" y1="233.506" x2="211.65" y2="196.77" gradientUnits="userSpaceOnUse">
<stop stop-color="#427DFF"/>
<stop offset="1" stop-color="#44D5BB"/>
</linearGradient>
<linearGradient id="paint16_linear_6098_123565" x1="688.269" y1="86.0775" x2="807.842" y2="57.94" gradientUnits="userSpaceOnUse">
<stop stop-color="#427DFF"/>
<stop offset="1" stop-color="#44D5BB"/>
</linearGradient>
<linearGradient id="paint17_linear_6098_123565" x1="684.638" y1="74.1901" x2="756.862" y2="62.5942" gradientUnits="userSpaceOnUse">
<stop stop-color="#427DFF"/>
<stop offset="1" stop-color="#44D5BB"/>
</linearGradient>
<linearGradient id="paint18_linear_6098_123565" x1="665.93" y1="108.258" x2="906.585" y2="7.57692" gradientUnits="userSpaceOnUse">
<stop stop-color="#427DFF"/>
<stop offset="1" stop-color="#44D5BB"/>
</linearGradient>
<linearGradient id="paint19_linear_6098_123565" x1="7.35534" y1="221.465" x2="322.59" y2="145.774" gradientUnits="userSpaceOnUse">
<stop stop-color="#427DFF"/>
<stop offset="1" stop-color="#44D5BB"/>
</linearGradient>
<linearGradient id="paint20_linear_6098_123565" x1="-33.2235" y1="239.959" x2="159.989" y2="214.732" gradientUnits="userSpaceOnUse">
<stop stop-color="#427DFF"/>
<stop offset="1" stop-color="#44D5BB"/>
</linearGradient>
<linearGradient id="paint21_linear_6098_123565" x1="687.529" y1="88.311" x2="818.181" y2="55.3155" gradientUnits="userSpaceOnUse">
<stop stop-color="#427DFF"/>
<stop offset="1" stop-color="#44D5BB"/>
</linearGradient>
<linearGradient id="paint22_linear_6098_123565" x1="679.98" y1="69.8728" x2="722.743" y2="65.6202" gradientUnits="userSpaceOnUse">
<stop stop-color="#427DFF"/>
<stop offset="1" stop-color="#44D5BB"/>
</linearGradient>
<linearGradient id="paint23_linear_6098_123565" x1="532.209" y1="64.273" x2="664.582" y2="14.0316" gradientUnits="userSpaceOnUse">
<stop stop-color="#427DFF"/>
<stop offset="1" stop-color="#44D5BB"/>
</linearGradient>
<linearGradient id="paint24_linear_6098_123565" x1="683.658" y1="71.908" x2="738.909" y2="64.9724" gradientUnits="userSpaceOnUse">
<stop stop-color="#427DFF"/>
<stop offset="1" stop-color="#44D5BB"/>
</linearGradient>
<linearGradient id="paint25_linear_6098_123565" x1="686.659" y1="90.4999" x2="828.423" y2="52.2855" gradientUnits="userSpaceOnUse">
<stop stop-color="#427DFF"/>
<stop offset="1" stop-color="#44D5BB"/>
</linearGradient>
<linearGradient id="paint26_linear_6098_123565" x1="678.803" y1="65.4666" x2="729.166" y2="59.1284" gradientUnits="userSpaceOnUse">
<stop stop-color="#427DFF"/>
<stop offset="1" stop-color="#44D5BB"/>
</linearGradient>
<linearGradient id="paint27_linear_6098_123565" x1="-137.77" y1="339.211" x2="575.139" y2="57.0809" gradientUnits="userSpaceOnUse">
<stop stop-color="#427DFF"/>
<stop offset="1" stop-color="#44D5BB"/>
</linearGradient>
<linearGradient id="paint28_linear_6098_123565" x1="665.555" y1="108.258" x2="910.445" y2="3.20356" gradientUnits="userSpaceOnUse">
<stop stop-color="#427DFF"/>
<stop offset="1" stop-color="#44D5BB"/>
</linearGradient>
<linearGradient id="paint29_linear_6098_123565" x1="685.539" y1="75.942" x2="766.49" y2="61.6393" gradientUnits="userSpaceOnUse">
<stop stop-color="#427DFF"/>
<stop offset="1" stop-color="#44D5BB"/>
</linearGradient>
<linearGradient id="paint30_linear_6098_123565" x1="-8.51919" y1="257.366" x2="360.045" y2="168.323" gradientUnits="userSpaceOnUse">
<stop stop-color="#427DFF"/>
<stop offset="1" stop-color="#44D5BB"/>
</linearGradient>
<linearGradient id="paint31_linear_6098_123565" x1="480.867" y1="63.8037" x2="640.39" y2="-16.8892" gradientUnits="userSpaceOnUse">
<stop stop-color="#427DFF"/>
<stop offset="1" stop-color="#44D5BB"/>
</linearGradient>
<linearGradient id="paint32_linear_6098_123565" x1="682.955" y1="59.6969" x2="696.266" y2="59.2176" gradientUnits="userSpaceOnUse">
<stop stop-color="#427DFF"/>
<stop offset="1" stop-color="#44D5BB"/>
</linearGradient>
<linearGradient id="paint33_linear_6098_123565" x1="635.834" y1="66.899" x2="701.23" y2="56.3387" gradientUnits="userSpaceOnUse">
<stop stop-color="#427DFF"/>
<stop offset="1" stop-color="#44D5BB"/>
</linearGradient>
<linearGradient id="paint34_linear_6098_123565" x1="-11.1834" y1="273.741" x2="548.349" y2="2.80653" gradientUnits="userSpaceOnUse">
<stop stop-color="#427DFF"/>
<stop offset="1" stop-color="#44D5BB"/>
</linearGradient>
<linearGradient id="paint35_linear_6098_123565" x1="685.608" y1="92.6242" x2="838.437" y2="48.8629" gradientUnits="userSpaceOnUse">
<stop stop-color="#427DFF"/>
<stop offset="1" stop-color="#44D5BB"/>
</linearGradient>
<linearGradient id="paint36_linear_6098_123565" x1="606.476" y1="63.2008" x2="678.961" y2="49.315" gradientUnits="userSpaceOnUse">
<stop stop-color="#427DFF"/>
<stop offset="1" stop-color="#44D5BB"/>
</linearGradient>
<linearGradient id="paint37_linear_6098_123565" x1="-137.548" y1="132.021" x2="68.7643" y2="76.7599" gradientUnits="userSpaceOnUse">
<stop stop-color="#427DFF"/>
<stop offset="1" stop-color="#44D5BB"/>
</linearGradient>
<linearGradient id="paint38_linear_6098_123565" x1="-74.7895" y1="254.173" x2="64.9329" y2="241.834" gradientUnits="userSpaceOnUse">
<stop stop-color="#427DFF"/>
<stop offset="1" stop-color="#44D5BB"/>
</linearGradient>
<linearGradient id="paint39_linear_6098_123565" x1="679.196" y1="61.6309" x2="771.557" y2="37.8417" gradientUnits="userSpaceOnUse">
<stop stop-color="#427DFF"/>
<stop offset="1" stop-color="#44D5BB"/>
</linearGradient>
<linearGradient id="paint40_linear_6098_123565" x1="683.805" y1="94.7605" x2="848.102" y2="44.8692" gradientUnits="userSpaceOnUse">
<stop stop-color="#427DFF"/>
<stop offset="1" stop-color="#44D5BB"/>
</linearGradient>
<linearGradient id="paint41_linear_6098_123565" x1="557.013" y1="65.9238" x2="761.711" y2="-137.542" gradientUnits="userSpaceOnUse">
<stop stop-color="#427DFF"/>
<stop offset="1" stop-color="#44D5BB"/>
</linearGradient>
<linearGradient id="paint42_linear_6098_123565" x1="678.6" y1="81.8615" x2="895.035" y2="-38.4202" gradientUnits="userSpaceOnUse">
<stop stop-color="#427DFF"/>
<stop offset="1" stop-color="#44D5BB"/>
</linearGradient>
<linearGradient id="paint43_linear_6098_123565" x1="686.481" y1="77.8396" x2="776.472" y2="60.5014" gradientUnits="userSpaceOnUse">
<stop stop-color="#427DFF"/>
<stop offset="1" stop-color="#44D5BB"/>
</linearGradient>
<linearGradient id="paint44_linear_6098_123565" x1="676.732" y1="102.274" x2="919.495" y2="-9.71338" gradientUnits="userSpaceOnUse">
<stop stop-color="#427DFF"/>
<stop offset="1" stop-color="#44D5BB"/>
</linearGradient>
<linearGradient id="paint45_linear_6098_123565" x1="662.89" y1="68.7804" x2="714.88" y2="62.3595" gradientUnits="userSpaceOnUse">
<stop stop-color="#427DFF"/>
<stop offset="1" stop-color="#44D5BB"/>
</linearGradient>
<linearGradient id="paint46_linear_6098_123565" x1="-134.646" y1="92.0779" x2="18.197" y2="47.9981" gradientUnits="userSpaceOnUse">
<stop stop-color="#427DFF"/>
<stop offset="1" stop-color="#44D5BB"/>
</linearGradient>
<linearGradient id="paint47_linear_6098_123565" x1="666.285" y1="57.601" x2="682.847" y2="56.8309" gradientUnits="userSpaceOnUse">
<stop stop-color="#427DFF"/>
<stop offset="1" stop-color="#44D5BB"/>
</linearGradient>
<linearGradient id="paint48_linear_6098_123565" x1="673.293" y1="63.4881" x2="833.436" y2="-18.7561" gradientUnits="userSpaceOnUse">
<stop stop-color="#427DFF"/>
<stop offset="1" stop-color="#44D5BB"/>
</linearGradient>
<linearGradient id="paint49_linear_6098_123565" x1="681.843" y1="96.7917" x2="857.394" y2="40.4957" gradientUnits="userSpaceOnUse">
<stop stop-color="#427DFF"/>
<stop offset="1" stop-color="#44D5BB"/>
</linearGradient>
<linearGradient id="paint50_linear_6098_123565" x1="-97.2335" y1="257.568" x2="181.412" y2="207.997" gradientUnits="userSpaceOnUse">
<stop stop-color="#427DFF"/>
<stop offset="1" stop-color="#44D5BB"/>
</linearGradient>
<linearGradient id="paint51_linear_6098_123565" x1="664.1" y1="108.303" x2="915.89" y2="-4.15965" gradientUnits="userSpaceOnUse">
<stop stop-color="#427DFF"/>
<stop offset="1" stop-color="#44D5BB"/>
</linearGradient>
<linearGradient id="paint52_linear_6098_123565" x1="-105.557" y1="260.186" x2="67.9565" y2="241.529" gradientUnits="userSpaceOnUse">
<stop stop-color="#427DFF"/>
<stop offset="1" stop-color="#44D5BB"/>
</linearGradient>
<linearGradient id="paint53_linear_6098_123565" x1="-169.957" y1="295.528" x2="537.107" y2="-32.7719" gradientUnits="userSpaceOnUse">
<stop stop-color="#427DFF"/>
<stop offset="1" stop-color="#44D5BB"/>
</linearGradient>
<linearGradient id="paint54_linear_6098_123565" x1="677.274" y1="93.0045" x2="910.035" y2="-24.0539" gradientUnits="userSpaceOnUse">
<stop stop-color="#427DFF"/>
<stop offset="1" stop-color="#44D5BB"/>
</linearGradient>
<linearGradient id="paint55_linear_6098_123565" x1="-61.3254" y1="269.65" x2="555.302" y2="-19.3989" gradientUnits="userSpaceOnUse">
<stop stop-color="#427DFF"/>
<stop offset="1" stop-color="#44D5BB"/>
</linearGradient>
<linearGradient id="paint56_linear_6098_123565" x1="17.6554" y1="244.083" x2="513.139" y2="-44.5741" gradientUnits="userSpaceOnUse">
<stop stop-color="#427DFF"/>
<stop offset="1" stop-color="#44D5BB"/>
</linearGradient>
<linearGradient id="paint57_linear_6098_123565" x1="-2.0451" y1="251.082" x2="544.305" y2="-1.4711" gradientUnits="userSpaceOnUse">
<stop stop-color="#427DFF"/>
<stop offset="1" stop-color="#44D5BB"/>
</linearGradient>
<linearGradient id="paint58_linear_6098_123565" x1="-102.257" y1="265.316" x2="657.637" y2="-227.421" gradientUnits="userSpaceOnUse">
<stop stop-color="#427DFF"/>
<stop offset="1" stop-color="#44D5BB"/>
</linearGradient>
<linearGradient id="paint59_linear_6098_123565" x1="679.988" y1="98.6691" x2="865.486" y2="36.4864" gradientUnits="userSpaceOnUse">
<stop stop-color="#427DFF"/>
<stop offset="1" stop-color="#44D5BB"/>
</linearGradient>
<linearGradient id="paint60_linear_6098_123565" x1="631.834" y1="88.4032" x2="675.576" y2="76.4447" gradientUnits="userSpaceOnUse">
<stop stop-color="#427DFF"/>
<stop offset="1" stop-color="#44D5BB"/>
</linearGradient>
<linearGradient id="paint61_linear_6098_123565" x1="641.646" y1="67.777" x2="707.047" y2="57.3614" gradientUnits="userSpaceOnUse">
<stop stop-color="#427DFF"/>
<stop offset="1" stop-color="#44D5BB"/>
</linearGradient>
<linearGradient id="paint62_linear_6098_123565" x1="587.174" y1="66.3365" x2="690.502" y2="38.5486" gradientUnits="userSpaceOnUse">
<stop stop-color="#427DFF"/>
<stop offset="1" stop-color="#44D5BB"/>
</linearGradient>
<linearGradient id="paint63_linear_6098_123565" x1="0.69729" y1="256.294" x2="544.272" y2="-25.1589" gradientUnits="userSpaceOnUse">
<stop stop-color="#427DFF"/>
<stop offset="1" stop-color="#44D5BB"/>
</linearGradient>
<linearGradient id="paint64_linear_6098_123565" x1="-3.09113" y1="225.988" x2="263.711" y2="173.836" gradientUnits="userSpaceOnUse">
<stop stop-color="#427DFF"/>
<stop offset="1" stop-color="#44D5BB"/>
</linearGradient>
<linearGradient id="paint65_linear_6098_123565" x1="13.9054" y1="247.016" x2="522.019" y2="-37.6332" gradientUnits="userSpaceOnUse">
<stop stop-color="#427DFF"/>
<stop offset="1" stop-color="#44D5BB"/>
</linearGradient>
<linearGradient id="paint66_linear_6098_123565" x1="21.2823" y1="234.929" x2="515.02" y2="-45.4139" gradientUnits="userSpaceOnUse">
<stop stop-color="#427DFF"/>
<stop offset="1" stop-color="#44D5BB"/>
</linearGradient>
<linearGradient id="paint67_linear_6098_123565" x1="-42.6968" y1="242.901" x2="134.115" y2="222.097" gradientUnits="userSpaceOnUse">
<stop stop-color="#427DFF"/>
<stop offset="1" stop-color="#44D5BB"/>
</linearGradient>
<linearGradient id="paint68_linear_6098_123565" x1="-53.7337" y1="246.688" x2="108.207" y2="229.55" gradientUnits="userSpaceOnUse">
<stop stop-color="#427DFF"/>
<stop offset="1" stop-color="#44D5BB"/>
</linearGradient>
<linearGradient id="paint69_linear_6098_123565" x1="-106.845" y1="349.054" x2="585.911" y2="74.3281" gradientUnits="userSpaceOnUse">
<stop stop-color="#427DFF"/>
<stop offset="1" stop-color="#44D5BB"/>
</linearGradient>
<clipPath id="clip0_6098_123565">
<rect width="900" height="64" fill="white"/>
</clipPath>
</defs>
</svg>
