<svg width="26" height="24" viewBox="0 0 26 24" fill="none" xmlns="http://www.w3.org/2000/svg">
<path d="M25.7439 10.0325L22.5021 6.7907L23.0706 0.817936C23.0827 0.692078 23.0567 0.565492 22.996 0.454581C22.9352 0.343671 22.8426 0.25355 22.7301 0.195898C22.6176 0.138245 22.4903 0.115719 22.3648 0.131238C22.2394 0.146756 22.1214 0.199605 22.0263 0.282934L18.5672 3.30969C18.5519 3.32307 18.5454 3.34163 18.5317 3.35609L7.82279 3.43851C7.7959 3.39137 7.76281 3.34804 7.72441 3.30969L4.26525 0.282934C4.17016 0.199605 4.05223 0.146756 3.92675 0.131238C3.80127 0.115719 3.67402 0.138245 3.56149 0.195898C3.44897 0.25355 3.35635 0.343671 3.29564 0.454581C3.23493 0.565492 3.20894 0.692078 3.22102 0.817936L3.81741 7.08393L0.869029 10.0325L0.867551 10.0347C0.808714 10.0939 0.762117 10.164 0.730426 10.2411C0.699848 10.3164 0.684072 10.3971 0.684186 10.4783L0.684082 10.479C0.684066 10.5228 0.688594 10.5665 0.697594 10.6093L1.93439 16.4546C1.96214 16.5858 2.03091 16.7047 2.13074 16.7941L8.42069 22.4322C8.51589 22.5142 8.63382 22.5652 8.75876 22.5785C8.98285 22.7537 9.2171 22.9155 9.46029 23.063C10.0964 23.4688 10.8301 23.6955 11.5843 23.7192C11.8653 23.7184 12.1447 23.6766 12.4136 23.5952C12.4704 23.6802 12.5471 23.75 12.637 23.7986C12.7269 23.8471 12.8274 23.873 12.9296 23.8738H13.7944C13.8802 23.8732 13.9649 23.8549 14.0434 23.8203C14.1219 23.7856 14.1924 23.7352 14.2506 23.6721C14.415 23.702 14.5816 23.7177 14.7487 23.7192C15.5028 23.6955 16.2366 23.4688 16.8726 23.063C16.9157 23.0375 16.958 23.0052 17.001 22.9783C17.0817 22.9559 17.1569 22.9173 17.2223 22.865L17.4706 22.6605C17.6788 22.506 17.884 22.3347 18.0867 22.1531L24.573 16.8115C24.6865 16.7181 24.7639 16.588 24.7917 16.4437L25.9174 10.5983C25.937 10.497 25.9314 10.3925 25.9011 10.2938C25.8709 10.1952 25.8169 10.1054 25.7439 10.0325ZM21.3442 5.63276L19.7042 3.99275L21.6632 2.27853L21.3442 5.63276ZM4.62837 2.27853L6.75856 4.14255L4.97525 5.92595L4.62837 2.27853ZM13.9595 22.2561C13.939 22.2461 13.9181 22.2373 13.8967 22.2296L13.8582 21.2986L15.426 20.3187C15.5442 20.245 15.6346 20.1342 15.6833 20.0037C15.7319 19.8732 15.736 19.7302 15.695 19.5971C15.6523 19.465 15.568 19.3502 15.4547 19.27C15.3413 19.1899 15.205 19.1486 15.0662 19.1525L13.3071 19.2238L11.6594 19.1525C11.5204 19.1477 11.3836 19.1884 11.2699 19.2685C11.1561 19.3486 11.0717 19.4637 11.0294 19.5963C10.9882 19.7294 10.9921 19.8725 11.0407 20.0032C11.0893 20.1339 11.1797 20.2449 11.298 20.3187L12.599 21.1319C12.5932 21.1702 12.5909 21.209 12.5922 21.2477L12.6307 22.1819C12.5406 22.1877 12.4528 22.2131 12.3734 22.2561C11.7523 22.5956 10.9884 22.5018 10.1042 21.977C7.58757 20.4843 5.20771 16.2363 5.20771 13.2362C5.20771 13.2309 5.20629 13.226 5.20613 13.2208C5.20629 13.2155 5.20771 13.2106 5.20771 13.2054C5.19328 12.6906 5.28175 12.1782 5.46793 11.6981C5.6541 11.218 5.93424 10.7799 6.29193 10.4095C6.64961 10.039 7.07765 9.74375 7.55094 9.54088C8.02422 9.33802 8.53325 9.23168 9.04817 9.22809C9.98355 9.23741 10.8771 9.61737 11.5327 10.2846C12.1883 10.9519 12.5525 11.8519 12.5453 12.7873C12.5466 12.9539 12.6136 13.1133 12.7319 13.2307C12.8501 13.3481 13.01 13.4139 13.1766 13.4139C13.3432 13.4139 13.5031 13.3481 13.6213 13.2307C13.7396 13.1133 13.8066 12.9539 13.8079 12.7873C13.8008 11.8519 14.1651 10.9518 14.8208 10.2846C15.4765 9.61733 16.37 9.23739 17.3055 9.22809C17.821 9.23522 18.33 9.34516 18.8026 9.55147C19.2751 9.75778 19.7017 10.0563 20.0575 10.4296C20.4132 10.8028 20.6909 11.2433 20.8742 11.7253C21.0576 12.2072 21.1429 12.7209 21.1252 13.2362C21.1252 15.7994 19.3868 19.2678 17.3114 21.1563L16.6692 21.6852C16.5231 21.7908 16.3762 21.8895 16.2287 21.977C15.3441 22.5018 14.5806 22.5956 13.9595 22.2561ZM23.595 15.9813L21.1147 18.024C21.8853 16.5409 22.3199 14.9062 22.3878 13.2362C22.4108 11.8639 21.8887 10.5384 20.936 9.55041C19.9833 8.56241 18.6777 7.99247 17.3055 7.96556C16.4634 7.96858 15.6374 8.19539 14.9118 8.62275C14.1863 9.05011 13.5875 9.66266 13.1766 10.3976C12.7658 9.6627 12.167 9.05017 11.4416 8.62281C10.7161 8.19545 9.89012 7.96862 9.04817 7.96556C7.6772 7.98548 6.37009 8.54828 5.41347 9.53054C4.45685 10.5128 3.92881 11.8343 3.94515 13.2054C3.94515 13.2106 3.94658 13.2155 3.94673 13.2208C3.94658 13.226 3.94515 13.2309 3.94515 13.2362C4.00525 14.8059 4.39621 16.3452 5.09243 17.7534L3.12723 15.9918L2.00387 10.6829L7.98661 4.69976L18.5444 4.61869L24.6144 10.6883L23.595 15.9813Z" fill="white"/>
</svg>
