<svg width="900" height="64" viewBox="0 0 900 64" fill="none" xmlns="http://www.w3.org/2000/svg">
<g clip-path="url(#clip0_13291_98598)">
<rect width="900" height="64" fill="#EEF8FF"/>
<g opacity="0.2">
<g style="mix-blend-mode:overlay">
<g style="mix-blend-mode:overlay">
<path d="M896.746 0.891113L883.823 44.5248L883.58 44.9214L865.154 75.9068L857.029 89.5747L856.301 90.3678L834.444 114.289L823.171 126.629L785.356 156.021L746.051 178.477L707.111 194.734L690.287 199.695L689.349 199.97" stroke="url(#paint0_linear_13291_98598)" stroke-width="0.5" stroke-linecap="round" stroke-linejoin="round"/>
</g>
<g style="mix-blend-mode:overlay">
<path d="M906.732 0.891113L894.108 41.7654L893.744 42.3561L875.626 72.2086L865.526 88.8383L865.122 89.2672L864.466 89.9793L829.669 127.317L789.904 157.736L748.73 180.791L708.066 197.413L690.085 202.543L688.175 203.094L687.949 203.158" stroke="url(#paint1_linear_13291_98598)" stroke-width="0.5" stroke-linecap="round" stroke-linejoin="round"/>
</g>
<g style="mix-blend-mode:overlay">
<path d="M916.184 0.891113L904.304 38.488L903.9 39.1435L903.188 40.2926L885.959 68.1706L873.966 87.5678L873.408 88.1586L872.623 88.9921L852.425 110.412L836.272 127.544L794.629 158.942L751.692 182.669L709.385 199.63L687.285 205.805L686.573 206.007" stroke="url(#paint2_linear_13291_98598)" stroke-width="0.5" stroke-linecap="round" stroke-linejoin="round"/>
</g>
<g style="mix-blend-mode:overlay">
<path d="M972.984 0.891113L955.44 35.7123L948.036 44.4844L942.598 50.9016L938.794 55.9107L936.083 60.0216L921.436 78.6177L916.403 85.043L908.974 92.6498L901.44 99.4797L895.128 104.683L893.607 105.856L886.275 110.866L878.749 115.43L871.312 119.209L864.013 122.268L856.835 124.582L849.835 126.225L842.981 127.172L836.273 127.544L829.669 127.317L823.171 126.629L816.689 125.488L810.207 124.024L803.661 122.292L796.993 120.431L790.163 118.513L783.131 116.684L775.864 115.025L768.354 113.674L760.61 112.703L752.639 112.249L744.506 112.363L736.219 113.131L727.86 114.572L719.452 116.749L711.077 119.638L702.709 123.239L694.439 127.503L686.193 132.375L683.271 134.317" stroke="url(#paint3_linear_13291_98598)" stroke-width="0.5" stroke-linecap="round" stroke-linejoin="round"/>
</g>
<g style="mix-blend-mode:overlay">
<path d="M925.134 0.891113L914.299 34.5713L913.756 35.4534L896.52 63.1129L882.431 85.7309L881.808 86.3863L880.716 87.5355L861.537 107.677L842.981 127.172L842.22 127.738L821.358 143.348L799.606 159.638L754.985 184.02L711.133 201.41L686.5 208.159L685.489 209.341L684.623 210.482L683.765 211.445L682.859 213.015L680.957 214.836L679.824 215.782" stroke="url(#paint4_linear_13291_98598)" stroke-width="0.5" stroke-linecap="round" stroke-linejoin="round"/>
</g>
<g style="mix-blend-mode:overlay">
<path d="M549.473 0.891113L583.655 6.53954L594.11 17.5936L604.687 28.5506L614.819 39.4429L624.885 50.2785L634.248 61.0655" stroke="url(#paint5_linear_13291_98598)" stroke-width="0.5" stroke-linecap="round" stroke-linejoin="round"/>
</g>
<g style="mix-blend-mode:overlay">
<path d="M933.534 0.891113L924.163 30.0072L923.572 30.9379L906.886 57.602L890.855 83.2223L890.022 84.0881L888.84 85.3263L871.077 103.947L849.835 126.225L849.002 126.848L847.561 127.916L829.37 141.471L804.842 159.735L758.683 184.862L713.383 202.673L685.731 210.919L683.943 212.141" stroke="url(#paint6_linear_13291_98598)" stroke-width="0.5" stroke-linecap="round" stroke-linejoin="round"/>
</g>
<g style="mix-blend-mode:overlay">
<path d="M785.89 0.891113L791.029 29.813L787.533 60.9441L776.721 88.7331L760.61 112.703L740.97 132.739L734.593 131.113L727.836 130.069L720.787 129.656L713.431 129.947L705.873 130.967L698.105 132.731L690.231 135.223L684.51 137.514" stroke="url(#paint7_linear_13291_98598)" stroke-width="0.5" stroke-linecap="round" stroke-linejoin="round"/>
</g>
<g style="mix-blend-mode:overlay">
<path d="M730.425 0.891113L743.866 26.5923L748.956 51.7998L746.998 75.2432L739.48 96.2913L728.321 113.86L727.86 114.572L714.079 129.259L713.431 129.947L697.368 142.393L690.748 142.458L687.22 144.441" stroke="url(#paint8_linear_13291_98598)" stroke-width="0.5" stroke-linecap="round" stroke-linejoin="round"/>
</g>
<g style="mix-blend-mode:overlay">
<path d="M699.513 0.891113L716.571 20.8387L727.544 43.6671L731.17 65.581L728.79 85.8523L721.661 103.971L711.667 118.764L711.076 119.638L698.938 131.898L698.104 132.731L686.095 141.568" stroke="url(#paint9_linear_13291_98598)" stroke-width="0.5" stroke-linecap="round" stroke-linejoin="round"/>
</g>
<g style="mix-blend-mode:overlay">
<path d="M941.384 0.891113L933.761 24.6744L932.992 25.9125L917.422 50.9178L899.288 80.0339L898.406 80.9645L896.836 82.6072L880.521 99.7387L856.835 124.582L855.743 125.399L854.181 126.565L837.98 138.655L810.385 159.25L809.333 159.824L792.291 169.09L762.803 185.121L716.175 203.442L685.651 211.68" stroke="url(#paint10_linear_13291_98598)" stroke-width="0.5" stroke-linecap="round" stroke-linejoin="round"/>
</g>
<g style="mix-blend-mode:overlay">
<path d="M798.716 0.891113L802.601 25.3056L798.223 58.6136L786.189 87.9239L786.076 88.2152L768.354 113.674L746.982 134.827L723.603 151.813L699.594 164.849L694.156 167.034" stroke="url(#paint11_linear_13291_98598)" stroke-width="0.5" stroke-linecap="round" stroke-linejoin="round"/>
</g>
<g style="mix-blend-mode:overlay">
<path d="M621.786 0.891113L642 9.16145L646.233 21.4456L650.87 33.6326L655.45 45.7063L660.208 57.7153L664.602 69.5948L668.948 81.4015L672.67 93.022L676.158 104.513L677.145 107.823L680.261 118.27L681.078 120.997" stroke="url(#paint12_linear_13291_98598)" stroke-width="0.5" stroke-linecap="round" stroke-linejoin="round"/>
</g>
<g style="mix-blend-mode:overlay">
<path d="M55.6562 459.037L43.1617 442.157L18.472 391.426L5.06309 337.321L4.37524 281.079L4.54518 280.302L16.1738 228.325L17.1206 224.077L17.8975 222.434L43.5825 168.208L43.9952 167.657L44.3836 167.131L83.0972 115.252L83.3238 115.041L84.1492 114.264L134.281 67.2804L134.686 67.0053L194.909 25.8963L245.372 0.891113" stroke="url(#paint13_linear_13291_98598)" stroke-width="0.5" stroke-linecap="round" stroke-linejoin="round"/>
</g>
<g style="mix-blend-mode:overlay">
<path d="M56.6189 466.126L43.7198 450.16L43.1129 449.067L15.8822 399.761L-0.828371 345.721L-5.09302 289.01L4.22932 231.142L4.52065 230.421L27.4947 173.719L27.7537 173.33L64.4685 118.812L64.8974 118.367L113.921 68.3081L173.86 24.2374L217.543 0.891113" stroke="url(#paint14_linear_13291_98598)" stroke-width="0.5" stroke-linecap="round" stroke-linejoin="round"/>
</g>
<g style="mix-blend-mode:overlay">
<path d="M811.664 0.891113L814.464 21.0733L809.009 56.6309L795.35 88.11L775.863 115.025L752.622 137.303L727.39 155.074L701.568 168.669L694.859 171.267" stroke="url(#paint15_linear_13291_98598)" stroke-width="0.5" stroke-linecap="round" stroke-linejoin="round"/>
</g>
<g style="mix-blend-mode:overlay">
<path d="M743.794 0.891113L753.132 18.5485L758.724 45.6335L756.677 70.8329L748.665 93.459L736.219 113.131L720.787 129.656L703.559 143.065L697.368 142.393L688.507 147.491" stroke="url(#paint16_linear_13291_98598)" stroke-width="0.5" stroke-linecap="round" stroke-linejoin="round"/>
</g>
<g style="mix-blend-mode:overlay">
<path d="M948.707 0.891113L943.156 18.5971L942.355 19.8999L927.667 43.6913L907.671 76.0848L906.498 77.3149L904.879 79.0385L890.329 94.422L864.013 122.268L862.799 123.182L860.768 124.703L846.591 135.337L816.244 158.084L814.844 158.853L812.951 159.889L800.173 166.872L767.618 185.582L727.876 202.503L725.465 203.199L719.792 204.809L689.745 213.363L684.914 214.738L680.698 215.629" stroke="url(#paint17_linear_13291_98598)" stroke-width="0.5" stroke-linecap="round" stroke-linejoin="round"/>
</g>
<g style="mix-blend-mode:overlay">
<path d="M52.7348 442.043L43.6634 427.267L44.5778 420.388L28.5712 368.711L24.7678 314.735L31.185 276.005L33.8798 259.732L34.0173 259.4L34.4948 258.243L52.9614 213.565L56.2874 205.529L56.6677 204.955L56.9428 204.55L91.0519 154.248L91.3675 153.787L91.5456 153.601L92.4357 152.695L137.834 106.544L138.335 106.172L138.57 106.002L140.043 104.91L193.59 65.2573L255.868 31.4639L321.756 5.78696L340.764 0.891113" stroke="url(#paint18_linear_13291_98598)" stroke-width="0.5" stroke-linecap="round" stroke-linejoin="round"/>
</g>
<g style="mix-blend-mode:overlay">
<path d="M58.0352 479.033L46.6817 467.162L43.024 461.878L12.4998 417.653L-11.2511 363.791L-22.9607 306.351L-21.0671 246.63L-20.8405 245.797L-4.68017 186.165L-4.40503 185.647L26.5804 127.01L27.0093 126.484L72.1158 71.2456L130.421 21.1947L163.284 0.891113" stroke="url(#paint19_linear_13291_98598)" stroke-width="0.5" stroke-linecap="round" stroke-linejoin="round"/>
</g>
<g style="mix-blend-mode:overlay">
<path d="M824.644 0.891113L826.513 17.0434L819.845 54.9315L804.51 88.288L783.13 116.684L757.915 140.038L730.716 158.578L703.057 172.642L694.787 175.734" stroke="url(#paint20_linear_13291_98598)" stroke-width="0.5" stroke-linecap="round" stroke-linejoin="round"/>
</g>
<g style="mix-blend-mode:overlay">
<path d="M682.236 0.891113L693.565 9.71982L710.996 31.2373L720.448 52.6819L723.167 73.1716L720.286 92.0186L713.092 108.802L703.397 122.284L702.709 123.239L691.186 134.309L690.231 135.223L685.036 138.857" stroke="url(#paint21_linear_13291_98598)" stroke-width="0.5" stroke-linecap="round" stroke-linejoin="round"/>
</g>
<g style="mix-blend-mode:overlay">
<path d="M540.118 0.891113L550.873 8.77302L563.99 18.6295L573.402 25.6374L577.132 28.4131L577.262 28.4535L614.818 39.4429L615.951 39.9931L643.918 53.5397L644.04 53.6044L644.242 53.7501L664.602 69.5948L665.549 70.8087L677.558 86.2569L677.639 86.354L677.833 86.8962L683.651 102.854L682.883 114.313L681.62 125.513L681.337 127.657" stroke="url(#paint22_linear_13291_98598)" stroke-width="0.5" stroke-linecap="round" stroke-linejoin="round"/>
</g>
<g style="mix-blend-mode:overlay">
<path d="M714.337 0.891113L722.996 10.6019L735.321 34.9597L739.78 58.4598L737.684 80.2524L730.473 99.7953L719.978 115.939L719.452 116.749L706.577 130.23L705.873 130.967L691.655 141.77L690.748 142.458L686.589 142.927" stroke="url(#paint23_linear_13291_98598)" stroke-width="0.5" stroke-linecap="round" stroke-linejoin="round"/>
</g>
<g style="mix-blend-mode:overlay">
<path d="M837.567 0.891113L838.725 13.1105L830.665 53.394L814.1 87.5435L813.549 88.6765L790.163 118.513L762.883 142.943L733.686 162.187L704.117 176.697L695.199 179.893L694.601 180.111" stroke="url(#paint24_linear_13291_98598)" stroke-width="0.5" stroke-linecap="round" stroke-linejoin="round"/>
</g>
<g style="mix-blend-mode:overlay">
<path d="M729.964 0.891113L722.997 10.6019L716.571 20.8387L710.996 31.2373L706.116 41.7896L701.965 52.5119L698.299 63.3395L695.151 74.3126L692.214 85.3263L689.543 96.4289L688.791 112.015L687.997 114.264L684.251 124.979L684.081 126.459L682.203 130.044L681.475 129.866" stroke="url(#paint25_linear_13291_98598)" stroke-width="0.5" stroke-linecap="round" stroke-linejoin="round"/>
</g>
<g style="mix-blend-mode:overlay">
<path d="M107.641 585.956L97.2992 580.672L82.5712 572.288L68.4015 563.346L54.9117 553.83L42.2067 543.803L30.392 533.283L19.5483 522.351L9.78895 511.038L1.16254 499.441L-6.2662 487.602L-12.4487 475.634L-17.385 463.584L-21.067 451.559L-24.5467 447.238L-27.2415 443.888L-67.0071 394.452L-64.9759 382.062L-94.707 317.899L-86.5176 306.1L-77.3571 294.795L-67.3146 284.048L-56.5599 273.836L-52.1577 208.871L-36.5557 200.706L-20.6786 193.18L-4.6801 186.164L11.4155 179.73L27.4949 173.718L43.5824 168.207L59.5809 163.02L75.5228 158.286L76.2996 157.428L119.78 109.141L137.834 106.544L155.734 104.084L173.456 101.947L191.065 99.9079L208.504 98.1924L225.837 96.5496L242.977 95.2468L259.995 93.9844L260.044 93.9682L262.107 93.0861L324.774 66.422L390.346 47.4374L453.077 37.1764L510.646 34.5787L560.527 38.7058L562.202 39.0781L602.089 47.9877L602.47 48.1415L634.248 61.0649L634.28 61.0891L643.384 71.771L651.59 82.3719L659.448 92.8434L666.229 103.137L672.598 113.212L676.87 121.741L677.793 123.028L681.54 130.222L682.033 129.388L681.378 128.7L681.807 127.988L684.339 122.372L686.791 107.466L684.372 91.3382L676.28 75.5177L675.737 74.4576L660.257 57.7713L660.208 57.7147L659.949 57.5447L637.364 42.5335L636.562 42.0075L604.687 28.55L576.145 21.5906L563.991 18.6288L515.364 13.5711L459.365 14.7769L441.87 8.23828L379.292 18.8554L360.356 14.437L295.261 35.4851L275.718 33.3811L255.868 31.4632L235.864 29.5049L174.516 65.5237L174.063 65.7908L120.872 108.267L119.95 109.004L119.78 109.141L101.54 112.095L83.0972 115.251L64.4687 118.812L45.6136 122.672L12.2409 178.355L11.4155 179.73L-8.35401 238.027L-8.54823 238.61L-14.1967 297.457L-6.33094 354.516L13.9079 408.524L39.4473 449.795L44.2217 457.515L44.8205 458.478L57.3636 472.713L58.0272 478.952V479.025L58.3347 484.77L58.3752 484.932L58.9659 487.821L60.6815 492.514L61.0375 493.097L62.1785 496.132L63.6028 500.34L63.6756 500.542L66.0224 507.461L68.6119 513.15L70.4651 519.907L71.3876 524.528L72.0512 526.85L72.6257 528.897L73.0951 529.747L74.8268 531.714L78.2661 537.224L80.6776 542.646L83.5261 548.222L86.067 552.729L86.6011 553.781L89.2149 558.968L90.9062 561.979L91.5617 563.015L91.7155 563.67L92.4033 565.305L93.1559 566.81L94.1836 567.902L96.32 570.799L98.513 574.19L101.281 577.734L103.87 581.044L106.29 584.144L106.986 585.042L107.641 585.956ZM107.641 585.956L107.9 586.312L108.491 586.741L109.211 587.397L110.028 588.627L110.206 589.226L110.231 589.582L114.625 595.214L116.68 598.605L116.794 598.823L119.804 602.974L130.389 613.689L136.887 620.786L138.708 622.461L140.585 624.629L157.692 640.741L160.363 642.449L164.036 645.985L167.605 650.751L167.759 650.962L172.339 655.332L177.534 659.434L182.802 663.311L187.075 666.653L189.883 669.089L191.235 670.189" stroke="url(#paint26_linear_13291_98598)" stroke-width="0.5" stroke-linecap="round" stroke-linejoin="round"/>
</g>
<g style="mix-blend-mode:overlay">
<path d="M955.513 0.891113L952.228 11.6701L951.176 13.418L937.953 35.2187L916.023 71.3832L914.768 72.7346L899.967 88.5632L871.312 119.209L869.686 120.447L867.542 122.065L855.759 131.007L822.427 156.28L820.784 157.186L818.316 158.545L808.16 164.145L772.4 183.866L770.588 184.587L767.885 185.137L766.072 185.323L752.833 190.534L719.93 204.129L682.746 215.062L680.698 215.629" stroke="url(#paint27_linear_13291_98598)" stroke-width="0.5" stroke-linecap="round" stroke-linejoin="round"/>
</g>
<g style="mix-blend-mode:overlay">
<path d="M757.891 0.891113L763.126 10.8204L769.017 39.9284L766.703 66.9972L757.963 91.2903L744.862 111.804L744.506 112.363L727.836 130.069L709.329 144.4L703.559 143.065L689.899 150.995" stroke="url(#paint28_linear_13291_98598)" stroke-width="0.5" stroke-linecap="round" stroke-linejoin="round"/>
</g>
<g style="mix-blend-mode:overlay">
<path d="M68.1831 513.846L62.3324 504.645L57.0238 494.927L51.2864 488.72L48.4298 485.628L45.9778 482.974L12.9774 447.255L11.9577 437.05L11.8525 427.186L12.4999 417.653L13.908 408.525L15.8825 399.761L18.472 391.426L21.45 383.447L24.8892 375.913L17.9218 321.84L24.7679 314.735L31.703 307.946L31.7677 307.638L40.0542 270.883L43.979 253.444L44.2703 252.829L44.4565 252.441L64.5577 210.085L69.3322 200.01L69.494 199.792L70.2628 198.78L105.982 151.214L107.123 149.684L107.617 149.223L107.868 148.988L109.243 147.702L155.734 104.084L155.855 103.995L156.94 103.251L212.841 64.9903L213.391 64.7152L275.718 33.3817L341.088 10.1568L381.558 0.891113" stroke="url(#paint29_linear_13291_98598)" stroke-width="0.5" stroke-linecap="round" stroke-linejoin="round"/>
</g>
<g style="mix-blend-mode:overlay">
<path d="M491.33 0.891113L499.56 5.26905L515.364 13.5718L530.683 21.9392L545.953 30.2662L560.527 38.7065L574.923 47.1225L588.421 55.6518L590.655 56.372L624.974 67.4908L625.573 67.8226L651.59 82.3726L654.058 84.6465L669.458 98.8566L670.477 100.685L677.793 113.835L678.845 115.721L681.208 126.718" stroke="url(#paint30_linear_13291_98598)" stroke-width="0.5" stroke-linecap="round" stroke-linejoin="round"/>
</g>
<g style="mix-blend-mode:overlay">
<path d="M696.284 0.891113L693.565 9.71982L690.838 21.3566L688.717 32.9771L687.261 44.6543L686.16 56.3153L685.48 68.0249L684.841 79.6778L684.372 91.3388L683.652 102.854L684.081 118.505" stroke="url(#paint31_linear_13291_98598)" stroke-width="0.5" stroke-linecap="round" stroke-linejoin="round"/>
</g>
<g style="mix-blend-mode:overlay">
<path d="M639.338 0.891113L642 9.16145L668.211 25.9287L668.673 26.2281L687.261 44.6543L698.299 63.3395L702.936 81.4743L702.094 98.3468L697.004 113.552L689.324 125.634L688.628 126.743L682.721 132.909" stroke="url(#paint32_linear_13291_98598)" stroke-width="0.5" stroke-linecap="round" stroke-linejoin="round"/>
</g>
<g style="mix-blend-mode:overlay">
<path d="M63.6028 500.34L57.0237 494.926L52.7024 485.418L49.247 476.136L46.6818 467.162L44.8205 458.479L43.72 450.16L43.1616 442.156L43.2182 434.55L43.6633 427.267L24.8892 375.913L28.5712 368.711L32.5849 361.937L31.7029 307.945L38.8322 301.577L39.0102 300.962L39.0912 300.662L48.543 267.039L54.0619 247.407L64.2178 241.783L64.6629 241.038L87.2971 203.409L95.3651 189.992L108.313 185.46L121.131 181.074L121.188 181.018L122.232 180.022L160.702 143.631L169.118 135.668L184.332 132.666L199.416 130.028L200.233 129.542L202.726 128.061L252.105 98.6783L259.995 93.9848L276.778 93.1027L277.903 92.6657L340.416 68.1217L342.787 67.1992L360.396 68.3645L426.462 53.3695L487.939 47.1465L542.684 48.2794L557.679 55.3521L557.792 55.3845L572.326 62.3681L585.897 69.5945L599.022 76.7158L610.926 84.0231L622.304 91.1686L632.355 98.4841L641.839 105.589L649.923 112.872L657.408 119.921L663.461 127.163L668.899 134.195L672.897 141.462L672.929 141.511L676.271 148.551L678.214 155.907L679.541 163.142L679.46 170.667L678.756 178.137L676.7 185.881L674.03 193.593L670.048 201.564L665.476 209.478L659.65 217.579L653.233 225.598L645.642 233.69L637.493 241.637L628.268 249.527L624.125 253.824L619.682 256.737L618.533 257.182L614.333 260.12" stroke="url(#paint33_linear_13291_98598)" stroke-width="0.5" stroke-linecap="round" stroke-linejoin="round"/>
</g>
<g style="mix-blend-mode:overlay">
<path d="M850.369 0.891113L850.968 9.19382L841.468 51.9293L824.199 85.7147L822.451 89.1296L796.992 120.431L767.601 145.873L736.349 165.812L704.87 180.702L694.244 184.36" stroke="url(#paint34_linear_13291_98598)" stroke-width="0.5" stroke-linecap="round" stroke-linejoin="round"/>
</g>
<g style="mix-blend-mode:overlay">
<path d="M610.4 0.891113L613.977 6.68521L621.43 18.5647L629.126 30.339L636.563 42.0081L644.04 53.6044L650.975 65.0874L657.764 76.4975L658.282 77.0802L672.67 93.022L674.2 96.3075L680.407 109.668L681.208 121.45L681.621 125.513" stroke="url(#paint35_linear_13291_98598)" stroke-width="0.5" stroke-linecap="round" stroke-linejoin="round"/>
</g>
<g style="mix-blend-mode:overlay">
<path d="M-126 263.155L-122.221 259.181L-109.775 247.844L-96.3902 237.122L-82.2206 227.055L-67.436 217.627L-52.1577 208.872L-51.8825 207.981L-31.3443 142.96L6.54393 78.5206L7.03755 77.9784L7.70112 77.242L61.0133 18.2248L83.5665 0.891113" stroke="url(#paint36_linear_13291_98598)" stroke-width="0.5" stroke-linecap="round" stroke-linejoin="round"/>
</g>
<g style="mix-blend-mode:overlay">
<path d="M66.0226 507.462L62.3325 504.645L61.7417 504.063L60.5602 502.906L52.6379 495.064L49.2391 491.698L14.9034 457.734L10.218 451.382L-23.9477 405.061L-52.1171 346.918L-67.3144 284.049L-67.4358 217.627L-50.6766 149.49L-50.2639 148.689L-15.9849 81.9599L-15.5317 81.4096L36.6394 17.9578L57.21 0.891113" stroke="url(#paint37_linear_13291_98598)" stroke-width="0.5" stroke-linecap="round" stroke-linejoin="round"/>
</g>
<g style="mix-blend-mode:overlay">
<path d="M777.684 0.891113L773.784 3.37545L763.126 10.8204L753.132 18.5485L743.867 26.5923L735.321 34.9597L727.544 43.6671L720.447 52.6819L714.063 62.0204L708.22 71.6098L702.936 81.4743L697.975 91.5088L693.346 101.737L688.79 112.015L684.34 122.373" stroke="url(#paint38_linear_13291_98598)" stroke-width="0.5" stroke-linecap="round" stroke-linejoin="round"/>
</g>
<g style="mix-blend-mode:overlay">
<path d="M863.026 0.891113L863.252 5.18813L852.182 50.4079L852.15 50.4808L834.428 83.6269L831.247 89.5585L803.661 122.292L772.133 148.762L738.817 169.324L705.42 184.603L694.827 188.09L693.176 188.633" stroke="url(#paint39_linear_13291_98598)" stroke-width="0.5" stroke-linecap="round" stroke-linejoin="round"/>
</g>
<g style="mix-blend-mode:overlay">
<path d="M963.953 0.891113L960.983 3.9581L952.227 11.6701L943.156 18.5971L933.76 24.6744L924.163 30.0072L914.299 34.5713L904.304 38.488L894.108 41.7654L883.823 44.5248L873.368 46.8069L862.839 48.7409L852.182 50.4079L841.468 51.9293L830.664 53.394L819.845 54.9315L809.009 56.6309L798.222 58.6135L787.532 60.9441L777.004 63.7198L766.703 66.9972L756.677 70.8329L746.998 75.2432L737.684 80.2524L728.79 85.8523L720.285 92.0186L712.193 98.7352L704.433 105.921L697.004 113.552L689.761 121.523L682.26 130.959L681.345 130.182L681.596 129.664L684.08 126.459L689.777 116.652L693.346 101.737L692.213 85.3263L685.48 68.0249L672.063 50.675L671.902 50.4646L671.707 50.3108L650.87 33.6326L650.344 33.3655L621.713 18.7185L621.43 18.5647L621.292 18.5243L583.655 6.53954L578.265 0.891113" stroke="url(#paint40_linear_13291_98598)" stroke-width="0.5" stroke-linecap="round" stroke-linejoin="round"/>
</g>
<g style="mix-blend-mode:overlay">
<path d="M961.882 0.891113L960.983 3.9581L959.867 5.83551L947.817 26.1553L924.26 65.8643L922.569 67.7093L909.864 81.5471L878.749 115.43L876.88 116.878L864.855 126.12L861.893 128.402L828.893 153.771L822.427 156.28L816.244 158.084L810.386 159.249L804.842 159.735L799.607 159.638L794.63 158.942L789.904 157.736L785.356 156.021L780.93 153.925L776.543 151.457L772.133 148.762L767.601 145.873L762.884 142.943L757.915 140.038L752.623 137.303L746.982 134.827L740.97 132.739L719.363 148.859L697.02 161.337L693.395 162.834" stroke="url(#paint41_linear_13291_98598)" stroke-width="0.5" stroke-linecap="round" stroke-linejoin="round"/>
</g>
<g style="mix-blend-mode:overlay">
<path d="M772.497 0.891113L773.784 3.37545L779.812 34.6684L777.004 63.7198L767.52 89.2429L767.342 89.7204L752.639 112.249L734.593 131.113L714.589 146.375L709.329 144.4L691.355 154.791" stroke="url(#paint42_linear_13291_98598)" stroke-width="0.5" stroke-linecap="round" stroke-linejoin="round"/>
</g>
<g style="mix-blend-mode:overlay">
<path d="M692.108 156.976L693.864 158.189L697.02 161.337L699.594 164.849L701.568 168.669L703.057 172.642L704.117 176.697L704.87 180.702L705.42 184.603L705.906 188.277L706.423 191.683L707.111 194.734L708.066 197.413L709.385 199.63L711.133 201.41L713.383 202.673L716.175 203.442L719.525 203.66L723.45 203.353L760.245 188.706L768.37 185.978L775.88 183.259L777.879 182.321L783.77 180.136L796.62 173.362L803.653 169.794L808.079 167.067L823.001 158.125L823.762 157.671L823.956 157.566L833.076 152.144L835.245 150.898L837.098 149.895L842.625 146.674L867.93 125.812L870.616 123.684L882.65 114.774L885.611 112.533L890.855 108.09L893.858 105.565L901.44 99.4797L926.348 70.0804L938.608 55.9674L939.636 55.0853L945.494 47.8993L945.964 47.3248L947.801 44.9133L950.633 39.5804L971.155 0.891113" stroke="url(#paint43_linear_13291_98598)" stroke-width="0.5" stroke-linecap="round" stroke-linejoin="round"/>
</g>
<g style="mix-blend-mode:overlay">
<path d="M665.646 0.891113L667.152 1.70034L690.838 21.3566L706.116 41.7896L714.063 62.0204L715.673 81.183L712.193 98.7352L704.732 114.24L695.256 126.443L694.439 127.503L684.186 136.672" stroke="url(#paint44_linear_13291_98598)" stroke-width="0.5" stroke-linecap="round" stroke-linejoin="round"/>
</g>
<g style="mix-blend-mode:overlay">
<path d="M-126 183.267L-125.069 182.709L-107.234 173.265L-88.7754 164.598L-69.8798 156.676L-38.7487 86.0546L11.6663 18.1682L30.9098 0.891113" stroke="url(#paint45_linear_13291_98598)" stroke-width="0.5" stroke-linecap="round" stroke-linejoin="round"/>
</g>
<g style="mix-blend-mode:overlay">
<path d="M667.168 0.891113L667.151 1.70034L667.694 14.0168L668.673 26.2281L670.21 38.3909L671.902 50.4646L673.892 62.5221L675.737 74.4583L677.639 86.354L679.096 98.0635L679.937 101.689L682.883 114.313" stroke="url(#paint46_linear_13291_98598)" stroke-width="0.5" stroke-linecap="round" stroke-linejoin="round"/>
</g>
<g style="mix-blend-mode:overlay">
<path d="M875.674 0.891113L875.448 0.972037L863.252 5.18813L850.968 9.19382L838.725 13.1105L826.513 17.0434L814.464 21.0733L802.601 25.3056L791.028 29.813L779.813 34.6684L769.017 39.9284L758.724 45.6335L748.957 51.7998L739.78 58.4598L731.17 65.581L723.166 73.1716L715.673 81.183L708.705 89.6071L702.094 98.3468L695.863 107.41L689.778 116.652L684.267 125.448L683.862 126.087" stroke="url(#paint47_linear_13291_98598)" stroke-width="0.5" stroke-linecap="round" stroke-linejoin="round"/>
</g>
<g style="mix-blend-mode:overlay">
<path d="M875.448 0.891113V0.972037L865.073 40.2602L862.84 48.7409L844.576 81.4824L839.914 89.8418L810.208 124.024L776.544 151.457L741.196 172.675L705.906 188.277L692.408 192.549L691.955 192.695" stroke="url(#paint48_linear_13291_98598)" stroke-width="0.5" stroke-linecap="round" stroke-linejoin="round"/>
</g>
<g style="mix-blend-mode:overlay">
<path d="M68.3205 514.251L60.9565 507.567L57.2988 504.249L17.8731 468.457L17.8245 468.4L14.7009 464.588L12.2084 461.554L9.73219 458.535L-24.9029 416.302L-57.434 358.239L-77.3572 294.796L-82.2207 227.055L-69.8799 156.676L-50.6769 149.49L-31.3444 142.96L-11.9552 137.093L7.36924 131.768L26.5804 127.01L45.6135 122.672L45.8967 122.357L46.6736 121.491L93.2124 69.6596L93.6251 69.3278L152.408 22.619L190.231 0.891113" stroke="url(#paint49_linear_13291_98598)" stroke-width="0.5" stroke-linecap="round" stroke-linejoin="round"/>
</g>
<g style="mix-blend-mode:overlay">
<path d="M966.122 0.891113L957.544 15.8214L932.385 59.5603L930.475 61.6967L919.47 73.9404L918.555 74.9519L886.275 110.866L883.653 113.334L882.65 114.774L879.971 117.194L867.728 126.346L841.865 145.711L835.245 150.898L833.076 152.144L825.567 156.32L822.645 158.157L815.095 162.729L790.066 177.336L783.77 180.136L779.7 181.811L775.88 183.259L768.103 186.432L738.542 199.056L732.983 201.062L728.111 202.446L727.941 202.487L725.311 203.207L721.063 204.202L713.156 206.169L683.013 214.415L680.52 215.386L679.873 215.718" stroke="url(#paint50_linear_13291_98598)" stroke-width="0.5" stroke-linecap="round" stroke-linejoin="round"/>
</g>
<g style="mix-blend-mode:overlay">
<path d="M69.9632 519.487L63.3275 513.952L21.8868 479.357L15.4615 472.268L12.2812 468.756L-24.7654 427.849L-25.7526 426.312L-57.7253 376.293L-61.7634 369.965L-86.5178 306.101L-96.3904 237.122L-88.7755 164.599L-88.4195 163.619L-61.6177 90.8452L-61.1079 90.0845L-13.8407 18.9855L4.71493 0.891113" stroke="url(#paint51_linear_13291_98598)" stroke-width="0.5" stroke-linecap="round" stroke-linejoin="round"/>
</g>
<g style="mix-blend-mode:overlay">
<path d="M108.92 587.745L102.332 585.026L101.515 584.686L101.038 584.492L51.1 563.865L49.9428 563.241L36.7199 555.772L22.8335 547.081L9.57026 537.767L-2.98901 527.878L-14.6905 517.407L-25.4775 506.417L-35.2045 494.942L-43.7985 483.055L-51.1463 470.795L-57.2156 458.276L-61.9091 445.547L-65.2512 432.721L-67.1853 419.862L-67.7598 407.092L-67.0073 394.452L-101.772 330.175L-94.7072 317.899L-109.775 247.844L-107.234 173.265L-84.4786 96.4285L-61.6178 90.8448L-38.7489 86.0542L-15.9853 81.9594L6.54373 78.5202L28.7652 75.6232L50.6387 73.244L72.1157 71.2452L93.2123 69.6591L113.921 68.3077L134.281 67.28L154.325 66.3979L174.063 65.791L193.589 65.2569L212.841 64.9899L231.971 64.7552L250.851 64.8038L269.649 64.8766L288.188 65.2569L306.639 65.6615L324.774 66.4222L342.787 67.1991L408.489 50.3994L470.856 42.0077L526.774 41.4332L574.923 47.1221L575.32 47.2273L613.669 57.7715L631.804 66.3089L643.384 71.7712L643.983 72.2325L663.761 87.7454L669.458 98.8562L674.2 109.724L678.529 120.22L678.586 120.366L680.447 128.66L681.636 131.136L682.3 130.287L681.612 129.647L681.305 128.968L680.665 127.147L681.507 126.904L684.08 118.504L686.791 107.466L689.543 96.4285L684.841 79.6774L673.892 62.5217L673.544 62.198L655.911 46.1186L655.45 45.7059L629.125 30.3386L628.713 30.1849L594.709 17.8117L594.11 17.5932L550.873 8.77261L499.56 5.26864L441.869 8.23852L423.985 1.80514L360.356 14.4372L341.088 10.1564L321.755 5.78655L302.099 1.48145L235.864 29.5051L215.52 27.7086L194.908 25.8959L173.86 24.237L152.408 22.6186L130.421 21.1943L107.892 19.9157L84.7559 18.9285L61.0131 18.2244L36.639 17.9574L11.6662 18.1678L-13.8408 18.9851L-39.7766 20.4903L-66.0524 22.7966L-107.121 102.846L-124.803 181.511L-125.07 182.709L-122.221 259.181L-101.772 330.175L-107.59 342.839L-112.081 355.844L-115.124 369.091L-116.702 382.508L-116.718 395.981L-115.221 409.431L-112.17 422.735L-107.655 435.828L-101.675 448.606L-94.3916 461.003L-85.8219 472.931L-76.1435 484.366L-65.4131 495.234L-53.8006 505.535L-41.3708 515.214L-31.1341 522.497L-29.4266 523.719L-27.9619 524.536L-25.1134 526.284L-14.5772 532.758L-0.415651 540.615L38.6216 558.176L45.3544 561.307L46.7787 562.003L48.8665 562.877L50.1451 563.46L50.2584 563.516L51.3589 564.034L54.4907 565.604L65.9089 571.334L81.0334 578.212L96.425 584.5L110.23 589.582" stroke="url(#paint52_linear_13291_98598)" stroke-width="0.5" stroke-linecap="round" stroke-linejoin="round"/>
</g>
<g style="mix-blend-mode:overlay">
<path d="M968.906 0.891113L954.153 27.4905L940.323 52.4148L937.604 55.5304L929.156 65.1764L915.165 81.1911L893.607 105.856L890.855 108.09L883.653 113.334L874.841 120.754L864.588 130.773L857.143 136.769L849.811 142.086L842.625 146.674L835.641 150.583L828.892 153.771L826.554 155.074L816.851 160.512L777.878 182.321L772.4 183.866L767.375 184.805L762.803 185.121L758.684 184.862L754.985 184.02L751.692 182.669L748.73 180.791L746.051 178.477L743.567 175.734L741.196 172.675L738.817 169.324L736.349 165.812L733.686 162.187L730.717 158.578L727.391 155.074L723.603 151.813L719.363 148.859L714.589 146.375L693.864 158.189L692.505 158.764" stroke="url(#paint53_linear_13291_98598)" stroke-width="0.5" stroke-linecap="round" stroke-linejoin="round"/>
</g>
<g style="mix-blend-mode:overlay">
<path d="M71.3877 524.528L69.9472 523.411L27.0337 490.386L21.887 479.356L17.8732 468.456L17.8651 468.424L14.9033 457.734L12.9774 447.254L10.7277 443.847L-22.0461 394.136L-19.2057 383.608L-15.6047 373.477L-11.251 363.79L-6.33088 354.516L-0.828108 345.72L5.06309 337.32L11.3751 329.398L17.9218 321.839L23.9182 266.472L33.8798 259.731L43.979 253.443L54.062 247.406L54.1753 247.196L54.7499 246.128L76.3725 206.071L82.3932 194.912L95.3652 189.992L95.4866 189.862L96.3686 188.883L134.103 146.9L138.335 142.198L138.902 141.737L191.065 99.9079L191.162 99.8513L192.481 99.0744L250.851 64.8035L314.731 37.5729L379.292 18.8554L398.212 23.2171L443.221 17.0022L459.365 14.7769L476.853 21.2669L493.806 27.9269L510.646 34.5787L526.774 41.4329L542.684 48.279L543.048 48.3357L559.33 50.9657L588.421 55.6511L601.596 64.1318L613.694 72.6935L625.371 81.1419L635.826 89.6388L645.788 97.9415L654.43 106.244L662.547 114.304L669.28 122.332L675.487 130.068L680.269 137.788L683.878 143.525L684.963 145.597L687.334 152.629L689.357 157.63L690.166 160.39L690.482 166.977L690.797 173.961L689.713 181.025L688.078 187.936L685.092 194.952L681.548 201.863L676.692 208.887L671.303 215.83L664.667 222.846L657.505 229.773L649.187 236.717L640.358 243.53L633.811 248.167L630.032 250.838L628.948 251.598L625.881 253.192" stroke="url(#paint54_linear_13291_98598)" stroke-width="0.5" stroke-linecap="round" stroke-linejoin="round"/>
</g>
<g style="mix-blend-mode:overlay">
<path d="M54.9116 425.041L55.0896 423.722L55.4942 418.851L55.381 417.596L55.7613 411.438L56.2064 404.131L52.314 391.013L54.2157 386.101L54.0295 332.91L58.3994 328.023L58.8364 326.534L63.6513 310.333L74.3898 274.152L81.3815 269.507L81.8266 268.795L83.8254 265.598L94.7905 248.022L113.856 217.465L123.526 213.379L124.101 212.812L147.504 189.604L171.279 166.031L183.498 162.891L195.37 159.808L197.336 158.594L231.631 137.505L257.915 121.329L271.907 119.605L274.836 118.416L318.308 100.807L341.428 91.4439L411.256 72.7749H411.353L477.217 63.8248L536.339 63.1289L536.728 63.1775L585.896 69.5947L588.81 70.4444L624.424 80.8672L625.371 81.1424L626.083 81.5227L652.156 95.3687L653.84 96.2669L657.594 99.6576L668.236 109.271L672.597 113.212L677.841 123.077L680.665 127.147L681.305 127.422" stroke="url(#paint55_linear_13291_98598)" stroke-width="0.5" stroke-linecap="round" stroke-linejoin="round"/>
</g>
<g style="mix-blend-mode:overlay">
<path d="M58.0272 478.952L57.8168 474.987L57.5416 472.915L56.8376 467.768L56.6191 466.126L55.6561 459.037L55.1868 455.557L54.7903 451.705L53.4308 436.289L44.5778 420.388L45.7188 413.825L32.585 361.937L36.6959 355.463L38.8322 301.577L45.9454 295.475L46.002 295.313L57.137 262.588L64.2178 241.782L74.2765 236.369L74.3413 236.264L75.0291 235.236L98.6425 199.929L108.313 185.46L108.806 184.958L146.986 145.735L153.775 138.751L153.872 138.678L155.094 137.772L155.2 137.699L208.504 98.1925L209.216 97.8041L269.649 64.8765L333.886 39.8955L398.212 23.2173L416.711 27.7894L435.161 32.3535L453.078 37.1765L470.856 42.0076L487.939 47.1462L504.771 52.2687L520.737 57.7229L536.339 63.1286L550.922 68.866L565.035 74.5144L577.999 80.4946L590.396 86.3535L601.555 92.5603L612.091 98.6133L621.317 105.055L629.886 111.343L637.129 118.059L643.692 124.662L648.911 131.727L653.451 138.727L656.672 146.22L659.221 153.706L660.459 161.693L661.05 169.696L660.354 178.169L659.003 186.658L656.397 195.543L653.144 204.42L648.661 213.556L643.522 222.628L637.202 231.813L630.234 240.836L622.166 249.818L613.499 258.534L607.843 264.659L603.813 267.257L603.174 267.67L602.834 267.888" stroke="url(#paint56_linear_13291_98598)" stroke-width="0.5" stroke-linecap="round" stroke-linejoin="round"/>
</g>
<g style="mix-blend-mode:overlay">
<path d="M73.0869 529.748L71.9863 528.963L33.3051 501.465L27.0336 490.387L22.7608 486.09L19.5158 482.845L16.1818 479.494L-23.5191 439.624L-24.7653 427.849L-24.9029 416.302L-23.948 405.061L-22.0463 394.137L-45.8862 336.058L-38.8945 325.66L-31.1906 315.771L-22.9607 306.351L-14.1968 297.458L-5.09291 289.01L4.3751 281.079L14.0292 273.529L23.918 266.473L24.1527 265.785L40.7419 218.283L43.1858 211.299L56.2872 205.529L69.3321 200.01L82.393 194.912L82.83 194.378L83.0323 194.135L119.788 149.393L122.774 145.76L138.335 142.199L153.775 138.752L169.118 135.668L171.878 133.767L223.693 98.0231L225.837 96.5503L225.91 96.5098L227.553 95.6844L288.189 65.2573L352.984 42.2104L416.711 27.7899L476.853 21.2675L530.683 21.9392L571.994 27.7009L577.132 28.4131L589.676 38.2209L602.089 47.9883L613.669 57.7719L624.974 67.4908L635.243 77.1935L645.132 86.7667L653.839 96.2671L662.102 105.557L669.093 114.701L674.96 122.47L675.842 123.749L680.835 132.237L681.895 132.699L688.628 126.743L696.607 120.253L704.732 114.24L713.091 108.802L721.661 103.971L730.474 99.7953L739.48 96.2913L748.665 93.459L757.963 91.2903L767.342 89.7204L776.721 88.7331L786.076 88.2152L795.35 88.11L804.51 88.288L813.549 88.6765L822.451 89.1296L831.247 89.5585L839.914 89.8418L848.516 89.8903L857.029 89.5747L865.526 88.8383L873.966 87.5678L882.431 85.7309L890.855 83.2223L899.287 80.0339L907.671 76.0848L916.022 71.3832L924.26 65.8643L932.385 59.5603L940.323 52.4148L947.801 44.9133L949.573 42.9064L955.44 35.7123L962.504 26.1796L969.14 15.8376L975.298 4.76733L977.143 0.891113" stroke="url(#paint57_linear_13291_98598)" stroke-width="0.5" stroke-linecap="round" stroke-linejoin="round"/>
</g>
<g style="mix-blend-mode:overlay">
<path d="M886.331 0.891113L876.564 35.4776L873.368 46.8069L873.181 47.1306L854.909 78.8039L848.516 89.8903L816.689 125.488L780.929 153.925L743.567 175.734L706.423 191.683L692.691 195.867L690.765 196.45" stroke="url(#paint58_linear_13291_98598)" stroke-width="0.5" stroke-linecap="round" stroke-linejoin="round"/>
</g>
<g style="mix-blend-mode:overlay">
<path d="M634.289 61.0894L635.972 62.198L657.764 76.4971L663.761 87.7454L665.832 90.5535L676.158 104.513L678.845 115.721" stroke="url(#paint59_linear_13291_98598)" stroke-width="0.5" stroke-linecap="round" stroke-linejoin="round"/>
</g>
<g style="mix-blend-mode:overlay">
<path d="M645.148 0.891113L666.949 13.5879L667.694 14.0168L688.717 32.9771L701.965 52.512L708.22 71.6098L708.705 89.6071L704.433 105.921L696.607 120.253L687.156 131.25L686.193 132.375L683.409 134.665" stroke="url(#paint60_linear_13291_98598)" stroke-width="0.5" stroke-linecap="round" stroke-linejoin="round"/>
</g>
<g style="mix-blend-mode:overlay">
<path d="M592.961 0.891113L606.103 4.51647L613.977 6.68521L645.893 21.2918L646.233 21.4456L669.628 37.9782L670.21 38.3909L686.16 56.3153L695.151 74.3126L697.975 91.5088L695.863 107.41L689.761 121.523L683.223 129.195L682.171 129.818L681.904 130.676L681.839 130.829L682.082 131.566L682.195 131.784" stroke="url(#paint61_linear_13291_98598)" stroke-width="0.5" stroke-linecap="round" stroke-linejoin="round"/>
</g>
<g style="mix-blend-mode:overlay">
<path d="M56.8376 467.768L56.6676 466.19L55.9555 459.433L54.9197 451.899L52.9775 439.186L53.1313 438.369L53.4307 436.289V435.601L53.9891 430.414L45.7187 413.825L47.1996 407.65L36.6958 355.463L41.0171 349.394L43.3477 323.879L45.9453 295.475L53.1717 289.762L53.3902 289.203L65.0998 259.577L74.2765 236.369L84.3595 231.319L84.7479 230.793L108.774 197.954L121.131 181.074L133.901 177.044L134.459 176.55L136.166 175.045L172.582 143L184.332 132.666L185.869 131.678L239.141 97.6908L242.977 95.2469L243.867 94.8342L306.639 65.6614L371.709 44.8237L390.346 47.4375L408.489 50.3993L426.462 53.3692L443.82 56.7194L460.895 60.0696L477.217 63.8245L493.134 67.555L508.17 71.7145L522.704 75.8254L536.242 80.4056L549.19 84.9049L561.086 89.9303L572.31 94.8828L582.449 100.41L591.901 105.896L600.236 112.014L607.883 118.132L614.422 124.946L620.281 131.808L621.195 132.164L630.55 135.878L654.811 145.492L656.672 146.22L658.234 147.378L676.684 161.029L679.541 163.141L689.713 181.025L690.004 198.181L689.122 200.034L688.766 200.366L687.131 203.384L686.371 204.606L683.878 208.879L683.344 210.821L682.316 212.577L681.758 213.37L681.216 214.05L680.334 215.143L679.703 215.539L678.723 215.879L677.72 216.162L676.984 216.656L674.345 219.666L673.326 220.823L670.939 223.235L664.327 228.406L664.165 228.624L656.68 234.499L649.162 239.63L648.013 240.382L639.5 245.683L639.023 246.015" stroke="url(#paint62_linear_13291_98598)" stroke-width="0.5" stroke-linecap="round" stroke-linejoin="round"/>
</g>
<g style="mix-blend-mode:overlay">
<path d="M54.3775 451.09L52.2169 447.894L43.2182 434.55L21.4499 383.447L11.375 329.398L14.0293 273.529L14.1588 273.068L28.6521 222.701L30.1492 217.522L30.489 216.891L59.5809 163.021L59.8075 162.753L101.539 112.096L102.3 111.432L154.326 66.3983L215.52 27.709L273.906 0.891113" stroke="url(#paint63_linear_13291_98598)" stroke-width="0.5" stroke-linecap="round" stroke-linejoin="round"/>
</g>
<g style="mix-blend-mode:overlay">
<path d="M53.5035 436.314L54.2885 431.013L54.774 424.734L54.9682 421.416L55.3 418.365L48.7695 401.776L50.566 396.265L52.314 391.013L49.7487 338.13L54.0295 332.91L59.1115 312.542L67.4466 279.121L74.3898 274.152L74.9401 273.197L88.3247 249.713L104.194 221.892L113.856 217.465L114.827 216.438L116.64 214.512L139.217 190.542L159.011 169.535L171.279 166.031L172.825 164.938L209.313 139.188L229.074 125.245L230.094 124.719L233.169 123.141L278.793 99.7384L293.384 92.253L293.408 92.2449L296.006 91.3143L355.978 69.9425L360.396 68.3645L377.787 69.546L394.683 71.1645L460.895 60.0699L520.737 57.7231L572.326 62.3681L572.803 62.4895L613.694 72.6939L616.558 73.9725L645.132 86.7664L645.974 87.4219L665.047 102.223L666.229 103.137L670.194 108.664L675.009 115.389L678.586 120.366L678.61 120.414L681.467 126.807L681.394 128.078L681.483 128.717" stroke="url(#paint64_linear_13291_98598)" stroke-width="0.5" stroke-linecap="round" stroke-linejoin="round"/>
</g>
<g style="mix-blend-mode:overlay">
<path d="M55.3811 417.596L55.9799 412.077L56.5302 406.971L57.4689 392.251L57.0805 389.928L57.4527 389.143L57.4689 388.86L55.9395 381.423L56.4978 369.171L58.3995 328.022L62.5023 323.328L62.7856 322.519L63.1983 321.338L68.3612 306.618L81.3817 269.507L88.0497 265.007L88.1145 264.918L89.9757 262.207L102.122 244.534L123.526 213.378L132.857 209.389L134.079 208.264L157.538 186.722L183.499 162.89L184.381 162.308L186.938 160.616L219.129 139.277L243.576 123.076L245.898 121.976L293.246 99.6005L309.698 91.8157L311.106 91.3544L367.971 72.7583L377.787 69.5456L443.82 56.7193L504.771 52.2686L557.679 55.3517L557.792 55.3841L560.034 55.8211L601.596 64.1319L602.154 64.3423L635.244 77.1929L637.963 78.9489L659.448 92.8434L660.435 93.9601L673.107 108.47L674.2 109.724" stroke="url(#paint65_linear_13291_98598)" stroke-width="0.5" stroke-linecap="round" stroke-linejoin="round"/>
</g>
<g style="mix-blend-mode:overlay">
<path d="M58.3668 484.916L58.3102 484.868L49.2468 476.136L42.9834 467.939L11.8522 427.186L-15.605 373.477L-31.1907 315.771L-33.3352 255.135L-33.1815 254.391L-20.6788 193.181L-20.339 192.428L7.36911 131.768L7.70089 131.315L8.46157 130.279L50.6387 73.2444L51.0838 72.8317L107.892 19.9161L136.563 0.891113" stroke="url(#paint66_linear_13291_98598)" stroke-width="0.5" stroke-linecap="round" stroke-linejoin="round"/>
</g>
<g style="mix-blend-mode:overlay">
<path d="M60.6493 492.491L60.4389 492.297L59.7673 491.698L52.7027 485.418L49.2958 481.372L47.5964 479.357L45.5653 476.937L42.9434 473.83L11.9579 437.05L11.2701 435.869L-19.2056 383.609L-38.8942 325.66L-45.1819 264.223L-36.5555 200.706L-36.2884 200.019L-11.9549 137.093L-11.526 136.445L28.7656 75.6236L29.1379 75.2513L84.7563 18.9289L110.02 0.891113" stroke="url(#paint67_linear_13291_98598)" stroke-width="0.5" stroke-linecap="round" stroke-linejoin="round"/>
</g>
<g style="mix-blend-mode:overlay">
<path d="M91.5213 563.557L90.9549 562.902L90.8901 562.497L81.5597 555.222L69.7773 544.921L59.0064 534.336L49.3119 523.508L40.7421 512.535L33.3053 501.465L24.8731 493.72L20.8431 490.022L-21.067 451.56L-23.5189 439.623L-28.7223 432.397L-64.9758 382.063L-61.7632 369.965L-57.4338 358.239L-52.1172 346.918L-45.8861 336.058L-56.5598 273.836L-45.182 264.223L-33.3349 255.135L-21.067 246.63L-8.54817 238.61L4.2296 231.141L17.1206 224.077L30.1493 217.522L43.186 211.299L43.3802 210.983L44.0438 209.891L75.5228 158.286L91.3676 153.787L107.123 149.684L122.774 145.759L122.919 145.63L123.939 144.748L173.456 101.948L174.047 101.575L174.217 101.462L176.013 100.321L231.971 64.7553L295.261 35.4855L314.731 37.5733L333.886 39.8958L352.984 42.2102L371.709 44.824L435.161 32.3537L493.806 27.9272L545.953 30.2659L589.676 38.2207L591.116 38.7143L624.885 50.2782L625.201 50.4562L636.336 56.7763L650.975 65.0871L652.343 66.3252L668.948 81.4012L669.328 82.0243L679.096 98.0633L680.407 109.668L680.9 116.052L681.208 121.45L681.248 126.815L681.305 127.422L681.337 127.657L681.265 128.652L681.313 129.785L681.839 130.829L682.219 131.743L682.195 131.946L682.397 132.253L681.969 132.852L683.004 134.997L684.186 136.672L684.242 137.618L684.882 138.962L685.691 140.685L685.869 141.244L686.063 141.584L686.152 141.729L686.185 141.98L685.772 143.024L686.306 144.958L688.378 147.564L689.017 148.689L689.899 150.995L691.356 154.79L691.995 156.449L692.108 156.975L692.505 158.764L693.395 162.834L693.646 164.008L694.156 167.034L694.86 171.226V171.266L694.787 175.733L694.746 178.266L694.601 180.111L694.245 184.36L694.196 185.023L693.176 188.632L692.327 191.651L691.954 192.695L691.461 194.038L690.668 196.482L690.385 197.388L690.004 198.181L689.664 198.667L688.823 200.123L687.439 203.304L686.484 205.189L683.417 209.001L683.142 209.583L682.268 210.805L680.528 213.063L680.188 214.325L679.363 214.981L679.039 215.79L676.959 218.436L671.489 223.421L668.22 225.444L663.785 229.312L658.719 233.124L656.607 234.864L651.339 239.209L647.382 241.095L642.818 243.959L639.767 245.546L639.023 246.015L630.137 250.7L625.881 253.193L624.044 253.638L619.682 256.737L618.145 257.959L614.333 260.12L607.778 264.158L603.853 267.063L602.834 267.888L597.493 271.312L593.69 275.236L590.833 277.292L589.797 278.368L588.421 279.8L581.672 285.991L580.094 287.439L579.334 288.144L573.637 295.216L568.879 300.452L567.454 303.163L561.15 312.558L559.961 314.88L557.509 322.253L557.493 322.293L554.466 329.511L553.819 331.057L553.77 332.651L552.718 342.281L551.569 348.731L552.564 353.149L554.021 362.277L552.84 364.146L544.343 366.817L534.818 358.49L524.209 350.066L512.491 341.642L499.43 333.226L485.107 324.98L469.286 316.904L452.228 309.2L433.729 301.852L414.251 295.071L393.583 288.823L372.43 283.304L350.524 278.441L328.78 274.379L306.777 271.012L285.648 268.447L264.737 266.537L245.308 265.331L226.436 264.684L209.491 264.595L193.274 264.951L179.234 265.695L165.898 266.78L154.771 268.123L109.389 316.022L107.746 317.745L106.613 318.943L105.157 320.48L85.5735 354.225L73.9044 374.319L73.435 375.128L63.9994 408.8L63.2225 411.567L58.3914 428.796L58.1891 429.532L59.0955 481.096L62.8907 494.481L64.8329 501.352L65.7716 504.669L66.7103 507.987L68.4178 514.307L69.2998 517.148L70.4651 519.907L72.0998 524.989L74.8269 531.714L75.5633 534.101L76.7691 536.246L80.6776 542.647L82.5712 545.778L84.5538 548.805L87.548 554.275L88.2925 555.91L90.3803 559.543L90.9791 559.956L94.5155 565.273L94.5721 565.37L99.1038 572.184L102.705 578.358L104.242 581.206L106.371 584.176L107.148 584.791L108.491 586.742L108.92 587.745L109.365 588.368L109.745 588.902L109.972 589.218L110.206 589.226L111.946 591.524L114.601 595.093L134.508 617.857L139.039 623.149L140.771 625.01L144.097 629.048L148.248 633.216L154.528 638.532L160.597 644.019L161.86 645.192L165.364 648.494L167.128 650.29L167.759 650.962L182.43 663.262L183.28 663.975L185.619 665.933L187.974 667.851L189.438 669.137L190.595 670.189" stroke="url(#paint68_linear_13291_98598)" stroke-width="0.5" stroke-linecap="round" stroke-linejoin="round"/>
</g>
</g>
</g>
</g>
<defs>
<linearGradient id="paint0_linear_13291_98598" x1="677.92" y1="100.43" x2="872.961" y2="32.3188" gradientUnits="userSpaceOnUse">
<stop stop-color="#427DFF"/>
<stop offset="1" stop-color="#44D5BB"/>
</linearGradient>
<linearGradient id="paint1_linear_13291_98598" x1="675.893" y1="102.024" x2="879.911" y2="28.0513" gradientUnits="userSpaceOnUse">
<stop stop-color="#427DFF"/>
<stop offset="1" stop-color="#44D5BB"/>
</linearGradient>
<linearGradient id="paint2_linear_13291_98598" x1="673.921" y1="103.448" x2="886.282" y2="23.7619" gradientUnits="userSpaceOnUse">
<stop stop-color="#427DFF"/>
<stop offset="1" stop-color="#44D5BB"/>
</linearGradient>
<linearGradient id="paint3_linear_13291_98598" x1="667.308" y1="67.6035" x2="867.127" y2="-77.8345" gradientUnits="userSpaceOnUse">
<stop stop-color="#427DFF"/>
<stop offset="1" stop-color="#44D5BB"/>
</linearGradient>
<linearGradient id="paint4_linear_13291_98598" x1="666.307" y1="108.336" x2="892.075" y2="21.9438" gradientUnits="userSpaceOnUse">
<stop stop-color="#427DFF"/>
<stop offset="1" stop-color="#44D5BB"/>
</linearGradient>
<linearGradient id="paint5_linear_13291_98598" x1="544.802" y1="30.978" x2="617.938" y2="-3.56005" gradientUnits="userSpaceOnUse">
<stop stop-color="#427DFF"/>
<stop offset="1" stop-color="#44D5BB"/>
</linearGradient>
<linearGradient id="paint6_linear_13291_98598" x1="670.19" y1="106.515" x2="897.828" y2="16.3598" gradientUnits="userSpaceOnUse">
<stop stop-color="#427DFF"/>
<stop offset="1" stop-color="#44D5BB"/>
</linearGradient>
<linearGradient id="paint7_linear_13291_98598" x1="678.64" y1="69.2017" x2="783.843" y2="41.7072" gradientUnits="userSpaceOnUse">
<stop stop-color="#427DFF"/>
<stop offset="1" stop-color="#44D5BB"/>
</linearGradient>
<linearGradient id="paint8_linear_13291_98598" x1="683.818" y1="72.6652" x2="747.63" y2="63.4659" gradientUnits="userSpaceOnUse">
<stop stop-color="#427DFF"/>
<stop offset="1" stop-color="#44D5BB"/>
</linearGradient>
<linearGradient id="paint9_linear_13291_98598" x1="683.612" y1="71.2288" x2="730.627" y2="66.1792" gradientUnits="userSpaceOnUse">
<stop stop-color="#427DFF"/>
<stop offset="1" stop-color="#44D5BB"/>
</linearGradient>
<linearGradient id="paint10_linear_13291_98598" x1="671.559" y1="106.284" x2="903.091" y2="12.1251" gradientUnits="userSpaceOnUse">
<stop stop-color="#427DFF"/>
<stop offset="1" stop-color="#44D5BB"/>
</linearGradient>
<linearGradient id="paint11_linear_13291_98598" x1="688.18" y1="83.9619" x2="797.373" y2="60.0709" gradientUnits="userSpaceOnUse">
<stop stop-color="#427DFF"/>
<stop offset="1" stop-color="#44D5BB"/>
</linearGradient>
<linearGradient id="paint12_linear_13291_98598" x1="618.519" y1="60.9436" x2="679.411" y2="50.8672" gradientUnits="userSpaceOnUse">
<stop stop-color="#427DFF"/>
<stop offset="1" stop-color="#44D5BB"/>
</linearGradient>
<linearGradient id="paint13_linear_13291_98598" x1="-8.90432" y1="229.962" x2="237.704" y2="186.478" gradientUnits="userSpaceOnUse">
<stop stop-color="#427DFF"/>
<stop offset="1" stop-color="#44D5BB"/>
</linearGradient>
<linearGradient id="paint14_linear_13291_98598" x1="-17.3608" y1="233.506" x2="211.649" y2="196.771" gradientUnits="userSpaceOnUse">
<stop stop-color="#427DFF"/>
<stop offset="1" stop-color="#44D5BB"/>
</linearGradient>
<linearGradient id="paint15_linear_13291_98598" x1="688.269" y1="86.078" x2="807.842" y2="57.9405" gradientUnits="userSpaceOnUse">
<stop stop-color="#427DFF"/>
<stop offset="1" stop-color="#44D5BB"/>
</linearGradient>
<linearGradient id="paint16_linear_13291_98598" x1="684.638" y1="74.1905" x2="756.862" y2="62.5947" gradientUnits="userSpaceOnUse">
<stop stop-color="#427DFF"/>
<stop offset="1" stop-color="#44D5BB"/>
</linearGradient>
<linearGradient id="paint17_linear_13291_98598" x1="665.93" y1="108.259" x2="906.585" y2="7.57741" gradientUnits="userSpaceOnUse">
<stop stop-color="#427DFF"/>
<stop offset="1" stop-color="#44D5BB"/>
</linearGradient>
<linearGradient id="paint18_linear_13291_98598" x1="7.35558" y1="221.465" x2="322.59" y2="145.775" gradientUnits="userSpaceOnUse">
<stop stop-color="#427DFF"/>
<stop offset="1" stop-color="#44D5BB"/>
</linearGradient>
<linearGradient id="paint19_linear_13291_98598" x1="-33.2233" y1="239.96" x2="159.99" y2="214.732" gradientUnits="userSpaceOnUse">
<stop stop-color="#427DFF"/>
<stop offset="1" stop-color="#44D5BB"/>
</linearGradient>
<linearGradient id="paint20_linear_13291_98598" x1="687.528" y1="88.3115" x2="818.18" y2="55.316" gradientUnits="userSpaceOnUse">
<stop stop-color="#427DFF"/>
<stop offset="1" stop-color="#44D5BB"/>
</linearGradient>
<linearGradient id="paint21_linear_13291_98598" x1="679.98" y1="69.8733" x2="722.744" y2="65.6206" gradientUnits="userSpaceOnUse">
<stop stop-color="#427DFF"/>
<stop offset="1" stop-color="#44D5BB"/>
</linearGradient>
<linearGradient id="paint22_linear_13291_98598" x1="532.209" y1="64.2735" x2="664.582" y2="14.032" gradientUnits="userSpaceOnUse">
<stop stop-color="#427DFF"/>
<stop offset="1" stop-color="#44D5BB"/>
</linearGradient>
<linearGradient id="paint23_linear_13291_98598" x1="683.658" y1="71.9085" x2="738.909" y2="64.9728" gradientUnits="userSpaceOnUse">
<stop stop-color="#427DFF"/>
<stop offset="1" stop-color="#44D5BB"/>
</linearGradient>
<linearGradient id="paint24_linear_13291_98598" x1="686.659" y1="90.5004" x2="828.423" y2="52.286" gradientUnits="userSpaceOnUse">
<stop stop-color="#427DFF"/>
<stop offset="1" stop-color="#44D5BB"/>
</linearGradient>
<linearGradient id="paint25_linear_13291_98598" x1="678.803" y1="65.4671" x2="729.167" y2="59.1289" gradientUnits="userSpaceOnUse">
<stop stop-color="#427DFF"/>
<stop offset="1" stop-color="#44D5BB"/>
</linearGradient>
<linearGradient id="paint26_linear_13291_98598" x1="-137.77" y1="339.211" x2="575.139" y2="57.0809" gradientUnits="userSpaceOnUse">
<stop stop-color="#427DFF"/>
<stop offset="1" stop-color="#44D5BB"/>
</linearGradient>
<linearGradient id="paint27_linear_13291_98598" x1="665.555" y1="108.259" x2="910.445" y2="3.20405" gradientUnits="userSpaceOnUse">
<stop stop-color="#427DFF"/>
<stop offset="1" stop-color="#44D5BB"/>
</linearGradient>
<linearGradient id="paint28_linear_13291_98598" x1="685.539" y1="75.9425" x2="766.49" y2="61.6398" gradientUnits="userSpaceOnUse">
<stop stop-color="#427DFF"/>
<stop offset="1" stop-color="#44D5BB"/>
</linearGradient>
<linearGradient id="paint29_linear_13291_98598" x1="-8.51919" y1="257.366" x2="360.045" y2="168.323" gradientUnits="userSpaceOnUse">
<stop stop-color="#427DFF"/>
<stop offset="1" stop-color="#44D5BB"/>
</linearGradient>
<linearGradient id="paint30_linear_13291_98598" x1="480.867" y1="63.8042" x2="640.39" y2="-16.8887" gradientUnits="userSpaceOnUse">
<stop stop-color="#427DFF"/>
<stop offset="1" stop-color="#44D5BB"/>
</linearGradient>
<linearGradient id="paint31_linear_13291_98598" x1="682.956" y1="59.6974" x2="696.266" y2="59.2181" gradientUnits="userSpaceOnUse">
<stop stop-color="#427DFF"/>
<stop offset="1" stop-color="#44D5BB"/>
</linearGradient>
<linearGradient id="paint32_linear_13291_98598" x1="635.834" y1="66.8994" x2="701.23" y2="56.3392" gradientUnits="userSpaceOnUse">
<stop stop-color="#427DFF"/>
<stop offset="1" stop-color="#44D5BB"/>
</linearGradient>
<linearGradient id="paint33_linear_13291_98598" x1="-11.1839" y1="273.741" x2="548.349" y2="2.80653" gradientUnits="userSpaceOnUse">
<stop stop-color="#427DFF"/>
<stop offset="1" stop-color="#44D5BB"/>
</linearGradient>
<linearGradient id="paint34_linear_13291_98598" x1="685.608" y1="92.6246" x2="838.437" y2="48.8634" gradientUnits="userSpaceOnUse">
<stop stop-color="#427DFF"/>
<stop offset="1" stop-color="#44D5BB"/>
</linearGradient>
<linearGradient id="paint35_linear_13291_98598" x1="606.476" y1="63.2013" x2="678.96" y2="49.3155" gradientUnits="userSpaceOnUse">
<stop stop-color="#427DFF"/>
<stop offset="1" stop-color="#44D5BB"/>
</linearGradient>
<linearGradient id="paint36_linear_13291_98598" x1="-137.548" y1="132.022" x2="68.7643" y2="76.7604" gradientUnits="userSpaceOnUse">
<stop stop-color="#427DFF"/>
<stop offset="1" stop-color="#44D5BB"/>
</linearGradient>
<linearGradient id="paint37_linear_13291_98598" x1="-74.7897" y1="254.174" x2="64.9326" y2="241.835" gradientUnits="userSpaceOnUse">
<stop stop-color="#427DFF"/>
<stop offset="1" stop-color="#44D5BB"/>
</linearGradient>
<linearGradient id="paint38_linear_13291_98598" x1="679.196" y1="61.6314" x2="771.557" y2="37.8422" gradientUnits="userSpaceOnUse">
<stop stop-color="#427DFF"/>
<stop offset="1" stop-color="#44D5BB"/>
</linearGradient>
<linearGradient id="paint39_linear_13291_98598" x1="683.805" y1="94.761" x2="848.102" y2="44.8697" gradientUnits="userSpaceOnUse">
<stop stop-color="#427DFF"/>
<stop offset="1" stop-color="#44D5BB"/>
</linearGradient>
<linearGradient id="paint40_linear_13291_98598" x1="557.013" y1="65.9243" x2="761.711" y2="-137.542" gradientUnits="userSpaceOnUse">
<stop stop-color="#427DFF"/>
<stop offset="1" stop-color="#44D5BB"/>
</linearGradient>
<linearGradient id="paint41_linear_13291_98598" x1="678.601" y1="81.862" x2="895.036" y2="-38.4197" gradientUnits="userSpaceOnUse">
<stop stop-color="#427DFF"/>
<stop offset="1" stop-color="#44D5BB"/>
</linearGradient>
<linearGradient id="paint42_linear_13291_98598" x1="686.481" y1="77.8401" x2="776.472" y2="60.5019" gradientUnits="userSpaceOnUse">
<stop stop-color="#427DFF"/>
<stop offset="1" stop-color="#44D5BB"/>
</linearGradient>
<linearGradient id="paint43_linear_13291_98598" x1="676.732" y1="102.275" x2="919.494" y2="-9.71289" gradientUnits="userSpaceOnUse">
<stop stop-color="#427DFF"/>
<stop offset="1" stop-color="#44D5BB"/>
</linearGradient>
<linearGradient id="paint44_linear_13291_98598" x1="662.89" y1="68.7809" x2="714.88" y2="62.36" gradientUnits="userSpaceOnUse">
<stop stop-color="#427DFF"/>
<stop offset="1" stop-color="#44D5BB"/>
</linearGradient>
<linearGradient id="paint45_linear_13291_98598" x1="-134.646" y1="92.0784" x2="18.197" y2="47.9986" gradientUnits="userSpaceOnUse">
<stop stop-color="#427DFF"/>
<stop offset="1" stop-color="#44D5BB"/>
</linearGradient>
<linearGradient id="paint46_linear_13291_98598" x1="666.285" y1="57.6015" x2="682.847" y2="56.8314" gradientUnits="userSpaceOnUse">
<stop stop-color="#427DFF"/>
<stop offset="1" stop-color="#44D5BB"/>
</linearGradient>
<linearGradient id="paint47_linear_13291_98598" x1="673.293" y1="63.4886" x2="833.436" y2="-18.7557" gradientUnits="userSpaceOnUse">
<stop stop-color="#427DFF"/>
<stop offset="1" stop-color="#44D5BB"/>
</linearGradient>
<linearGradient id="paint48_linear_13291_98598" x1="681.844" y1="96.7921" x2="857.394" y2="40.4962" gradientUnits="userSpaceOnUse">
<stop stop-color="#427DFF"/>
<stop offset="1" stop-color="#44D5BB"/>
</linearGradient>
<linearGradient id="paint49_linear_13291_98598" x1="-97.2335" y1="257.569" x2="181.412" y2="207.997" gradientUnits="userSpaceOnUse">
<stop stop-color="#427DFF"/>
<stop offset="1" stop-color="#44D5BB"/>
</linearGradient>
<linearGradient id="paint50_linear_13291_98598" x1="664.1" y1="108.303" x2="915.89" y2="-4.15917" gradientUnits="userSpaceOnUse">
<stop stop-color="#427DFF"/>
<stop offset="1" stop-color="#44D5BB"/>
</linearGradient>
<linearGradient id="paint51_linear_13291_98598" x1="-105.557" y1="260.186" x2="67.9568" y2="241.529" gradientUnits="userSpaceOnUse">
<stop stop-color="#427DFF"/>
<stop offset="1" stop-color="#44D5BB"/>
</linearGradient>
<linearGradient id="paint52_linear_13291_98598" x1="-169.957" y1="295.529" x2="537.107" y2="-32.7709" gradientUnits="userSpaceOnUse">
<stop stop-color="#427DFF"/>
<stop offset="1" stop-color="#44D5BB"/>
</linearGradient>
<linearGradient id="paint53_linear_13291_98598" x1="677.274" y1="93.005" x2="910.035" y2="-24.0534" gradientUnits="userSpaceOnUse">
<stop stop-color="#427DFF"/>
<stop offset="1" stop-color="#44D5BB"/>
</linearGradient>
<linearGradient id="paint54_linear_13291_98598" x1="-61.3257" y1="269.65" x2="555.302" y2="-19.3994" gradientUnits="userSpaceOnUse">
<stop stop-color="#427DFF"/>
<stop offset="1" stop-color="#44D5BB"/>
</linearGradient>
<linearGradient id="paint55_linear_13291_98598" x1="17.6549" y1="244.083" x2="513.139" y2="-44.5741" gradientUnits="userSpaceOnUse">
<stop stop-color="#427DFF"/>
<stop offset="1" stop-color="#44D5BB"/>
</linearGradient>
<linearGradient id="paint56_linear_13291_98598" x1="-2.0451" y1="251.082" x2="544.305" y2="-1.47062" gradientUnits="userSpaceOnUse">
<stop stop-color="#427DFF"/>
<stop offset="1" stop-color="#44D5BB"/>
</linearGradient>
<linearGradient id="paint57_linear_13291_98598" x1="-102.258" y1="265.317" x2="657.636" y2="-227.421" gradientUnits="userSpaceOnUse">
<stop stop-color="#427DFF"/>
<stop offset="1" stop-color="#44D5BB"/>
</linearGradient>
<linearGradient id="paint58_linear_13291_98598" x1="679.988" y1="98.6695" x2="865.486" y2="36.4869" gradientUnits="userSpaceOnUse">
<stop stop-color="#427DFF"/>
<stop offset="1" stop-color="#44D5BB"/>
</linearGradient>
<linearGradient id="paint59_linear_13291_98598" x1="631.833" y1="88.4047" x2="675.575" y2="76.4461" gradientUnits="userSpaceOnUse">
<stop stop-color="#427DFF"/>
<stop offset="1" stop-color="#44D5BB"/>
</linearGradient>
<linearGradient id="paint60_linear_13291_98598" x1="641.646" y1="67.7775" x2="707.047" y2="57.3619" gradientUnits="userSpaceOnUse">
<stop stop-color="#427DFF"/>
<stop offset="1" stop-color="#44D5BB"/>
</linearGradient>
<linearGradient id="paint61_linear_13291_98598" x1="587.174" y1="66.337" x2="690.502" y2="38.5491" gradientUnits="userSpaceOnUse">
<stop stop-color="#427DFF"/>
<stop offset="1" stop-color="#44D5BB"/>
</linearGradient>
<linearGradient id="paint62_linear_13291_98598" x1="0.696802" y1="256.294" x2="544.271" y2="-25.1594" gradientUnits="userSpaceOnUse">
<stop stop-color="#427DFF"/>
<stop offset="1" stop-color="#44D5BB"/>
</linearGradient>
<linearGradient id="paint63_linear_13291_98598" x1="-3.09113" y1="225.989" x2="263.711" y2="173.836" gradientUnits="userSpaceOnUse">
<stop stop-color="#427DFF"/>
<stop offset="1" stop-color="#44D5BB"/>
</linearGradient>
<linearGradient id="paint64_linear_13291_98598" x1="13.9054" y1="247.017" x2="522.019" y2="-37.6327" gradientUnits="userSpaceOnUse">
<stop stop-color="#427DFF"/>
<stop offset="1" stop-color="#44D5BB"/>
</linearGradient>
<linearGradient id="paint65_linear_13291_98598" x1="21.2826" y1="234.93" x2="515.02" y2="-45.413" gradientUnits="userSpaceOnUse">
<stop stop-color="#427DFF"/>
<stop offset="1" stop-color="#44D5BB"/>
</linearGradient>
<linearGradient id="paint66_linear_13291_98598" x1="-42.697" y1="242.901" x2="134.115" y2="222.098" gradientUnits="userSpaceOnUse">
<stop stop-color="#427DFF"/>
<stop offset="1" stop-color="#44D5BB"/>
</linearGradient>
<linearGradient id="paint67_linear_13291_98598" x1="-53.7339" y1="246.689" x2="108.207" y2="229.551" gradientUnits="userSpaceOnUse">
<stop stop-color="#427DFF"/>
<stop offset="1" stop-color="#44D5BB"/>
</linearGradient>
<linearGradient id="paint68_linear_13291_98598" x1="-106.845" y1="349.055" x2="585.91" y2="74.3295" gradientUnits="userSpaceOnUse">
<stop stop-color="#427DFF"/>
<stop offset="1" stop-color="#44D5BB"/>
</linearGradient>
<clipPath id="clip0_13291_98598">
<rect width="900" height="64" fill="white"/>
</clipPath>
</defs>
</svg>
