<svg width="360" height="134" viewBox="0 0 360 134" fill="none" xmlns="http://www.w3.org/2000/svg">
<g clip-path="url(#clip0_13291_97579)">
<rect width="360" height="134" fill="#EEF8FF"/>
<g opacity="0.2">
<g style="mix-blend-mode:overlay">
<g style="mix-blend-mode:overlay">
<path d="M-62.6875 391.121L-47.3186 300.06L-46.8545 298.463L-39.9736 274.696L-17.1785 196.041L-15.9659 193.292L-1.17726 159.991L25.3078 100.327L26.6132 98.2547L47.3718 65.2602L76.5721 18.8468L133.853 -43.1504L191.708 -83.8677L246.332 -102.2L293.767 -101.877L294.486 -101.57L294.544 -101.555L326.86 -87.7675L331.844 -85.6334L333.265 -84.313L355.457 -63.5705L359.825 -59.4865L360.452 -58.3503L374.823 -31.9578L377.579 -26.8911L378.565 -23.1449L384.03 -2.38705L386.601 7.36239L387.697 40.925" stroke="url(#paint0_linear_13291_97579)" stroke-width="0.5" stroke-linecap="round" stroke-linejoin="round"/>
</g>
<g style="mix-blend-mode:overlay">
<path d="M-62.2756 377.396L-52.987 309.841L-52.401 307.538L-49.2739 295.224L-29.7104 218.15L-26.1539 204.133L-24.8659 200.908L-24.2509 199.373L-22.9397 196.087L-22.0114 193.754L13.2575 105.41L14.5455 103.138L29.0441 77.6816L62.0967 19.615L64.0867 17.2198L87.7753 -11.3683L117.939 -47.7406L175.591 -94.2922L231.253 -118.274L280.782 -122.819L312.089 -113.131L321.673 -110.168L323.431 -108.817L344.782 -92.373L352.829 -86.1702L353.554 -85.0647L368.505 -62.311L373.767 -54.2965" stroke="url(#paint1_linear_13291_97579)" stroke-width="0.5" stroke-linecap="round" stroke-linejoin="round"/>
</g>
<g style="mix-blend-mode:overlay">
<path d="M298.814 27.1072L261.776 25.2188L217.027 37.394L167.376 67.3025L115.879 115.267L67.2081 180.718L26.0795 256.963L24.9249 259.113L24.3158 260.234L-8.63823 347.948L-9.11978 349.238L-32.0425 441.481L-32.408 442.97L-32.849 446.363L-44.3074 534.554L-44.5395 536.304L-46.9937 626.198L-40.6581 709.46L-29.8205 773.192L-29.0256 777.844L-27.7434 785.413L-11.307 843.941L-9.68835 852.784L4.43893 890.784L6.53337 893.824L8.94109 902.928L20.1733 930.012L21.966 933.374L25.4587 942.141L26.1027 944.413L27.3153 946.809L28.261 948.851" stroke="url(#paint2_linear_13291_97579)" stroke-width="0.5" stroke-linecap="round" stroke-linejoin="round"/>
</g>
<g style="mix-blend-mode:overlay">
<path d="M280.196 82.5029L244.846 87.892L203.062 106.546L157.605 141.107L111.278 191.497L68.142 256.596L31.3878 331.797L30.6974 333.209L3.42914 412.694L2.41383 415.642L1.89748 417.162L-17.3818 502.68L-17.7705 504.415L-27.4246 588.798L-27.6335 590.655L-29.0027 673.303L-28.9969 673.364L-22.7658 749.947L-10.82 819.836L-9.9207 823.275L3.72504 875.216L5.51198 882.018L18.2294 918.82L20.1208 924.301L22.0006 927.679L31.0107 948.851" stroke="url(#paint3_linear_13291_97579)" stroke-width="0.5" stroke-linecap="round" stroke-linejoin="round"/>
</g>
<g style="mix-blend-mode:overlay">
<path d="M339.45 -58.2571L305.445 -76.7426L304.778 -77.1111L260.267 -81.625L209.983 -69.2962L207.715 -68.7435L150.713 -34.2136L141.946 -39.5105L133.853 -43.1493L125.597 -46.2046L117.938 -47.74L110.036 -48.8301L76.2818 -5.30307L57.2694 19.2164L56.5848 20.0915L55.6449 21.3044L48.9787 23.3925L14.6903 89.9496L4.32257 110.093L3.89904 110.907L3.08099 112.488L-1.76348 116.665L-1.79249 116.741L-10.8722 143.932L-21.884 176.896L-31.0043 204.225L-34.8161 215.633L-35.5993 217.967L-49.4133 283.894L-54.3216 307.293L-55.5574 314.831L-56.8164 319.33L-57.9013 324.366L-57.9535 324.627L-57.9825 324.903L-58.1276 325.517L-58.348 326.868L-58.6439 328.88L-58.6903 329.141L-59.694 334.775L-60.0421 338.03L-60.3032 340.057L-61.1387 356.854" stroke="url(#paint4_linear_13291_97579)" stroke-width="0.5" stroke-linecap="round" stroke-linejoin="round"/>
</g>
<g style="mix-blend-mode:overlay">
<path d="M385.98 523.546L375.6 521.228L367.153 515.255L360.626 511.8L357.719 509.436L354.848 507.072L344.979 498.919L341.73 496.263L339.444 493.453L337.059 490.536L331.02 483.136L329.453 481.201L323.071 473.325L322.567 472.572L316.602 461.257L309.733 448.606L307.256 444.076L303.717 433.513L298.779 418.989L295.652 410.161L294.045 400.841L291.051 384.735L288.951 374.372L287.692 368.2L283.811 351.173L279.332 333.808L274.093 316.044L268.047 298.142L261.045 280.056L253.102 262.108L244.08 244.267L234.113 226.948L223.078 210.075L211.26 194.153L198.525 179.015L185.326 165.166L171.483 152.377L157.605 141.107L143.408 131.035L129.652 122.56L115.879 115.267L102.97 109.51L90.2699 104.812L78.7361 101.495L67.527 99.0541L57.6583 97.7798L48.1086 97.2271L28.4174 135.396L3.48144 183.728L2.29788 186.016L-5.26761 189.025L-11.3479 192.342L-17.1786 196.042L-21.6982 199.911L-26.1539 204.133L-29.5132 208.478L-32.9826 213.161L-33.0232 213.33L-45.4912 269.723L-50.7244 293.383L-54.5535 310.701L-54.9307 312.421" stroke="url(#paint5_linear_13291_97579)" stroke-width="0.5" stroke-linecap="round" stroke-linejoin="round"/>
</g>
<g style="mix-blend-mode:overlay">
<path d="M-68.7623 548.235L-77.7202 516.207L-95.4214 419.957L-105.035 317.304L-105.528 210.597L-105.406 209.123L-97.0691 110.508L-96.3903 102.448L-95.8333 99.331L-77.4186 -3.55238L-77.1227 -4.59645L-76.8442 -5.59441L-49.0886 -104.025L-48.9261 -104.424L-48.3343 -105.898L-12.3924 -195.04L-12.1024 -195.562L31.0743 -273.558L67.2541 -321" stroke="url(#paint6_linear_13291_97579)" stroke-width="0.5" stroke-linecap="round" stroke-linejoin="round"/>
</g>
<g style="mix-blend-mode:overlay">
<path d="M-68.0715 561.684L-77.3195 531.392L-77.7546 529.319L-97.2775 435.771L-109.258 333.241L-112.316 225.644L-105.632 115.851L-105.423 114.485L-88.952 6.9033L-88.7663 6.16632L-62.4438 -97.2698L-62.1363 -98.1142L-26.9892 -193.091L15.9844 -276.705L47.3023 -321" stroke="url(#paint7_linear_13291_97579)" stroke-width="0.5" stroke-linecap="round" stroke-linejoin="round"/>
</g>
<g style="mix-blend-mode:overlay">
<path d="M-70.8566 515.992L-77.3604 487.957L-76.7048 474.907L-88.1806 376.86L-90.9075 274.452L-86.3067 200.971L-84.3747 170.095L-84.2761 169.465L-83.9338 167.27L-70.6941 82.5036L-68.3096 67.2576L-68.0369 66.1676L-67.8397 65.3999L-43.3853 -30.0371L-43.159 -30.9122L-43.0314 -31.2654L-42.3932 -32.9849L-9.8453 -120.546L-9.48559 -121.252L-9.31733 -121.574L-8.26142 -123.647L30.1288 -198.879L74.7792 -262.995L122.017 -311.711L135.645 -321" stroke="url(#paint8_linear_13291_97579)" stroke-width="0.5" stroke-linecap="round" stroke-linejoin="round"/>
</g>
<g style="mix-blend-mode:overlay">
<path d="M-67.0562 586.173L-75.196 563.65L-77.8184 553.624L-99.7027 469.717L-116.731 367.525L-125.126 258.546L-123.768 145.238L-123.606 143.656L-112.02 30.5169L-111.823 29.5342L-89.6076 -81.7167L-89.3001 -82.7147L-56.9611 -187.517L-15.1595 -282.478L8.40148 -321" stroke="url(#paint9_linear_13291_97579)" stroke-width="0.5" stroke-linecap="round" stroke-linejoin="round"/>
</g>
<g style="mix-blend-mode:overlay">
<path d="M280.196 82.5029L285.046 103.338L289.09 124.295L292.281 145.82L294.602 167.162L296.006 188.611L296.557 209.614L296.238 230.356L295.176 250.423L293.65 270.321L292.797 274.728" stroke="url(#paint10_linear_13291_97579)" stroke-width="0.5" stroke-linecap="round" stroke-linejoin="round"/>
</g>
<g style="mix-blend-mode:overlay">
<path d="M298.814 27.1079L302.464 46.9445L305.498 67.0576L307.784 88.0457L309.356 109.049L310.087 130.498L310.052 151.67L309.147 172.889L307.505 193.555L305.045 213.882L301.947 233.489L299.191 247.353" stroke="url(#paint11_linear_13291_97579)" stroke-width="0.5" stroke-linecap="round" stroke-linejoin="round"/>
</g>
<g style="mix-blend-mode:overlay">
<path d="M-31.4917 789.037L-38.9064 779.011L-49.4656 763.105L-59.6245 746.139L-69.296 728.083L-78.4047 709.06L-86.8753 689.101L-94.6497 668.358L-101.647 646.894L-107.831 624.893L-113.157 602.431L-117.59 579.723L-121.129 556.862L-123.769 534.047L-126.263 525.848L-128.195 519.492L-156.705 425.697L-155.249 402.191L-176.565 280.454L-170.693 258.069L-164.126 236.62L-156.926 216.231L-149.215 196.855L-146.059 73.5972L-134.873 58.1055L-123.49 43.8268L-112.02 30.5154L-100.48 18.3094L-88.9524 6.90184L-77.4185 -3.55385L-65.9484 -13.3954L-54.5189 -22.3772L-53.9619 -24.0046L-22.7891 -115.619L-9.84538 -120.547L2.9881 -125.214L15.694 -129.268L28.3186 -133.137L40.8214 -136.392L53.2487 -139.509L65.5369 -141.98L77.738 -144.376L77.7728 -144.406L79.2522 -146.08L124.181 -196.669L171.193 -232.689L216.168 -252.157L257.442 -257.085L293.204 -249.255L294.405 -248.549L323.001 -231.644L323.274 -231.353L346.058 -206.833L346.081 -206.787L352.608 -186.521L358.491 -166.408L364.124 -146.54L368.986 -127.011L373.552 -107.896L376.616 -91.7133L377.277 -89.2721L379.963 -75.6229L380.317 -77.2043L379.847 -78.5093L380.155 -79.8604L381.971 -90.5157L383.728 -118.797L381.994 -149.396L376.192 -179.412L375.803 -181.423L364.705 -213.082L364.67 -213.19L364.484 -213.512L348.291 -241.993L347.717 -242.991L324.864 -268.523L304.401 -281.727L295.687 -287.347L260.824 -296.943L220.676 -294.655L208.132 -307.061L163.267 -286.917L149.691 -295.3L103.022 -255.366L89.0108 -259.357L74.7791 -262.996L60.4371 -266.712L16.454 -198.374L16.1291 -197.867L-22.0059 -117.277L-22.6673 -115.88L-22.7891 -115.619L-35.8663 -110.015L-49.0885 -104.027L-62.4441 -97.2712L-75.9622 -89.9476L-99.8887 15.6993L-100.48 18.3094L-114.654 128.916L-114.793 130.021L-118.843 241.671L-113.204 349.928L-98.6935 452.397L-80.3832 530.7L-76.9601 545.347L-76.5308 547.174L-67.5381 574.181L-67.0623 586.018V586.156L-66.8418 597.057L-66.8128 597.364L-66.3893 602.845L-65.1593 611.75L-64.9041 612.856L-64.086 618.613L-63.0649 626.597L-63.0127 626.981L-61.3302 640.108L-59.4736 650.902L-58.145 663.722L-57.4836 672.489L-57.0079 676.895L-56.5959 680.779L-56.2594 682.392L-55.0179 686.122L-52.5521 696.578L-50.8232 706.865L-48.781 717.443L-46.9592 725.995L-46.5763 727.991L-44.7023 737.833L-43.4898 743.544L-43.0198 745.509L-42.9096 746.753L-42.4164 749.855L-41.8769 752.71L-41.1401 754.783L-39.6084 760.279L-38.0361 766.713L-36.0519 773.437L-34.1954 779.717L-32.4606 785.597L-31.9617 787.302L-31.4917 789.037ZM-31.4917 789.037L-31.3061 789.712L-30.8826 790.526L-30.3662 791.769L-29.7802 794.103L-29.6526 795.239L-29.6352 795.915L-26.4848 806.601L-25.0112 813.034L-24.93 813.448L-22.7717 821.325L-15.183 841.653L-10.5242 855.118L-9.21878 858.296L-7.87277 862.411L4.39214 892.979L6.30673 896.219L8.94071 902.928L11.4993 911.971L11.6095 912.371L14.8933 920.661L18.618 928.446L22.395 935.8L25.4583 942.141L27.4715 946.762L28.4404 948.85" stroke="url(#paint12_linear_13291_97579)" stroke-width="0.5" stroke-linecap="round" stroke-linejoin="round"/>
</g>
<g style="mix-blend-mode:overlay">
<path d="M343.366 152.146L348.385 135.764L348.176 117.125L341.8 97.626L327.765 80.1077L305.498 67.0573L274.656 62.6662L268.448 43.2595L226.728 53.1932L217.027 37.3945L207.338 23.2847L155.337 56.7091L102.97 109.51L53.6786 179.491L12.5615 262.153L12.0277 263.228L-18.9653 352.14L-19.8065 354.55L-20.2416 355.809L-22.3535 365.574L-40.1011 447.592L-40.9887 451.707L-42.6538 467.367L-50.9156 545.179L-51.0896 546.806L-50.8749 636.9L-42.5494 720.469L-33.783 764.149L-32.7444 769.339L-29.1822 790.48L-29.3272 792.968L-27.3372 801.888L-26.5018 806.371L-25.295 811.991L-24.9295 813.449L-15.1825 841.653" stroke="url(#paint13_linear_13291_97579)" stroke-width="0.5" stroke-linecap="round" stroke-linejoin="round"/>
</g>
<g style="mix-blend-mode:overlay">
<path d="M335.957 164.567L337.204 161.603L338.498 158.011L341.77 150.733L343.18 134.244L338.603 116.894L327.179 100.389L307.784 88.0452L280.196 82.5026L274.656 62.666L235.946 69.8206L226.727 53.1929L179.257 78.9252L129.652 122.56L81.1381 183.006L38.7737 256.856L38.1297 257.977L4.43886 339.427L3.40035 341.93L2.84337 343.281L-20.9554 429.674L-21.7271 432.469L-22.1448 433.973L-36.7536 524.175L-37.0263 525.864L-41.6909 614.591L-37.9488 698.129L-26.9951 774.159L-11.5334 839.98L-10.8952 842.682L4.46787 889.341" stroke="url(#paint14_linear_13291_97579)" stroke-width="0.5" stroke-linecap="round" stroke-linejoin="round"/>
</g>
<g style="mix-blend-mode:overlay">
<path d="M-59.7807 652.223L-63.9754 634.767L-67.7813 616.327L-71.8948 604.551L-73.9428 598.686L-75.7007 593.65L-99.3603 525.88L-100.091 506.519L-100.167 487.804L-99.7026 469.717L-98.6931 452.399L-97.2775 435.771L-95.4209 419.957L-93.2859 404.818L-90.8201 390.524L-95.8154 287.933L-90.9071 274.452L-85.935 261.571L-85.8886 260.987L-79.9476 191.252L-77.1338 158.165L-76.9249 156.998L-76.7915 156.262L-62.3799 75.9016L-58.9569 56.7866L-58.8408 56.3721L-58.2897 54.4529L-32.6807 -35.7946L-31.8626 -38.6964L-31.5087 -39.5716L-31.3289 -40.0168L-30.3426 -42.458L2.98851 -125.213L3.07555 -125.382L3.85298 -126.794L43.9315 -199.385L44.326 -199.907L89.0112 -259.356L135.878 -303.42L164.892 -321" stroke="url(#paint15_linear_13291_97579)" stroke-width="0.5" stroke-linecap="round" stroke-linejoin="round"/>
</g>
<g style="mix-blend-mode:overlay">
<path d="M29.595 948.851L24.5765 937.182L22.3486 926.635L21.2637 923.165L20.0801 919.357L18.502 914.306L4.86791 870.64L-9.38701 807.262L-19.1572 737.127L-22.6672 660.252L-18.8149 578.603L-18.5364 576.73L-6.0626 493.837L-5.63328 492.178L15.5838 409.654L16.1987 408.057L46.3215 329.493L84.0909 257.716L127.053 197.884L171.483 152.376L214.572 122.36L253.05 106.562L260.615 126.337L289.09 124.295L310.087 130.498L323.674 141.368L330.312 154.679L331.182 167.822L327.04 177.525" stroke="url(#paint16_linear_13291_97579)" stroke-width="0.5" stroke-linecap="round" stroke-linejoin="round"/>
</g>
<g style="mix-blend-mode:overlay">
<path d="M-63.0647 626.598L-67.7815 616.326L-70.8797 598.286L-73.357 580.675L-75.1962 563.649L-76.5306 547.174L-77.3196 531.391L-77.7199 516.206L-77.6793 501.774L-77.3602 487.956L-90.8203 390.523L-88.1805 376.859L-85.3028 364.008L-85.9352 261.57L-80.8239 249.487L-80.6962 248.32L-80.6382 247.752L-73.8618 183.958L-69.905 146.711L-62.6238 136.04L-62.3047 134.628L-46.0771 63.2341L-40.2928 37.7781L-31.01 29.1801L-21.82 20.8586L-21.7794 20.7511L-21.031 18.8627L6.55061 -50.1817L12.5844 -65.2895L23.4917 -70.9856L34.3062 -75.9909L34.8922 -76.9121L36.6791 -79.7217L72.0815 -135.47L77.7382 -144.375L89.771 -146.049L90.5775 -146.878L135.396 -193.445L137.096 -195.195L149.721 -192.984L197.086 -221.434L241.162 -233.241L280.411 -231.091L291.162 -217.672L291.243 -217.611L301.663 -204.361L311.392 -190.65L320.803 -177.139L329.337 -163.275L337.495 -149.718L344.7 -135.839L351.5 -122.358L357.296 -108.54L362.663 -95.1673L367.002 -81.426L370.901 -68.0838L373.767 -54.2965L373.79 -54.2043L376.186 -40.8469L377.579 -26.8906L378.53 -13.1646L378.472 1.11408L377.968 15.2853L376.494 29.9785L374.579 44.6104L371.725 59.7335L368.447 74.7492L364.27 90.1179L359.669 105.333L354.227 120.687L348.384 135.764L341.77 150.733L338.8 158.886L335.615 164.413L334.791 165.258L331.78 170.831" stroke="url(#paint17_linear_13291_97579)" stroke-width="0.5" stroke-linecap="round" stroke-linejoin="round"/>
</g>
<g style="mix-blend-mode:overlay">
<path d="M-66.3774 407.197L-67.2534 392.673L-66.1569 384.781L-66.0583 382.924L-65.3853 377.504L-63.6331 364.407L-62.5888 358.542L-62.4147 357.022L-61.5039 349.515L-61.0745 345.814L-61.0339 345.523L-60.1985 339.903L-60.1869 339.827L-59.8098 335.389L-59.5777 333.025L-59.5487 332.749L-59.4094 331.566L-58.8641 328.787L-58.2375 326.515L-58.1273 325.517L-57.5297 321.495L-56.9901 318.255L-51.5481 274.037L-48.0902 247.384L-47.9394 246.201L-43.8955 229.696L-40.049 214.021L-22.841 143.779L-22.2028 142.044L-14.6083 121.516L-1.53691 86.1878L12.2365 48.9711L12.3351 48.7101L18.6416 43.3978L19.5177 41.8318L33.4767 16.8825L57.496 -26.0457L64.0926 -37.8372L64.1506 -37.9446L72.1048 -41.1382L79.6761 -44.1782L87.4563 -46.1895L92.3181 -51.2714L110.188 -69.9412L142.173 -103.35L197.289 -139.016L248.739 -154.846L293.604 -152.067L295.85 -151.053L318.639 -140.782L330.173 -135.592L330.857 -134.902L349.33 -116.493L357.296 -108.54L359.895 -103.918L368.203 -89.1176L375.624 -75.9137L376.894 -72.4899L378.989 -67.4693L381.031 -61.4201L382.157 -58.6104L382.94 -55.77L383.218 -54.0811L383.271 -53.7894L383.584 -51.5171L383.607 -51.3636L384.036 -48.646L384.866 -42.7196L385.098 -41.4145L385.324 -40.5854" stroke="url(#paint18_linear_13291_97579)" stroke-width="0.5" stroke-linecap="round" stroke-linejoin="round"/>
</g>
<g style="mix-blend-mode:overlay">
<path d="M-68.0776 431.639L-67.4627 421.521L-66.5982 411.895L-66.2153 409.868L-66.2617 408.056L-66.3777 407.197L-65.4378 400.364L-64.7648 397.616L-64.1324 392.826L-65.3856 377.503L-65.2696 367.631L-63.0823 325.317L-60.8602 282.389L-58.1276 274.374L-55.3196 266.805L-52.8364 259.573L-50.6724 252.081L-49.3206 242.669L-47.1565 232.275L-31.5556 157.212L-27.2855 150.242L-21.4489 133.583L-21.0428 132.416L6.20227 54.6972L12.3347 48.7093L13.8838 45.7922L16.9123 40.1114L17.3648 39.2516L21.1824 32.0969L22.2673 30.0549L56.2947 -33.8307L64.1502 -37.9454L66.4013 -40.7551L66.7784 -41.2311L70.6946 -46.1288L71.7738 -47.4799L76.5486 -53.4371L115.293 -101.877L124.419 -103.167L133.499 -103.32L142.172 -103.351L150.869 -102.077L159.166 -100.587L167.561 -97.6089L175.59 -94.2926L183.806 -89.318L191.708 -83.8676L199.842 -76.6054L253.386 -92.834L260.267 -81.626L266.777 -69.8806L309.518 -62.8948L313.811 -48.2937L317.53 -32.1111L320.785 -15.5294L323.402 2.44945L325.514 20.7507L326.906 40.1882V40.2189L327.736 59.7484L327.765 80.1071L327.179 100.389L325.746 121.055L323.674 141.367L320.756 161.68L317.223 181.409L312.918 200.8L308.079 219.409L306.687 223.999" stroke="url(#paint19_linear_13291_97579)" stroke-width="0.5" stroke-linecap="round" stroke-linejoin="round"/>
</g>
<g style="mix-blend-mode:overlay">
<path d="M-59.6822 652.991L-64.9618 640.309L-67.5842 634.014L-95.8504 566.106L-95.8852 565.999L-98.1247 558.767L-99.9116 553.01L-101.687 547.283L-126.518 467.153L-149.842 356.992L-164.125 236.621L-167.612 108.098L-158.765 -25.431L-144.997 -39.0649L-131.137 -51.4551L-117.236 -62.5864L-103.381 -72.6889L-89.6077 -81.7167L-75.9619 -89.9462L-75.7589 -90.5449L-75.2019 -92.1878L-41.836 -190.527L-41.5401 -191.156L0.603856 -279.776L27.7213 -321" stroke="url(#paint20_linear_13291_97579)" stroke-width="0.5" stroke-linecap="round" stroke-linejoin="round"/>
</g>
<g style="mix-blend-mode:overlay">
<path d="M-30.5749 792.43L-35.2975 787.271L-35.8835 786.626L-36.2258 786.258L-72.0285 747.122L-72.8581 745.94L-82.3382 731.768L-92.294 715.279L-101.803 697.607L-110.807 678.845L-119.197 658.978L-126.931 638.128L-133.904 616.357L-140.066 593.802L-145.334 570.542L-149.685 546.79L-153.05 522.639L-155.446 498.304L-156.833 473.907L-157.245 449.68L-156.705 425.698L-181.629 303.745L-176.565 280.454L-187.367 147.54L-185.546 6.0423L-169.231 -139.739L-152.841 -150.332L-136.445 -159.422L-120.125 -167.19L-103.973 -173.716L-88.0413 -179.212L-72.3592 -183.726L-56.9613 -187.518L-41.8361 -190.528L-26.9894 -193.092L-12.3922 -195.042L1.97877 -196.715L16.1293 -197.867L30.1289 -198.88L43.9313 -199.387L57.6466 -199.832L71.1821 -199.74L84.6596 -199.602L97.9514 -198.88L111.179 -198.112L124.181 -196.669L137.096 -195.195L184.2 -227.069L228.915 -242.99L269.005 -244.08L303.525 -233.287L303.809 -233.087L331.304 -213.082L344.306 -196.884L352.608 -186.52L353.037 -185.645L367.217 -156.213L371.301 -135.133L374.701 -114.513L377.805 -94.5995L377.846 -94.3231L379.18 -78.5858L380.033 -73.8877L380.509 -75.4998L380.016 -76.7127L379.795 -78.0024L379.337 -81.4569L379.94 -81.9175L381.785 -97.8544L383.729 -118.796L385.701 -139.739L382.33 -171.52L374.481 -204.069L374.231 -204.684L361.589 -235.191L361.258 -235.974L342.385 -265.13L342.089 -265.422L317.71 -288.897L317.281 -289.312L286.282 -306.047L249.493 -312.695L208.133 -307.06L195.311 -319.266L149.692 -295.3L135.878 -303.421L122.017 -311.712L107.925 -319.88L60.4373 -266.711L45.8517 -270.12L31.0746 -273.559L15.9842 -276.707L0.603751 -279.777L-15.1596 -282.479L-31.3117 -284.905L-47.899 -286.778L-64.9213 -288.114L-82.3962 -288.621L-100.3 -288.222L-118.588 -286.671L-137.182 -283.815L-156.021 -279.439L-185.464 -127.563L-198.141 21.6875L-198.333 23.9598L-196.291 169.05L-181.629 303.745L-185.801 327.773L-189.021 352.446L-191.202 377.58L-192.334 403.036L-192.345 428.599L-191.272 454.117L-189.085 479.358L-185.847 504.2L-181.56 528.443L-176.338 551.964L-170.194 574.595L-163.255 596.29L-155.562 616.909L-147.237 636.454L-138.325 654.817L-130.986 668.635L-129.762 670.953L-128.712 672.504L-126.669 675.82L-119.116 688.103L-108.962 703.011L-80.9748 736.328L-76.1477 742.27L-75.1266 743.59L-73.6298 745.249L-72.7131 746.354L-72.6319 746.462L-71.8428 747.444L-69.5975 750.423L-61.4113 761.293L-50.5678 774.343L-39.5328 786.273L-29.635 795.915" stroke="url(#paint21_linear_13291_97579)" stroke-width="0.5" stroke-linecap="round" stroke-linejoin="round"/>
</g>
<g style="mix-blend-mode:overlay">
<path d="M-64.3064 400.703L-63.2099 391.86L-62.4904 384.26L-50.7419 305.097L-50.5272 304.33L-44.1279 281.146L-21.6983 199.911L-21.1297 198.545L-20.6598 197.424L-10.4603 172.843L11.1397 120.81L18.7168 102.54L20.2542 100.022L39.6495 68.025L69.3777 18.9861L70.2132 18.0189L95.6655 -11.5058L125.597 -46.2045L183.806 -89.317L238.882 -111.119L287.512 -112.455L289.061 -111.917L318.146 -101.723L327.156 -98.5597L327.887 -97.9149L351.419 -77.2952L356.571 -72.766L358.067 -70.3401L371.353 -48.7225L376.186 -40.8462L376.749 -38.9116L383.322 -16.3574L386.374 -5.88642L386.943 1.43718L388.358 11.4476L389.432 15.5316" stroke="url(#paint22_linear_13291_97579)" stroke-width="0.5" stroke-linecap="round" stroke-linejoin="round"/>
</g>
<g style="mix-blend-mode:overlay">
<path d="M-57.4836 672.489L-58.5163 670.37L-89.283 607.713L-92.973 586.786L-95.8506 566.105L-95.8564 566.043L-97.9799 545.761L-99.3607 525.879L-100.974 519.415L-124.471 425.099L-122.434 405.124L-119.853 385.902L-116.731 367.523L-113.204 349.928L-109.258 333.239L-105.035 317.302L-100.509 302.271L-95.8158 287.931L-91.5167 182.883L-84.3748 170.094L-77.1342 158.164L-69.9052 146.71L-69.8239 146.311L-69.412 144.285L-53.9097 68.285L-49.5932 47.1127L-40.293 37.7778L-40.206 37.5321L-39.5736 35.6744L-12.52 -43.9793L-9.48566 -52.8996L-9.07954 -53.7748L28.3186 -133.137L28.3882 -133.244L29.3339 -134.718L71.182 -199.74L116.981 -251.404L163.267 -286.917L176.832 -278.641L209.101 -290.433L220.676 -294.655L233.213 -282.341L245.368 -269.705L257.442 -257.085L269.005 -244.081L280.411 -231.092L280.672 -230.984L292.345 -225.994L313.202 -217.105L322.648 -201.014L331.321 -184.77L339.693 -168.741L347.189 -152.62L354.331 -136.868L360.527 -121.115L366.346 -105.823L371.174 -90.5923L375.623 -75.9144L379.052 -61.2672L381.64 -50.3816L382.417 -46.4512L384.117 -33.109L385.568 -23.6206L386.148 -18.3851L386.374 -5.88739L386.6 7.36263L385.823 20.7662L384.651 33.878L382.51 47.1894L379.969 60.3013L376.488 73.6281L372.624 86.8013L367.867 100.113L362.732 113.255L356.768 126.429L350.438 139.356L345.744 148.154L343.035 153.22L342.258 154.663L340.059 157.688" stroke="url(#paint23_linear_13291_97579)" stroke-width="0.5" stroke-linecap="round" stroke-linejoin="round"/>
</g>
<g style="mix-blend-mode:overlay">
<path d="M-68.0718 473.8L-65.6002 439.009L-62.8966 401.04L-62.5253 399.014L-58.6787 377.795L-49.4191 326.76L-43.7044 295.271L-42.7065 292.108L-32.3504 259.144L-11.348 192.341L-10.2747 190.023L6.13271 154.51L31.9737 98.593L34.5207 94.7854L60.4024 56.2022L84.7465 19.922L141.946 -39.5111L199.842 -76.605L207.715 -68.744L215.82 -58.9792L266.777 -69.8802L273.077 -56.2617L278.995 -42.0751L317.53 -32.1107L318.47 -31.4352L346.174 -11.8135L346.684 -11.0765L364.774 15.3467L374.579 44.6104L376.488 73.6284L372.96 96.9195L372.531 99.7599" stroke="url(#paint24_linear_13291_97579)" stroke-width="0.5" stroke-linecap="round" stroke-linejoin="round"/>
</g>
<g style="mix-blend-mode:overlay">
<path d="M-68.1067 460.612L-66.4358 428.232L-65.8266 416.333L-65.7222 407.72L-65.0666 401.578L-64.7649 397.617L-64.556 393.303L-64.527 393.057L-63.825 386.885L-63.0998 382.218L-62.3049 377.581L-62.2875 377.443L-62.4674 376.644L-62.6414 375.723L-62.7517 357.898L-61.9394 350.344L-61.2316 346.152L-61.307 341.869L-61.6609 335.298L-58.4352 278.951L-58.1625 274.851L-58.1277 274.375L-53.8112 249.027L-49.0189 220.915L-40.9719 173.687L-40.7108 172.137L-40.3801 170.97L-31.4106 138.897L-17.1905 88.0766L-13.4541 74.7192L-13.4135 74.581L-6.70088 67.6259L-6.16132 66.413L9.59625 30.3631L31.3587 -19.382L31.4051 -19.4895L39.8988 -24.6022L40.7053 -25.8304L63.8311 -61.3122L86.2491 -95.7193L86.2781 -95.7653L96.1933 -98.1605L105.789 -100.51L105.818 -100.54L108.383 -102.889L108.783 -103.242L137.038 -129.052L157.808 -148.028L208.776 -176.709L255.666 -186.627L296.435 -181.315L296.812 -181.1L324.986 -165.654L329.337 -163.274L331.808 -160.664L349.295 -142.194L354.331 -136.866L355.021 -135.546L366.526 -113.652L371.04 -105.07L375.879 -87.9044L378.594 -78.6309" stroke="url(#paint25_linear_13291_97579)" stroke-width="0.5" stroke-linecap="round" stroke-linejoin="round"/>
</g>
<g style="mix-blend-mode:overlay">
<path d="M-65.1245 398.093L-64.7416 395.299L-64.5095 393.625L-63.8133 387.545L-63.0997 379.945L-62.6588 376.644L-62.183 373.374L-62.096 372.652L-62.0264 371.132L-61.98 369.72L-61.8117 367.478L-61.7073 365.544L-61.1561 358.266L-58.5917 327.498L-57.5648 315.783L-55.598 298.925L-50.2604 253.203L-50.2024 252.742L-49.7324 250.639L-46.8258 237.634L-41.6274 214.374L-27.3899 150.718L-27.2854 150.242L-22.8413 143.779L-18.7743 137.545L-14.9973 128.041L-14.6376 127.135L-11.8818 120.196L18.6413 43.3979L24.5649 38.2698L26.4679 35.0763L41.2681 10.3726L72.1045 -41.1381L73.2765 -42.5353L73.5491 -42.8577L76.6937 -46.5886L77.622 -47.6787L81.8631 -52.7146L124.419 -103.166L127.447 -105.515L154.524 -126.426L178.236 -144.743L229.698 -166.867L275.793 -170.138L314.618 -158.853L315.146 -158.438L337.564 -141.304L344.7 -135.838L347.41 -132.077L359.164 -115.787L366.346 -105.822L367.356 -103.212L373.929 -86.1544L379.714 -72.7969L380.398 -72.5359L380.503 -72.3056L380.578 -71.7683L380.625 -71.5072L380.706 -71.2155L380.81 -70.5246L381.205 -67.8531L381.013 -66.5634L381.472 -62.4641L381.901 -61.5889L382.261 -58.81L382.87 -55.9849" stroke="url(#paint26_linear_13291_97579)" stroke-width="0.5" stroke-linecap="round" stroke-linejoin="round"/>
</g>
<g style="mix-blend-mode:overlay">
<path d="M-69.6326 495.649L-68.5418 488.402L-64.7359 450.065L-60.1525 395.376L-59.932 394.316L-52.9467 360.063L-38.686 290.19L-37.7809 287.457L-25.7365 250.992L-5.26786 189.026L-4.04369 186.554L18.2525 141.461L39.9278 97.6114L40.508 96.7823L70.5727 53.6852L92.9501 21.6119L150.712 -34.2132L159.38 -28.1947L168.704 -20.3951L223.687 -48.5073L273.077 -56.2607L313.811 -48.2923L314.432 -47.8778L344.514 -27.8722L345.437 -26.6747L365.273 -0.727374L376.494 29.9795L379.969 60.3025L377.051 85.344L376.842 87.1403L376.697 88.3686L372.363 100.851L368.174 111.614L367.234 112.381L363.672 121.885" stroke="url(#paint27_linear_13291_97579)" stroke-width="0.5" stroke-linecap="round" stroke-linejoin="round"/>
</g>
<g style="mix-blend-mode:overlay">
<path d="M-69.2956 483.735L-69.168 481.232L-68.8779 471.989L-68.9591 469.609L-68.6864 457.926L-68.3673 444.061L-71.158 419.173L-69.7945 409.854L-69.928 308.936L-66.795 299.662L-66.4817 296.837L-63.0297 266.1L-55.3308 197.455L-50.318 188.642L-49.9989 187.291L-48.5659 181.226L-40.7045 147.878L-27.0356 89.9037L-20.1025 82.1502L-19.6906 81.0755L-2.91187 37.0418L14.1337 -7.68272L22.8944 -13.6399L31.4055 -19.4895L32.8154 -21.7925L57.4032 -61.8036L76.2473 -92.4951L86.2786 -95.7654L88.3788 -98.0223L119.546 -131.431L136.121 -149.195L186.185 -184.616H186.254L233.475 -201.597L275.863 -202.917L276.141 -202.825L311.393 -190.65L313.481 -189.037L339.015 -169.262L339.694 -168.74L340.204 -168.019L358.897 -141.749L360.104 -140.045L362.796 -133.612L370.426 -115.372L373.553 -107.895L377.312 -89.1787L379.337 -81.456L379.795 -80.9339" stroke="url(#paint28_linear_13291_97579)" stroke-width="0.5" stroke-linecap="round" stroke-linejoin="round"/>
</g>
<g style="mix-blend-mode:overlay">
<path d="M-67.0625 586.018L-67.2133 578.495L-67.4106 574.565L-67.9154 564.8L-68.072 561.683L-68.7624 548.233L-69.0989 541.631L-69.3832 534.323L-70.3579 505.075L-76.705 474.905L-75.887 462.454L-85.3032 364.008L-82.3559 351.725L-80.8243 249.486L-75.7245 237.91L-75.6839 237.603L-67.7007 175.513L-62.6241 136.04L-55.4126 125.768L-55.3661 125.569L-54.873 123.619L-37.9435 56.6318L-31.0104 29.1799L-30.6565 28.228L-3.28376 -46.1901L1.58392 -59.4401L1.65354 -59.5783L2.52961 -61.2979L2.60502 -61.4361L40.8212 -136.392L41.3318 -137.129L84.6593 -199.602L130.714 -246.998L176.832 -278.641L190.095 -269.966L203.323 -261.307L216.168 -252.156L228.914 -242.99L241.162 -233.241L253.229 -223.522L264.676 -213.174L275.862 -202.918L286.317 -192.032L296.435 -181.316L305.73 -169.97L314.618 -158.854L322.618 -147.078L330.172 -135.593L336.786 -123.372L342.93 -111.442L348.123 -98.6989L352.828 -86.1705L356.57 -72.7669L359.825 -59.4862L362.134 -45.2689L363.962 -31.067L364.849 -15.9132L365.273 -0.728611L364.774 15.3464L363.805 31.4522L361.937 48.3103L359.605 65.153L356.39 82.487L352.706 99.6982L348.175 117.124L343.18 134.243L337.396 151.286L331.182 167.821L327.126 179.444L324.237 184.372L323.779 185.155L323.535 185.57" stroke="url(#paint29_linear_13291_97579)" stroke-width="0.5" stroke-linecap="round" stroke-linejoin="round"/>
</g>
<g style="mix-blend-mode:overlay">
<path d="M-67.2882 574.933L-67.7524 551.826L-68.8199 498.719L-68.5414 488.401L-68.408 473.37L-68.3964 459.26L-72.4112 429.137L-76.1765 329.171L-76.1707 329.079L-73.6527 283.387L-70.543 227.07L-65.4491 216.63L-65.1068 214.634L-56.1082 162.31L-48.183 116.188L-41.0759 106.914L-40.4783 104.934L-22.9106 46.99L-12.6647 13.2125L-3.64292 5.75068L-2.73205 3.7701L-0.979918 0.00848827L24.513 -54.8954L34.3064 -75.991L44.9874 -80.9041L46.3276 -82.8386L82.7395 -135.808L89.7712 -146.049L101.676 -147.661L113.373 -148.49L124.872 -149.273L174.303 -187.672L186.185 -184.617H186.254L197.637 -180.64L208.777 -176.71L219.435 -171.75L229.698 -166.868L239.445 -160.834L248.739 -154.846L257.5 -147.599L265.779 -140.322L273.524 -131.616L280.783 -122.819L287.513 -112.455L293.767 -101.877L294.713 -99.8656L299.499 -89.6556L300.793 -89.0568L332.447 -74.3021L336.044 -72.6132L339.45 -58.2578L339.467 -58.2271L342.38 -43.7181L344.515 -27.8733L346.174 -11.8137L347.033 5.4129L347.398 22.8237L346.94 41.1864L345.965 59.5952L344.149 78.6795L341.8 97.6256L338.603 116.894L334.861 135.81L330.312 154.679L325.247 172.996L319.445 190.959L314.932 203.411" stroke="url(#paint30_linear_13291_97579)" stroke-width="0.5" stroke-linecap="round" stroke-linejoin="round"/>
</g>
<g style="mix-blend-mode:overlay">
<path d="M-56.2651 682.393L-57.0541 680.904L-84.7865 628.733L-89.2829 607.714L-92.3462 599.561L-94.6727 593.404L-97.063 587.048L-125.526 511.402L-126.42 489.062L-126.519 467.153L-125.834 445.827L-124.471 425.1L-141.562 314.909L-136.55 295.179L-131.027 276.417L-125.126 258.546L-118.843 241.673L-112.316 225.644L-105.528 210.597L-98.6063 196.273L-91.5165 182.884L-91.3483 181.579L-79.4547 91.4546L-77.7026 78.2046L-68.3095 67.2576L-58.9571 56.7866L-49.593 47.1139L-49.2797 46.1006L-49.1347 45.64L-22.7831 -39.2491L-20.6423 -46.1429L-9.48549 -52.8984L1.58426 -59.4389L12.5844 -65.2886L14.5628 -68.8966L51.7115 -136.713L53.2489 -139.507L53.3011 -139.584L54.4789 -141.15L97.9515 -198.879L144.406 -242.605L190.095 -269.965L233.214 -282.34L271.807 -281.066L301.425 -270.134L305.109 -268.783L314.102 -250.175L323.002 -231.643L331.304 -213.081L339.409 -194.641L346.771 -176.232L353.861 -158.069L360.104 -140.044L366.027 -122.419L371.04 -105.069L375.246 -90.33L375.879 -87.9042L379.459 -71.7984L380.219 -70.9233L385.046 -82.2234L390.766 -94.5369L396.591 -105.944L402.584 -116.262L408.728 -125.428L415.047 -133.35L421.504 -139.998L428.089 -145.372L434.755 -149.487L441.479 -152.465L448.204 -154.338L454.91 -155.321L461.559 -155.521L468.127 -155.183L474.607 -154.446L480.989 -153.586L487.296 -152.772L493.509 -152.235L499.677 -152.143L505.78 -152.742L511.872 -154.139L517.923 -156.549L523.992 -160.035L530.032 -164.794L536.077 -170.843L542.088 -178.336L548.075 -187.256L553.981 -197.727L559.806 -209.688L565.498 -223.245L570.858 -237.477L572.129 -241.285L576.335 -254.934L581.4 -273.021L586.158 -292.642L590.573 -313.646L591.896 -321" stroke="url(#paint31_linear_13291_97579)" stroke-width="0.5" stroke-linecap="round" stroke-linejoin="round"/>
</g>
<g style="mix-blend-mode:overlay">
<path d="M339.473 -58.2422L363.829 -31.2048L363.962 -31.0666L364.461 -29.9458L378.275 0.699636L378.473 1.11416L384.651 33.8784L383.897 63.2495L383.166 68.4543L381.565 73.6591L380.486 77.2672L380.416 77.912L379.36 81.4587L378.09 84.5908L377.225 87.4312L376.401 90.9164" stroke="url(#paint32_linear_13291_97579)" stroke-width="0.5" stroke-linecap="round" stroke-linejoin="round"/>
</g>
<g style="mix-blend-mode:overlay">
<path d="M-46.9589 725.995L-47.2083 724.675L-48.0438 718.549L-51.0665 699.158L-52.8709 688.779L-56.8857 665.656L-58.9453 635.564L-63.1226 574.595L-61.8578 535.398L-59.9838 477.316L-59.7924 475.965L-52.0818 423.302L-45.1545 375.983L-44.2785 372.667L-29.571 316.857L-18.7275 275.695L-17.5323 272.777L9.0165 207.863L19.8368 181.409L22.581 176.68L57.1653 116.955L67.5272 99.0533L121.983 33.7858L177.952 -11.7678L187.734 -1.29676L239.457 -22.9605L284.617 -26.1079L320.786 -15.5294L321.383 -15.0534L347.033 5.41269L347.799 6.61025L363.806 31.4521L371.725 59.7331L372.624 86.8013L372.102 89.2578L367.629 110.507" stroke="url(#paint33_linear_13291_97579)" stroke-width="0.5" stroke-linecap="round" stroke-linejoin="round"/>
</g>
<g style="mix-blend-mode:overlay">
<path d="M-9.49732 856.883L-11.847 848.854L-27.4944 795.485L-27.7845 794.042L-29.1827 790.48L-31.6716 782.465L-35.379 765.853L-37.9723 754.246L-43.3158 730.279L-46.2224 707.602L-53.933 647.355L-56.1086 556.494L-51.2178 493.483L-48.6708 460.642L-48.4039 459.245L-33.7661 383.645L-29.6526 362.411L-29.2523 361.136L-28.5503 358.91L-4.19451 281.652L0.429489 266.974L1.86833 263.903L40.5254 181.471L41.5292 179.321L90.2697 104.811L143.907 47.8496L197.382 10.0802L207.338 23.2841L254.599 7.79248L261.775 25.2186L268.447 43.2589L302.463 46.9437L327.736 59.7485L344.149 78.6793L352.706 99.6981L354.227 120.686L350.438 139.356L343.11 152.959L342.257 154.663" stroke="url(#paint34_linear_13291_97579)" stroke-width="0.5" stroke-linecap="round" stroke-linejoin="round"/>
</g>
<g style="mix-blend-mode:overlay">
<path d="M-62.6414 375.754L-62.0264 371.132L-55.482 315.553L-55.3544 312.651L-53.3992 299.524L-45.4449 255.03L-40.6933 228.438L-38.4538 223.125L-33.2845 206.943L-33.006 206.068L-32.2634 203.734L-5.92337 121.347L-5.07051 119.505L-4.86165 119.06L3.30143 101.48L19.5638 66.5048L36.6325 29.7641L36.6441 29.7334L42.968 26.417L43.9833 24.9584L44.4881 24.2368L60.0078 1.98971L94.8648 -47.9704L102.61 -48.5692L103.828 -49.69L127.796 -71.7375L159.166 -100.587L214.944 -130.372L265.779 -140.321L308.921 -132.184L310.986 -130.925L332.342 -117.89L342.931 -111.441L343.696 -110.474L359.825 -90.3766L367.002 -81.4255L369.125 -76.6045L375.78 -61.5121L382.417 -46.4504L383.833 -41.1381L385.254 -35.1349L386.792 -28.6865L387.459 -25.8614" stroke="url(#paint35_linear_13291_97579)" stroke-width="0.5" stroke-linecap="round" stroke-linejoin="round"/>
</g>
<g style="mix-blend-mode:overlay">
<path d="M21.8901 932.208L20.1496 927.679L6.84033 892.995L5.95846 889.986L4.56024 885.226L-11.2321 831.459L-25.4581 762.552L-33.9576 685.831L-35.4197 602.907L-27.9064 514.963L-27.5873 513.274L-10.9305 425.468L-10.4431 423.917L16.4016 337.784L16.9876 336.449L52.5292 256.734L53.266 255.536L96.1294 186.63L143.408 131.035L191.365 92.2368L235.946 69.8208L244.846 87.8918L253.05 106.562L285.046 103.337L309.356 109.049L325.746 121.055L334.86 135.81L337.395 151.286L334.79 165.258" stroke="url(#paint36_linear_13291_97579)" stroke-width="0.5" stroke-linecap="round" stroke-linejoin="round"/>
</g>
<g style="mix-blend-mode:overlay">
<path d="M-69.0987 541.632L-69.586 533.526L-70.8624 516.023L-70.8566 515.992L-70.6652 510.296L-70.4679 506.442L-70.4041 505.045L-70.3461 504.078L-69.9051 494.205L-69.4932 482.583L-74.825 450.74L-73.6995 439.593L-79.2576 340.21L-76.1768 329.171L-72.9975 318.838L-69.969 277.829L-65.4494 216.631L-60.309 206.881L-60.1176 205.868L-59.6418 203.411L-50.8986 157.965L-41.0762 106.915L-33.9632 98.3017L-33.7312 97.5954L-32.7449 94.5861L-16.2911 44.3497L-3.64325 5.75116L5.33787 -1.03505L5.84262 -2.04838L7.29306 -4.96553L32.2696 -55.2787L44.9871 -80.9036L55.5695 -85.0644L65.9663 -89.1791L76.247 -92.4955L77.1636 -93.5702L79.9369 -96.8098L109.317 -131.109L124.872 -149.272L136.121 -149.196L147.104 -149.104L157.808 -148.029L168.164 -146.954L178.236 -144.743L187.902 -142.517L197.289 -139.016L206.241 -135.408L214.944 -130.372L223.205 -125.137L231.253 -118.274L238.882 -111.119L246.331 -102.199L253.386 -92.8332L299.499 -89.6551L304.778 -77.1113L309.518 -62.894L310.603 -62.2646L333.833 -48.7075L342.379 -43.7176L342.954 -43.0113L364.85 -15.9125L365.679 -13.9473L377.967 15.2857L382.51 47.1901L380.52 76.7608L378.977 81.7353L378.333 85.6658L378.733 86.7098L378.437 87.109L376.958 92.5595L372.99 102.631L368.725 112.411L363.672 121.885L361.055 126.414L358.311 131.158" stroke="url(#paint37_linear_13291_97579)" stroke-width="0.5" stroke-linecap="round" stroke-linejoin="round"/>
</g>
<g style="mix-blend-mode:overlay">
<path d="M-62.6414 375.723L-62.0728 369.566L-61.8117 367.478L-56.7932 319.99L-56.3406 316.566L-55.8417 313.848L-54.078 305.235L-47.8469 272.486L-39.4227 225.766L-37.2761 216.922L-30.8013 195.09L-23.6709 171.046L-10.5126 126.69L-10.8607 125.354L-8.81844 118.399L-5.62747 110.738L23.8048 40.0813L24.5649 38.2696L30.7902 33.8785L36.6441 29.733L38.7444 26.601L54.676 2.78778L87.456 -46.1897L94.8648 -47.9707L97.5336 -50.5501L120.961 -73.181L150.869 -102.076L206.241 -135.409L257.5 -147.599L301.651 -142.671L302.336 -142.302L326.929 -128.791L336.787 -123.371L339.09 -120.869L353.838 -104.778L362.662 -95.1671L363.492 -93.4476L372.81 -74.179L379.052 -61.2667L382.098 -47.1877L383.346 -40.4014L385.208 -30.2221L385.289 -29.7922L385.51 -28.5793L386.989 -20.5341L387.772 -12.9955L388.399 -5.11925L389.513 2.17363" stroke="url(#paint38_linear_13291_97579)" stroke-width="0.5" stroke-linecap="round" stroke-linejoin="round"/>
</g>
<g style="mix-blend-mode:overlay">
<path d="M-61.7068 365.543L-61.4863 363.163L-61.1556 358.266L-60.0417 338.03L-60.1577 336.111L-58.6087 318.132L-52.9055 260.326L-52.8359 259.574L-50.6718 252.081L-47.9392 246.201L-45.4154 239.998L-44.7134 237.281L-42.2709 227.9L-36.9217 207.311L-18.9014 138.036L-18.7738 137.545L-14.4051 131.803L-10.4018 126.321L-8.78896 122.698L-8.50467 122.068L-6.17816 116.833L11.1923 77.8659L30.7906 33.8784L31.7885 32.2816L32.0322 31.8978L46.0261 9.5585L79.6763 -44.1785L82.2464 -47.0035L83.0355 -47.8787L103.991 -70.9088L133.418 -103.243L133.499 -103.32L134.996 -104.41L161.365 -123.402L187.902 -142.517L239.445 -160.834L285.076 -161.602L285.604 -161.402L312.797 -150.87L322.619 -147.077L325.085 -144.974L342.571 -130.004L351.5 -122.358L352.243 -121.145L364.508 -101.355L371.174 -90.5919L374.452 -80.9039L376.895 -72.4902L380.416 -58.4418L382.174 -52.0548L382.418 -51.1643" stroke="url(#paint39_linear_13291_97579)" stroke-width="0.5" stroke-linecap="round" stroke-linejoin="round"/>
</g>
<g style="mix-blend-mode:overlay">
<path d="M-68.3677 444.061L-68.1704 435.463L-68.1878 427.018L-68.1994 426.865L-69.7949 409.853L-68.5591 400.979L-67.2538 392.673L-66.6388 374.264L-65.8091 349.238L-64.8808 321.54L-63.8597 290.956L-63.8539 290.757L-60.8602 282.389L-60.692 281.268L-56.9034 255.981L-51.1365 217.49L-45.561 180.273L-45.5378 180.104L-40.7107 172.136L-36.1795 164.413L-35.5065 162.202L-26.3514 132.14L-14.6608 93.7719L-6.7008 67.625L-0.289857 60.8388L0.882092 58.3515L16.7209 24.6815L39.8989 -24.6031L48.0852 -29.6236L72.8297 -64.8751L96.1934 -98.1614L97.3305 -99.2975L97.3769 -99.3436L100.777 -102.752L126.728 -128.715L147.104 -149.104L197.637 -180.64L244.887 -194.52L286.317 -192.032L288.388 -191.142L317.455 -178.583L320.803 -177.139L321.232 -176.74L344.944 -154.708L347.189 -152.62L349.765 -148.49L362.198 -128.561L366.027 -122.42L367.048 -119.411L373.517 -100.357L376.616 -91.7129L377.341 -89.0875" stroke="url(#paint40_linear_13291_97579)" stroke-width="0.5" stroke-linecap="round" stroke-linejoin="round"/>
</g>
<g style="mix-blend-mode:overlay">
<path d="M-68.1704 435.463L-68.0776 431.64L-67.7759 418.498L-67.7411 417.116L-67.4742 415.627L-66.5981 411.896L-66.2152 409.869L-65.3333 406.798L-64.8692 400.534L-66.1572 384.782L-64.9852 377.351L-64.0918 370.303L-63.6334 364.408L-62.7052 349.146L-61.3998 344.126L-60.6223 340.441L-60.7848 336.08L-57.7098 295.041L-55.3311 266.944L-55.3195 266.806L-55.041 265.332L-51.5658 246.754L-46.0715 217.337L-36.2433 164.752L-36.1795 164.414L-31.5555 157.213L-31.0972 155.785L-22.8297 130.314L-9.416 88.967L-0.365254 61.0851L-0.289828 60.8395L6.20234 54.6981L6.89856 53.2856L21.5596 23.7763L45.9444 -25.3086L48.0156 -29.4848L48.0852 -29.623L56.2947 -33.8298L57.2984 -35.1809L78.8578 -64.2296L105.761 -100.479L105.79 -100.51L115.293 -101.876L116.645 -103.028L120.706 -106.498L143.907 -126.273L168.164 -146.954L219.434 -171.75L266.086 -178.828L297.897 -171.719L305.73 -169.969L308.085 -168.464L330.329 -154.277L337.494 -149.718L338.063 -149.011L355.033 -127.931L360.527 -121.114L363.637 -114.389L369.816 -101.016L375.722 -88.2424" stroke="url(#paint41_linear_13291_97579)" stroke-width="0.5" stroke-linecap="round" stroke-linejoin="round"/>
</g>
<g style="mix-blend-mode:overlay">
<path d="M-31.7294 786.351L-33.087 780.931L-35.0306 774.621L-37.2584 767.681L-39.6082 760.281L-41.3371 755.536L-41.7838 752.834L-42.6251 747.814L-42.9094 746.754L-43.2459 745.495L-43.3909 744.758L-43.4895 743.545L-43.8667 738.924L-46.1467 721.39L-48.8736 702.982L-55.7371 656.66L-60.3088 566.075L-60.216 564.432L-57.1759 511.739L-54.7101 468.965L-54.4491 467.368L-44.5455 407.443L-38.2506 369.367L-37.2236 365.851L-16.8189 296.146L-9.48543 271.089L-9.0329 270.03L22.3314 197.5L29.9027 179.998L31.4692 177.48L75.841 106.148L78.7361 101.495L132.501 39.9896L187.734 -1.29579L197.382 10.0811L247.213 -7.94383L289.81 -9.57129L294.567 8.54577H294.591L325.514 20.7517L326.111 21.3198L333.631 28.4899L346.94 41.1872L359.605 65.1539L364.27 90.1185L362.732 113.256L361.665 116.404L355.973 133.246" stroke="url(#paint42_linear_13291_97579)" stroke-width="0.5" stroke-linecap="round" stroke-linejoin="round"/>
</g>
<g style="mix-blend-mode:overlay">
<path d="M-67.9149 564.8L-68.0367 561.806L-68.5473 548.986L-69.2899 534.692L-70.6823 510.571L-70.5721 509.021L-70.3574 505.075V503.77L-69.9571 493.928L-75.8865 462.454L-74.8248 450.739L-82.3555 351.725L-79.2573 340.21L-77.5864 291.8L-75.7241 237.91L-70.5431 227.07L-70.3864 226.011L-61.9913 169.802L-55.4121 125.768L-48.1831 116.188L-47.9046 115.19L-30.6792 52.8856L-21.8199 20.8583L-12.6647 13.2123L-12.2644 12.2757L-11.0402 9.42L15.0677 -51.3796L23.4918 -70.9859L24.5942 -72.8591L62.7871 -137.343L65.5372 -141.98L66.1753 -142.763L111.18 -198.112L157.832 -237.647L171.193 -232.688L184.201 -227.069L197.086 -221.434L209.531 -215.078L221.773 -208.722L233.475 -201.598L244.887 -194.52L255.667 -186.628L266.087 -178.828L275.793 -170.138L285.076 -161.602L293.604 -152.067L301.651 -142.671L308.921 -132.185L315.697 -121.775L321.673 -110.168L327.156 -98.5607L331.844 -85.6331L336.044 -72.6134L336.7 -71.9379L343.407 -64.8906L360.8 -46.6508L362.135 -45.2689L363.254 -43.0734L376.482 -17.1721L378.53 -13.1649L385.823 20.7662L386.032 53.3155L385.4 56.8314L385.144 57.4609L383.973 63.1877L383.427 65.5061L381.64 73.6127L381.257 77.2975L380.52 80.6292L380.12 82.1339L379.731 83.4235L379.099 85.4963L378.646 86.2486L377.944 86.8934L377.225 87.4308L376.697 88.3674L374.806 94.0788L374.075 96.2744L372.363 100.85L367.623 110.661L367.507 111.075L362.14 122.222L356.751 131.956L355.927 133.384L349.823 143.44L349.481 144.07" stroke="url(#paint43_linear_13291_97579)" stroke-width="0.5" stroke-linecap="round" stroke-linejoin="round"/>
</g>
<g style="mix-blend-mode:overlay">
<path d="M-69.6785 533.158L-71.2276 527.093L-77.6791 501.775L-93.2858 404.818L-100.509 302.273L-98.6061 196.273L-98.5132 195.397L-88.1223 99.8377L-87.049 90.0115L-86.8053 88.8139L-65.948 -13.3939L-65.7855 -13.9006L-35.8658 -110.013L-35.3205 -111.272L1.97902 -196.714L45.8519 -270.119L87.7116 -321" stroke="url(#paint44_linear_13291_97579)" stroke-width="0.5" stroke-linecap="round" stroke-linejoin="round"/>
</g>
<g style="mix-blend-mode:overlay">
<path d="M-70.3054 505.122L-69.7427 495.065L-69.3946 483.151L-69.2553 476.856L-69.0174 471.068L-73.6995 439.593L-72.4115 429.138L-71.1583 419.173L-72.9975 318.838L-69.9283 308.935L-66.2848 270.291L-60.309 206.881L-55.3311 197.454L-54.9366 195.643L-45.3405 151.087L-33.9632 98.3017L-27.0359 89.9034L-26.3397 87.9535L-25.0401 84.2994L-8.85322 38.8226L5.33789 -1.03496L14.1334 -7.683L15.2415 -9.75572L41.4016 -58.6103L55.5695 -85.0643L56.3005 -86.0623L58.5052 -89.0562L91.2155 -133.458L101.676 -147.66L101.693 -147.676L103.556 -149.441L146.553 -189.99L149.72 -192.984L162.188 -190.742L174.302 -187.671L221.772 -208.721L264.676 -213.173L301.663 -204.36L302.005 -204.13L331.321 -184.769L333.375 -182.344L353.861 -158.07L354.464 -156.826L368.139 -128.745L368.986 -127.01L371.829 -116.523L375.281 -103.765L377.846 -94.3224L377.863 -94.2303L379.911 -82.1011L379.859 -79.6906L379.923 -78.4777" stroke="url(#paint45_linear_13291_97579)" stroke-width="0.5" stroke-linecap="round" stroke-linejoin="round"/>
</g>
<g style="mix-blend-mode:overlay">
<path d="M-61.1731 359.679L-58.7364 329.985L-58.6957 329.525L-58.6841 329.463L-58.3534 327.268L-57.9531 324.627L-57.9241 324.504L-57.7617 323.936L-56.816 319.33L-54.6113 302.119L-49.9931 270.905L-45.4677 240.321L-45.4155 239.999L-43.2631 234.103L-39.0104 219.026L-26.583 174.977L-14.4051 131.803L-11.6319 125.14L-10.8602 125.355L-5.92295 121.347L-1.76309 116.665L-0.0747756 113.256L10.3394 92.2374L42.9685 26.4172L48.9791 23.3926L51.0851 20.5675L52.025 19.3085L69.906 -4.67352L102.611 -48.569L110.037 -48.83L167.561 -97.6079L223.206 -125.137L273.525 -131.616L315.698 -121.774L316.446 -121.252L339.955 -104.517L348.124 -98.698L350.056 -96.1032L363.626 -77.8633L370.901 -68.0832L371.644 -66.1026L374.858 -57.6122L379.279 -45.9128L384.118 -33.1081L385.754 -19.5357L386.212 -15.1599L387.645 -1.51071L388.359 11.4476L389.038 28.3517" stroke="url(#paint46_linear_13291_97579)" stroke-width="0.5" stroke-linecap="round" stroke-linejoin="round"/>
</g>
<g style="mix-blend-mode:overlay">
<path d="M-68.9592 469.609L-68.5299 459.138L-68.1354 449.45L-67.4624 421.522L-67.7409 417.115L-67.474 415.626L-67.4624 415.089L-68.5589 400.979L-68.1586 377.734L-66.7952 299.662L-63.8537 290.757L-63.6506 289.221L-63.3547 286.98L-59.6532 259.052L-50.3182 188.641L-45.5375 180.104L-45.4911 179.936L-44.1567 174.792L-35.4483 141.26L-20.1026 82.1495L-13.4132 74.5803L-12.5371 72.4462L4.28216 31.5753L22.8942 -13.6405L23.5266 -14.746L25.36 -17.9548L48.4394 -58.4418L65.9665 -89.1794L67.6316 -91.2675L101.578 -133.72L113.373 -148.49L114.382 -149.365L155.151 -184.647L162.189 -190.742L209.531 -215.078L253.23 -223.522L291.162 -217.672L291.243 -217.611L292.85 -216.782L322.648 -201.014L323.048 -200.615L346.772 -176.233L348.721 -172.902L364.125 -146.54L364.832 -144.421L373.918 -116.892L374.701 -114.513" stroke="url(#paint47_linear_13291_97579)" stroke-width="0.5" stroke-linecap="round" stroke-linejoin="round"/>
</g>
<g style="mix-blend-mode:overlay">
<path d="M-58.9806 658.486L-59.613 653.097L-59.4737 650.902L-60.8371 631.449L-61.9569 619.289L-65.3103 582.932L-63.7612 484.808L-63.5292 482.92L-63.2681 480.77L-58.9516 445.227L-51.3745 382.785L-51.1076 381.694L-38.3901 329.784L-26.2819 280.362L-25.87 279.272L-25.2492 277.614L-24.2397 274.942L10.275 183.466L11.6152 181.04L43.757 122.928L57.658 97.7787L111.58 28.458L168.704 -20.3966L177.952 -11.768L231.705 -36.1032L278.995 -42.0757L284.617 -26.1081L289.809 -9.57247L323.402 2.44928L324.255 3.18623L347.398 22.8233L361.937 48.31L368.447 74.7486L367.866 100.112L366.77 104.335L362.14 122.221L355.973 133.245" stroke="url(#paint48_linear_13291_97579)" stroke-width="0.5" stroke-linecap="round" stroke-linejoin="round"/>
</g>
<g style="mix-blend-mode:overlay">
<path d="M-43.0486 746.539L-43.4547 745.295L-43.5011 744.527L-50.1905 730.725L-58.6379 711.18L-66.36 691.097L-73.3105 670.555L-79.4546 649.735L-84.7864 628.732L-90.8319 614.038L-93.7211 607.022L-123.768 534.047L-125.526 511.401L-129.257 497.69L-155.249 402.192L-152.945 379.238L-149.842 356.991L-146.03 335.512L-141.562 314.908L-149.215 196.855L-141.058 178.615L-132.564 161.373L-123.768 145.237L-114.793 130.022L-105.632 115.85L-96.3899 102.447L-87.0491 90.0105L-77.7025 78.2037L-77.5632 77.6049L-77.0875 75.5322L-54.5186 -22.3766L-43.1588 -30.9131L-31.8628 -38.6973L-20.6422 -46.1437L-20.5377 -46.3894L-19.8067 -48.0629L15.6942 -129.267L16.1178 -129.973L16.2396 -130.188L17.5276 -132.353L57.6468 -199.832L103.022 -255.365L116.981 -251.404L130.714 -246.997L144.406 -242.606L157.832 -237.647L203.323 -261.307L245.368 -269.705L282.755 -265.268L314.102 -250.176L315.135 -249.239L339.345 -227.299L339.572 -226.961L347.555 -214.97L358.05 -199.202L359.031 -196.853L370.936 -168.25L371.209 -167.067L378.211 -136.637L379.151 -114.62L379.505 -102.506L379.726 -92.2655L379.755 -82.0861L379.795 -80.9346L379.818 -80.4894L379.766 -78.6009L379.801 -76.4514L380.178 -74.4708L380.451 -72.7359L380.433 -72.352L380.578 -71.7686L380.271 -70.6325L381.014 -66.5638L381.861 -63.3856L381.901 -61.5893L382.36 -59.0406L382.94 -55.7703L383.067 -54.711L383.207 -54.0661L383.27 -53.7897L383.294 -53.3138L382.998 -51.3332L383.381 -47.6637L384.866 -42.7199L385.324 -40.5858L385.957 -36.2101L387.001 -29.0093L387.459 -25.8618L387.541 -24.8639L387.825 -21.4708L388.463 -13.748L388.643 -11.5217L389.008 -5.77955L389.513 2.17351V2.25029L389.461 10.7254L389.432 15.531L389.328 19.0316L389.072 27.0921L389.037 28.3511L388.306 35.1988L387.697 40.9256L387.43 42.9062L387.076 45.4548L386.508 50.0916L386.305 51.8112L386.032 53.3158L385.788 54.237L385.185 57.0006L384.193 63.0345L383.508 66.6119L381.309 73.8434L381.112 74.9488L380.486 77.2672L379.238 81.5508L378.995 83.9459L378.403 85.1895L378.171 86.7249L376.68 91.7454L372.758 101.203L370.414 105.042L367.234 112.38L363.603 119.612L362.088 122.913L358.311 131.158L355.474 134.735L352.202 140.17L350.015 143.179L349.481 144.07L343.111 152.96L340.059 157.688L338.742 158.533L335.615 164.413L334.513 166.732L331.78 170.831L327.08 178.492L324.267 184.004L323.536 185.57L319.706 192.065L316.98 199.511L314.932 203.411L314.189 205.453L313.203 208.171L308.364 219.916L307.233 222.664L306.687 224L302.603 237.419L299.191 247.353L298.17 252.496L293.651 270.321L292.798 274.728L291.04 288.715L291.028 288.791L288.858 302.487L288.394 305.419L288.359 308.444L287.605 326.714L286.781 338.951L287.495 347.334L288.539 364.653L287.692 368.199L281.6 373.266L274.772 357.467L267.166 341.484L258.765 325.501L249.401 309.534L239.132 293.889L227.789 278.566L215.559 263.95L202.296 250.009L188.331 237.142L173.514 225.29L158.348 214.819L142.643 205.591L127.053 197.884L111.278 191.497L96.1298 186.63L81.1381 183.006L67.2081 180.719L53.6784 179.49L41.5295 179.321L29.9028 179.997L19.8367 181.409L10.2754 183.467L2.29797 186.016L-30.2383 276.893L-31.416 280.163L-32.2283 282.435L-33.2726 285.352L-47.3129 349.376L-55.679 387.499L-56.0155 389.034L-62.7803 452.92L-63.3373 458.17L-66.801 490.858L-66.946 492.255L-66.2962 590.087L-63.5752 615.482L-62.1828 628.517L-61.5098 634.812L-60.8368 641.107L-59.6126 653.098L-58.9802 658.487L-58.1447 663.722L-56.9728 673.364L-55.0176 686.123L-54.4896 690.652L-53.6252 694.721L-50.8229 706.865L-49.4653 712.807L-48.0439 718.549L-45.8972 728.928L-45.3635 732.03L-43.8666 738.923L-43.4373 739.706L-40.9019 749.794L-40.8613 749.978L-37.6123 762.905L-35.0305 774.62L-33.9282 780.025L-32.4023 785.659L-31.8454 786.826L-30.8823 790.526L-30.5748 792.43L-30.2557 793.612L-29.983 794.626L-29.8206 795.224L-29.6523 795.24L-28.4049 799.6L-26.5019 806.371L-12.2296 849.56L-8.98065 859.601L-7.73906 863.133L-5.35455 870.794L-2.37824 878.701L2.12393 888.788L6.47525 899.198L7.38032 901.424L9.89249 907.688L11.1573 911.097L11.6098 912.371L22.1284 935.708L22.7376 937.059L24.4143 940.775L26.1026 944.414L27.1527 946.855L27.9824 948.851" stroke="url(#paint49_linear_13291_97579)" stroke-width="0.5" stroke-linecap="round" stroke-linejoin="round"/>
</g>
<g style="mix-blend-mode:overlay">
<path d="M-56.5144 319.575L-55.8994 315.844L-55.5571 314.831L-55.0814 314.263L-51.6293 299.984L-29.513 208.478L-27.2561 202.429L-26.5947 200.648L-25.2313 196.993L-24.2914 194.475L7.71106 108.665L13.2575 105.41L18.717 102.539L25.3078 100.328L31.974 98.5933L39.9282 97.6107L48.1087 97.2268L102.21 24.6665L111.58 28.4588L121.982 33.7864L132.501 39.9892L143.907 47.8502L155.337 56.7091L167.375 67.303L179.257 78.9255L191.366 92.237L203.062 106.546L214.573 122.36L225.399 139.004L260.615 126.337L267.311 146.435L273.147 167.192L278.009 187.95L281.925 208.938L284.878 229.589L286.926 250.116L288.127 270.076L288.568 289.605L288.394 305.419" stroke="url(#paint50_linear_13291_97579)" stroke-width="0.5" stroke-linecap="round" stroke-linejoin="round"/>
</g>
<g style="mix-blend-mode:overlay">
<path d="M-57.9014 324.365L-57.4604 322.262L-57.2806 320.159L-56.9905 318.255L-52.4245 291.371L-43.4202 235.07L-43.3506 234.625L-43.2635 234.103L-40.6934 228.437L-39.4228 225.766L-38.4539 223.125L-35.5994 217.966L-32.9828 213.161L-29.6874 203.964L-28.9622 201.937L-27.5176 197.915L-26.5487 195.197L3.08091 112.488L7.71071 108.665L9.34101 105.702L23.2768 80.3073L55.6448 21.3041L62.0964 19.6152L69.3776 18.9857L76.5718 18.8476L84.7465 19.9223L92.9502 21.6112L102.21 24.6665L159.38 -28.1954L215.82 -58.979L223.687 -48.508L231.705 -36.1024L239.456 -22.9598L247.213 -7.94418L254.599 7.79308L294.567 8.54541L298.814 27.1077L326.906 40.1888L326.923 40.2042L345.965 59.5956L356.391 82.4875L359.669 105.333L356.768 126.429L354.308 132.371L349.626 143.702" stroke="url(#paint51_linear_13291_97579)" stroke-width="0.5" stroke-linecap="round" stroke-linejoin="round"/>
</g>
</g>
</g>
</g>
<defs>
<linearGradient id="paint0_linear_13291_97579" x1="-87.5049" y1="144.459" x2="347.003" y2="11.4855" gradientUnits="userSpaceOnUse">
<stop stop-color="#427DFF"/>
<stop offset="1" stop-color="#44D5BB"/>
</linearGradient>
<linearGradient id="paint1_linear_13291_97579" x1="-86.3027" y1="127.286" x2="337.575" y2="3.42788" gradientUnits="userSpaceOnUse">
<stop stop-color="#427DFF"/>
<stop offset="1" stop-color="#44D5BB"/>
</linearGradient>
<linearGradient id="paint2_linear_13291_97579" x1="-66.0486" y1="487.03" x2="293.156" y2="441.95" gradientUnits="userSpaceOnUse">
<stop stop-color="#427DFF"/>
<stop offset="1" stop-color="#44D5BB"/>
</linearGradient>
<linearGradient id="paint3_linear_13291_97579" x1="-46.0404" y1="515.673" x2="275.592" y2="477.194" gradientUnits="userSpaceOnUse">
<stop stop-color="#427DFF"/>
<stop offset="1" stop-color="#44D5BB"/>
</linearGradient>
<linearGradient id="paint4_linear_13291_97579" x1="-83.2121" y1="137.612" x2="303.209" y2="19.2746" gradientUnits="userSpaceOnUse">
<stop stop-color="#427DFF"/>
<stop offset="1" stop-color="#44D5BB"/>
</linearGradient>
<linearGradient id="paint5_linear_13291_97579" x1="-79.226" y1="310.384" x2="336.066" y2="166.411" gradientUnits="userSpaceOnUse">
<stop stop-color="#427DFF"/>
<stop offset="1" stop-color="#44D5BB"/>
</linearGradient>
<linearGradient id="paint6_linear_13291_97579" x1="-115.049" y1="113.613" x2="66.448" y2="101.52" gradientUnits="userSpaceOnUse">
<stop stop-color="#427DFF"/>
<stop offset="1" stop-color="#44D5BB"/>
</linearGradient>
<linearGradient id="paint7_linear_13291_97579" x1="-121.111" y1="120.338" x2="46.6855" y2="110.167" gradientUnits="userSpaceOnUse">
<stop stop-color="#427DFF"/>
<stop offset="1" stop-color="#44D5BB"/>
</linearGradient>
<linearGradient id="paint8_linear_13291_97579" x1="-103.391" y1="97.4922" x2="133.693" y2="75.9811" gradientUnits="userSpaceOnUse">
<stop stop-color="#427DFF"/>
<stop offset="1" stop-color="#44D5BB"/>
</linearGradient>
<linearGradient id="paint9_linear_13291_97579" x1="-132.484" y1="132.582" x2="8.05914" y2="125.648" gradientUnits="userSpaceOnUse">
<stop stop-color="#427DFF"/>
<stop offset="1" stop-color="#44D5BB"/>
</linearGradient>
<linearGradient id="paint10_linear_13291_97579" x1="279.295" y1="178.615" x2="296.543" y2="178.122" gradientUnits="userSpaceOnUse">
<stop stop-color="#427DFF"/>
<stop offset="1" stop-color="#44D5BB"/>
</linearGradient>
<linearGradient id="paint11_linear_13291_97579" x1="298.193" y1="137.229" x2="310.084" y2="137.025" gradientUnits="userSpaceOnUse">
<stop stop-color="#427DFF"/>
<stop offset="1" stop-color="#44D5BB"/>
</linearGradient>
<linearGradient id="paint12_linear_13291_97579" x1="-207.438" y1="320.889" x2="370.796" y2="234.417" gradientUnits="userSpaceOnUse">
<stop stop-color="#427DFF"/>
<stop offset="1" stop-color="#44D5BB"/>
</linearGradient>
<linearGradient id="paint13_linear_13291_97579" x1="-73.1017" y1="432.465" x2="337.394" y2="365.297" gradientUnits="userSpaceOnUse">
<stop stop-color="#427DFF"/>
<stop offset="1" stop-color="#44D5BB"/>
</linearGradient>
<linearGradient id="paint14_linear_13291_97579" x1="-62.8983" y1="471.263" x2="333.737" y2="410.065" gradientUnits="userSpaceOnUse">
<stop stop-color="#427DFF"/>
<stop offset="1" stop-color="#44D5BB"/>
</linearGradient>
<linearGradient id="paint15_linear_13291_97579" x1="-114.772" y1="165.607" x2="162.58" y2="140.286" gradientUnits="userSpaceOnUse">
<stop stop-color="#427DFF"/>
<stop offset="1" stop-color="#44D5BB"/>
</linearGradient>
<linearGradient id="paint16_linear_13291_97579" x1="-42.1653" y1="527.702" x2="323.922" y2="476.149" gradientUnits="userSpaceOnUse">
<stop stop-color="#427DFF"/>
<stop offset="1" stop-color="#44D5BB"/>
</linearGradient>
<linearGradient id="paint17_linear_13291_97579" x1="-116.683" y1="196.674" x2="362.487" y2="108.998" gradientUnits="userSpaceOnUse">
<stop stop-color="#427DFF"/>
<stop offset="1" stop-color="#44D5BB"/>
</linearGradient>
<linearGradient id="paint18_linear_13291_97579" x1="-92.1916" y1="126.173" x2="352.896" y2="6.03494" gradientUnits="userSpaceOnUse">
<stop stop-color="#427DFF"/>
<stop offset="1" stop-color="#44D5BB"/>
</linearGradient>
<linearGradient id="paint19_linear_13291_97579" x1="-89.8896" y1="164.142" x2="303.561" y2="66.5575" gradientUnits="userSpaceOnUse">
<stop stop-color="#427DFF"/>
<stop offset="1" stop-color="#44D5BB"/>
</linearGradient>
<linearGradient id="paint20_linear_13291_97579" x1="-178.376" y1="165.991" x2="26.7937" y2="152.198" gradientUnits="userSpaceOnUse">
<stop stop-color="#427DFF"/>
<stop offset="1" stop-color="#44D5BB"/>
</linearGradient>
<linearGradient id="paint21_linear_13291_97579" x1="-230.515" y1="238.012" x2="367.297" y2="133.123" gradientUnits="userSpaceOnUse">
<stop stop-color="#427DFF"/>
<stop offset="1" stop-color="#44D5BB"/>
</linearGradient>
<linearGradient id="paint22_linear_13291_97579" x1="-89.3086" y1="144.122" x2="350.771" y2="13.6858" gradientUnits="userSpaceOnUse">
<stop stop-color="#427DFF"/>
<stop offset="1" stop-color="#44D5BB"/>
</linearGradient>
<linearGradient id="paint23_linear_13291_97579" x1="-152.632" y1="188.912" x2="370.195" y2="96.3017" gradientUnits="userSpaceOnUse">
<stop stop-color="#427DFF"/>
<stop offset="1" stop-color="#44D5BB"/>
</linearGradient>
<linearGradient id="paint24_linear_13291_97579" x1="-92.5682" y1="198.595" x2="344.452" y2="80.274" gradientUnits="userSpaceOnUse">
<stop stop-color="#427DFF"/>
<stop offset="1" stop-color="#44D5BB"/>
</linearGradient>
<linearGradient id="paint25_linear_13291_97579" x1="-92.7211" y1="136.99" x2="354.649" y2="33.4918" gradientUnits="userSpaceOnUse">
<stop stop-color="#427DFF"/>
<stop offset="1" stop-color="#44D5BB"/>
</linearGradient>
<linearGradient id="paint26_linear_13291_97579" x1="-89.8102" y1="113.975" x2="352.011" y2="-2.78859" gradientUnits="userSpaceOnUse">
<stop stop-color="#427DFF"/>
<stop offset="1" stop-color="#44D5BB"/>
</linearGradient>
<linearGradient id="paint27_linear_13291_97579" x1="-94.4068" y1="219.692" x2="347.05" y2="99.1434" gradientUnits="userSpaceOnUse">
<stop stop-color="#427DFF"/>
<stop offset="1" stop-color="#44D5BB"/>
</linearGradient>
<linearGradient id="paint28_linear_13291_97579" x1="-96.0067" y1="140.406" x2="357.801" y2="40.5023" gradientUnits="userSpaceOnUse">
<stop stop-color="#427DFF"/>
<stop offset="1" stop-color="#44D5BB"/>
</linearGradient>
<linearGradient id="paint29_linear_13291_97579" x1="-110.131" y1="153.684" x2="351.196" y2="73.1012" gradientUnits="userSpaceOnUse">
<stop stop-color="#427DFF"/>
<stop offset="1" stop-color="#44D5BB"/>
</linearGradient>
<linearGradient id="paint30_linear_13291_97579" x1="-99.5166" y1="193.627" x2="332.425" y2="113.206" gradientUnits="userSpaceOnUse">
<stop stop-color="#427DFF"/>
<stop offset="1" stop-color="#44D5BB"/>
</linearGradient>
<linearGradient id="paint31_linear_13291_97579" x1="-181.978" y1="180.692" x2="548.064" y2="1.81063" gradientUnits="userSpaceOnUse">
<stop stop-color="#427DFF"/>
<stop offset="1" stop-color="#44D5BB"/>
</linearGradient>
<linearGradient id="paint32_linear_13291_97579" x1="336.984" y1="16.3364" x2="384.165" y2="11.5461" gradientUnits="userSpaceOnUse">
<stop stop-color="#427DFF"/>
<stop offset="1" stop-color="#44D5BB"/>
</linearGradient>
<linearGradient id="paint33_linear_13291_97579" x1="-87.1334" y1="349.94" x2="355.913" y2="263.897" gradientUnits="userSpaceOnUse">
<stop stop-color="#427DFF"/>
<stop offset="1" stop-color="#44D5BB"/>
</linearGradient>
<linearGradient id="paint34_linear_13291_97579" x1="-78.7192" y1="432.334" x2="343.155" y2="363.993" gradientUnits="userSpaceOnUse">
<stop stop-color="#427DFF"/>
<stop offset="1" stop-color="#44D5BB"/>
</linearGradient>
<linearGradient id="paint35_linear_13291_97579" x1="-87.4431" y1="117.714" x2="350.064" y2="-10.1932" gradientUnits="userSpaceOnUse">
<stop stop-color="#427DFF"/>
<stop offset="1" stop-color="#44D5BB"/>
</linearGradient>
<linearGradient id="paint36_linear_13291_97579" x1="-55.9628" y1="501.01" x2="329.304" y2="445.18" gradientUnits="userSpaceOnUse">
<stop stop-color="#427DFF"/>
<stop offset="1" stop-color="#44D5BB"/>
</linearGradient>
<linearGradient id="paint37_linear_13291_97579" x1="-104.702" y1="196.177" x2="359.224" y2="92.2403" gradientUnits="userSpaceOnUse">
<stop stop-color="#427DFF"/>
<stop offset="1" stop-color="#44D5BB"/>
</linearGradient>
<linearGradient id="paint38_linear_13291_97579" x1="-87.5562" y1="114.059" x2="352.592" y2="-13.417" gradientUnits="userSpaceOnUse">
<stop stop-color="#427DFF"/>
<stop offset="1" stop-color="#44D5BB"/>
</linearGradient>
<linearGradient id="paint39_linear_13291_97579" x1="-86.1792" y1="101.968" x2="347.803" y2="-20.5948" gradientUnits="userSpaceOnUse">
<stop stop-color="#427DFF"/>
<stop offset="1" stop-color="#44D5BB"/>
</linearGradient>
<linearGradient id="paint40_linear_13291_97579" x1="-94.4333" y1="124.767" x2="352.707" y2="19.818" gradientUnits="userSpaceOnUse">
<stop stop-color="#427DFF"/>
<stop offset="1" stop-color="#44D5BB"/>
</linearGradient>
<linearGradient id="paint41_linear_13291_97579" x1="-92.6301" y1="128.315" x2="349.765" y2="21.1564" gradientUnits="userSpaceOnUse">
<stop stop-color="#427DFF"/>
<stop offset="1" stop-color="#44D5BB"/>
</linearGradient>
<linearGradient id="paint42_linear_13291_97579" x1="-83.7042" y1="388.386" x2="350.389" y2="310.764" gradientUnits="userSpaceOnUse">
<stop stop-color="#427DFF"/>
<stop offset="1" stop-color="#44D5BB"/>
</linearGradient>
<linearGradient id="paint43_linear_13291_97579" x1="-108.165" y1="163.572" x2="367.81" y2="70.4433" gradientUnits="userSpaceOnUse">
<stop stop-color="#427DFF"/>
<stop offset="1" stop-color="#44D5BB"/>
</linearGradient>
<linearGradient id="paint44_linear_13291_97579" x1="-110.88" y1="106.075" x2="86.6336" y2="91.4852" gradientUnits="userSpaceOnUse">
<stop stop-color="#427DFF"/>
<stop offset="1" stop-color="#44D5BB"/>
</linearGradient>
<linearGradient id="paint45_linear_13291_97579" x1="-98.6952" y1="145.971" x2="359.393" y2="48.9972" gradientUnits="userSpaceOnUse">
<stop stop-color="#427DFF"/>
<stop offset="1" stop-color="#44D5BB"/>
</linearGradient>
<linearGradient id="paint46_linear_13291_97579" x1="-85.9809" y1="114.029" x2="348.08" y2="-19.3037" gradientUnits="userSpaceOnUse">
<stop stop-color="#427DFF"/>
<stop offset="1" stop-color="#44D5BB"/>
</linearGradient>
<linearGradient id="paint47_linear_13291_97579" x1="-93.4061" y1="123.04" x2="354.099" y2="27.0236" gradientUnits="userSpaceOnUse">
<stop stop-color="#427DFF"/>
<stop offset="1" stop-color="#44D5BB"/>
</linearGradient>
<linearGradient id="paint48_linear_13291_97579" x1="-89.2114" y1="308.202" x2="349.546" y2="217.14" gradientUnits="userSpaceOnUse">
<stop stop-color="#427DFF"/>
<stop offset="1" stop-color="#44D5BB"/>
</linearGradient>
<linearGradient id="paint49_linear_13291_97579" x1="-185.267" y1="339.567" x2="376.888" y2="255.325" gradientUnits="userSpaceOnUse">
<stop stop-color="#427DFF"/>
<stop offset="1" stop-color="#44D5BB"/>
</linearGradient>
<linearGradient id="paint50_linear_13291_97579" x1="-75.5294" y1="172.119" x2="240.021" y2="48.3492" gradientUnits="userSpaceOnUse">
<stop stop-color="#427DFF"/>
<stop offset="1" stop-color="#44D5BB"/>
</linearGradient>
<linearGradient id="paint51_linear_13291_97579" x1="-80.9106" y1="132.691" x2="307.839" y2="-9.25419" gradientUnits="userSpaceOnUse">
<stop stop-color="#427DFF"/>
<stop offset="1" stop-color="#44D5BB"/>
</linearGradient>
<clipPath id="clip0_13291_97579">
<rect width="360" height="134" fill="white"/>
</clipPath>
</defs>
</svg>
