<svg width="908" height="73" viewBox="0 0 908 73" fill="none" xmlns="http://www.w3.org/2000/svg">
<g clip-path="url(#clip0_6098_123565)" filter="url(#filter0_dd_6098_123565)">
<rect width="900" height="64" transform="translate(4 1)" fill="url(#paint0_linear_6098_123565)"/>
<g opacity="0.35">
<g style="mix-blend-mode:overlay">
<g style="mix-blend-mode:overlay">
<path d="M900.746 1.89062L887.823 45.5244L887.58 45.9209L869.154 76.9063L861.029 90.5742L860.301 91.3673L838.444 115.288L827.171 127.629L789.356 157.02L750.051 179.476L711.111 195.734L694.287 200.694L693.349 200.97" stroke="url(#paint1_linear_6098_123565)" stroke-width="0.5" stroke-linecap="round" stroke-linejoin="round"/>
</g>
<g style="mix-blend-mode:overlay">
<path d="M910.733 1.89062L898.109 42.7649L897.745 43.3556L879.626 73.2081L869.527 89.8378L869.122 90.2667L868.467 90.9789L833.67 128.317L793.904 158.736L752.731 181.791L712.067 198.412L694.086 203.543L692.176 204.093L691.949 204.158" stroke="url(#paint2_linear_6098_123565)" stroke-width="0.5" stroke-linecap="round" stroke-linejoin="round"/>
</g>
<g style="mix-blend-mode:overlay">
<path d="M920.184 1.89062L908.305 39.4875L907.9 40.143L907.188 41.2921L889.96 69.1701L877.967 88.5673L877.408 89.1581L876.624 89.9916L856.425 111.412L840.273 128.543L798.63 159.941L755.692 183.668L713.385 200.63L691.285 206.804L690.573 207.006" stroke="url(#paint3_linear_6098_123565)" stroke-width="0.5" stroke-linecap="round" stroke-linejoin="round"/>
</g>
<g style="mix-blend-mode:overlay">
<path d="M976.984 1.89062L959.44 36.7118L952.036 45.4839L946.598 51.9011L942.794 56.9102L940.083 61.0211L925.436 79.6172L920.403 86.0425L912.974 93.6493L905.44 100.479L899.128 105.683L897.607 106.856L890.275 111.865L882.749 116.429L875.312 120.208L868.013 123.267L860.835 125.582L853.835 127.224L846.981 128.171L840.273 128.543L833.669 128.317L827.171 127.629L820.689 126.488L814.207 125.023L807.661 123.291L800.993 121.43L794.163 119.512L787.131 117.683L779.864 116.025L772.354 114.673L764.61 113.702L756.639 113.249L748.506 113.362L740.219 114.131L731.86 115.571L723.452 117.748L715.077 120.637L706.709 124.238L698.439 128.503L690.193 133.374L687.271 135.317" stroke="url(#paint4_linear_6098_123565)" stroke-width="0.5" stroke-linecap="round" stroke-linejoin="round"/>
</g>
<g style="mix-blend-mode:overlay">
<path d="M929.134 1.89062L918.299 35.5708L917.757 36.4529L900.52 64.1124L886.431 86.7304L885.808 87.3859L884.716 88.535L865.537 108.677L846.981 128.171L846.221 128.738L825.359 144.348L803.607 160.637L758.986 185.02L715.133 202.41L690.5 209.159L689.489 210.34L688.623 211.481L687.765 212.444L686.859 214.014L684.957 215.835L683.824 216.782" stroke="url(#paint5_linear_6098_123565)" stroke-width="0.5" stroke-linecap="round" stroke-linejoin="round"/>
</g>
<g style="mix-blend-mode:overlay">
<path d="M553.473 1.89062L587.655 7.53906L598.11 18.5931L608.687 29.5501L618.818 40.4424L628.885 51.278L638.248 62.065" stroke="url(#paint6_linear_6098_123565)" stroke-width="0.5" stroke-linecap="round" stroke-linejoin="round"/>
</g>
<g style="mix-blend-mode:overlay">
<path d="M937.534 1.89062L928.164 31.0068L927.573 31.9374L910.886 58.6015L894.856 84.2218L894.022 85.0876L892.841 86.3258L875.078 104.946L853.836 127.224L853.002 127.847L851.562 128.916L833.37 142.47L808.842 160.735L762.684 185.861L717.383 203.672L689.732 211.918L687.943 213.14" stroke="url(#paint7_linear_6098_123565)" stroke-width="0.5" stroke-linecap="round" stroke-linejoin="round"/>
</g>
<g style="mix-blend-mode:overlay">
<path d="M789.89 1.89062L795.029 30.8125L791.533 61.9436L780.722 89.7326L764.61 113.702L744.97 133.739L738.593 132.112L731.836 131.068L724.788 130.655L717.432 130.947L709.873 131.966L702.105 133.731L694.231 136.223L688.51 138.513" stroke="url(#paint8_linear_6098_123565)" stroke-width="0.5" stroke-linecap="round" stroke-linejoin="round"/>
</g>
<g style="mix-blend-mode:overlay">
<path d="M734.425 1.89062L747.866 27.5918L752.956 52.7993L750.998 76.2427L743.48 97.2908L732.321 114.859L731.859 115.571L718.078 130.259L717.431 130.947L701.367 143.393L694.748 143.457L691.22 145.44" stroke="url(#paint9_linear_6098_123565)" stroke-width="0.5" stroke-linecap="round" stroke-linejoin="round"/>
</g>
<g style="mix-blend-mode:overlay">
<path d="M703.513 1.89062L720.571 21.8382L731.545 44.6666L735.17 66.5805L732.791 86.8518L725.661 104.97L715.667 119.763L715.077 120.637L702.938 132.897L702.105 133.731L690.096 142.567" stroke="url(#paint10_linear_6098_123565)" stroke-width="0.5" stroke-linecap="round" stroke-linejoin="round"/>
</g>
<g style="mix-blend-mode:overlay">
<path d="M945.384 1.89062L937.761 25.6739L936.992 26.912L921.422 51.9173L903.287 81.0334L902.405 81.964L900.835 83.6068L884.521 100.738L860.835 125.582L859.743 126.399L858.181 127.564L841.98 139.654L814.385 160.249L813.333 160.824L796.291 170.089L766.802 186.12L720.175 204.441L689.65 212.679" stroke="url(#paint11_linear_6098_123565)" stroke-width="0.5" stroke-linecap="round" stroke-linejoin="round"/>
</g>
<g style="mix-blend-mode:overlay">
<path d="M802.716 1.89062L806.6 26.3051L802.222 59.6131L790.189 88.9234L790.076 89.2147L772.354 114.673L750.982 135.826L727.603 152.812L703.593 165.849L698.155 168.034" stroke="url(#paint12_linear_6098_123565)" stroke-width="0.5" stroke-linecap="round" stroke-linejoin="round"/>
</g>
<g style="mix-blend-mode:overlay">
<path d="M625.786 1.89062L646.001 10.161L650.233 22.4451L654.87 34.6321L659.45 46.7058L664.208 58.7148L668.603 70.5943L672.948 82.401L676.671 94.0216L680.158 105.513L681.146 108.822L684.261 119.27L685.078 121.997" stroke="url(#paint13_linear_6098_123565)" stroke-width="0.5" stroke-linecap="round" stroke-linejoin="round"/>
</g>
<g style="mix-blend-mode:overlay">
<path d="M59.656 460.037L47.1614 443.156L22.4718 392.425L9.06284 338.32L8.375 282.079L8.54494 281.302L20.1736 229.325L21.1204 225.076L21.8972 223.434L47.5822 169.207L47.9949 168.657L48.3834 168.131L87.097 116.251L87.3236 116.041L88.149 115.264L138.281 68.2799L138.685 68.0048L198.908 26.8959L249.372 1.89062" stroke="url(#paint14_linear_6098_123565)" stroke-width="0.5" stroke-linecap="round" stroke-linejoin="round"/>
</g>
<g style="mix-blend-mode:overlay">
<path d="M60.6192 467.125L47.72 451.159L47.1131 450.067L19.8825 400.76L3.17187 346.72L-1.09277 290.009L8.22957 232.141L8.52089 231.421L31.4949 174.718L31.7539 174.33L68.4687 119.812L68.8976 119.367L117.921 69.3076L177.861 25.2369L221.543 1.89062" stroke="url(#paint15_linear_6098_123565)" stroke-width="0.5" stroke-linecap="round" stroke-linejoin="round"/>
</g>
<g style="mix-blend-mode:overlay">
<path d="M815.664 1.89062L818.464 22.0728L813.009 57.6304L799.35 89.1095L779.863 116.025L756.622 138.303L731.39 156.073L705.568 169.668L698.859 172.266" stroke="url(#paint16_linear_6098_123565)" stroke-width="0.5" stroke-linecap="round" stroke-linejoin="round"/>
</g>
<g style="mix-blend-mode:overlay">
<path d="M747.793 1.89062L757.132 19.548L762.724 46.633L760.676 71.8324L752.665 94.4585L740.219 114.131L724.787 130.655L707.559 144.064L701.368 143.393L692.507 148.491" stroke="url(#paint17_linear_6098_123565)" stroke-width="0.5" stroke-linecap="round" stroke-linejoin="round"/>
</g>
<g style="mix-blend-mode:overlay">
<path d="M952.707 1.89062L947.156 19.5966L946.355 20.8995L931.667 44.6908L911.671 77.0843L910.498 78.3144L908.879 80.038L894.329 95.4215L868.013 123.267L866.799 124.182L864.768 125.703L850.591 136.336L820.244 159.084L818.844 159.852L816.951 160.888L804.173 167.872L771.618 186.581L731.876 203.502L729.465 204.198L723.792 205.809L693.745 214.362L688.914 215.738L684.698 216.628" stroke="url(#paint18_linear_6098_123565)" stroke-width="0.5" stroke-linecap="round" stroke-linejoin="round"/>
</g>
<g style="mix-blend-mode:overlay">
<path d="M56.7346 443.043L47.6631 428.266L48.5775 421.388L32.571 369.71L28.7676 315.735L35.1848 277.005L37.8795 260.731L38.0171 260.399L38.4945 259.242L56.9612 214.565L60.2871 206.529L60.6675 205.954L60.9426 205.55L95.0517 155.248L95.3673 154.787L95.5453 154.601L96.4355 153.694L141.833 107.544L142.335 107.172L142.57 107.002L144.043 105.909L197.589 66.2568L259.868 32.4634L325.755 6.78647L344.764 1.89062" stroke="url(#paint19_linear_6098_123565)" stroke-width="0.5" stroke-linecap="round" stroke-linejoin="round"/>
</g>
<g style="mix-blend-mode:overlay">
<path d="M62.035 480.033L50.6815 468.161L47.0237 462.877L16.4996 418.653L-7.25137 364.79L-18.9609 307.351L-17.0673 247.63L-16.8408 246.796L-0.680412 187.164L-0.405274 186.646L30.5802 128.009L31.0091 127.483L76.1156 72.2452L134.421 22.1942L167.284 1.89062" stroke="url(#paint20_linear_6098_123565)" stroke-width="0.5" stroke-linecap="round" stroke-linejoin="round"/>
</g>
<g style="mix-blend-mode:overlay">
<path d="M828.644 1.89062L830.514 18.0429L823.846 55.9311L808.511 89.2876L787.131 117.683L761.915 141.038L734.717 159.577L707.057 173.642L698.787 176.733" stroke="url(#paint21_linear_6098_123565)" stroke-width="0.5" stroke-linecap="round" stroke-linejoin="round"/>
</g>
<g style="mix-blend-mode:overlay">
<path d="M686.235 1.89062L697.565 10.7193L714.995 32.2368L724.447 53.6814L727.166 74.1711L724.285 93.0181L717.091 109.802L707.397 123.283L706.709 124.238L695.185 135.309L694.231 136.223L689.035 139.856" stroke="url(#paint22_linear_6098_123565)" stroke-width="0.5" stroke-linecap="round" stroke-linejoin="round"/>
</g>
<g style="mix-blend-mode:overlay">
<path d="M544.118 1.89062L554.873 9.77253L567.99 19.629L577.402 26.6369L581.132 29.4126L581.262 29.453L618.818 40.4424L619.951 40.9927L647.918 54.5392L648.04 54.6039L648.242 54.7496L668.602 70.5943L669.549 71.8082L681.558 87.2564L681.639 87.3535L681.833 87.8957L687.651 103.854L686.883 115.312L685.62 126.512L685.337 128.657" stroke="url(#paint23_linear_6098_123565)" stroke-width="0.5" stroke-linecap="round" stroke-linejoin="round"/>
</g>
<g style="mix-blend-mode:overlay">
<path d="M718.337 1.89062L726.996 11.6014L739.321 35.9592L743.78 59.4593L741.684 81.2519L734.473 100.795L723.978 116.939L723.452 117.748L710.577 131.23L709.873 131.966L695.655 142.77L694.748 143.457L690.589 143.927" stroke="url(#paint24_linear_6098_123565)" stroke-width="0.5" stroke-linecap="round" stroke-linejoin="round"/>
</g>
<g style="mix-blend-mode:overlay">
<path d="M841.567 1.89062L842.725 14.11L834.665 54.3935L818.1 88.5431L817.549 89.676L794.163 119.512L766.883 143.943L737.686 163.187L708.117 177.696L699.199 180.892L698.601 181.111" stroke="url(#paint25_linear_6098_123565)" stroke-width="0.5" stroke-linecap="round" stroke-linejoin="round"/>
</g>
<g style="mix-blend-mode:overlay">
<path d="M733.964 1.89062L726.996 11.6014L720.571 21.8382L714.995 32.2368L710.116 42.7892L705.964 53.5115L702.299 64.339L699.151 75.3121L696.213 86.3258L693.543 97.4284L692.79 113.014L691.997 115.264L688.25 125.978L688.08 127.459L686.203 131.044L685.475 130.866" stroke="url(#paint26_linear_6098_123565)" stroke-width="0.5" stroke-linecap="round" stroke-linejoin="round"/>
</g>
<g style="mix-blend-mode:overlay">
<path d="M111.641 586.956L101.299 581.672L86.5712 573.288L72.4015 564.346L58.9117 554.83L46.2067 544.803L34.392 534.283L23.5483 523.351L13.7889 512.038L5.16254 500.441L-2.2662 488.602L-8.44872 476.634L-13.385 464.584L-17.067 452.559L-20.5467 448.238L-23.2415 444.888L-63.0071 395.452L-60.9759 383.062L-90.707 318.899L-82.5176 307.1L-73.3571 295.795L-63.3146 285.048L-52.5599 274.836L-48.1577 209.871L-32.5557 201.706L-16.6786 194.18L-0.680104 187.164L15.4155 180.73L31.4949 174.718L47.5824 169.207L63.5809 164.02L79.5228 159.286L80.2996 158.428L123.78 110.141L141.834 107.544L159.734 105.084L177.456 102.947L195.065 100.908L212.504 99.1924L229.837 97.5496L246.977 96.2468L263.995 94.9844L264.044 94.9682L266.107 94.0861L328.774 67.422L394.346 48.4374L457.077 38.1764L514.646 35.5787L564.527 39.7058L566.202 40.0781L606.089 48.9877L606.47 49.1415L638.248 62.0649L638.28 62.0891L647.384 72.771L655.59 83.3719L663.448 93.8434L670.229 104.137L676.598 114.212L680.87 122.741L681.793 124.028L685.54 131.222L686.033 130.388L685.378 129.7L685.807 128.988L688.339 123.372L690.791 108.466L688.372 92.3382L680.28 76.5177L679.737 75.4576L664.257 58.7713L664.208 58.7147L663.949 58.5447L641.364 43.5335L640.562 43.0075L608.687 29.55L580.145 22.5906L567.991 19.6288L519.364 14.5711L463.365 15.7769L445.87 9.23828L383.292 19.8554L364.356 15.437L299.261 36.4851L279.718 34.3811L259.868 32.4632L239.864 30.5049L178.516 66.5237L178.063 66.7908L124.872 109.267L123.95 110.004L123.78 110.141L105.54 113.095L87.0972 116.251L68.4687 119.812L49.6136 123.672L16.2409 179.355L15.4155 180.73L-4.35401 239.027L-4.54823 239.61L-10.1967 298.457L-2.33094 355.516L17.9079 409.524L43.4473 450.795L48.2217 458.515L48.8205 459.478L61.3636 473.713L62.0272 479.952V480.025L62.3347 485.77L62.3752 485.932L62.9659 488.821L64.6815 493.514L65.0375 494.097L66.1785 497.132L67.6028 501.34L67.6756 501.542L70.0224 508.461L72.6119 514.15L74.4651 520.907L75.3876 525.528L76.0512 527.85L76.6257 529.897L77.0951 530.747L78.8268 532.714L82.2661 538.224L84.6776 543.646L87.5261 549.222L90.067 553.729L90.6011 554.781L93.2149 559.968L94.9062 562.979L95.5617 564.015L95.7155 564.67L96.4033 566.305L97.1559 567.81L98.1836 568.902L100.32 571.799L102.513 575.19L105.281 578.734L107.87 582.044L110.29 585.144L110.986 586.042L111.641 586.956ZM111.641 586.956L111.9 587.312L112.491 587.741L113.211 588.397L114.028 589.627L114.206 590.226L114.231 590.582L118.625 596.214L120.68 599.605L120.794 599.823L123.804 603.974L134.389 614.689L140.887 621.786L142.708 623.461L144.585 625.629L161.692 641.741L164.363 643.449L168.036 646.985L171.605 651.751L171.759 651.962L176.339 656.332L181.534 660.434L186.802 664.311L191.075 667.653L193.883 670.089L195.235 671.189" stroke="url(#paint27_linear_6098_123565)" stroke-width="0.5" stroke-linecap="round" stroke-linejoin="round"/>
</g>
<g style="mix-blend-mode:overlay">
<path d="M959.513 1.89062L956.228 12.6696L955.176 14.4175L941.953 36.2182L920.023 72.3827L918.768 73.7341L903.967 89.5627L875.312 120.208L873.686 121.446L871.542 123.065L859.759 132.007L826.427 157.279L824.784 158.185L822.316 159.545L812.16 165.145L776.4 184.866L774.588 185.586L771.885 186.136L770.072 186.322L756.833 191.534L723.93 205.129L686.746 216.062L684.698 216.628" stroke="url(#paint28_linear_6098_123565)" stroke-width="0.5" stroke-linecap="round" stroke-linejoin="round"/>
</g>
<g style="mix-blend-mode:overlay">
<path d="M761.89 1.89062L767.126 11.8199L773.017 40.9279L770.703 67.9967L761.963 92.2898L748.861 112.804L748.505 113.362L731.835 131.068L713.328 145.4L707.558 144.064L693.898 151.995" stroke="url(#paint29_linear_6098_123565)" stroke-width="0.5" stroke-linecap="round" stroke-linejoin="round"/>
</g>
<g style="mix-blend-mode:overlay">
<path d="M72.1831 514.846L66.3324 505.645L61.0238 495.926L55.2864 489.719L52.4298 486.628L49.9778 483.974L16.9774 448.254L15.9577 438.05L15.8525 428.185L16.4999 418.653L17.908 409.524L19.8825 400.761L22.472 392.425L25.45 384.446L28.8892 376.913L21.9218 322.84L28.7679 315.735L35.703 308.945L35.7677 308.638L44.0542 271.882L47.979 254.443L48.2703 253.828L48.4565 253.44L68.5577 211.085L73.3322 201.01L73.494 200.791L74.2628 199.78L109.982 152.213L111.123 150.684L111.617 150.223L111.868 149.988L113.243 148.701L159.734 105.084L159.855 104.995L160.94 104.25L216.841 65.9898L217.391 65.7147L279.718 34.3812L345.088 11.1563L385.558 1.89062" stroke="url(#paint30_linear_6098_123565)" stroke-width="0.5" stroke-linecap="round" stroke-linejoin="round"/>
</g>
<g style="mix-blend-mode:overlay">
<path d="M495.33 1.89062L503.56 6.26856L519.364 14.5713L534.683 22.9387L549.953 31.2657L564.527 39.706L578.924 48.122L592.422 56.6513L594.655 57.3715L628.975 68.4903L629.573 68.8221L655.59 83.3721L658.058 85.646L673.458 99.8561L674.478 101.685L681.793 114.835L682.845 116.72L685.208 127.718" stroke="url(#paint31_linear_6098_123565)" stroke-width="0.5" stroke-linecap="round" stroke-linejoin="round"/>
</g>
<g style="mix-blend-mode:overlay">
<path d="M700.283 1.89062L697.564 10.7193L694.837 22.3561L692.717 33.9766L691.261 45.6538L690.16 57.3148L689.48 69.0244L688.841 80.6773L688.372 92.3384L687.651 103.854L688.08 119.504" stroke="url(#paint32_linear_6098_123565)" stroke-width="0.5" stroke-linecap="round" stroke-linejoin="round"/>
</g>
<g style="mix-blend-mode:overlay">
<path d="M643.338 1.89062L646 10.161L672.211 26.9282L672.673 27.2276L691.261 45.6538L702.298 64.339L706.935 82.4738L706.094 99.3463L701.004 114.552L693.324 126.634L692.628 127.742L686.721 133.909" stroke="url(#paint33_linear_6098_123565)" stroke-width="0.5" stroke-linecap="round" stroke-linejoin="round"/>
</g>
<g style="mix-blend-mode:overlay">
<path d="M67.6033 501.34L61.0242 495.926L56.7029 486.418L53.2475 477.136L50.6822 468.162L48.821 459.479L47.7205 451.16L47.1621 443.156L47.2187 435.55L47.6638 428.267L28.8896 376.913L32.5716 369.711L36.5854 362.937L35.7034 308.945L42.8327 302.577L43.0107 301.962L43.0916 301.662L52.5435 268.039L58.0624 248.407L68.2183 242.783L68.6633 242.038L91.2975 204.409L99.3656 190.992L112.313 186.46L125.131 182.074L125.188 182.018L126.232 181.022L164.703 144.631L173.119 136.668L188.332 133.666L203.416 131.028L204.234 130.542L206.726 129.061L256.105 99.6783L263.995 94.9848L280.779 94.1027L281.904 93.6657L344.417 69.1217L346.788 68.1992L364.397 69.3645L430.462 54.3695L491.94 48.1465L546.684 49.2794L561.679 56.3521L561.792 56.3845L576.326 63.3681L589.897 70.5945L603.023 77.7158L614.927 85.0231L626.304 92.1686L636.355 99.4841L645.839 106.589L653.923 113.872L661.409 120.921L667.462 128.163L672.9 135.195L676.897 142.462L676.93 142.511L680.272 149.551L682.214 156.907L683.541 164.142L683.46 171.667L682.756 179.137L680.701 186.881L678.03 194.593L674.049 202.564L669.477 210.478L663.65 218.579L657.233 226.598L649.643 234.69L641.494 242.637L632.268 250.527L628.125 254.824L623.682 257.737L622.533 258.182L618.333 261.12" stroke="url(#paint34_linear_6098_123565)" stroke-width="0.5" stroke-linecap="round" stroke-linejoin="round"/>
</g>
<g style="mix-blend-mode:overlay">
<path d="M854.369 1.89062L854.968 10.1933L845.468 52.9288L828.198 86.7142L826.451 90.1292L800.992 121.43L771.601 146.872L740.348 166.812L708.869 181.702L698.244 185.359" stroke="url(#paint35_linear_6098_123565)" stroke-width="0.5" stroke-linecap="round" stroke-linejoin="round"/>
</g>
<g style="mix-blend-mode:overlay">
<path d="M614.4 1.89062L617.977 7.68472L625.43 19.5642L633.126 31.3385L640.563 43.0076L648.04 54.6039L654.975 66.0869L661.765 77.4971L662.283 78.0797L676.671 94.0216L678.2 97.307L684.407 110.667L685.208 122.45L685.621 126.512" stroke="url(#paint36_linear_6098_123565)" stroke-width="0.5" stroke-linecap="round" stroke-linejoin="round"/>
</g>
<g style="mix-blend-mode:overlay">
<path d="M-122 264.154L-118.221 260.181L-105.775 248.844L-92.3902 238.121L-78.2206 228.054L-63.436 218.627L-48.1577 209.871L-47.8825 208.981L-27.3443 143.959L10.5439 79.5201L11.0375 78.978L11.7011 78.2416L65.0133 19.2244L87.5665 1.89062" stroke="url(#paint37_linear_6098_123565)" stroke-width="0.5" stroke-linecap="round" stroke-linejoin="round"/>
</g>
<g style="mix-blend-mode:overlay">
<path d="M70.0228 508.461L66.3327 505.645L65.742 505.062L64.5605 503.905L56.6381 496.064L53.2393 492.697L18.9037 458.734L14.2182 452.381L-19.9475 406.061L-48.1168 347.918L-63.3142 285.049L-63.4355 218.627L-46.6764 150.49L-46.2637 149.689L-11.9847 82.9594L-11.5315 82.4091L40.6396 18.9573L61.2103 1.89062" stroke="url(#paint38_linear_6098_123565)" stroke-width="0.5" stroke-linecap="round" stroke-linejoin="round"/>
</g>
<g style="mix-blend-mode:overlay">
<path d="M781.685 1.89062L777.784 4.37496L767.127 11.8199L757.133 19.548L747.867 27.5918L739.321 35.9592L731.545 44.6666L724.448 53.6814L718.063 63.0199L712.22 72.6093L706.936 82.4738L701.975 92.5083L697.347 102.737L692.791 113.014L688.34 123.372" stroke="url(#paint39_linear_6098_123565)" stroke-width="0.5" stroke-linecap="round" stroke-linejoin="round"/>
</g>
<g style="mix-blend-mode:overlay">
<path d="M867.026 1.89062L867.253 6.18764L856.183 51.4075L856.15 51.4803L838.428 84.6264L835.248 90.558L807.661 123.291L776.133 149.761L742.817 170.324L709.42 185.602L698.828 189.09L697.177 189.632" stroke="url(#paint40_linear_6098_123565)" stroke-width="0.5" stroke-linecap="round" stroke-linejoin="round"/>
</g>
<g style="mix-blend-mode:overlay">
<path d="M967.953 1.89062L964.983 4.95761L956.227 12.6696L947.156 19.5966L937.761 25.6739L928.163 31.0068L918.299 35.5708L908.305 39.4875L898.108 42.7649L887.823 45.5244L877.368 47.8064L866.84 49.7404L856.182 51.4075L845.468 52.9288L834.665 54.3935L823.845 55.9311L813.01 57.6304L802.223 59.6131L791.533 61.9436L781.005 64.7193L770.703 67.9967L760.677 71.8324L750.998 76.2427L741.684 81.2519L732.791 86.8518L724.286 93.0181L716.193 99.7347L708.433 106.921L701.004 114.552L693.761 122.523L686.26 131.958L685.345 131.181L685.596 130.664L688.081 127.459L693.778 117.651L697.346 102.737L696.213 86.3258L689.481 69.0244L676.064 51.6745L675.902 51.4641L675.708 51.3103L654.87 34.6321L654.344 34.3651L625.713 19.718L625.43 19.5642L625.292 19.5238L587.655 7.53906L582.266 1.89062" stroke="url(#paint41_linear_6098_123565)" stroke-width="0.5" stroke-linecap="round" stroke-linejoin="round"/>
</g>
<g style="mix-blend-mode:overlay">
<path d="M965.881 1.89062L964.983 4.95761L963.866 6.83503L951.817 27.1548L928.26 66.8638L926.569 68.7088L913.864 82.5467L882.749 116.429L880.879 117.878L868.854 127.119L865.893 129.401L832.892 154.771L826.426 157.279L820.244 159.084L814.385 160.249L808.842 160.735L803.606 160.637L798.629 159.941L793.903 158.736L789.355 157.02L784.929 154.924L780.543 152.456L776.133 149.761L771.601 146.872L766.883 143.943L761.914 141.038L756.622 138.303L750.982 135.826L744.969 133.739L723.363 149.858L701.02 162.337L697.395 163.834" stroke="url(#paint42_linear_6098_123565)" stroke-width="0.5" stroke-linecap="round" stroke-linejoin="round"/>
</g>
<g style="mix-blend-mode:overlay">
<path d="M776.497 1.89062L777.784 4.37496L783.812 35.6679L781.004 64.7193L771.52 90.2424L771.342 90.7199L756.639 113.249L738.593 132.112L718.589 147.374L713.329 145.4L695.355 155.79" stroke="url(#paint43_linear_6098_123565)" stroke-width="0.5" stroke-linecap="round" stroke-linejoin="round"/>
</g>
<g style="mix-blend-mode:overlay">
<path d="M696.108 157.975L697.864 159.189L701.02 162.337L703.594 165.849L705.568 169.668L707.057 173.642L708.117 177.696L708.87 181.702L709.42 185.602L709.906 189.276L710.424 192.683L711.112 195.734L712.066 198.412L713.386 200.63L715.133 202.41L717.383 203.672L720.175 204.441L723.525 204.66L727.45 204.352L764.246 189.705L772.37 186.978L779.88 184.259L781.879 183.32L787.77 181.135L800.621 174.362L807.653 170.793L812.079 168.066L827.001 159.124L827.762 158.671L827.956 158.566L837.076 153.144L839.245 151.898L841.098 150.894L846.625 147.674L871.93 126.812L874.617 124.683L886.65 115.774L889.612 113.532L894.855 109.089L897.858 106.565L905.44 100.479L930.348 71.0799L942.608 56.9669L943.636 56.0848L949.495 48.8988L949.964 48.3243L951.801 45.9128L954.633 40.58L975.155 1.89062" stroke="url(#paint44_linear_6098_123565)" stroke-width="0.5" stroke-linecap="round" stroke-linejoin="round"/>
</g>
<g style="mix-blend-mode:overlay">
<path d="M669.646 1.89062L671.152 2.69986L694.838 22.3561L710.116 42.7892L718.063 63.0199L719.673 82.1825L716.193 99.7347L708.732 115.24L699.256 127.443L698.439 128.503L688.186 137.671" stroke="url(#paint45_linear_6098_123565)" stroke-width="0.5" stroke-linecap="round" stroke-linejoin="round"/>
</g>
<g style="mix-blend-mode:overlay">
<path d="M-122 184.267L-121.069 183.709L-103.234 174.265L-84.7754 165.598L-65.8798 157.676L-34.7487 87.0541L15.6663 19.1677L34.9098 1.89062" stroke="url(#paint46_linear_6098_123565)" stroke-width="0.5" stroke-linecap="round" stroke-linejoin="round"/>
</g>
<g style="mix-blend-mode:overlay">
<path d="M671.168 1.89062L671.151 2.69986L671.694 15.0163L672.673 27.2276L674.21 39.3904L675.902 51.4641L677.892 63.5216L679.737 75.4578L681.639 87.3535L683.096 99.0631L683.937 102.688L686.883 115.312" stroke="url(#paint47_linear_6098_123565)" stroke-width="0.5" stroke-linecap="round" stroke-linejoin="round"/>
</g>
<g style="mix-blend-mode:overlay">
<path d="M879.674 1.89062L879.448 1.97155L867.253 6.18764L854.969 10.1933L842.725 14.11L830.513 18.0429L818.464 22.0728L806.601 26.3051L795.029 30.8125L783.813 35.6679L773.018 40.9279L762.724 46.633L752.957 52.7993L743.78 59.4593L735.17 66.5805L727.167 74.1711L719.673 82.1825L712.706 90.6066L706.094 99.3463L699.863 108.41L693.778 117.651L688.267 126.447L687.862 127.087" stroke="url(#paint48_linear_6098_123565)" stroke-width="0.5" stroke-linecap="round" stroke-linejoin="round"/>
</g>
<g style="mix-blend-mode:overlay">
<path d="M879.447 1.89062V1.97155L869.073 41.2597L866.839 49.7404L848.575 82.4819L843.914 90.8413L814.207 125.023L780.543 152.456L745.196 173.674L709.905 189.276L696.407 193.549L695.954 193.695" stroke="url(#paint49_linear_6098_123565)" stroke-width="0.5" stroke-linecap="round" stroke-linejoin="round"/>
</g>
<g style="mix-blend-mode:overlay">
<path d="M72.3205 515.251L64.9565 508.566L61.2988 505.248L21.8731 469.456L21.8245 469.399L18.7009 465.588L16.2084 462.553L13.7322 459.535L-20.9029 417.301L-53.434 359.239L-73.3572 295.795L-78.2207 228.054L-65.8799 157.676L-46.6769 150.49L-27.3444 143.959L-7.95519 138.092L11.3692 132.768L30.5804 128.009L49.6135 123.672L49.8967 123.356L50.6736 122.49L97.2124 70.6591L97.6251 70.3273L156.408 23.6185L194.231 1.89062" stroke="url(#paint50_linear_6098_123565)" stroke-width="0.5" stroke-linecap="round" stroke-linejoin="round"/>
</g>
<g style="mix-blend-mode:overlay">
<path d="M970.122 1.89062L961.544 16.8209L936.385 60.5599L934.476 62.6962L923.47 74.9399L922.556 75.9514L890.276 111.865L887.654 114.333L886.65 115.774L883.972 118.193L871.728 127.346L845.865 146.711L839.245 151.898L837.077 153.144L829.567 157.32L826.646 159.157L819.095 163.729L794.066 178.335L787.77 181.135L783.7 182.81L779.88 184.259L772.104 187.431L742.542 200.055L736.983 202.062L732.111 203.446L731.941 203.486L729.311 204.206L725.063 205.202L717.157 207.168L687.013 215.414L684.52 216.385L683.873 216.717" stroke="url(#paint51_linear_6098_123565)" stroke-width="0.5" stroke-linecap="round" stroke-linejoin="round"/>
</g>
<g style="mix-blend-mode:overlay">
<path d="M73.963 520.486L67.3273 514.951L25.8866 480.356L19.4613 473.268L16.281 469.756L-20.7656 428.849L-21.7529 427.311L-53.7256 377.293L-57.7636 370.965L-82.518 307.1L-92.3906 238.121L-84.7758 165.598L-84.4197 164.619L-57.618 91.8447L-57.1082 91.0841L-9.84098 19.985L8.71468 1.89062" stroke="url(#paint52_linear_6098_123565)" stroke-width="0.5" stroke-linecap="round" stroke-linejoin="round"/>
</g>
<g style="mix-blend-mode:overlay">
<path d="M112.92 588.744L106.333 586.025L105.515 585.685L105.038 585.491L55.1002 564.864L53.943 564.24L40.7202 556.771L26.8338 548.08L13.5705 538.766L1.01123 528.877L-10.6903 518.406L-21.4773 507.416L-31.2042 495.941L-39.7983 484.054L-47.1461 471.794L-53.2153 459.275L-57.9089 446.546L-61.251 433.72L-63.1851 420.861L-63.7596 408.091L-63.007 395.451L-97.7716 331.174L-90.707 318.898L-105.775 248.843L-103.234 174.264L-80.4783 97.4275L-57.6175 91.8438L-34.7487 87.0532L-11.985 82.9585L10.544 79.5192L32.7655 76.6222L54.639 74.2431L76.1159 72.2443L97.2126 70.6582L117.921 69.3067L138.281 68.279L158.326 67.397L178.063 66.79L197.59 66.2559L216.841 65.9889L235.971 65.7542L254.851 65.8028L273.649 65.8756L292.189 66.2559L310.639 66.6606L328.774 67.4212L346.788 68.1981L412.489 51.3985L474.856 43.0067L530.774 42.4322L578.923 48.1211L579.32 48.2263L617.669 58.7706L635.804 67.3079L647.384 72.7703L647.983 73.2315L667.761 88.7445L673.458 99.8552L678.2 110.723L682.529 121.219L682.586 121.365L684.447 129.659L685.637 132.135L686.3 131.286L685.612 130.646L685.305 129.967L684.666 128.146L685.507 127.903L688.081 119.503L690.792 108.465L693.543 97.4275L688.841 80.6764L677.892 63.5207L677.544 63.1971L659.911 47.1176L659.45 46.7049L633.126 31.3376L632.713 31.1839L598.709 18.8107L598.11 18.5923L554.873 9.77164L503.56 6.26767L445.87 9.23755L427.986 2.80416L364.356 15.4363L345.088 11.1554L325.756 6.78558L306.099 2.48047L239.864 30.5041L219.52 28.7076L198.909 26.895L177.861 25.236L156.408 23.6176L134.421 22.1933L111.892 20.9147L88.7561 19.9275L65.0133 19.2235L40.6393 18.9564L15.6664 19.1668L-9.84056 19.9841L-35.7764 21.4893L-62.0521 23.7956L-103.121 103.845L-120.802 182.51L-121.069 183.708L-118.221 260.18L-97.7716 331.174L-103.59 343.838L-108.081 356.843L-111.124 370.09L-112.702 383.507L-112.718 396.98L-111.221 410.43L-108.17 423.734L-103.655 436.827L-97.6745 449.605L-90.3914 462.002L-81.8216 473.93L-72.1432 485.365L-61.4128 496.233L-49.8004 506.534L-37.3706 516.213L-27.1338 523.496L-25.4263 524.718L-23.9616 525.535L-21.1131 527.283L-10.5769 533.757L3.58459 541.614L42.6219 559.175L49.3547 562.306L50.7789 563.002L52.8667 563.876L54.1453 564.459L54.2586 564.516L55.3592 565.033L58.4909 566.603L69.9091 572.333L85.0337 579.211L100.425 585.499L114.231 590.581" stroke="url(#paint53_linear_6098_123565)" stroke-width="0.5" stroke-linecap="round" stroke-linejoin="round"/>
</g>
<g style="mix-blend-mode:overlay">
<path d="M972.906 1.89062L958.154 28.49L944.324 53.4144L941.605 56.5299L933.156 66.1759L919.165 82.1906L897.607 106.856L894.855 109.089L887.653 114.333L878.841 121.754L868.588 131.772L861.143 137.769L853.811 143.085L846.625 147.674L839.642 151.582L832.893 154.771L830.554 156.073L820.851 161.511L781.879 183.32L776.4 184.866L771.375 185.805L766.803 186.12L762.684 185.861L758.986 185.02L755.692 183.668L752.73 181.791L750.052 179.476L747.567 176.733L745.196 173.674L742.817 170.324L740.349 166.812L737.687 163.187L734.717 159.577L731.391 156.073L727.604 152.812L723.363 149.858L718.589 147.374L697.864 159.189L696.505 159.763" stroke="url(#paint54_linear_6098_123565)" stroke-width="0.5" stroke-linecap="round" stroke-linejoin="round"/>
</g>
<g style="mix-blend-mode:overlay">
<path d="M75.3879 525.528L73.9475 524.411L31.034 491.387L25.8872 480.357L21.8735 469.456L21.8654 469.424L18.9036 458.734L16.9776 448.255L14.728 444.848L-18.0459 395.137L-15.2055 384.609L-11.6044 374.477L-7.25076 364.791L-2.33063 355.517L3.17214 346.72L9.06334 338.321L15.3753 330.398L21.922 322.84L27.9184 267.472L37.88 260.732L47.9792 254.444L58.0623 248.407L58.1756 248.197L58.7501 247.128L80.3728 207.071L86.3934 195.912L99.3654 190.992L99.4868 190.863L100.369 189.883L138.103 147.9L142.336 143.199L142.902 142.738L195.065 100.908L195.162 100.852L196.481 100.075L254.851 65.804L318.732 38.5734L383.292 19.8559L402.212 24.2176L447.221 18.0027L463.366 15.7773L480.853 22.2674L497.806 28.9273L514.647 35.5792L530.774 42.4334L546.684 49.2795L547.048 49.3361L563.33 51.9661L592.422 56.6516L605.596 65.1323L617.694 73.694L629.371 82.1424L639.826 90.6393L649.788 98.942L658.431 107.245L666.547 115.305L673.28 123.332L679.487 131.068L684.269 138.789L687.879 144.526L688.963 146.598L691.334 153.63L693.357 158.631L694.166 161.39L694.482 167.977L694.797 174.961L693.713 182.026L692.078 188.937L689.092 195.953L685.548 202.863L680.693 209.888L675.303 216.831L668.667 223.847L661.506 230.774L653.187 237.717L644.358 244.531L637.811 249.168L634.032 251.838L632.948 252.599L629.881 254.193" stroke="url(#paint55_linear_6098_123565)" stroke-width="0.5" stroke-linecap="round" stroke-linejoin="round"/>
</g>
<g style="mix-blend-mode:overlay">
<path d="M58.9121 426.041L59.0901 424.722L59.4947 419.851L59.3814 418.596L59.7618 412.438L60.2069 405.131L56.3145 392.013L58.2161 387.101L58.03 333.91L62.3999 329.023L62.8369 327.534L67.6518 311.333L78.3903 275.152L85.382 270.507L85.8271 269.795L87.8259 266.598L98.791 249.022L117.856 218.465L127.527 214.379L128.101 213.812L151.504 190.604L175.279 167.031L187.499 163.891L199.37 160.808L201.337 159.594L235.632 138.505L261.916 122.329L275.907 120.605L278.837 119.416L322.309 101.807L345.428 92.4439L415.257 73.7749H415.354L481.217 64.8248L540.34 64.1289L540.728 64.1775L589.897 70.5947L592.81 71.4444L628.424 81.8672L629.371 82.1424L630.083 82.5227L656.157 96.3687L657.84 97.2669L661.595 100.658L672.236 110.271L676.598 114.212L681.842 124.077L684.666 128.147L685.305 128.422" stroke="url(#paint56_linear_6098_123565)" stroke-width="0.5" stroke-linecap="round" stroke-linejoin="round"/>
</g>
<g style="mix-blend-mode:overlay">
<path d="M62.0272 479.951L61.8168 475.986L61.5416 473.914L60.8376 468.768L60.6191 467.125L59.6561 460.036L59.1868 456.556L58.7903 452.705L57.4308 437.289L48.5778 421.387L49.7188 414.824L36.585 362.937L40.6959 356.463L42.8322 302.576L49.9454 296.474L50.002 296.313L61.137 263.587L68.2178 242.782L78.2765 237.368L78.3413 237.263L79.0291 236.235L102.642 200.929L112.313 186.459L112.806 185.958L150.986 146.734L157.775 139.751L157.872 139.678L159.094 138.772L159.2 138.699L212.504 99.192L213.216 98.8036L273.649 65.876L337.886 40.895L402.212 24.2168L420.711 28.789L439.161 33.353L457.078 38.176L474.856 43.0071L491.939 48.1458L508.771 53.2682L524.737 58.7224L540.339 64.1281L554.922 69.8655L569.035 75.5139L581.999 81.4942L594.396 87.353L605.555 93.5598L616.091 99.6128L625.317 106.054L633.886 112.342L641.129 119.059L647.692 125.662L652.911 132.727L657.451 139.726L660.672 147.22L663.221 154.705L664.459 162.692L665.05 170.696L664.354 179.168L663.003 187.657L660.397 196.543L657.144 205.42L652.661 214.556L647.522 223.627L641.202 232.812L634.234 241.835L626.166 250.818L617.499 259.533L611.843 265.659L607.813 268.257L607.174 268.669L606.834 268.888" stroke="url(#paint57_linear_6098_123565)" stroke-width="0.5" stroke-linecap="round" stroke-linejoin="round"/>
</g>
<g style="mix-blend-mode:overlay">
<path d="M77.0874 530.747L75.9868 529.962L37.3056 502.465L31.034 491.386L26.7613 487.089L23.5163 483.844L20.1823 480.494L-19.5186 440.623L-20.7648 428.849L-20.9024 417.301L-19.9475 406.061L-18.0458 395.136L-41.8857 337.058L-34.894 326.659L-27.1901 316.77L-18.9602 307.351L-10.1963 298.458L-1.09242 290.009L8.37558 282.079L18.0297 274.529L27.9185 267.472L28.1532 266.784L44.7424 219.282L47.1863 212.299L60.2877 206.529L73.3325 201.01L86.3935 195.912L86.8305 195.378L87.0328 195.135L123.788 150.393L126.774 146.759L142.336 143.199L157.776 139.751L173.119 136.668L175.878 134.766L227.693 99.0226L229.838 97.5498L229.911 97.5093L231.553 96.6839L292.189 66.2568L356.984 43.21L420.711 28.7895L480.853 22.2671L534.683 22.9387L575.994 28.7004L581.133 29.4126L593.676 39.2204L606.09 48.9879L617.67 58.7715L628.975 68.4903L639.244 78.193L649.133 87.7662L657.84 97.2666L666.102 106.557L673.094 115.701L678.961 123.469L679.843 124.748L684.836 133.237L685.896 133.698L692.629 127.742L700.608 121.252L708.732 115.24L717.092 109.802L725.662 104.97L734.474 100.795L743.481 97.2908L752.666 94.4585L761.964 92.2898L771.343 90.7199L780.722 89.7326L790.076 89.2147L799.35 89.1095L808.511 89.2876L817.55 89.676L826.451 90.1292L835.248 90.558L843.914 90.8413L852.517 90.8898L861.03 90.5742L869.527 89.8378L877.967 88.5673L886.431 86.7304L894.856 84.2218L903.288 81.0334L911.671 77.0843L920.023 72.3827L928.261 66.8638L936.385 60.5599L944.324 53.4144L951.801 45.9128L953.573 43.9059L959.44 36.7118L966.505 27.1791L973.14 16.8371L979.299 5.76684L981.144 1.89062" stroke="url(#paint58_linear_6098_123565)" stroke-width="0.5" stroke-linecap="round" stroke-linejoin="round"/>
</g>
<g style="mix-blend-mode:overlay">
<path d="M890.331 1.89062L880.564 36.4772L877.368 47.8064L877.181 48.1301L858.909 79.8034L852.516 90.8898L820.689 126.488L784.929 154.924L747.567 176.733L710.423 192.683L696.691 196.867L694.765 197.449" stroke="url(#paint59_linear_6098_123565)" stroke-width="0.5" stroke-linecap="round" stroke-linejoin="round"/>
</g>
<g style="mix-blend-mode:overlay">
<path d="M638.289 62.0879L639.972 63.1965L661.765 77.4956L667.761 88.744L669.833 91.552L680.159 105.511L682.845 116.719" stroke="url(#paint60_linear_6098_123565)" stroke-width="0.5" stroke-linecap="round" stroke-linejoin="round"/>
</g>
<g style="mix-blend-mode:overlay">
<path d="M649.148 1.89062L670.949 14.5875L671.694 15.0164L692.717 33.9766L705.965 53.5115L712.22 72.6093L712.705 90.6066L708.433 106.921L700.607 121.252L691.156 132.25L690.193 133.374L687.409 135.665" stroke="url(#paint61_linear_6098_123565)" stroke-width="0.5" stroke-linecap="round" stroke-linejoin="round"/>
</g>
<g style="mix-blend-mode:overlay">
<path d="M596.961 1.89062L610.103 5.51598L617.977 7.68472L649.893 22.2913L650.233 22.4451L673.628 38.9777L674.21 39.3904L690.16 57.3149L699.151 75.3121L701.975 92.5083L699.863 108.41L693.761 122.523L687.223 130.194L686.171 130.817L685.904 131.675L685.839 131.829L686.082 132.565L686.195 132.784" stroke="url(#paint62_linear_6098_123565)" stroke-width="0.5" stroke-linecap="round" stroke-linejoin="round"/>
</g>
<g style="mix-blend-mode:overlay">
<path d="M60.838 468.769L60.6681 467.191L59.956 460.434L58.9202 452.9L56.978 440.187L57.1318 439.369L57.4312 437.29V436.602L57.9896 431.415L49.7192 414.825L51.2001 408.651L40.6963 356.464L45.0176 350.394L47.3482 324.879L49.9458 296.475L57.1722 290.762L57.3907 290.204L69.1003 260.578L78.277 237.369L88.36 232.32L88.7484 231.794L112.774 198.955L125.131 182.074L137.901 178.044L138.459 177.551L140.167 176.046L176.582 144L188.332 133.666L189.87 132.679L243.142 98.6913L246.977 96.2474L247.867 95.8347L310.64 66.6619L375.71 45.8242L394.346 48.438L412.489 51.3998L430.462 54.3697L447.82 57.7199L464.895 61.0701L481.217 64.825L497.135 68.5555L512.17 72.715L526.704 76.8259L540.243 81.4061L553.19 85.9054L565.086 90.9307L576.31 95.8832L586.45 101.41L595.901 106.897L604.237 113.015L611.884 119.132L618.422 125.946L624.281 132.808L625.196 133.164L634.55 136.879L658.811 146.493L660.672 147.221L662.234 148.378L680.685 162.03L683.541 164.142L693.713 182.026L694.005 199.182L693.122 201.035L692.766 201.366L691.132 204.385L690.371 205.607L687.879 209.88L687.345 211.822L686.317 213.578L685.758 214.371L685.216 215.051L684.334 216.143L683.703 216.54L682.724 216.879L681.72 217.163L680.984 217.656L678.346 220.667L677.326 221.824L674.939 224.235L668.328 229.406L668.166 229.625L660.68 235.5L653.163 240.63L652.014 241.383L643.5 246.683L643.023 247.015" stroke="url(#paint63_linear_6098_123565)" stroke-width="0.5" stroke-linecap="round" stroke-linejoin="round"/>
</g>
<g style="mix-blend-mode:overlay">
<path d="M58.3775 452.09L56.2169 448.894L47.2182 435.549L25.4499 384.446L15.375 330.398L18.0293 274.529L18.1588 274.067L32.6521 223.701L34.1492 218.522L34.489 217.891L63.5809 164.02L63.8075 163.753L105.539 113.095L106.3 112.432L158.326 67.3979L219.52 28.7085L277.906 1.89062" stroke="url(#paint64_linear_6098_123565)" stroke-width="0.5" stroke-linecap="round" stroke-linejoin="round"/>
</g>
<g style="mix-blend-mode:overlay">
<path d="M57.5035 437.313L58.2885 432.013L58.774 425.733L58.9682 422.415L59.3 419.364L52.7695 402.775L54.566 397.264L56.314 392.012L53.7487 339.129L58.0295 333.91L63.1115 313.541L71.4466 280.12L78.3898 275.151L78.9401 274.197L92.3247 250.713L108.194 222.891L117.856 218.465L118.827 217.437L120.64 215.511L143.217 191.542L163.011 170.534L175.279 167.03L176.825 165.938L213.313 140.188L233.074 126.245L234.094 125.719L237.169 124.141L282.793 100.738L297.384 93.2525L297.408 93.2444L300.006 92.3138L359.978 70.942L364.396 69.364L381.787 70.5455L398.683 72.164L464.895 61.0694L524.737 58.7227L576.326 63.3676L576.803 63.489L617.694 73.6934L620.558 74.972L649.132 87.766L649.974 88.4214L669.047 103.222L670.229 104.137L674.194 109.664L679.009 116.388L682.586 121.365L682.61 121.414L685.467 127.807L685.394 129.077L685.483 129.716" stroke="url(#paint65_linear_6098_123565)" stroke-width="0.5" stroke-linecap="round" stroke-linejoin="round"/>
</g>
<g style="mix-blend-mode:overlay">
<path d="M59.3809 418.595L59.9797 413.076L60.53 407.97L61.4687 393.25L61.0802 390.927L61.4525 390.142L61.4687 389.859L59.9392 382.422L60.4976 370.17L62.3993 329.021L66.5021 324.328L66.7853 323.518L67.198 322.337L72.3609 307.617L85.3814 270.506L92.0495 266.006L92.1142 265.917L93.9755 263.206L106.122 245.533L127.526 214.377L136.857 210.388L138.079 209.263L161.538 187.721L187.498 163.889L188.38 163.307L190.938 161.615L223.129 140.276L247.576 124.075L249.898 122.975L297.246 100.599L313.698 92.8147L315.106 92.3534L371.971 73.7573L381.787 70.5447L447.82 57.7183L508.771 53.2676L561.679 56.3507L561.792 56.3831L564.033 56.8201L605.595 65.1309L606.154 65.3413L639.243 78.1919L641.962 79.9479L663.447 93.8424L664.435 94.9591L677.107 109.469L678.2 110.723" stroke="url(#paint66_linear_6098_123565)" stroke-width="0.5" stroke-linecap="round" stroke-linejoin="round"/>
</g>
<g style="mix-blend-mode:overlay">
<path d="M62.3671 485.916L62.3104 485.867L53.247 477.136L46.9836 468.938L15.8525 428.185L-11.6047 374.477L-27.1905 316.77L-29.335 256.135L-29.1812 255.39L-16.6786 194.18L-16.3387 193.427L11.3694 132.768L11.7011 132.314L12.4618 131.279L54.6389 74.244L55.084 73.8312L111.892 20.9156L140.563 1.89062" stroke="url(#paint67_linear_6098_123565)" stroke-width="0.5" stroke-linecap="round" stroke-linejoin="round"/>
</g>
<g style="mix-blend-mode:overlay">
<path d="M64.6496 493.49L64.4392 493.296L63.7675 492.697L56.7029 486.418L53.2961 482.371L51.5967 480.356L49.5655 477.937L46.9436 474.829L15.9582 438.05L15.2703 436.868L-15.2053 384.608L-34.8939 326.659L-41.1816 265.222L-32.5552 201.706L-32.2882 201.018L-7.95462 138.092L-7.52573 137.445L32.7659 76.6231L33.1381 76.2508L88.7566 19.9284L114.021 1.89062" stroke="url(#paint68_linear_6098_123565)" stroke-width="0.5" stroke-linecap="round" stroke-linejoin="round"/>
</g>
<g style="mix-blend-mode:overlay">
<path d="M95.5216 564.556L94.9551 563.9L94.8904 563.496L85.5599 556.221L73.7775 545.919L63.0067 535.334L53.3121 524.507L44.7423 513.534L37.3055 502.463L28.8733 494.719L24.8433 491.021L-17.0667 452.558L-19.5187 440.622L-24.722 433.396L-60.9756 383.061L-57.7629 370.963L-53.4336 359.238L-48.1169 347.916L-41.8858 337.057L-52.5596 274.835L-41.1818 265.221L-29.3347 256.134L-17.0667 247.629L-4.54792 239.609L8.22984 232.14L21.1209 225.075L34.1495 218.52L47.1862 212.297L47.3804 211.982L48.044 210.889L79.5231 159.285L95.3678 154.785L111.124 150.683L126.774 146.758L126.92 146.628L127.939 145.746L177.456 102.946L178.047 102.574L178.217 102.461L180.013 101.32L235.972 65.7539L299.262 36.484L318.732 38.5718L337.886 40.8943L356.984 43.2087L375.71 45.8225L439.161 33.3523L497.806 28.9258L549.953 31.2645L593.676 39.2192L595.116 39.7128L628.886 51.2767L629.201 51.4548L640.336 57.7749L654.975 66.0857L656.343 67.3238L672.948 82.3997L673.329 83.0229L683.096 99.0618L684.407 110.666L684.901 117.051L685.208 122.449L685.249 127.814L685.305 128.421L685.338 128.655L685.265 129.651L685.313 130.784L685.839 131.828L686.22 132.742L686.195 132.944L686.398 133.252L685.969 133.851L687.005 135.995L688.186 137.67L688.243 138.617L688.882 139.96L689.691 141.684L689.869 142.242L690.064 142.582L690.153 142.728L690.185 142.979L689.772 144.023L690.306 145.957L692.378 148.562L693.017 149.687L693.899 151.994L695.356 155.789L695.995 157.448L696.108 157.974L696.505 159.762L697.395 163.833L697.646 165.006L698.156 168.033L698.86 172.224V172.265L698.787 176.732L698.747 179.265L698.601 181.11L698.245 185.358L698.196 186.022L697.177 189.631L696.327 192.649L695.955 193.693L695.461 195.037L694.668 197.48L694.385 198.387L694.004 199.18L693.665 199.665L692.823 201.122L691.439 204.302L690.484 206.188L687.417 209.999L687.142 210.582L686.268 211.804L684.528 214.062L684.188 215.324L683.363 215.979L683.039 216.789L680.96 219.435L675.489 224.42L672.22 226.443L667.785 230.311L662.72 234.122L660.607 235.862L655.339 240.208L651.382 242.093L646.818 244.958L643.767 246.544L643.023 247.013L634.138 251.699L629.881 254.191L628.044 254.636L623.682 257.736L622.145 258.958L618.333 261.118L611.779 265.156L607.854 268.062L606.834 268.887L601.493 272.31L597.69 276.235L594.833 278.29L593.797 279.367L592.422 280.799L585.673 286.989L584.095 288.438L583.334 289.142L577.637 296.215L572.879 301.45L571.455 304.161L565.151 313.557L563.961 315.879L561.509 323.251L561.493 323.292L558.466 330.51L557.819 332.056L557.77 333.65L556.718 343.28L555.569 349.729L556.565 354.148L558.021 363.276L556.84 365.145L548.343 367.815L538.818 359.488L528.209 351.064L516.492 342.64L503.431 334.224L489.107 325.978L473.287 317.902L456.228 310.198L437.729 302.85L418.251 296.069L397.583 289.822L376.43 284.303L354.524 279.439L332.78 275.377L310.777 272.011L289.648 269.445L268.737 267.536L249.308 266.33L230.437 265.682L213.491 265.593L197.274 265.949L183.234 266.694L169.898 267.778L158.771 269.122L113.389 317.02L111.747 318.744L110.614 319.941L109.157 321.479L89.5737 355.224L77.9046 375.317L77.4353 376.126L67.9996 409.798L67.2228 412.566L62.3917 429.794L62.1893 430.531L63.0957 482.095L66.891 495.48L68.8331 502.35L69.7719 505.668L70.7106 508.986L72.418 515.306L73.3001 518.146L74.4654 520.906L76.1 525.988L78.8271 532.712L79.5635 535.1L80.7693 537.244L84.6779 543.645L86.5715 546.777L88.5541 549.803L91.5483 555.274L92.2927 556.908L94.3806 560.542L94.9794 560.955L98.5157 566.271L98.5724 566.368L103.104 573.182L106.705 579.356L108.243 582.205L110.371 585.175L111.148 585.79L112.491 587.74L112.92 588.744L113.365 589.367L113.745 589.901L113.972 590.216L114.207 590.224L115.947 592.523L118.601 596.091L138.508 618.855L143.04 624.147L144.771 626.009L148.097 630.047L152.249 634.214L158.528 639.531L164.598 645.017L165.86 646.191L169.364 649.493L171.128 651.289L171.759 651.961L186.431 664.261L187.28 664.973L189.619 666.931L191.974 668.849L193.439 670.136L194.596 671.188" stroke="url(#paint69_linear_6098_123565)" stroke-width="0.5" stroke-linecap="round" stroke-linejoin="round"/>
</g>
</g>
</g>
</g>
<defs>
<filter id="filter0_dd_6098_123565" x="0" y="0" width="908" height="73" filterUnits="userSpaceOnUse" color-interpolation-filters="sRGB">
<feFlood flood-opacity="0" result="BackgroundImageFix"/>
<feColorMatrix in="SourceAlpha" type="matrix" values="0 0 0 0 0 0 0 0 0 0 0 0 0 0 0 0 0 0 127 0" result="hardAlpha"/>
<feOffset dy="4"/>
<feGaussianBlur stdDeviation="2"/>
<feComposite in2="hardAlpha" operator="out"/>
<feColorMatrix type="matrix" values="0 0 0 0 0.0588235 0 0 0 0 0.0901961 0 0 0 0 0.164706 0 0 0 0.04 0"/>
<feBlend mode="normal" in2="BackgroundImageFix" result="effect1_dropShadow_6098_123565"/>
<feColorMatrix in="SourceAlpha" type="matrix" values="0 0 0 0 0 0 0 0 0 0 0 0 0 0 0 0 0 0 127 0" result="hardAlpha"/>
<feOffset/>
<feGaussianBlur stdDeviation="0.5"/>
<feComposite in2="hardAlpha" operator="out"/>
<feColorMatrix type="matrix" values="0 0 0 0 0.0588235 0 0 0 0 0.0901961 0 0 0 0 0.164706 0 0 0 0.12 0"/>
<feBlend mode="normal" in2="effect1_dropShadow_6098_123565" result="effect2_dropShadow_6098_123565"/>
<feBlend mode="normal" in="SourceGraphic" in2="effect2_dropShadow_6098_123565" result="shape"/>
</filter>
<linearGradient id="paint0_linear_6098_123565" x1="0" y1="32" x2="38.7591" y2="-150.704" gradientUnits="userSpaceOnUse">
<stop stop-color="#BCFFCC"/>
<stop offset="1" stop-color="#A4E8FF"/>
</linearGradient>
<linearGradient id="paint1_linear_6098_123565" x1="681.92" y1="101.429" x2="876.961" y2="33.3184" gradientUnits="userSpaceOnUse">
<stop stop-color="#427DFF"/>
<stop offset="1" stop-color="#44D5BB"/>
</linearGradient>
<linearGradient id="paint2_linear_6098_123565" x1="679.894" y1="103.023" x2="883.912" y2="29.0508" gradientUnits="userSpaceOnUse">
<stop stop-color="#427DFF"/>
<stop offset="1" stop-color="#44D5BB"/>
</linearGradient>
<linearGradient id="paint3_linear_6098_123565" x1="677.921" y1="104.448" x2="890.283" y2="24.7614" gradientUnits="userSpaceOnUse">
<stop stop-color="#427DFF"/>
<stop offset="1" stop-color="#44D5BB"/>
</linearGradient>
<linearGradient id="paint4_linear_6098_123565" x1="671.308" y1="68.603" x2="871.127" y2="-76.835" gradientUnits="userSpaceOnUse">
<stop stop-color="#427DFF"/>
<stop offset="1" stop-color="#44D5BB"/>
</linearGradient>
<linearGradient id="paint5_linear_6098_123565" x1="670.307" y1="109.335" x2="896.076" y2="22.9434" gradientUnits="userSpaceOnUse">
<stop stop-color="#427DFF"/>
<stop offset="1" stop-color="#44D5BB"/>
</linearGradient>
<linearGradient id="paint6_linear_6098_123565" x1="548.801" y1="31.9775" x2="621.937" y2="-2.56054" gradientUnits="userSpaceOnUse">
<stop stop-color="#427DFF"/>
<stop offset="1" stop-color="#44D5BB"/>
</linearGradient>
<linearGradient id="paint7_linear_6098_123565" x1="674.19" y1="107.514" x2="901.828" y2="17.3594" gradientUnits="userSpaceOnUse">
<stop stop-color="#427DFF"/>
<stop offset="1" stop-color="#44D5BB"/>
</linearGradient>
<linearGradient id="paint8_linear_6098_123565" x1="682.64" y1="70.2012" x2="787.843" y2="42.7068" gradientUnits="userSpaceOnUse">
<stop stop-color="#427DFF"/>
<stop offset="1" stop-color="#44D5BB"/>
</linearGradient>
<linearGradient id="paint9_linear_6098_123565" x1="687.818" y1="73.6647" x2="751.63" y2="64.4654" gradientUnits="userSpaceOnUse">
<stop stop-color="#427DFF"/>
<stop offset="1" stop-color="#44D5BB"/>
</linearGradient>
<linearGradient id="paint10_linear_6098_123565" x1="687.612" y1="72.2283" x2="734.627" y2="67.1787" gradientUnits="userSpaceOnUse">
<stop stop-color="#427DFF"/>
<stop offset="1" stop-color="#44D5BB"/>
</linearGradient>
<linearGradient id="paint11_linear_6098_123565" x1="675.559" y1="107.284" x2="907.09" y2="13.1246" gradientUnits="userSpaceOnUse">
<stop stop-color="#427DFF"/>
<stop offset="1" stop-color="#44D5BB"/>
</linearGradient>
<linearGradient id="paint12_linear_6098_123565" x1="692.18" y1="84.9614" x2="801.373" y2="61.0704" gradientUnits="userSpaceOnUse">
<stop stop-color="#427DFF"/>
<stop offset="1" stop-color="#44D5BB"/>
</linearGradient>
<linearGradient id="paint13_linear_6098_123565" x1="622.519" y1="61.9431" x2="683.411" y2="51.8667" gradientUnits="userSpaceOnUse">
<stop stop-color="#427DFF"/>
<stop offset="1" stop-color="#44D5BB"/>
</linearGradient>
<linearGradient id="paint14_linear_6098_123565" x1="-4.90457" y1="230.961" x2="241.704" y2="187.478" gradientUnits="userSpaceOnUse">
<stop stop-color="#427DFF"/>
<stop offset="1" stop-color="#44D5BB"/>
</linearGradient>
<linearGradient id="paint15_linear_6098_123565" x1="-13.3606" y1="234.506" x2="215.65" y2="197.77" gradientUnits="userSpaceOnUse">
<stop stop-color="#427DFF"/>
<stop offset="1" stop-color="#44D5BB"/>
</linearGradient>
<linearGradient id="paint16_linear_6098_123565" x1="692.269" y1="87.0775" x2="811.842" y2="58.94" gradientUnits="userSpaceOnUse">
<stop stop-color="#427DFF"/>
<stop offset="1" stop-color="#44D5BB"/>
</linearGradient>
<linearGradient id="paint17_linear_6098_123565" x1="688.638" y1="75.1901" x2="760.862" y2="63.5942" gradientUnits="userSpaceOnUse">
<stop stop-color="#427DFF"/>
<stop offset="1" stop-color="#44D5BB"/>
</linearGradient>
<linearGradient id="paint18_linear_6098_123565" x1="669.93" y1="109.258" x2="910.585" y2="8.57692" gradientUnits="userSpaceOnUse">
<stop stop-color="#427DFF"/>
<stop offset="1" stop-color="#44D5BB"/>
</linearGradient>
<linearGradient id="paint19_linear_6098_123565" x1="11.3553" y1="222.465" x2="326.59" y2="146.774" gradientUnits="userSpaceOnUse">
<stop stop-color="#427DFF"/>
<stop offset="1" stop-color="#44D5BB"/>
</linearGradient>
<linearGradient id="paint20_linear_6098_123565" x1="-29.2235" y1="240.959" x2="163.989" y2="215.732" gradientUnits="userSpaceOnUse">
<stop stop-color="#427DFF"/>
<stop offset="1" stop-color="#44D5BB"/>
</linearGradient>
<linearGradient id="paint21_linear_6098_123565" x1="691.529" y1="89.311" x2="822.181" y2="56.3155" gradientUnits="userSpaceOnUse">
<stop stop-color="#427DFF"/>
<stop offset="1" stop-color="#44D5BB"/>
</linearGradient>
<linearGradient id="paint22_linear_6098_123565" x1="683.98" y1="70.8728" x2="726.743" y2="66.6202" gradientUnits="userSpaceOnUse">
<stop stop-color="#427DFF"/>
<stop offset="1" stop-color="#44D5BB"/>
</linearGradient>
<linearGradient id="paint23_linear_6098_123565" x1="536.209" y1="65.273" x2="668.582" y2="15.0316" gradientUnits="userSpaceOnUse">
<stop stop-color="#427DFF"/>
<stop offset="1" stop-color="#44D5BB"/>
</linearGradient>
<linearGradient id="paint24_linear_6098_123565" x1="687.658" y1="72.908" x2="742.909" y2="65.9724" gradientUnits="userSpaceOnUse">
<stop stop-color="#427DFF"/>
<stop offset="1" stop-color="#44D5BB"/>
</linearGradient>
<linearGradient id="paint25_linear_6098_123565" x1="690.659" y1="91.4999" x2="832.423" y2="53.2855" gradientUnits="userSpaceOnUse">
<stop stop-color="#427DFF"/>
<stop offset="1" stop-color="#44D5BB"/>
</linearGradient>
<linearGradient id="paint26_linear_6098_123565" x1="682.803" y1="66.4666" x2="733.166" y2="60.1284" gradientUnits="userSpaceOnUse">
<stop stop-color="#427DFF"/>
<stop offset="1" stop-color="#44D5BB"/>
</linearGradient>
<linearGradient id="paint27_linear_6098_123565" x1="-133.77" y1="340.211" x2="579.139" y2="58.0809" gradientUnits="userSpaceOnUse">
<stop stop-color="#427DFF"/>
<stop offset="1" stop-color="#44D5BB"/>
</linearGradient>
<linearGradient id="paint28_linear_6098_123565" x1="669.555" y1="109.258" x2="914.445" y2="4.20356" gradientUnits="userSpaceOnUse">
<stop stop-color="#427DFF"/>
<stop offset="1" stop-color="#44D5BB"/>
</linearGradient>
<linearGradient id="paint29_linear_6098_123565" x1="689.539" y1="76.942" x2="770.49" y2="62.6393" gradientUnits="userSpaceOnUse">
<stop stop-color="#427DFF"/>
<stop offset="1" stop-color="#44D5BB"/>
</linearGradient>
<linearGradient id="paint30_linear_6098_123565" x1="-4.51919" y1="258.366" x2="364.045" y2="169.323" gradientUnits="userSpaceOnUse">
<stop stop-color="#427DFF"/>
<stop offset="1" stop-color="#44D5BB"/>
</linearGradient>
<linearGradient id="paint31_linear_6098_123565" x1="484.867" y1="64.8037" x2="644.39" y2="-15.8892" gradientUnits="userSpaceOnUse">
<stop stop-color="#427DFF"/>
<stop offset="1" stop-color="#44D5BB"/>
</linearGradient>
<linearGradient id="paint32_linear_6098_123565" x1="686.955" y1="60.6969" x2="700.266" y2="60.2176" gradientUnits="userSpaceOnUse">
<stop stop-color="#427DFF"/>
<stop offset="1" stop-color="#44D5BB"/>
</linearGradient>
<linearGradient id="paint33_linear_6098_123565" x1="639.834" y1="67.899" x2="705.23" y2="57.3387" gradientUnits="userSpaceOnUse">
<stop stop-color="#427DFF"/>
<stop offset="1" stop-color="#44D5BB"/>
</linearGradient>
<linearGradient id="paint34_linear_6098_123565" x1="-7.18337" y1="274.741" x2="552.349" y2="3.80653" gradientUnits="userSpaceOnUse">
<stop stop-color="#427DFF"/>
<stop offset="1" stop-color="#44D5BB"/>
</linearGradient>
<linearGradient id="paint35_linear_6098_123565" x1="689.608" y1="93.6242" x2="842.437" y2="49.8629" gradientUnits="userSpaceOnUse">
<stop stop-color="#427DFF"/>
<stop offset="1" stop-color="#44D5BB"/>
</linearGradient>
<linearGradient id="paint36_linear_6098_123565" x1="610.476" y1="64.2008" x2="682.961" y2="50.315" gradientUnits="userSpaceOnUse">
<stop stop-color="#427DFF"/>
<stop offset="1" stop-color="#44D5BB"/>
</linearGradient>
<linearGradient id="paint37_linear_6098_123565" x1="-133.548" y1="133.021" x2="72.7643" y2="77.7599" gradientUnits="userSpaceOnUse">
<stop stop-color="#427DFF"/>
<stop offset="1" stop-color="#44D5BB"/>
</linearGradient>
<linearGradient id="paint38_linear_6098_123565" x1="-70.7895" y1="255.173" x2="68.9329" y2="242.834" gradientUnits="userSpaceOnUse">
<stop stop-color="#427DFF"/>
<stop offset="1" stop-color="#44D5BB"/>
</linearGradient>
<linearGradient id="paint39_linear_6098_123565" x1="683.196" y1="62.6309" x2="775.557" y2="38.8417" gradientUnits="userSpaceOnUse">
<stop stop-color="#427DFF"/>
<stop offset="1" stop-color="#44D5BB"/>
</linearGradient>
<linearGradient id="paint40_linear_6098_123565" x1="687.805" y1="95.7605" x2="852.102" y2="45.8692" gradientUnits="userSpaceOnUse">
<stop stop-color="#427DFF"/>
<stop offset="1" stop-color="#44D5BB"/>
</linearGradient>
<linearGradient id="paint41_linear_6098_123565" x1="561.013" y1="66.9238" x2="765.711" y2="-136.542" gradientUnits="userSpaceOnUse">
<stop stop-color="#427DFF"/>
<stop offset="1" stop-color="#44D5BB"/>
</linearGradient>
<linearGradient id="paint42_linear_6098_123565" x1="682.6" y1="82.8615" x2="899.035" y2="-37.4202" gradientUnits="userSpaceOnUse">
<stop stop-color="#427DFF"/>
<stop offset="1" stop-color="#44D5BB"/>
</linearGradient>
<linearGradient id="paint43_linear_6098_123565" x1="690.481" y1="78.8396" x2="780.472" y2="61.5014" gradientUnits="userSpaceOnUse">
<stop stop-color="#427DFF"/>
<stop offset="1" stop-color="#44D5BB"/>
</linearGradient>
<linearGradient id="paint44_linear_6098_123565" x1="680.732" y1="103.274" x2="923.495" y2="-8.71338" gradientUnits="userSpaceOnUse">
<stop stop-color="#427DFF"/>
<stop offset="1" stop-color="#44D5BB"/>
</linearGradient>
<linearGradient id="paint45_linear_6098_123565" x1="666.89" y1="69.7804" x2="718.88" y2="63.3595" gradientUnits="userSpaceOnUse">
<stop stop-color="#427DFF"/>
<stop offset="1" stop-color="#44D5BB"/>
</linearGradient>
<linearGradient id="paint46_linear_6098_123565" x1="-130.646" y1="93.0779" x2="22.197" y2="48.9981" gradientUnits="userSpaceOnUse">
<stop stop-color="#427DFF"/>
<stop offset="1" stop-color="#44D5BB"/>
</linearGradient>
<linearGradient id="paint47_linear_6098_123565" x1="670.285" y1="58.601" x2="686.847" y2="57.8309" gradientUnits="userSpaceOnUse">
<stop stop-color="#427DFF"/>
<stop offset="1" stop-color="#44D5BB"/>
</linearGradient>
<linearGradient id="paint48_linear_6098_123565" x1="677.293" y1="64.4881" x2="837.436" y2="-17.7561" gradientUnits="userSpaceOnUse">
<stop stop-color="#427DFF"/>
<stop offset="1" stop-color="#44D5BB"/>
</linearGradient>
<linearGradient id="paint49_linear_6098_123565" x1="685.843" y1="97.7917" x2="861.394" y2="41.4957" gradientUnits="userSpaceOnUse">
<stop stop-color="#427DFF"/>
<stop offset="1" stop-color="#44D5BB"/>
</linearGradient>
<linearGradient id="paint50_linear_6098_123565" x1="-93.2335" y1="258.568" x2="185.412" y2="208.997" gradientUnits="userSpaceOnUse">
<stop stop-color="#427DFF"/>
<stop offset="1" stop-color="#44D5BB"/>
</linearGradient>
<linearGradient id="paint51_linear_6098_123565" x1="668.1" y1="109.303" x2="919.89" y2="-3.15965" gradientUnits="userSpaceOnUse">
<stop stop-color="#427DFF"/>
<stop offset="1" stop-color="#44D5BB"/>
</linearGradient>
<linearGradient id="paint52_linear_6098_123565" x1="-101.557" y1="261.186" x2="71.9565" y2="242.529" gradientUnits="userSpaceOnUse">
<stop stop-color="#427DFF"/>
<stop offset="1" stop-color="#44D5BB"/>
</linearGradient>
<linearGradient id="paint53_linear_6098_123565" x1="-165.957" y1="296.528" x2="541.107" y2="-31.7719" gradientUnits="userSpaceOnUse">
<stop stop-color="#427DFF"/>
<stop offset="1" stop-color="#44D5BB"/>
</linearGradient>
<linearGradient id="paint54_linear_6098_123565" x1="681.274" y1="94.0045" x2="914.035" y2="-23.0539" gradientUnits="userSpaceOnUse">
<stop stop-color="#427DFF"/>
<stop offset="1" stop-color="#44D5BB"/>
</linearGradient>
<linearGradient id="paint55_linear_6098_123565" x1="-57.3254" y1="270.65" x2="559.302" y2="-18.3989" gradientUnits="userSpaceOnUse">
<stop stop-color="#427DFF"/>
<stop offset="1" stop-color="#44D5BB"/>
</linearGradient>
<linearGradient id="paint56_linear_6098_123565" x1="21.6554" y1="245.083" x2="517.139" y2="-43.5741" gradientUnits="userSpaceOnUse">
<stop stop-color="#427DFF"/>
<stop offset="1" stop-color="#44D5BB"/>
</linearGradient>
<linearGradient id="paint57_linear_6098_123565" x1="1.9549" y1="252.082" x2="548.305" y2="-0.471104" gradientUnits="userSpaceOnUse">
<stop stop-color="#427DFF"/>
<stop offset="1" stop-color="#44D5BB"/>
</linearGradient>
<linearGradient id="paint58_linear_6098_123565" x1="-98.2574" y1="266.316" x2="661.637" y2="-226.421" gradientUnits="userSpaceOnUse">
<stop stop-color="#427DFF"/>
<stop offset="1" stop-color="#44D5BB"/>
</linearGradient>
<linearGradient id="paint59_linear_6098_123565" x1="683.988" y1="99.6691" x2="869.486" y2="37.4864" gradientUnits="userSpaceOnUse">
<stop stop-color="#427DFF"/>
<stop offset="1" stop-color="#44D5BB"/>
</linearGradient>
<linearGradient id="paint60_linear_6098_123565" x1="635.834" y1="89.4032" x2="679.576" y2="77.4447" gradientUnits="userSpaceOnUse">
<stop stop-color="#427DFF"/>
<stop offset="1" stop-color="#44D5BB"/>
</linearGradient>
<linearGradient id="paint61_linear_6098_123565" x1="645.646" y1="68.777" x2="711.047" y2="58.3614" gradientUnits="userSpaceOnUse">
<stop stop-color="#427DFF"/>
<stop offset="1" stop-color="#44D5BB"/>
</linearGradient>
<linearGradient id="paint62_linear_6098_123565" x1="591.174" y1="67.3365" x2="694.502" y2="39.5486" gradientUnits="userSpaceOnUse">
<stop stop-color="#427DFF"/>
<stop offset="1" stop-color="#44D5BB"/>
</linearGradient>
<linearGradient id="paint63_linear_6098_123565" x1="4.69729" y1="257.294" x2="548.272" y2="-24.1589" gradientUnits="userSpaceOnUse">
<stop stop-color="#427DFF"/>
<stop offset="1" stop-color="#44D5BB"/>
</linearGradient>
<linearGradient id="paint64_linear_6098_123565" x1="0.908872" y1="226.988" x2="267.711" y2="174.836" gradientUnits="userSpaceOnUse">
<stop stop-color="#427DFF"/>
<stop offset="1" stop-color="#44D5BB"/>
</linearGradient>
<linearGradient id="paint65_linear_6098_123565" x1="17.9054" y1="248.016" x2="526.019" y2="-36.6332" gradientUnits="userSpaceOnUse">
<stop stop-color="#427DFF"/>
<stop offset="1" stop-color="#44D5BB"/>
</linearGradient>
<linearGradient id="paint66_linear_6098_123565" x1="25.2823" y1="235.929" x2="519.02" y2="-44.4139" gradientUnits="userSpaceOnUse">
<stop stop-color="#427DFF"/>
<stop offset="1" stop-color="#44D5BB"/>
</linearGradient>
<linearGradient id="paint67_linear_6098_123565" x1="-38.6968" y1="243.901" x2="138.115" y2="223.097" gradientUnits="userSpaceOnUse">
<stop stop-color="#427DFF"/>
<stop offset="1" stop-color="#44D5BB"/>
</linearGradient>
<linearGradient id="paint68_linear_6098_123565" x1="-49.7337" y1="247.688" x2="112.207" y2="230.55" gradientUnits="userSpaceOnUse">
<stop stop-color="#427DFF"/>
<stop offset="1" stop-color="#44D5BB"/>
</linearGradient>
<linearGradient id="paint69_linear_6098_123565" x1="-102.845" y1="350.054" x2="589.911" y2="75.3281" gradientUnits="userSpaceOnUse">
<stop stop-color="#427DFF"/>
<stop offset="1" stop-color="#44D5BB"/>
</linearGradient>
<clipPath id="clip0_6098_123565">
<rect width="900" height="64" fill="white" transform="translate(4 1)"/>
</clipPath>
</defs>
</svg>
