<svg width="58" height="58" viewBox="0 0 58 58" fill="none" xmlns="http://www.w3.org/2000/svg">
<circle opacity="0.4" cx="29" cy="29" r="29" fill="#ABFBB0"/>
<circle opacity="0.9" cx="29.0002" cy="29.0002" r="17.9904" fill="#B0F5B4"/>
<g clip-path="url(#clip0_10636_62929)">
<path d="M29.0032 32.9318C30.2804 32.9318 31.5066 32.4129 32.409 31.4907C33.3136 30.5685 33.8226 29.3207 33.8226 28.0164V24.0869C33.8226 22.3297 32.9041 20.7093 31.4141 19.8319C29.9218 18.9545 28.0847 18.9545 26.5924 19.8319C25.1001 20.7093 24.1838 22.3321 24.1838 24.0869V28.0188C24.1838 29.3207 24.6928 30.5708 25.5975 31.4907C26.4998 32.4129 27.7261 32.9295 29.0032 32.9318ZM26.1111 24.0869C26.1111 22.4571 27.4068 21.1386 29.0032 21.1386C30.5997 21.1386 31.8953 22.4571 31.8953 24.0869V28.0188C31.8953 29.6462 30.5997 30.9671 29.0032 30.9671C27.4068 30.9671 26.1111 29.6486 26.1111 28.0188V24.0893V24.0869Z" fill="#30C593"/>
<path d="M22.184 28.0248C21.6565 28.1003 21.291 28.6003 21.365 29.1357C21.6126 30.8363 22.3992 32.4072 23.6023 33.6125C24.8054 34.8177 26.3625 35.5867 28.0353 35.806V37.8415C28.0353 38.384 28.468 38.8251 29.0001 38.8251C29.5323 38.8251 29.9649 38.384 29.9649 37.8415V35.806C31.6377 35.5867 33.1925 34.8154 34.3979 33.6125C35.6034 32.4096 36.3877 30.8363 36.6353 29.1357C36.7093 28.598 36.3437 28.1003 35.8162 28.0248C35.2887 27.9493 34.8005 28.322 34.7265 28.8598C34.4581 30.7467 33.3128 32.386 31.6516 33.2587C29.9904 34.1314 28.0145 34.1314 26.3533 33.2587C24.6897 32.386 23.5445 30.7467 23.2784 28.8598C23.2414 28.6027 23.1072 28.3692 22.9036 28.2112C22.6977 28.0555 22.4409 27.9871 22.1887 28.0248H22.184Z" fill="#30C593"/>
</g>
<defs>
<clipPath id="clip0_10636_62929">
<rect width="15.2888" height="19.657" fill="white" transform="translate(21.3555 19.1724)"/>
</clipPath>
</defs>
</svg>
