<svg width="20" height="20" viewBox="0 0 20 20" fill="none" xmlns="http://www.w3.org/2000/svg">
<g clip-path="url(#clip0_8875_61166)">
<path d="M10.003 13.6002C11.1725 13.6002 12.2954 13.1251 13.1216 12.2806C13.95 11.4361 14.4161 10.2935 14.4161 9.09915V5.50087C14.4161 3.8918 13.575 2.408 12.2106 1.60454C10.8441 0.801089 9.16188 0.801089 7.79535 1.60454C6.42883 2.408 5.58984 3.89396 5.58984 5.50087V9.10131C5.58984 10.2935 6.05595 11.4382 6.88434 12.2806C7.71061 13.1251 8.83349 13.5981 10.003 13.6002ZM7.35467 5.50087C7.35467 4.00843 8.54112 2.80109 10.003 2.80109C11.4648 2.80109 12.6513 4.00843 12.6513 5.50087V9.10131C12.6513 10.5916 11.4648 11.8011 10.003 11.8011C8.54112 11.8011 7.35467 10.5937 7.35467 9.10131V5.50303V5.50087Z" fill="#156FF7"/>
<path d="M3.75872 9.10697C3.27567 9.17609 2.94093 9.63397 3.00872 10.1242C3.23542 11.6815 3.95576 13.1199 5.05745 14.2236C6.15915 15.3273 7.58499 16.0314 9.11677 16.2322V18.0962C9.11677 18.5929 9.51296 18.9968 10.0002 18.9968C10.4875 18.9968 10.8837 18.5929 10.8837 18.0962V16.2322C12.4155 16.0314 13.8392 15.3251 14.943 14.2236C16.0469 13.1221 16.7651 11.6815 16.9918 10.1242C17.0596 9.63181 16.7248 9.17609 16.2418 9.10697C15.7587 9.03786 15.3117 9.37911 15.2439 9.87155C14.9981 11.5994 13.9494 13.1005 12.4282 13.8996C10.907 14.6988 9.0977 14.6988 7.57652 13.8996C6.05321 13.1005 5.00448 11.5994 4.76084 9.87155C4.72694 9.63613 4.60406 9.42231 4.41762 9.2776C4.22906 9.13505 3.99389 9.07241 3.76296 9.10697H3.75872Z" fill="#156FF7"/>
</g>
<defs>
<clipPath id="clip0_8875_61166">
<rect width="14" height="18" fill="white" transform="translate(3 1)"/>
</clipPath>
</defs>
</svg>
