<svg width="67" height="60" viewBox="0 0 67 60" fill="none" xmlns="http://www.w3.org/2000/svg">
<circle opacity="0.25" cx="18" cy="29.9998" r="48.365" fill="#B4F7B7"/>
<circle opacity="0.4" cx="17.9999" cy="29.9997" r="35.7848" fill="#ABFBB0"/>
<circle opacity="0.9" cx="18.0002" cy="29.9998" r="22.1995" fill="#B0F5B4"/>
<g clip-path="url(#clip0_10346_76936)">
<path d="M18.0041 34.8508C19.58 34.8508 21.0931 34.2105 22.2066 33.0725C23.3229 31.9345 23.951 30.3949 23.951 28.7854V23.9366C23.951 21.7682 22.8176 19.7687 20.9789 18.686C19.1375 17.6033 16.8706 17.6033 15.0292 18.686C13.1877 19.7687 12.0571 21.7712 12.0571 23.9366V28.7883C12.0571 30.3949 12.6852 31.9375 13.8015 33.0725C14.915 34.2105 16.4281 34.8479 18.0041 34.8508ZM14.4353 23.9366C14.4353 21.9254 16.0341 20.2985 18.0041 20.2985C19.974 20.2985 21.5728 21.9254 21.5728 23.9366V28.7883C21.5728 30.7966 19.974 32.4264 18.0041 32.4264C16.0341 32.4264 14.4353 30.7995 14.4353 28.7883V23.9395V23.9366Z" fill="#30C593"/>
<path d="M9.58956 28.7962C8.93862 28.8894 8.48753 29.5064 8.57889 30.1671C8.88438 32.2655 9.85507 34.2039 11.3397 35.6912C12.8243 37.1784 14.7457 38.1272 16.8098 38.3979V40.9097C16.8098 41.5791 17.3437 42.1233 18.0003 42.1233C18.657 42.1233 19.1909 41.5791 19.1909 40.9097V38.3979C21.255 38.1272 23.1736 37.1755 24.661 35.6912C26.1485 34.2068 27.1163 32.2655 27.4218 30.1671C27.5131 29.5035 27.062 28.8894 26.4111 28.7962C25.7602 28.7031 25.1578 29.163 25.0664 29.8266C24.7352 32.1549 23.322 34.1777 21.2721 35.2546C19.2223 36.3315 16.7841 36.3315 14.7342 35.2546C12.6815 34.1777 11.2683 32.1549 10.94 29.8266C10.8943 29.5093 10.7287 29.2212 10.4775 29.0262C10.2234 28.8341 9.90646 28.7497 9.59527 28.7962H9.58956Z" fill="#30C593"/>
</g>
<defs>
<clipPath id="clip0_10346_76936">
<rect width="18.8657" height="24.2559" fill="white" transform="translate(8.56714 17.8716)"/>
</clipPath>
</defs>
</svg>
