<svg preserveAspectRatio="none" width="100%" height="100%" overflow="visible" style="display: block;" viewBox="0 0 170 114" fill="none" xmlns="http://www.w3.org/2000/svg">
<g id="Empty illustration" clip-path="url(#clip0_0_75)">
<g id="Vector">
</g>
<path id="Vector_2" fill-rule="evenodd" clip-rule="evenodd" d="M38.2308 23.2529H37.6815C37.6179 23.2528 37.557 23.2273 37.512 23.1821C37.4671 23.1368 37.4418 23.0755 37.4418 23.0116V22.4591C37.4418 22.3256 37.5499 22.2179 37.6815 22.2179H38.2308C38.2943 22.2181 38.3552 22.2436 38.4001 22.2887C38.4451 22.3339 38.4705 22.3951 38.4707 22.4591V23.0116C38.4708 23.0433 38.4646 23.0747 38.4526 23.104C38.4405 23.1333 38.4229 23.1599 38.4006 23.1824C38.3783 23.2048 38.3518 23.2226 38.3227 23.2347C38.2935 23.2468 38.2623 23.2529 38.2308 23.2529V23.2529ZM36.3265 23.2529H35.7772C35.7137 23.2526 35.6528 23.2271 35.6079 23.1819C35.563 23.1367 35.5377 23.0755 35.5375 23.0116V22.4591C35.5375 22.3256 35.6456 22.2179 35.7772 22.2179H36.3265C36.39 22.2182 36.4508 22.2436 36.4957 22.2888C36.5406 22.334 36.566 22.3952 36.5662 22.4591V23.0116C36.566 23.0755 36.5407 23.1367 36.4958 23.1819C36.4509 23.2271 36.39 23.2526 36.3265 23.2529V23.2529ZM34.4209 23.2529H33.8716C33.8081 23.2526 33.7472 23.2271 33.7023 23.1819C33.6574 23.1367 33.6321 23.0755 33.6319 23.0116V22.4591C33.6319 22.3256 33.74 22.2179 33.8716 22.2179H34.4209C34.4844 22.2182 34.5452 22.2436 34.5901 22.2888C34.635 22.334 34.6604 22.3952 34.6606 22.4591V23.0116C34.6607 23.0433 34.6546 23.0747 34.6426 23.104C34.6305 23.1333 34.6129 23.1599 34.5906 23.1823C34.5683 23.2048 34.5419 23.2225 34.5127 23.2347C34.4836 23.2468 34.4524 23.2529 34.4209 23.2529ZM32.5164 23.2529H31.9673C31.9037 23.2527 31.8428 23.2272 31.7979 23.182C31.7529 23.1368 31.7276 23.0755 31.7274 23.0116V22.4591C31.7274 22.3256 31.8355 22.2179 31.9673 22.2179H32.5164C32.6493 22.2179 32.7574 22.3267 32.7574 22.4591V23.0116C32.7567 23.0755 32.7311 23.1367 32.686 23.1818C32.6409 23.227 32.58 23.2525 32.5164 23.2529V23.2529ZM30.6121 23.2529H30.0628C29.9991 23.2528 29.938 23.2274 29.8929 23.1822C29.8478 23.137 29.8223 23.0756 29.822 23.0116V22.4591C29.822 22.3256 29.9301 22.2179 30.0628 22.2179H30.6121C30.6756 22.2182 30.7364 22.2436 30.7813 22.2888C30.8262 22.334 30.8516 22.3952 30.8518 22.4591V23.0116C30.8516 23.0755 30.8263 23.1367 30.7814 23.1819C30.7365 23.2271 30.6756 23.2526 30.6121 23.2529V23.2529ZM36.2566 21.1639H35.7074C35.6439 21.1636 35.583 21.1382 35.5381 21.093C35.4932 21.0478 35.4679 20.9866 35.4677 20.9228V20.3692C35.4679 20.3053 35.4932 20.2441 35.5381 20.1989C35.583 20.1537 35.6439 20.1283 35.7074 20.128H36.2566C36.3895 20.128 36.4964 20.2368 36.4964 20.3692V20.9217C36.4966 20.9534 36.4905 20.9849 36.4785 21.0143C36.4666 21.0437 36.4489 21.0705 36.4267 21.093C36.4044 21.1155 36.3779 21.1334 36.3487 21.1455C36.3195 21.1577 36.2882 21.1639 36.2566 21.1639V21.1639ZM34.3523 21.1639H33.8031C33.7396 21.1636 33.6787 21.1382 33.6338 21.093C33.5889 21.0478 33.5636 20.9866 33.5633 20.9228V20.3692C33.5636 20.3053 33.5889 20.2441 33.6338 20.1989C33.6787 20.1537 33.7396 20.1283 33.8031 20.128H34.3523C34.4158 20.1283 34.4767 20.1537 34.5216 20.1989C34.5665 20.2441 34.5918 20.3053 34.5921 20.3692V20.9217C34.5923 20.9534 34.5862 20.9849 34.5742 21.0143C34.5623 21.0437 34.5446 21.0705 34.5223 21.093C34.5001 21.1155 34.4736 21.1334 34.4444 21.1455C34.4152 21.1577 34.3839 21.1639 34.3523 21.1639V21.1639ZM32.4478 21.1639H31.8986C31.8349 21.1639 31.7738 21.1386 31.7286 21.0934C31.6835 21.0482 31.658 20.9868 31.6578 20.9228V20.3692C31.6578 20.2368 31.7657 20.128 31.8986 20.128H32.4478C32.5113 20.1283 32.5722 20.1537 32.6171 20.1989C32.662 20.2441 32.6873 20.3053 32.6876 20.3692V20.9217C32.6876 21.0553 32.5795 21.1639 32.4478 21.1639ZM34.4209 25.4968H33.8716C33.8081 25.4966 33.7473 25.4711 33.7024 25.4259C33.6575 25.3807 33.6321 25.3196 33.6319 25.2557V24.7032C33.6319 24.5695 33.74 24.4619 33.8716 24.4619H34.4209C34.4844 24.4621 34.5453 24.4876 34.5902 24.5328C34.6351 24.578 34.6604 24.6393 34.6606 24.7032V25.2557C34.6607 25.2874 34.6546 25.3188 34.6426 25.3481C34.6305 25.3774 34.6129 25.404 34.5906 25.4264C34.5683 25.4488 34.5419 25.4666 34.5127 25.4787C34.4836 25.4907 34.4524 25.4969 34.4209 25.4968V25.4968ZM32.5164 25.4968H31.9673C31.9038 25.4966 31.8429 25.4712 31.7979 25.426C31.753 25.3808 31.7276 25.3196 31.7274 25.2557V24.7032C31.7274 24.5695 31.8355 24.4619 31.9673 24.4619H32.5164C32.6493 24.4619 32.7574 24.5706 32.7574 24.7032V25.2557C32.7567 25.3196 32.731 25.3807 32.6859 25.4258C32.6409 25.4709 32.58 25.4964 32.5164 25.4968V25.4968ZM127.754 89.8699H128.499C128.679 89.8699 128.824 90.0173 128.824 90.197V90.9468C128.824 91.1282 128.678 91.2741 128.499 91.2741H127.754C127.667 91.2739 127.585 91.2393 127.524 91.178C127.463 91.1166 127.429 91.0335 127.428 90.9468V90.197C127.428 90.154 127.437 90.1114 127.453 90.0717C127.469 90.0319 127.493 89.9958 127.523 89.9654C127.554 89.935 127.59 89.9109 127.629 89.8945C127.669 89.8781 127.711 89.8698 127.754 89.8699ZM130.338 89.8699H131.084C131.262 89.8699 131.409 90.0173 131.409 90.197V90.9468C131.409 91.1282 131.262 91.2741 131.084 91.2741H130.338C130.252 91.2739 130.169 91.2393 130.108 91.178C130.047 91.1166 130.013 91.0335 130.013 90.9468V90.197C130.013 90.0173 130.159 89.8699 130.338 89.8699ZM132.924 89.8699H133.67C133.848 89.8699 133.995 90.0173 133.995 90.197V90.9468C133.995 91.1282 133.848 91.2741 133.67 91.2741H132.924C132.745 91.2741 132.599 91.1267 132.599 90.9468V90.197C132.599 90.154 132.607 90.1114 132.623 90.0717C132.64 90.032 132.664 89.9959 132.694 89.9655C132.724 89.9351 132.76 89.911 132.8 89.8946C132.839 89.8782 132.881 89.8698 132.924 89.8699ZM135.509 89.8699H136.254C136.433 89.8699 136.58 90.0173 136.58 90.197V90.9468C136.58 91.1282 136.433 91.2741 136.254 91.2741H135.509C135.422 91.2741 135.339 91.2397 135.278 91.1784C135.217 91.117 135.182 91.0338 135.182 90.9468V90.197C135.183 90.1103 135.218 90.0274 135.279 89.9662C135.34 89.905 135.422 89.8704 135.509 89.8699ZM138.093 89.8699H138.839C139.019 89.8699 139.166 90.0173 139.166 90.197V90.9468C139.166 91.1282 139.019 91.2741 138.839 91.2741H138.093C138.007 91.2739 137.925 91.2393 137.864 91.178C137.803 91.1166 137.768 91.0335 137.768 90.9468V90.197C137.768 90.0173 137.915 89.8699 138.093 89.8699ZM130.433 92.7046H131.178C131.357 92.7046 131.504 92.8521 131.504 93.032V93.7832C131.504 93.9629 131.357 94.1106 131.178 94.1106H130.433C130.346 94.1105 130.264 94.0759 130.203 94.0146C130.142 93.9532 130.107 93.87 130.107 93.7832V93.0334C130.107 92.9903 130.115 92.9476 130.132 92.9077C130.148 92.8678 130.172 92.8315 130.202 92.8009C130.232 92.7704 130.268 92.7461 130.308 92.7296C130.347 92.7131 130.39 92.7046 130.433 92.7046V92.7046ZM133.017 92.7046H133.763C133.941 92.7046 134.088 92.8521 134.088 93.032V93.7832C134.088 93.9629 133.941 94.1106 133.763 94.1106H133.017C132.931 94.1102 132.849 94.0756 132.788 94.0143C132.727 93.953 132.692 93.8699 132.692 93.7832V93.0334C132.692 92.9903 132.7 92.9475 132.716 92.9076C132.732 92.8677 132.756 92.8314 132.787 92.8009C132.817 92.7703 132.853 92.7461 132.892 92.7295C132.932 92.713 132.975 92.7046 133.017 92.7046V92.7046ZM135.602 92.7046H136.347C136.528 92.7046 136.674 92.8521 136.674 93.032V93.7832C136.674 93.9629 136.528 94.1106 136.347 94.1106H135.602C135.423 94.1106 135.276 93.9629 135.276 93.7832V93.0334C135.276 92.8521 135.423 92.7046 135.602 92.7046ZM132.924 86.8244H133.67C133.848 86.8244 133.995 86.9719 133.995 87.1517V87.9016C133.995 88.0827 133.848 88.2287 133.67 88.2287H132.924C132.838 88.2284 132.755 88.1938 132.694 88.1326C132.633 88.0713 132.599 87.9882 132.599 87.9016V87.1517C132.599 87.1087 132.607 87.0661 132.623 87.0264C132.64 86.9866 132.664 86.9505 132.694 86.9201C132.724 86.8897 132.76 86.8656 132.799 86.8491C132.839 86.8327 132.881 86.8243 132.924 86.8244V86.8244ZM135.509 86.8244H136.254C136.433 86.8244 136.58 86.9719 136.58 87.1517V87.9016C136.58 88.0827 136.433 88.2287 136.254 88.2287H135.509C135.422 88.2287 135.339 88.1943 135.278 88.133C135.217 88.0717 135.182 87.9885 135.182 87.9016V87.1517C135.183 87.065 135.218 86.982 135.279 86.9208C135.34 86.8595 135.422 86.8249 135.509 86.8244Z" fill="var(--fill-0, #AEBFFF)"/>
<path id="Vector_3" d="M118.097 97.0329H31.1243C28.5857 97.0329 26.5272 94.9623 26.5272 92.4088V37.5942C26.5272 35.041 28.5857 32.9701 31.1243 32.9701H118.097C120.635 32.9701 122.694 35.041 122.694 37.5942V92.4088C122.694 94.9623 120.635 97.0329 118.097 97.0329Z" fill="var(--fill-0, white)" stroke="var(--stroke-0, #AEBFFF)" stroke-width="0.823634"/>
<path id="Vector_4" d="M52.9876 92.6241C51.9072 92.6241 51.0313 91.7431 51.0313 90.6563C51.0313 89.5695 51.9072 88.6885 52.9876 88.6885C54.068 88.6885 54.9438 89.5695 54.9438 90.6563C54.9438 91.7431 54.068 92.6241 52.9876 92.6241Z" fill="var(--fill-0, #AEBFFF)"/>
<path id="Vector_5" d="M36.7978 85.6802L32.1854 90.3197C32.0175 90.4886 32.0175 90.7625 32.1854 90.9315C32.3534 91.1004 32.6257 91.1004 32.7936 90.9315L37.406 86.292C37.5739 86.123 37.5739 85.8491 37.406 85.6802C37.2381 85.5113 36.9658 85.5113 36.7978 85.6802Z" fill="var(--fill-0, #AEBFFF)"/>
<path id="Vector_6" d="M36.3462 89.002L35.016 90.3401C34.8481 90.509 34.8481 90.7829 35.016 90.9518C35.1839 91.1207 35.4562 91.1207 35.6242 90.9518L36.9544 89.6138C37.1223 89.4449 37.1223 89.171 36.9544 89.002C36.7864 88.8331 36.5141 88.8331 36.3462 89.002Z" fill="var(--fill-0, #AEBFFF)"/>
<path id="Vector_7" d="M114.042 89.8776C113.303 90.3066 112.359 90.052 111.932 89.3089C111.506 88.5659 111.759 87.6158 112.497 87.1868C113.236 86.7578 114.181 87.0123 114.607 87.7554C115.034 88.4984 114.781 89.4486 114.042 89.8776Z" fill="var(--fill-0, #4A72FF)"/>
<path id="Vector_8" d="M35.3815 68.5968C36.405 68.5968 37.2348 69.4314 37.2348 70.4609C37.2348 71.4905 36.405 72.3251 35.3815 72.3251C34.358 72.3251 33.5282 71.4905 33.5282 70.4609C33.5282 69.4314 34.358 68.5968 35.3815 68.5968Z" fill="var(--fill-0, #4A72FF)"/>
<path id="Vector_9" d="M122.694 39.0121H26.5272V37.5942C26.5272 35.041 28.5857 32.9701 31.1243 32.9701H118.097C120.635 32.9701 122.694 35.041 122.694 37.5942V39.0121V39.0121Z" fill="var(--fill-0, white)" stroke="var(--stroke-0, #AEBFFF)" stroke-width="0.823634"/>
<path id="Vector_10" d="M30.9543 36.9057C31.0771 36.9075 31.199 36.8846 31.3129 36.8386C31.4269 36.7925 31.5306 36.7241 31.618 36.6374C31.7055 36.5506 31.7749 36.4473 31.8223 36.3333C31.8697 36.2194 31.8941 36.0971 31.8941 35.9736C31.8941 35.85 31.8697 35.7277 31.8223 35.6138C31.7749 35.4998 31.7055 35.3965 31.618 35.3097C31.5306 35.223 31.4269 35.1546 31.3129 35.1085C31.199 35.0625 31.0771 35.0396 30.9543 35.0414C30.7108 35.0448 30.4784 35.1445 30.3074 35.319C30.1363 35.4934 30.0405 35.7286 30.0405 35.9736C30.0405 36.2185 30.1363 36.4537 30.3074 36.6281C30.4784 36.8026 30.7108 36.9023 30.9543 36.9057ZM34.661 36.9057C34.9068 36.9057 35.1425 36.8075 35.3163 36.6327C35.4901 36.4579 35.5877 36.2208 35.5877 35.9736C35.5877 35.7263 35.4901 35.4892 35.3163 35.3144C35.1425 35.1396 34.9068 35.0414 34.661 35.0414C34.4152 35.0414 34.1795 35.1396 34.0057 35.3144C33.8319 35.4892 33.7343 35.7263 33.7343 35.9736C33.7343 36.2208 33.8319 36.4579 34.0057 36.6327C34.1795 36.8075 34.4152 36.9057 34.661 36.9057V36.9057ZM38.4706 36.9057C39.0391 36.9057 39.5 36.4884 39.5 35.9736C39.5 35.4587 39.0391 35.0416 38.4706 35.0416C37.9018 35.0416 37.4409 35.4587 37.4409 35.9736C37.4409 36.4884 37.9018 36.9057 38.4706 36.9057Z" fill="var(--fill-0, #AEBFFF)"/>
<path id="Vector_11" d="M138.688 81.0839H51.7164C49.1778 81.0839 47.1191 79.0131 47.1191 76.4596V21.6452C47.1191 19.0917 49.1778 17.0209 51.7164 17.0209H138.688C141.227 17.0209 143.286 19.0917 143.286 21.6452V76.4596C143.286 79.0131 141.227 81.0839 138.688 81.0839Z" fill="var(--fill-0, white)" stroke="var(--stroke-0, #AEBFFF)" stroke-width="0.823634"/>
<path id="Vector_12" fill-rule="evenodd" clip-rule="evenodd" d="M74.2705 91.686L68.8457 74.1865C68.2737 72.3405 70.1452 70.6863 71.8818 71.5041L88.0602 79.131C89.9775 80.0344 89.655 82.8831 87.5844 83.3245L80.9241 84.7477L78.453 91.7646C77.7415 93.7793 74.9043 93.7238 74.2705 91.686V91.686Z" fill="var(--fill-0, #4A72FF)"/>
<path id="Vector_13" d="M137.455 71.003C136.152 70.246 134.485 70.6953 133.733 72.0064C132.98 73.3175 133.427 74.994 134.73 75.751C136.034 76.508 137.7 76.0587 138.453 74.7476C139.205 73.4365 138.759 71.76 137.455 71.003Z" fill="var(--fill-0, #AEBFFF)"/>
<path id="Vector_14" d="M58.9575 68.972C59.5112 69.2935 59.7009 70.0057 59.3812 70.5626C59.0615 71.1195 58.3536 71.3103 57.7999 70.9888C57.2462 70.6672 57.0565 69.9551 57.3762 69.3982C57.6958 68.8412 58.4038 68.6504 58.9575 68.972Z" fill="var(--fill-0, #AEBFFF)"/>
<path id="Vector_15" d="M128.467 62.6784H85.8913C85.0626 62.6784 84.3908 63.3541 84.3908 64.1877C84.3908 65.0212 85.0626 65.6969 85.8913 65.6969H128.467C129.296 65.6969 129.967 65.0212 129.967 64.1877C129.967 63.3541 129.296 62.6784 128.467 62.6784Z" fill="var(--fill-0, #AEBFFF)"/>
<path id="Vector_16" d="M128.467 54H85.8913C85.0626 54 84.3908 54.6757 84.3908 55.5092C84.3908 56.3428 85.0626 57.0185 85.8913 57.0185H128.467C129.296 57.0185 129.967 56.3428 129.967 55.5092C129.967 54.6757 129.296 54 128.467 54Z" fill="var(--fill-0, #AEBFFF)"/>
<path id="Vector_17" d="M37.5437 51.6121C36.4633 51.6121 35.5875 52.4931 35.5875 53.5799C35.5875 54.6666 36.4633 55.5476 37.5437 55.5476C38.6241 55.5476 39.5 54.6666 39.5 53.5799C39.5 52.4931 38.6241 51.6121 37.5437 51.6121Z" fill="var(--fill-0, #AEBFFF)"/>
<path id="Vector_18" d="M74.6645 46.8801C74.2428 46.8146 73.817 46.7798 73.3904 46.776C70.8183 46.7573 68.3676 47.8916 66.6861 49.8792C65.0044 51.8668 64.2613 54.5075 64.6529 57.1033" stroke="var(--stroke-0, #AEBFFF)" stroke-width="2.06875" stroke-linecap="round" stroke-linejoin="round"/>
<path id="Vector_19" d="M121.559 45.1909H85.9353C85.0823 45.1909 84.3908 45.8864 84.3908 46.7444C84.3908 47.6024 85.0823 48.298 85.9353 48.298H121.559C122.412 48.298 123.104 47.6024 123.104 46.7444C123.104 45.8864 122.412 45.1909 121.559 45.1909Z" fill="var(--fill-0, #AEBFFF)"/>
<path id="Vector_20" d="M134.429 47.4156C133.69 47.8446 132.745 47.59 132.319 46.8469C131.892 46.1039 132.145 45.1538 132.884 44.7248C133.623 44.2958 134.567 44.5504 134.994 45.2934C135.42 46.0364 135.167 46.9866 134.429 47.4156Z" fill="var(--fill-0, #4A72FF)"/>
<path id="Vector_21" d="M62.2517 45.8508C62.9288 45.8508 63.4777 45.2987 63.4777 44.6176C63.4777 43.9366 62.9288 43.3844 62.2517 43.3844C61.5747 43.3844 61.0258 43.9366 61.0258 44.6176C61.0258 45.2987 61.5747 45.8508 62.2517 45.8508Z" fill="var(--fill-0, #AEBFFF)" stroke="var(--stroke-0, #AEBFFF)" stroke-width="0.766209"/>
<path id="Vector_22" d="M75.1243 47.4695C75.1243 48.7751 74.8686 50.068 74.3719 51.2743C73.8752 52.4805 73.1471 53.5766 72.2293 54.4998C71.3115 55.423 70.2218 56.1554 69.0226 56.655C67.8234 57.1547 66.5381 57.4118 65.2401 57.4118V57.4118C62.6187 57.4117 60.1046 56.3642 58.251 54.4997C56.3974 52.6352 55.356 50.1063 55.356 47.4695C55.3558 44.8326 56.3971 42.3036 58.2507 40.439C60.1045 38.5745 62.6186 37.527 65.2401 37.527C67.8616 37.527 70.3758 38.5744 72.2295 40.439C74.0831 42.3036 75.1244 44.8326 75.1243 47.4695V47.4695Z" stroke="var(--stroke-0, #AEBFFF)" stroke-width="2.06875" stroke-linecap="round" stroke-linejoin="round"/>
<path id="Vector_23" d="M130.53 36.0773H85.8913C85.0626 36.0773 84.3908 36.753 84.3908 37.5865C84.3908 38.4201 85.0626 39.0958 85.8913 39.0958H130.53C131.359 39.0958 132.03 38.4201 132.03 37.5865C132.03 36.753 131.359 36.0773 130.53 36.0773Z" fill="var(--fill-0, #AEBFFF)"/>
<path id="Vector_24" d="M41.3268 29.7485L44.3151 26.7427C44.424 26.6332 44.424 26.4557 44.3152 26.3462C44.2064 26.2368 44.0299 26.2368 43.921 26.3463L40.9327 29.3522C40.8239 29.4616 40.8239 29.6391 40.9327 29.7486C41.0415 29.8581 41.218 29.858 41.3268 29.7485Z" fill="var(--fill-0, #AEBFFF)"/>
<path id="Vector_25" d="M41.6189 27.5962L42.4806 26.7294C42.5895 26.6199 42.5895 26.4424 42.4807 26.333C42.3719 26.2235 42.1954 26.2236 42.0866 26.3331L41.2248 27.1999C41.116 27.3094 41.116 27.4868 41.2248 27.5963C41.3336 27.7058 41.51 27.7057 41.6189 27.5962Z" fill="var(--fill-0, #AEBFFF)"/>
<path id="Vector_26" d="M143.286 23.0629H47.1191V21.6452C47.1191 19.0917 49.1778 17.0209 51.7164 17.0209H138.688C141.227 17.0209 143.286 19.0917 143.286 21.6452V23.0629Z" fill="var(--fill-0, white)" stroke="var(--stroke-0, #AEBFFF)" stroke-width="0.823634"/>
<path id="Vector_27" d="M51.5465 20.9565C51.6693 20.9582 51.7912 20.9354 51.9051 20.8893C52.019 20.8433 52.1227 20.7749 52.2101 20.6882C52.2975 20.6015 52.367 20.4981 52.4143 20.3842C52.4617 20.2703 52.4861 20.148 52.4861 20.0245C52.4861 19.901 52.4617 19.7787 52.4143 19.6648C52.367 19.5508 52.2975 19.4475 52.2101 19.3608C52.1227 19.2741 52.019 19.2057 51.9051 19.1597C51.7912 19.1136 51.6693 19.0908 51.5465 19.0925C51.303 19.0959 51.0707 19.1956 50.8997 19.37C50.7287 19.5445 50.6329 19.7795 50.6329 20.0245C50.6329 20.2694 50.7287 20.5045 50.8997 20.6789C51.0707 20.8533 51.303 20.953 51.5465 20.9565V20.9565ZM55.253 20.9565C55.3758 20.9582 55.4977 20.9354 55.6116 20.8893C55.7255 20.8433 55.8292 20.7749 55.9166 20.6882C56.0041 20.6015 56.0735 20.4981 56.1209 20.3842C56.1683 20.2703 56.1927 20.148 56.1927 20.0245C56.1927 19.901 56.1683 19.7787 56.1209 19.6648C56.0735 19.5508 56.0041 19.4475 55.9166 19.3608C55.8292 19.2741 55.7255 19.2057 55.6116 19.1597C55.4977 19.1136 55.3758 19.0908 55.253 19.0925C55.0095 19.0959 54.7772 19.1956 54.6062 19.37C54.4352 19.5445 54.3394 19.7795 54.3394 20.0245C54.3394 20.2694 54.4352 20.5045 54.6062 20.6789C54.7772 20.8533 55.0095 20.953 55.253 20.9565V20.9565ZM59.0626 20.9565C59.6312 20.9565 60.0922 20.5393 60.0922 20.0244C60.0922 19.5097 59.6312 19.0923 59.0626 19.0923C58.494 19.0923 58.0329 19.5097 58.0329 20.0244C58.0329 20.5393 58.494 20.9565 59.0626 20.9565Z" fill="var(--fill-0, #AEBFFF)"/>
</g>
<defs>
<clipPath id="clip0_0_75">
<rect width="170" height="114" fill="white"/>
</clipPath>
</defs>
</svg>
