<svg width="170" height="114" viewBox="0 0 170 114" fill="none" xmlns="http://www.w3.org/2000/svg">
  <g clip-path="url(#clip0_13968_124222)">
    <path fill-rule="evenodd" clip-rule="evenodd" d="M38.2311 23.2538H37.6818C37.6182 23.2537 37.5573 23.2282 37.5123 23.183C37.4674 23.1377 37.4421 23.0764 37.4421 23.0124V22.4599C37.4421 22.3264 37.5502 22.2188 37.6818 22.2188H38.2311C38.2946 22.219 38.3555 22.2445 38.4004 22.2896C38.4454 22.3348 38.4707 22.396 38.471 22.4599V23.0124C38.471 23.0442 38.4649 23.0756 38.4529 23.1049C38.4408 23.1342 38.4232 23.1608 38.4009 23.1832C38.3786 23.2057 38.3521 23.2234 38.323 23.2355C38.2938 23.2476 38.2626 23.2538 38.2311 23.2538ZM36.3267 23.2538H35.7775C35.7139 23.2535 35.6531 23.228 35.6082 23.1828C35.5633 23.1376 35.5379 23.0764 35.5378 23.0124V22.4599C35.5378 22.3264 35.6459 22.2188 35.7775 22.2188H36.3267C36.3903 22.219 36.4511 22.2445 36.496 22.2897C36.5409 22.3349 36.5662 22.3961 36.5665 22.4599V23.0124C36.5663 23.0764 36.541 23.1376 36.4961 23.1828C36.4511 23.228 36.3903 23.2535 36.3267 23.2538ZM34.4212 23.2538H33.8719C33.8084 23.2535 33.7475 23.228 33.7026 23.1828C33.6577 23.1376 33.6324 23.0764 33.6322 23.0124V22.4599C33.6322 22.3264 33.7403 22.2188 33.8719 22.2188H34.4212C34.4847 22.219 34.5455 22.2445 34.5904 22.2897C34.6353 22.3349 34.6606 22.3961 34.6609 22.4599V23.0124C34.661 23.0441 34.6548 23.0756 34.6428 23.1049C34.6308 23.1342 34.6132 23.1608 34.5909 23.1832C34.5686 23.2057 34.5422 23.2234 34.513 23.2355C34.4839 23.2476 34.4527 23.2538 34.4212 23.2538ZM32.5167 23.2538H31.9676C31.904 23.2536 31.8431 23.2281 31.7981 23.1829C31.7532 23.1377 31.7279 23.0764 31.7277 23.0124V22.4599C31.7277 22.3264 31.8358 22.2188 31.9676 22.2188H32.5167C32.6496 22.2188 32.7577 22.3275 32.7577 22.4599V23.0124C32.757 23.0764 32.7314 23.1376 32.6863 23.1827C32.6412 23.2279 32.5803 23.2534 32.5167 23.2538ZM30.6124 23.2538H30.0631C29.9994 23.2537 29.9383 23.2283 29.8932 23.1831C29.848 23.1379 29.8226 23.0765 29.8223 23.0124V22.4599C29.8223 22.3264 29.9304 22.2188 30.0631 22.2188H30.6124C30.6759 22.219 30.7367 22.2445 30.7816 22.2897C30.8265 22.3349 30.8518 22.3961 30.8521 22.4599V23.0124C30.8519 23.0764 30.8266 23.1376 30.7817 23.1828C30.7368 23.228 30.6759 23.2535 30.6124 23.2538ZM36.2569 21.1648H35.7077C35.6442 21.1645 35.5833 21.1391 35.5384 21.0939C35.4935 21.0487 35.4682 20.9875 35.4679 20.9236V20.37C35.4682 20.3062 35.4935 20.245 35.5384 20.1998C35.5833 20.1546 35.6442 20.1291 35.7077 20.1289H36.2569C36.3898 20.1289 36.4967 20.2376 36.4967 20.37V20.9225C36.4968 20.9543 36.4908 20.9858 36.4788 21.0152C36.4669 21.0446 36.4492 21.0714 36.4269 21.0939C36.4047 21.1164 36.3782 21.1342 36.349 21.1464C36.3198 21.1586 36.2885 21.1648 36.2569 21.1648ZM34.3526 21.1648H33.8033C33.7398 21.1645 33.679 21.1391 33.6341 21.0939C33.5892 21.0487 33.5639 20.9875 33.5636 20.9236V20.37C33.5639 20.3062 33.5892 20.245 33.6341 20.1998C33.679 20.1546 33.7398 20.1291 33.8033 20.1289H34.3526C34.4161 20.1291 34.477 20.1546 34.5219 20.1998C34.5668 20.245 34.5921 20.3062 34.5923 20.37V20.9225C34.5925 20.9543 34.5865 20.9858 34.5745 21.0152C34.5625 21.0446 34.5449 21.0714 34.5226 21.0939C34.5003 21.1164 34.4738 21.1342 34.4447 21.1464C34.4155 21.1586 34.3842 21.1648 34.3526 21.1648ZM32.4481 21.1648H31.8988C31.8352 21.1648 31.774 21.1395 31.7289 21.0943C31.6838 21.0491 31.6583 20.9877 31.658 20.9236V20.37C31.658 20.2376 31.766 20.1289 31.8988 20.1289H32.4481C32.5116 20.1291 32.5725 20.1546 32.6174 20.1998C32.6623 20.245 32.6876 20.3062 32.6878 20.37V20.9225C32.6878 21.0562 32.5797 21.1648 32.4481 21.1648ZM34.4212 25.4977H33.8719C33.8084 25.4975 33.7475 25.472 33.7026 25.4268C33.6577 25.3816 33.6324 25.3204 33.6322 25.2566V24.7041C33.6322 24.5704 33.7403 24.4627 33.8719 24.4627H34.4212C34.4847 24.463 34.5456 24.4885 34.5905 24.5337C34.6354 24.5789 34.6607 24.6402 34.6609 24.7041V25.2566C34.661 25.2883 34.6548 25.3197 34.6428 25.349C34.6308 25.3783 34.6132 25.4049 34.5909 25.4273C34.5686 25.4497 34.5421 25.4675 34.513 25.4795C34.4839 25.4916 34.4527 25.4978 34.4212 25.4977ZM32.5167 25.4977H31.9676C31.904 25.4975 31.8432 25.472 31.7982 25.4269C31.7533 25.3817 31.7279 25.3205 31.7277 25.2566V24.7041C31.7277 24.5704 31.8358 24.4627 31.9676 24.4627H32.5167C32.6496 24.4627 32.7577 24.5715 32.7577 24.7041V25.2566C32.757 25.3205 32.7313 25.3816 32.6862 25.4267C32.6411 25.4718 32.5802 25.4973 32.5167 25.4977ZM127.754 89.8708H128.499C128.679 89.8708 128.825 90.0182 128.825 90.1979V90.9477C128.825 91.1291 128.678 91.275 128.499 91.275H127.754C127.668 91.2747 127.585 91.2402 127.524 91.1788C127.463 91.1175 127.429 91.0344 127.429 90.9477V90.1979C127.428 90.1549 127.437 90.1123 127.453 90.0726C127.469 90.0328 127.493 89.9967 127.524 89.9663C127.554 89.9359 127.59 89.9118 127.629 89.8954C127.669 89.879 127.711 89.8706 127.754 89.8708ZM130.338 89.8708H131.084C131.263 89.8708 131.409 90.0182 131.409 90.1979V90.9477C131.409 91.1291 131.263 91.275 131.084 91.275H130.338C130.252 91.2747 130.17 91.2402 130.109 91.1788C130.048 91.1175 130.013 91.0344 130.013 90.9477V90.1979C130.013 90.0182 130.16 89.8708 130.338 89.8708ZM132.924 89.8708H133.67C133.849 89.8708 133.995 90.0182 133.995 90.1979V90.9477C133.995 91.1291 133.849 91.275 133.67 91.275H132.924C132.746 91.275 132.599 91.1276 132.599 90.9477V90.1979C132.599 90.1549 132.607 90.1123 132.624 90.0726C132.64 90.0329 132.664 89.9968 132.694 89.9664C132.724 89.936 132.76 89.9119 132.8 89.8955C132.839 89.8791 132.882 89.8707 132.924 89.8708ZM135.509 89.8708H136.254C136.433 89.8708 136.58 90.0182 136.58 90.1979V90.9477C136.58 91.1291 136.433 91.275 136.254 91.275H135.509C135.423 91.275 135.34 91.2406 135.278 91.1793C135.217 91.1179 135.183 91.0347 135.182 90.9477V90.1979C135.183 90.1112 135.218 90.0283 135.279 89.9671C135.34 89.9059 135.423 89.8713 135.509 89.8708ZM138.094 89.8708H138.839C139.019 89.8708 139.166 90.0182 139.166 90.1979V90.9477C139.166 91.1291 139.019 91.275 138.839 91.275H138.094C138.007 91.2747 137.925 91.2402 137.864 91.1788C137.803 91.1175 137.769 91.0344 137.768 90.9477V90.1979C137.768 90.0182 137.915 89.8708 138.094 89.8708ZM130.433 92.7055H131.178C131.357 92.7055 131.504 92.853 131.504 93.0328V93.7841C131.504 93.9638 131.357 94.1114 131.178 94.1114H130.433C130.347 94.1114 130.264 94.0768 130.203 94.0155C130.142 93.9541 130.108 93.8709 130.108 93.7841V93.0343C130.107 92.9912 130.116 92.9484 130.132 92.9085C130.148 92.8686 130.172 92.8324 130.202 92.8018C130.233 92.7712 130.269 92.747 130.308 92.7305C130.348 92.714 130.39 92.7055 130.433 92.7055ZM133.018 92.7055H133.763C133.942 92.7055 134.088 92.853 134.088 93.0328V93.7841C134.088 93.9638 133.942 94.1114 133.763 94.1114H133.018C132.931 94.1111 132.849 94.0765 132.788 94.0152C132.727 93.9539 132.693 93.8708 132.692 93.7841V93.0343C132.692 92.9912 132.7 92.9484 132.716 92.9085C132.733 92.8686 132.757 92.8323 132.787 92.8018C132.817 92.7712 132.853 92.7469 132.893 92.7304C132.932 92.7139 132.975 92.7055 133.018 92.7055ZM135.602 92.7055H136.348C136.528 92.7055 136.674 92.853 136.674 93.0328V93.7841C136.674 93.9638 136.528 94.1114 136.348 94.1114H135.602C135.424 94.1114 135.277 93.9638 135.277 93.7841V93.0343C135.277 92.853 135.424 92.7055 135.602 92.7055ZM132.924 86.8253H133.67C133.849 86.8253 133.995 86.9727 133.995 87.1526V87.9024C133.995 88.0836 133.849 88.2296 133.67 88.2296H132.924C132.838 88.2293 132.756 88.1947 132.695 88.1334C132.634 88.0722 132.599 87.9891 132.599 87.9024V87.1526C132.599 87.1096 132.607 87.067 132.624 87.0273C132.64 86.9875 132.664 86.9514 132.694 86.921C132.724 86.8906 132.76 86.8664 132.8 86.85C132.839 86.8336 132.882 86.8252 132.924 86.8253ZM135.509 86.8253H136.254C136.433 86.8253 136.58 86.9727 136.58 87.1526V87.9024C136.58 88.0836 136.433 88.2296 136.254 88.2296H135.509C135.423 88.2296 135.34 88.1952 135.278 88.1339C135.217 88.0726 135.183 87.9894 135.182 87.9024V87.1526C135.183 87.0658 135.218 86.9829 135.279 86.9217C135.34 86.8604 135.423 86.8258 135.509 86.8253Z" fill="#AEBFFF"/>
    <path d="M118.097 97.0335H31.1244C28.5859 97.0335 26.5273 94.9629 26.5273 92.4094V37.5948C26.5273 35.0415 28.5859 32.9707 31.1244 32.9707H118.097C120.635 32.9707 122.694 35.0415 122.694 37.5948V92.4094C122.694 94.9629 120.635 97.0335 118.097 97.0335Z" fill="white" stroke="#AEBFFF" stroke-width="0.823634"/>
    <path d="M52.9871 92.625C51.9067 92.625 51.0308 91.744 51.0308 90.6572C51.0308 89.5705 51.9067 88.6895 52.9871 88.6895C54.0675 88.6895 54.9434 89.5705 54.9434 90.6572C54.9434 91.744 54.0675 92.625 52.9871 92.625Z" fill="#AEBFFF"/>
    <path d="M36.7973 85.6796L32.1849 90.3191C32.017 90.4881 32.017 90.7619 32.1849 90.9309C32.3529 91.0998 32.6252 91.0998 32.7931 90.9309L37.4055 86.2914C37.5735 86.1224 37.5735 85.8485 37.4055 85.6796C37.2376 85.5107 36.9653 85.5107 36.7973 85.6796Z" fill="#AEBFFF"/>
    <path d="M36.3462 89.0026L35.016 90.3406C34.8481 90.5095 34.8481 90.7834 35.016 90.9524C35.1839 91.1213 35.4562 91.1213 35.6242 90.9524L36.9544 89.6144C37.1223 89.4454 37.1223 89.1715 36.9544 89.0026C36.7864 88.8337 36.5141 88.8337 36.3462 89.0026Z" fill="#AEBFFF"/>
    <path d="M114.042 89.8777C113.303 90.3067 112.359 90.0521 111.932 89.3091C111.506 88.566 111.759 87.6159 112.497 87.1869C113.236 86.7579 114.181 87.0125 114.607 87.7556C115.034 88.4986 114.781 89.4487 114.042 89.8777Z" fill="#4A72FF"/>
    <path d="M35.3816 68.5959C36.4051 68.5959 37.2349 69.4305 37.2349 70.46C37.2349 71.4896 36.4051 72.3242 35.3816 72.3242C34.3581 72.3242 33.5283 71.4896 33.5283 70.46C33.5283 69.4305 34.3581 68.5959 35.3816 68.5959Z" fill="#4A72FF"/>
    <path d="M122.694 39.0127H26.5273V37.5948C26.5273 35.0415 28.5859 32.9707 31.1244 32.9707H118.097C120.635 32.9707 122.694 35.0415 122.694 37.5948V39.0127Z" fill="white" stroke="#AEBFFF" stroke-width="0.823634"/>
    <path d="M30.9539 36.9055C31.0766 36.9072 31.1986 36.8844 31.3125 36.8383C31.4265 36.7922 31.5302 36.7238 31.6176 36.6371C31.705 36.5504 31.7745 36.447 31.8219 36.3331C31.8693 36.2191 31.8937 36.0968 31.8937 35.9733C31.8937 35.8498 31.8693 35.7275 31.8219 35.6135C31.7745 35.4995 31.705 35.3962 31.6176 35.3095C31.5302 35.2227 31.4265 35.1543 31.3125 35.1083C31.1986 35.0622 31.0766 35.0394 30.9539 35.0411C30.7103 35.0445 30.4779 35.1443 30.3069 35.3187C30.1359 35.4932 30.04 35.7283 30.04 35.9733C30.04 36.2183 30.1359 36.4534 30.3069 36.6279C30.4779 36.8023 30.7103 36.902 30.9539 36.9055ZM34.6606 36.9055C34.9064 36.9055 35.1421 36.8073 35.3159 36.6324C35.4897 36.4576 35.5873 36.2205 35.5873 35.9733C35.5873 35.7261 35.4897 35.489 35.3159 35.3141C35.1421 35.1393 34.9064 35.0411 34.6606 35.0411C34.4148 35.0411 34.1791 35.1393 34.0053 35.3141C33.8315 35.489 33.7339 35.7261 33.7339 35.9733C33.7339 36.2205 33.8315 36.4576 34.0053 36.6324C34.1791 36.8073 34.4148 36.9055 34.6606 36.9055ZM38.4701 36.9055C39.0387 36.9055 39.4996 36.4881 39.4996 35.9734C39.4996 35.4585 39.0387 35.0413 38.4701 35.0413C37.9013 35.0413 37.4405 35.4585 37.4405 35.9734C37.4405 36.4881 37.9013 36.9055 38.4701 36.9055Z" fill="#AEBFFF"/>
    <path d="M138.689 81.0845H51.7164C49.1779 81.0845 47.1191 79.0136 47.1191 76.4602V21.6458C47.1191 19.0923 49.1779 17.0215 51.7164 17.0215H138.689C141.227 17.0215 143.286 19.0923 143.286 21.6458V76.4602C143.286 79.0136 141.227 81.0845 138.689 81.0845Z" fill="white" stroke="#AEBFFF" stroke-width="0.823634"/>
    <path fill-rule="evenodd" clip-rule="evenodd" d="M74.27 91.6856L68.8453 74.1861C68.2732 72.3401 70.1447 70.6859 71.8813 71.5037L88.0597 79.1306C89.977 80.034 89.6545 82.8827 87.5839 83.3241L80.9236 84.7473L78.4525 91.7642C77.741 93.7789 74.9038 93.7234 74.27 91.6856Z" fill="#4A72FF"/>
    <path d="M137.455 71.0025C136.152 70.2455 134.485 70.6947 133.732 72.0059C132.98 73.317 133.426 74.9935 134.73 75.7505C136.033 76.5074 137.7 76.0582 138.452 74.7471C139.205 73.436 138.758 71.7595 137.455 71.0025Z" fill="#AEBFFF"/>
    <path d="M58.957 68.9716C59.5107 69.2932 59.7004 70.0053 59.3807 70.5623C59.0611 71.1192 58.3531 71.31 57.7994 70.9885C57.2457 70.6669 57.056 69.9548 57.3757 69.3978C57.6953 68.8409 58.4033 68.6501 58.957 68.9716Z" fill="#AEBFFF"/>
    <path d="M128.467 62.6777H85.8911C85.0624 62.6777 84.3906 63.3534 84.3906 64.187C84.3906 65.0205 85.0624 65.6962 85.8911 65.6962H128.467C129.295 65.6962 129.967 65.0205 129.967 64.187C129.967 63.3534 129.295 62.6777 128.467 62.6777Z" fill="#AEBFFF"/>
    <path d="M128.467 54H85.8911C85.0624 54 84.3906 54.6757 84.3906 55.5093C84.3906 56.3428 85.0624 57.0185 85.8911 57.0185H128.467C129.295 57.0185 129.967 56.3428 129.967 55.5093C129.967 54.6757 129.295 54 128.467 54Z" fill="#AEBFFF"/>
    <path d="M37.5437 51.6113C36.4633 51.6113 35.5875 52.4923 35.5875 53.5791C35.5875 54.6659 36.4633 55.5469 37.5437 55.5469C38.6241 55.5469 39.5 54.6659 39.5 53.5791C39.5 52.4923 38.6241 51.6113 37.5437 51.6113Z" fill="#AEBFFF"/>
    <path d="M74.6647 46.8798C74.2431 46.8143 73.8173 46.7795 73.3907 46.7756C70.8186 46.7569 68.3679 47.8913 66.6864 49.8788C65.0046 51.8664 64.2616 54.5072 64.6532 57.103" stroke="#AEBFFF" stroke-width="2.06875" stroke-linecap="round" stroke-linejoin="round"/>
    <path d="M121.559 45.1914H85.9351C85.0821 45.1914 84.3906 45.8869 84.3906 46.7449C84.3906 47.6029 85.0821 48.2985 85.9351 48.2985H121.559C122.412 48.2985 123.104 47.6029 123.104 46.7449C123.104 45.8869 122.412 45.1914 121.559 45.1914Z" fill="#AEBFFF"/>
    <path d="M134.429 47.4148C133.69 47.8438 132.745 47.5892 132.319 46.8462C131.892 46.1032 132.145 45.153 132.884 44.724C133.623 44.295 134.567 44.5496 134.994 45.2927C135.42 46.0357 135.167 46.9858 134.429 47.4148Z" fill="#4A72FF"/>
    <path d="M62.2514 45.8511C62.9284 45.8511 63.4773 45.299 63.4773 44.6179C63.4773 43.9369 62.9284 43.3848 62.2514 43.3848C61.5743 43.3848 61.0254 43.9369 61.0254 44.6179C61.0254 45.299 61.5743 45.8511 62.2514 45.8511Z" fill="#AEBFFF" stroke="#AEBFFF" stroke-width="0.766209"/>
    <path d="M75.1238 47.4698C75.1238 48.7755 74.8682 50.0683 74.3714 51.2746C73.8747 52.4809 73.1467 53.5769 72.2288 54.5001C71.311 55.4234 70.2214 56.1557 69.0222 56.6554C67.8229 57.155 66.5376 57.4121 65.2396 57.4121V57.4121C62.6182 57.4121 60.1041 56.3646 58.2505 54.5C56.3969 52.6355 55.3555 50.1067 55.3555 47.4698C55.3554 44.8329 56.3966 42.304 58.2502 40.4393C60.104 38.5748 62.6181 37.5273 65.2396 37.5273C67.8611 37.5273 70.3753 38.5748 72.229 40.4393C74.0826 42.304 75.1239 44.8329 75.1238 47.4698V47.4698Z" stroke="#AEBFFF" stroke-width="2.06875" stroke-linecap="round" stroke-linejoin="round"/>
    <path d="M130.53 36.0781H85.8911C85.0624 36.0781 84.3906 36.7538 84.3906 37.5874C84.3906 38.4209 85.0624 39.0966 85.8911 39.0966H130.53C131.359 39.0966 132.03 38.4209 132.03 37.5874C132.03 36.7538 131.359 36.0781 130.53 36.0781Z" fill="#AEBFFF"/>
    <path d="M41.3263 29.7491L44.3146 26.7432C44.4235 26.6337 44.4235 26.4562 44.3147 26.3467C44.2059 26.2373 44.0294 26.2373 43.9206 26.3468L40.9323 29.3527C40.8234 29.4622 40.8234 29.6397 40.9322 29.7491C41.041 29.8586 41.2175 29.8585 41.3263 29.7491Z" fill="#AEBFFF"/>
    <path d="M41.6189 27.5963L42.4806 26.7295C42.5895 26.62 42.5895 26.4425 42.4807 26.3331C42.3719 26.2236 42.1954 26.2236 42.0866 26.3331L41.2248 27.1999C41.116 27.3094 41.116 27.4869 41.2248 27.5964C41.3336 27.7058 41.51 27.7058 41.6189 27.5963Z" fill="#AEBFFF"/>
    <path d="M143.286 23.0634H47.1191V21.6458C47.1191 19.0923 49.1779 17.0215 51.7164 17.0215H138.689C141.227 17.0215 143.286 19.0923 143.286 21.6458V23.0634Z" fill="white" stroke="#AEBFFF" stroke-width="0.823634"/>
    <path d="M51.5465 20.956C51.6692 20.9577 51.7911 20.9349 51.905 20.8888C52.019 20.8428 52.1226 20.7744 52.2101 20.6877C52.2975 20.6009 52.3669 20.4976 52.4143 20.3837C52.4617 20.2697 52.4861 20.1475 52.4861 20.024C52.4861 19.9005 52.4617 19.7782 52.4143 19.6643C52.3669 19.5503 52.2975 19.447 52.2101 19.3603C52.1226 19.2736 52.019 19.2052 51.905 19.1591C51.7911 19.1131 51.6692 19.0902 51.5465 19.092C51.303 19.0954 51.0706 19.1951 50.8996 19.3695C50.7287 19.5439 50.6328 19.779 50.6328 20.024C50.6328 20.2689 50.7287 20.504 50.8996 20.6784C51.0706 20.8528 51.303 20.9525 51.5465 20.956ZM55.253 20.956C55.3758 20.9577 55.4976 20.9349 55.6116 20.8888C55.7255 20.8428 55.8292 20.7744 55.9166 20.6877C56.004 20.6009 56.0734 20.4976 56.1208 20.3837C56.1682 20.2697 56.1926 20.1475 56.1926 20.024C56.1926 19.9005 56.1682 19.7782 56.1208 19.6643C56.0734 19.5503 56.004 19.447 55.9166 19.3603C55.8292 19.2736 55.7255 19.2052 55.6116 19.1591C55.4976 19.1131 55.3758 19.0902 55.253 19.092C55.0095 19.0954 54.7771 19.1951 54.6062 19.3695C54.4352 19.5439 54.3393 19.779 54.3393 20.024C54.3393 20.2689 54.4352 20.504 54.6062 20.6784C54.7771 20.8528 55.0095 20.9525 55.253 20.956ZM59.0625 20.956C59.6311 20.956 60.0922 20.5388 60.0922 20.0239C60.0922 19.5092 59.6311 19.0918 59.0625 19.0918C58.4939 19.0918 58.0329 19.5092 58.0329 20.0239C58.0329 20.5388 58.4939 20.956 59.0625 20.956Z" fill="#AEBFFF"/>
  </g>
  <defs>
    <clipPath id="clip0_13968_124222">
      <rect width="170" height="114" fill="white"/>
    </clipPath>
  </defs>
</svg>
