<svg width="170" height="113" viewBox="0 0 170 113" fill="none" xmlns="http://www.w3.org/2000/svg">
  <g clip-path="url(#clip0_14040_18551)">
    <path fill-rule="evenodd" clip-rule="evenodd" d="M90.9645 50.6783L70.5645 82.4731H114.412L94.0118 50.6783C93.3346 49.6229 91.6416 49.6229 90.9645 50.6783Z" fill="white" stroke="#C8D2F3" stroke-width="0.755556"/>
    <path fill-rule="evenodd" clip-rule="evenodd" d="M86.8306 57.1279L91.5105 49.8339C91.945 49.1569 93.0311 49.1569 93.4657 49.8339L99.2144 58.7941C99.4017 59.086 99.4567 59.4316 99.3681 59.7591L99.3619 59.7817C99.162 60.5199 98.1292 60.7606 97.5559 60.2026L95.7126 58.4078C95.2196 57.9277 94.3614 57.9739 93.9355 58.5033L93.9211 58.521C93.614 58.9029 92.9999 58.9468 92.6293 58.6134L92.6152 58.6006C92.2491 58.2712 91.6407 58.3208 91.3464 58.704L90.3749 59.9693C89.9781 60.4864 89.0871 60.3309 88.9335 59.7176L88.4496 57.7859C88.3606 57.4305 87.8795 57.293 87.5788 57.5369L87.4908 57.6085C87.1272 57.9036 86.5858 57.5094 86.8306 57.1279ZM71.5391 49.6574L92.3668 82.1826H47.6001L68.4277 49.6574C69.1193 48.5777 70.8476 48.5777 71.5391 49.6574Z" fill="white" stroke="#C8D2F3" stroke-width="0.755556"/>
    <path fill-rule="evenodd" clip-rule="evenodd" d="M83.4844 56.401L98.5998 79.922H66.1109L81.2264 56.401C81.7283 55.6202 82.9825 55.6202 83.4844 56.401ZM75.8689 56.2398L70.9735 48.624C70.5191 47.917 69.3829 47.917 68.9284 48.624L62.9149 57.9795C62.7191 58.2842 62.6615 58.645 62.7542 58.987L62.7606 59.0106C62.9699 59.7814 64.0502 60.0327 64.6497 59.4502L66.5781 57.5761C67.0937 57.0749 67.9913 57.1231 68.4369 57.6759L68.4518 57.6943C68.7733 58.093 69.4156 58.139 69.8032 57.7908L69.8181 57.7774C70.201 57.4335 70.8375 57.4853 71.1452 57.8855L72.1612 59.2065C72.5766 59.7464 73.5086 59.5841 73.6691 58.9439L74.1754 56.9269C74.2683 56.5558 74.7717 56.4122 75.0862 56.6668L75.1784 56.7415C75.5586 57.0497 76.1249 56.6382 75.8689 56.2398Z" fill="white" stroke="#C8D2F3" stroke-width="0.755556"/>
    <path fill-rule="evenodd" clip-rule="evenodd" d="M86.4672 60.9569L83.1102 55.7979C82.7986 55.3188 82.0196 55.3188 81.7079 55.7979L77.5845 62.1353C77.45 62.3418 77.4105 62.5864 77.4742 62.818L77.4787 62.8341C77.6221 63.3561 78.3629 63.5264 78.7739 63.1318L80.0963 61.8623C80.4499 61.5227 81.0653 61.5553 81.3709 61.9297L81.3811 61.9423C81.6016 62.2124 82.0421 62.2434 82.3078 62.0076L82.318 61.9986C82.5806 61.7656 83.0169 61.8007 83.2281 62.0717L83.9247 62.9666C84.2096 63.3324 84.8486 63.2224 84.9587 62.7887L85.3057 61.4223C85.3695 61.1711 85.7148 61.0737 85.9303 61.2462L85.9936 61.2969C86.2545 61.5056 86.6426 61.2268 86.4672 60.9569ZM96.7304 52.874L77.4268 82.9603H118.918L99.614 52.874C98.9731 51.8753 97.3712 51.8753 96.7304 52.874Z" fill="white" stroke="#C8D2F3" stroke-width="0.755556"/>
    <path fill-rule="evenodd" clip-rule="evenodd" d="M66.3624 63.8437L78.5778 83.6895H52.3223L64.5377 63.8437C64.9433 63.1849 65.9568 63.1849 66.3624 63.8437Z" fill="white" stroke="#C8D2F3" stroke-width="0.755556"/>
    <path fill-rule="evenodd" clip-rule="evenodd" d="M81.0524 66.7842L91.4222 83.69H69.1333L79.5031 66.7842C79.8475 66.223 80.708 66.223 81.0524 66.7842Z" fill="white" stroke="#C8D2F3" stroke-width="0.755556"/>
    <path fill-rule="evenodd" clip-rule="evenodd" d="M20.5889 93.6381C20.5889 93.6381 33.7735 80.6723 52.299 80.4902C70.9085 80.3073 85.714 93.1942 87.0778 93.86L20.5889 93.6381Z" fill="white" stroke="#C8D2F3" stroke-width="0.755556"/>
    <path d="M47.7891 93.2952V92.3535" stroke="#C8D2F3" stroke-width="0.755556"/>
    <path d="M32.2998 93.2952V92.3535" stroke="#C8D2F3" stroke-width="0.755556"/>
    <path d="M42.5 93.2938V91.7871" stroke="#C8D2F3" stroke-width="0.755556"/>
    <path d="M40.2334 93.2943V91.2227" stroke="#C8D2F3" stroke-width="0.755556"/>
    <path fill-rule="evenodd" clip-rule="evenodd" d="M50.6221 93.7534C50.6221 93.7534 68.2639 76.5874 93.0524 76.3463C117.953 76.1041 137.764 93.1656 139.589 94.047L50.6221 93.7534Z" fill="white" stroke="#C8D2F3" stroke-width="0.755556"/>
    <path d="M88.9668 93.2952V92.3535" stroke="#C8D2F3" stroke-width="0.755556"/>
    <path d="M83.6777 93.2938V91.7871" stroke="#C8D2F3" stroke-width="0.755556"/>
    <path d="M81.4111 93.2943V91.2227" stroke="#C8D2F3" stroke-width="0.755556"/>
    <path fill-rule="evenodd" clip-rule="evenodd" d="M90.667 93.8541C90.667 93.8541 102.353 82.5317 118.774 82.3728C135.268 82.2131 148.391 93.4664 149.6 94.0477L90.667 93.8541Z" fill="white" stroke="#C8D2F3" stroke-width="0.755556"/>
    <path fill-rule="evenodd" clip-rule="evenodd" d="M132.978 85.127C131.465 88.1194 128.552 88.7851 125.515 89.0667C122.595 89.3373 119.688 89.2584 116.755 89.2253C112.382 89.1756 108.292 90.7502 105.211 93.9786" fill="white"/>
    <path d="M132.978 85.127C131.465 88.1194 128.552 88.7851 125.515 89.0667C122.595 89.3373 119.688 89.2584 116.755 89.2253C112.382 89.1756 108.292 90.7502 105.211 93.9786" stroke="#C8D2F3" stroke-width="0.755556"/>
    <path d="M153.283 93.6016H16.5279C16.2671 93.6016 16.0557 93.8124 16.0557 94.0724C16.0557 94.3324 16.2671 94.5432 16.5279 94.5432H153.283C153.544 94.5432 153.756 94.3324 153.756 94.0724C153.756 93.8124 153.544 93.6016 153.283 93.6016Z" fill="#C8D2F3"/>
    <path d="M124.855 93.2952V92.3535" stroke="#C8D2F3" stroke-width="0.755556"/>
    <path d="M57.7998 93.2952V92.3535" stroke="#C8D2F3" stroke-width="0.755556"/>
    <path d="M119.567 93.2938V91.7871" stroke="#C8D2F3" stroke-width="0.755556"/>
    <path d="M115.033 93.2938V91.7871" stroke="#C8D2F3" stroke-width="0.755556"/>
    <path d="M79.1445 93.2938V91.7871" stroke="#C8D2F3" stroke-width="0.755556"/>
    <path d="M67.6221 93.2938V91.7871" stroke="#C8D2F3" stroke-width="0.755556"/>
    <path d="M63.0889 93.2938V91.7871" stroke="#C8D2F3" stroke-width="0.755556"/>
    <path d="M37.9668 93.2938V91.7871" stroke="#C8D2F3" stroke-width="0.755556"/>
    <path d="M117.3 93.2943V91.2227" stroke="#C8D2F3" stroke-width="0.755556"/>
    <path d="M65.3555 93.2943V91.2227" stroke="#C8D2F3" stroke-width="0.755556"/>
    <path fill-rule="evenodd" clip-rule="evenodd" d="M81.5068 80.8809H81.5102C81.6016 80.8809 81.6756 80.9547 81.6756 81.0458V88.4863H81.3413V81.0458C81.3413 80.9547 81.4153 80.8809 81.5068 80.8809Z" fill="white" stroke="#C8D2F3" stroke-width="0.755556"/>
    <path fill-rule="evenodd" clip-rule="evenodd" d="M78.5776 84.3648C78.5776 85.9856 79.8955 87.2998 81.5213 87.2998C83.1471 87.2998 84.4649 85.9856 84.4649 84.3648C84.4649 82.7438 83.1471 79.5469 81.5213 79.5469C79.8955 79.5469 78.5776 82.7438 78.5776 84.3648Z" fill="white"/>
    <path d="M78.5776 84.3648C78.5776 85.9856 79.8955 87.2998 81.5213 87.2998C83.1471 87.2998 84.4649 85.9856 84.4649 84.3648C84.4649 82.7438 83.1471 79.5469 81.5213 79.5469C79.8955 79.5469 78.5776 82.7438 78.5776 84.3648Z" stroke="#C8D2F3" stroke-width="0.755556"/>
    <path fill-rule="evenodd" clip-rule="evenodd" d="M28.7767 78.7305H28.7816C28.9193 78.7305 29.0307 78.8416 29.0307 78.9789V90.1815H28.5273V78.9789C28.5274 78.913 28.5537 78.8498 28.6004 78.8032C28.6472 78.7566 28.7106 78.7305 28.7767 78.7305Z" fill="white" stroke="#C8D2F3" stroke-width="0.755556"/>
    <path fill-rule="evenodd" clip-rule="evenodd" d="M121.929 78.6211H121.933C122.024 78.6211 122.098 78.6949 122.098 78.7861V86.2266H121.764V78.7861C121.764 78.6949 121.838 78.6211 121.929 78.6211Z" fill="white" stroke="#C8D2F3" stroke-width="0.755556"/>
    <path fill-rule="evenodd" clip-rule="evenodd" d="M68.0956 78.4316H68.099C68.1905 78.4316 68.2645 78.5055 68.2645 78.5966V86.0371H67.9302V78.5966C67.9302 78.5055 68.0042 78.4316 68.0956 78.4316Z" fill="white" stroke="#C8D2F3" stroke-width="0.755556"/>
    <path fill-rule="evenodd" clip-rule="evenodd" d="M119 82.1031C119 83.7239 120.318 85.0381 121.944 85.0381C123.569 85.0381 124.887 83.7239 124.887 82.1031C124.887 80.4821 123.569 77.2852 121.944 77.2852C120.318 77.2852 119 80.4821 119 82.1031Z" fill="white"/>
    <path d="M119 82.1031C119 83.7239 120.318 85.0381 121.944 85.0381C123.569 85.0381 124.887 83.7239 124.887 82.1031C124.887 80.4821 123.569 77.2852 121.944 77.2852C120.318 77.2852 119 80.4821 119 82.1031Z" stroke="#C8D2F3" stroke-width="0.755556"/>
    <path fill-rule="evenodd" clip-rule="evenodd" d="M65.167 81.9156C65.167 83.5364 66.4849 84.8506 68.1106 84.8506C69.7364 84.8506 71.0543 83.5364 71.0543 81.9156C71.0543 80.2946 69.7364 77.0977 68.1106 77.0977C66.4849 77.0977 65.167 80.2946 65.167 81.9156Z" fill="white"/>
    <path d="M65.167 81.9156C65.167 83.5364 66.4849 84.8506 68.1106 84.8506C69.7364 84.8506 71.0543 83.5364 71.0543 81.9156C71.0543 80.2946 69.7364 77.0977 68.1106 77.0977C66.4849 77.0977 65.167 80.2946 65.167 81.9156Z" stroke="#C8D2F3" stroke-width="0.755556"/>
    <path fill-rule="evenodd" clip-rule="evenodd" d="M24.3667 83.9745C24.3667 86.415 26.351 88.3934 28.7986 88.3934C31.2464 88.3934 33.2307 86.415 33.2307 83.9745C33.2307 81.5339 31.2464 76.7207 28.7986 76.7207C26.351 76.7207 24.3667 81.5339 24.3667 83.9745Z" fill="white"/>
    <path d="M24.3667 83.9745C24.3667 86.415 26.351 88.3934 28.7986 88.3934C31.2464 88.3934 33.2307 86.415 33.2307 83.9745C33.2307 81.5339 31.2464 76.7207 28.7986 76.7207C26.351 76.7207 24.3667 81.5339 24.3667 83.9745Z" stroke="#C8D2F3" stroke-width="0.755556"/>
    <path fill-rule="evenodd" clip-rule="evenodd" d="M137.042 74.1602H137.049C137.234 74.1602 137.385 74.3103 137.385 74.4954V89.6167H136.706V74.4954C136.706 74.3103 136.856 74.1602 137.042 74.1602Z" fill="white" stroke="#C8D2F3" stroke-width="0.755556"/>
    <path fill-rule="evenodd" clip-rule="evenodd" d="M91.1401 72.0293H91.1435C91.2349 72.0293 91.3089 72.1031 91.3089 72.1943V79.6348H90.9746V72.1943C90.9746 72.1031 91.0486 72.0293 91.1401 72.0293Z" fill="white" stroke="#C8D2F3" stroke-width="0.755556"/>
    <path fill-rule="evenodd" clip-rule="evenodd" d="M44.6753 71.8984H44.6821C44.8678 71.8984 45.0183 72.0485 45.0183 72.2337V87.355H44.3389V72.2337C44.3389 72.0485 44.4894 71.8984 44.6753 71.8984Z" fill="white" stroke="#C8D2F3" stroke-width="0.755556"/>
    <path fill-rule="evenodd" clip-rule="evenodd" d="M103.01 71.5742H103.015C103.153 71.5742 103.264 71.6853 103.264 71.8226V83.0253H102.761V71.8226C102.761 71.7567 102.787 71.6935 102.834 71.647C102.881 71.6004 102.944 71.5742 103.01 71.5742Z" fill="white" stroke="#C8D2F3" stroke-width="0.755556"/>
    <path fill-rule="evenodd" clip-rule="evenodd" d="M131.089 81.2385C131.089 84.5327 133.767 87.2032 137.071 87.2032C140.375 87.2032 143.053 84.5327 143.053 81.2385C143.053 77.9442 140.375 71.4473 137.071 71.4473C133.767 71.4473 131.089 77.9442 131.089 81.2385Z" fill="white"/>
    <path d="M131.089 81.2385C131.089 84.5327 133.767 87.2032 137.071 87.2032C140.375 87.2032 143.053 84.5327 143.053 81.2385C143.053 77.9442 140.375 71.4473 137.071 71.4473C133.767 71.4473 131.089 77.9442 131.089 81.2385Z" stroke="#C8D2F3" stroke-width="0.755556"/>
    <path fill-rule="evenodd" clip-rule="evenodd" d="M88.2109 75.5133C88.2109 77.1341 89.5288 78.4482 91.1546 78.4482C92.7804 78.4482 94.0982 77.1341 94.0982 75.5133C94.0982 73.8923 92.7804 70.6953 91.1546 70.6953C89.5288 70.6953 88.2109 73.8923 88.2109 75.5133Z" fill="white"/>
    <path d="M88.2109 75.5133C88.2109 77.1341 89.5288 78.4482 91.1546 78.4482C92.7804 78.4482 94.0982 77.1341 94.0982 75.5133C94.0982 73.8923 92.7804 70.6953 91.1546 70.6953C89.5288 70.6953 88.2109 73.8923 88.2109 75.5133Z" stroke="#C8D2F3" stroke-width="0.755556"/>
    <path fill-rule="evenodd" clip-rule="evenodd" d="M98.6001 76.8183C98.6001 79.2587 100.584 81.2372 103.032 81.2372C105.48 81.2372 107.464 79.2587 107.464 76.8183C107.464 74.3777 105.48 69.5645 103.032 69.5645C100.584 69.5645 98.6001 74.3777 98.6001 76.8183Z" fill="white"/>
    <path d="M98.6001 76.8183C98.6001 79.2587 100.584 81.2372 103.032 81.2372C105.48 81.2372 107.464 79.2587 107.464 76.8183C107.464 74.3777 105.48 69.5645 103.032 69.5645C100.584 69.5645 98.6001 74.3777 98.6001 76.8183Z" stroke="#C8D2F3" stroke-width="0.755556"/>
    <path fill-rule="evenodd" clip-rule="evenodd" d="M38.7222 78.9788C38.7222 82.2729 41.4004 84.9435 44.7045 84.9435C48.0085 84.9435 50.6868 82.2729 50.6868 78.9788C50.6868 75.6844 48.0085 69.1875 44.7045 69.1875C41.4004 69.1875 38.7222 75.6844 38.7222 78.9788Z" fill="white"/>
    <path d="M38.7222 78.9788C38.7222 82.2729 41.4004 84.9435 44.7045 84.9435C48.0085 84.9435 50.6868 82.2729 50.6868 78.9788C50.6868 75.6844 48.0085 69.1875 44.7045 69.1875C41.4004 69.1875 38.7222 75.6844 38.7222 78.9788Z" stroke="#C8D2F3" stroke-width="0.755556"/>
    <path fill-rule="evenodd" clip-rule="evenodd" d="M92.7448 28.6024C92.7448 33.8551 88.4744 38.1135 83.2059 38.1135C77.9378 38.1135 73.667 33.8551 73.667 28.6024C73.667 23.35 77.9378 19.0918 83.2059 19.0918C88.4744 19.0918 92.7448 23.35 92.7448 28.6024Z" fill="#4A72FF"/>
    <path fill-rule="evenodd" clip-rule="evenodd" d="M137.157 45.517C139.719 45.517 138.52 41.4657 135.274 42.4334C135.094 36.8084 125.899 32.6928 122.096 40.2796C121.021 39.4314 118.607 41.0335 119.142 42.4334C117.948 42.5349 117.008 42.6726 116.277 42.8551C114.59 43.2762 114.924 45.4979 116.663 45.4823L137.157 45.517ZM88.8821 45.517C86.4593 45.517 87.593 41.6863 90.6624 42.6012C90.8324 37.2823 99.5279 33.3904 103.124 40.5646C104.14 39.7624 106.423 41.2774 105.917 42.6012C107.047 42.6972 107.935 42.8276 108.626 42.9999C110.222 43.3982 109.906 45.4991 108.261 45.4844L88.8821 45.517ZM68.6663 29.2777C70.4781 29.2777 69.6304 26.4134 67.3352 27.0976C67.2081 23.1202 60.706 20.2102 58.0175 25.5745C57.2572 24.9749 55.5502 26.1077 55.9284 27.0976C55.0839 27.1693 54.4197 27.2667 53.9027 27.3957C52.7095 27.6935 52.9456 29.2644 54.1757 29.2534L68.6663 29.2777ZM107.696 38.8662H118.551C119.521 38.8662 119.939 37.6107 119.145 37.0538L119.111 37.0301C117.98 36.2536 116.497 36.3242 116.497 36.3242C116.497 36.3242 116.285 32.1227 112.292 32.1227C108.682 32.1227 107.243 35.6628 106.724 37.6132C106.555 38.2467 107.04 38.8662 107.696 38.8662ZM37.1234 36.6011H46.8742C47.7459 36.6011 48.1216 35.4671 47.4082 34.9641L47.378 34.9428C46.3623 34.2415 45.0291 34.3051 45.0291 34.3051C45.0291 34.3051 44.8389 30.5102 41.2523 30.5102C38.0096 30.5102 36.7165 33.7077 36.2501 35.4692C36.0985 36.0415 36.534 36.6011 37.1234 36.6011ZM39.4958 45.4782H26.4153C25.3562 45.4782 24.8994 44.1416 25.7664 43.5485C25.7785 43.5402 25.7908 43.5317 25.8031 43.5237C27.0373 42.6969 28.6568 42.7718 28.6568 42.7718C28.6568 42.7718 28.8882 38.2995 33.2459 38.2995C35.4003 38.2995 37.1415 41.8887 37.1415 41.8887C37.1415 41.8887 40.0723 41.8887 40.5574 44.144C40.7039 44.8271 40.2123 45.4782 39.4958 45.4782ZM46.8532 45.9145H75.853C78.575 45.9145 78.4502 43.6681 77.5611 42.8854C76.6497 42.0831 74.8488 42.4085 74.8488 42.4085C74.8488 42.4085 74.3128 40.8975 72.5482 40.1619C70.9872 39.5112 69.352 39.8208 69.352 39.8208C69.352 39.8208 69.352 38.7837 68.3526 37.9249C67.3531 37.0659 66.0205 37.1495 66.0205 37.1495C66.0205 37.1495 65.1044 31.4311 58.9829 31.4311C52.8614 31.4311 52.1534 36.8154 52.1534 36.8154C52.1534 36.8154 50.7793 36.8154 49.7797 37.7339C48.7803 38.652 48.6554 39.6954 48.6554 39.6954C48.6554 39.6954 45.3128 39.2442 44.3244 42.1339C43.7352 43.8564 44.9456 45.9145 46.8532 45.9145ZM119.185 29.6753H97.8532C95.8508 29.6753 95.9426 28.0229 96.5967 27.4471C97.2671 26.8569 98.5918 27.0963 98.5918 27.0963C98.5918 27.0963 98.9862 25.9847 100.284 25.4437C101.432 24.9651 102.635 25.1928 102.635 25.1928C102.635 25.1928 102.635 24.43 103.37 23.7982C104.106 23.1663 105.086 23.2279 105.086 23.2279C105.086 23.2279 105.76 19.0215 110.263 19.0215C114.766 19.0215 115.286 22.9821 115.286 22.9821C115.286 22.9821 116.297 22.9821 117.032 23.6577C117.768 24.333 117.859 25.1007 117.859 25.1007C117.859 25.1007 120.318 24.7685 121.045 26.8944C121.479 28.1613 120.588 29.6753 119.185 29.6753Z" fill="white" stroke="#C8D2F3" stroke-width="0.755556"/>
  </g>
  <defs>
    <clipPath id="clip0_14040_18551">
      <rect width="170" height="113" fill="white"/>
    </clipPath>
  </defs>
</svg>
