<svg width="30" height="30" viewBox="0 0 30 30" fill="none" xmlns="http://www.w3.org/2000/svg">
<rect width="30" height="30" rx="8" fill="#156FF7" fill-opacity="0.1"/>
<path d="M18.0938 8.625C20.375 10.7188 22 14.1562 22 15.8125C22 19.7812 18.8438 23 15 23C11.125 23 8 19.7812 8 15.8125C8 13.5625 10.1562 9.875 13.25 7C14.4375 8.125 15.5 9.3125 16.3438 10.5C16.875 9.84375 17.4375 9.21875 18.0938 8.625ZM15 21.5C18.0312 21.5 20.5 18.9688 20.5 15.8125C20.5 14.8438 19.5 12.5625 18.0625 10.7812C17.875 11 17.6875 11.2188 17.5 11.4375L16.2812 12.9375L15.125 11.375C14.5938 10.625 13.9375 9.84375 13.25 9.125C10.875 11.6562 9.5 14.4062 9.5 15.8125C9.5 18.9688 11.9688 21.5 15 21.5ZM17.7812 14.625C17.9062 14.8125 18 14.9688 18.0938 15.1562C18.8438 16.5938 18.5312 18.4062 17.1875 19.3438C16.5938 19.7812 15.8438 20 15.0625 20C13.0938 20 11.5 18.7188 11.5 16.5938C11.5 15.5312 12.1562 14.5938 13.4688 13C13.6562 13.2188 16.1875 16.4375 16.1875 16.4375L17.7812 14.625Z" fill="#156FF7"/>
</svg>
