<?xml version="1.0" encoding="UTF-8"?>
<svg id="Layer_1" xmlns="http://www.w3.org/2000/svg" version="1.1" viewBox="0 0 347 341">
  <!-- Generator: Adobe Illustrator 29.0.1, SVG Export Plug-In . SVG Version: 2.1.0 Build 192)  -->
  <defs>
    <style>
      .st0 {
        fill: #cbd5e1;
      }
    </style>
  </defs>
  <path class="st0" d="M163.6,340.9c-.5,0-1-.1-1.4-.4l-68.4-39.2c-1.9-1.1-2.9-2.9-2.9-5v-78.5c0-1.1.5-2.1,1.4-2.6.9-.5,1.9-.4,2.8.2l68.4,39.2c1.9,1.1,2.9,2.9,2.9,5v78.5c0,1-.5,1.9-1.4,2.4-.5.3-1,.4-1.4.4ZM93.6,215.3c-.3,0-.7,0-1,.3-.7.4-1.2,1.2-1.2,2.1v78.5c0,2,1,3.6,2.7,4.6l68.4,39.2c.7.4,1.6.4,2.4,0,.7-.4,1.1-1.1,1.1-1.9v-78.5c0-2-1-3.6-2.7-4.6l-68.4-39.2c-.4-.3-.9-.5-1.3-.5Z"/>
  <path class="st0" d="M72.7,288.2c-.5,0-1-.2-1.4-.5L2.8,249C1,247.9,0,246.1,0,244V61.3c0-1,.6-1.9,1.5-2.5.9-.5,2-.5,2.7,0l159.3,90.7c2.1,1.8,3.2,3.7,3.2,5.6l-.3,79.6c0,.8-.4,1.5-1.1,1.8-.6.3-1.4.3-2.1,0l-83.5-47.7c-.9-.5-2-.5-2.9,0-.9.5-1.4,1.4-1.4,2.4v94.1c0,1-.6,1.9-1.5,2.5-.4.3-.9.4-1.4.4ZM3.2,248.6l68.4,38.7c.6.5,1.4.5,2.2,0,.8-.4,1.3-1.3,1.3-2.1v-94.1c0-1.2.6-2.2,1.6-2.8,1.1-.6,2.3-.6,3.4,0l83.5,47.7c.5.2,1.2.2,1.6,0,.4-.2.8-.6.8-1.4h0s.3-79.6.3-79.6c0-1.7-1-3.5-3-5.2L3.9,59.3c-.6-.5-1.4-.5-2.2,0-.8.4-1.3,1.3-1.3,2.1v182.7c0,1.9.9,3.6,2.6,4.6h.1Z"/>
  <path class="st0" d="M184.6,341c-.5,0-.9-.1-1.3-.4-.9-.5-1.4-1.5-1.4-2.5v-78.2c0-2.1,1.1-4,2.9-5l84.6-48.5c1.9-1.1,2.9-2.9,2.9-5l-.3-97.3c.3-2.3,1.4-4,3.2-5.1l67.6-38.5c.9-.5,1.9-.5,2.8,0,.9.5,1.5,1.5,1.5,2.6v182.2c0,2.1-1.1,4-2.9,5l-158,90.2c-.5.3-1,.5-1.5.5ZM344.1,60.6c-.4,0-.8.1-1.1.3h0s-67.6,38.5-67.6,38.5c-1.6.9-2.7,2.6-2.9,4.7l.3,97.3c0,2.3-1.2,4.3-3.2,5.5l-84.6,48.5c-1.7,1-2.7,2.6-2.7,4.6v78.2c0,.8.5,1.6,1.2,2.1.7.4,1.6.4,2.3,0l158-90.2c1.7-1,2.7-2.6,2.7-4.6V63.1c0-.9-.5-1.8-1.2-2.2-.4-.2-.8-.3-1.2-.3Z"/>
  <path class="st0" d="M184.6,236.5c-.5,0-.9-.1-1.3-.4-.9-.5-1.4-1.5-1.4-2.5v-78.2c0-2.2,1.1-4,2.9-4.8l67.6-38.5c.9-.6,1.9-.6,2.8,0,.9.5,1.4,1.5,1.4,2.5v79.6c0,.5-.1,1.1-.4,1.5-.2.5-.6.8-1,.9l-69.2,39.5c-.4.3-.9.5-1.5.5ZM253.8,112.2c-.4,0-.8.1-1.2.4l-67.6,38.5c-1.7.7-2.7,2.4-2.7,4.3v78.2c0,.8.5,1.6,1.2,2.1.7.4,1.6.4,2.3,0l.2.2v-.2c-.1,0,69.1-39.5,69.1-39.5.3,0,.5-.3.7-.7.2-.4.3-.8.3-1.3v-79.6c0-.8-.5-1.6-1.2-2.1-.4-.2-.7-.3-1.1-.3Z"/>
  <path class="st0" d="M265.4,84.6c-1,0-2-.3-2.9-.8l-68.7-39.2c-.9-.5-1.4-1.4-1.4-2.5s.5-2,1.4-2.5L261.9.8c1.9-1.1,4-1.1,5.8,0l68.7,39.2c.9.5,1.4,1.4,1.4,2.5s-.5,2-1.4,2.5l-68.1,38.7c-.9.5-1.9.8-2.9.8ZM264.8.5c-.9,0-1.8.2-2.7.7h0s-68.1,38.7-68.1,38.7c-.7.4-1.1,1.2-1.1,2.1s.4,1.7,1.1,2.1l68.7,39.2c1.7,1,3.6,1,5.3,0l68.1-38.7c.7-.4,1.1-1.2,1.1-2.1s-.4-1.7-1.1-2.1L267.5,1.2c-.8-.5-1.8-.7-2.7-.7Z"/>
  <path class="st0" d="M245.7,91.5h0s0,0,0,0h-.2c0,0-.2-.2-.2-.2h0S86.4.8,86.4.8c-2.1-.8-4.2-.8-6.1,0L13,39.5c-.7.5-1.2,1.4-1.2,2.5s.4,2,1.2,2.5l159.3,90.7c.9.5,1.9.8,2.9.8s2-.3,2.9-.8l67.2-38.5h0s.4-.2.4-.2c.9-.5,1.4-1.4,1.4-2.5s-.5-2-1.4-2.5ZM245.9,95.8l-.5.3-67.5,38.6c-1.7,1-3.6,1-5.3,0L13.3,44.1c-.6-.4-1-1.2-1-2.1s.4-1.7.9-2.1L80.5,1.3c1.7-.7,3.7-.7,5.7,0l159.2,90.6.5.3c.5.4.8,1.1.8,1.8s-.3,1.4-.8,1.8Z"/>
</svg>