<svg width="17" height="17" viewBox="0 0 17 17" fill="none" xmlns="http://www.w3.org/2000/svg">
<path d="M5 13.3203C4.10156 13.3203 3.35938 14.0625 3.35938 15C3.35938 15.8984 4.10156 16.6406 5 16.6406C5.9375 16.6406 6.67969 15.8984 6.67969 15C6.67969 14.0625 5.9375 13.3203 5 13.3203ZM0 0.820312C0 1.28906 0.390625 1.64062 0.859375 1.64062H1.67969L4.6875 7.96875L3.55469 10C2.92969 11.1328 3.75 12.5 5 12.5H14.1797C14.6484 12.5 15 12.1094 15 11.6406C15 11.2109 14.6484 10.8203 14.1797 10.8203H5L5.9375 9.14062H12.1484C12.7734 9.14062 13.3203 8.82812 13.5938 8.28125L16.5625 2.89062C16.875 2.34375 16.4844 1.64062 15.8594 1.64062H3.51562L2.96875 0.46875C2.8125 0.15625 2.53906 0 2.22656 0H0.859375C0.390625 0 0 0.351562 0 0.820312ZM13.3594 13.3203C12.4219 13.3203 11.6797 14.0625 11.6797 15C11.6797 15.8984 12.4219 16.6406 13.3594 16.6406C14.2578 16.6406 15 15.8984 15 15C15 14.0625 14.2578 13.3203 13.3594 13.3203Z" fill="#F59E0B"/>
</svg>
