<svg width="152" height="152" viewBox="0 0 152 152" fill="none" xmlns="http://www.w3.org/2000/svg">
<rect x="1" y="1" width="149.542" height="149.542" rx="13" fill="url(#paint0_linear_11425_36074)" fill-opacity="0.1" stroke="url(#paint1_linear_11425_36074)" stroke-width="2"/>
<path d="M44.8865 90.45C46.142 91.7056 47.6521 92.3333 49.4167 92.3333H100.75C102.517 92.3355 104.028 91.7077 105.283 90.45C106.539 89.1924 107.167 87.6813 107.167 85.9167V47.4167C107.169 45.6542 106.541 44.1442 105.283 42.8865C104.026 41.6288 102.515 41 100.75 41H49.4167C47.6542 41.0021 46.1442 41.631 44.8865 42.8865C43.6288 44.142 43 45.6521 43 47.4167V85.9167C43.0021 87.6834 43.631 89.1945 44.8865 90.45Z" fill="url(#paint2_linear_11425_36074)"/>
<path d="M81.6667 58.6C81.6667 60.0852 81.0696 61.5096 80.0069 62.5598C78.9442 63.61 77.5029 64.2 76 64.2C74.4971 64.2 73.0558 63.61 71.9931 62.5598C70.9304 61.5096 70.3333 60.0852 70.3333 58.6C70.3333 57.1148 70.9304 55.6904 71.9931 54.6402C73.0558 53.59 74.4971 53 76 53C77.5029 53 78.9442 53.59 80.0069 54.6402C81.0696 55.6904 81.6667 57.1148 81.6667 58.6ZM91.1111 62.3333C91.1111 63.3235 90.7131 64.2731 90.0046 64.9732C89.2962 65.6733 88.3353 66.0667 87.3333 66.0667C86.3314 66.0667 85.3705 65.6733 84.662 64.9732C83.9536 64.2731 83.5556 63.3235 83.5556 62.3333C83.5556 61.3432 83.9536 60.3936 84.662 59.6935C85.3705 58.9933 86.3314 58.6 87.3333 58.6C88.3353 58.6 89.2962 58.9933 90.0046 59.6935C90.7131 60.3936 91.1111 61.3432 91.1111 62.3333ZM83.5556 75.4C83.5556 73.4197 82.7595 71.5205 81.3426 70.1203C79.9256 68.72 78.0039 67.9333 76 67.9333C73.9961 67.9333 72.0744 68.72 70.6574 70.1203C69.2405 71.5205 68.4444 73.4197 68.4444 75.4V81H83.5556V75.4ZM68.4444 62.3333C68.4444 63.3235 68.0464 64.2731 67.338 64.9732C66.6295 65.6733 65.6686 66.0667 64.6667 66.0667C63.6647 66.0667 62.7038 65.6733 61.9954 64.9732C61.2869 64.2731 60.8889 63.3235 60.8889 62.3333C60.8889 61.3432 61.2869 60.3936 61.9954 59.6935C62.7038 58.9933 63.6647 58.6 64.6667 58.6C65.6686 58.6 66.6295 58.9933 67.338 59.6935C68.0464 60.3936 68.4444 61.3432 68.4444 62.3333ZM87.3333 81V75.4C87.3361 73.5021 86.8484 71.635 85.9167 69.9755C86.7541 69.7637 87.6294 69.7437 88.4758 69.9171C89.3223 70.0904 90.1175 70.4526 90.8007 70.9758C91.484 71.4991 92.0373 72.1697 92.4185 72.9364C92.7996 73.7031 92.9985 74.5458 93 75.4V81H87.3333ZM66.0833 69.9755C65.1516 71.635 64.664 73.5021 64.6667 75.4V81H59V75.4C58.9996 74.5451 59.1973 73.7015 59.5779 72.9339C59.9585 72.1662 60.5119 71.4948 61.1956 70.9712C61.8794 70.4475 62.6754 70.0856 63.5226 69.913C64.3698 69.7404 65.2458 69.7618 66.0833 69.9755Z" fill="#ECF7FB"/>
<path d="M36.5691 109.352H38.4135V116.004C38.4135 116.734 38.2412 117.375 37.8965 117.928C37.5551 118.482 37.0745 118.914 36.4547 119.226C35.8349 119.534 35.1107 119.688 34.2821 119.688C33.4502 119.688 32.7244 119.534 32.1046 119.226C31.4848 118.914 31.0042 118.482 30.6628 117.928C30.3214 117.375 30.1507 116.734 30.1507 116.004V109.352H31.9952V115.85C31.9952 116.274 32.088 116.652 32.2736 116.984C32.4625 117.315 32.7277 117.575 33.0691 117.764C33.4105 117.95 33.8148 118.043 34.2821 118.043C34.7495 118.043 35.1538 117.95 35.4952 117.764C35.8399 117.575 36.1051 117.315 36.2907 116.984C36.4763 116.652 36.5691 116.274 36.5691 115.85V109.352ZM42.1385 115.06V119.534H40.3388V111.898H42.0589V113.195H42.1484C42.3241 112.768 42.6042 112.428 42.9886 112.176C43.3764 111.924 43.8554 111.798 44.4254 111.798C44.9524 111.798 45.4115 111.911 45.8026 112.136C46.197 112.362 46.5019 112.688 46.7173 113.116C46.9361 113.543 47.0438 114.062 47.0405 114.672V119.534H45.2408V114.95C45.2408 114.44 45.1082 114.041 44.843 113.752C44.5812 113.464 44.2183 113.32 43.7543 113.32C43.4394 113.32 43.1593 113.389 42.9141 113.528C42.6721 113.664 42.4815 113.862 42.3423 114.12C42.2064 114.379 42.1385 114.692 42.1385 115.06ZM51.7038 119.668C51.1039 119.668 50.567 119.514 50.093 119.206C49.6191 118.898 49.2446 118.45 48.9695 117.864C48.6944 117.277 48.5568 116.564 48.5568 115.726C48.5568 114.877 48.696 114.162 48.9744 113.578C49.2562 112.992 49.6357 112.549 50.1129 112.251C50.5902 111.949 51.1222 111.798 51.7088 111.798C52.1563 111.798 52.5241 111.875 52.8125 112.027C53.1009 112.176 53.3295 112.357 53.4986 112.569C53.6676 112.778 53.7985 112.975 53.8913 113.161H53.9659V109.352H55.7706V119.534H54.0007V118.331H53.8913C53.7985 118.517 53.6643 118.714 53.4886 118.923C53.313 119.128 53.081 119.304 52.7926 119.45C52.5043 119.595 52.1413 119.668 51.7038 119.668ZM52.206 118.192C52.5871 118.192 52.9119 118.089 53.1804 117.884C53.4489 117.675 53.6527 117.385 53.7919 117.014C53.9311 116.642 54.0007 116.21 54.0007 115.716C54.0007 115.222 53.9311 114.793 53.7919 114.428C53.656 114.064 53.4538 113.78 53.1854 113.578C52.9202 113.376 52.5938 113.275 52.206 113.275C51.8049 113.275 51.4702 113.379 51.2017 113.588C50.9332 113.797 50.7311 114.085 50.5952 114.453C50.4593 114.821 50.3913 115.242 50.3913 115.716C50.3913 116.193 50.4593 116.619 50.5952 116.994C50.7344 117.365 50.9382 117.658 51.2067 117.874C51.4785 118.086 51.8116 118.192 52.206 118.192ZM61.0691 119.683C60.3034 119.683 59.6422 119.524 59.0854 119.206C58.5319 118.885 58.106 118.43 57.8077 117.844C57.5094 117.254 57.3603 116.56 57.3603 115.761C57.3603 114.975 57.5094 114.286 57.8077 113.693C58.1093 113.096 58.5302 112.632 59.0705 112.301C59.6107 111.966 60.2454 111.798 60.9746 111.798C61.4453 111.798 61.8894 111.875 62.307 112.027C62.7279 112.176 63.0991 112.408 63.4206 112.723C63.7454 113.038 64.0007 113.439 64.1863 113.926C64.3719 114.41 64.4647 114.987 64.4647 115.656V116.208H58.2054V114.995H62.7395C62.7362 114.65 62.6616 114.344 62.5158 114.075C62.37 113.804 62.1661 113.59 61.9043 113.434C61.6458 113.278 61.3442 113.2 60.9995 113.2C60.6316 113.2 60.3084 113.29 60.03 113.469C59.7516 113.645 59.5345 113.877 59.3787 114.165C59.2263 114.45 59.1484 114.763 59.1451 115.104V116.163C59.1451 116.608 59.2263 116.989 59.3887 117.307C59.5511 117.622 59.7781 117.864 60.0698 118.033C60.3614 118.198 60.7028 118.281 61.0939 118.281C61.3558 118.281 61.5927 118.245 61.8049 118.172C62.017 118.096 62.2009 117.985 62.3567 117.839C62.5125 117.693 62.6301 117.512 62.7097 117.297L64.3901 117.486C64.284 117.93 64.0819 118.318 63.7836 118.649C63.4886 118.977 63.1107 119.233 62.65 119.415C62.1893 119.594 61.6623 119.683 61.0691 119.683ZM65.9872 119.534V111.898H67.7322V113.171H67.8118C67.951 112.73 68.1896 112.39 68.5277 112.151C68.8691 111.909 69.2585 111.788 69.696 111.788C69.7955 111.788 69.9065 111.793 70.0291 111.803C70.1551 111.81 70.2595 111.822 70.3423 111.838V113.494C70.2661 113.467 70.1451 113.444 69.9794 113.424C69.817 113.401 69.6596 113.389 69.5071 113.389C69.179 113.389 68.884 113.461 68.6222 113.603C68.3636 113.742 68.1598 113.936 68.0107 114.185C67.8615 114.433 67.7869 114.72 67.7869 115.045V119.534H65.9872ZM75.0902 119.534V109.352H78.9084C79.6906 109.352 80.3468 109.488 80.8771 109.76C81.4107 110.032 81.8134 110.413 82.0852 110.903C82.3603 111.391 82.4979 111.959 82.4979 112.609C82.4979 113.262 82.3587 113.828 82.0803 114.309C81.8052 114.786 81.3991 115.156 80.8622 115.418C80.3253 115.676 79.6657 115.805 78.8835 115.805H76.1641V114.274H78.6349C79.0923 114.274 79.4669 114.211 79.7585 114.085C80.0502 113.956 80.2656 113.769 80.4048 113.524C80.5473 113.275 80.6186 112.97 80.6186 112.609C80.6186 112.247 80.5473 111.939 80.4048 111.684C80.2623 111.426 80.0452 111.23 79.7536 111.097C79.4619 110.961 79.0857 110.894 78.625 110.894H76.9347V119.534H75.0902ZM80.3501 114.921L82.8707 119.534H80.8125L78.3366 114.921H80.3501ZM87.3874 119.683C86.6218 119.683 85.9606 119.524 85.4038 119.206C84.8503 118.885 84.4244 118.43 84.1261 117.844C83.8278 117.254 83.6786 116.56 83.6786 115.761C83.6786 114.975 83.8278 114.286 84.1261 113.693C84.4277 113.096 84.8486 112.632 85.3888 112.301C85.9291 111.966 86.5638 111.798 87.293 111.798C87.7636 111.798 88.2077 111.875 88.6254 112.027C89.0463 112.176 89.4175 112.408 89.739 112.723C90.0638 113.038 90.319 113.439 90.5046 113.926C90.6902 114.41 90.783 114.987 90.783 115.656V116.208H84.5238V114.995H89.0579C89.0546 114.65 88.98 114.344 88.8342 114.075C88.6883 113.804 88.4845 113.59 88.2227 113.434C87.9641 113.278 87.6625 113.2 87.3178 113.2C86.9499 113.2 86.6268 113.29 86.3484 113.469C86.07 113.645 85.8529 113.877 85.6971 114.165C85.5446 114.45 85.4667 114.763 85.4634 115.104V116.163C85.4634 116.608 85.5446 116.989 85.707 117.307C85.8694 117.622 86.0965 117.864 86.3881 118.033C86.6798 118.198 87.0212 118.281 87.4123 118.281C87.6741 118.281 87.9111 118.245 88.1232 118.172C88.3353 118.096 88.5193 117.985 88.6751 117.839C88.8308 117.693 88.9485 117.512 89.0281 117.297L90.7085 117.486C90.6024 117.93 90.4002 118.318 90.1019 118.649C89.8069 118.977 89.4291 119.233 88.9684 119.415C88.5077 119.594 87.9807 119.683 87.3874 119.683ZM98.9078 111.898L96.1884 119.534H94.1998L91.4803 111.898H93.3993L95.1543 117.57H95.2338L96.9938 111.898H98.9078ZM100.153 119.534V111.898H101.953V119.534H100.153ZM101.058 110.814C100.773 110.814 100.528 110.72 100.322 110.531C100.117 110.338 100.014 110.108 100.014 109.84C100.014 109.568 100.117 109.337 100.322 109.149C100.528 108.956 100.773 108.86 101.058 108.86C101.346 108.86 101.592 108.956 101.794 109.149C101.999 109.337 102.102 109.568 102.102 109.84C102.102 110.108 101.999 110.338 101.794 110.531C101.592 110.72 101.346 110.814 101.058 110.814ZM107.184 119.683C106.419 119.683 105.757 119.524 105.201 119.206C104.647 118.885 104.221 118.43 103.923 117.844C103.625 117.254 103.475 116.56 103.475 115.761C103.475 114.975 103.625 114.286 103.923 113.693C104.225 113.096 104.645 112.632 105.186 112.301C105.726 111.966 106.361 111.798 107.09 111.798C107.56 111.798 108.005 111.875 108.422 112.027C108.843 112.176 109.214 112.408 109.536 112.723C109.861 113.038 110.116 113.439 110.301 113.926C110.487 114.41 110.58 114.987 110.58 115.656V116.208H104.321V114.995H108.855C108.851 114.65 108.777 114.344 108.631 114.075C108.485 113.804 108.281 113.59 108.02 113.434C107.761 113.278 107.459 113.2 107.115 113.2C106.747 113.2 106.424 113.29 106.145 113.469C105.867 113.645 105.65 113.877 105.494 114.165C105.342 114.45 105.264 114.763 105.26 115.104V116.163C105.26 116.608 105.342 116.989 105.504 117.307C105.666 117.622 105.893 117.864 106.185 118.033C106.477 118.198 106.818 118.281 107.209 118.281C107.471 118.281 107.708 118.245 107.92 118.172C108.132 118.096 108.316 117.985 108.472 117.839C108.628 117.693 108.745 117.512 108.825 117.297L110.505 117.486C110.399 117.93 110.197 118.318 109.899 118.649C109.604 118.977 109.226 119.233 108.765 119.415C108.305 119.594 107.778 119.683 107.184 119.683ZM113.637 119.534L111.48 111.898H113.314L114.657 117.267H114.726L116.098 111.898H117.913L119.285 117.237H119.36L120.682 111.898H122.522L120.359 119.534H118.485L117.053 114.374H116.949L115.517 119.534H113.637Z" fill="url(#paint3_linear_11425_36074)"/>
<rect x="31.5" y="27.5" width="27" height="27" rx="13.5" fill="white"/>
<rect x="31.5" y="27.5" width="27" height="27" rx="13.5" stroke="#156FF7"/>
<path d="M44.5002 41.5L40.1616 38.5463C39.9708 38.4164 39.8146 38.242 39.7066 38.038C39.5986 37.8341 39.542 37.6069 39.5418 37.3761L39.5418 35.4792C39.5418 35.3852 39.5791 35.2952 39.6456 35.2287C39.712 35.1623 39.8021 35.125 39.896 35.125L49.1043 35.125C49.1983 35.125 49.2883 35.1623 49.3548 35.2287C49.4212 35.2952 49.4585 35.3852 49.4585 35.4792L49.4585 37.3754C49.4585 37.6064 49.4021 37.8339 49.2941 38.0381C49.186 38.2423 49.0297 38.417 48.8387 38.547L44.5002 41.5ZM44.5002 41.5L40.1616 44.4537C39.9708 44.5836 39.8146 44.758 39.7066 44.962C39.5986 45.1659 39.542 45.3931 39.5418 45.6239L39.5418 47.5208C39.5418 47.6148 39.5791 47.7048 39.6456 47.7713C39.712 47.8377 39.8021 47.875 39.896 47.875L49.1043 47.875C49.1983 47.875 49.2883 47.8377 49.3548 47.7713C49.4212 47.7048 49.4585 47.6148 49.4585 47.5208L49.4585 45.6246C49.4585 45.3936 49.4021 45.1661 49.2941 44.9619C49.186 44.7577 49.0297 44.583 48.8387 44.453L44.5002 41.5Z" stroke="#156FF7" stroke-width="2" stroke-linecap="round" stroke-linejoin="round"/>
<path d="M41.6668 36.6996L41.6668 35.2313C41.6668 35.2031 41.678 35.176 41.6979 35.1561C41.7179 35.1362 41.7449 35.125 41.7731 35.125L47.2272 35.125C47.2554 35.125 47.2825 35.1362 47.3024 35.1561C47.3223 35.176 47.3335 35.2031 47.3335 35.2313L47.3335 36.6996C47.3335 36.7597 47.3182 36.8188 47.2891 36.8713C47.26 36.9239 47.218 36.9681 47.167 37L44.8005 38.479C44.7104 38.5352 44.6064 38.5651 44.5002 38.5651C44.394 38.5651 44.2899 38.5352 44.1998 38.479L41.8333 37C41.7823 36.9681 41.7403 36.9239 41.7112 36.8713C41.6821 36.8188 41.6668 36.7597 41.6668 36.6996Z" fill="#156FF7"/>
<defs>
<linearGradient id="paint0_linear_11425_36074" x1="-6.12995" y1="75.7703" x2="133.817" y2="28.8592" gradientUnits="userSpaceOnUse">
<stop stop-color="#427DFF"/>
<stop offset="1" stop-color="#44D5BB"/>
</linearGradient>
<linearGradient id="paint1_linear_11425_36074" x1="-6.12995" y1="75.7703" x2="133.817" y2="28.8592" gradientUnits="userSpaceOnUse">
<stop stop-color="#427DFF"/>
<stop offset="1" stop-color="#44D5BB"/>
</linearGradient>
<linearGradient id="paint2_linear_11425_36074" x1="39.4642" y1="66.6664" x2="97.0554" y2="42.5353" gradientUnits="userSpaceOnUse">
<stop stop-color="#427DFF"/>
<stop offset="1" stop-color="#44D5BB"/>
</linearGradient>
<linearGradient id="paint3_linear_11425_36074" x1="23.8204" y1="114.534" x2="52.303" y2="69.6606" gradientUnits="userSpaceOnUse">
<stop stop-color="#427DFF"/>
<stop offset="1" stop-color="#44D5BB"/>
</linearGradient>
</defs>
</svg>
