<svg width="15" height="18" viewBox="0 0 15 18" fill="none" xmlns="http://www.w3.org/2000/svg">
<path d="M7.5 10.6641C7.26389 10.6641 7.06611 10.5841 6.90667 10.4241C6.74667 10.2646 6.66667 10.0668 6.66667 9.83073C6.66667 9.59462 6.74667 9.39656 6.90667 9.23656C7.06611 9.07712 7.26389 8.9974 7.5 8.9974C7.73611 8.9974 7.93417 9.07712 8.09417 9.23656C8.25361 9.39656 8.33333 9.59462 8.33333 9.83073C8.33333 10.0668 8.25361 10.2646 8.09417 10.4241C7.93417 10.5841 7.73611 10.6641 7.5 10.6641ZM4.16667 10.6641C3.93056 10.6641 3.7325 10.5841 3.5725 10.4241C3.41306 10.2646 3.33333 10.0668 3.33333 9.83073C3.33333 9.59462 3.41306 9.39656 3.5725 9.23656C3.7325 9.07712 3.93056 8.9974 4.16667 8.9974C4.40278 8.9974 4.60083 9.07712 4.76083 9.23656C4.92028 9.39656 5 9.59462 5 9.83073C5 10.0668 4.92028 10.2646 4.76083 10.4241C4.60083 10.5841 4.40278 10.6641 4.16667 10.6641ZM10.8333 10.6641C10.5972 10.6641 10.3994 10.5841 10.24 10.4241C10.08 10.2646 10 10.0668 10 9.83073C10 9.59462 10.08 9.39656 10.24 9.23656C10.3994 9.07712 10.5972 8.9974 10.8333 8.9974C11.0694 8.9974 11.2672 9.07712 11.4267 9.23656C11.5867 9.39656 11.6667 9.59462 11.6667 9.83073C11.6667 10.0668 11.5867 10.2646 11.4267 10.4241C11.2672 10.5841 11.0694 10.6641 10.8333 10.6641ZM7.5 13.9974C7.26389 13.9974 7.06611 13.9174 6.90667 13.7574C6.74667 13.598 6.66667 13.4002 6.66667 13.1641C6.66667 12.928 6.74667 12.7302 6.90667 12.5707C7.06611 12.4107 7.26389 12.3307 7.5 12.3307C7.73611 12.3307 7.93417 12.4107 8.09417 12.5707C8.25361 12.7302 8.33333 12.928 8.33333 13.1641C8.33333 13.4002 8.25361 13.598 8.09417 13.7574C7.93417 13.9174 7.73611 13.9974 7.5 13.9974ZM4.16667 13.9974C3.93056 13.9974 3.7325 13.9174 3.5725 13.7574C3.41306 13.598 3.33333 13.4002 3.33333 13.1641C3.33333 12.928 3.41306 12.7302 3.5725 12.5707C3.7325 12.4107 3.93056 12.3307 4.16667 12.3307C4.40278 12.3307 4.60083 12.4107 4.76083 12.5707C4.92028 12.7302 5 12.928 5 13.1641C5 13.4002 4.92028 13.598 4.76083 13.7574C4.60083 13.9174 4.40278 13.9974 4.16667 13.9974ZM10.8333 13.9974C10.5972 13.9974 10.3994 13.9174 10.24 13.7574C10.08 13.598 10 13.4002 10 13.1641C10 12.928 10.08 12.7302 10.24 12.5707C10.3994 12.4107 10.5972 12.3307 10.8333 12.3307C11.0694 12.3307 11.2672 12.4107 11.4267 12.5707C11.5867 12.7302 11.6667 12.928 11.6667 13.1641C11.6667 13.4002 11.5867 13.598 11.4267 13.7574C11.2672 13.9174 11.0694 13.9974 10.8333 13.9974ZM1.66667 17.3307C1.20833 17.3307 0.815833 17.1677 0.489167 16.8416C0.163055 16.5149 0 16.1224 0 15.6641V3.9974C0 3.53906 0.163055 3.14684 0.489167 2.82073C0.815833 2.49406 1.20833 2.33073 1.66667 2.33073H2.5V1.4974C2.5 1.26128 2.57972 1.06323 2.73917 0.903229C2.89917 0.743785 3.09722 0.664062 3.33333 0.664062C3.56944 0.664062 3.7675 0.743785 3.9275 0.903229C4.08694 1.06323 4.16667 1.26128 4.16667 1.4974V2.33073H10.8333V1.4974C10.8333 1.26128 10.9133 1.06323 11.0733 0.903229C11.2328 0.743785 11.4306 0.664062 11.6667 0.664062C11.9028 0.664062 12.1006 0.743785 12.26 0.903229C12.42 1.06323 12.5 1.26128 12.5 1.4974V2.33073H13.3333C13.7917 2.33073 14.1842 2.49406 14.5108 2.82073C14.8369 3.14684 15 3.53906 15 3.9974V15.6641C15 16.1224 14.8369 16.5149 14.5108 16.8416C14.1842 17.1677 13.7917 17.3307 13.3333 17.3307H1.66667ZM1.66667 15.6641H13.3333V7.33073H1.66667V15.6641Z" fill="#64748B"/>
</svg>
