<svg width="24" height="24" viewBox="0 0 24 24" fill="none" xmlns="http://www.w3.org/2000/svg">
<g id="Frame 2147258717">
<g id="Vector">
<path fill-rule="evenodd" clip-rule="evenodd" d="M13.2255 9.54545C13.6774 9.54545 14.0437 9.91177 14.0437 10.3636V11.5909H15.271C15.7228 11.5909 16.0891 11.9572 16.0891 12.4091C16.0891 12.861 15.7228 13.2273 15.271 13.2273H14.0437V14.4545C14.0437 14.9064 13.6774 15.2727 13.2255 15.2727C12.7736 15.2727 12.4073 14.9064 12.4073 14.4545V13.2273H11.18C10.7282 13.2273 10.3619 12.861 10.3619 12.4091C10.3619 11.9572 10.7282 11.5909 11.18 11.5909H12.4073V10.3636C12.4073 9.91177 12.7736 9.54545 13.2255 9.54545Z" fill="#156FF7"/>
<path fill-rule="evenodd" clip-rule="evenodd" d="M8.31641 3C8.66858 3 8.98124 3.22535 9.0926 3.55945L9.88369 5.93272L12.257 6.7238C12.5911 6.83517 12.8164 7.14783 12.8164 7.5C12.8164 7.85217 12.5911 8.16483 12.257 8.2762L9.88369 9.06728L9.0926 11.4405C8.98124 11.7746 8.66858 12 8.31641 12C7.96424 12 7.65158 11.7746 7.54021 11.4405L6.74912 9.06728L4.37586 8.2762C4.04176 8.16483 3.81641 7.85217 3.81641 7.5C3.81641 7.14783 4.04176 6.83517 4.37586 6.7238L6.74912 5.93272L7.54021 3.55945C7.65158 3.22535 7.96424 3 8.31641 3ZM8.31641 6.4055L8.17215 6.83828C8.09071 7.08259 7.899 7.2743 7.65468 7.35574L7.22191 7.5L7.65468 7.64426C7.899 7.7257 8.09071 7.91741 8.17215 8.16172L8.31641 8.5945L8.46067 8.16172C8.5421 7.91741 8.73382 7.7257 8.97813 7.64426L9.41091 7.5L8.97813 7.35574C8.73382 7.2743 8.5421 7.08259 8.46067 6.83828L8.31641 6.4055Z" fill="#156FF7"/>
<path fill-rule="evenodd" clip-rule="evenodd" d="M9.30404 16.3305C9.62356 16.6501 9.62356 17.1681 9.30404 17.4876L6.03131 20.7604C5.71179 21.0799 5.19375 21.0799 4.87423 20.7604C4.55471 20.4408 4.55471 19.9228 4.87423 19.6033L8.14695 16.3305C8.46647 16.011 8.98452 16.011 9.30404 16.3305Z" fill="#156FF7"/>
<path fill-rule="evenodd" clip-rule="evenodd" d="M13.6509 6.23271C13.7408 5.78987 14.1727 5.50375 14.6155 5.59365C17.7903 6.23808 20.18 9.04359 20.18 12.4091C20.18 16.25 17.0664 19.3636 13.2255 19.3636C10.1962 19.3636 7.62121 17.4272 6.66688 14.7272C6.5163 14.3012 6.7396 13.8337 7.16564 13.6831C7.59168 13.5325 8.05913 13.7558 8.20971 14.1819C8.94018 16.2486 10.9112 17.7273 13.2255 17.7273C16.1626 17.7273 18.5437 15.3462 18.5437 12.4091C18.5437 9.83715 16.7171 7.68999 14.29 7.1973C13.8472 7.10741 13.561 6.67555 13.6509 6.23271Z" fill="#156FF7"/>
</g>
</g>
</svg>
