<svg viewBox="0 0 20 20" fill="none" xmlns="http://www.w3.org/2000/svg">
    <g clip-path="url(#clip0_443_36206)">
        <path d="M5.5 6.5C5.5 5.96875 5.9375 5.5 6.5 5.5C7.03125 5.5 7.5 5.96875 7.5 6.5C7.5 7.0625 7.03125 7.5 6.5 7.5C5.9375 7.5 5.5 7.0625 5.5 6.5ZM9.15625 3C9.6875 3 10.1875 3.21875 10.5625 3.59375L16.0625 9.09375C16.8438 9.875 16.8438 11.1562 16.0625 11.9375L11.9062 16.0938C11.125 16.875 9.84375 16.875 9.0625 16.0938L3.5625 10.5938C3.1875 10.2188 3 9.71875 3 9.1875V4.5C3 3.6875 3.65625 3 4.5 3H9.15625ZM4.625 9.53125L10.125 15.0312C10.3125 15.25 10.6562 15.25 10.8438 15.0312L15 10.875C15.2188 10.6875 15.2188 10.3438 15 10.1562L9.5 4.65625C9.40625 4.5625 9.28125 4.5 9.15625 4.5H4.5V9.1875C4.5 9.3125 4.53125 9.4375 4.625 9.53125Z" fill="#156FF7"/>
    </g>
    <defs>
        <clipPath id="clip0_443_36206">
            <rect width="20" height="20" fill="white"/>
        </clipPath>
    </defs>
</svg>
