<svg width="19" height="19" viewBox="0 0 19 19" fill="none" xmlns="http://www.w3.org/2000/svg">
<path d="M14 2.5166C14.7956 2.5166 15.5587 2.83267 16.1213 3.39528C16.6839 3.95789 17 4.72095 17 5.5166V11.5166C17 12.3123 16.6839 13.0753 16.1213 13.6379C15.5587 14.2005 14.7956 14.5166 14 14.5166H10.457L6.8855 16.6594C6.77794 16.7239 6.65591 16.7604 6.53058 16.7656C6.40525 16.7708 6.28062 16.7445 6.16809 16.689C6.05557 16.6336 5.95875 16.5508 5.88649 16.4483C5.81424 16.3457 5.76886 16.2267 5.7545 16.1021L5.75 16.0166V14.5166H5C4.23032 14.5166 3.49008 14.2208 2.93239 13.6903C2.3747 13.1598 2.04223 12.4353 2.00375 11.6666L2 11.5166V5.5166C2 4.72095 2.31607 3.95789 2.87868 3.39528C3.44129 2.83267 4.20435 2.5166 5 2.5166H14ZM11 9.2666H6.5C6.30109 9.2666 6.11032 9.34562 5.96967 9.48627C5.82902 9.62692 5.75 9.81769 5.75 10.0166C5.75 10.2155 5.82902 10.4063 5.96967 10.5469C6.11032 10.6876 6.30109 10.7666 6.5 10.7666H11C11.1989 10.7666 11.3897 10.6876 11.5303 10.5469C11.671 10.4063 11.75 10.2155 11.75 10.0166C11.75 9.81769 11.671 9.62692 11.5303 9.48627C11.3897 9.34562 11.1989 9.2666 11 9.2666ZM12.5 6.2666H6.5C6.30109 6.2666 6.11032 6.34562 5.96967 6.48627C5.82902 6.62692 5.75 6.81769 5.75 7.0166C5.75 7.21551 5.82902 7.40628 5.96967 7.54693C6.11032 7.68758 6.30109 7.7666 6.5 7.7666H12.5C12.6989 7.7666 12.8897 7.68758 13.0303 7.54693C13.171 7.40628 13.25 7.21551 13.25 7.0166C13.25 6.81769 13.171 6.62692 13.0303 6.48627C12.8897 6.34562 12.6989 6.2666 12.5 6.2666Z" fill="#156FF7"/>
</svg>
