<svg width="14" height="19" viewBox="0 0 14 19" fill="none" xmlns="http://www.w3.org/2000/svg">
<path d="M13.7373 8.6039C13.7136 8.50373 13.6656 8.41095 13.5974 8.33381C13.5293 8.25667 13.4431 8.19755 13.3467 8.16171L8.84587 6.47343L9.99119 0.744525C10.0171 0.611417 9.99906 0.473485 9.93972 0.351542C9.88039 0.2296 9.783 0.130265 9.66226 0.0685266C9.54152 0.00678817 9.40397 -0.0140036 9.27037 0.00928879C9.13678 0.0325812 9.01438 0.0986939 8.92166 0.19765L0.171657 9.57265C0.10059 9.64753 0.0491798 9.73885 0.0220187 9.83845C-0.00514241 9.93805 -0.0072084 10.0428 0.0160055 10.1434C0.0392193 10.244 0.0869899 10.3373 0.155049 10.4149C0.223109 10.4925 0.309338 10.5521 0.406032 10.5883L4.90838 12.2766L3.76619 17.9992C3.74025 18.1323 3.75832 18.2703 3.81765 18.3922C3.87699 18.5141 3.97437 18.6135 4.09512 18.6752C4.21586 18.7369 4.3534 18.7577 4.487 18.7344C4.6206 18.7112 4.74299 18.645 4.83572 18.5461L13.5857 9.17109C13.6555 9.09619 13.7058 9.00529 13.7322 8.9064C13.7587 8.8075 13.7604 8.70362 13.7373 8.6039ZM5.42322 16.0906L6.24119 11.9984C6.27046 11.8533 6.24727 11.7025 6.17573 11.5729C6.10419 11.4432 5.98896 11.3432 5.85056 11.2906L1.72244 9.73984L8.33337 2.65703L7.51619 6.74921C7.48691 6.89434 7.51011 7.04516 7.58165 7.17478C7.65318 7.30441 7.76842 7.40443 7.90681 7.45703L12.0318 9.0039L5.42322 16.0906Z" fill="#455468"/>
</svg>
