<svg width="17" height="18" viewBox="0 0 17 18" fill="none" xmlns="http://www.w3.org/2000/svg">
<path d="M10.3333 10.6667V13.1667H3.66658V7.33335C3.66658 5.49169 5.15825 4.00002 6.99992 4.00002C7.70825 4.00002 8.36658 4.21669 8.89992 4.60002L10.0916 3.40835C9.54847 2.97932 8.9209 2.6698 8.24992 2.50002V1.91669C8.24992 1.22502 7.69158 0.666687 6.99992 0.666687C6.30825 0.666687 5.74992 1.22502 5.74992 1.91669V2.50002C3.59158 3.05002 1.99992 5.00835 1.99992 7.33335V13.1667H0.333252V14.8334H13.6666V13.1667H11.9999V10.6667H10.3333ZM6.99992 17.3334C7.91658 17.3334 8.66658 16.5834 8.66658 15.6667H5.33325C5.33325 16.5834 6.08325 17.3334 6.99992 17.3334ZM16.9999 5.66669H14.4999V3.16669H12.8333V5.66669H10.3333V7.33335H12.8333V9.83335H14.4999V7.33335H16.9999V5.66669Z" fill="white"/>
</svg>
