<svg width="14" height="18" viewBox="0 0 14 18" fill="none" xmlns="http://www.w3.org/2000/svg">
<path d="M10.334 10.6666V13.1666H3.66732V7.33329C3.66732 5.49163 5.15898 3.99996 7.00065 3.99996C7.70898 3.99996 8.36732 4.21663 8.90065 4.59996L10.0923 3.40829C9.5492 2.97926 8.92163 2.66973 8.25065 2.49996V1.91663C8.25065 1.22496 7.69232 0.666626 7.00065 0.666626C6.30898 0.666626 5.75065 1.22496 5.75065 1.91663V2.49996C3.59232 3.04996 2.00065 5.00829 2.00065 7.33329V13.1666H0.333984V14.8333H13.6673V13.1666H12.0006V10.6666H10.334ZM7.00065 17.3333C7.91732 17.3333 8.66732 16.5833 8.66732 15.6666H5.33398C5.33398 16.5833 6.08398 17.3333 7.00065 17.3333Z" fill="#30C593"/>
</svg>
