<svg width="17" height="18" viewBox="0 0 17 18" fill="none" xmlns="http://www.w3.org/2000/svg">
<path d="M10.3333 10.6667V13.1667H3.66665V7.33332C3.66665 5.49166 5.15831 3.99999 6.99998 3.99999C7.70831 3.99999 8.36664 4.21666 8.89998 4.59999L10.0916 3.40832C9.54853 2.97929 8.92096 2.66977 8.24998 2.49999V1.91666C8.24998 1.22499 7.69165 0.666656 6.99998 0.666656C6.30831 0.666656 5.74998 1.22499 5.74998 1.91666V2.49999C3.59165 3.04999 1.99998 5.00832 1.99998 7.33332V13.1667H0.333313V14.8333H13.6666V13.1667H12V10.6667H10.3333ZM6.99998 17.3333C7.91665 17.3333 8.66665 16.5833 8.66665 15.6667H5.33331C5.33331 16.5833 6.08331 17.3333 6.99998 17.3333ZM17 5.66666H14.5V3.16666H12.8333V5.66666H10.3333V7.33332H12.8333V9.83332H14.5V7.33332H17V5.66666Z" fill="#156FF7"/>
</svg>
