<svg width="20" height="20" viewBox="0 0 20 20" fill="none" xmlns="http://www.w3.org/2000/svg">
<path d="M13.334 11.6666V14.1666H6.66732V8.33329C6.66732 6.49163 8.15898 4.99996 10.0006 4.99996C10.709 4.99996 11.3673 5.21663 11.9006 5.59996L13.0923 4.40829C12.5492 3.97926 11.9216 3.66973 11.2506 3.49996V2.91663C11.2506 2.22496 10.6923 1.66663 10.0006 1.66663C9.30898 1.66663 8.75065 2.22496 8.75065 2.91663V3.49996C6.59232 4.04996 5.00065 6.00829 5.00065 8.33329V14.1666H3.33398V15.8333H16.6673V14.1666H15.0006V11.6666H13.334ZM10.0006 18.3333C10.9173 18.3333 11.6673 17.5833 11.6673 16.6666H8.33398C8.33398 17.5833 9.08398 18.3333 10.0006 18.3333Z" fill="#30C593"/>
<path d="M17.7409 4.42909C17.9755 4.19263 18.3579 4.19257 18.5926 4.42895L18.914 4.75268C19.1461 4.98647 19.1463 5.36372 18.9144 5.59775L14.3178 10.2367C14.083 10.4735 13.7002 10.4736 13.4655 10.2368L11.4191 8.17275C11.1871 7.93874 11.1873 7.5614 11.4194 7.32756L11.7414 7.00332C11.9758 6.76718 12.3577 6.76696 12.5924 7.00283L13.8917 8.30833L17.7409 4.42909Z" fill="#30C593"/>
</svg>
