<svg width="20" height="20" viewBox="0 0 20 20" fill="none" xmlns="http://www.w3.org/2000/svg">
<path d="M13.3333 11.6667V14.1667H6.66665V8.33335C6.66665 6.49169 8.15831 5.00002 9.99998 5.00002C10.7083 5.00002 11.3666 5.21669 11.9 5.60002L13.0916 4.40835C12.5485 3.97932 11.921 3.6698 11.25 3.50002V2.91669C11.25 2.22502 10.6916 1.66669 9.99998 1.66669C9.30831 1.66669 8.74998 2.22502 8.74998 2.91669V3.50002C6.59165 4.05002 4.99998 6.00835 4.99998 8.33335V14.1667H3.33331V15.8334H16.6666V14.1667H15V11.6667H13.3333ZM9.99998 18.3334C10.9166 18.3334 11.6666 17.5834 11.6666 16.6667H8.33331C8.33331 17.5834 9.08331 18.3334 9.99998 18.3334Z" fill="#0F172A"/>
<path d="M17.7409 4.42909C17.9755 4.19263 18.3579 4.19257 18.5926 4.42895L18.914 4.75268C19.1461 4.98647 19.1463 5.36372 18.9144 5.59775L14.3178 10.2367C14.083 10.4735 13.7002 10.4736 13.4655 10.2368L11.4191 8.17275C11.1871 7.93874 11.1873 7.5614 11.4194 7.32756L11.7414 7.00332C11.9758 6.76718 12.3577 6.76696 12.5924 7.00283L13.8917 8.30833L17.7409 4.42909Z" fill="#0F172A"/>
</svg>
