<svg width="16" height="16" viewBox="0 0 16 16" fill="none" xmlns="http://www.w3.org/2000/svg">
<path d="M12.6671 2.66634H11.3337V1.99967C11.3337 1.82286 11.2635 1.65329 11.1385 1.52827C11.0135 1.40325 10.8439 1.33301 10.6671 1.33301C10.4903 1.33301 10.3207 1.40325 10.1957 1.52827C10.0706 1.65329 10.0004 1.82286 10.0004 1.99967V2.66634H6.00041V1.99967C6.00041 1.82286 5.93017 1.65329 5.80514 1.52827C5.68012 1.40325 5.51055 1.33301 5.33374 1.33301C5.15693 1.33301 4.98736 1.40325 4.86234 1.52827C4.73731 1.65329 4.66707 1.82286 4.66707 1.99967V2.66634H3.33374C2.80331 2.66634 2.2946 2.87705 1.91953 3.25213C1.54445 3.6272 1.33374 4.13591 1.33374 4.66634V12.6663C1.33374 13.1968 1.54445 13.7055 1.91953 14.0806C2.2946 14.4556 2.80331 14.6663 3.33374 14.6663H12.6671C13.1975 14.6663 13.7062 14.4556 14.0813 14.0806C14.4564 13.7055 14.6671 13.1968 14.6671 12.6663V4.66634C14.6671 4.13591 14.4564 3.6272 14.0813 3.25213C13.7062 2.87705 13.1975 2.66634 12.6671 2.66634ZM13.3337 12.6663C13.3337 12.8432 13.2635 13.0127 13.1385 13.1377C13.0135 13.2628 12.8439 13.333 12.6671 13.333H3.33374C3.15693 13.333 2.98736 13.2628 2.86234 13.1377C2.73731 13.0127 2.66707 12.8432 2.66707 12.6663V7.99967H13.3337V12.6663ZM13.3337 6.66634H2.66707V4.66634C2.66707 4.48953 2.73731 4.31996 2.86234 4.19494C2.98736 4.06991 3.15693 3.99967 3.33374 3.99967H4.66707V4.66634C4.66707 4.84315 4.73731 5.01272 4.86234 5.13775C4.98736 5.26277 5.15693 5.33301 5.33374 5.33301C5.51055 5.33301 5.68012 5.26277 5.80514 5.13775C5.93017 5.01272 6.00041 4.84315 6.00041 4.66634V3.99967H10.0004V4.66634C10.0004 4.84315 10.0706 5.01272 10.1957 5.13775C10.3207 5.26277 10.4903 5.33301 10.6671 5.33301C10.8439 5.33301 11.0135 5.26277 11.1385 5.13775C11.2635 5.01272 11.3337 4.84315 11.3337 4.66634V3.99967H12.6671C12.8439 3.99967 13.0135 4.06991 13.1385 4.19494C13.2635 4.31996 13.3337 4.48953 13.3337 4.66634V6.66634Z" fill="white"/>
</svg>
