<svg width="12" height="14" viewBox="0 0 12 14" fill="none" xmlns="http://www.w3.org/2000/svg">
<path fill-rule="evenodd" clip-rule="evenodd" d="M2.03884 1.64029C3.0891 0.590029 4.51355 0 5.99884 0C7.48413 0 8.90858 0.590029 9.95884 1.64029C11.0091 2.69054 11.5991 4.115 11.5991 5.60029C11.5991 7.08557 11.0091 8.51003 9.95884 9.56029L5.99884 13.5203L2.03884 9.56029C1.51877 9.04027 1.10623 8.4229 0.824767 7.74344C0.543305 7.06398 0.398438 6.33574 0.398438 5.60029C0.398438 4.86483 0.543305 4.13659 0.824767 3.45713C1.10623 2.77767 1.51877 2.1603 2.03884 1.64029ZM5.99884 7.20028C6.42319 7.20028 6.83015 7.03171 7.13021 6.73166C7.43027 6.4316 7.59884 6.02463 7.59884 5.60029C7.59884 5.17594 7.43027 4.76897 7.13021 4.46891C6.83015 4.16886 6.42319 4.00029 5.99884 4.00029C5.57449 4.00029 5.16753 4.16886 4.86747 4.46891C4.56741 4.76897 4.39884 5.17594 4.39884 5.60029C4.39884 6.02463 4.56741 6.4316 4.86747 6.73166C5.16753 7.03171 5.57449 7.20028 5.99884 7.20028Z" fill="#64748B"/>
</svg>
