<svg width="14" height="14" viewBox="0 0 14 14" fill="none" xmlns="http://www.w3.org/2000/svg">
<path d="M6 8.33591C5.81111 8.33591 5.65289 8.27191 5.52534 8.14391C5.39734 8.01639 5.33334 7.85815 5.33334 7.66927C5.33334 7.48039 5.39734 7.32191 5.52534 7.19391C5.65289 7.06639 5.81111 7.0026 6 7.0026C6.18888 7.0026 6.34736 7.06639 6.47536 7.19391C6.60288 7.32191 6.66664 7.48039 6.66664 7.66927C6.66664 7.85815 6.60288 8.01639 6.47536 8.14391C6.34736 8.27191 6.18888 8.33591 6 8.33591ZM3.33334 8.33591C3.14445 8.33591 2.986 8.27191 2.858 8.14391C2.73045 8.01639 2.66666 7.85815 2.66666 7.66927C2.66666 7.48039 2.73045 7.32191 2.858 7.19391C2.986 7.06639 3.14445 7.0026 3.33334 7.0026C3.52222 7.0026 3.68066 7.06639 3.80866 7.19391C3.93622 7.32191 4 7.48039 4 7.66927C4 7.85815 3.93622 8.01639 3.80866 8.14391C3.68066 8.27191 3.52222 8.33591 3.33334 8.33591ZM8.66664 8.33591C8.47776 8.33591 8.31952 8.27191 8.192 8.14391C8.064 8.01639 8 7.85815 8 7.66927C8 7.48039 8.064 7.32191 8.192 7.19391C8.31952 7.06639 8.47776 7.0026 8.66664 7.0026C8.85552 7.0026 9.01376 7.06639 9.14136 7.19391C9.26936 7.32191 9.33336 7.48039 9.33336 7.66927C9.33336 7.85815 9.26936 8.01639 9.14136 8.14391C9.01376 8.27191 8.85552 8.33591 8.66664 8.33591ZM6 11.0026C5.81111 11.0026 5.65289 10.9386 5.52534 10.8106C5.39734 10.683 5.33334 10.5248 5.33334 10.3359C5.33334 10.147 5.39734 9.98879 5.52534 9.86127C5.65289 9.73327 5.81111 9.66927 6 9.66927C6.18888 9.66927 6.34736 9.73327 6.47536 9.86127C6.60288 9.98879 6.66664 10.147 6.66664 10.3359C6.66664 10.5248 6.60288 10.683 6.47536 10.8106C6.34736 10.9386 6.18888 11.0026 6 11.0026ZM3.33334 11.0026C3.14445 11.0026 2.986 10.9386 2.858 10.8106C2.73045 10.683 2.66666 10.5248 2.66666 10.3359C2.66666 10.147 2.73045 9.98879 2.858 9.86127C2.986 9.73327 3.14445 9.66927 3.33334 9.66927C3.52222 9.66927 3.68066 9.73327 3.80866 9.86127C3.93622 9.98879 4 10.147 4 10.3359C4 10.5248 3.93622 10.683 3.80866 10.8106C3.68066 10.9386 3.52222 11.0026 3.33334 11.0026ZM8.66664 11.0026C8.47776 11.0026 8.31952 10.9386 8.192 10.8106C8.064 10.683 8 10.5248 8 10.3359C8 10.147 8.064 9.98879 8.192 9.86127C8.31952 9.73327 8.47776 9.66927 8.66664 9.66927C8.85552 9.66927 9.01376 9.73327 9.14136 9.86127C9.26936 9.98879 9.33336 10.147 9.33336 10.3359C9.33336 10.5248 9.26936 10.683 9.14136 10.8106C9.01376 10.9386 8.85552 11.0026 8.66664 11.0026ZM1.33334 13.6693C0.966664 13.6693 0.652664 13.5388 0.391336 13.2779C0.130448 13.0166 0 12.7026 0 12.3359V3.0026C0 2.63594 0.130448 2.32215 0.391336 2.06127C0.652664 1.79994 0.966664 1.66927 1.33334 1.66927H2V1.0026C2 0.813713 2.06378 0.655265 2.19134 0.527265C2.31934 0.399713 2.47778 0.335938 2.66666 0.335938C2.85555 0.335938 3.014 0.399713 3.142 0.527265C3.26955 0.655265 3.33334 0.813713 3.33334 1.0026V1.66927H8.66664V1.0026C8.66664 0.813713 8.73064 0.655265 8.85864 0.527265C8.98624 0.399713 9.14448 0.335938 9.33336 0.335938C9.52224 0.335938 9.68048 0.399713 9.808 0.527265C9.936 0.655265 10 0.813713 10 1.0026V1.66927H10.6666C11.0334 1.66927 11.3474 1.79994 11.6086 2.06127C11.8695 2.32215 12 2.63594 12 3.0026V12.3359C12 12.7026 11.8695 13.0166 11.6086 13.2779C11.3474 13.5388 11.0334 13.6693 10.6666 13.6693H1.33334ZM1.33334 12.3359H10.6666V5.66927H1.33334V12.3359Z" fill="#64748B"/>
</svg>
