<svg width="16" height="16" viewBox="0 0 16 16" fill="none" xmlns="http://www.w3.org/2000/svg">
<g clip-path="url(#clip0_1576_6504)">
<path d="M2.85458 10.0923H0.773438M15.2214 10.0923H13.1403M2.85458 5.90258H0.773438M15.2214 5.90258H13.1403M5.90258 2.85458V0.773438M5.90258 15.2214V13.1403M10.0923 2.85458V0.773438M10.0923 15.2214V13.1403M11.9974 2.85458H3.99744C3.69433 2.85458 3.40364 2.97499 3.18932 3.18932C2.97499 3.40364 2.85458 3.69433 2.85458 3.99744V11.9974C2.85458 12.3005 2.97499 12.5912 3.18932 12.8056C3.40364 13.0199 3.69433 13.1403 3.99744 13.1403H11.9974C12.3005 13.1403 12.5912 13.0199 12.8056 12.8056C13.0199 12.5912 13.1403 12.3005 13.1403 11.9974V3.99744C13.1403 3.69433 13.0199 3.40364 12.8056 3.18932C12.5912 2.97499 12.3005 2.85458 11.9974 2.85458Z" stroke="url(#paint0_linear_1576_6504)" stroke-width="1.4" stroke-linecap="round" stroke-linejoin="round"/>
<path d="M5.3307 8.28634C5.00956 8.23149 5.00956 7.76977 5.3307 7.71377C5.89995 7.61455 6.42677 7.34809 6.84402 6.94835C7.26127 6.5486 7.55005 6.03368 7.67356 5.4692L7.69413 5.38006C7.7627 5.06234 8.21642 5.06006 8.28842 5.37777L8.31127 5.48063C8.43949 6.04296 8.73105 6.55485 9.14932 6.95198C9.56759 7.3491 10.0939 7.61374 10.6621 7.71263C10.9856 7.76863 10.9856 8.23263 10.6621 8.28863C10.0941 8.38744 9.56785 8.65191 9.14959 9.04881C8.73134 9.44572 8.43969 9.95736 8.31127 10.5195L8.28842 10.6223C8.21642 10.9401 7.7627 10.9378 7.69413 10.6201L7.6747 10.5321C7.55132 9.96721 7.26246 9.45193 6.84497 9.05195C6.42749 8.65197 5.90031 8.38543 5.3307 8.28634Z" stroke="url(#paint1_linear_1576_6504)" stroke-width="1.4" stroke-linecap="round" stroke-linejoin="round"/>
</g>
<defs>
<linearGradient id="paint0_linear_1576_6504" x1="-0.0226851" y1="7.99737" x2="13.6816" y2="3.40362" gradientUnits="userSpaceOnUse">
<stop stop-color="#427DFF"/>
<stop offset="1" stop-color="#44D5BB"/>
</linearGradient>
<linearGradient id="paint1_linear_1576_6504" x1="4.76943" y1="8.00003" x2="10.2662" y2="6.12656" gradientUnits="userSpaceOnUse">
<stop stop-color="#427DFF"/>
<stop offset="1" stop-color="#44D5BB"/>
</linearGradient>
<clipPath id="clip0_1576_6504">
<rect width="16" height="16" fill="white"/>
</clipPath>
</defs>
</svg>
