<svg width="68" height="68" viewBox="0 0 68 68" fill="none" xmlns="http://www.w3.org/2000/svg">
    <g clip-path="url(#clip0_9530_24832)">
        <rect width="68" height="68" fill="#F9FAFB"/>
        <path d="M59.543 1.88672C60.4704 2.38341 61.3436 2.96804 62.1504 3.63086V3.63184L61.6748 4.21094C62.4465 4.84504 63.155 5.55347 63.7891 6.3252L64.3682 5.84961V5.84863C65.0311 6.65535 65.6155 7.52868 66.1123 8.45605H66.1133L65.4521 8.81055C65.9198 9.68364 66.3056 10.6072 66.5977 11.5713L67.3135 11.3535C67.6131 12.3422 67.8197 13.3712 67.9229 14.4307L67.1777 14.5039C67.2256 14.9959 67.25 15.495 67.25 16V17.7998H68V21.4004H67.25V25H68V28.5996H67.25V32.2002H68V35.7998H67.25V39.4004H68V43H67.25V46.5996H68V50.2002H67.25V52C67.25 52.505 67.2256 53.0041 67.1777 53.4961L67.9229 53.5684C67.8198 54.6279 67.613 55.6567 67.3135 56.6455L66.5977 56.4287C66.3056 57.3928 65.9198 58.3164 65.4521 59.1895L66.1123 59.543C65.6156 60.4704 65.031 61.3436 64.3682 62.1504L63.7891 61.6748C63.155 62.4465 62.4465 63.155 61.6748 63.7891L62.1504 64.3682C61.3436 65.031 60.4704 65.6156 59.543 66.1123L59.1895 65.4521C58.3164 65.9198 57.3928 66.3056 56.4287 66.5977L56.6455 67.3135C55.6567 67.613 54.6279 67.8198 53.5684 67.9229L53.4961 67.1777C53.0041 67.2256 52.505 67.25 52 67.25H50.2002V68H46.5996V67.25H43V68H39.4004V67.25H35.7998V68H32.2002V67.25H28.5996V68H25V67.25H21.4004V68H17.7998V67.25H16C15.495 67.25 14.9959 67.2256 14.5039 67.1777L14.4307 67.9229C13.3712 67.8197 12.3422 67.6131 11.3535 67.3135L11.5713 66.5977C10.6072 66.3056 9.68364 65.9198 8.81055 65.4521L8.45605 66.1123C7.52868 65.6155 6.65535 65.0311 5.84863 64.3682H5.84961L6.3252 63.7891C5.55347 63.155 4.84504 62.4465 4.21094 61.6748L3.63184 62.1504H3.63086C2.96804 61.3436 2.38341 60.4704 1.88672 59.543L2.54785 59.1895C2.08021 58.3164 1.69442 57.3928 1.40234 56.4287L0.685547 56.6455C0.386027 55.6568 0.179245 54.6278 0.0761719 53.5684L0.822266 53.4961C0.774387 53.0041 0.75 52.505 0.75 52V50.2002H0V46.5996H0.75V43H0V39.4004H0.75V35.7998H0V32.2002H0.75V28.5996H0V25H0.75V21.4004H0V17.7998H0.75V16C0.75 15.495 0.774387 14.9959 0.822266 14.5039L0.0761719 14.4307C0.179307 13.3712 0.385972 12.3422 0.685547 11.3535L1.40234 11.5713C1.69442 10.6072 2.08021 9.68364 2.54785 8.81055L1.88672 8.45605C2.38345 7.52871 2.96803 6.65533 3.63086 5.84863L3.63184 5.84961L4.21094 6.3252C4.84504 5.55347 5.55347 4.84504 6.3252 4.21094L5.84961 3.63184L5.84863 3.63086C6.63132 2.98775 7.47647 2.41772 8.37305 1.93066L8.45605 1.88672L8.81055 2.54785C9.68364 2.08021 10.6072 1.69442 11.5713 1.40234L11.3535 0.685547C12.3422 0.385972 13.3712 0.179307 14.4307 0.0761719L14.5039 0.822266C14.9959 0.774387 15.495 0.75 16 0.75H17.7998V0H21.4004V0.75H25V0H28.5996V0.75H32.2002V0H35.7998V0.75H39.4004V0H43V0.75H46.5996V0H50.2002V0.75H52C52.505 0.75 53.0041 0.774387 53.4961 0.822266L53.5684 0.0761719C54.6278 0.179245 55.6568 0.386027 56.6455 0.685547L56.4287 1.40234C57.3928 1.69442 58.3164 2.08021 59.1895 2.54785L59.543 1.88672Z"
              stroke="#1B3860" stroke-opacity="0.24" stroke-width="1.5" stroke-dasharray="3.5 3.5"/>
        <path d="M45.7187 34C45.7187 34.373 45.5706 34.7306 45.3069 34.9944C45.0431 35.2581 44.6855 35.4062 44.3125 35.4062H35.4062V44.3125C35.4062 44.6855 35.2581 45.0431 34.9944 45.3069C34.7306 45.5706 34.373 45.7187 34 45.7187C33.627 45.7187 33.2694 45.5706 33.0056 45.3069C32.7419 45.0431 32.5937 44.6855 32.5937 44.3125V35.4062H23.6875C23.3145 35.4062 22.9569 35.2581 22.6931 34.9944C22.4294 34.7306 22.2812 34.373 22.2812 34C22.2812 33.627 22.4294 33.2694 22.6931 33.0056C22.9569 32.7419 23.3145 32.5937 23.6875 32.5937H32.5937V23.6875C32.5937 23.3145 32.7419 22.9569 33.0056 22.6931C33.2694 22.4294 33.627 22.2812 34 22.2812C34.373 22.2812 34.7306 22.4294 34.9944 22.6931C35.2581 22.9569 35.4062 23.3145 35.4062 23.6875V32.5937H44.3125C44.6855 32.5937 45.0431 32.7419 45.3069 33.0056C45.5706 33.2694 45.7187 33.627 45.7187 34Z"
              fill="#8897AE"/>
    </g>
    <defs>
        <clipPath id="clip0_9530_24832">
            <path d="M0 12C0 5.37258 5.37258 0 12 0H56C62.6274 0 68 5.37258 68 12V56C68 62.6274 62.6274 68 56 68H12C5.37258 68 0 62.6274 0 56V12Z"
                  fill="white"/>
        </clipPath>
    </defs>
</svg>
