<svg width="20" height="20" viewBox="0 0 20 20" fill="none" xmlns="http://www.w3.org/2000/svg">
<path d="M11.9 1.6665C12.2498 1.66659 12.5907 1.77674 12.8744 1.98134C13.1581 2.18595 13.3703 2.47463 13.4808 2.8065L13.9333 4.1665H16.6667C16.8877 4.1665 17.0996 4.2543 17.2559 4.41058C17.4122 4.56686 17.5 4.77882 17.5 4.99984C17.5 5.22085 17.4122 5.43281 17.2559 5.58909C17.0996 5.74537 16.8877 5.83317 16.6667 5.83317L16.6642 5.89234L15.9417 16.0115C15.8966 16.642 15.6143 17.232 15.1517 17.6628C14.6891 18.0936 14.0805 18.3331 13.4483 18.3332H6.55167C5.91955 18.3331 5.31092 18.0936 4.84831 17.6628C4.38569 17.232 4.10342 16.642 4.05833 16.0115L3.33583 5.8915L3.33333 5.83317C3.11232 5.83317 2.90036 5.74537 2.74408 5.58909C2.5878 5.43281 2.5 5.22085 2.5 4.99984C2.5 4.77882 2.5878 4.56686 2.74408 4.41058C2.90036 4.2543 3.11232 4.1665 3.33333 4.1665H6.06667L6.51917 2.8065C6.62975 2.47449 6.84203 2.18571 7.12592 1.9811C7.4098 1.77649 7.75089 1.66642 8.10083 1.6665H11.9ZM14.9975 5.83317H5.0025L5.72083 15.8923C5.73579 16.1025 5.82981 16.2992 5.98397 16.4429C6.13812 16.5865 6.34096 16.6664 6.55167 16.6665H13.4483C13.659 16.6664 13.8619 16.5865 14.016 16.4429C14.1702 16.2992 14.2642 16.1025 14.2792 15.8923L14.9975 5.83317ZM8.33333 8.33317C8.53744 8.3332 8.73445 8.40813 8.88698 8.54377C9.03951 8.6794 9.13695 8.86629 9.16083 9.069L9.16667 9.1665V13.3332C9.16643 13.5456 9.0851 13.7499 8.93929 13.9043C8.79349 14.0588 8.59421 14.1517 8.38217 14.1641C8.17014 14.1766 7.96135 14.1076 7.79847 13.9713C7.6356 13.835 7.53092 13.6416 7.50583 13.4307L7.5 13.3332V9.1665C7.5 8.94549 7.5878 8.73353 7.74408 8.57725C7.90036 8.42097 8.11232 8.33317 8.33333 8.33317ZM11.6667 8.33317C11.8877 8.33317 12.0996 8.42097 12.2559 8.57725C12.4122 8.73353 12.5 8.94549 12.5 9.1665V13.3332C12.5 13.5542 12.4122 13.7661 12.2559 13.9224C12.0996 14.0787 11.8877 14.1665 11.6667 14.1665C11.4457 14.1665 11.2337 14.0787 11.0774 13.9224C10.9211 13.7661 10.8333 13.5542 10.8333 13.3332V9.1665C10.8333 8.94549 10.9211 8.73353 11.0774 8.57725C11.2337 8.42097 11.4457 8.33317 11.6667 8.33317ZM11.9 3.33317H8.1L7.8225 4.1665H12.1775L11.9 3.33317Z" fill="#DD2C5A"/>
</svg>
