<svg width="16" height="16" viewBox="0 0 16 16" fill="none" xmlns="http://www.w3.org/2000/svg">
<path fill-rule="evenodd" clip-rule="evenodd" d="M12.1111 2.55556H4.33333C4.12705 2.55556 3.92922 2.6375 3.78336 2.78336C3.6375 2.92922 3.55556 3.12705 3.55556 3.33333V12.6667C3.55556 12.8729 3.6375 13.0708 3.78336 13.2166C3.92922 13.3625 4.12705 13.4444 4.33333 13.4444H12.1111C12.3174 13.4444 12.5152 13.3625 12.6611 13.2166C12.8069 13.0708 12.8889 12.8729 12.8889 12.6667V3.33333C12.8889 3.12705 12.8069 2.92922 12.6611 2.78336C12.5152 2.6375 12.3174 2.55556 12.1111 2.55556ZM4.33333 1C3.71449 1 3.121 1.24583 2.68342 1.68342C2.24583 2.121 2 2.71449 2 3.33333V12.6667C2 13.2855 2.24583 13.879 2.68342 14.3166C3.121 14.7542 3.71449 15 4.33333 15H12.1111C12.7299 15 13.3234 14.7542 13.761 14.3166C14.1986 13.879 14.4444 13.2855 14.4444 12.6667V3.33333C14.4444 2.71449 14.1986 2.121 13.761 1.68342C13.3234 1.24583 12.7299 1 12.1111 1H4.33333Z" fill="#156FF7"/>
<path d="M5.11108 4.11133H11.3333V5.66688H5.11108V4.11133ZM5.11108 7.22244H11.3333V8.778H5.11108V7.22244ZM5.11108 10.3336H8.99997V11.8891H5.11108V10.3336Z" fill="#156FF7"/>
</svg>
