<svg width="9" height="16" viewBox="0 0 9 16" fill="none" xmlns="http://www.w3.org/2000/svg">
<g clip-path="url(#clip0_8183_11788)">
<path d="M1.46897 3.07123C2.17899 3.07123 2.75458 2.49564 2.75458 1.78562C2.75458 1.07559 2.17899 0.5 1.46897 0.5C0.758939 0.5 0.18335 1.07559 0.18335 1.78562C0.18335 2.49564 0.758939 3.07123 1.46897 3.07123Z" fill="#64748B"/>
<path d="M7.87717 3.07123C8.58719 3.07123 9.16278 2.49564 9.16278 1.78562C9.16278 1.07559 8.58719 0.5 7.87717 0.5C7.16714 0.5 6.59155 1.07559 6.59155 1.78562C6.59155 2.49564 7.16714 3.07123 7.87717 3.07123Z" fill="#64748B"/>
<path d="M1.46897 9.40473C2.17899 9.40473 2.75458 8.82914 2.75458 8.11911C2.75458 7.40909 2.17899 6.8335 1.46897 6.8335C0.758939 6.8335 0.18335 7.40909 0.18335 8.11911C0.18335 8.82914 0.758939 9.40473 1.46897 9.40473Z" fill="#64748B"/>
<path d="M7.87717 9.40473C8.58719 9.40473 9.16278 8.82914 9.16278 8.11911C9.16278 7.40909 8.58719 6.8335 7.87717 6.8335C7.16714 6.8335 6.59155 7.40909 6.59155 8.11911C6.59155 8.82914 7.16714 9.40473 7.87717 9.40473Z" fill="#64748B"/>
<path d="M1.46897 15.7377C2.17899 15.7377 2.75458 15.1621 2.75458 14.4521C2.75458 13.7421 2.17899 13.1665 1.46897 13.1665C0.758939 13.1665 0.18335 13.7421 0.18335 14.4521C0.18335 15.1621 0.758939 15.7377 1.46897 15.7377Z" fill="#64748B"/>
<path d="M7.87717 15.7377C8.58719 15.7377 9.16278 15.1621 9.16278 14.4521C9.16278 13.7421 8.58719 13.1665 7.87717 13.1665C7.16714 13.1665 6.59155 13.7421 6.59155 14.4521C6.59155 15.1621 7.16714 15.7377 7.87717 15.7377Z" fill="#64748B"/>
</g>
<defs>
<clipPath id="clip0_8183_11788">
<rect width="8.81664" height="15" fill="white" transform="translate(0.18335 0.5)"/>
</clipPath>
</defs>
</svg>
