<svg viewBox="0 0 20 20" fill="none" xmlns="http://www.w3.org/2000/svg">
    <g clip-path="url(#clip0_443_36223)">
        <path d="M13.6562 2.78125C14.5312 1.90625 15.9375 1.90625 16.8125 2.78125L17.2188 3.1875C18.0938 4.0625 18.0938 5.46875 17.2188 6.34375L11.0312 12.5312C10.7812 12.7812 10.4375 13 10.0625 13.0938L6.9375 14C6.6875 14.0625 6.40625 14 6.21875 13.7812C6 13.5938 5.9375 13.3125 6 13.0625L6.90625 9.9375C7 9.5625 7.21875 9.21875 7.46875 8.96875L13.6562 2.78125ZM15.75 3.84375C15.4688 3.5625 15 3.5625 14.7188 3.84375L13.7812 4.75L15.25 6.21875L16.1562 5.28125C16.4375 5 16.4375 4.53125 16.1562 4.25L15.75 3.84375ZM8.34375 10.3438L7.8125 12.1875L9.65625 11.6562C9.78125 11.625 9.875 11.5625 9.96875 11.4688L14.1875 7.25L12.75 5.8125L8.53125 10.0312C8.4375 10.125 8.375 10.2188 8.34375 10.3438ZM8.25 4C8.65625 4 9 4.34375 9 4.75C9 5.1875 8.65625 5.5 8.25 5.5H4.75C4.03125 5.5 3.5 6.0625 3.5 6.75V15.25C3.5 15.9688 4.03125 16.5 4.75 16.5H13.25C13.9375 16.5 14.5 15.9688 14.5 15.25V11.75C14.5 11.3438 14.8125 11 15.25 11C15.6562 11 16 11.3438 16 11.75V15.25C16 16.7812 14.75 18 13.25 18H4.75C3.21875 18 2 16.7812 2 15.25V6.75C2 5.25 3.21875 4 4.75 4H8.25Z" fill="#156FF7"/>
    </g>
    <defs>
        <clipPath id="clip0_443_36223">
            <rect width="20" height="20" fill="white"/>
        </clipPath>
    </defs>
</svg>
