<svg width="11" height="11" viewBox="0 0 11 11" fill="none" xmlns="http://www.w3.org/2000/svg">
<path d="M3.7998 1.80664C4.13109 1.80675 4.39941 2.07494 4.39941 2.40625C4.39921 2.73738 4.13096 3.00575 3.7998 3.00586H1.19922V9.80664H8V7.20605C8.00011 6.8749 8.26848 6.60666 8.59961 6.60645C8.93092 6.60645 9.19911 6.87477 9.19922 7.20605V10.4062C9.19902 10.7374 8.93086 11.0059 8.59961 11.0059H0.599609C0.268542 11.0056 0.000200419 10.7373 0 10.4062V2.40625C0 2.07501 0.268418 1.80685 0.599609 1.80664H3.7998ZM10.0205 0.0283203C10.3503 0.0304956 10.6162 0.299077 10.6162 0.628906V5C10.616 5.33113 10.3478 5.59954 10.0166 5.59961C9.68542 5.59949 9.41713 5.33118 9.41699 5L9.41602 2.06934L4.02246 7.42578C3.78741 7.65888 3.40823 7.65757 3.1748 7.42285C2.94136 7.18775 2.94271 6.80772 3.17773 6.57422L8.56934 1.21875L5.59668 1.2002C5.26532 1.19806 4.99787 0.927067 5 0.595703C5.00236 0.264733 5.27256 -0.00181987 5.60352 0L10.0205 0.0283203Z" fill="#7FB8F8"/>
</svg>
