<svg width="17" height="16" viewBox="0 0 17 16" fill="none" xmlns="http://www.w3.org/2000/svg">
<path d="M13.1666 1.33334C12.6954 1.33244 12.239 1.49835 11.8784 1.80167C11.5178 2.10499 11.2762 2.52615 11.1963 2.99055C11.1165 3.45495 11.2036 3.93263 11.4422 4.33898C11.6808 4.74533 12.0555 5.05412 12.4999 5.21067V7.33333H4.49992V5.21067C4.94473 5.0534 5.31963 4.74396 5.55834 4.33701C5.79706 3.93007 5.88423 3.45184 5.80445 2.98685C5.72467 2.52185 5.48308 2.10003 5.12236 1.79593C4.76165 1.49184 4.30505 1.32505 3.83326 1.32505C3.36146 1.32505 2.90486 1.49184 2.54415 1.79593C2.18344 2.10003 1.94184 2.52185 1.86206 2.98685C1.78228 3.45184 1.86945 3.93007 2.10817 4.33701C2.34689 4.74396 2.72178 5.0534 3.16659 5.21067V7.33333C3.16659 7.68696 3.30707 8.02609 3.55711 8.27614C3.80716 8.52619 4.1463 8.66667 4.49992 8.66667H7.83326V11.456C7.38845 11.6133 7.01355 11.9227 6.77484 12.3297C6.53612 12.7366 6.44894 13.2148 6.52873 13.6798C6.60851 14.1448 6.8501 14.5666 7.21082 14.8707C7.57153 15.1748 8.02813 15.3416 8.49992 15.3416C8.97171 15.3416 9.42832 15.1748 9.78903 14.8707C10.1497 14.5666 10.3913 14.1448 10.4711 13.6798C10.5509 13.2148 10.4637 12.7366 10.225 12.3297C9.98629 11.9227 9.6114 11.6133 9.16659 11.456V8.66667H12.4999C12.8535 8.66667 13.1927 8.52619 13.4427 8.27614C13.6928 8.02609 13.8333 7.68696 13.8333 7.33333V5.21067C14.2777 5.05412 14.6524 4.74533 14.891 4.33898C15.1296 3.93263 15.2167 3.45495 15.1368 2.99055C15.057 2.52615 14.8154 2.10499 14.4548 1.80167C14.0941 1.49835 13.6378 1.33244 13.1666 1.33334ZM3.83326 4C3.7014 4 3.57251 3.9609 3.46288 3.88765C3.35324 3.81439 3.26779 3.71027 3.21734 3.58846C3.16688 3.46664 3.15368 3.3326 3.1794 3.20327C3.20512 3.07395 3.26862 2.95517 3.36185 2.86193C3.45509 2.7687 3.57388 2.7052 3.7032 2.67948C3.83252 2.65375 3.96656 2.66696 4.08838 2.71742C4.2102 2.76787 4.31431 2.85332 4.38757 2.96295C4.46082 3.07259 4.49992 3.20148 4.49992 3.33333C4.49992 3.51015 4.42968 3.67972 4.30466 3.80474C4.17964 3.92976 4.01007 4 3.83326 4ZM8.49992 14C8.36807 14 8.23917 13.9609 8.12954 13.8876C8.01991 13.8144 7.93446 13.7103 7.884 13.5885C7.83354 13.4666 7.82034 13.3326 7.84607 13.2033C7.87179 13.074 7.93528 12.9552 8.02852 12.8619C8.12175 12.7687 8.24054 12.7052 8.36986 12.6795C8.49918 12.6538 8.63323 12.667 8.75504 12.7174C8.87686 12.7679 8.98098 12.8533 9.05424 12.963C9.12749 13.0726 9.16659 13.2015 9.16659 13.3333C9.16659 13.5101 9.09635 13.6797 8.97133 13.8047C8.8463 13.9298 8.67673 14 8.49992 14ZM13.1666 4C13.0347 4 12.9058 3.9609 12.7962 3.88765C12.6866 3.81439 12.6011 3.71027 12.5507 3.58846C12.5002 3.46664 12.487 3.3326 12.5127 3.20327C12.5385 3.07395 12.6019 2.95517 12.6952 2.86193C12.7884 2.7687 12.9072 2.7052 13.0365 2.67948C13.1658 2.65375 13.2999 2.66696 13.4217 2.71742C13.5435 2.76787 13.6476 2.85332 13.7209 2.96295C13.7942 3.07259 13.8333 3.20148 13.8333 3.33333C13.8333 3.51015 13.763 3.67972 13.638 3.80474C13.513 3.92976 13.3434 4 13.1666 4Z" fill="#64748B"/>
</svg>
