<svg width="20" height="21" viewBox="0 0 20 21" fill="none" xmlns="http://www.w3.org/2000/svg">
<path d="M5.72083 6.53505C6.70787 5.54474 8.00784 4.92743 9.39911 4.78837C10.7904 4.64931 12.1868 4.99711 13.3503 5.77246C14.5139 6.54782 15.3724 7.70273 15.7797 9.04031C16.187 10.3779 16.1177 11.8153 15.5837 13.1075C15.0497 14.3997 14.084 15.4667 12.8513 16.1266C11.6186 16.7865 10.1952 16.9984 8.82375 16.7261C7.45231 16.4539 6.21773 15.7145 5.3305 14.6338C4.44327 13.5532 3.95832 12.1983 3.95833 10.8001C3.95833 10.6343 3.89248 10.4753 3.77527 10.3581C3.65806 10.2409 3.49909 10.1751 3.33333 10.1751C3.16757 10.1751 3.0086 10.2409 2.89139 10.3581C2.77418 10.4753 2.70833 10.6343 2.70833 10.8001C2.70826 12.4876 3.29352 14.1229 4.36431 15.4272C5.4351 16.7314 6.92514 17.6239 8.58038 17.9525C10.2356 18.281 11.9536 18.0253 13.4413 17.2289C14.9291 16.4324 16.0945 15.1446 16.739 13.585C17.3835 12.0254 17.467 10.2905 16.9754 8.67616C16.4838 7.06183 15.4475 5.66799 14.0431 4.73228C12.6388 3.79656 10.9534 3.37692 9.27421 3.54489C7.59507 3.71286 6.02617 4.45804 4.835 5.65339C4.81438 5.67456 4.79491 5.69681 4.77666 5.72005L3.72916 4.67172C3.67314 4.61557 3.60226 4.57658 3.52485 4.55933C3.44743 4.54207 3.3667 4.54727 3.29214 4.57431C3.21758 4.60135 3.15228 4.64912 3.10393 4.71198C3.05557 4.77485 3.02617 4.85022 3.01916 4.92922L2.72499 8.17005C2.7195 8.23085 2.72743 8.29212 2.74822 8.34952C2.76902 8.40691 2.80217 8.45904 2.84534 8.50221C2.88851 8.54538 2.94063 8.57853 2.99803 8.59933C3.05543 8.62012 3.11669 8.62805 3.17749 8.62255L6.41916 8.32755C6.49786 8.32014 6.57282 8.29049 6.6353 8.24208C6.69778 8.19366 6.7452 8.12847 6.77202 8.05412C6.79884 7.97977 6.80396 7.89932 6.78678 7.82216C6.7696 7.74501 6.73083 7.67433 6.675 7.61839L5.65166 6.59505C5.6758 6.57634 5.69889 6.55631 5.72083 6.53505Z" fill="#156FF7"/>
<path d="M10.625 6.63342C10.625 6.46766 10.5592 6.30869 10.4419 6.19148C10.3247 6.07427 10.1658 6.00842 10 6.00842C9.83424 6.00842 9.67527 6.07427 9.55806 6.19148C9.44085 6.30869 9.375 6.46766 9.375 6.63342V10.8001C9.37496 10.9061 9.40185 11.0103 9.45317 11.103C9.50448 11.1957 9.57852 11.2739 9.66833 11.3301L12.1683 12.8926C12.3089 12.9806 12.4786 13.0091 12.6402 12.9719C12.7203 12.9535 12.7959 12.9195 12.8627 12.8718C12.9296 12.8242 12.9864 12.7639 13.03 12.6943C13.0736 12.6247 13.103 12.5472 13.1166 12.4662C13.1302 12.3852 13.1277 12.3024 13.1093 12.2223C13.0909 12.1423 13.0569 12.0667 13.0092 11.9999C12.9616 11.933 12.9013 11.8761 12.8317 11.8326L10.625 10.4534V6.63342Z" fill="#156FF7"/>
</svg>
