<svg width="26" height="25" viewBox="0 0 26 25" fill="none" xmlns="http://www.w3.org/2000/svg">
<path d="M25.4374 10.1881L22.1956 6.94634L22.7641 0.973576C22.7761 0.847717 22.7501 0.721131 22.6894 0.610221C22.6287 0.499311 22.5361 0.40919 22.4236 0.351537C22.3111 0.293885 22.1838 0.271358 22.0583 0.286877C21.9328 0.302396 21.8149 0.355244 21.7198 0.438574L18.2607 3.46533C18.2454 3.47871 18.2389 3.49727 18.2252 3.51173L7.51628 3.59415C7.48938 3.54701 7.45629 3.50368 7.41789 3.46533L3.95873 0.438574C3.86364 0.355244 3.74571 0.302396 3.62023 0.286877C3.49475 0.271358 3.3675 0.293885 3.25498 0.351537C3.14245 0.40919 3.04983 0.499311 2.98912 0.610221C2.92842 0.721131 2.90242 0.847717 2.9145 0.973576L3.51089 7.23957L0.562511 10.1881L0.561032 10.1904C0.502196 10.2495 0.455598 10.3196 0.423907 10.3968C0.393329 10.472 0.377554 10.5527 0.377667 10.6339L0.377564 10.6347C0.377547 10.6784 0.382076 10.7221 0.391076 10.7649L1.62787 16.6103C1.65562 16.7414 1.72439 16.8603 1.82422 16.9498L8.11417 22.5878C8.20937 22.6698 8.3273 22.7208 8.45224 22.7341C8.67633 22.9093 8.91058 23.0711 9.15377 23.2187C9.78985 23.6245 10.5236 23.8511 11.2777 23.8749C11.5588 23.874 11.8381 23.8322 12.1071 23.7508C12.1639 23.8358 12.2405 23.9057 12.3305 23.9542C12.4204 24.0028 12.5209 24.0286 12.6231 24.0294H13.4878C13.5736 24.0288 13.6584 24.0106 13.7369 23.9759C13.8154 23.9412 13.8859 23.8908 13.9441 23.8278C14.1085 23.8576 14.2751 23.8733 14.4422 23.8749C15.1963 23.8511 15.93 23.6245 16.5661 23.2187C16.6092 23.1931 16.6515 23.1608 16.6945 23.134C16.7751 23.1115 16.8504 23.073 16.9158 23.0206L17.1641 22.8161C17.3723 22.6617 17.5774 22.4903 17.7802 22.3087L24.2665 16.9671C24.38 16.8738 24.4574 16.7437 24.4852 16.5993L25.6109 10.754C25.6305 10.6527 25.6249 10.5481 25.5946 10.4495C25.5643 10.3508 25.5104 10.2611 25.4374 10.1881ZM21.0376 5.7884L19.3976 4.14839L21.3567 2.43417L21.0376 5.7884ZM4.32185 2.43417L6.45205 4.29819L4.66873 6.08159L4.32185 2.43417ZM13.653 22.4117C13.6325 22.4018 13.6115 22.3929 13.5901 22.3853L13.5517 21.4543L15.1195 20.4744C15.2376 20.4006 15.3281 20.2899 15.3768 20.1593C15.4254 20.0288 15.4295 19.8859 15.3884 19.7527C15.3458 19.6206 15.2615 19.5059 15.1481 19.4257C15.0348 19.3455 14.8985 19.3043 14.7597 19.3081L13.0006 19.3795L11.3529 19.3081C11.2139 19.3033 11.0771 19.344 10.9633 19.4242C10.8496 19.5043 10.7652 19.6194 10.7229 19.7519C10.6816 19.8851 10.6856 20.0282 10.7342 20.1589C10.7828 20.2896 10.8732 20.4005 10.9915 20.4744L12.2925 21.2876C12.2867 21.3259 12.2844 21.3646 12.2857 21.4034L12.3242 22.3375C12.2341 22.3434 12.1463 22.3687 12.0669 22.4117C11.4458 22.7512 10.6819 22.6575 9.79772 22.1326C7.28105 20.6399 4.90119 16.392 4.90119 13.3918C4.90119 13.3865 4.89977 13.3817 4.89961 13.3764C4.89977 13.3712 4.90119 13.3663 4.90119 13.361C4.88676 12.8463 4.97523 12.3338 5.16141 11.8537C5.34758 11.3736 5.62773 10.9355 5.98541 10.5651C6.3431 10.1947 6.77113 9.89939 7.24442 9.69652C7.71771 9.49366 8.22673 9.38732 8.74165 9.38373C9.67704 9.39305 10.5705 9.77301 11.2261 10.4403C11.8818 11.1075 12.2459 12.0075 12.2388 12.943C12.24 13.1096 12.3071 13.2689 12.4253 13.3863C12.5436 13.5037 12.7035 13.5696 12.8701 13.5696C13.0367 13.5696 13.1966 13.5037 13.3148 13.3863C13.4331 13.2689 13.5001 13.1096 13.5014 12.943C13.4943 12.0075 13.8586 11.1074 14.5143 10.4402C15.17 9.77297 16.0635 9.39303 16.9989 9.38373C17.5145 9.39086 18.0235 9.5008 18.496 9.70711C18.9686 9.91342 19.3952 10.2119 19.751 10.5852C20.1067 10.9585 20.3844 11.399 20.5677 11.8809C20.751 12.3628 20.8364 12.8765 20.8187 13.3918C20.8187 15.9551 19.0803 19.4235 17.0049 21.3119L16.3627 21.8408C16.2166 21.9464 16.0697 22.0451 15.9222 22.1326C15.0375 22.6575 14.2741 22.7512 13.653 22.4117ZM23.2885 16.1369L20.8081 18.1797C21.5787 16.6965 22.0134 15.0619 22.0813 13.3918C22.1043 12.0195 21.5822 10.6941 20.6295 9.70605C19.6768 8.71805 18.3712 8.14811 16.9989 8.12119C16.1569 8.12422 15.3308 8.35103 14.6053 8.77839C13.8798 9.20575 13.2809 9.8183 12.8701 10.5533C12.4593 9.81834 11.8605 9.20581 11.135 8.77845C10.4096 8.35109 9.5836 8.12426 8.74165 8.12119C7.37068 8.14112 6.06357 8.70392 5.10695 9.68618C4.15033 10.6684 3.6223 11.99 3.63863 13.361C3.63863 13.3663 3.64006 13.3712 3.64022 13.3764C3.64006 13.3817 3.63863 13.3865 3.63863 13.3918C3.69873 14.9615 4.08969 16.5009 4.78591 17.909L2.82072 16.1475L1.69736 10.8385L7.68009 4.8554L18.2379 4.77433L24.3078 10.8439L23.2885 16.1369Z" fill="#156FF7"/>
<path fill-rule="evenodd" clip-rule="evenodd" d="M6.99609 21.2982L10.3507 24.3023H12.5836H13.0731H15.306L18.6606 21.2982L15.225 23.0938H13.0731H12.5836H10.4317L6.99609 21.2982Z" fill="#156FF7"/>
<path fill-rule="evenodd" clip-rule="evenodd" d="M15.1743 22.8771L18.5628 21.1061L18.8072 21.4587L15.3911 24.518H10.2704L6.85425 21.4587L7.09862 21.1061L10.4872 22.8771H15.1743ZM17.2305 22.2903L15.2804 23.3095H10.381L8.43098 22.2903L10.4357 24.0856H15.2258L17.2305 22.2903Z" fill="#156FF7"/>
</svg>
