<svg width="10" height="17" viewBox="0 0 10 17" fill="none" xmlns="http://www.w3.org/2000/svg">
<path d="M10 0.625V5.625C10.0001 5.7071 9.98395 5.78841 9.95259 5.86428C9.92122 5.94015 9.87521 6.0091 9.81719 6.06719L5.625 10.2586V14.1164L7.05781 12.6828C7.17509 12.5655 7.33415 12.4997 7.5 12.4997C7.66585 12.4997 7.82491 12.5655 7.94219 12.6828C8.05946 12.8001 8.12535 12.9591 8.12535 13.125C8.12535 13.2909 8.05946 13.4499 7.94219 13.5672L5.44219 16.0672C5.38414 16.1253 5.31521 16.1714 5.23934 16.2028C5.16346 16.2343 5.08213 16.2505 5 16.2505C4.91787 16.2505 4.83654 16.2343 4.76066 16.2028C4.68479 16.1714 4.61586 16.1253 4.55781 16.0672L2.05781 13.5672C1.94054 13.4499 1.87465 13.2909 1.87465 13.125C1.87465 12.9591 1.94054 12.8001 2.05781 12.6828C2.17509 12.5655 2.33415 12.4997 2.5 12.4997C2.66585 12.4997 2.82491 12.5655 2.94219 12.6828L4.375 14.1164V10.2586L0.182812 6.06719C0.124791 6.0091 0.0787826 5.94015 0.0474151 5.86428C0.0160475 5.78841 -6.43662e-05 5.7071 1.93247e-07 5.625V0.625C1.93247e-07 0.45924 0.0658483 0.300269 0.183059 0.183058C0.300269 0.0658481 0.45924 0 0.625 0C0.790761 0 0.949732 0.0658481 1.06694 0.183058C1.18415 0.300269 1.25 0.45924 1.25 0.625V5.36641L5 9.11641L8.75 5.36641V0.625C8.75 0.45924 8.81585 0.300269 8.93306 0.183058C9.05027 0.0658481 9.20924 0 9.375 0C9.54076 0 9.69973 0.0658481 9.81694 0.183058C9.93415 0.300269 10 0.45924 10 0.625Z" fill="#455468"/>
</svg>
