<svg width="16" height="16" viewBox="0 0 16 16" fill="none" xmlns="http://www.w3.org/2000/svg">
<g clip-path="url(#clip0_8272_22047)">
<g clip-path="url(#clip1_8272_22047)">
<path d="M7.9987 11.332C8.18759 11.332 8.34603 11.268 8.47403 11.14C8.60203 11.012 8.66581 10.8538 8.66536 10.6654V7.98203C8.66536 7.79314 8.60136 7.63759 8.47336 7.51536C8.34536 7.39314 8.18714 7.33203 7.9987 7.33203C7.80981 7.33203 7.65136 7.39603 7.52336 7.52403C7.39536 7.65203 7.33159 7.81025 7.33203 7.9987V10.682C7.33203 10.8709 7.39603 11.0265 7.52403 11.1487C7.65203 11.2709 7.81025 11.332 7.9987 11.332ZM7.9987 5.9987C8.18759 5.9987 8.34603 5.9347 8.47403 5.8067C8.60203 5.6787 8.66581 5.52048 8.66536 5.33203C8.66536 5.14314 8.60136 4.9847 8.47336 4.8567C8.34536 4.7287 8.18714 4.66492 7.9987 4.66536C7.80981 4.66536 7.65136 4.72936 7.52336 4.85736C7.39536 4.98536 7.33159 5.14359 7.33203 5.33203C7.33203 5.52092 7.39603 5.67936 7.52403 5.80736C7.65203 5.93536 7.81025 5.99914 7.9987 5.9987ZM7.9987 14.6654C7.07648 14.6654 6.20981 14.4903 5.3987 14.14C4.58759 13.7898 3.88203 13.3149 3.28203 12.7154C2.68203 12.1154 2.20714 11.4098 1.85736 10.5987C1.50759 9.78759 1.33248 8.92092 1.33203 7.9987C1.33203 7.07648 1.50714 6.20981 1.85736 5.3987C2.20759 4.58759 2.68248 3.88203 3.28203 3.28203C3.88203 2.68203 4.58759 2.20714 5.3987 1.85736C6.20981 1.50759 7.07648 1.33248 7.9987 1.33203C8.92092 1.33203 9.78759 1.50714 10.5987 1.85736C11.4098 2.20759 12.1154 2.68248 12.7154 3.28203C13.3154 3.88203 13.7905 4.58759 14.1407 5.3987C14.4909 6.20981 14.6658 7.07648 14.6654 7.9987C14.6654 8.92092 14.4903 9.78759 14.14 10.5987C13.7898 11.4098 13.3149 12.1154 12.7154 12.7154C12.1154 13.3154 11.4098 13.7905 10.5987 14.1407C9.78759 14.4909 8.92092 14.6658 7.9987 14.6654Z" fill="#64748B"/>
</g>
</g>
<defs>
<clipPath id="clip0_8272_22047">
<rect width="16" height="16" fill="white"/>
</clipPath>
<clipPath id="clip1_8272_22047">
<rect width="16" height="16" fill="white"/>
</clipPath>
</defs>
</svg>
