<svg width="16" height="18" viewBox="0 0 16 18" fill="none" xmlns="http://www.w3.org/2000/svg">
<path d="M8.0026 14C8.19149 14 8.34994 13.936 8.47794 13.808C8.60594 13.68 8.66972 13.5218 8.66927 13.3333V10.65C8.66927 10.4611 8.60527 10.3056 8.47727 10.1833C8.34927 10.0611 8.19105 10 8.0026 10C7.81372 10 7.65527 10.064 7.52727 10.192C7.39927 10.32 7.33549 10.4782 7.33594 10.6667V13.35C7.33594 13.5389 7.39994 13.6944 7.52794 13.8167C7.65594 13.9389 7.81416 14 8.0026 14ZM8.0026 8.66667C8.19149 8.66667 8.34994 8.60267 8.47794 8.47467C8.60594 8.34667 8.66972 8.18844 8.66927 8C8.66927 7.81111 8.60527 7.65267 8.47727 7.52467C8.34927 7.39667 8.19105 7.33289 8.0026 7.33333C7.81372 7.33333 7.65527 7.39733 7.52727 7.52533C7.39927 7.65333 7.33549 7.81156 7.33594 8C7.33594 8.18889 7.39994 8.34733 7.52794 8.47533C7.65594 8.60333 7.81416 8.66711 8.0026 8.66667ZM8.0026 17.3333C7.08038 17.3333 6.21372 17.1582 5.4026 16.808C4.59149 16.4578 3.88594 15.9829 3.28594 15.3833C2.68594 14.7833 2.21105 14.0778 1.86127 13.2667C1.51149 12.4556 1.33638 11.5889 1.33594 10.6667C1.33594 9.74444 1.51105 8.87778 1.86127 8.06667C2.21149 7.25556 2.68638 6.55 3.28594 5.95C3.88594 5.35 4.59149 4.87511 5.4026 4.52533C6.21372 4.17556 7.08038 4.00044 8.0026 4C8.92483 4 9.79149 4.17511 10.6026 4.52533C11.4137 4.87556 12.1193 5.35044 12.7193 5.95C13.3193 6.55 13.7944 7.25556 14.1446 8.06667C14.4948 8.87778 14.6697 9.74444 14.6693 10.6667C14.6693 11.5889 14.4942 12.4556 14.1439 13.2667C13.7937 14.0778 13.3188 14.7833 12.7193 15.3833C12.1193 15.9833 11.4137 16.4584 10.6026 16.8087C9.79149 17.1589 8.92483 17.3338 8.0026 17.3333Z" fill="#64748B"/>
</svg>
