<?xml version="1.0" encoding="UTF-8"?><svg id="Layer_1" xmlns="http://www.w3.org/2000/svg" xmlns:xlink="http://www.w3.org/1999/xlink" viewBox="0 0 48 48"><defs><style>.cls-1{fill:url(#linear-gradient);}.cls-2{fill:#fff;}.cls-3{fill:#156ff7;}.cls-4{fill:none;stroke:#156ff7;stroke-width:.5px;}</style><linearGradient id="linear-gradient" x1="24" y1="60.24" x2="24" y2="17.39" gradientTransform="translate(0 62.81) scale(1 -1)" gradientUnits="userSpaceOnUse"><stop offset="0" stop-color="#006adb"/><stop offset="1" stop-color="#7ac5ff"/></linearGradient></defs><path class="cls-1" d="M24,2.57h0c11.83,0,21.43,9.59,21.43,21.43h0c0,11.83-9.59,21.43-21.43,21.43h0c-11.83,0-21.43-9.59-21.43-21.43h0C2.57,12.16,12.17,2.57,24,2.57Z"/><path class="cls-2" d="M24,48C10.77,48,0,37.23,0,24S10.77,0,24,0s24,10.77,24,24-10.77,24-24,24Zm0-45.43C12.18,2.57,2.57,12.18,2.57,24s9.61,21.43,21.43,21.43,21.43-9.61,21.43-21.43S35.82,2.57,24,2.57Z"/><path class="cls-2" d="M17.57,26.79v-.64h-1.29v.64c0,1.19,.47,2.34,1.32,3.18s1.99,1.32,3.18,1.32h1.93v-1.29h-1.93c-.85,0-1.67-.34-2.27-.94-.6-.6-.94-1.42-.94-2.27Zm11.57-6.43v.64h1.29v-.64c0-1.19-.47-2.34-1.32-3.18s-1.99-1.32-3.18-1.32h-1.93v1.29h1.93c.42,0,.84,.08,1.23,.24,.39,.16,.74,.4,1.04,.7s.54,.65,.7,1.04c.16,.39,.24,.81,.24,1.23Zm-8.36,0h-3.86c-.51,0-1,.2-1.36,.56-.36,.36-.56,.85-.56,1.36v1.29h1.29v-1.29c0-.17,.07-.33,.19-.45,.12-.12,.28-.19,.45-.19h3.86c.17,0,.33,.07,.45,.19,.12,.12,.19,.28,.19,.45v1.29h1.29v-1.29c0-.51-.2-1-.56-1.36-.36-.36-.85-.56-1.36-.56Zm-1.93-.64c.51,0,1.01-.15,1.43-.43,.42-.28,.75-.68,.95-1.15,.19-.47,.25-.99,.15-1.49-.1-.5-.34-.96-.7-1.32-.36-.36-.82-.6-1.32-.7-.5-.1-1.02-.05-1.49,.15-.47,.19-.87,.52-1.15,.95-.28,.42-.43,.92-.43,1.43,0,.68,.27,1.34,.75,1.82,.48,.48,1.14,.75,1.82,.75Zm0-3.86c.25,0,.5,.08,.71,.22,.21,.14,.38,.34,.47,.58,.1,.23,.12,.49,.07,.74-.05,.25-.17,.48-.35,.66-.18,.18-.41,.3-.66,.35-.25,.05-.51,.02-.74-.07-.23-.1-.44-.26-.58-.47-.14-.21-.22-.46-.22-.71,0-.34,.14-.67,.38-.91s.57-.38,.91-.38Zm12.21,13.5h-3.86c-.51,0-1,.2-1.36,.56-.36,.36-.56,.85-.56,1.36v1.29h1.29v-1.29c0-.17,.07-.33,.19-.45,.12-.12,.28-.19,.45-.19h3.86c.17,0,.33,.07,.45,.19,.12,.12,.19,.28,.19,.45v1.29h1.29v-1.29c0-.51-.2-1-.56-1.36-.36-.36-.85-.56-1.36-.56Zm-4.5-3.21c0,.51,.15,1.01,.43,1.43,.28,.42,.68,.75,1.15,.95,.47,.19,.99,.25,1.49,.15,.5-.1,.96-.34,1.32-.7,.36-.36,.6-.82,.7-1.32,.1-.5,.05-1.02-.15-1.49-.19-.47-.52-.87-.95-1.15-.42-.28-.92-.43-1.43-.43-.68,0-1.34,.27-1.82,.75s-.75,1.14-.75,1.82Zm3.86,0c0,.25-.08,.5-.22,.71-.14,.21-.34,.38-.58,.47-.23,.1-.49,.12-.74,.07-.25-.05-.48-.17-.66-.35-.18-.18-.3-.41-.35-.66-.05-.25-.02-.51,.07-.74,.1-.23,.26-.44,.47-.58,.21-.14,.46-.22,.71-.22,.34,0,.67,.14,.91,.38s.38,.57,.38,.91Z"/><path class="cls-2" d="M8.14,34.07h31.71c3.67,0,6.64,2.97,6.64,6.64h0c0,3.67-2.97,6.64-6.64,6.64H8.14c-3.67,0-6.64-2.97-6.64-6.64h0c0-3.67,2.97-6.64,6.64-6.64Z"/><path class="cls-4" d="M8.14,34.07h31.71c3.67,0,6.64,2.97,6.64,6.64h0c0,3.67-2.97,6.64-6.64,6.64H8.14c-3.67,0-6.64-2.97-6.64-6.64h0c0-3.67,2.97-6.64,6.64-6.64Z"/><path class="cls-3" d="M6.3,37.67v5.61h-1.02v-5.61h1.02Zm5.71,0v5.61h-.9l-2.64-3.82h-.05v3.82h-1.02v-5.61h.91l2.64,3.82h.05v-3.82h1.01Zm.86,.85v-.85h4.48v.85h-1.73v4.76h-1.01v-4.76h-1.73Zm5.34,4.76v-5.61h2.1c.43,0,.79,.07,1.08,.22,.29,.15,.52,.36,.67,.63,.15,.27,.23,.58,.23,.94s-.08,.67-.23,.94c-.15,.26-.38,.47-.67,.61-.3,.14-.66,.21-1.09,.21h-1.5v-.84h1.36c.25,0,.46-.03,.62-.1,.16-.07,.28-.17,.36-.31,.08-.14,.12-.3,.12-.5s-.04-.37-.12-.51c-.08-.14-.2-.25-.36-.32-.16-.07-.37-.11-.62-.11h-.93v4.76h-1.02Zm2.9-2.54l1.39,2.54h-1.13l-1.36-2.54h1.11Zm7.13-.26c0,.6-.11,1.12-.34,1.55-.22,.43-.53,.76-.92,.99-.39,.23-.83,.34-1.32,.34s-.93-.11-1.32-.34c-.39-.23-.69-.56-.92-.99-.22-.43-.34-.95-.34-1.55s.11-1.12,.34-1.55c.23-.43,.53-.76,.92-.99,.39-.23,.83-.34,1.32-.34s.93,.11,1.32,.34c.39,.23,.7,.56,.92,.99,.23,.43,.34,.95,.34,1.55Zm-1.02,0c0-.43-.07-.78-.2-1.08-.13-.29-.31-.52-.55-.67-.23-.15-.5-.23-.81-.23s-.57,.08-.81,.23c-.23,.15-.42,.37-.55,.67-.13,.29-.2,.65-.2,1.08s.07,.79,.2,1.08c.13,.29,.32,.51,.55,.67,.23,.15,.5,.22,.81,.22s.57-.07,.81-.22c.23-.15,.42-.37,.55-.67,.13-.29,.2-.65,.2-1.08Zm5.03-1.26c-.03-.24-.13-.43-.32-.56-.19-.13-.43-.2-.73-.2-.21,0-.39,.03-.55,.1-.15,.06-.27,.15-.35,.26-.08,.11-.12,.23-.12,.38,0,.12,.03,.22,.08,.3,.05,.09,.13,.16,.22,.22,.09,.06,.2,.11,.31,.15,.11,.04,.23,.07,.34,.1l.53,.13c.21,.05,.42,.12,.61,.2,.2,.08,.37,.19,.53,.32,.16,.13,.28,.28,.37,.46s.14,.39,.14,.64c0,.33-.08,.62-.25,.87-.17,.25-.41,.44-.73,.58-.32,.14-.7,.21-1.15,.21s-.82-.07-1.14-.2c-.32-.14-.57-.33-.75-.59-.18-.26-.28-.58-.29-.95h1c.01,.2,.07,.36,.18,.49s.24,.23,.41,.29c.17,.06,.36,.1,.58,.1s.41-.03,.58-.1c.17-.07,.3-.16,.39-.28,.09-.12,.14-.26,.15-.42,0-.15-.04-.27-.13-.36-.08-.1-.2-.18-.35-.24-.15-.07-.33-.12-.53-.18l-.64-.16c-.46-.12-.83-.3-1.1-.54-.27-.24-.4-.57-.4-.97,0-.33,.09-.62,.27-.87,.18-.25,.43-.44,.74-.58,.31-.14,.66-.21,1.05-.21s.75,.07,1.05,.21c.3,.14,.54,.33,.71,.57,.17,.24,.26,.52,.27,.84h-.98Zm4.59,4.07h-1.08l1.98-5.61h1.25l1.98,5.61h-1.08l-1.5-4.46h-.04l-1.5,4.46Zm.04-2.2h2.96v.82h-2.96v-.82Zm5.84-3.41v5.61h-1.02v-5.61h1.02Z"/></svg>