<svg width="16" height="16" viewBox="0 0 16 16" fill="none" xmlns="http://www.w3.org/2000/svg">
<path d="M11.08 1.99287C11.0026 1.91526 10.9106 1.85369 10.8094 1.81168C10.7081 1.76967 10.5996 1.74805 10.49 1.74805C10.3804 1.74805 10.2719 1.76967 10.1706 1.81168C10.0694 1.85369 9.97741 1.91526 9.9 1.99287L4.36 7.53287C4.2982 7.59455 4.24917 7.66781 4.21571 7.74845C4.18226 7.8291 4.16504 7.91556 4.16504 8.00287C4.16504 8.09018 4.18226 8.17664 4.21571 8.25729C4.24917 8.33793 4.2982 8.41119 4.36 8.47287L9.9 14.0129C10.2267 14.3395 10.7533 14.3395 11.08 14.0129C11.4067 13.6862 11.4067 13.1595 11.08 12.8329L6.25334 7.99954L11.0867 3.1662C11.4067 2.8462 11.4067 2.31287 11.08 1.99287Z" fill="#156FF7"/>
</svg>
