<svg width="24" height="24" viewBox="0 0 24 24" fill="none" xmlns="http://www.w3.org/2000/svg">
<path d="M10.2363 7.58789C11.7666 7.5419 13.2569 8.08295 14.4014 9.09961C14.5194 9.20451 14.6156 9.33161 14.6846 9.47363C14.7535 9.61587 14.7934 9.77091 14.8027 9.92871C14.812 10.0864 14.7901 10.2443 14.7383 10.3936C14.6865 10.5429 14.606 10.6807 14.501 10.7988C14.3961 10.9168 14.269 11.0131 14.127 11.082C13.9847 11.151 13.8297 11.1919 13.6719 11.2012C13.5142 11.2104 13.3562 11.1884 13.207 11.1367C13.0577 11.0849 12.9199 11.0035 12.8018 10.8984C12.1154 10.289 11.2213 9.96487 10.3037 9.99219C9.38627 10.0196 8.51405 10.3968 7.86523 11.0459L5.45508 13.4531C4.7801 14.1281 4.4014 15.0436 4.40137 15.998C4.40137 16.9525 4.78014 17.868 5.45508 18.543C6.1302 19.218 7.04621 19.5976 8.00098 19.5977C8.95577 19.5977 9.87173 19.218 10.5469 18.543L11.1406 17.9492C11.252 17.8378 11.3847 17.7498 11.5303 17.6895C11.6758 17.6291 11.8317 17.5977 11.9893 17.5977C12.1469 17.5977 12.3036 17.6291 12.4492 17.6895C12.5946 17.7498 12.7266 17.8379 12.8379 17.9492C12.9497 18.0606 13.0391 18.1931 13.0996 18.3389C13.1601 18.4846 13.1914 18.6411 13.1914 18.7988C13.1914 18.9566 13.1601 19.1131 13.0996 19.2588C13.0391 19.4046 12.9497 19.537 12.8379 19.6484L12.2441 20.2432C11.1188 21.3681 9.59237 22 8.00098 22C6.40957 22 4.88318 21.3681 3.75781 20.2432C2.6324 19.118 2 17.5913 2 16C2.00004 14.4088 2.63245 12.883 3.75781 11.7578L6.16895 9.34766C7.25027 8.26387 8.7059 7.63398 10.2363 7.58789ZM16.002 2C17.5928 2.00002 19.1188 2.63066 20.2451 3.75391V3.75684C21.3692 4.88343 22.0005 6.40965 22 8.00098C21.9994 9.59234 21.3671 11.1183 20.2422 12.2441L17.8311 14.6543C16.7493 15.7365 15.2943 16.365 13.7646 16.4102C12.2349 16.4553 10.7454 15.914 9.60156 14.8975C9.48357 14.7926 9.38729 14.6655 9.31836 14.5234C9.24938 14.3812 9.20948 14.2262 9.2002 14.0684C9.19093 13.9106 9.21286 13.7528 9.26465 13.6035C9.31647 13.4542 9.39691 13.3164 9.50195 13.1982C9.60687 13.0802 9.73391 12.984 9.87598 12.915C10.0182 12.8461 10.1732 12.8052 10.3311 12.7959C10.4887 12.7866 10.6467 12.8087 10.7959 12.8604C10.9453 12.9122 11.083 12.9936 11.2012 13.0986C11.887 13.7088 12.7806 14.0333 13.6982 14.0068C14.616 13.9803 15.4892 13.604 16.1387 12.9551L18.5498 10.5439C19.2248 9.86898 19.6035 8.9535 19.6035 7.99902C19.6035 7.04456 19.2248 6.12908 18.5498 5.4541C17.8747 4.7791 16.9587 4.39942 16.0039 4.39941C15.0491 4.39941 14.1332 4.77909 13.458 5.4541L12.8643 6.04785C12.6389 6.27306 12.3333 6.39936 12.0146 6.39941C11.696 6.39941 11.3904 6.27299 11.165 6.04785C10.9397 5.82258 10.8126 5.51682 10.8125 5.19824C10.8125 4.87954 10.9396 4.57399 11.165 4.34863L11.7588 3.75391C12.8851 2.63069 14.4111 2 16.002 2Z" fill="#64748B"/>
<path d="M10.2363 7.58789C11.7666 7.5419 13.2569 8.08295 14.4014 9.09961C14.5194 9.20451 14.6156 9.33161 14.6846 9.47363C14.7535 9.61587 14.7934 9.77091 14.8027 9.92871C14.812 10.0864 14.7901 10.2443 14.7383 10.3936C14.6865 10.5429 14.606 10.6807 14.501 10.7988C14.3961 10.9168 14.269 11.0131 14.127 11.082C13.9847 11.151 13.8297 11.1919 13.6719 11.2012C13.5142 11.2104 13.3562 11.1884 13.207 11.1367C13.0577 11.0849 12.9199 11.0035 12.8018 10.8984C12.1154 10.289 11.2213 9.96487 10.3037 9.99219C9.38627 10.0196 8.51405 10.3968 7.86523 11.0459L5.45508 13.4531C4.7801 14.1281 4.4014 15.0436 4.40137 15.998C4.40137 16.9525 4.78014 17.868 5.45508 18.543C6.1302 19.218 7.04621 19.5976 8.00098 19.5977C8.95577 19.5977 9.87173 19.218 10.5469 18.543L11.1406 17.9492C11.252 17.8378 11.3847 17.7498 11.5303 17.6895C11.6758 17.6291 11.8317 17.5977 11.9893 17.5977C12.1469 17.5977 12.3036 17.6291 12.4492 17.6895C12.5946 17.7498 12.7266 17.8379 12.8379 17.9492C12.9497 18.0606 13.0391 18.1931 13.0996 18.3389C13.1601 18.4846 13.1914 18.6411 13.1914 18.7988C13.1914 18.9566 13.1601 19.1131 13.0996 19.2588C13.0391 19.4046 12.9497 19.537 12.8379 19.6484L12.2441 20.2432C11.1188 21.3681 9.59237 22 8.00098 22C6.40957 22 4.88318 21.3681 3.75781 20.2432C2.6324 19.118 2 17.5913 2 16C2.00004 14.4088 2.63245 12.883 3.75781 11.7578L6.16895 9.34766C7.25027 8.26387 8.7059 7.63398 10.2363 7.58789ZM16.002 2C17.5928 2.00002 19.1188 2.63066 20.2451 3.75391V3.75684C21.3692 4.88343 22.0005 6.40965 22 8.00098C21.9994 9.59234 21.3671 11.1183 20.2422 12.2441L17.8311 14.6543C16.7493 15.7365 15.2943 16.365 13.7646 16.4102C12.2349 16.4553 10.7454 15.914 9.60156 14.8975C9.48357 14.7926 9.38729 14.6655 9.31836 14.5234C9.24938 14.3812 9.20948 14.2262 9.2002 14.0684C9.19093 13.9106 9.21286 13.7528 9.26465 13.6035C9.31647 13.4542 9.39691 13.3164 9.50195 13.1982C9.60687 13.0802 9.73391 12.984 9.87598 12.915C10.0182 12.8461 10.1732 12.8052 10.3311 12.7959C10.4887 12.7866 10.6467 12.8087 10.7959 12.8604C10.9453 12.9122 11.083 12.9936 11.2012 13.0986C11.887 13.7088 12.7806 14.0333 13.6982 14.0068C14.616 13.9803 15.4892 13.604 16.1387 12.9551L18.5498 10.5439C19.2248 9.86898 19.6035 8.9535 19.6035 7.99902C19.6035 7.04456 19.2248 6.12908 18.5498 5.4541C17.8747 4.7791 16.9587 4.39942 16.0039 4.39941C15.0491 4.39941 14.1332 4.77909 13.458 5.4541L12.8643 6.04785C12.6389 6.27306 12.3333 6.39936 12.0146 6.39941C11.696 6.39941 11.3904 6.27299 11.165 6.04785C10.9397 5.82258 10.8126 5.51682 10.8125 5.19824C10.8125 4.87954 10.9396 4.57399 11.165 4.34863L11.7588 3.75391C12.8851 2.63069 14.4111 2 16.002 2Z" stroke="#64748B"/>
</svg>
