<svg width="64" height="50" viewBox="0 0 64 50" fill="none" xmlns="http://www.w3.org/2000/svg">
<g clip-path="url(#clip0_982_52461)">
<path opacity="0.0526316" d="M94.6769 -5.24303C95.1385 -1.98738 93.7836 5.58784 84.6714 9.84354C73.2811 15.1632 62.0039 10.3486 50.3751 13.6337C41.7921 16.0583 22.3813 26.2251 18.9848 39.8363" stroke="#94A3B8" stroke-width="0.490122"/>
<path opacity="0.105263" d="M92.1598 -10.5148C92.9592 -7.32523 92.4036 0.350111 83.7861 5.53498C73.0143 12.0161 61.2956 8.40671 50.0739 12.8893C41.7914 16.1978 23.5496 28.3379 21.5945 42.2296" stroke="#94A3B8" stroke-width="0.490122"/>
<path opacity="0.157895" d="M89.2488 -15.5054C90.3772 -12.4169 90.6269 -4.72553 82.5986 1.33171C72.5632 8.90326 60.5314 6.5386 49.8397 12.1696C41.9485 16.3257 25.0756 30.3062 24.5833 44.3261" stroke="#94A3B8" stroke-width="0.490122"/>
<path opacity="0.210526" d="M85.9831 -20.1702C87.4282 -17.2165 88.4805 -9.59339 81.1293 -2.73014C71.9404 5.84891 59.7274 4.75487 49.6828 11.4726C42.2692 16.4308 26.9501 32.0984 27.926 46.0929" stroke="#94A3B8" stroke-width="0.490122"/>
<path opacity="0.263158" d="M82.3959 -24.4846C84.1418 -21.6982 85.9852 -14.2268 79.3917 -6.63276C71.1498 2.85981 58.8894 3.04837 49.6021 10.7793C42.7473 16.4853 29.1499 33.6682 31.5832 47.4842" stroke="#94A3B8" stroke-width="0.490122"/>
<path opacity="0.315789" d="M78.5252 -28.39C80.5528 -25.8013 83.1671 -18.5635 77.4035 -10.3219C70.199 -0.019779 58.0254 1.44932 49.5971 10.1087C43.3764 16.4999 31.6495 35.0101 35.5137 48.4959" stroke="#94A3B8" stroke-width="0.490122"/>
<path opacity="0.368421" d="M74.4181 -31.8905C76.7052 -29.528 80.0617 -22.6031 75.1911 -13.8042C69.103 -2.80544 57.1496 -0.0719097 49.6726 9.42099C44.154 16.4275 34.4263 36.062 39.6789 49.0701" stroke="#94A3B8" stroke-width="0.490122"/>
<path opacity="0.421053" d="M70.1089 -34.96C72.6304 -32.8495 76.6924 -26.3134 72.7683 -17.0536C67.8632 -5.47871 56.261 -1.51068 49.8172 8.71177C45.0613 16.2567 37.4391 36.8005 44.0227 49.1883" stroke="#94A3B8" stroke-width="0.490122"/>
<path opacity="0.473684" d="M65.6585 -37.5492C68.3868 -35.7138 73.1097 -29.6382 70.175 -20.0188C66.5067 -7.99467 55.3828 -2.83563 50.0429 8.00438C46.1016 16.0051 40.6687 37.2331 48.5111 48.8649" stroke="#94A3B8" stroke-width="0.490122"/>
<path opacity="0.526316" d="M61.1051 -39.6874C64.0103 -38.1472 69.3424 -32.5985 67.4293 -22.7251C65.0379 -10.3834 54.5143 -4.08984 50.3368 7.24896C47.2534 15.6178 44.0691 37.2975 53.0844 48.0457" stroke="#156FF7" stroke-width="0.6"/>
<path opacity="0.578947" d="M56.4998 -41.322C59.5501 -40.0939 65.433 -35.133 64.5624 -25.1137C63.4742 -12.5896 53.6661 -5.23051 50.6966 6.48286C48.5049 15.1282 47.6042 37.0219 57.6936 46.7689" stroke="#77FF85" stroke-width="0.6"/>
<path opacity="0.631579" d="M51.9002 -42.4827C55.0621 -41.5802 61.4314 -37.2614 61.6128 -27.206C61.8397 -14.6367 52.8546 -6.29274 51.1257 5.66685C49.8497 14.4939 51.2425 36.3619 62.2955 45.0008" stroke="#156FF7" stroke-width="0.6"/>
<path opacity="0.684211" d="M47.3532 -43.1681C50.5921 -42.601 57.3779 -38.9716 58.6095 -28.9903C60.149 -16.5136 52.0852 -7.27613 51.616 4.79866C51.2696 13.7108 54.9406 35.3133 66.8361 42.7496" stroke="#77FF85" stroke-width="0.490122"/>
<path opacity="0.736842" d="M42.9065 -43.3804C46.187 -43.1551 53.315 -40.2548 55.5832 -30.4569C58.4184 -18.2095 51.3644 -8.17974 52.1599 3.87795C52.747 12.7774 58.6559 33.8779 71.2635 40.0301" stroke="#156FF7" stroke-width="0.6"/>
<path opacity="0.789474" d="M38.607 -43.1337C41.893 -43.2525 49.2851 -41.1132 52.565 -31.606C56.6649 -19.7221 50.698 -9.00993 52.7495 2.89856C54.2636 11.6879 62.3458 32.0552 75.5274 36.8558" stroke="#156FF7" stroke-width="0.6"/>
<path opacity="0.842105" d="M34.5079 -42.4493C37.7636 -42.9109 45.3388 -41.5561 49.5945 -32.4438C54.9141 -21.0535 50.0996 -9.77633 53.3847 1.85248C55.8093 10.4354 65.9761 29.8463 79.5873 33.2427" stroke="#30C593" stroke-width="0.6"/>
<path opacity="0.894737" d="M30.6444 -41.3522C33.8339 -42.1516 41.5093 -41.596 46.6942 -32.9785C53.1753 -22.2067 49.5659 -10.488 54.0485 0.733727C57.357 9.0162 69.4971 27.258 83.3888 29.2131" stroke="#156FF7" stroke-width="0.6"/>
<path opacity="0.947368" d="M27.0717 -39.8552C30.1602 -40.9836 37.8516 -41.2333 43.9089 -33.205C51.4804 -23.1697 49.1158 -11.1379 54.7468 -0.446197C58.9029 7.44507 72.8833 24.3179 86.9032 24.8103" stroke="#30C593" stroke-width="0.6"/>
<path d="M23.823 -38.0056C26.7766 -39.4506 34.3998 -40.503 41.263 -33.1518C49.8421 -23.9628 48.748 -11.7498 55.4658 -1.70529C60.424 5.70832 76.0915 21.0274 90.0861 20.0515" stroke="#30C593" stroke-width="0.6"/>
</g>
<defs>
<clipPath id="clip0_982_52461">
<rect width="64" height="50" fill="white"/>
</clipPath>
</defs>
</svg>
