<svg width="16" height="16" viewBox="0 0 16 16" fill="none" xmlns="http://www.w3.org/2000/svg">
<path d="M8.00065 4.66667C7.64703 4.66667 7.30789 4.52619 7.05784 4.27614C6.80779 4.02609 6.66732 3.68696 6.66732 3.33333C6.66732 2.97971 6.80779 2.64057 7.05784 2.39052C7.30789 2.14048 7.64703 2 8.00065 2C8.35427 2 8.69341 2.14048 8.94346 2.39052C9.19351 2.64057 9.33398 2.97971 9.33398 3.33333C9.33398 3.68696 9.19351 4.02609 8.94346 4.27614C8.69341 4.52619 8.35427 4.66667 8.00065 4.66667ZM8.00065 9.33333C7.64703 9.33333 7.30789 9.19286 7.05784 8.94281C6.80779 8.69276 6.66732 8.35362 6.66732 8C6.66732 7.64638 6.80779 7.30724 7.05784 7.05719C7.30789 6.80714 7.64703 6.66667 8.00065 6.66667C8.35427 6.66667 8.69341 6.80714 8.94346 7.05719C9.19351 7.30724 9.33398 7.64638 9.33398 8C9.33398 8.35362 9.19351 8.69276 8.94346 8.94281C8.69341 9.19286 8.35427 9.33333 8.00065 9.33333ZM8.00065 14C7.64703 14 7.30789 13.8595 7.05784 13.6095C6.80779 13.3594 6.66732 13.0203 6.66732 12.6667C6.66732 12.313 6.80779 11.9739 7.05784 11.7239C7.30789 11.4738 7.64703 11.3333 8.00065 11.3333C8.35427 11.3333 8.69341 11.4738 8.94346 11.7239C9.19351 11.9739 9.33398 12.313 9.33398 12.6667C9.33398 13.0203 9.19351 13.3594 8.94346 13.6095C8.69341 13.8595 8.35427 14 8.00065 14Z" fill="#64748B"/>
</svg>
