<svg viewBox="0 0 28 28" fill="none" xmlns="http://www.w3.org/2000/svg">
<g id="iwwa:option-horizontal">
<g id="Group">
<path id="Vector" d="M12 19.5005C11.9999 19.3035 12.0387 19.1084 12.114 18.9264C12.1893 18.7444 12.2998 18.579 12.439 18.4397C12.5782 18.3003 12.7436 18.1898 12.9255 18.1144C13.1075 18.0389 13.3025 18.0001 13.4995 18C13.6965 17.9999 13.8916 18.0387 14.0736 18.114C14.2556 18.1893 14.421 18.2998 14.5603 18.439C14.6997 18.5782 14.8102 18.7436 14.8856 18.9255C14.9611 19.1075 14.9999 19.3025 15 19.4995C15.0001 19.8973 14.8422 20.2789 14.561 20.5603C14.2798 20.8417 13.8983 20.9999 13.5005 21C13.1027 21.0001 12.7211 20.8422 12.4397 20.561C12.1583 20.2798 12.0001 19.8983 12 19.5005Z" fill="currentColor"/>
<path id="Vector_2" d="M11.999 13.5C11.999 14.3284 12.6706 15 13.499 15C14.3275 15 14.999 14.3284 14.999 13.5C14.999 12.6716 14.3275 12 13.499 12C12.6706 12 11.999 12.6716 11.999 13.5Z" fill="currentColor"/>
<path id="Vector_3" d="M11.998 7.5C11.998 8.32843 12.6696 9 13.498 9C14.3265 9 14.998 8.32843 14.998 7.5C14.998 6.67157 14.3265 6 13.498 6C12.6696 6 11.998 6.67157 11.998 7.5Z" fill="currentColor"/>
</g>
</g>
</svg>
