<svg width="14" height="14" viewBox="0 0 14 14" fill="none" xmlns="http://www.w3.org/2000/svg">
<path d="M13 7C13 4.17175 13 2.75725 12.121 1.879C11.242 1.00075 9.82825 1 7 1C4.17175 1 2.75725 1 1.879 1.879C1.00075 2.758 1 4.17175 1 7V11.5C1 12.2073 1 12.5605 1.21975 12.7803C1.4395 13 1.79275 13 2.5 13H7C9.82825 13 11.2427 13 12.121 12.121C12.9992 11.242 13 9.82825 13 7Z" stroke="#156FF7" stroke-width="1.4"/>
<path d="M4.75 5.5H9.25M4.75 8.5H7" stroke="#156FF7" stroke-width="1.4" stroke-linecap="round" stroke-linejoin="round"/>
</svg>
