<svg width="28" height="28" viewBox="0 0 28 28" fill="none" xmlns="http://www.w3.org/2000/svg">
<rect width="28" height="28" rx="4" fill="#FF754C"/>
<path d="M24.2077 16.1876H21.291V13.2709H19.8327V19.8334H8.16602V8.16675H14.7285V6.70841H11.8118V3.79175H10.3535V6.70841H8.16602C7.77924 6.70841 7.40831 6.86206 7.13482 7.13555C6.86133 7.40904 6.70768 7.77997 6.70768 8.16675V10.3542H3.79102V11.8126H6.70768V16.1876H3.79102V17.6459H6.70768V19.8334C6.70768 20.2202 6.86133 20.5911 7.13482 20.8646C7.40831 21.1381 7.77924 21.2917 8.16602 21.2917H10.3535V24.2084H11.8118V21.2917H16.1868V24.2084H17.6452V21.2917H19.8327C20.2193 21.2912 20.5899 21.1373 20.8632 20.864C21.1366 20.5906 21.2904 20.22 21.291 19.8334V17.6459H24.2077V16.1876Z" fill="white"/>
<path d="M21.291 3.79175C20.5177 3.79252 19.7763 4.10006 19.2295 4.64687C18.6827 5.19369 18.3751 5.9351 18.3743 6.70841C18.3772 7.22763 18.5201 7.73646 18.7878 8.18133L16.6141 10.3542H10.3535V17.6459H17.6452V11.3853L19.8181 9.21237C20.263 9.47985 20.7719 9.62242 21.291 9.62508C22.0646 9.62508 22.8064 9.31779 23.3534 8.77081C23.9004 8.22383 24.2077 7.48196 24.2077 6.70841C24.2077 5.93487 23.9004 5.193 23.3534 4.64602C22.8064 4.09904 22.0646 3.79175 21.291 3.79175ZM16.1868 16.1876H11.8118V11.8126H16.1868V16.1876ZM21.291 8.16675C21.0026 8.16675 20.7206 8.08122 20.4808 7.92097C20.241 7.76073 20.0541 7.53297 19.9437 7.26649C19.8333 7.00002 19.8044 6.7068 19.8607 6.42391C19.917 6.14102 20.0559 5.88117 20.2598 5.67722C20.4638 5.47327 20.7236 5.33437 21.0065 5.2781C21.2894 5.22183 21.5826 5.25071 21.8491 5.36109C22.1156 5.47147 22.3433 5.65839 22.5036 5.89821C22.6638 6.13803 22.7493 6.41998 22.7493 6.70841C22.7493 7.09519 22.5957 7.46612 22.3222 7.73961C22.0487 8.0131 21.6778 8.16675 21.291 8.16675Z" fill="white"/>
</svg>
