<svg width="14" height="12" viewBox="0 0 14 12" fill="none" xmlns="http://www.w3.org/2000/svg">
    <path d="M4.2 1.6C4.2 2.3875 3.56562 3 2.8 3C2.0125 3 1.4 2.3875 1.4 1.6C1.4 0.834375 2.0125 0.2 2.8 0.2C3.56562 0.2 4.2 0.834375 4.2 1.6ZM0.546875 5.31875C0.634375 4.4 1.4 3.7 2.29687 3.7H3.28125C3.87187 3.7 4.39687 4.00625 4.70312 4.46563C4.65937 4.4875 4.59375 4.55313 4.55 4.59688L3.15 5.99688C2.66875 6.47813 2.66875 7.24375 3.15 7.725L4.2 8.775V10.35C4.2 10.9406 3.71875 11.4 3.15 11.4H2.45C1.85937 11.4 1.4 10.9406 1.4 10.35V7.83438C0.809375 7.61563 0.415625 7.04688 0.459375 6.39063L0.546875 5.31875ZM12.6 1.6C12.6 2.3875 11.9656 3 11.2 3C10.4125 3 9.8 2.3875 9.8 1.6C9.8 0.834375 10.4125 0.2 11.2 0.2C11.9656 0.2 12.6 0.834375 12.6 1.6ZM9.42812 4.59688C9.38437 4.55313 9.31875 4.4875 9.275 4.46563C9.58125 4.00625 10.1062 3.7 10.6969 3.7H11.6812C12.6 3.7 13.3437 4.4 13.4312 5.31875L13.5187 6.39063C13.5625 7.04688 13.1687 7.61563 12.6 7.83438V10.35C12.6 10.9406 12.1187 11.4 11.55 11.4H10.85C10.2594 11.4 9.8 10.9406 9.8 10.35V8.775L10.8281 7.725C11.3094 7.24375 11.3094 6.47813 10.8281 5.99688L9.42812 4.59688ZM5.95 5.45V6.15H8.05V5.45C8.05 5.25313 8.15937 5.05625 8.35625 4.96875C8.55312 4.90313 8.79375 4.94688 8.94687 5.07813L10.3469 6.47813C10.5437 6.69688 10.5437 7.025 10.3469 7.22188L8.94687 8.62188C8.79375 8.775 8.55312 8.81875 8.35625 8.75313C8.15937 8.66563 8.05 8.46875 8.05 8.25V7.55H5.95V8.25C5.95 8.46875 5.81875 8.66563 5.62187 8.75313C5.425 8.81875 5.18437 8.775 5.05312 8.62188L3.65312 7.22188C3.43437 7.025 3.43437 6.69688 3.65312 6.5L5.05312 5.1C5.18437 4.94688 5.425 4.90313 5.62187 4.96875C5.81875 5.05625 5.95 5.25313 5.95 5.47188V5.45Z" fill="#64748B"/>
</svg>
