<svg width="16" height="16" viewBox="0 0 16 16" fill="none" xmlns="http://www.w3.org/2000/svg">
    <path d="M14.854 1.14616C14.8076 1.09967 14.7524 1.06279 14.6917 1.03763C14.631 1.01246 14.566 0.999512 14.5003 0.999512C14.4346 0.999512 14.3695 1.01246 14.3088 1.03763C14.2481 1.06279 14.193 1.09967 14.1465 1.14616L10.8715 4.42178L10.5359 4.08553C10.1604 3.71112 9.65179 3.50087 9.12153 3.50087C8.59127 3.50087 8.08264 3.71112 7.70715 4.08553L6.25028 5.54303L5.85403 5.14615C5.76021 5.05233 5.63296 4.99963 5.50028 4.99963C5.3676 4.99963 5.24035 5.05233 5.14653 5.14615C5.05271 5.23998 5 5.36722 5 5.49991C5 5.63259 5.05271 5.75984 5.14653 5.85366L5.5434 6.24991L4.0859 7.70678C3.90014 7.8925 3.75278 8.113 3.65224 8.35568C3.5517 8.59836 3.49996 8.85847 3.49996 9.12115C3.49996 9.38384 3.5517 9.64395 3.65224 9.88663C3.75278 10.1293 3.90014 10.3498 4.0859 10.5355L4.42215 10.8712L1.14653 14.1462C1.10007 14.1926 1.06322 14.2478 1.03808 14.3085C1.01294 14.3692 1 14.4342 1 14.4999C1 14.5656 1.01294 14.6307 1.03808 14.6914C1.06322 14.752 1.10007 14.8072 1.14653 14.8537C1.24035 14.9475 1.3676 15.0002 1.50028 15.0002C1.56598 15.0002 1.63103 14.9872 1.69173 14.9621C1.75242 14.937 1.80757 14.9001 1.85403 14.8537L5.12903 11.578L5.46465 11.9143C5.84022 12.2885 6.34882 12.4987 6.87903 12.4987C7.40924 12.4987 7.91783 12.2885 8.2934 11.9143L9.75028 10.4568L10.1465 10.8537C10.193 10.9001 10.2481 10.937 10.3088 10.9621C10.3695 10.9872 10.4346 11.0002 10.5003 11.0002C10.566 11.0002 10.631 10.9872 10.6917 10.9621C10.7524 10.937 10.8076 10.9001 10.854 10.8537C10.9005 10.8072 10.9373 10.752 10.9625 10.6914C10.9876 10.6307 11.0006 10.5656 11.0006 10.4999C11.0006 10.4342 10.9876 10.3692 10.9625 10.3085C10.9373 10.2478 10.9005 10.1926 10.854 10.1462L10.4572 9.7499L11.9147 8.29303C12.1004 8.10731 12.2478 7.88681 12.3483 7.64413C12.4489 7.40145 12.5006 7.14134 12.5006 6.87865C12.5006 6.61597 12.4489 6.35586 12.3483 6.11318C12.2478 5.8705 12.1004 5.65 11.9147 5.46428L11.5784 5.12865L14.854 1.85366C14.9005 1.80722 14.9374 1.75207 14.9626 1.69138C14.9877 1.63068 15.0007 1.56561 15.0007 1.49991C15.0007 1.4342 14.9877 1.36913 14.9626 1.30843C14.9374 1.24774 14.9005 1.19259 14.854 1.14616ZM11.2072 7.58365L9.75028 9.04303L6.95715 6.24991L8.41465 4.79303C8.60217 4.60564 8.85643 4.50037 9.12153 4.50037C9.38663 4.50037 9.64089 4.60564 9.8284 4.79303L11.2072 6.16803C11.3 6.26089 11.3737 6.37114 11.424 6.49248C11.4743 6.61382 11.5001 6.74388 11.5001 6.87522C11.5001 7.00656 11.4743 7.13661 11.424 7.25795C11.3737 7.37929 11.3 7.48954 11.2072 7.58241V7.58365ZM5.5259 2.15803C5.48397 2.03222 5.49372 1.8949 5.55303 1.77628C5.61234 1.65767 5.71634 1.56747 5.84215 1.52553C5.96797 1.48359 6.10528 1.49335 6.2239 1.55266C6.34252 1.61197 6.43272 1.71597 6.47465 1.84178L6.97465 3.34178C6.99542 3.40408 7.00371 3.46985 6.99906 3.53535C6.9944 3.60085 6.97689 3.66479 6.94752 3.72353C6.91816 3.78226 6.87751 3.83463 6.8279 3.87766C6.77829 3.92068 6.7207 3.95351 6.6584 3.97428C6.53259 4.01622 6.39527 4.00646 6.27666 3.94715C6.21792 3.91778 6.16555 3.87714 6.12252 3.82753C6.0795 3.77792 6.04667 3.72033 6.0259 3.65803L5.5259 2.15803ZM1.5259 5.84178C1.54666 5.77948 1.57949 5.72188 1.62252 5.67227C1.66554 5.62266 1.71791 5.58201 1.77665 5.55265C1.83538 5.52328 1.89933 5.50577 1.96483 5.50112C2.03033 5.49646 2.09611 5.50476 2.1584 5.52553L3.6584 6.02553C3.7207 6.0463 3.77829 6.07913 3.8279 6.12215C3.87751 6.16518 3.91816 6.21755 3.94752 6.27628C3.97689 6.33502 3.9944 6.39896 3.99906 6.46446C4.00371 6.52996 3.99542 6.59573 3.97465 6.65803C3.95389 6.72033 3.92106 6.77792 3.87803 6.82753C3.83501 6.87714 3.78263 6.91778 3.7239 6.94715C3.66517 6.97652 3.60123 6.99403 3.53573 6.99868C3.47022 7.00334 3.40445 6.99505 3.34215 6.97428L1.84215 6.47428C1.77985 6.45352 1.72226 6.42069 1.67265 6.37767C1.62304 6.33464 1.58239 6.28227 1.55302 6.22353C1.52365 6.1648 1.50614 6.10086 1.50149 6.03535C1.49684 5.96985 1.50513 5.90408 1.5259 5.84178ZM14.4747 10.158C14.4539 10.2203 14.4211 10.2779 14.378 10.3275C14.335 10.3771 14.2826 10.4178 14.2239 10.4472C14.1652 10.4765 14.1012 10.494 14.0357 10.4987C13.9702 10.5033 13.9044 10.495 13.8422 10.4743L12.3422 9.97428C12.2163 9.93234 12.1123 9.84214 12.053 9.72353C11.9937 9.60491 11.984 9.46759 12.0259 9.34178C12.0678 9.21597 12.158 9.11197 12.2767 9.05266C12.3953 8.99335 12.5326 8.98359 12.6584 9.02553L14.1584 9.52553C14.2207 9.54629 14.2783 9.57912 14.3279 9.62214C14.3775 9.66517 14.4182 9.71754 14.4475 9.77628C14.4769 9.83501 14.4944 9.89895 14.4991 9.96446C14.5037 10.03 14.4954 10.0957 14.4747 10.158ZM10.4747 13.8418C10.5166 13.9676 10.5068 14.1049 10.4475 14.2235C10.3882 14.3421 10.2842 14.4323 10.1584 14.4743C10.0326 14.5162 9.89527 14.5065 9.77666 14.4471C9.65804 14.3878 9.56784 14.2838 9.5259 14.158L9.0259 12.658C8.98397 12.5322 8.99373 12.3949 9.05303 12.2763C9.11234 12.1577 9.21634 12.0675 9.34215 12.0255C9.46797 11.9836 9.60528 11.9934 9.7239 12.0527C9.84252 12.112 9.93272 12.216 9.97465 12.3418L10.4747 13.8418Z" fill="#455468"/>
</svg>
