<svg width="14" height="14" viewBox="0 0 14 14" fill="none" xmlns="http://www.w3.org/2000/svg">
<path d="M12.2887 7.69411C12.1628 8.65408 11.778 9.56168 11.1754 10.3196C10.5729 11.0774 9.77551 11.657 8.86865 11.9961C7.96179 12.3352 6.97972 12.4211 6.02778 12.2445C5.07583 12.0679 4.18991 11.6355 3.46504 10.9937C2.74017 10.3518 2.20368 9.52477 1.91312 8.60121C1.62256 7.67765 1.58888 6.69241 1.81571 5.75117C2.04253 4.80992 2.5213 3.94818 3.20065 3.25835C3.88001 2.56852 4.73434 2.07663 5.67201 1.83544C8.27134 1.16878 10.962 2.50678 11.9553 5.00011" stroke="#156FF7" stroke-width="1.4" stroke-linecap="round" stroke-linejoin="round"/>
<path d="M12.3333 1.66699V5.00033H9" stroke="#156FF7" stroke-width="1.4" stroke-linecap="round" stroke-linejoin="round"/>
</svg>
