<svg width="16" height="16" viewBox="0 0 16 16" fill="none" xmlns="http://www.w3.org/2000/svg">
<path d="M2.66675 12V4M13.3334 8V12" stroke="#64748B" stroke-width="1.5" stroke-linecap="round"/>
<path d="M8.00008 6.66667C10.9454 6.66667 13.3334 5.47333 13.3334 4C13.3334 2.52667 10.9454 1.33333 8.00008 1.33333C5.05475 1.33333 2.66675 2.52667 2.66675 4C2.66675 5.47333 5.05475 6.66667 8.00008 6.66667Z" stroke="#64748B" stroke-width="1.5"/>
<path d="M13.3334 8C13.3334 9.47333 10.9454 10.6667 8.00008 10.6667C5.05475 10.6667 2.66675 9.47333 2.66675 8" stroke="#64748B" stroke-width="1.5" stroke-linecap="round"/>
<path d="M13.3334 12C13.3334 13.4733 10.9454 14.6667 8.00008 14.6667C5.05475 14.6667 2.66675 13.4733 2.66675 12" stroke="#64748B" stroke-width="1.5"/>
</svg>
