<svg width="15" height="18" viewBox="0 0 15 18" fill="none" xmlns="http://www.w3.org/2000/svg">
<path d="M11.6797 1.67969H9.02344C8.67188 0.703125 7.77344 0 6.67969 0C5.58594 0 4.6875 0.703125 4.33594 1.67969H1.67969C0.78125 1.67969 0 2.42188 0 3.35938V15.8594C0 16.7578 0.78125 17.5 1.67969 17.5H6.75781C6.28906 17.0312 5.89844 16.4844 5.58594 15.8594H1.67969V3.35938H3.35938V4.17969C3.35938 5.07812 4.10156 5.85938 5 5.85938H8.35938C9.25781 5.85938 10 5.07812 10 4.17969V3.35938H11.6797V7.57812C12.2656 7.65625 12.8125 7.85156 13.3594 8.08594V3.35938C13.3594 2.42188 12.5781 1.67969 11.6797 1.67969ZM6.67969 3.35938C6.21094 3.35938 5.85938 2.96875 5.85938 2.5C5.85938 2.07031 6.21094 1.67969 6.67969 1.67969C7.14844 1.67969 7.5 2.07031 7.5 2.5C7.5 2.96875 7.14844 3.35938 6.67969 3.35938ZM10.8594 9.17969C8.55469 9.17969 6.67969 11.0547 6.67969 13.3594C6.67969 15.6641 8.55469 17.5 10.8594 17.5C13.1641 17.5 15 15.6641 15 13.3594C15 11.0547 13.1641 9.17969 10.8594 9.17969ZM11.9141 15L10.5469 13.6328C10.4688 13.5547 10.4297 13.4375 10.4297 13.3594V11.2891C10.4297 11.0547 10.5859 10.8594 10.8203 10.8594C11.0547 10.8594 11.25 11.0547 11.25 11.2891V13.1641L12.5 14.4141C12.6562 14.6094 12.6562 14.8438 12.5 15.0391C12.3438 15.1953 12.0703 15.1953 11.9141 15Z" fill="#3B82F6"/>
</svg>
