<svg width="32" height="32" viewBox="0 0 32 32" fill="none" xmlns="http://www.w3.org/2000/svg">
<g clip-path="url(#clip0_2218_2174)">
<rect y="32" width="32" height="32" rx="16" transform="rotate(-90 0 32)" fill="white"/>
<path d="M22 16.75C22.4142 16.75 22.75 16.4142 22.75 16C22.75 15.5858 22.4142 15.25 22 15.25L22 16.75ZM10.156 15.4697C9.86307 15.7626 9.86307 16.2374 10.156 16.5303L14.9289 21.3033C15.2218 21.5962 15.6967 21.5962 15.9896 21.3033C16.2825 21.0104 16.2825 20.5355 15.9896 20.2426L11.747 16L15.9896 11.7574C16.2825 11.4645 16.2825 10.9896 15.9896 10.6967C15.6967 10.4038 15.2218 10.4038 14.9289 10.6967L10.156 15.4697ZM22 15.25L10.6863 15.25L10.6863 16.75L22 16.75L22 15.25Z" fill="#156FF7"/>
</g>
<rect x="0.5" y="31.5" width="31" height="31" rx="15.5" transform="rotate(-90 0.5 31.5)" stroke="#156FF7"/>
<defs>
<clipPath id="clip0_2218_2174">
<rect y="32" width="32" height="32" rx="16" transform="rotate(-90 0 32)" fill="white"/>
</clipPath>
</defs>
</svg>
