<svg width="20" height="20" viewBox="0 0 20 20" fill="none" xmlns="http://www.w3.org/2000/svg">
    <g clip-path="url(#clip0_1279_115901)">
        <path fill-rule="evenodd" clip-rule="evenodd" d="M6.41998 13.5773C6.74542 13.9027 6.74542 14.4304 6.41998 14.7558L3.08665 18.0892C2.76121 18.4146 2.23358 18.4146 1.90814 18.0892C1.5827 17.7637 1.5827 17.2361 1.90814 16.9106L5.24147 13.5773C5.56691 13.2519 6.09455 13.2519 6.41998 13.5773Z" fill="#475569"/>
        <path fill-rule="evenodd" clip-rule="evenodd" d="M10.8474 3.29248C10.9389 2.84144 11.3788 2.55002 11.8298 2.64157C15.0634 3.29795 17.4974 6.1554 17.4974 9.58323C17.4974 13.4952 14.3261 16.6666 10.4141 16.6666C7.32863 16.6666 4.70599 14.6943 3.73399 11.9443C3.58062 11.5103 3.80806 11.0342 4.24199 10.8809C4.67592 10.7275 5.15202 10.9549 5.30539 11.3889C6.04938 13.4938 8.05691 14.9999 10.4141 14.9999C13.4056 14.9999 15.8307 12.5748 15.8307 9.58323C15.8307 6.96366 13.9704 4.77674 11.4983 4.27493C11.0472 4.18337 10.7558 3.74351 10.8474 3.29248Z" fill="#475569"/>
        <path fill-rule="evenodd" clip-rule="evenodd" d="M5.66689 13.7042C5.28395 13.9577 4.76742 13.8524 4.51319 13.469C2.69063 10.7202 2.98614 6.98362 5.4046 4.56517C8.16468 1.80509 12.6438 1.80929 15.4091 4.57456C17.5901 6.75553 18.0524 10.0009 16.7992 12.6282C16.6015 13.0428 16.1048 13.2179 15.6899 13.0194C15.275 12.8209 15.0989 12.3239 15.2966 11.9093C16.2558 9.89829 15.8994 7.41664 14.2332 5.75045C12.1186 3.63584 8.69335 3.63263 6.58271 5.74327C4.7345 7.59147 4.50657 10.4495 5.89995 12.5509C6.15418 12.9343 6.04983 13.4507 5.66689 13.7042Z" fill="#475569"/>
    </g>
    <defs>
        <clipPath id="clip0_1279_115901">
            <rect width="20" height="20" fill="white"/>
        </clipPath>
    </defs>
</svg>
