<svg width="14" height="16" viewBox="0 0 14 16" fill="none" xmlns="http://www.w3.org/2000/svg">
<path d="M7.14667 1.3335H6.85333C6.49971 1.3335 6.16057 1.47397 5.91053 1.72402C5.66048 1.97407 5.52 2.31321 5.52 2.66683V2.78683C5.51976 3.02065 5.45804 3.25029 5.34103 3.45272C5.22401 3.65515 5.05583 3.82325 4.85333 3.94016L4.56667 4.10683C4.36398 4.22385 4.13405 4.28546 3.9 4.28546C3.66595 4.28546 3.43603 4.22385 3.23333 4.10683L3.13333 4.0535C2.82738 3.877 2.46389 3.82913 2.12267 3.92037C1.78145 4.01161 1.49037 4.23452 1.31333 4.54016L1.16667 4.7935C0.990176 5.09945 0.942297 5.46294 1.03354 5.80416C1.12478 6.14538 1.34769 6.43646 1.65333 6.6135L1.75333 6.68016C1.95485 6.7965 2.12241 6.96355 2.23937 7.16472C2.35632 7.36588 2.4186 7.59414 2.42 7.82683V8.16683C2.42093 8.40178 2.35977 8.6328 2.2427 8.8365C2.12563 9.0402 1.95681 9.20936 1.75333 9.32683L1.65333 9.38683C1.34769 9.56386 1.12478 9.85494 1.03354 10.1962C0.942297 10.5374 0.990176 10.9009 1.16667 11.2068L1.31333 11.4602C1.49037 11.7658 1.78145 11.9887 2.12267 12.08C2.46389 12.1712 2.82738 12.1233 3.13333 11.9468L3.23333 11.8935C3.43603 11.7765 3.66595 11.7149 3.9 11.7149C4.13405 11.7149 4.36398 11.7765 4.56667 11.8935L4.85333 12.0602C5.05583 12.1771 5.22401 12.3452 5.34103 12.5476C5.45804 12.75 5.51976 12.9797 5.52 13.2135V13.3335C5.52 13.6871 5.66048 14.0263 5.91053 14.2763C6.16057 14.5264 6.49971 14.6668 6.85333 14.6668H7.14667C7.50029 14.6668 7.83943 14.5264 8.08948 14.2763C8.33953 14.0263 8.48 13.6871 8.48 13.3335V13.2135C8.48024 12.9797 8.54196 12.75 8.65898 12.5476C8.77599 12.3452 8.94418 12.1771 9.14667 12.0602L9.43333 11.8935C9.63603 11.7765 9.86595 11.7149 10.1 11.7149C10.3341 11.7149 10.564 11.7765 10.7667 11.8935L10.8667 11.9468C11.1726 12.1233 11.5361 12.1712 11.8773 12.08C12.2186 11.9887 12.5096 11.7658 12.6867 11.4602L12.8333 11.2002C13.0098 10.8942 13.0577 10.5307 12.9665 10.1895C12.8752 9.84827 12.6523 9.5572 12.3467 9.38016L12.2467 9.32683C12.0432 9.20936 11.8744 9.0402 11.7573 8.8365C11.6402 8.6328 11.5791 8.40178 11.58 8.16683V7.8335C11.5791 7.59855 11.6402 7.36753 11.7573 7.16382C11.8744 6.96012 12.0432 6.79097 12.2467 6.6735L12.3467 6.6135C12.6523 6.43646 12.8752 6.14538 12.9665 5.80416C13.0577 5.46294 13.0098 5.09945 12.8333 4.7935L12.6867 4.54016C12.5096 4.23452 12.2186 4.01161 11.8773 3.92037C11.5361 3.82913 11.1726 3.877 10.8667 4.0535L10.7667 4.10683C10.564 4.22385 10.3341 4.28546 10.1 4.28546C9.86595 4.28546 9.63603 4.22385 9.43333 4.10683L9.14667 3.94016C8.94418 3.82325 8.77599 3.65515 8.65898 3.45272C8.54196 3.25029 8.48024 3.02065 8.48 2.78683V2.66683C8.48 2.31321 8.33953 1.97407 8.08948 1.72402C7.83943 1.47397 7.50029 1.3335 7.14667 1.3335Z" stroke="#156FF7" stroke-width="1.4" stroke-linecap="round" stroke-linejoin="round"/>
<path d="M7 10C8.10457 10 9 9.10457 9 8C9 6.89543 8.10457 6 7 6C5.89543 6 5 6.89543 5 8C5 9.10457 5.89543 10 7 10Z" stroke="#156FF7" stroke-width="1.4" stroke-linecap="round" stroke-linejoin="round"/>
</svg>
