<svg width="16" height="16" viewBox="0 0 16 16" fill="none" xmlns="http://www.w3.org/2000/svg">
<g clip-path="url(#clip0_1695_3776)">
<path d="M8.11441e-06 14.1714C8.11224e-06 14.3533 0.0702461 14.5277 0.19527 14.6563C0.320295 14.7849 0.489864 14.8571 0.666675 14.8571C0.843486 14.8571 1.01306 14.7849 1.13808 14.6563C1.2631 14.5277 1.33334 14.3533 1.33334 14.1714L1.33334 1.82855C1.33334 1.64668 1.2631 1.47227 1.13808 1.34367C1.01306 1.21508 0.843486 1.14283 0.666675 1.14283C0.489864 1.14283 0.320295 1.21508 0.195271 1.34367C0.0702463 1.47227 8.26376e-06 1.64668 8.2616e-06 1.82855L8.11441e-06 14.1714ZM2.86134 7.51449C2.79926 7.57819 2.75 7.65385 2.71639 7.73716C2.68278 7.82047 2.66548 7.90978 2.66548 7.99997C2.66548 8.09017 2.68278 8.17948 2.71639 8.26279C2.75 8.34609 2.79926 8.42176 2.86134 8.48546L7.52801 13.2855C7.58999 13.3492 7.66358 13.3998 7.74456 13.4343C7.82555 13.4688 7.91235 13.4866 8.00001 13.4866C8.08767 13.4866 8.17447 13.4688 8.25545 13.4343C8.33644 13.3998 8.41003 13.3492 8.47201 13.2855C8.53399 13.2217 8.58316 13.146 8.61671 13.0627C8.65025 12.9794 8.66752 12.8901 8.66752 12.8C8.66752 12.7098 8.65025 12.6205 8.61671 12.5372C8.58316 12.4539 8.53399 12.3782 8.47201 12.3145L4.94268 8.68569L15.3333 8.68568C15.5102 8.68568 15.6797 8.61344 15.8047 8.48484C15.9298 8.35625 16 8.18183 16 7.99997C16 7.81811 15.9298 7.64369 15.8047 7.5151C15.6797 7.3865 15.5102 7.31426 15.3333 7.31426L4.94268 7.31426L8.47201 3.68546C8.59719 3.5567 8.66752 3.38207 8.66752 3.19997C8.66752 3.01788 8.59719 2.84325 8.47201 2.71449C8.34683 2.58573 8.17704 2.51339 8.00001 2.51339C7.82297 2.51339 7.65319 2.58573 7.52801 2.71449L2.86134 7.51449Z" fill="#64748B"/>
</g>
<defs>
<clipPath id="clip0_1695_3776">
<rect width="16" height="16" fill="white" transform="translate(8.10623e-06 16) rotate(-90)"/>
</clipPath>
</defs>
</svg>
