<svg width="14" height="14" viewBox="0 0 14 14" fill="none" xmlns="http://www.w3.org/2000/svg">
<path d="M12.8163 9.29673C12.9031 9.44713 12.9268 9.62581 12.8821 9.7936C12.8374 9.9614 12.728 10.1046 12.5779 10.192L7.3279 13.2545C7.22749 13.3131 7.11331 13.344 6.99704 13.344C6.88077 13.344 6.76659 13.3131 6.66618 13.2545L1.41618 10.192C1.26577 10.1043 1.15635 9.96045 1.112 9.7921C1.06764 9.62375 1.09198 9.44467 1.17965 9.29427C1.26733 9.14386 1.41117 9.03444 1.57952 8.99009C1.74787 8.94573 1.92694 8.97007 2.07735 9.05774L6.99922 11.9277L11.9216 9.05774C12.0721 8.97118 12.2507 8.94772 12.4183 8.99251C12.586 9.0373 12.7291 9.14668 12.8163 9.29673ZM11.9216 6.43274L6.99977 9.30274L2.08063 6.43274C1.93065 6.35222 1.75525 6.33312 1.59145 6.37949C1.42766 6.42586 1.28829 6.53406 1.20277 6.68125C1.11725 6.82844 1.09227 7.0031 1.13311 7.16836C1.17395 7.33362 1.27741 7.47655 1.42165 7.56696L6.67165 10.6295C6.77206 10.6881 6.88624 10.719 7.00251 10.719C7.11877 10.719 7.23296 10.6881 7.33337 10.6295L12.5834 7.56696C12.7338 7.47921 12.8432 7.33531 12.8875 7.16691C12.9318 6.99851 12.9074 6.8194 12.8196 6.66899C12.7319 6.51859 12.588 6.4092 12.4196 6.36489C12.2512 6.32059 12.0721 6.34499 11.9216 6.43274ZM1.09352 4.37485C1.09374 4.25986 1.12416 4.14695 1.18175 4.04742C1.23933 3.94789 1.32206 3.86524 1.42165 3.80774L6.67165 0.745243C6.77217 0.68695 6.88631 0.65625 7.00251 0.65625C7.11871 0.65625 7.23284 0.68695 7.33337 0.745243L12.5834 3.80774C12.6826 3.8655 12.7649 3.94827 12.8221 4.04778C12.8793 4.14729 12.9094 4.26007 12.9094 4.37485C12.9094 4.48964 12.8793 4.60241 12.8221 4.70192C12.7649 4.80144 12.6826 4.8842 12.5834 4.94196L7.33337 8.00446C7.23296 8.06308 7.11877 8.09397 7.00251 8.09397C6.88624 8.09397 6.77206 8.06308 6.67165 8.00446L1.42165 4.94196C1.32206 4.88447 1.23933 4.80182 1.18175 4.70229C1.12416 4.60276 1.09374 4.48984 1.09352 4.37485ZM3.05243 4.37485L6.99977 6.67774L10.9471 4.37485L6.99977 2.07196L3.05243 4.37485Z" fill="#455468"/>
</svg>
