<svg width="20" height="20" viewBox="0 0 20 20" fill="none" xmlns="http://www.w3.org/2000/svg">
<path d="M18.3095 13.281C18.4335 13.4959 18.4673 13.7512 18.4034 13.9909C18.3396 14.2306 18.1833 14.4352 17.9689 14.5599L10.4689 18.9349C10.3255 19.0187 10.1624 19.0628 9.99625 19.0628C9.83016 19.0628 9.66704 19.0187 9.5236 18.9349L2.0236 14.5599C1.80873 14.4347 1.65242 14.2292 1.58906 13.9887C1.52569 13.7482 1.56046 13.4924 1.68571 13.2775C1.81096 13.0627 2.01644 12.9063 2.25694 12.843C2.49744 12.7796 2.75326 12.8144 2.96813 12.9396L9.99938 17.0396L17.0314 12.9396C17.2463 12.816 17.5014 12.7825 17.741 12.8464C17.9805 12.9104 18.1849 13.0667 18.3095 13.281ZM17.0314 9.18963L10.0002 13.2896L2.97282 9.18963C2.75856 9.0746 2.50798 9.04732 2.27399 9.11356C2.04 9.17979 1.8409 9.33437 1.71873 9.54464C1.59656 9.75491 1.56088 10.0044 1.61922 10.2405C1.67756 10.4766 1.82536 10.6808 2.03141 10.8099L9.53141 15.1849C9.67485 15.2687 9.83797 15.3128 10.0041 15.3128C10.1702 15.3128 10.3333 15.2687 10.4767 15.1849L17.9767 10.8099C18.1916 10.6846 18.3479 10.479 18.4112 10.2384C18.4744 9.99786 18.4396 9.742 18.3142 9.52713C18.1889 9.31227 17.9833 9.156 17.7427 9.0927C17.5021 9.02941 17.2463 9.06428 17.0314 9.18963ZM1.56266 6.24979C1.56297 6.08552 1.60643 5.92421 1.6887 5.78203C1.77097 5.63984 1.88915 5.52177 2.03141 5.43963L9.53141 1.06463C9.67501 0.981358 9.83807 0.9375 10.0041 0.9375C10.1701 0.9375 10.3331 0.981358 10.4767 1.06463L17.9767 5.43963C18.1184 5.52215 18.236 5.64039 18.3177 5.78254C18.3995 5.9247 18.4425 6.08581 18.4425 6.24979C18.4425 6.41377 18.3995 6.57487 18.3177 6.71703C18.236 6.85919 18.1184 6.97743 17.9767 7.05995L10.4767 11.4349C10.3333 11.5187 10.1702 11.5628 10.0041 11.5628C9.83797 11.5628 9.67485 11.5187 9.53141 11.4349L2.03141 7.05995C1.88915 6.97781 1.77097 6.85974 1.6887 6.71755C1.60643 6.57537 1.56297 6.41406 1.56266 6.24979ZM4.3611 6.24979L10.0002 9.53963L15.6392 6.24979L10.0002 2.95995L4.3611 6.24979Z" fill="#1B4DFF"/>
</svg>
