<svg width="14" height="17" viewBox="0 0 14 17" fill="none" xmlns="http://www.w3.org/2000/svg">
<path d="M13.5672 4.55781L9.19219 0.182813C9.1341 0.124791 9.06515 0.0787825 8.98928 0.0474149C8.91341 0.0160474 8.8321 -6.43662e-05 8.75 1.93249e-07H1.25C0.918479 1.93249e-07 0.600537 0.131696 0.366116 0.366117C0.131696 0.600537 0 0.91848 0 1.25V15C0 15.3315 0.131696 15.6495 0.366116 15.8839C0.600537 16.1183 0.918479 16.25 1.25 16.25H12.5C12.8315 16.25 13.1495 16.1183 13.3839 15.8839C13.6183 15.6495 13.75 15.3315 13.75 15V5C13.7501 4.9179 13.734 4.83659 13.7026 4.76072C13.6712 4.68485 13.6252 4.6159 13.5672 4.55781ZM9.375 2.13359L11.6164 4.375H9.375V2.13359ZM12.5 15H1.25V1.25H8.125V5C8.125 5.16576 8.19085 5.32473 8.30806 5.44194C8.42527 5.55915 8.58424 5.625 8.75 5.625H12.5V15ZM10 8.75C10 8.91576 9.93415 9.07473 9.81694 9.19194C9.69973 9.30915 9.54076 9.375 9.375 9.375H4.375C4.20924 9.375 4.05027 9.30915 3.93306 9.19194C3.81585 9.07473 3.75 8.91576 3.75 8.75C3.75 8.58424 3.81585 8.42527 3.93306 8.30806C4.05027 8.19085 4.20924 8.125 4.375 8.125H9.375C9.54076 8.125 9.69973 8.19085 9.81694 8.30806C9.93415 8.42527 10 8.58424 10 8.75ZM10 11.25C10 11.4158 9.93415 11.5747 9.81694 11.6919C9.69973 11.8092 9.54076 11.875 9.375 11.875H4.375C4.20924 11.875 4.05027 11.8092 3.93306 11.6919C3.81585 11.5747 3.75 11.4158 3.75 11.25C3.75 11.0842 3.81585 10.9253 3.93306 10.8081C4.05027 10.6908 4.20924 10.625 4.375 10.625H9.375C9.54076 10.625 9.69973 10.6908 9.81694 10.8081C9.93415 10.9253 10 11.0842 10 11.25Z" fill="#455468"/>
</svg>
