<svg width="20" height="16" viewBox="0 0 20 16" fill="none" xmlns="http://www.w3.org/2000/svg">
<path d="M10.7027 6.90452C10.8043 6.97226 10.9398 7.00613 11.0414 7.00613C11.2785 7.00613 11.4817 6.87065 11.6172 6.7013L12.5655 5.1433C13.209 4.09334 14.3267 3.48369 15.546 3.48369H16.7653V5.04169C16.7653 5.24491 16.9008 5.41426 17.0702 5.51586C17.1379 5.54973 17.2056 5.54973 17.2734 5.54973C17.4089 5.54973 17.5443 5.48199 17.646 5.41426L19.8475 3.21273C20.0507 3.00951 20.0507 2.70469 19.8475 2.50147L17.646 0.299946C17.5105 0.164467 17.2734 0.096728 17.104 0.198337C16.867 0.198337 16.7653 0.367685 16.7653 0.570902V2.1289H15.5799C13.8864 2.1289 12.3284 3.00951 11.4478 4.43204L10.4995 5.99004C10.3979 6.15939 10.364 6.32873 10.4317 6.49808C10.4317 6.66743 10.5672 6.83678 10.7027 6.90452Z" fill="white"/>
<path d="M9.44767 9.00102C9.34606 8.93328 9.21058 8.89941 9.10897 8.89941C8.87188 8.89941 8.66867 9.03489 8.53319 9.20424L7.58484 10.7622C6.94132 11.8122 5.82362 12.4219 4.60431 12.4219H0.675439C0.302873 12.4219 -0.00195312 12.7267 -0.00195312 13.0992C-0.00195312 13.4718 0.302873 13.7766 0.675439 13.7766H4.57044C6.26392 13.7766 7.82193 12.896 8.70254 11.4735L9.65088 9.9155C9.8541 9.61068 9.75249 9.17037 9.44767 9.00102Z" fill="white"/>
<path d="M17.6102 10.5335C17.4748 10.398 17.2377 10.3302 17.0683 10.4318C16.8651 10.4996 16.7635 10.7028 16.7635 10.906V12.464H15.5781C14.3588 12.464 13.2072 11.8205 12.5975 10.8044L8.70254 4.43692C7.82193 3.0144 6.23005 2.13379 4.57044 2.13379H0.675439C0.302873 2.13379 -0.00195312 2.43862 -0.00195312 2.81118C-0.00195312 3.18375 0.302873 3.48857 0.675439 3.48857H4.57044C5.78975 3.48857 6.94132 4.1321 7.55097 5.14818L11.4121 11.4818C12.2927 12.9043 13.8846 13.7849 15.5442 13.7849H16.7635V15.3429C16.7635 15.5462 16.899 15.7155 17.0683 15.8171C17.1361 15.851 17.2038 15.851 17.2715 15.851C17.407 15.851 17.5425 15.7832 17.6441 15.7155L19.8456 13.514C20.0489 13.3108 20.0489 13.0059 19.8456 12.8027L17.6102 10.5335Z" fill="white"/>
</svg>
