<svg width="18" height="18" viewBox="0 0 18 18" fill="none" xmlns="http://www.w3.org/2000/svg">
<path d="M13.5 2.25C14.2956 2.25 15.0587 2.56607 15.6213 3.12868C16.1839 3.69129 16.5 4.45435 16.5 5.25V11.25C16.5 12.0456 16.1839 12.8087 15.6213 13.3713C15.0587 13.9339 14.2956 14.25 13.5 14.25H9.957L6.3855 16.3927C6.27794 16.4573 6.15591 16.4938 6.03058 16.499C5.90525 16.5042 5.78062 16.4779 5.66809 16.4224C5.55557 16.367 5.45875 16.2842 5.38649 16.1817C5.31424 16.0791 5.26886 15.9601 5.2545 15.8355L5.25 15.75V14.25H4.5C3.73032 14.25 2.99008 13.9542 2.43239 13.4237C1.8747 12.8932 1.54223 12.1687 1.50375 11.4L1.5 11.25V5.25C1.5 4.45435 1.81607 3.69129 2.37868 3.12868C2.94129 2.56607 3.70435 2.25 4.5 2.25H13.5ZM10.5 9H6C5.80109 9 5.61032 9.07902 5.46967 9.21967C5.32902 9.36032 5.25 9.55109 5.25 9.75C5.25 9.94891 5.32902 10.1397 5.46967 10.2803C5.61032 10.421 5.80109 10.5 6 10.5H10.5C10.6989 10.5 10.8897 10.421 11.0303 10.2803C11.171 10.1397 11.25 9.94891 11.25 9.75C11.25 9.55109 11.171 9.36032 11.0303 9.21967C10.8897 9.07902 10.6989 9 10.5 9ZM12 6H6C5.80109 6 5.61032 6.07902 5.46967 6.21967C5.32902 6.36032 5.25 6.55109 5.25 6.75C5.25 6.94891 5.32902 7.13968 5.46967 7.28033C5.61032 7.42098 5.80109 7.5 6 7.5H12C12.1989 7.5 12.3897 7.42098 12.5303 7.28033C12.671 7.13968 12.75 6.94891 12.75 6.75C12.75 6.55109 12.671 6.36032 12.5303 6.21967C12.3897 6.07902 12.1989 6 12 6Z" fill="#156FF7"/>
</svg>
