<svg width="17" height="9" viewBox="0 0 17 9" fill="none" xmlns="http://www.w3.org/2000/svg">
<path d="M12.5 0H10C9.53125 0 9.14062 0.390625 9.14062 0.859375C9.14062 1.28906 9.53125 1.67969 10 1.67969H12.5C13.8672 1.67969 15 2.8125 15 4.17969C15 5.54688 13.8672 6.67969 12.5 6.67969H10C9.53125 6.67969 9.14062 7.07031 9.14062 7.5C9.14062 7.96875 9.53125 8.35938 10 8.35938H12.5C14.8047 8.35938 16.6406 6.48438 16.6406 4.17969C16.6406 1.875 14.8047 0 12.5 0ZM5 4.17969C5 4.64844 5.35156 5 5.82031 5H10.8203C11.2891 5 11.6406 4.64844 11.6406 4.17969C11.6406 3.71094 11.2891 3.35938 10.8203 3.35938H5.82031C5.35156 3.35938 5 3.71094 5 4.17969ZM6.64062 6.67969H4.14062C2.77344 6.67969 1.64062 5.54688 1.64062 4.17969C1.64062 2.8125 2.77344 1.67969 4.14062 1.67969H6.64062C7.10938 1.67969 7.5 1.28906 7.5 0.859375C7.5 0.390625 7.10938 0 6.64062 0H4.14062C1.83594 0 0 1.875 0 4.17969C0 6.48438 1.83594 8.35938 4.14062 8.35938H6.64062C7.10938 8.35938 7.5 7.96875 7.5 7.5C7.5 7.07031 7.10938 6.67969 6.64062 6.67969Z" fill="#10B981"/>
</svg>
