<svg width="16" height="16" viewBox="0 0 16 16" fill="none" xmlns="http://www.w3.org/2000/svg">
<path d="M4.8 14C4.57334 14 4.38347 13.926 4.2304 13.7781C4.07734 13.6302 4.00054 13.4473 4 13.2295C3.99947 13.0117 4.07627 12.8289 4.2304 12.681C4.38454 12.533 4.5744 12.4591 4.8 12.4591H11.2C11.4267 12.4591 11.6168 12.533 11.7704 12.681C11.924 12.8289 12.0005 13.0117 12 13.2295C11.9995 13.4473 11.9227 13.6304 11.7696 13.7789C11.6165 13.9273 11.4267 14.001 11.2 14H4.8ZM8 10.9181C7.77333 10.9181 7.58347 10.8442 7.4304 10.6962C7.27733 10.5483 7.20053 10.3655 7.2 10.1477V4.61959L5.68 6.06421C5.53334 6.20546 5.35014 6.27943 5.1304 6.2861C4.91067 6.29278 4.72054 6.21882 4.56 6.06421C4.41334 5.92296 4.34 5.74318 4.34 5.52488C4.34 5.30659 4.41334 5.12681 4.56 4.98556L7.44 2.21189C7.52 2.13484 7.60667 2.0804 7.7 2.04855C7.79333 2.01671 7.89333 2.00053 8 2.00001C8.10667 1.9995 8.20667 2.01568 8.3 2.04855C8.39333 2.08142 8.48 2.13587 8.56 2.21189L11.44 4.98556C11.5867 5.12681 11.6635 5.3035 11.6704 5.51564C11.6773 5.72777 11.6005 5.91063 11.44 6.06421C11.2933 6.20546 11.1067 6.27609 10.88 6.27609C10.6533 6.27609 10.4667 6.20546 10.32 6.06421L8.8 4.61959V10.1477C8.8 10.366 8.72347 10.5491 8.5704 10.697C8.41733 10.8449 8.2272 10.9186 8 10.9181Z" fill="#64748B"/>
</svg>
