<svg width="11" height="10" viewBox="0 0 11 10" fill="none" xmlns="http://www.w3.org/2000/svg">
<path fill-rule="evenodd" clip-rule="evenodd" d="M1.16219 2.12889C1.16219 0.953216 2.11406 0 3.29109 0C4.46811 0 5.41998 0.953216 5.41998 2.12889C5.41998 3.30457 4.46677 4.25779 3.29109 4.25779C2.11541 4.25779 1.16219 3.30457 1.16219 2.12889ZM8.08413 10H8.08683V9.87327C8.08683 9.80316 8.08683 9.74653 8.08683 9.71282V9.99865H10.5029C10.6526 9.99865 10.7726 9.87866 10.7726 9.729V9.51867C10.7726 7.88459 9.44722 6.55791 7.81313 6.55791C7.70527 6.55791 7.59741 6.5633 7.4909 6.57544C7.86437 7.23743 8.07874 7.99919 8.08144 8.81219C8.08278 9.18296 8.08413 9.54025 8.08413 9.87192C8.08413 9.91102 8.08413 9.95281 8.08278 9.99865L8.08413 10ZM6.49724 3.80342C6.49724 2.99717 7.15114 2.34461 7.95605 2.34461C8.76095 2.34461 9.41486 2.99717 9.41486 3.80342C9.41486 4.60968 8.7623 5.26224 7.95605 5.26224C7.14979 5.26224 6.49724 4.60968 6.49724 3.80342ZM0 8.67736C0 6.85857 1.47499 5.38358 3.29378 5.38358C5.11258 5.38358 6.58757 6.85857 6.58757 8.67736V9.729C6.58757 9.87866 6.46758 9.99865 6.31792 9.99865H0.269651C0.121343 10 0 9.87866 0 9.73035V8.67871V8.67736Z" fill="#93C5FD"/>
</svg>
