<svg width="28" height="28" viewBox="0 0 28 28" fill="none" xmlns="http://www.w3.org/2000/svg">
<path d="M10.0662 14.7858H9.5307C7.79968 14.7858 6.93417 14.7858 6.56524 14.2152C6.19632 13.6445 6.54783 12.8494 7.25087 11.2593L9.36445 6.47877C10.0037 5.033 10.3233 4.31011 10.9433 3.90506C11.5633 3.5 12.3502 3.5 13.9241 3.5H16.3618C18.2737 3.5 19.2297 3.5 19.5902 4.12458C19.9508 4.74915 19.4765 5.58352 18.5279 7.25227L17.2774 9.45219C16.8058 10.2818 16.57 10.6966 16.5733 11.0361C16.5776 11.4774 16.8123 11.8839 17.1913 12.1065C17.4829 12.2779 17.9582 12.2779 18.9086 12.2779C20.1102 12.2779 20.711 12.2779 21.0239 12.4859C21.4304 12.7561 21.6432 13.2396 21.5686 13.7237C21.5112 14.0964 21.1071 14.5432 20.2988 15.437L13.8412 22.5777C12.5728 23.9802 11.9386 24.6815 11.5127 24.4596C11.0869 24.2377 11.2914 23.3125 11.7004 21.4622L12.5016 17.8379C12.8131 16.429 12.9688 15.7245 12.5943 15.2552C12.2198 14.7858 11.5019 14.7858 10.0662 14.7858Z" stroke="#EEFF00" stroke-width="1.75" stroke-linejoin="round"/>
</svg>
