<svg width="1136" height="706" viewBox="0 0 1136 706" fill="none" xmlns="http://www.w3.org/2000/svg">
  <g filter="url(#filter0_f_7495_53814)">
    <path d="M-1159.87 -255C-1258.17 -205.068 -1361.66 -78.7974 -989.267 26.8311C-523.768 158.867 -316.88 121.032 -109.22 428.343C56.9083 674.192 -29.1926 434.005 -93.0088 283.181C-130.578 211.886 -272.414 51.5388 -539.207 -19.498C-806 -90.5348 -922.105 -206.098 -946.808 -255H-1159.87ZM-287.274 -570C-376.01 -524.944 -468.208 -429.066 -327.47 -330H-336.914C-435.212 -280.068 -467.44 -200.127 -95.042 -94.498C369.466 37.2569 385.233 60.5898 591.636 366.043L592.958 368C759.086 613.849 721.765 447.005 657.949 296.181C620.38 224.886 550.543 -23.4612 283.75 -94.498C173.672 -123.808 89.2474 -160.699 26.3105 -197.359C504.769 -78.0533 608.622 -165.77 846.269 185.774C1049.54 486.464 944.188 192.7 866.104 8.23145C820.136 -78.9661 798.589 -195.082 472.149 -281.965C145.71 -368.848 3.64862 -510.189 -26.5771 -570H-287.274ZM-409.821 -136C-473.488 -103.667 -540.52 -21.8998 -299.321 46.5C2.17859 132 136.179 107.5 270.679 306.5C378.279 465.7 322.512 310.167 281.179 212.5C256.845 166.333 164.979 62.5 -7.82129 16.5C-180.621 -29.5001 -255.821 -104.333 -271.821 -136H-409.821Z" fill="url(#paint0_linear_7495_53814)"/>
  </g>
  <defs>
    <filter id="filter0_f_7495_53814" x="-1424" y="-742" width="2560" height="1448" filterUnits="userSpaceOnUse" color-interpolation-filters="sRGB">
      <feFlood flood-opacity="0" result="BackgroundImageFix"/>
      <feBlend mode="normal" in="SourceGraphic" in2="BackgroundImageFix" result="shape"/>
      <feGaussianBlur stdDeviation="86" result="effect1_foregroundBlur_7495_53814"/>
    </filter>
    <linearGradient id="paint0_linear_7495_53814" x1="1128.23" y1="736" x2="-342.992" y2="-105.732" gradientUnits="userSpaceOnUse">
      <stop stop-color="#1B4DFF"/>
      <stop offset="0.557692" stop-color="#44D5BB"/>
      <stop offset="1" stop-color="#44D5BB"/>
    </linearGradient>
  </defs>
</svg>
