<svg width="962" height="704" viewBox="0 0 962 704" fill="none" xmlns="http://www.w3.org/2000/svg">
  <path d="M67.4706 1H1V59.507M67.4706 1V59.507M67.4706 1H133.941M67.4706 59.507H1M67.4706 59.507H133.941M67.4706 59.507V118.014M1 59.507V118.014M133.941 1V59.507M133.941 1H200.412M133.941 59.507H200.412M133.941 59.507V118.014M200.412 1V59.507M200.412 1H266.882M200.412 59.507H266.882M200.412 59.507V118.014M266.882 1V59.507M266.882 1H333.353M266.882 59.507H333.353M266.882 59.507V118.014M333.353 1V59.507M333.353 1H399.824M333.353 59.507H399.824M333.353 59.507V118.014M399.824 1V59.507M399.824 1H466.294M399.824 59.507H466.294M399.824 59.507V118.014M466.294 1V59.507M466.294 1H532.765M466.294 59.507H532.765M466.294 59.507V118.014M532.765 1V59.507M532.765 1H599.235M532.765 59.507H599.235M532.765 59.507V118.014M599.235 1V59.507M599.235 1H665.706M599.235 59.507H665.706M599.235 59.507V118.014M665.706 1V59.507M665.706 1H732.176M665.706 59.507H732.176M665.706 59.507V118.014M732.176 1V59.507M732.176 1H798.647M732.176 59.507H798.647M732.176 59.507V118.014M798.647 1V59.507M798.647 1H865.118M798.647 59.507H865.118M798.647 59.507V118.014M865.118 1V59.507M865.118 1H931.588M865.118 59.507H931.588M865.118 59.507V118.014M931.588 1V59.507M931.588 1H998.059M931.588 59.507H998.059M931.588 59.507V118.014M998.059 1V59.507M998.059 1H1064.53M998.059 59.507H1064.53M998.059 59.507V118.014M1064.53 1V59.507M1064.53 1H1131V59.507M1064.53 59.507H1131M1064.53 59.507V118.014M1131 59.507V118.014M67.4706 118.014H1M67.4706 118.014H133.941M67.4706 118.014V176.521M1 118.014V176.521M133.941 118.014H200.412M133.941 118.014V176.521M200.412 118.014H266.882M200.412 118.014V176.521M266.882 118.014H333.353M266.882 118.014V176.521M333.353 118.014H399.824M333.353 118.014V176.521M399.824 118.014H466.294M399.824 118.014V176.521M466.294 118.014H532.765M466.294 118.014V176.521M532.765 118.014H599.235M532.765 118.014V176.521M599.235 118.014H665.706M599.235 118.014V176.521M665.706 118.014H732.176M665.706 118.014V176.521M732.176 118.014H798.647M732.176 118.014V176.521M798.647 118.014H865.118M798.647 118.014V176.521M865.118 118.014H931.588M865.118 118.014V176.521M931.588 118.014H998.059M931.588 118.014V176.521M998.059 118.014H1064.53M998.059 118.014V176.521M1064.53 118.014H1131M1064.53 118.014V176.521M1131 118.014V176.521M67.4706 176.521H1M67.4706 176.521H133.941M67.4706 176.521V235.028M1 176.521V235.028M133.941 176.521H200.412M133.941 176.521V235.028M200.412 176.521H266.882M200.412 176.521V235.028M266.882 176.521H333.353M266.882 176.521V235.028M333.353 176.521H399.824M333.353 176.521V235.028M399.824 176.521H466.294M399.824 176.521V235.028M466.294 176.521H532.765M466.294 176.521V235.028M532.765 176.521H599.235M532.765 176.521V235.028M599.235 176.521H665.706M599.235 176.521V235.028M665.706 176.521H732.176M665.706 176.521V235.028M732.176 176.521H798.647M732.176 176.521V235.028M798.647 176.521H865.118M798.647 176.521V235.028M865.118 176.521H931.588M865.118 176.521V235.028M931.588 176.521H998.059M931.588 176.521V235.028M998.059 176.521H1064.53M998.059 176.521V235.028M1064.53 176.521H1131M1064.53 176.521V235.028M1131 176.521V235.028M67.4706 235.028H1M67.4706 235.028H133.941M67.4706 235.028V293.535M1 235.028V293.535M133.941 235.028H200.412M133.941 235.028V293.535M200.412 235.028H266.882M200.412 235.028V293.535M266.882 235.028H333.353M266.882 235.028V293.535M333.353 235.028H399.824M333.353 235.028V293.535M399.824 235.028H466.294M399.824 235.028V293.535M466.294 235.028H532.765M466.294 235.028V293.535M532.765 235.028H599.235M532.765 235.028V293.535M599.235 235.028H665.706M599.235 235.028V293.535M665.706 235.028H732.176M665.706 235.028V293.535M732.176 235.028H798.647M732.176 235.028V293.535M798.647 235.028H865.118M798.647 235.028V293.535M865.118 235.028H931.588M865.118 235.028V293.535M931.588 235.028H998.059M931.588 235.028V293.535M998.059 235.028H1064.53M998.059 235.028V293.535M1064.53 235.028H1131M1064.53 235.028V293.535M1131 235.028V293.535M67.4706 293.535H1M67.4706 293.535H133.941M67.4706 293.535V352.042M1 293.535V352.042M133.941 293.535H200.412M133.941 293.535V352.042M200.412 293.535H266.882M200.412 293.535V352.042M266.882 293.535H333.353M266.882 293.535V352.042M333.353 293.535H399.824M333.353 293.535V352.042M399.824 293.535H466.294M399.824 293.535V352.042M466.294 293.535H532.765M466.294 293.535V352.042M532.765 293.535H599.235M532.765 293.535V352.042M599.235 293.535H665.706M599.235 293.535V352.042M665.706 293.535H732.176M665.706 293.535V352.042M732.176 293.535H798.647M732.176 293.535V352.042M798.647 293.535H865.118M798.647 293.535V352.042M865.118 293.535H931.588M865.118 293.535V352.042M931.588 293.535H998.059M931.588 293.535V352.042M998.059 293.535H1064.53M998.059 293.535V352.042M1064.53 293.535H1131M1064.53 293.535V352.042M1131 293.535V352.042M67.4706 352.042H1M67.4706 352.042H133.941M67.4706 352.042V410.549M1 352.042V410.549M133.941 352.042H200.412M133.941 352.042V410.549M200.412 352.042H266.882M200.412 352.042V410.549M266.882 352.042H333.353M266.882 352.042V410.549M333.353 352.042H399.824M333.353 352.042V410.549M399.824 352.042H466.294M399.824 352.042V410.549M466.294 352.042H532.765M466.294 352.042V410.549M532.765 352.042H599.235M532.765 352.042V410.549M599.235 352.042H665.706M599.235 352.042V410.549M665.706 352.042H732.176M665.706 352.042V410.549M732.176 352.042H798.647M732.176 352.042V410.549M798.647 352.042H865.118M798.647 352.042V410.549M865.118 352.042H931.588M865.118 352.042V410.549M931.588 352.042H998.059M931.588 352.042V410.549M998.059 352.042H1064.53M998.059 352.042V410.549M1064.53 352.042H1131M1064.53 352.042V410.549M1131 352.042V410.549M67.4706 410.549H1M67.4706 410.549H133.941M67.4706 410.549V469.056M1 410.549V469.056M133.941 410.549H200.412M133.941 410.549V469.056M200.412 410.549H266.882M200.412 410.549V469.056M266.882 410.549H333.353M266.882 410.549V469.056M333.353 410.549H399.824M333.353 410.549V469.056M399.824 410.549H466.294M399.824 410.549V469.056M466.294 410.549H532.765M466.294 410.549V469.056M532.765 410.549H599.235M532.765 410.549V469.056M599.235 410.549H665.706M599.235 410.549V469.056M665.706 410.549H732.176M665.706 410.549V469.056M732.176 410.549H798.647M732.176 410.549V469.056M798.647 410.549H865.118M798.647 410.549V469.056M865.118 410.549H931.588M865.118 410.549V469.056M931.588 410.549H998.059M931.588 410.549V469.056M998.059 410.549H1064.53M998.059 410.549V469.056M1064.53 410.549H1131M1064.53 410.549V469.056M1131 410.549V469.056M67.4706 469.056H1M67.4706 469.056H133.941M67.4706 469.056V527.563M1 469.056V527.563M133.941 469.056H200.412M133.941 469.056V527.563M200.412 469.056H266.882M200.412 469.056V527.563M266.882 469.056H333.353M266.882 469.056V527.563M333.353 469.056H399.824M333.353 469.056V527.563M399.824 469.056H466.294M399.824 469.056V527.563M466.294 469.056H532.765M466.294 469.056V527.563M532.765 469.056H599.235M532.765 469.056V527.563M599.235 469.056H665.706M599.235 469.056V527.563M665.706 469.056H732.176M665.706 469.056V527.563M732.176 469.056H798.647M732.176 469.056V527.563M798.647 469.056H865.118M798.647 469.056V527.563M865.118 469.056H931.588M865.118 469.056V527.563M931.588 469.056H998.059M931.588 469.056V527.563M998.059 469.056H1064.53M998.059 469.056V527.563M1064.53 469.056H1131M1064.53 469.056V527.563M1131 469.056V527.563M67.4706 527.563H1M67.4706 527.563H133.941M67.4706 527.563V586.07M1 527.563V586.07M133.941 527.563H200.412M133.941 527.563V586.07M200.412 527.563H266.882M200.412 527.563V586.07M266.882 527.563H333.353M266.882 527.563V586.07M333.353 527.563H399.824M333.353 527.563V586.07M399.824 527.563H466.294M399.824 527.563V586.07M466.294 527.563H532.765M466.294 527.563V586.07M532.765 527.563H599.235M532.765 527.563V586.07M599.235 527.563H665.706M599.235 527.563V586.07M665.706 527.563H732.176M665.706 527.563V586.07M732.176 527.563H798.647M732.176 527.563V586.07M798.647 527.563H865.118M798.647 527.563V586.07M865.118 527.563H931.588M865.118 527.563V586.07M931.588 527.563H998.059M931.588 527.563V586.07M998.059 527.563H1064.53M998.059 527.563V586.07M1064.53 527.563H1131M1064.53 527.563V586.07M1131 527.563V586.07M67.4706 586.07H1M67.4706 586.07H133.941M67.4706 586.07V644.577M1 586.07V644.577M133.941 586.07H200.412M133.941 586.07V644.577M200.412 586.07H266.882M200.412 586.07V644.577M266.882 586.07H333.353M266.882 586.07V644.577M333.353 586.07H399.824M333.353 586.07V644.577M399.824 586.07H466.294M399.824 586.07V644.577M466.294 586.07H532.765M466.294 586.07V644.577M532.765 586.07H599.235M532.765 586.07V644.577M599.235 586.07H665.706M599.235 586.07V644.577M665.706 586.07H732.176M665.706 586.07V644.577M732.176 586.07H798.647M732.176 586.07V644.577M798.647 586.07H865.118M798.647 586.07V644.577M865.118 586.07H931.588M865.118 586.07V644.577M931.588 586.07H998.059M931.588 586.07V644.577M998.059 586.07H1064.53M998.059 586.07V644.577M1064.53 586.07H1131M1064.53 586.07V644.577M1131 586.07V644.577M67.4706 644.577H1M67.4706 644.577H133.941M67.4706 644.577V703.083M1 644.577V703.083H67.4706M133.941 644.577H200.412M133.941 644.577V703.083M200.412 644.577H266.882M200.412 644.577V703.083M266.882 644.577H333.353M266.882 644.577V703.083M333.353 644.577H399.824M333.353 644.577V703.083M399.824 644.577H466.294M399.824 644.577V703.083M466.294 644.577H532.765M466.294 644.577V703.083M532.765 644.577H599.235M532.765 644.577V703.083M599.235 644.577H665.706M599.235 644.577V703.083M665.706 644.577H732.176M665.706 644.577V703.083M732.176 644.577H798.647M732.176 644.577V703.083M798.647 644.577H865.118M798.647 644.577V703.083M865.118 644.577H931.588M865.118 644.577V703.083M931.588 644.577H998.059M931.588 644.577V703.083M998.059 644.577H1064.53M998.059 644.577V703.083M1064.53 644.577H1131M1064.53 644.577V703.083M1131 644.577V703.083H1064.53M67.4706 703.083H133.941M133.941 703.083H200.412M200.412 703.083H266.882M266.882 703.083H333.353M333.353 703.083H399.824M399.824 703.083H466.294M466.294 703.083H532.765M532.765 703.083H599.235M599.235 703.083H665.706M665.706 703.083H732.176M732.176 703.083H798.647M798.647 703.083H865.118M865.118 703.083H931.588M931.588 703.083H998.059M998.059 703.083H1064.53" stroke="url(#paint0_radial_7495_53820)" stroke-opacity="0.7" stroke-width="1.49321"/>
  <defs>
    <radialGradient id="paint0_radial_7495_53820" cx="0" cy="0" r="1" gradientTransform="matrix(669.439 759.647 -1296.52 1028.4 126.556 -30.342)" gradientUnits="userSpaceOnUse">
      <stop offset="0.123834" stop-color="white" stop-opacity="0"/>
      <stop offset="0.515437" stop-color="white" stop-opacity="0.7"/>
      <stop offset="1" stop-color="white" stop-opacity="0"/>
    </radialGradient>
  </defs>
</svg>
