<svg width="240" height="235" viewBox="0 0 240 235" fill="none" xmlns="http://www.w3.org/2000/svg">
<path d="M169.225 66.3083L169.225 66.3082C169.774 65.9945 170.058 65.4005 170.058 64.789C170.058 64.1776 169.774 63.5837 169.225 63.27L169.225 66.3083ZM169.225 66.3083L122.64 92.9914C121.438 93.6785 120.071 93.6785 118.869 92.9914L118.869 92.9911L9.08327 30.4912C8.62873 30.1838 8.37949 29.5929 8.37949 28.9677C8.37949 28.3424 8.62888 27.7513 9.0837 27.4439L55.4654 0.772386C56.6692 0.260563 58.0514 0.255676 59.4491 0.775466L169.225 63.2698L169.225 66.3083ZM112.592 175.668L112.593 175.668C113.793 176.354 114.476 177.55 114.476 178.924V233.021C114.476 234.281 113.048 235.09 111.927 234.449L64.795 207.4L64.7946 207.4C63.5946 206.714 62.911 205.518 62.911 204.145V150.047C62.911 149.312 63.2759 148.758 63.7651 148.483C64.2528 148.21 64.8792 148.206 65.4386 148.606L65.4487 148.613L65.4595 148.619L112.592 175.668ZM114.476 161.743V161.744C114.476 162.284 114.215 162.609 113.866 162.775C113.506 162.945 113.038 162.951 112.643 162.797L55.1123 129.909C53.6756 129.088 51.8153 130.107 51.8153 131.771V196.651C51.8153 197.276 51.4222 197.841 50.8899 198.148C50.3583 198.455 49.7473 198.475 49.3024 198.104L49.2851 198.09L49.2655 198.079L2.13362 171.396C2.13341 171.396 2.1332 171.396 2.13299 171.396C0.933338 170.71 0.25 169.514 0.25 168.141V42.2179C0.25 41.5932 0.643111 41.0283 1.17542 40.7211C1.70695 40.4143 2.31801 40.3942 2.76289 40.7651L2.77997 40.7793L2.79929 40.7903L112.572 103.283C113.821 104.359 114.659 105.569 114.659 106.915C114.659 106.915 114.659 106.915 114.659 106.915L114.476 161.743ZM236.336 41.8869L236.336 41.8867C237.44 41.2558 238.885 42.0345 238.885 43.4972V169.054C238.885 170.428 238.201 171.624 237.001 172.31C237.001 172.31 237.001 172.31 237.001 172.31L128.121 234.449L128.11 234.455L128.1 234.462C127.551 234.854 126.929 234.818 126.433 234.52C125.931 234.219 125.572 233.657 125.572 233.021V179.106C125.572 177.733 126.256 176.537 127.456 175.851L127.456 175.851L185.732 142.406C187.09 141.63 187.868 140.267 187.868 138.716V138.715L187.685 71.658C187.863 70.2666 188.557 69.0701 189.751 68.3871L236.336 41.8869ZM128.121 162.441L128.11 162.447L128.1 162.454C127.551 162.846 126.929 162.81 126.433 162.512C125.931 162.211 125.572 161.649 125.572 161.013V107.098C125.572 105.719 126.258 104.541 127.43 104.038L127.443 104.033L127.455 104.026L174.04 77.5254L174.051 77.5191L174.062 77.5115C174.61 77.1196 175.232 77.1559 175.729 77.4539C176.231 77.7553 176.589 78.317 176.589 78.953V133.781C176.589 134.108 176.507 134.432 176.368 134.691C176.227 134.952 176.042 135.124 175.847 135.189L175.823 135.197L175.802 135.209L128.121 162.441ZM180.616 0.765636L180.617 0.765323C181.819 0.0782257 183.186 0.0782257 184.388 0.765323L231.703 27.8141C232.252 28.1277 232.537 28.7217 232.537 29.3333C232.537 29.9448 232.252 30.5388 231.703 30.8524L184.754 57.5353L184.753 57.5356C183.551 58.2227 182.184 58.2227 180.982 57.5356L133.667 30.4869C133.118 30.1733 132.834 29.5793 132.834 28.9677C132.834 28.3562 133.118 27.7622 133.667 27.4485L180.616 0.765636Z" stroke="url(#paint0_linear_4607_72520)" stroke-opacity="0.6" stroke-width="0.5"/>
<defs>
<linearGradient id="paint0_linear_4607_72520" x1="-13.177" y1="117.499" x2="212.837" y2="40.4044" gradientUnits="userSpaceOnUse">
<stop stop-color="#427DFF"/>
<stop offset="1" stop-color="#44D5BB"/>
</linearGradient>
</defs>
</svg>
