<svg width="27" height="24" viewBox="0 0 27 24" fill="none" xmlns="http://www.w3.org/2000/svg">
<path d="M25.9374 10.0325L22.6956 6.7907L23.2641 0.817936C23.2762 0.692078 23.2502 0.565492 23.1895 0.454581C23.1288 0.343671 23.0362 0.25355 22.9236 0.195898C22.8111 0.138245 22.6839 0.115719 22.5584 0.131238C22.4329 0.146756 22.315 0.199605 22.2199 0.282934L18.7607 3.30969C18.7454 3.32307 18.739 3.34163 18.7253 3.35609L8.01634 3.43851C7.98945 3.39137 7.95635 3.34804 7.91795 3.30969L4.4588 0.282934C4.3637 0.199605 4.24578 0.146756 4.12029 0.131238C3.99481 0.115719 3.86756 0.138245 3.75504 0.195898C3.64251 0.25355 3.54989 0.343671 3.48918 0.454581C3.42848 0.565492 3.40248 0.692078 3.41456 0.817936L4.01095 7.08393L1.06257 10.0325L1.06109 10.0347C1.00226 10.0939 0.955659 10.164 0.923968 10.2411C0.89339 10.3164 0.877615 10.3971 0.877728 10.4783L0.877625 10.479C0.877609 10.5228 0.882137 10.5665 0.891137 10.6093L2.12794 16.4546C2.15568 16.5858 2.22445 16.7047 2.32429 16.7941L8.61423 22.4322C8.70943 22.5142 8.82736 22.5652 8.9523 22.5785C9.17639 22.7537 9.41064 22.9155 9.65383 23.063C10.2899 23.4688 11.0237 23.6955 11.7778 23.7192C12.0588 23.7184 12.3382 23.6766 12.6072 23.5952C12.6639 23.6802 12.7406 23.75 12.8305 23.7986C12.9205 23.8471 13.0209 23.873 13.1231 23.8738H13.9879C14.0737 23.8732 14.1585 23.8549 14.2369 23.8203C14.3154 23.7856 14.3859 23.7352 14.4442 23.6721C14.6085 23.702 14.7752 23.7177 14.9422 23.7192C15.6963 23.6955 16.4301 23.4688 17.0662 23.063C17.1093 23.0375 17.1516 23.0052 17.1946 22.9783C17.2752 22.9559 17.3505 22.9173 17.4158 22.865L17.6642 22.6605C17.8724 22.506 18.0775 22.3347 18.2803 22.1531L24.7665 16.8115C24.8801 16.7181 24.9575 16.588 24.9852 16.4437L26.111 10.5983C26.1305 10.497 26.1249 10.3925 26.0947 10.2938C26.0644 10.1952 26.0104 10.1054 25.9374 10.0325ZM21.5377 5.63276L19.8977 3.99275L21.8567 2.27853L21.5377 5.63276ZM4.82191 2.27853L6.95211 4.14255L5.1688 5.92595L4.82191 2.27853ZM14.153 22.2561C14.1326 22.2461 14.1116 22.2373 14.0902 22.2296L14.0517 21.2986L15.6195 20.3187C15.7377 20.245 15.8282 20.1342 15.8768 20.0037C15.9255 19.8732 15.9296 19.7302 15.8885 19.5971C15.8459 19.465 15.7616 19.3502 15.6482 19.27C15.5348 19.1899 15.3985 19.1486 15.2598 19.1525L13.5006 19.2238L11.853 19.1525C11.7139 19.1477 11.5771 19.1884 11.4634 19.2685C11.3497 19.3486 11.2652 19.4637 11.223 19.5963C11.1817 19.7294 11.1857 19.8725 11.2342 20.0032C11.2828 20.1339 11.3733 20.2449 11.4915 20.3187L12.7926 21.1319C12.7868 21.1702 12.7845 21.209 12.7857 21.2477L12.8243 22.1819C12.7341 22.1877 12.6464 22.2131 12.567 22.2561C11.9458 22.5956 11.182 22.5018 10.2978 21.977C7.78111 20.4843 5.40125 16.2363 5.40125 13.2362C5.40125 13.2309 5.39983 13.226 5.39967 13.2208C5.39983 13.2155 5.40125 13.2106 5.40125 13.2054C5.38682 12.6906 5.47529 12.1782 5.66147 11.6981C5.84764 11.218 6.12779 10.7799 6.48547 10.4095C6.84316 10.039 7.27119 9.74375 7.74448 9.54088C8.21777 9.33802 8.72679 9.23168 9.24171 9.22809C10.1771 9.23741 11.0706 9.61737 11.7262 10.2846C12.3818 10.9519 12.746 11.8519 12.7389 12.7873C12.7401 12.9539 12.8072 13.1133 12.9254 13.2307C13.0437 13.3481 13.2035 13.4139 13.3701 13.4139C13.5368 13.4139 13.6966 13.3481 13.8149 13.2307C13.9331 13.1133 14.0002 12.9539 14.0014 12.7873C13.9944 11.8519 14.3587 10.9518 15.0143 10.2846C15.67 9.61733 16.5636 9.23739 17.499 9.22809C18.0146 9.23522 18.5235 9.34516 18.9961 9.55147C19.4687 9.75778 19.8953 10.0563 20.251 10.4296C20.6067 10.8028 20.8844 11.2433 21.0678 11.7253C21.2511 12.2072 21.3364 12.7209 21.3188 13.2362C21.3188 15.7994 19.5804 19.2678 17.5049 21.1563L16.8628 21.6852C16.7167 21.7908 16.5697 21.8895 16.4222 21.977C15.5376 22.5018 14.7742 22.5956 14.153 22.2561ZM23.7886 15.9813L21.3082 18.024C22.0788 16.5409 22.5134 14.9062 22.5813 13.2362C22.6043 11.8639 22.0822 10.5384 21.1295 9.55041C20.1768 8.56241 18.8713 7.99247 17.499 7.96556C16.657 7.96858 15.8309 8.19539 15.1054 8.62275C14.3799 9.05011 13.781 9.66266 13.3701 10.3976C12.9593 9.6627 12.3605 9.05017 11.6351 8.62281C10.9097 8.19545 10.0837 7.96862 9.24171 7.96556C7.87074 7.98548 6.56363 8.54828 5.60701 9.53054C4.65039 10.5128 4.12236 11.8343 4.13869 13.2054C4.13869 13.2106 4.14012 13.2155 4.14028 13.2208C4.14012 13.226 4.13869 13.2309 4.13869 13.2362C4.19879 14.8059 4.58975 16.3452 5.28597 17.7534L3.32078 15.9918L2.19742 10.6829L8.18015 4.69976L18.7379 4.61869L24.8079 10.6883L23.7886 15.9813Z" fill="#156FF7"/>
</svg>
