<svg width="54" height="57" viewBox="0 0 54 57" fill="none" xmlns="http://www.w3.org/2000/svg">
<g filter="url(#filter0_d_1716_8485)">
<g filter="url(#filter1_i_1716_8485)">
<rect x="3" y="3.5" width="48" height="48" rx="24" fill="#D0E0F3"/>
<rect x="3" y="3.5" width="48" height="48" rx="24" fill="url(#paint0_radial_1716_8485)"/>
<rect x="3" y="3.5" width="48" height="48" rx="24" fill="url(#paint1_radial_1716_8485)"/>
<rect x="3" y="3.5" width="48" height="48" rx="24" fill="url(#paint2_radial_1716_8485)"/>
<rect x="3" y="3.5" width="48" height="48" rx="24" fill="url(#paint3_radial_1716_8485)"/>
<rect x="3" y="3.5" width="48" height="48" rx="24" fill="url(#paint4_radial_1716_8485)"/>
<rect x="3" y="3.5" width="48" height="48" rx="24" fill="url(#paint5_radial_1716_8485)"/>
</g>
<circle cx="27" cy="27.5" r="20.8" fill="white"/>
<path d="M38.7565 25.4233L35.713 22.3798L36.2467 16.7725C36.258 16.6543 36.2336 16.5355 36.1766 16.4313C36.1196 16.3272 36.0327 16.2426 35.9271 16.1885C35.8214 16.1343 35.7019 16.1132 35.5841 16.1278C35.4663 16.1423 35.3556 16.192 35.2663 16.2702L32.0188 19.1118C32.0044 19.1243 31.9984 19.1418 31.9855 19.1553L21.9317 19.2327C21.9065 19.1885 21.8754 19.1478 21.8394 19.1118L18.5918 16.2702C18.5025 16.192 18.3918 16.1423 18.274 16.1278C18.1562 16.1132 18.0368 16.1344 17.9311 16.1885C17.8255 16.2426 17.7385 16.3272 17.6815 16.4313C17.6245 16.5355 17.6001 16.6543 17.6115 16.7725L18.1714 22.6551L15.4034 25.4233L15.402 25.4254C15.3467 25.4809 15.303 25.5468 15.2732 25.6192C15.2445 25.6898 15.2297 25.7656 15.2298 25.8418L15.2297 25.8425C15.2297 25.8836 15.234 25.9246 15.2424 25.9648L16.4036 31.4526C16.4296 31.5757 16.4942 31.6873 16.5879 31.7713L22.493 37.0644C22.5824 37.1414 22.6931 37.1893 22.8104 37.2017C23.0208 37.3662 23.2407 37.5181 23.469 37.6567C24.0662 38.0376 24.7551 38.2505 25.4631 38.2727C25.7269 38.2719 25.9892 38.2327 26.2417 38.1563C26.295 38.2361 26.367 38.3016 26.4514 38.3472C26.5358 38.3928 26.6301 38.417 26.7261 38.4178L27.538 38.4178C27.6185 38.4172 27.6981 38.4001 27.7718 38.3676C27.8454 38.335 27.9117 38.2877 27.9663 38.2285C28.1206 38.2565 28.2771 38.2713 28.4339 38.2727C29.1419 38.2505 29.8308 38.0376 30.4279 37.6567C30.4684 37.6327 30.5081 37.6024 30.5484 37.5772C30.6242 37.5561 30.6948 37.5199 30.7562 37.4707L30.9893 37.2787C31.1848 37.1337 31.3774 36.9729 31.5678 36.8024L37.6572 31.7876C37.7638 31.6999 37.8364 31.5778 37.8625 31.4423L38.9194 25.9545C38.9378 25.8594 38.9325 25.7612 38.9041 25.6686C38.8757 25.576 38.825 25.4918 38.7565 25.4233ZM34.6259 21.2927L33.0862 19.753L34.9254 18.1437L34.6259 21.2927ZM18.9327 18.1437L20.9326 19.8937L19.2584 21.568L18.9327 18.1437ZM27.693 36.8991C27.6738 36.8897 27.6541 36.8814 27.634 36.8743L27.5979 36.0002L29.0698 35.0803C29.1807 35.011 29.2657 34.9071 29.3113 34.7845C29.357 34.662 29.3609 34.5277 29.3223 34.4028C29.2823 34.2787 29.2031 34.171 29.0967 34.0957C28.9903 34.0205 28.8623 33.9817 28.732 33.9853L27.0805 34.0523L25.5336 33.9853C25.4031 33.9808 25.2747 34.0191 25.1679 34.0943C25.0611 34.1695 24.9819 34.2776 24.9422 34.402C24.9034 34.527 24.9072 34.6614 24.9528 34.7841C24.9984 34.9067 25.0833 35.0109 25.1943 35.0803L26.4158 35.8437C26.4103 35.8797 26.4081 35.9161 26.4093 35.9524L26.4455 36.8294C26.3609 36.8349 26.2785 36.8587 26.204 36.8991C25.6208 37.2178 24.9037 37.1298 24.0736 36.637C21.7109 35.2357 19.4766 31.2476 19.4766 28.431C19.4766 28.426 19.4753 28.4215 19.4751 28.4165C19.4753 28.4116 19.4766 28.407 19.4766 28.4021C19.4631 27.9188 19.5461 27.4377 19.7209 26.987C19.8957 26.5363 20.1587 26.125 20.4945 25.7772C20.8303 25.4295 21.2322 25.1522 21.6765 24.9618C22.1208 24.7713 22.5987 24.6715 23.0821 24.6681C23.9603 24.6769 24.7991 25.0336 25.4146 25.66C26.0301 26.2864 26.372 27.1314 26.3653 28.0096C26.3665 28.166 26.4295 28.3156 26.5405 28.4258C26.6515 28.536 26.8016 28.5979 26.958 28.5979C27.1144 28.5979 27.2645 28.536 27.3755 28.4258C27.4866 28.3156 27.5495 28.166 27.5507 28.0096C27.5441 27.1314 27.886 26.2864 28.5016 25.66C29.1172 25.0335 29.9561 24.6768 30.8343 24.6681C31.3183 24.6748 31.7961 24.778 32.2398 24.9717C32.6834 25.1654 33.084 25.4457 33.4179 25.7961C33.7519 26.1465 34.0126 26.5601 34.1847 27.0125C34.3568 27.465 34.437 27.9472 34.4204 28.431C34.4204 30.8374 32.7883 34.0937 30.8398 35.8666L30.237 36.3631C30.0998 36.4622 29.9618 36.5549 29.8234 36.637C28.9929 37.1298 28.2761 37.2178 27.693 36.8991ZM36.7391 31.0082L34.4104 32.926C35.1339 31.5335 35.542 29.9989 35.6057 28.431C35.6273 27.1426 35.1371 25.8983 34.2427 24.9707C33.3483 24.0431 32.1226 23.5081 30.8343 23.4828C30.0438 23.4857 29.2682 23.6986 28.5871 24.0998C27.906 24.501 27.3437 25.0761 26.958 25.7661C26.5723 25.0761 26.0102 24.5011 25.3291 24.0999C24.6481 23.6986 23.8726 23.4857 23.0821 23.4828C21.795 23.5015 20.5679 24.0299 19.6698 24.9521C18.7717 25.8742 18.276 27.1149 18.2913 28.4021C18.2913 28.407 18.2926 28.4116 18.2928 28.4165C18.2926 28.4215 18.2913 28.426 18.2913 28.431C18.3477 29.9047 18.7148 31.3499 19.3684 32.6719L17.5234 31.0181L16.4688 26.0339L22.0855 20.4168L31.9974 20.3407L37.696 26.039L36.7391 31.0082Z" fill="#156FF7"/>
<path fill-rule="evenodd" clip-rule="evenodd" d="M21.4434 35.8539L24.5927 38.6742L26.6891 38.6742L27.1486 38.6742L29.2449 38.6742L32.3943 35.8539L29.1688 37.5396L27.1486 37.5396L26.6891 37.5396L24.6688 37.5396L21.4434 35.8539Z" fill="#156FF7"/>
<path fill-rule="evenodd" clip-rule="evenodd" d="M29.1213 37.3359L32.3026 35.6732L32.532 36.0043L29.3249 38.8764L24.5175 38.8764L21.3103 36.0043L21.5397 35.6732L24.721 37.3359L29.1213 37.3359ZM31.0518 36.785L29.221 37.7418L24.6213 37.7418L22.7906 36.785L24.6727 38.4705L29.1697 38.4705L31.0518 36.785Z" fill="#156FF7"/>
</g>
<rect x="6.25" y="40.75" width="42.5" height="15.5" rx="7.75" fill="white"/>
<rect x="6.25" y="40.75" width="42.5" height="15.5" rx="7.75" stroke="#156FF7" stroke-width="0.5"/>
<path d="M12.3604 51.5V44.9545H13.5462V47.7255H16.5792V44.9545H17.7681V51.5H16.5792V48.7195H13.5462V51.5H12.3604ZM23.1838 44.9545H24.3695V49.2308C24.3695 49.6996 24.2587 50.1119 24.0371 50.4677C23.8176 50.8235 23.5087 51.1016 23.1103 51.3018C22.7118 51.5 22.2463 51.5991 21.7136 51.5991C21.1788 51.5991 20.7122 51.5 20.3137 51.3018C19.9153 51.1016 19.6064 50.8235 19.3869 50.4677C19.1674 50.1119 19.0577 49.6996 19.0577 49.2308V44.9545H20.2434V49.1317C20.2434 49.4045 20.3031 49.6474 20.4224 49.8604C20.5439 50.0735 20.7143 50.2408 20.9338 50.3622C21.1532 50.4815 21.4132 50.5412 21.7136 50.5412C22.014 50.5412 22.274 50.4815 22.4934 50.3622C22.715 50.2408 22.8855 50.0735 23.0048 49.8604C23.1241 49.6474 23.1838 49.4045 23.1838 49.1317V44.9545ZM29.2155 46.7539C29.1856 46.4748 29.0599 46.2575 28.8383 46.1019C28.6189 45.9464 28.3334 45.8686 27.9818 45.8686C27.7346 45.8686 27.5226 45.9059 27.3458 45.9805C27.1689 46.055 27.0336 46.1562 26.9399 46.2841C26.8461 46.4119 26.7982 46.5579 26.7961 46.7219C26.7961 46.8583 26.827 46.9766 26.8888 47.0767C26.9527 47.1768 27.039 47.2621 27.1476 47.3324C27.2563 47.4006 27.3767 47.4581 27.5088 47.505C27.6409 47.5518 27.7741 47.5913 27.9083 47.6232L28.5219 47.7766C28.7691 47.8342 29.0067 47.9119 29.2346 48.0099C29.4648 48.108 29.6704 48.2315 29.8515 48.3807C30.0347 48.5298 30.1796 48.7099 30.2861 48.9208C30.3927 49.1317 30.4459 49.3789 30.4459 49.6623C30.4459 50.0458 30.3479 50.3835 30.1519 50.6754C29.9559 50.9652 29.6725 51.1921 29.3018 51.3562C28.9331 51.5181 28.4868 51.5991 27.9626 51.5991C27.4534 51.5991 27.0113 51.5202 26.6363 51.3626C26.2634 51.2049 25.9715 50.9748 25.7606 50.6722C25.5518 50.3697 25.4388 50.0011 25.4218 49.5664H26.5883C26.6054 49.7944 26.6757 49.984 26.7993 50.1353C26.9229 50.2866 27.0837 50.3995 27.2819 50.4741C27.4822 50.5487 27.7059 50.5859 27.953 50.5859C28.2108 50.5859 28.4367 50.5476 28.6306 50.4709C28.8266 50.392 28.98 50.2834 29.0908 50.1449C29.2016 50.0043 29.2581 49.8402 29.2602 49.6527C29.2581 49.4822 29.208 49.3416 29.11 49.2308C29.012 49.1179 28.8746 49.0241 28.6977 48.9496C28.523 48.8729 28.3184 48.8047 28.0841 48.745L27.3394 48.5533C26.8003 48.4148 26.3742 48.2049 26.061 47.9237C25.7499 47.6403 25.5944 47.2642 25.5944 46.7955C25.5944 46.4098 25.6988 46.0721 25.9076 45.7823C26.1185 45.4925 26.4051 45.2678 26.7673 45.108C27.1295 44.946 27.5397 44.8651 27.9978 44.8651C28.4623 44.8651 28.8692 44.946 29.2187 45.108C29.5702 45.2678 29.8461 45.4904 30.0464 45.7759C30.2467 46.0593 30.3501 46.3853 30.3564 46.7539H29.2155ZM31.503 51.5V44.9545H32.6887V47.962H32.7686L35.3223 44.9545H36.7701L34.2388 47.8917L36.7924 51.5H35.367L33.4142 48.6939L32.6887 49.5504V51.5H31.503ZM37.1464 44.9545H38.4855L40.0867 47.8501H40.1507L41.7519 44.9545H43.091L40.71 49.0582V51.5H39.5274V49.0582L37.1464 44.9545Z" fill="#156FF7"/>
<defs>
<filter id="filter0_d_1716_8485" x="0" y="0.5" width="54" height="54" filterUnits="userSpaceOnUse" color-interpolation-filters="sRGB">
<feFlood flood-opacity="0" result="BackgroundImageFix"/>
<feColorMatrix in="SourceAlpha" type="matrix" values="0 0 0 0 0 0 0 0 0 0 0 0 0 0 0 0 0 0 127 0" result="hardAlpha"/>
<feOffset/>
<feGaussianBlur stdDeviation="1.5"/>
<feComposite in2="hardAlpha" operator="out"/>
<feColorMatrix type="matrix" values="0 0 0 0 0.302138 0 0 0 0 0.194974 0 0 0 0 0.730794 0 0 0 0.6 0"/>
<feBlend mode="normal" in2="BackgroundImageFix" result="effect1_dropShadow_1716_8485"/>
<feBlend mode="normal" in="SourceGraphic" in2="effect1_dropShadow_1716_8485" result="shape"/>
</filter>
<filter id="filter1_i_1716_8485" x="3" y="3.5" width="48" height="48" filterUnits="userSpaceOnUse" color-interpolation-filters="sRGB">
<feFlood flood-opacity="0" result="BackgroundImageFix"/>
<feBlend mode="normal" in="SourceGraphic" in2="BackgroundImageFix" result="shape"/>
<feColorMatrix in="SourceAlpha" type="matrix" values="0 0 0 0 0 0 0 0 0 0 0 0 0 0 0 0 0 0 127 0" result="hardAlpha"/>
<feOffset/>
<feGaussianBlur stdDeviation="1.44"/>
<feComposite in2="hardAlpha" operator="arithmetic" k2="-1" k3="1"/>
<feColorMatrix type="matrix" values="0 0 0 0 1 0 0 0 0 1 0 0 0 0 1 0 0 0 0.82 0"/>
<feBlend mode="normal" in2="shape" result="effect1_innerShadow_1716_8485"/>
</filter>
<radialGradient id="paint0_radial_1716_8485" cx="0" cy="0" r="1" gradientUnits="userSpaceOnUse" gradientTransform="translate(1.08365 20.4734) rotate(19.4263) scale(63.3801)">
<stop stop-color="#00D1FF"/>
<stop offset="0.693301" stop-color="#00D1FF" stop-opacity="0"/>
</radialGradient>
<radialGradient id="paint1_radial_1716_8485" cx="0" cy="0" r="1" gradientUnits="userSpaceOnUse" gradientTransform="translate(3 35.8954) rotate(9.67826) scale(35.8255)">
<stop stop-color="#0D7EFF"/>
<stop offset="0.693301" stop-color="#5666EF" stop-opacity="0"/>
</radialGradient>
<radialGradient id="paint2_radial_1716_8485" cx="0" cy="0" r="1" gradientUnits="userSpaceOnUse" gradientTransform="translate(44.3384 6.60266) rotate(127.592) scale(53.5525)">
<stop stop-color="#72E98A"/>
<stop offset="0.565551" stop-color="#72E98A" stop-opacity="0"/>
</radialGradient>
<radialGradient id="paint3_radial_1716_8485" cx="0" cy="0" r="1" gradientUnits="userSpaceOnUse" gradientTransform="translate(52.1863 22.5722) rotate(149.908) scale(41.1331)">
<stop stop-color="#8FE666"/>
<stop offset="0.776042" stop-color="#8FE566" stop-opacity="0"/>
</radialGradient>
<radialGradient id="paint4_radial_1716_8485" cx="0" cy="0" r="1" gradientUnits="userSpaceOnUse" gradientTransform="translate(18.057 3.5) rotate(65.1155) scale(66.7945 25.2814)">
<stop stop-color="white" stop-opacity="0.46"/>
<stop offset="0.776042" stop-color="white" stop-opacity="0"/>
</radialGradient>
<radialGradient id="paint5_radial_1716_8485" cx="0" cy="0" r="1" gradientUnits="userSpaceOnUse" gradientTransform="translate(32.019 51.5) rotate(-71.8008) scale(28.0495 21.5274)">
<stop stop-color="white" stop-opacity="0.21"/>
<stop offset="1" stop-color="white" stop-opacity="0"/>
</radialGradient>
</defs>
</svg>
