<svg width="151" height="149" viewBox="0 0 151 149" fill="none" xmlns="http://www.w3.org/2000/svg">
<path d="M106.685 41.7464L106.685 41.7462C106.908 41.6186 107.04 41.3669 107.04 41.079C107.04 40.7913 106.908 40.5397 106.686 40.412C106.686 40.412 106.686 40.4119 106.685 40.4118L37.3933 0.802077C36.5989 0.511629 35.8342 0.520798 35.1762 0.795925L5.91947 17.6891C5.75679 17.8052 5.63331 18.0525 5.63331 18.3668C5.63331 18.6805 5.75642 18.9276 5.91873 19.0439L75.229 58.664L75.2298 58.6645C75.883 59.0394 76.6162 59.0395 77.2694 58.6647L106.685 41.7464ZM106.685 41.7464L77.2698 58.6645L106.685 41.7464ZM70.9245 111.677L70.9253 111.677C71.5751 112.05 71.9431 112.694 71.9431 113.445V147.745C71.9431 148.271 71.3348 148.635 70.8463 148.354L41.0854 131.205L41.0847 131.204C40.4348 130.831 40.0668 130.187 40.0668 129.436V95.1364C40.0668 94.7886 40.2349 94.5532 40.432 94.4423C40.6255 94.3334 40.8775 94.3249 41.121 94.4997L41.1413 94.5142L41.1629 94.5266L70.9245 111.677ZM71.9431 102.551V102.553C71.9431 102.67 71.9149 102.741 71.8869 102.784C71.8581 102.829 71.8148 102.868 71.7524 102.898C71.6244 102.959 71.4387 102.968 71.2732 102.91L34.9708 82.0719C33.8444 81.4253 32.3762 82.2207 32.3762 83.5485V124.685C32.3762 124.937 32.214 125.193 31.9622 125.339C31.7121 125.484 31.4909 125.462 31.3515 125.345L31.3169 125.316L31.2777 125.294L1.51783 108.376C1.51761 108.376 1.5174 108.376 1.51719 108.376C0.867767 108.003 0.5 107.359 0.5 106.608V26.768C0.5 26.5161 0.662262 26.2601 0.914011 26.1142C1.16417 25.9692 1.38533 25.9917 1.52474 26.1084L1.55889 26.137L1.59755 26.1591L70.8836 65.7654C71.6291 66.4166 72.0578 67.0905 72.0584 67.7875C72.0584 67.788 72.0584 67.7885 72.0584 67.789L71.9431 102.551ZM149.402 26.8545L149.403 26.854C149.857 26.5934 150.5 26.8971 150.5 27.5791V107.188C150.5 107.938 150.132 108.583 149.482 108.956L80.7308 148.354L80.7086 148.367L80.6879 148.382C80.4664 148.541 80.2232 148.531 80.0118 148.403C79.7891 148.269 79.6337 148.019 79.6337 147.745V113.561C79.6337 112.81 80.0017 112.166 80.6515 111.793L80.6522 111.793L117.45 90.5872C118.415 90.0332 118.97 89.0552 118.97 87.9519V87.9505L118.855 45.4558C118.96 44.67 119.348 44.0237 119.988 43.6563L149.402 26.8545ZM80.7306 102.698L80.7085 102.711L80.6879 102.726C80.4663 102.885 80.2231 102.875 80.0118 102.747C79.7891 102.613 79.6337 102.363 79.6337 102.089V67.9049C79.6337 67.1415 80.0072 66.5337 80.6003 66.2783L80.6262 66.2672L80.6506 66.2532L110.066 49.4508L110.089 49.438L110.11 49.4229C110.331 49.2639 110.574 49.274 110.786 49.4014C111.008 49.5357 111.164 49.7853 111.164 50.0595V84.8231C111.164 84.9766 111.125 85.1267 111.065 85.2388C111.002 85.3558 110.943 85.3872 110.928 85.3919L110.881 85.4077L110.838 85.4323L80.7306 102.698ZM114.219 0.7819L114.22 0.781272C114.873 0.406242 115.607 0.406243 116.26 0.781271L146.137 17.9313C146.359 18.0589 146.491 18.3106 146.491 18.5985C146.491 18.8864 146.359 19.1381 146.137 19.2656C146.137 19.2657 146.137 19.2657 146.137 19.2657L116.492 36.1834L116.491 36.184C115.837 36.5591 115.104 36.5591 114.451 36.184L84.5736 19.034C84.3514 18.9064 84.2191 18.6547 84.2191 18.3668C84.2191 18.0789 84.3513 17.8272 84.5734 17.6996C84.5735 17.6996 84.5735 17.6996 84.5736 17.6996L114.219 0.7819Z" fill="url(#paint0_linear_279_4419)" fill-opacity="0.05" stroke="url(#paint1_linear_279_4419)"/>
<defs>
<linearGradient id="paint0_linear_279_4419" x1="-8.3205" y1="74.4993" x2="134.516" y2="25.9768" gradientUnits="userSpaceOnUse">
<stop stop-color="#427DFF"/>
<stop offset="1" stop-color="#44D5BB"/>
</linearGradient>
<linearGradient id="paint1_linear_279_4419" x1="-8.3205" y1="74.4993" x2="134.516" y2="25.9768" gradientUnits="userSpaceOnUse">
<stop stop-color="#427DFF"/>
<stop offset="1" stop-color="#44D5BB"/>
</linearGradient>
</defs>
</svg>
