<svg width="32" height="32" viewBox="0 0 32 32" fill="none" xmlns="http://www.w3.org/2000/svg">
<rect width="32" height="32" rx="16" fill="#156FF7"/>
<path d="M24.7574 14.4427L22.4748 12.1601L22.875 7.95453C22.8835 7.86591 22.8652 7.77678 22.8225 7.69868C22.7797 7.62059 22.7145 7.55713 22.6353 7.51654C22.5561 7.47594 22.4665 7.46008 22.3781 7.47101C22.2898 7.48194 22.2067 7.51915 22.1398 7.57782L19.7041 9.70902C19.6933 9.71844 19.6888 9.7315 19.6791 9.74169L12.1388 9.79972C12.1199 9.76653 12.0966 9.73602 12.0695 9.70902L9.63387 7.57782C9.56691 7.51915 9.48388 7.48194 9.39553 7.47101C9.30717 7.46008 9.21757 7.47595 9.13834 7.51654C9.05911 7.55713 8.99389 7.62059 8.95115 7.69868C8.9084 7.77678 8.8901 7.86591 8.89861 7.95453L9.31854 12.3665L7.24253 14.4427L7.24149 14.4442C7.20006 14.4859 7.16725 14.5353 7.14494 14.5896C7.12341 14.6425 7.1123 14.6994 7.11238 14.7565L7.1123 14.7571C7.11229 14.7879 7.11548 14.8186 7.12182 14.8488L7.99267 18.9646C8.0122 19.057 8.06063 19.1407 8.13092 19.2037L12.5598 23.1735C12.6268 23.2312 12.7099 23.2671 12.7978 23.2765C12.9556 23.3999 13.1205 23.5138 13.2918 23.6177C13.7397 23.9034 14.2563 24.063 14.7873 24.0797C14.9852 24.0791 15.1819 24.0497 15.3713 23.9924C15.4112 24.0522 15.4652 24.1014 15.5286 24.1356C15.5919 24.1698 15.6626 24.188 15.7346 24.1885L16.3435 24.1885C16.4039 24.1881 16.4636 24.1753 16.5188 24.1509C16.5741 24.1264 16.6237 24.091 16.6647 24.0466C16.7805 24.0676 16.8978 24.0787 17.0154 24.0797C17.5464 24.063 18.0631 23.9034 18.511 23.6177C18.5413 23.5997 18.5711 23.577 18.6013 23.5581C18.6581 23.5422 18.7111 23.5151 18.7571 23.4782L18.932 23.3342C19.0786 23.2255 19.223 23.1049 19.3658 22.977L23.9329 19.2159C24.0129 19.1501 24.0673 19.0585 24.0869 18.9569L24.8796 14.8411C24.8933 14.7697 24.8894 14.6961 24.8681 14.6267C24.8468 14.5572 24.8088 14.494 24.7574 14.4427ZM21.6594 11.3447L20.5047 10.19L21.8841 8.98296L21.6594 11.3447ZM9.88955 8.98296L11.3895 10.2954L10.1338 11.5512L9.88955 8.98296ZM16.4597 23.0495C16.4453 23.0425 16.4306 23.0363 16.4155 23.0309L16.3884 22.3753L17.4923 21.6854C17.5755 21.6335 17.6392 21.5555 17.6735 21.4636C17.7078 21.3717 17.7106 21.271 17.6817 21.1773C17.6517 21.0842 17.5923 21.0034 17.5125 20.947C17.4327 20.8905 17.3367 20.8615 17.239 20.8642L16.0004 20.9144L14.8402 20.8642C14.7423 20.8608 14.646 20.8895 14.5659 20.9459C14.4859 21.0023 14.4264 21.0834 14.3966 21.1767C14.3676 21.2704 14.3704 21.3712 14.4046 21.4632C14.4388 21.5552 14.5025 21.6334 14.5857 21.6854L15.5018 22.258C15.4977 22.2849 15.4961 22.3122 15.497 22.3395L15.5241 22.9972C15.4607 23.0014 15.3989 23.0192 15.343 23.0495C14.9056 23.2885 14.3678 23.2225 13.7452 22.853C11.9732 21.8019 10.2975 18.8109 10.2975 16.6984C10.2975 16.6947 10.2965 16.6913 10.2964 16.6876C10.2965 16.6839 10.2975 16.6804 10.2975 16.6767C10.2873 16.3143 10.3496 15.9535 10.4807 15.6154C10.6118 15.2774 10.809 14.9689 11.0609 14.7081C11.3127 14.4473 11.6141 14.2393 11.9474 14.0965C12.2806 13.9537 12.639 13.8788 13.0016 13.8763C13.6602 13.8828 14.2894 14.1504 14.751 14.6202C15.2126 15.09 15.469 15.7237 15.464 16.3824C15.4649 16.4997 15.5121 16.6119 15.5954 16.6946C15.6786 16.7772 15.7912 16.8236 15.9085 16.8236C16.0258 16.8236 16.1384 16.7772 16.2217 16.6946C16.3049 16.6119 16.3521 16.4997 16.353 16.3824C16.348 15.7237 16.6045 15.09 17.0662 14.6201C17.5279 14.1503 18.1571 13.8828 18.8157 13.8763C19.1787 13.8813 19.5371 13.9587 19.8698 14.104C20.2026 14.2492 20.503 14.4594 20.7534 14.7222C21.0039 14.9851 21.1994 15.2952 21.3285 15.6346C21.4576 15.9739 21.5177 16.3356 21.5053 16.6984C21.5053 18.5032 20.2812 20.9454 18.8199 22.2751L18.3677 22.6475C18.2649 22.7219 18.1614 22.7914 18.0575 22.853C17.4347 23.2225 16.8971 23.2885 16.4597 23.0495ZM23.2443 18.6313L21.4978 20.0696C22.0404 19.0253 22.3465 17.8743 22.3943 16.6984C22.4104 15.7322 22.0428 14.7989 21.372 14.1032C20.7012 13.4075 19.7819 13.0062 18.8157 12.9873C18.2228 12.9894 17.6412 13.1491 17.1303 13.45C16.6195 13.7509 16.1978 14.1823 15.9085 14.6998C15.6193 14.1823 15.1976 13.751 14.6868 13.4501C14.176 13.1492 13.5944 12.9895 13.0016 12.9873C12.0363 13.0013 11.1159 13.3976 10.4423 14.0892C9.76878 14.7809 9.39698 15.7114 9.40848 16.6767C9.40848 16.6804 9.40949 16.6839 9.40959 16.6876C9.40949 16.6913 9.40848 16.6947 9.40848 16.6984C9.4508 17.8037 9.72608 18.8876 10.2163 19.8791L8.83257 18.6387L8.04159 14.9006L12.2541 10.6878L19.6881 10.6307L23.962 14.9044L23.2443 18.6313Z" fill="white"/>
<path fill-rule="evenodd" clip-rule="evenodd" d="M11.7734 22.2655L14.1354 24.3808L15.7077 24.3808L16.0523 24.3808L17.6246 24.3808L19.9866 22.2655L17.5675 23.5298L16.0523 23.5298L15.7077 23.5298L14.1925 23.5298L11.7734 22.2655Z" fill="white"/>
<path fill-rule="evenodd" clip-rule="evenodd" d="M17.5311 23.3771L19.9171 22.1301L20.0891 22.3784L17.6838 24.5325L14.0782 24.5325L11.6729 22.3784L11.8449 22.1301L14.2309 23.3771L17.5311 23.3771ZM18.9789 22.964L17.6059 23.6816L14.1561 23.6816L12.7831 22.964L14.1946 24.2281L17.5674 24.2281L18.9789 22.964Z" fill="white"/>
</svg>
