<svg width="133" height="26" viewBox="0 0 133 26" fill="none" xmlns="http://www.w3.org/2000/svg">
<g clip-path="url(#clip0_3_1283)">
<path d="M18.3143 3.59657H16.1855V0.617188H21.4528V20.3648H18.3143V3.59657Z" fill="#2C2222"/>
<path d="M38.9043 16.3654L46.095 9.50458L46.0883 8.7331H38.9043V5.76562H49.9897V9.85715L42.7961 16.675V17.4372H50.042V20.3637H38.9043V16.3654Z" fill="#2C2222"/>
<path d="M30.8851 6.04076C30.5665 6.04076 30.475 6.0441 30.3224 6.06302L34.5046 0.632812H30.6887L24.6763 8.63232C23.5786 10.166 23.0371 11.5424 23.0371 13.4414C23.0371 17.4703 26.17 20.6834 30.5321 20.6834C34.7494 20.6834 37.999 17.6464 37.999 13.4414C37.999 9.2364 34.7513 6.04076 30.8854 6.04076H30.8851ZM30.5147 17.82C28.0845 17.82 26.2376 15.8056 26.2376 13.3818C26.2376 10.9578 28.0986 8.94522 30.5284 8.94522C32.9302 8.94522 34.8249 10.958 34.8249 13.3818C34.8249 15.8055 32.9165 17.82 30.5147 17.82Z" fill="#2C2222"/>
<path d="M116.144 17.3842V20.3535H109.71V8.7103H107.592V5.73889H109.71V0.59375H112.873V5.73889H116.087V8.7103H112.873V17.3842H116.144Z" fill="#2C2222"/>
<path d="M124.983 5.43276C124.922 5.42855 124.86 5.42588 124.797 5.42588C124.753 5.42459 124.711 5.42459 124.668 5.42323C124.638 5.42187 124.609 5.42188 124.579 5.42188H124.534C122.339 5.43427 120.367 6.32251 118.997 7.81935C118.927 7.89584 118.857 7.97526 118.791 8.0544C118.753 8.10095 118.715 8.14742 118.677 8.19526C117.679 9.44739 117.071 11.0615 117.04 12.9096C117.037 12.9616 117.037 13.0134 117.037 13.0667V13.0968C117.052 17.5608 120.386 20.6787 124.512 20.7116C124.534 20.7129 124.557 20.7129 124.579 20.7129C124.634 20.7129 124.69 20.7129 124.745 20.7102C124.763 20.7116 124.779 20.7102 124.797 20.7089C128.861 20.6051 132.121 17.5556 132.121 13.067C132.121 8.72177 128.96 5.62861 124.983 5.43323V5.43276ZM124.645 17.5701C122.193 17.5701 120.2 15.62 120.138 13.1882C120.137 13.1498 120.137 13.1105 120.137 13.072C120.137 12.9558 120.141 12.8396 120.151 12.7263C120.156 12.6499 120.163 12.5746 120.172 12.4996C120.174 12.4952 120.174 12.4912 120.174 12.4871C120.462 10.2796 122.354 8.57533 124.645 8.57533C127.136 8.57533 129.154 10.5887 129.154 13.0724C129.154 15.5557 127.136 17.5705 124.645 17.5705L124.645 17.5701Z" fill="#2C2222"/>
<path d="M67.7324 5.76562H75.1919V8.74344H70.8934V20.3626H67.7327V5.76562H67.7324Z" fill="#2C2222"/>
<path d="M91.4042 5.74219L84.6744 25.502H78.3441V22.5065H82.3671L83.1026 20.3392H81.0716L80.6982 19.2694L80.2988 18.1236L75.9902 5.74219H79.4307L83.405 16.8664H84.148L88.1802 5.74219H91.4042Z" fill="#2C2222"/>
<path d="M12.9828 5.76382V6.87065C12.9809 6.86882 12.9791 6.8669 12.9772 6.8669H12.2137C11.3736 5.94762 9.92883 5.45548 8.77138 5.3645C8.76015 5.3645 8.74716 5.36266 8.73593 5.36266C8.52682 5.35333 8.3234 5.35156 8.12927 5.35156C4.26693 5.35156 0.748047 8.38796 0.748047 13.0568C0.748047 17.6959 4.38452 20.6432 8.09746 20.6432C8.39618 20.6432 8.67438 20.6393 8.93568 20.6264H8.94313C10.304 20.4835 11.3158 20.1455 12.2137 19.1649H12.9809V19.1686C12.9809 19.1668 12.9828 19.1668 12.9828 19.1668V20.3498H16.1134V5.76382H12.9828ZM8.35507 17.5009C5.90397 17.5009 3.91028 15.549 3.84864 13.118C3.8468 13.079 3.8468 13.04 3.8468 13.001C3.8468 12.8859 3.85234 12.7689 3.86178 12.6556C3.86732 12.5795 3.87292 12.5052 3.88229 12.4291C3.88415 12.4253 3.88415 12.4216 3.88415 12.4161C4.17164 10.2097 6.06458 8.50495 8.35507 8.50495C10.8472 8.50495 12.8651 10.5181 12.8651 13.001C12.8651 15.4858 10.8472 17.5009 8.35507 17.5009Z" fill="#2C2222"/>
<path d="M100.263 5.42969H100.244C98.7321 5.43344 96.9961 6.00356 96.1037 6.98042H95.3365V5.73986H92.2246V25.5034H95.3533V19.2208H96.1205C97.011 20.1958 98.7695 20.7306 100.278 20.7381C104.11 20.7008 107.588 17.6738 107.588 13.0328C107.588 8.42152 103.955 5.4631 100.263 5.42969ZM104.476 13.4339C104.471 13.51 104.463 13.5862 104.454 13.6604C104.452 13.666 104.452 13.6698 104.452 13.6734C104.164 15.8815 102.271 17.5845 99.981 17.5845C97.4908 17.5845 95.471 15.5714 95.471 13.0884C95.471 10.6055 97.4908 8.59042 99.981 8.59042C102.432 8.59042 104.426 10.5404 104.487 12.9714C104.489 13.0104 104.489 13.0494 104.489 13.0884C104.489 13.2055 104.485 13.3206 104.476 13.4339Z" fill="#2C2222"/>
<path d="M66.3189 14.4773C65.8316 17.3337 63.838 19.4954 61.1685 20.318C60.4629 20.5538 59.7087 20.6894 58.9246 20.7099C58.906 20.7099 58.8892 20.7117 58.8724 20.7099C58.8182 20.7135 58.7622 20.7135 58.7099 20.7135C58.6875 20.7135 58.6651 20.7135 58.6427 20.7117C57.6888 20.7042 56.7778 20.5241 55.9415 20.1991C53.0406 19.1443 51.0449 16.4477 51.0449 13.051C51.0449 9.17886 53.7947 6.11088 57.4461 5.52402L57.4853 5.51844C57.5731 5.5036 57.6627 5.49245 57.7503 5.48319C57.8007 5.47577 57.8494 5.47019 57.8978 5.46461C57.9631 5.45719 58.0266 5.45352 58.0919 5.44793C58.161 5.44236 58.2282 5.43678 58.2992 5.43303C58.3626 5.42929 58.428 5.42929 58.4933 5.42746C58.5512 5.42562 58.6072 5.42188 58.665 5.42188H58.7229C62.7215 5.42188 65.6747 7.89741 66.3094 11.5151H62.9399C62.3163 9.79914 60.6868 8.57526 58.7733 8.57526C56.5183 8.57526 54.6534 10.2801 54.3696 12.4864C54.3696 12.492 54.3696 12.4956 54.3678 12.4994C54.3584 12.5755 54.3528 12.6498 54.3472 12.726C54.3379 12.8392 54.3323 12.9563 54.3323 13.0714C54.3323 13.1104 54.3323 13.1495 54.3342 13.1885C54.3696 14.5665 55.0156 15.7902 56.0086 16.5907C56.7964 17.1849 57.7783 17.523 58.8107 17.523C59.2923 17.523 59.7497 17.4599 60.1772 17.3392C61.5082 16.8916 62.5572 15.8256 62.9941 14.4773H66.3189Z" fill="#2C2222"/>
</g>
<defs>
<clipPath id="clip0_3_1283">
<rect width="131.522" height="25" fill="white" transform="translate(0.638672 0.5)"/>
</clipPath>
</defs>
</svg>
