<svg width="103" height="18" viewBox="0 0 103 18" fill="none" xmlns="http://www.w3.org/2000/svg">
<path d="M80.6727 7.66023V10.5157H71.3592V14.2709H80.998V17.3415H68.1259C68.1463 14.1339 68.1463 10.9264 68.1463 7.66023H80.6727ZM11.3708 0.697563C11.5539 0.697563 11.6556 0.73668 11.7369 0.912702C14.2381 6.31072 16.7596 11.7088 19.2609 17.0872C19.2812 17.1459 19.3015 17.2046 19.3422 17.3024H18.0611C17.4104 17.3024 16.78 17.2828 16.1293 17.3024C15.8853 17.3024 15.7633 17.2437 15.6616 17.009C14.1771 13.7428 12.6926 10.4571 11.2082 7.19084C10.7608 6.21294 10.3134 5.21548 9.8457 4.1789C9.78473 4.31581 9.74403 4.39404 9.68307 4.49182C7.77155 8.65769 5.88039 12.8235 3.98924 16.9895C3.88756 17.2046 3.78588 17.2828 3.52153 17.2828C2.65933 17.2672 1.81013 17.2766 0.953133 17.2609L0.308594 17.2437C0.369599 17.1459 0.430604 17.0481 0.491609 16.9503C2.97248 11.6305 5.45335 6.31072 7.93423 0.990934C8.0359 0.775796 8.13759 0.697563 8.40194 0.697563C9.39834 0.717121 10.3948 0.717121 11.3708 0.697563ZM26.4594 0.756237C26.6628 0.756237 26.7644 0.814912 26.8662 0.971377C28.5336 3.18144 30.2011 5.37194 31.8686 7.582C31.9296 7.66023 31.9906 7.75803 32.0923 7.85581C32.1736 7.75803 32.2346 7.67979 32.2956 7.60156C33.9631 5.3915 35.6306 3.201 37.298 0.990934C37.4404 0.814912 37.5624 0.756237 37.7861 0.756237C38.8028 0.775796 39.8399 0.756237 40.8567 0.756237H41.182V17.3024H37.969V5.41106C37.9488 5.3915 37.9284 5.3915 37.9081 5.37194C37.8471 5.45017 37.7861 5.52841 37.7251 5.60663C35.9965 7.8167 34.2681 10.0267 32.5396 12.2368C32.2346 12.628 31.7872 12.628 31.5025 12.2173C29.8351 10.0072 28.1473 7.8167 26.4798 5.60663C26.4187 5.52841 26.3578 5.43061 26.2765 5.35238C26.2561 5.37194 26.2358 5.37194 26.2154 5.3915V17.3024H22.9822V0.775796C23.0635 0.775796 23.1651 0.756237 23.2465 0.756237H26.4594ZM95.5168 0.658447C96.5135 0.658447 97.4696 0.854028 98.3641 1.26475C100.418 2.18398 101.658 4.1789 101.536 6.38896C101.495 7.09305 101.394 7.77758 101.13 8.423C100.479 9.98768 99.2387 10.8873 97.5917 11.3176C97.4696 11.3372 97.3674 11.3763 97.2054 11.4154C97.3674 11.5914 97.4895 11.7479 97.6324 11.8848C99.1772 13.5472 100.703 15.2096 102.248 16.8916C102.329 16.9895 102.391 17.1263 102.492 17.2828H98.791C98.649 17.2828 98.4862 17.2046 98.3849 17.1067C96.8391 15.4052 95.2934 13.7233 93.7684 12.0022C93.5857 11.8065 93.4021 11.7283 93.138 11.7283C92.2435 11.7479 91.3282 11.7283 90.4128 11.7283V17.2632C89.2949 17.2437 88.2375 17.2437 87.1395 17.2437V8.87284H87.5049C90.0474 8.87284 92.589 8.89239 95.1514 8.89239C95.5982 8.89239 96.0667 8.85328 96.4936 8.73593C97.7337 8.38388 98.4247 7.24951 98.2827 5.86089C98.1606 4.68741 97.2055 3.74862 95.9446 3.61172C95.6796 3.5726 95.3956 3.5726 95.1306 3.5726H87.1594V0.678005C87.2209 0.678005 87.3023 0.658447 87.3629 0.658447H95.5168ZM55.7826 0.658447C56.8197 0.658447 57.8364 0.83447 58.7921 1.24519C60.4393 1.96884 61.2934 3.22055 61.456 4.94166C61.6187 6.64322 60.9477 7.89493 59.3005 8.65769C59.3412 8.69681 59.3819 8.71637 59.4022 8.73593C61.1917 9.34221 62.1068 11.298 62.0051 12.6867C61.8831 14.6034 61.0087 15.992 59.1175 16.6961C58.5685 16.8916 57.9787 17.0481 57.4094 17.1263C56.7789 17.2241 56.1283 17.2632 55.4978 17.2632H47.3842V7.42553H47.7503C50.4954 7.38642 53.2407 7.36686 55.9655 7.30819C56.3519 7.28863 56.7587 7.2104 57.1247 7.07349C58.1618 6.70189 58.5481 5.72398 58.0601 4.76564C57.6941 4.04199 57.023 3.68995 56.2299 3.55304C55.9656 3.51392 55.6809 3.49437 55.4165 3.49437C52.8543 3.47481 50.3125 3.47481 47.7503 3.45525H47.3842V0.678005C47.4655 0.678005 47.5266 0.658447 47.6079 0.658447H55.7826ZM55.5589 10.0854H50.8615C50.7598 10.0854 50.6785 10.105 50.5768 10.105V14.3295C52.4273 14.3295 54.2167 14.3491 56.0266 14.3295C56.6367 14.3295 57.206 14.173 57.7551 13.8993C58.2228 13.6645 58.5685 13.332 58.7108 12.8431C58.9345 12.0999 58.6498 11.3763 57.9381 10.8482C57.2467 10.3397 56.4333 10.0854 55.5589 10.0854ZM81.0184 0.756237V3.74862H68.1463V0.756237H81.0184Z" fill="black"/>
</svg>
