<svg width="190" height="21" viewBox="0 0 190 21" fill="none" xmlns="http://www.w3.org/2000/svg">
<path d="M3.91259 16H0.81884L6.45165 -4.76837e-07H10.0298L15.6704 16H12.5767L8.30322 3.28125H8.17822L3.91259 16ZM4.01415 9.72656H12.4517V12.0547H4.01415V9.72656ZM19.7309 8.96875V16H16.9028V4H19.6059V6.03906H19.7466C20.0226 5.36719 20.4627 4.83333 21.0669 4.4375C21.6763 4.04167 22.4289 3.84375 23.3247 3.84375C24.1528 3.84375 24.8742 4.02083 25.4888 4.375C26.1086 4.72917 26.5877 5.24219 26.9263 5.91406C27.27 6.58594 27.4393 7.40104 27.4341 8.35937V16H24.6059V8.79687C24.6059 7.99479 24.3976 7.36719 23.9809 6.91406C23.5695 6.46094 22.9992 6.23437 22.27 6.23437C21.7752 6.23437 21.3351 6.34375 20.9497 6.5625C20.5695 6.77604 20.27 7.08594 20.0513 7.49219C19.8377 7.89844 19.7309 8.39062 19.7309 8.96875ZM33.0122 16.2422C32.2518 16.2422 31.5669 16.1068 30.9575 15.8359C30.3533 15.5599 29.8742 15.1536 29.52 14.6172C29.1711 14.0807 28.9966 13.4193 28.9966 12.6328C28.9966 11.9557 29.1216 11.3958 29.3716 10.9531C29.6216 10.5104 29.9627 10.1562 30.395 9.89062C30.8273 9.625 31.3143 9.42448 31.8559 9.28906C32.4028 9.14844 32.9679 9.04687 33.5513 8.98437C34.2544 8.91146 34.8247 8.84635 35.2622 8.78906C35.6997 8.72656 36.0174 8.63281 36.2153 8.50781C36.4184 8.3776 36.52 8.17708 36.52 7.90625V7.85938C36.52 7.27083 36.3455 6.8151 35.9966 6.49219C35.6476 6.16927 35.145 6.00781 34.4888 6.00781C33.7961 6.00781 33.2466 6.15885 32.8403 6.46094C32.4393 6.76302 32.1684 7.11979 32.0278 7.53125L29.3872 7.15625C29.5955 6.42708 29.9393 5.81771 30.4184 5.32812C30.8976 4.83333 31.4836 4.46354 32.1763 4.21875C32.869 3.96875 33.6346 3.84375 34.4731 3.84375C35.0513 3.84375 35.6268 3.91146 36.1997 4.04687C36.7726 4.18229 37.2961 4.40625 37.77 4.71875C38.244 5.02604 38.6242 5.44531 38.9106 5.97656C39.2023 6.50781 39.3481 7.17187 39.3481 7.96875V16H36.6294V14.3516H36.5356C36.3638 14.6849 36.1216 14.9974 35.8091 15.2891C35.5018 15.5755 35.1138 15.8073 34.645 15.9844C34.1815 16.1563 33.6372 16.2422 33.0122 16.2422ZM33.7466 14.1641C34.3143 14.1641 34.8065 14.0521 35.2231 13.8281C35.6398 13.599 35.9601 13.2969 36.1841 12.9219C36.4132 12.5469 36.5278 12.138 36.5278 11.6953V10.2812C36.4393 10.3542 36.2882 10.4219 36.0747 10.4844C35.8664 10.5469 35.632 10.6016 35.3716 10.6484C35.1112 10.6953 34.8533 10.737 34.5981 10.7734C34.3429 10.8099 34.1216 10.8411 33.9341 10.8672C33.5122 10.9245 33.1346 11.0182 32.8013 11.1484C32.4679 11.2786 32.2049 11.4609 32.0122 11.6953C31.8195 11.9245 31.7231 12.2214 31.7231 12.5859C31.7231 13.1068 31.9132 13.5 32.2934 13.7656C32.6737 14.0312 33.158 14.1641 33.7466 14.1641ZM47.4341 4V6.1875H40.5356V4H47.4341ZM42.2388 1.125H45.0669V12.3906C45.0669 12.7708 45.1242 13.0625 45.2388 13.2656C45.3586 13.4635 45.5148 13.599 45.7075 13.6719C45.9002 13.7448 46.1138 13.7812 46.3481 13.7812C46.5252 13.7812 46.6867 13.7682 46.8325 13.7422C46.9836 13.7161 47.0981 13.6927 47.1763 13.6719L47.6528 15.8828C47.5018 15.9349 47.2856 15.9922 47.0044 16.0547C46.7283 16.1172 46.3898 16.1536 45.9888 16.1641C45.2804 16.1849 44.6424 16.0781 44.0747 15.8437C43.507 15.6042 43.0565 15.2344 42.7231 14.7344C42.395 14.2344 42.2336 13.6094 42.2388 12.8594V1.125ZM54.1548 16.2344C52.9829 16.2344 51.9673 15.9766 51.1079 15.4609C50.2485 14.9453 49.5819 14.224 49.1079 13.2969C48.6392 12.3698 48.4048 11.2865 48.4048 10.0469C48.4048 8.80729 48.6392 7.72135 49.1079 6.78906C49.5819 5.85677 50.2485 5.13281 51.1079 4.61719C51.9673 4.10156 52.9829 3.84375 54.1548 3.84375C55.3267 3.84375 56.3423 4.10156 57.2017 4.61719C58.061 5.13281 58.7251 5.85677 59.1938 6.78906C59.6678 7.72135 59.9048 8.80729 59.9048 10.0469C59.9048 11.2865 59.6678 12.3698 59.1938 13.2969C58.7251 14.224 58.061 14.9453 57.2017 15.4609C56.3423 15.9766 55.3267 16.2344 54.1548 16.2344ZM54.1704 13.9687C54.8058 13.9687 55.3371 13.7943 55.7642 13.4453C56.1912 13.0911 56.5089 12.6172 56.7173 12.0234C56.9308 11.4297 57.0376 10.7682 57.0376 10.0391C57.0376 9.30469 56.9308 8.64062 56.7173 8.04687C56.5089 7.44792 56.1912 6.97135 55.7642 6.61719C55.3371 6.26302 54.8058 6.08594 54.1704 6.08594C53.5194 6.08594 52.9777 6.26302 52.5454 6.61719C52.1183 6.97135 51.798 7.44792 51.5845 8.04687C51.3761 8.64062 51.272 9.30469 51.272 10.0391C51.272 10.7682 51.3761 11.4297 51.5845 12.0234C51.798 12.6172 52.1183 13.0911 52.5454 13.4453C52.9777 13.7943 53.5194 13.9687 54.1704 13.9687ZM64.3833 -4.76837e-07V16H61.5552V-4.76837e-07H64.3833ZM68.2993 20.5C67.9139 20.5 67.5571 20.4688 67.229 20.4063C66.9061 20.349 66.6483 20.2813 66.4556 20.2031L67.1118 18C67.5233 18.1198 67.8905 18.1771 68.2134 18.1719C68.5363 18.1667 68.8201 18.0651 69.0649 17.8672C69.3149 17.6745 69.5259 17.3516 69.6977 16.8984L69.9399 16.25L65.5884 4H68.5884L71.354 13.0625H71.479L74.2524 4H77.2602L72.4556 17.4531C72.2316 18.0885 71.9347 18.6328 71.5649 19.0859C71.1951 19.5443 70.742 19.8932 70.2056 20.1328C69.6743 20.3776 69.0389 20.5 68.2993 20.5ZM82.2056 -4.76837e-07H85.479L89.3931 7.07812H89.5493L93.4634 -4.76837e-07H96.7368L90.9165 10.0313V16H88.0259V10.0313L82.2056 -4.76837e-07ZM99.3052 16.2422C98.5448 16.2422 97.8599 16.1068 97.2505 15.8359C96.6463 15.5599 96.1671 15.1536 95.813 14.6172C95.464 14.0807 95.2895 13.4193 95.2895 12.6328C95.2895 11.9557 95.4145 11.3958 95.6645 10.9531C95.9145 10.5104 96.2557 10.1562 96.688 9.89062C97.1203 9.625 97.6073 9.42448 98.1489 9.28906C98.6958 9.14844 99.2609 9.04687 99.8442 8.98437C100.547 8.91146 101.118 8.84635 101.555 8.78906C101.993 8.72656 102.31 8.63281 102.508 8.50781C102.711 8.3776 102.813 8.17708 102.813 7.90625V7.85938C102.813 7.27083 102.639 6.8151 102.29 6.49219C101.941 6.16927 101.438 6.00781 100.782 6.00781C100.089 6.00781 99.5395 6.15885 99.1333 6.46094C98.7323 6.76302 98.4614 7.11979 98.3208 7.53125L95.6802 7.15625C95.8885 6.42708 96.2323 5.81771 96.7114 5.32812C97.1906 4.83333 97.7765 4.46354 98.4692 4.21875C99.1619 3.96875 99.9276 3.84375 100.766 3.84375C101.344 3.84375 101.92 3.91146 102.493 4.04687C103.066 4.18229 103.589 4.40625 104.063 4.71875C104.537 5.02604 104.917 5.44531 105.204 5.97656C105.495 6.50781 105.641 7.17187 105.641 7.96875V16H102.922V14.3516H102.829C102.657 14.6849 102.415 14.9974 102.102 15.2891C101.795 15.5755 101.407 15.8073 100.938 15.9844C100.474 16.1563 99.9302 16.2422 99.3052 16.2422ZM100.04 14.1641C100.607 14.1641 101.099 14.0521 101.516 13.8281C101.933 13.599 102.253 13.2969 102.477 12.9219C102.706 12.5469 102.821 12.138 102.821 11.6953V10.2812C102.732 10.3542 102.581 10.4219 102.368 10.4844C102.159 10.5469 101.925 10.6016 101.665 10.6484C101.404 10.6953 101.146 10.737 100.891 10.7734C100.636 10.8099 100.415 10.8411 100.227 10.8672C99.8052 10.9245 99.4276 11.0182 99.0942 11.1484C98.7609 11.2786 98.4979 11.4609 98.3052 11.6953C98.1125 11.9245 98.0161 12.2214 98.0161 12.5859C98.0161 13.1068 98.2062 13.5 98.5864 13.7656C98.9666 14.0312 99.451 14.1641 100.04 14.1641ZM110.313 12.2344L110.305 8.82031H110.758L115.071 4H118.375L113.071 9.90625H112.485L110.313 12.2344ZM107.735 16V-4.76837e-07H110.563V16H107.735ZM115.266 16L111.36 10.5391L113.266 8.54688L118.649 16H115.266ZM124.25 16.2344C123.079 16.2344 122.063 15.9766 121.204 15.4609C120.344 14.9453 119.678 14.224 119.204 13.2969C118.735 12.3698 118.5 11.2865 118.5 10.0469C118.5 8.80729 118.735 7.72135 119.204 6.78906C119.678 5.85677 120.344 5.13281 121.204 4.61719C122.063 4.10156 123.079 3.84375 124.25 3.84375C125.422 3.84375 126.438 4.10156 127.297 4.61719C128.157 5.13281 128.821 5.85677 129.29 6.78906C129.764 7.72135 130 8.80729 130 10.0469C130 11.2865 129.764 12.3698 129.29 13.2969C128.821 14.224 128.157 14.9453 127.297 15.4609C126.438 15.9766 125.422 16.2344 124.25 16.2344ZM124.266 13.9687C124.902 13.9687 125.433 13.7943 125.86 13.4453C126.287 13.0911 126.605 12.6172 126.813 12.0234C127.027 11.4297 127.133 10.7682 127.133 10.0391C127.133 9.30469 127.027 8.64062 126.813 8.04687C126.605 7.44792 126.287 6.97135 125.86 6.61719C125.433 6.26302 124.902 6.08594 124.266 6.08594C123.615 6.08594 123.073 6.26302 122.641 6.61719C122.214 6.97135 121.894 7.44792 121.68 8.04687C121.472 8.64062 121.368 9.30469 121.368 10.0391C121.368 10.7682 121.472 11.4297 121.68 12.0234C121.894 12.6172 122.214 13.0911 122.641 13.4453C123.073 13.7943 123.615 13.9687 124.266 13.9687ZM141.961 4L137.688 16H134.563L130.29 4H133.305L136.063 12.9141H136.188L138.954 4H141.961ZM148.073 16.2344C146.87 16.2344 145.831 15.9844 144.956 15.4844C144.086 14.9792 143.417 14.2656 142.948 13.3437C142.479 12.4167 142.245 11.3255 142.245 10.0703C142.245 8.83594 142.479 7.7526 142.948 6.82031C143.422 5.88281 144.083 5.15365 144.932 4.63281C145.781 4.10677 146.778 3.84375 147.924 3.84375C148.664 3.84375 149.362 3.96354 150.018 4.20312C150.68 4.4375 151.263 4.80208 151.768 5.29687C152.278 5.79167 152.68 6.42187 152.971 7.1875C153.263 7.94792 153.409 8.85417 153.409 9.90625V10.7734H143.573V8.86719H150.698C150.693 8.32552 150.575 7.84375 150.346 7.42187C150.117 6.99479 149.797 6.65885 149.385 6.41406C148.979 6.16927 148.505 6.04687 147.963 6.04687C147.385 6.04687 146.877 6.1875 146.44 6.46875C146.002 6.74479 145.661 7.10937 145.417 7.5625C145.177 8.01042 145.055 8.5026 145.049 9.03906V10.7031C145.049 11.401 145.177 12 145.432 12.5C145.687 12.9948 146.044 13.375 146.502 13.6406C146.961 13.901 147.497 14.0312 148.112 14.0312C148.523 14.0312 148.896 13.974 149.229 13.8594C149.562 13.7396 149.851 13.5651 150.096 13.3359C150.341 13.1068 150.526 12.8229 150.651 12.4844L153.292 12.7812C153.125 13.4792 152.807 14.0885 152.338 14.6094C151.875 15.125 151.281 15.526 150.557 15.8125C149.833 16.0937 149.005 16.2344 148.073 16.2344ZM157.879 8.96875V16H155.051V4H157.754V6.03906H157.895C158.171 5.36719 158.611 4.83333 159.215 4.4375C159.825 4.04167 160.577 3.84375 161.473 3.84375C162.301 3.84375 163.023 4.02083 163.637 4.375C164.257 4.72917 164.736 5.24219 165.075 5.91406C165.418 6.58594 165.588 7.40104 165.583 8.35937V16H162.754V8.79687C162.754 7.99479 162.546 7.36719 162.129 6.91406C161.718 6.46094 161.148 6.23437 160.418 6.23437C159.924 6.23437 159.484 6.34375 159.098 6.5625C158.718 6.77604 158.418 7.08594 158.2 7.49219C157.986 7.89844 157.879 8.39062 157.879 8.96875ZM170.286 12.2344L170.278 8.82031H170.731L175.043 4H178.348L173.043 9.90625H172.458L170.286 12.2344ZM167.708 16V-4.76837e-07H170.536V16H167.708ZM175.239 16L171.333 10.5391L173.239 8.54688L178.622 16H175.239ZM184.223 16.2344C183.051 16.2344 182.036 15.9766 181.176 15.4609C180.317 14.9453 179.65 14.224 179.176 13.2969C178.708 12.3698 178.473 11.2865 178.473 10.0469C178.473 8.80729 178.708 7.72135 179.176 6.78906C179.65 5.85677 180.317 5.13281 181.176 4.61719C182.036 4.10156 183.051 3.84375 184.223 3.84375C185.395 3.84375 186.411 4.10156 187.27 4.61719C188.129 5.13281 188.793 5.85677 189.262 6.78906C189.736 7.72135 189.973 8.80729 189.973 10.0469C189.973 11.2865 189.736 12.3698 189.262 13.2969C188.793 14.224 188.129 14.9453 187.27 15.4609C186.411 15.9766 185.395 16.2344 184.223 16.2344ZM184.239 13.9687C184.874 13.9687 185.405 13.7943 185.833 13.4453C186.26 13.0911 186.577 12.6172 186.786 12.0234C186.999 11.4297 187.106 10.7682 187.106 10.0391C187.106 9.30469 186.999 8.64062 186.786 8.04687C186.577 7.44792 186.26 6.97135 185.833 6.61719C185.405 6.26302 184.874 6.08594 184.239 6.08594C183.588 6.08594 183.046 6.26302 182.614 6.61719C182.187 6.97135 181.866 7.44792 181.653 8.04687C181.444 8.64062 181.34 9.30469 181.34 10.0391C181.34 10.7682 181.444 11.4297 181.653 12.0234C181.866 12.6172 182.187 13.0911 182.614 13.4453C183.046 13.7943 183.588 13.9687 184.239 13.9687Z" fill="#0A0C11"/>
</svg>
