<svg width="118" height="42" viewBox="0 0 118 42" fill="none" xmlns="http://www.w3.org/2000/svg">
<g clip-path="url(#clip0_3_1652)">
<path d="M43.3664 14.7425L48.3878 28.214H45.3313L44.3148 25.2018H39.2945L38.2491 28.214H35.2689L40.348 14.7425H43.3664ZM43.5362 23.0075L41.8497 18.0629H41.8127L40.0627 23.0052L43.5362 23.0075ZM51.8 18.4602V19.8157H51.8578C52.1604 19.2828 52.6156 18.8507 53.1631 18.5784C53.6791 18.3256 54.2453 18.1929 54.8196 18.1903C55.4192 18.1705 56.0167 18.2702 56.5777 18.4834C57.0029 18.6543 57.3758 18.9344 57.6589 19.2955C57.937 19.673 58.1266 20.1087 58.2134 20.5699C58.3243 21.1145 58.3774 21.6659 58.3728 22.2209V28.2221H55.7125V22.7075C55.7125 21.9019 55.587 21.301 55.3359 20.9048C55.0849 20.5085 54.6398 20.3104 54.0006 20.3104C53.2728 20.3104 52.7503 20.5267 52.4331 20.9592C52.1158 21.3917 51.9529 22.1054 51.9444 23.1002V28.2129H49.2587V18.4811L51.8 18.4602ZM69.3558 28.9335C69.2426 29.4502 69.007 29.9321 68.6685 30.3376C68.2527 30.8184 67.7444 31.195 67.1437 31.4406C66.2947 31.7881 65.3856 31.9306 64.473 31.904C63.9818 31.9027 63.4924 31.8428 63.0153 31.7256C62.5389 31.6089 62.0826 31.4215 61.6614 31.1695C61.2575 30.9217 60.9109 30.5903 60.6449 30.1974C60.3662 29.7728 60.2073 29.2804 60.1852 28.7724H62.8374C62.8769 28.9901 62.9631 29.1966 63.0899 29.3776C63.2168 29.5586 63.3812 29.7099 63.572 29.8209C63.9609 30.022 64.3937 30.1227 64.8311 30.114C65.5835 30.114 66.1322 29.8877 66.4772 29.4351C66.8358 28.9376 67.0121 28.3311 66.9762 27.7182V26.4252H66.9393C66.6626 26.9303 66.2296 27.3313 65.7056 27.5676C65.1777 27.7993 64.6036 27.936 64.0225 27.9348C63.3736 27.9509 62.7296 27.8182 62.1397 27.5467C61.6279 27.3058 61.1805 26.9464 60.8344 26.4982C60.4854 26.0288 60.2333 25.4944 60.0928 24.9261C59.9334 24.3063 59.8537 23.6691 59.8571 23.0284C59.8516 22.4115 59.9396 21.7974 60.1182 21.2071C60.288 20.6464 60.5571 20.1228 60.9175 19.6605C61.2694 19.2135 61.715 18.8496 62.2228 18.5946C62.7819 18.3212 63.3988 18.1857 64.0202 18.1984C64.6 18.1879 65.1748 18.3066 65.7033 18.546C66.2185 18.8182 66.6412 19.2388 66.9162 19.7543H66.9531V18.4544H69.4944V27.5872C69.4933 28.0507 69.4459 28.4909 69.3535 28.9312L69.3558 28.9335ZM65.6975 25.6896C65.9785 25.5455 66.2233 25.3396 66.4137 25.0871C66.6098 24.8314 66.7535 24.5392 66.8364 24.2275C66.931 23.8999 66.9785 23.5605 66.9774 23.2195C66.9797 22.8372 66.9427 22.4526 66.8653 22.0772C66.7983 21.7389 66.6713 21.4168 66.4888 21.1237C66.3152 20.8491 66.0762 20.6222 65.7934 20.4634C65.4569 20.2879 65.0808 20.2029 64.7018 20.2166C64.3645 20.205 64.0318 20.2838 63.7314 20.4425C63.4624 20.5928 63.231 20.8023 63.0545 21.0554C62.8682 21.3231 62.7341 21.6239 62.6595 21.9417C62.5765 22.2849 62.5354 22.637 62.537 22.9901C62.537 23.3422 62.5718 23.6934 62.641 24.0386C62.7042 24.3684 62.8254 24.6842 62.9991 24.9713C63.167 25.2461 63.3959 25.4784 63.6679 25.6502C63.9833 25.8378 64.3471 25.9282 64.7133 25.912C65.0536 25.9178 65.3904 25.8415 65.6952 25.6896H65.6975ZM74.2882 25.8749C74.6887 26.2642 75.2651 26.4588 76.0175 26.4588C76.5142 26.4704 76.9993 26.343 77.4106 26.0533C77.7398 25.8564 77.9928 25.5552 78.1267 25.1937H80.4786C80.0936 26.3638 79.5172 27.2007 78.7494 27.7043C77.9023 28.2265 76.9213 28.4887 75.9274 28.4585C75.2207 28.4691 74.5186 28.3445 73.8585 28.0912C73.2653 27.862 72.73 27.5039 72.291 27.0427C71.8554 26.5749 71.5194 26.0231 71.3034 25.4208C71.0652 24.7558 70.9478 24.0535 70.9568 23.347C70.9546 22.6516 71.0795 21.9616 71.3253 21.3114C71.5477 20.7048 71.892 20.1505 72.3369 19.6829C72.7818 19.2154 73.3178 18.8445 73.9117 18.5935C74.5514 18.323 75.2401 18.1881 75.9343 18.1973C76.6851 18.1799 77.4267 18.3455 78.0979 18.6792C78.6955 18.986 79.2136 19.4283 79.6111 19.971C80.0132 20.5264 80.3043 21.1547 80.4682 21.8212C80.645 22.5302 80.7085 23.2624 80.6565 23.9911H73.6333C73.6718 24.8577 73.8913 25.4857 74.2917 25.8749H74.2882ZM77.3089 20.7426C76.9886 20.3935 76.5026 20.2189 75.8511 20.2189C75.4849 20.2073 75.1199 20.2803 74.7884 20.4367C74.5273 20.5526 74.2963 20.7495 74.1115 20.9743C73.9491 21.1741 73.8275 21.404 73.7534 21.6509C73.6901 21.8599 73.6491 22.075 73.631 22.2927H77.9743C77.8992 21.7134 77.6682 21.1886 77.3078 20.7437L77.3089 20.7426ZM84.7422 14.7413V28.2129H82.0692V14.7425L84.7422 14.7413ZM89.8248 14.7413V25.7208H96.3698V28.2117H86.8723V14.7425L89.8248 14.7413ZM97.4764 16.9507V14.7471H100.147V16.953L97.4764 16.9507ZM100.147 18.4602V28.2152H97.4764V18.4602H100.147ZM104.315 25.7892C104.43 25.9908 104.586 26.1646 104.775 26.2989C104.971 26.4352 105.191 26.5345 105.423 26.5921C105.672 26.6558 105.928 26.687 106.185 26.6847C106.384 26.6837 106.583 26.6616 106.778 26.6187C106.975 26.5784 107.166 26.5085 107.342 26.4113C107.51 26.3186 107.654 26.1896 107.765 26.0336C107.884 25.8589 107.944 25.6506 107.935 25.4393C107.935 25.0377 107.669 24.7353 107.136 24.5322C106.408 24.2779 105.664 24.0766 104.907 23.9297C104.519 23.8424 104.14 23.7382 103.768 23.6169C103.419 23.5069 103.086 23.3481 102.781 23.1454C102.497 22.9552 102.259 22.7034 102.085 22.4086C101.9 22.0785 101.809 21.7029 101.824 21.3242C101.802 20.7846 101.929 20.2494 102.191 19.7775C102.427 19.3822 102.761 19.054 103.16 18.824C103.58 18.5843 104.038 18.4185 104.514 18.334C105.022 18.2391 105.538 18.1918 106.056 18.1926C106.571 18.1912 107.085 18.2416 107.59 18.3432C108.059 18.4336 108.508 18.6051 108.918 18.853C109.308 19.0942 109.64 19.42 109.888 19.8065C110.163 20.2602 110.321 20.7754 110.348 21.3056H107.807C107.813 21.0944 107.762 20.8854 107.66 20.7008C107.557 20.5162 107.407 20.3629 107.225 20.2571C106.838 20.0712 106.413 19.9814 105.984 19.9953C105.822 19.9965 105.657 20.0069 105.495 20.0243C105.33 20.0416 105.168 20.0829 105.015 20.1471C104.875 20.2058 104.75 20.2953 104.649 20.4089C104.542 20.5456 104.487 20.7171 104.499 20.8909C104.492 21.1156 104.589 21.3311 104.76 21.4748C104.963 21.6405 105.196 21.7652 105.447 21.842C105.765 21.9486 106.088 22.0355 106.417 22.1039C106.781 22.1788 107.151 22.261 107.526 22.3506C107.911 22.4375 108.291 22.5441 108.665 22.6704C109.017 22.7871 109.35 22.9557 109.653 23.1709C109.939 23.3789 110.177 23.6474 110.348 23.9575C110.533 24.3088 110.623 24.7027 110.609 25.0999C110.63 25.6245 110.512 26.1452 110.266 26.6089C110.02 27.0726 109.657 27.4626 109.211 27.739C108.776 28.0113 108.294 28.2001 107.791 28.2951C107.258 28.4022 106.716 28.4558 106.173 28.455C105.617 28.4551 105.062 28.3981 104.517 28.2847C104.005 28.1846 103.517 27.9881 103.078 27.7054C102.653 27.4424 102.296 27.0833 102.032 26.6569C101.744 26.1611 101.593 25.598 101.591 25.035H104.132C104.131 25.2982 104.199 25.557 104.331 25.7846L104.315 25.7892ZM117.368 18.4602V20.2525H115.411V25.0836C115.411 25.5362 115.487 25.8386 115.639 25.9908C115.79 26.1429 116.092 26.2182 116.543 26.2167L116.976 26.1982C117.109 26.186 117.241 26.1667 117.371 26.1402V28.2256C117.122 28.266 116.871 28.2915 116.619 28.3021C116.342 28.3144 116.073 28.3206 115.811 28.3206C115.417 28.3217 115.024 28.2939 114.635 28.2372C114.291 28.1894 113.96 28.0774 113.658 27.907C113.373 27.7425 113.141 27.5015 112.988 27.2096C112.809 26.8394 112.724 26.4306 112.742 26.0197V20.2548H111.124V18.4626H112.742V15.5349H115.412V18.4591L117.368 18.4602ZM25.5207 17.8671C27.2919 18.2007 28.5325 18.9453 29.2425 20.1007C29.961 21.2554 30.3222 23.0782 30.3261 25.5691C30.3261 30.5083 28.8456 34.5505 25.8846 37.6955C22.9236 40.8391 19.137 42.4108 14.5249 42.4108C12.7173 42.4121 10.9249 42.0786 9.23789 41.4272C7.60129 40.8145 6.10337 39.8798 4.8322 38.678C3.53001 37.5218 2.45597 36.1306 1.66597 34.5767C0.979404 33.2051 0.618451 31.6928 0.611328 30.1581C0.611328 28.4728 0.972502 27.1698 1.69485 26.2491C2.41719 25.3277 3.55885 24.6951 5.11983 24.3514C4.87078 23.7862 4.65517 23.2067 4.4741 22.6159C4.3583 22.2643 4.28917 21.8989 4.26849 21.5292C4.26849 20.6472 4.73247 19.7458 5.66043 18.8252C6.58839 17.9038 7.46244 17.443 8.28259 17.443C8.66148 17.4477 9.03728 17.5122 9.39614 17.6342C9.86579 17.7989 10.3175 18.0113 10.7442 18.2679C9.23789 13.9968 8.1432 10.6988 7.46013 8.37396C6.77706 6.05069 6.4363 4.44997 6.43784 3.57179C6.43784 2.3561 6.74587 1.39064 7.36194 0.675436C7.68127 0.318577 8.07559 0.0372424 8.51645 -0.148276C8.9573 -0.333795 9.43372 -0.418873 9.91133 -0.397376C11.748 -0.397376 14.0714 3.71816 16.8814 11.9492C17.3689 13.3596 17.7401 14.4478 17.995 15.214C18.2106 14.6069 18.5132 13.7446 18.9029 12.627C21.723 4.47237 24.1488 0.395068 26.1803 0.395068C26.6282 0.37641 27.0748 0.457658 27.4876 0.632954C27.9005 0.808251 28.2695 1.07323 28.5679 1.40879C29.1555 2.08461 29.4493 2.99098 29.4493 4.1279C29.4493 4.98985 29.122 6.56702 28.4674 8.85939C27.8129 11.1518 26.826 14.1547 25.5068 17.8682L25.5207 17.8671ZM4.53186 29.8603C4.80601 30.194 5.19106 30.6844 5.687 31.3317C6.97767 33.1081 8.16939 33.9963 9.26215 33.9963C9.62501 33.9988 9.97729 33.8738 10.2579 33.643C10.3822 33.5625 10.4865 33.4546 10.5627 33.3275C10.639 33.2004 10.6853 33.0574 10.698 32.9096C10.698 32.6161 10.5055 32.1256 10.1204 31.4382C9.64124 30.6252 9.10221 29.8491 8.50784 29.1165C7.91989 28.3334 7.26724 27.6013 6.55682 26.928C6.04085 26.4685 5.62578 26.2387 5.31158 26.2387C4.62851 26.2387 3.9978 26.6056 3.41947 27.3393C2.84124 28.0805 2.53602 28.9993 2.55542 29.9403C2.57781 30.8665 2.77742 31.7797 3.14339 32.6304C3.58961 33.6989 4.17664 34.7027 4.8888 35.6148C6.01043 37.1368 7.48442 38.3622 9.18359 39.1854C10.9565 40.029 12.899 40.4524 14.8611 40.4228C16.6711 40.455 18.4662 40.0888 20.1197 39.3497C21.7733 38.6107 23.2451 37.5169 24.4314 36.1454C27.0004 33.2938 28.2849 29.7217 28.2849 25.4289C28.311 24.3771 28.2125 23.3259 27.9915 22.2973C27.8663 21.6412 27.526 21.0458 27.0247 20.6059C26.2238 19.9401 24.6651 19.3415 22.3487 18.8101C19.9675 18.2741 17.5337 18.0083 15.0933 18.0177C14.3902 18.0177 13.8919 18.1355 13.5985 18.371C13.3059 18.6066 13.1596 19.0082 13.1596 19.5759C13.1596 20.9098 13.9019 21.8752 15.3867 22.4723C16.8714 23.0693 19.2753 23.364 22.5982 23.3562H23.7995C23.9249 23.3504 24.0499 23.374 24.1646 23.4251C24.2793 23.4762 24.3805 23.5533 24.4603 23.6505C24.6518 23.9236 24.7682 24.2425 24.7976 24.575C24.4649 24.8894 23.7795 25.247 22.7414 25.6478C21.9059 25.9436 21.1089 26.3392 20.3676 26.8261C19.2328 27.6621 18.2768 28.7179 17.556 29.931C16.8989 30.9343 16.5289 32.0992 16.4864 33.2989C16.5146 34.097 16.6682 34.8856 16.9415 35.6357C17.1531 36.1815 17.3057 36.7486 17.3966 37.3271V37.5333L17.3389 37.7998C16.4794 37.7411 15.801 37.2364 15.3035 36.2856C14.806 35.3356 14.5573 34.067 14.5573 32.4798V32.2133C14.4231 32.3363 14.2692 32.4357 14.1022 32.5076C13.9476 32.5679 13.7829 32.5978 13.617 32.5956C13.4497 32.5965 13.2826 32.5818 13.118 32.5516C12.9394 32.517 12.7628 32.4729 12.5889 32.4195C12.6459 32.6278 12.6899 32.8395 12.7206 33.0533C12.7461 33.2143 12.7608 33.3768 12.7645 33.5398C12.7666 33.8943 12.6917 34.2449 12.5451 34.5674C12.3985 34.8899 12.1837 35.1766 11.9155 35.4074C11.3664 35.9192 10.6411 36.1978 9.89169 36.1848C8.65955 36.1848 7.40931 35.5824 6.14097 34.3775C4.87186 33.1726 4.23653 31.994 4.23499 30.8416C4.23219 30.6475 4.25708 30.454 4.30892 30.267C4.3537 30.1057 4.43879 29.9585 4.55612 29.8395L4.53186 29.8603ZM13.3271 30.5647C13.5024 30.5593 13.6744 30.5157 13.8312 30.4369C13.988 30.3581 14.1258 30.2459 14.235 30.1082C14.4923 29.845 14.6394 29.4931 14.6462 29.1246C14.6462 28.7539 14.3779 27.8869 13.8411 26.5237C13.2877 25.1309 12.6157 23.7886 11.8323 22.5117C11.37 21.6891 10.7867 20.9411 10.1019 20.2931C9.53437 19.7941 8.99685 19.5446 8.48936 19.5446C8.07813 19.5446 7.62378 19.8034 7.1263 20.3209C6.62882 20.8383 6.38008 21.3234 6.38008 21.776C6.38008 22.2456 6.62381 22.9508 7.11128 23.8915C7.67527 24.9484 8.33288 25.9522 9.07617 26.891C9.78426 27.8803 10.6002 28.7872 11.5089 29.595C12.279 30.2361 12.885 30.5566 13.3271 30.5566V30.5647ZM16.1999 16.3644L13.0348 7.18413C12.2147 4.85314 11.5793 3.32889 11.1288 2.61136C10.6783 1.89461 10.1893 1.53701 9.66182 1.53855C9.47219 1.53498 9.28432 1.57573 9.1131 1.65757C8.94188 1.73941 8.79201 1.8601 8.67534 2.01008C8.40471 2.37373 8.26944 2.82088 8.29298 3.27405C8.29298 4.1754 8.63452 5.74715 9.31759 7.98932C10.0007 10.2292 11.0268 13.1595 12.396 16.7803C12.5031 16.5736 12.68 16.4118 12.895 16.3239C13.1779 16.2246 13.477 16.1798 13.7764 16.1918C13.8942 16.1918 14.1284 16.2015 14.4787 16.2208C14.8291 16.2401 15.404 16.2864 16.2034 16.3598L16.1999 16.3644ZM19.5105 25.2644C18.7096 25.2292 17.912 25.1406 17.1228 24.9991C16.3892 24.8664 15.6687 24.6691 14.9697 24.4094C15.2808 25.0381 15.5588 25.6656 15.8037 26.292C16.036 26.8977 16.2324 27.5167 16.3916 28.1457C16.8407 27.5757 17.3314 27.0402 17.8598 26.5434C18.3732 26.0712 18.9254 25.6434 19.5105 25.2644ZM23.4079 17.3573C24.7171 13.7905 25.7382 10.844 26.4714 8.51762C27.206 6.20053 27.5718 4.77475 27.5687 4.24027C27.5973 3.77046 27.468 3.30461 27.2014 2.91722C27.0828 2.76329 26.9291 2.64014 26.7533 2.55809C26.5774 2.47605 26.3845 2.4375 26.1907 2.44569C25.6516 2.44569 25.0944 2.90138 24.5192 3.81277C23.9516 4.72416 23.3259 6.18933 22.6421 8.20829L19.7265 16.7166L23.4079 17.3573Z" fill="#231F20"/>
</g>
<defs>
<clipPath id="clip0_3_1652">
<rect width="117.824" height="41.7076" fill="white" transform="translate(0.0878906 0.14624)"/>
</clipPath>
</defs>
</svg>
