<svg width="75" height="44" viewBox="0 0 75 44" fill="none" xmlns="http://www.w3.org/2000/svg">
<path fill-rule="evenodd" clip-rule="evenodd" d="M39.9477 16.7955C39.9422 16.7909 39.9388 16.7879 39.9362 16.7857C39.9409 16.7898 39.9477 16.7955 39.9477 16.7955ZM61.5747 14.9206C61.5853 14.9171 61.59 14.9155 61.5747 14.9206V14.9206ZM23.0586 5.89562L24.8746 5.73508C25.2185 5.70462 25.4499 5.46649 25.4499 5.14257V4.33012C25.4499 4.06936 25.2717 3.82201 24.8746 3.85718L23.0586 4.01766C22.6615 4.05275 22.4838 4.33157 22.4838 4.59233V5.40478C22.4838 5.72877 22.7148 5.92601 23.0586 5.89562ZM56.991 12.8438C57.6281 13.3213 58.4119 13.5239 59.3212 13.4436C60.5806 13.3323 61.5346 13.1285 62.2433 12.8215C62.4884 12.7126 62.6294 12.5114 62.6294 12.2692V11.5707C62.6302 11.1139 62.24 11.0071 61.9638 11.099C61.2958 11.3149 60.4321 11.4674 59.3212 11.5655C59.0176 11.5923 58.7575 11.5117 58.5478 11.3232C58.3375 11.1338 58.2304 10.8949 58.2304 10.6105V7.23147C58.2304 6.94838 58.3374 6.68936 58.5476 6.46406C58.7583 6.23869 59.0183 6.11179 59.3213 6.08503C60.4307 5.98699 61.3192 5.98692 61.9597 6.08401C62.2749 6.1334 62.6295 5.94841 62.6295 5.49527V4.7966C62.6295 4.56695 62.5035 4.39328 62.2595 4.31083C61.5555 4.12882 60.5941 4.09452 59.3213 4.20706C58.4128 4.28734 57.622 4.63461 56.972 5.23821C56.3327 5.82956 55.9943 6.58813 55.9943 7.42907V10.8081C55.9943 11.6629 56.3293 12.347 56.991 12.8438ZM27.7029 16.2382L28.7889 16.1423C29.1327 16.1118 29.3641 15.8734 29.3641 15.5497V9.76736C29.3641 9.49666 29.4735 9.23496 29.6819 8.99885C29.8913 8.77471 30.1514 8.64781 30.4553 8.62091L31.9155 8.49191C32.208 8.46609 32.459 8.54999 32.6695 8.7502C32.8809 8.93947 32.987 9.17441 32.987 9.44721V15.2295C32.987 15.5532 33.2191 15.7507 33.563 15.7203L34.6672 15.6227C34.7219 15.6178 34.7748 15.6011 34.8249 15.5752C35.154 15.4038 35.2235 15.1856 35.2235 15.0319V9.24953C35.2235 8.97775 35.3327 8.71612 35.5417 8.48096C35.7511 8.25675 36.0111 8.12992 36.3148 8.10309L37.7745 7.97409C38.0698 7.94798 38.323 8.03181 38.5478 8.23071C38.7593 8.41998 38.8658 8.65485 38.8658 8.92765V14.71C38.8658 15.0337 39.0973 15.2312 39.4413 15.2008L40.5265 15.105C40.8703 15.0745 41.1017 14.8361 41.1017 14.5124V8.73005C41.1017 7.86909 40.7648 7.18934 40.1054 6.71256C39.4673 6.23281 38.6825 6.03137 37.7744 6.11164L36.3147 6.24064C35.454 6.31671 34.7131 6.6188 34.1054 7.13996C33.5005 6.72598 32.7652 6.55434 31.9155 6.62946L30.4553 6.75854C29.5553 6.83801 28.7663 7.17738 28.1057 7.77308C27.4664 8.36472 27.1281 9.12285 27.1281 9.96503V15.7474C27.128 16.0711 27.3591 16.2686 27.7029 16.2382ZM39.9734 16.8169C40.0737 16.9091 40.1762 17.0305 40.2812 17.1812C40.3862 17.3322 40.4947 17.4894 40.6066 17.6533L44.6015 23.2291V17.277C44.6015 16.8903 44.6866 16.5932 44.8568 16.386C44.8613 16.3806 44.8663 16.3759 44.8708 16.3706L39.9477 16.7955C39.9562 16.8029 39.9651 16.8094 39.9734 16.8169ZM24.5192 7.28318L23.4146 7.38085C23.0174 7.41595 22.8393 7.69571 22.8393 7.95676V16.1265C22.8393 16.4502 23.0707 16.6477 23.4146 16.6173L24.5192 16.5197C24.8627 16.4893 25.094 16.2509 25.094 15.9271V7.75742C25.094 7.49644 24.9163 7.24801 24.5192 7.28318ZM42.2171 6.41344C42.3462 6.34441 42.4529 6.25036 42.539 6.14362L44.7354 8.3521L43.4254 8.78465C43.3836 8.66065 43.3085 8.54898 43.1978 8.4658C42.8737 8.2223 42.3867 8.29989 42.1074 8.63977C41.8291 8.97957 41.8647 9.45243 42.1884 9.69608C42.5115 9.93936 43.0001 9.86075 43.2777 9.52124C43.3545 9.42821 43.4053 9.32538 43.4344 9.21893L44.7487 9.8163C44.7486 9.84176 44.7448 9.86663 44.7448 9.89201C44.7448 12.6376 47.0259 14.6619 49.8398 14.4132C52.654 14.1645 54.9354 11.7369 54.9354 8.99131C54.9354 6.24572 52.6539 4.22164 49.8398 4.47036C48.7852 4.56361 47.8051 4.96302 46.9924 5.57076L45.8824 4.82024C45.9643 4.69515 46.0172 4.55136 46.025 4.39763C46.0467 3.95363 45.6967 3.60781 45.2423 3.62557C44.7892 3.64501 44.4034 4.02114 44.3813 4.46608C44.3599 4.91001 44.7098 5.25583 45.1635 5.23647C45.2875 5.23183 45.4054 5.19818 45.5135 5.14554L45.7563 6.63265L42.7546 5.63849C42.7745 5.47533 42.7524 5.30898 42.6783 5.15794C42.4618 4.71727 41.9042 4.56499 41.4329 4.81734C40.9618 5.06969 40.7553 5.6324 40.9721 6.07299C41.1879 6.51366 41.7469 6.66652 42.2171 6.41344ZM50.9709 11.1361C51.3445 11.1031 51.6462 11.3728 51.6462 11.7357C51.6462 12.1001 51.3445 12.422 50.9709 12.4551C50.5973 12.4881 50.2955 12.2194 50.2955 11.8551C50.2955 11.4922 50.5973 11.1692 50.9709 11.1361ZM48.621 11.3439C48.9949 11.3108 49.2971 11.5804 49.2971 11.9433C49.2971 12.3076 48.995 12.6296 48.621 12.6627C48.2474 12.6958 47.9456 12.427 47.9456 12.0628C47.9456 11.6999 48.2473 11.3768 48.621 11.3439ZM53.7921 15.5984C53.7747 15.5978 53.7671 15.5975 53.7647 15.5975C53.7685 15.5976 53.7809 15.5981 53.7921 15.5984ZM52.2484 17.2752L50.877 17.3856V24.1775L52.4512 24.0507C52.7962 24.0229 53.0669 23.992 53.2628 23.958C53.4586 23.924 53.6615 23.8622 53.8714 23.7724C54.0813 23.6828 54.2632 23.5657 54.4172 23.4213C55.1121 22.7919 55.4596 21.7765 55.4596 20.3748C55.4596 19.3874 55.3067 18.6602 55.0014 18.1933C54.6958 17.7265 54.3192 17.444 53.8714 17.3458C53.4238 17.2477 52.8825 17.224 52.2484 17.2752ZM30.0423 23.5557L33.1066 23.3088L31.5603 19.3037L30.0423 23.5557ZM66.84 16.682C66.7404 16.682 66.7368 16.7513 66.7368 16.7513C66.7369 16.7598 66.7376 16.7683 66.7376 16.7768C66.7376 17.0181 66.6502 17.2424 66.4753 17.4498C66.3004 17.6574 66.0823 17.7717 65.8211 17.7927C65.5832 17.8118 65.4024 17.7684 65.2789 17.6622C65.1552 17.5562 65.0211 17.377 64.8766 17.1247C64.6899 16.7621 64.4661 16.4855 64.2049 16.2948C63.9436 16.1043 63.5239 16.0323 62.9456 16.0789C62.4091 16.1222 61.9766 16.272 61.6478 16.5281C61.3189 16.7845 61.1545 17.0741 61.1545 17.3973C61.1545 17.5976 61.2105 17.7659 61.3225 17.9025C61.4344 18.0392 61.5883 18.1519 61.7842 18.2407C61.9802 18.3298 62.1783 18.3957 62.3789 18.4386C62.5794 18.4816 62.9106 18.5415 63.3724 18.618C63.9506 18.7035 64.4743 18.8068 64.9431 18.9283C65.4118 19.0499 65.8106 19.2111 66.1393 19.4121C66.4682 19.6132 66.7246 19.8804 66.9089 20.2136C66.9192 20.2323 66.9282 20.2523 66.938 20.2715V16.7514C66.9381 16.7512 66.9251 16.682 66.84 16.682ZM49.5989 15.9315C49.5574 15.9442 49.5171 15.9577 49.479 15.9727L49.5989 15.9624V15.9315ZM53.8091 15.5989C53.8042 15.5988 53.8017 15.5987 53.7977 15.5986C53.804 15.5988 53.8091 15.5989 53.8091 15.5989ZM65.3034 24.3872C64.6877 24.7099 63.9577 24.9052 63.1136 24.9732C62.1014 25.0547 61.2666 24.9354 60.6089 24.6152C60.1425 24.3843 59.7635 24.0565 59.472 23.6317C59.1805 23.2069 59.0347 22.7829 59.0347 22.3598C59.0347 22.1139 59.1222 21.8965 59.297 21.7072C59.4719 21.5179 59.6946 21.4124 59.9652 21.3905C60.1844 21.3729 60.3698 21.4262 60.5213 21.5505C60.6728 21.6749 60.8023 21.867 60.9097 22.1267C61.0401 22.4348 61.1813 22.6897 61.3329 22.8913C61.4844 23.0931 61.6977 23.2522 61.973 23.3687C62.2481 23.4854 62.6097 23.5256 63.0575 23.4896C63.6732 23.4399 64.1733 23.2597 64.5581 22.9489C64.9431 22.638 65.1353 22.2733 65.1353 21.8546C65.1353 21.5225 65.0316 21.2612 64.8241 21.0708C64.6164 20.8805 64.3483 20.7439 64.0195 20.6613C63.6906 20.5785 63.2509 20.4979 62.7007 20.4194C61.9636 20.3105 61.3469 20.1632 60.8501 19.978C60.3534 19.7928 59.9592 19.5174 59.6678 19.1517C59.3761 18.7861 59.2304 18.3145 59.2304 17.7365C59.2304 17.1859 59.3843 16.6843 59.6923 16.2318C60.0001 15.7793 60.4454 15.4145 61.0285 15.1377C61.1918 15.0602 61.3641 14.992 61.5436 14.9312L53.8089 15.5989C54.0921 15.6079 54.3537 15.6323 54.592 15.6733C55.0957 15.7602 55.5528 15.9623 55.9632 16.2796C57.0312 17.0855 57.5653 18.3986 57.5653 20.2188C57.5653 20.8194 57.5116 21.3722 57.4044 21.8767C57.2971 22.3814 57.1316 22.8419 56.9077 23.2581C56.6838 23.6743 56.3969 24.0535 56.0471 24.3957C55.7718 24.6592 55.471 24.8767 55.1446 25.0486C54.8181 25.2206 54.4671 25.3513 54.0916 25.4406C53.7161 25.53 53.2929 25.5937 52.8219 25.6317L50.1142 25.8498C49.7364 25.8803 49.4519 25.8475 49.2608 25.7514C49.0695 25.6554 48.9447 25.5083 48.8864 25.3106C48.828 25.1128 48.7989 24.8523 48.7989 24.5292V17.1913C48.7989 16.7544 48.8992 16.4301 49.0998 16.2183C49.197 16.1157 49.3237 16.0342 49.4788 15.9728L46.2304 16.2533C46.2376 16.2602 46.2454 16.2663 46.2524 16.2736C46.4249 16.4532 46.5112 16.7363 46.5112 17.123V24.9934C46.5112 25.8717 46.1381 26.3408 45.3918 26.401C45.2053 26.416 45.0373 26.4033 44.8881 26.3631C44.7388 26.3227 44.5989 26.251 44.4684 26.1477C44.3377 26.0445 44.2165 25.9213 44.1046 25.7777C43.9926 25.6343 43.8807 25.4875 43.7688 25.3372L39.8719 19.8218V25.6853C39.8719 26.0675 39.7809 26.3639 39.599 26.5741C39.4171 26.7844 39.1838 26.9012 38.8994 26.9241C38.6055 26.9477 38.3699 26.8677 38.1928 26.684C38.0154 26.5003 37.9269 26.2197 37.9269 25.842V18.1218C37.9269 17.7941 37.9642 17.5341 38.0388 17.3414C38.1024 17.1892 38.1966 17.0543 38.3204 16.936L32.5638 17.433C32.6406 17.4949 32.7085 17.565 32.7672 17.6432C32.8862 17.802 32.9863 17.9749 33.068 18.1616C33.1496 18.3486 33.2534 18.5984 33.3793 18.9114L36.0589 25.1528C36.2689 25.6274 36.3738 25.9761 36.3738 26.1991C36.3738 26.4312 36.2746 26.6519 36.0764 26.8613C35.8782 27.0706 35.6392 27.1866 35.3593 27.2092C35.196 27.2224 35.0561 27.2051 34.9396 27.1577C34.823 27.1101 34.7251 27.0409 34.6458 26.9493C34.5664 26.8579 34.4813 26.7146 34.3904 26.5193C34.2994 26.3243 34.2213 26.1519 34.156 26.0023L33.6663 24.7859L29.4965 25.1218L29.0068 26.4446C28.8154 26.9606 28.6522 27.3117 28.517 27.4977C28.3816 27.6836 28.1602 27.7892 27.8523 27.814C27.5911 27.835 27.3603 27.7603 27.1597 27.5899C26.9591 27.4195 26.859 27.2159 26.859 26.9793C26.859 26.8428 26.8822 26.6999 26.9288 26.5504C26.9754 26.4011 27.0524 26.1923 27.1597 25.9244L29.7834 19.2146C29.8579 19.0221 29.9477 18.7908 30.0527 18.5206C30.1577 18.2505 30.2695 18.0242 30.3885 17.8416C30.4445 17.7557 30.5091 17.6767 30.5816 17.6041L23.8508 18.1852C23.908 18.2015 23.964 18.2191 24.0184 18.2389C24.3402 18.345 24.6246 18.5108 24.8719 18.7366C25.1191 18.9624 25.3068 19.233 25.4351 19.5479C25.5634 19.863 25.6275 20.2025 25.6275 20.5665C25.6275 21.3128 25.4117 21.9263 24.9803 22.4071C24.5488 22.8879 23.8947 23.2568 23.0179 23.514C23.3863 23.6754 23.7386 23.9293 24.0744 24.2753C24.4102 24.6214 24.7098 24.9943 24.9734 25.394C25.2368 25.7938 25.4422 26.1572 25.5891 26.4843C25.736 26.8116 25.8094 27.0389 25.8094 27.1662C25.8094 27.2982 25.7663 27.4325 25.68 27.5692C25.5936 27.7058 25.4759 27.8177 25.3267 27.9048C25.1773 27.9919 25.0049 28.0434 24.809 28.0592C24.5757 28.078 24.3797 28.0402 24.2213 27.9461C24.0626 27.852 23.9262 27.7275 23.812 27.5729C23.6976 27.4183 23.5426 27.1896 23.3467 26.8869L22.5142 25.6024C22.2156 25.1304 21.9486 24.7743 21.7131 24.5339C21.4776 24.2934 21.2384 24.1353 20.996 24.0592C20.7535 23.9831 20.4479 23.96 20.0795 23.9897L19.3519 24.0483V27.2634C19.3519 27.6866 19.2562 28.0061 19.0651 28.2216C18.8738 28.4373 18.6243 28.5575 18.3165 28.5823C17.9852 28.609 17.7288 28.525 17.5468 28.3303C17.365 28.1357 17.2741 27.8359 17.2741 27.4308V19.7311C17.2741 19.2942 17.3742 18.9699 17.5748 18.7581C17.5862 18.7461 17.5994 18.7354 17.6115 18.7239L13.5052 19.0784C13.6038 19.1132 13.6989 19.153 13.7899 19.1995C14.0324 19.3211 14.2469 19.4825 14.4336 19.6835C14.6201 19.8847 14.7623 20.1122 14.8603 20.3658C14.9583 20.6196 15.0073 20.8922 15.0073 21.1834C15.0073 22.1846 14.4941 22.9585 13.4681 23.5053C14.816 23.8154 15.49 24.5757 15.49 25.7861C15.49 26.3458 15.343 26.8617 15.0492 27.3336C14.7554 27.8055 14.3589 28.1686 13.8599 28.4226C13.5474 28.5752 13.1883 28.6941 12.7825 28.779C12.3767 28.8641 11.9032 28.9284 11.3622 28.9719L8.22782 29.2244C7.77531 29.2609 7.45232 29.188 7.25886 29.0055C7.24022 28.988 7.22269 28.9688 7.20583 28.9489V29.3452C7.20583 29.3452 7.2446 29.4182 7.32005 29.4375C9.89066 30.095 54.9904 41.6313 54.9904 41.6313L66.9381 23.2596V22.6962C66.8731 22.8484 66.7968 22.9969 66.7062 23.1411C66.3867 23.6493 65.9191 24.0646 65.3034 24.3872ZM66.9547 22.6575C66.9504 22.6674 66.9457 22.6784 66.9405 22.6906C66.9434 22.6838 66.9486 22.6715 66.9547 22.6575ZM70.9381 3.9872C70.2997 3.50752 69.5154 3.30608 68.6071 3.38628C67.4697 3.48678 66.6127 3.63225 66.0464 3.82376C65.6423 3.97437 65.5988 4.26899 65.5988 4.38835V5.11885C65.5988 5.26055 65.6372 5.37737 65.712 5.46598C65.8079 5.57816 65.9512 5.63167 66.1159 5.6171C66.1431 5.6147 66.2093 5.60332 66.236 5.59549C66.6748 5.46496 67.4726 5.34901 68.6072 5.24873C68.8996 5.22291 69.151 5.30688 69.3616 5.50702C69.5733 5.69621 69.6795 5.93115 69.6795 6.20395V6.68711L67.1474 6.91089C66.2374 6.99131 65.4474 7.33749 64.7974 7.94102C64.1491 8.54231 63.8201 9.27404 63.8201 10.1164C63.8201 10.9699 64.1553 11.6546 64.8165 12.1522C65.4542 12.6296 66.2382 12.8321 67.1474 12.7518L71.3591 12.3796C71.6868 12.3507 71.9158 12.1071 71.9158 11.7887V6.00628C71.9158 5.16533 71.5775 4.46666 70.9381 3.9872ZM69.6794 10.6499L67.1473 10.8736C66.8436 10.9005 66.5838 10.8198 66.3743 10.6313C66.163 10.442 66.0561 10.2032 66.0561 9.91869C66.0561 9.64568 66.163 9.39181 66.3743 9.16665C66.5838 8.94244 66.8436 8.81554 67.1473 8.78871L69.6794 8.56486V10.6499ZM19.3519 22.5944L21.2129 22.4446C21.712 22.4044 22.1318 22.3285 22.4722 22.2168C22.8127 22.1052 23.0727 21.9409 23.2523 21.7239C23.4318 21.507 23.5216 21.2209 23.5216 20.866C23.5216 20.5885 23.4492 20.3496 23.3048 20.1496C23.1602 19.9497 22.9596 19.8078 22.703 19.7237C22.4605 19.6432 21.9824 19.6316 21.2688 19.6891L19.3518 19.8435V22.5944H19.3519ZM12.8384 24.7506C12.4746 24.5524 11.9311 24.4824 11.2083 24.5406L9.04646 24.7148V27.6362L11.2783 27.4565C12.6821 27.3433 13.3842 26.7931 13.3842 25.8055C13.3841 25.3005 13.2022 24.9489 12.8384 24.7506ZM13.2863 17.5125L14.3722 17.4165C14.716 17.3861 14.9468 17.1477 14.9468 16.824V11.0416C14.9468 10.771 15.056 10.5093 15.2649 10.273C15.4743 10.0489 15.7343 9.92203 16.038 9.8952L17.4985 9.76612C17.7909 9.74031 18.0416 9.82435 18.2525 10.0244C18.4637 10.2137 18.5703 10.4486 18.5703 10.7213V16.5037C18.5703 16.8274 18.8017 17.0249 19.1455 16.9946L20.2505 16.8968C20.5778 16.868 20.8068 16.6243 20.8068 16.306V10.5237C20.8068 9.66279 20.4696 8.98312 19.8103 8.50627C19.1724 8.02652 18.3947 7.82449 17.4985 7.90368L16.038 8.03275C15.1387 8.1123 14.3493 8.45166 13.6887 9.04737C13.0493 9.63901 12.711 10.3971 12.711 11.2393V17.0216C12.7111 17.3453 12.9424 17.5429 13.2863 17.5125ZM13.5052 19.0784C13.5008 19.0769 13.4985 19.0761 13.4951 19.0749C13.5008 19.0768 13.5052 19.0784 13.5052 19.0784ZM9.04639 23.2608L10.9494 23.1076C11.4671 23.0659 11.867 22.9858 12.1493 22.8675C12.4314 22.7492 12.6471 22.5499 12.7964 22.2693C12.9129 22.0688 12.9713 21.8502 12.9713 21.6136C12.9713 21.1085 12.787 20.7878 12.4186 20.6513C12.0502 20.5149 11.4881 20.4771 10.7325 20.5379L9.04646 20.6737V23.2608H9.04639ZM10.6598 17.2029V11.4206C10.6598 10.5797 10.3216 9.88099 9.68182 9.40152C9.04342 8.92184 8.25871 8.7204 7.35087 8.8006C6.2134 8.90111 5.35643 9.04657 4.78963 9.23808C4.38577 9.38876 4.34239 9.68331 4.34239 9.80267V10.5332C4.34239 10.6749 4.38086 10.7917 4.45528 10.8803C4.55123 10.9925 4.69479 11.046 4.85951 11.0314C4.88662 11.029 4.95287 11.0176 4.97938 11.0098C5.41882 10.8792 6.21622 10.7633 7.35087 10.663C7.64289 10.6372 7.89466 10.7212 8.10565 10.9213C8.31657 11.1106 8.42307 11.3455 8.42307 11.6183V12.1015L5.89116 12.3252C4.98153 12.4056 4.19119 12.7518 3.54157 13.3552C2.89255 13.9566 2.56348 14.6884 2.56348 15.5306C2.56348 16.3841 2.89894 17.0695 3.56051 17.5664C4.19787 18.0438 4.98191 18.2463 5.89116 18.166L10.1029 17.7938C10.4309 17.7648 10.6598 17.5213 10.6598 17.2029ZM8.42299 16.0642L5.89108 16.288C5.5874 16.3148 5.3271 16.2341 5.11804 16.0456C4.90638 15.8563 4.79988 15.6174 4.79988 15.333C4.79988 15.06 4.90638 14.8061 5.11804 14.581C5.3271 14.3568 5.5874 14.2299 5.89108 14.203L8.42299 13.9793V16.0642Z" fill="black"/>
</svg>
