<svg width="159" height="22" viewBox="0 0 159 22" fill="none" xmlns="http://www.w3.org/2000/svg">
<path d="M0.299355 17V1H6.42435C7.5806 1 8.54154 1.18229 9.30717 1.54687C10.078 1.90625 10.6535 2.39844 11.0337 3.02344C11.4191 3.64844 11.6119 4.35677 11.6119 5.14844C11.6119 5.79948 11.4869 6.35677 11.2369 6.82031C10.9869 7.27865 10.6509 7.65104 10.229 7.9375C9.80717 8.22396 9.33581 8.42969 8.81498 8.55469V8.71094C9.38269 8.74219 9.92696 8.91667 10.4478 9.23437C10.9738 9.54687 11.4035 9.98958 11.7369 10.5625C12.0702 11.1354 12.2369 11.8281 12.2369 12.6406C12.2369 13.4687 12.0363 14.2135 11.6353 14.875C11.2343 15.5312 10.6301 16.0495 9.82279 16.4297C9.0155 16.8099 7.99988 17 6.77592 17H0.299355ZM3.19779 14.5781H6.31498C7.36706 14.5781 8.12488 14.3776 8.58842 13.9766C9.05717 13.5703 9.29154 13.0495 9.29154 12.4141C9.29154 11.9401 9.17435 11.513 8.93998 11.1328C8.7056 10.7474 8.37227 10.4453 7.93998 10.2266C7.50769 10.0026 6.99206 9.89063 6.3931 9.89063H3.19779V14.5781ZM3.19779 7.80469H6.06498C6.56498 7.80469 7.0155 7.71354 7.41654 7.53125C7.81758 7.34375 8.13269 7.08073 8.36186 6.74219C8.59623 6.39844 8.71342 5.99219 8.71342 5.52344C8.71342 4.90365 8.49467 4.39323 8.05717 3.99219C7.62488 3.59114 6.98165 3.39062 6.12748 3.39062H3.19779V7.80469ZM17.3365 17.2422C16.576 17.2422 15.8912 17.1068 15.2818 16.8359C14.6776 16.5599 14.1984 16.1536 13.8443 15.6172C13.4953 15.0807 13.3208 14.4193 13.3208 13.6328C13.3208 12.9557 13.4458 12.3958 13.6958 11.9531C13.9458 11.5104 14.287 11.1562 14.7193 10.8906C15.1516 10.625 15.6385 10.4245 16.1802 10.2891C16.7271 10.1484 17.2922 10.0469 17.8755 9.98437C18.5787 9.91146 19.149 9.84635 19.5865 9.78906C20.024 9.72656 20.3417 9.63281 20.5396 9.50781C20.7427 9.3776 20.8443 9.17708 20.8443 8.90625V8.85938C20.8443 8.27083 20.6698 7.8151 20.3208 7.49219C19.9719 7.16927 19.4693 7.00781 18.813 7.00781C18.1203 7.00781 17.5708 7.15885 17.1646 7.46094C16.7635 7.76302 16.4927 8.11979 16.3521 8.53125L13.7115 8.15625C13.9198 7.42708 14.2635 6.81771 14.7427 6.32812C15.2219 5.83333 15.8078 5.46354 16.5005 5.21875C17.1932 4.96875 17.9589 4.84375 18.7974 4.84375C19.3755 4.84375 19.951 4.91146 20.524 5.04687C21.0969 5.18229 21.6203 5.40625 22.0943 5.71875C22.5682 6.02604 22.9484 6.44531 23.2349 6.97656C23.5266 7.50781 23.6724 8.17187 23.6724 8.96875V17H20.9537V15.3516H20.8599C20.688 15.6849 20.4458 15.9974 20.1333 16.2891C19.826 16.5755 19.438 16.8073 18.9693 16.9844C18.5057 17.1563 17.9615 17.2422 17.3365 17.2422ZM18.0708 15.1641C18.6385 15.1641 19.1307 15.0521 19.5474 14.8281C19.9641 14.599 20.2844 14.2969 20.5083 13.9219C20.7375 13.5469 20.8521 13.138 20.8521 12.6953V11.2812C20.7635 11.3542 20.6125 11.4219 20.399 11.4844C20.1906 11.5469 19.9563 11.6016 19.6958 11.6484C19.4354 11.6953 19.1776 11.737 18.9224 11.7734C18.6672 11.8099 18.4458 11.8411 18.2583 11.8672C17.8365 11.9245 17.4589 12.0182 17.1255 12.1484C16.7922 12.2786 16.5292 12.4609 16.3365 12.6953C16.1438 12.9245 16.0474 13.2214 16.0474 13.5859C16.0474 14.1068 16.2375 14.5 16.6177 14.7656C16.9979 15.0312 17.4823 15.1641 18.0708 15.1641ZM28.5943 1V17H25.7662V1H28.5943ZM34.2056 17.2422C33.4452 17.2422 32.7603 17.1068 32.1509 16.8359C31.5468 16.5599 31.0676 16.1536 30.7134 15.6172C30.3645 15.0807 30.19 14.4193 30.19 13.6328C30.19 12.9557 30.315 12.3958 30.565 11.9531C30.815 11.5104 31.1561 11.1562 31.5884 10.8906C32.0207 10.625 32.5077 10.4245 33.0494 10.2891C33.5962 10.1484 34.1613 10.0469 34.7447 9.98437C35.4478 9.91146 36.0181 9.84635 36.4556 9.78906C36.8931 9.72656 37.2108 9.63281 37.4087 9.50781C37.6119 9.3776 37.7134 9.17708 37.7134 8.90625V8.85938C37.7134 8.27083 37.5389 7.8151 37.19 7.49219C36.841 7.16927 36.3384 7.00781 35.6822 7.00781C34.9895 7.00781 34.44 7.15885 34.0337 7.46094C33.6327 7.76302 33.3619 8.11979 33.2212 8.53125L30.5806 8.15625C30.7889 7.42708 31.1327 6.81771 31.6119 6.32812C32.091 5.83333 32.677 5.46354 33.3697 5.21875C34.0624 4.96875 34.828 4.84375 35.6665 4.84375C36.2447 4.84375 36.8202 4.91146 37.3931 5.04687C37.966 5.18229 38.4895 5.40625 38.9634 5.71875C39.4374 6.02604 39.8176 6.44531 40.104 6.97656C40.3957 7.50781 40.5415 8.17187 40.5415 8.96875V17H37.8228V15.3516H37.729C37.5572 15.6849 37.315 15.9974 37.0025 16.2891C36.6952 16.5755 36.3072 16.8073 35.8384 16.9844C35.3749 17.1563 34.8306 17.2422 34.2056 17.2422ZM34.94 15.1641C35.5077 15.1641 35.9999 15.0521 36.4165 14.8281C36.8332 14.599 37.1535 14.2969 37.3775 13.9219C37.6066 13.5469 37.7212 13.138 37.7212 12.6953V11.2812C37.6327 11.3542 37.4816 11.4219 37.2681 11.4844C37.0598 11.5469 36.8254 11.6016 36.565 11.6484C36.3046 11.6953 36.0468 11.737 35.7915 11.7734C35.5363 11.8099 35.315 11.8411 35.1275 11.8672C34.7056 11.9245 34.328 12.0182 33.9947 12.1484C33.6613 12.2786 33.3983 12.4609 33.2056 12.6953C33.0129 12.9245 32.9165 13.2214 32.9165 13.5859C32.9165 14.1068 33.1066 14.5 33.4869 14.7656C33.8671 15.0312 34.3514 15.1641 34.94 15.1641ZM42.6353 5H45.4634V17.6875C45.4634 18.5521 45.2994 19.2656 44.9712 19.8281C44.6431 20.3906 44.1691 20.8099 43.5494 21.0859C42.9296 21.362 42.177 21.5 41.2915 21.5C41.1874 21.5 41.091 21.4974 41.0025 21.4922C40.9139 21.4922 40.8176 21.4896 40.7134 21.4844V19.1797C40.7915 19.1849 40.8619 19.1875 40.9244 19.1875C40.9869 19.1927 41.052 19.1953 41.1197 19.1953C41.6613 19.1953 42.0494 19.0625 42.2837 18.7969C42.5181 18.5365 42.6353 18.1536 42.6353 17.6484V5ZM44.0415 3.29688C43.5884 3.29688 43.2004 3.14844 42.8775 2.85156C42.5598 2.54948 42.4009 2.1875 42.4009 1.76562C42.4009 1.33854 42.5598 0.976562 42.8775 0.679686C43.2004 0.377603 43.5884 0.226562 44.0415 0.226562C44.4895 0.226562 44.8723 0.377603 45.19 0.679686C45.5129 0.976562 45.6744 1.33854 45.6744 1.76562C45.6744 2.1875 45.5129 2.54948 45.19 2.85156C44.8723 3.14844 44.4895 3.29688 44.0415 3.29688ZM47.6216 17V5H50.4497V17H47.6216ZM49.0435 3.29688C48.5956 3.29688 48.2102 3.14844 47.8872 2.85156C47.5643 2.54948 47.4029 2.1875 47.4029 1.76562C47.4029 1.33854 47.5643 0.976562 47.8872 0.679686C48.2102 0.377603 48.5956 0.226562 49.0435 0.226562C49.4966 0.226562 49.882 0.377603 50.1997 0.679686C50.5227 0.976562 50.6841 1.33854 50.6841 1.76562C50.6841 2.1875 50.5227 2.54948 50.1997 2.85156C49.882 3.14844 49.4966 3.29688 49.0435 3.29688ZM66.1353 5.39844C66.0624 4.71615 65.7551 4.1849 65.2134 3.80469C64.677 3.42448 63.979 3.23437 63.1197 3.23437C62.5155 3.23437 61.9973 3.32552 61.565 3.50781C61.1327 3.6901 60.802 3.9375 60.5728 4.25C60.3436 4.5625 60.2264 4.91927 60.2212 5.32031C60.2212 5.65365 60.2968 5.94271 60.4478 6.1875C60.604 6.43229 60.815 6.64062 61.0806 6.8125C61.3462 6.97917 61.6405 7.11979 61.9634 7.23437C62.2863 7.34896 62.6119 7.44531 62.94 7.52344L64.44 7.89844C65.0441 8.03906 65.6249 8.22917 66.1822 8.46875C66.7447 8.70833 67.2473 9.01042 67.69 9.375C68.1379 9.73958 68.4921 10.1797 68.7525 10.6953C69.0129 11.2109 69.1431 11.8151 69.1431 12.5078C69.1431 13.4453 68.9035 14.2708 68.4244 14.9844C67.9452 15.6927 67.2525 16.2474 66.3462 16.6484C65.4452 17.0443 64.354 17.2422 63.0728 17.2422C61.828 17.2422 60.7473 17.0495 59.8306 16.6641C58.9191 16.2786 58.2056 15.7161 57.69 14.9766C57.1796 14.237 56.9035 13.3359 56.8619 12.2734H59.7134C59.7551 12.8307 59.927 13.2943 60.229 13.6641C60.5311 14.0339 60.9244 14.3099 61.4087 14.4922C61.8983 14.6745 62.4452 14.7656 63.0494 14.7656C63.6796 14.7656 64.2316 14.6719 64.7056 14.4844C65.1848 14.2917 65.5598 14.026 65.8306 13.6875C66.1014 13.3437 66.2395 12.9427 66.2447 12.4844C66.2395 12.0677 66.1171 11.724 65.8775 11.4531C65.6379 11.1771 65.302 10.9479 64.8697 10.7656C64.4426 10.5781 63.9426 10.4115 63.3697 10.2656L61.5494 9.79687C60.2316 9.45833 59.19 8.94531 58.4244 8.25781C57.6639 7.5651 57.2837 6.64583 57.2837 5.5C57.2837 4.55729 57.5389 3.73177 58.0494 3.02344C58.565 2.3151 59.2655 1.76562 60.1509 1.375C61.0363 0.979166 62.0389 0.781249 63.1587 0.781249C64.2941 0.781249 65.2889 0.979166 66.1431 1.375C67.0025 1.76562 67.677 2.3099 68.1665 3.00781C68.6561 3.70052 68.9087 4.4974 68.9244 5.39844H66.1353ZM70.8521 17V5H73.5943V7H73.7193C73.938 6.30729 74.313 5.77344 74.8443 5.39844C75.3807 5.01823 75.9927 4.82812 76.6802 4.82812C76.8365 4.82812 77.0109 4.83594 77.2037 4.85156C77.4016 4.86198 77.5656 4.88021 77.6958 4.90625V7.50781C77.576 7.46615 77.3859 7.42969 77.1255 7.39844C76.8703 7.36198 76.6229 7.34375 76.3833 7.34375C75.8677 7.34375 75.4042 7.45573 74.9927 7.67969C74.5865 7.89844 74.2662 8.20312 74.0318 8.59375C73.7974 8.98437 73.6802 9.4349 73.6802 9.94531V17H70.8521ZM78.8247 17V5H81.6529V17H78.8247ZM80.2466 3.29688C79.7987 3.29688 79.4133 3.14844 79.0904 2.85156C78.7675 2.54948 78.606 2.1875 78.606 1.76562C78.606 1.33854 78.7675 0.976562 79.0904 0.679686C79.4133 0.377603 79.7987 0.226562 80.2466 0.226562C80.6997 0.226562 81.0852 0.377603 81.4029 0.679686C81.7258 0.976562 81.8872 1.33854 81.8872 1.76562C81.8872 2.1875 81.7258 2.54948 81.4029 2.85156C81.0852 3.14844 80.6997 3.29688 80.2466 3.29688ZM86.6392 9.96875V17H83.8111V5H86.5142V7.03906H86.6548C86.9309 6.36719 87.371 5.83333 87.9751 5.4375C88.5845 5.04167 89.3371 4.84375 90.2329 4.84375C91.0611 4.84375 91.7824 5.02083 92.397 5.375C93.0168 5.72917 93.496 6.24219 93.8345 6.91406C94.1783 7.58594 94.3475 8.40104 94.3423 9.35937V17H91.5142V9.79687C91.5142 8.99479 91.3059 8.36719 90.8892 7.91406C90.4777 7.46094 89.9074 7.23437 89.1783 7.23437C88.6835 7.23437 88.2434 7.34375 87.8579 7.5625C87.4777 7.77604 87.1783 8.08594 86.9595 8.49219C86.746 8.89844 86.6392 9.39062 86.6392 9.96875ZM96.4673 17V5H99.2954V17H96.4673ZM97.8892 3.29688C97.4413 3.29688 97.0559 3.14844 96.7329 2.85156C96.41 2.54948 96.2486 2.1875 96.2486 1.76562C96.2486 1.33854 96.41 0.976562 96.7329 0.679686C97.0559 0.377603 97.4413 0.226562 97.8892 0.226562C98.3423 0.226562 98.7277 0.377603 99.0454 0.679686C99.3684 0.976562 99.5298 1.33854 99.5298 1.76562C99.5298 2.1875 99.3684 2.54948 99.0454 2.85156C98.7277 3.14844 98.3423 3.29688 97.8892 3.29688ZM112.172 5L107.899 17H104.774L100.501 5H103.516L106.274 13.9141H106.399L109.165 5H112.172ZM116.489 17.2422C115.728 17.2422 115.043 17.1068 114.434 16.8359C113.83 16.5599 113.351 16.1536 112.997 15.6172C112.648 15.0807 112.473 14.4193 112.473 13.6328C112.473 12.9557 112.598 12.3958 112.848 11.9531C113.098 11.5104 113.439 11.1562 113.872 10.8906C114.304 10.625 114.791 10.4245 115.333 10.2891C115.879 10.1484 116.445 10.0469 117.028 9.98437C117.731 9.91146 118.301 9.84635 118.739 9.78906C119.176 9.72656 119.494 9.63281 119.692 9.50781C119.895 9.3776 119.997 9.17708 119.997 8.90625V8.85938C119.997 8.27083 119.822 7.8151 119.473 7.49219C119.124 7.16927 118.622 7.00781 117.965 7.00781C117.273 7.00781 116.723 7.15885 116.317 7.46094C115.916 7.76302 115.645 8.11979 115.504 8.53125L112.864 8.15625C113.072 7.42708 113.416 6.81771 113.895 6.32812C114.374 5.83333 114.96 5.46354 115.653 5.21875C116.346 4.96875 117.111 4.84375 117.95 4.84375C118.528 4.84375 119.103 4.91146 119.676 5.04687C120.249 5.18229 120.773 5.40625 121.247 5.71875C121.721 6.02604 122.101 6.44531 122.387 6.97656C122.679 7.50781 122.825 8.17187 122.825 8.96875V17H120.106V15.3516H120.012C119.84 15.6849 119.598 15.9974 119.286 16.2891C118.978 16.5755 118.59 16.8073 118.122 16.9844C117.658 17.1563 117.114 17.2422 116.489 17.2422ZM117.223 15.1641C117.791 15.1641 118.283 15.0521 118.7 14.8281C119.116 14.599 119.437 14.2969 119.661 13.9219C119.89 13.5469 120.004 13.138 120.004 12.6953V11.2812C119.916 11.3542 119.765 11.4219 119.551 11.4844C119.343 11.5469 119.109 11.6016 118.848 11.6484C118.588 11.6953 118.33 11.737 118.075 11.7734C117.82 11.8099 117.598 11.8411 117.411 11.8672C116.989 11.9245 116.611 12.0182 116.278 12.1484C115.945 12.2786 115.682 12.4609 115.489 12.6953C115.296 12.9245 115.2 13.2214 115.2 13.5859C115.2 14.1068 115.39 14.5 115.77 14.7656C116.15 15.0312 116.635 15.1641 117.223 15.1641ZM134.403 8.17188L131.825 8.45312C131.752 8.19271 131.624 7.94792 131.442 7.71875C131.265 7.48958 131.025 7.30469 130.723 7.16406C130.421 7.02344 130.051 6.95312 129.614 6.95312C129.025 6.95312 128.53 7.08073 128.129 7.33594C127.734 7.59115 127.538 7.92187 127.543 8.32812C127.538 8.67708 127.666 8.96094 127.926 9.17969C128.192 9.39844 128.629 9.57812 129.239 9.71875L131.286 10.1562C132.421 10.401 133.265 10.7891 133.817 11.3203C134.374 11.8516 134.655 12.5469 134.661 13.4062C134.655 14.1615 134.434 14.8281 133.997 15.4062C133.564 15.9792 132.963 16.4271 132.192 16.75C131.421 17.0729 130.536 17.2344 129.536 17.2344C128.067 17.2344 126.885 16.9271 125.989 16.3125C125.093 15.6927 124.559 14.8307 124.387 13.7266L127.145 13.4609C127.27 14.0026 127.536 14.4115 127.942 14.6875C128.348 14.9635 128.877 15.1016 129.528 15.1016C130.2 15.1016 130.739 14.9635 131.145 14.6875C131.557 14.4115 131.762 14.0703 131.762 13.6641C131.762 13.3203 131.629 13.0365 131.364 12.8125C131.103 12.5885 130.697 12.4167 130.145 12.2969L128.098 11.8672C126.947 11.6276 126.096 11.224 125.543 10.6562C124.991 10.0833 124.718 9.35937 124.723 8.48437C124.718 7.74479 124.918 7.10417 125.325 6.5625C125.736 6.01562 126.307 5.59375 127.036 5.29687C127.77 4.99479 128.616 4.84375 129.575 4.84375C130.981 4.84375 132.088 5.14323 132.895 5.74219C133.708 6.34115 134.21 7.15104 134.403 8.17188ZM139.696 17.2422C138.935 17.2422 138.251 17.1068 137.641 16.8359C137.037 16.5599 136.558 16.1536 136.204 15.6172C135.855 15.0807 135.68 14.4193 135.68 13.6328C135.68 12.9557 135.805 12.3958 136.055 11.9531C136.305 11.5104 136.646 11.1562 137.079 10.8906C137.511 10.625 137.998 10.4245 138.54 10.2891C139.086 10.1484 139.652 10.0469 140.235 9.98437C140.938 9.91146 141.508 9.84635 141.946 9.78906C142.383 9.72656 142.701 9.63281 142.899 9.50781C143.102 9.3776 143.204 9.17708 143.204 8.90625V8.85938C143.204 8.27083 143.029 7.8151 142.68 7.49219C142.331 7.16927 141.829 7.00781 141.172 7.00781C140.48 7.00781 139.93 7.15885 139.524 7.46094C139.123 7.76302 138.852 8.11979 138.711 8.53125L136.071 8.15625C136.279 7.42708 136.623 6.81771 137.102 6.32812C137.581 5.83333 138.167 5.46354 138.86 5.21875C139.553 4.96875 140.318 4.84375 141.157 4.84375C141.735 4.84375 142.31 4.91146 142.883 5.04687C143.456 5.18229 143.98 5.40625 144.454 5.71875C144.928 6.02604 145.308 6.44531 145.594 6.97656C145.886 7.50781 146.032 8.17187 146.032 8.96875V17H143.313V15.3516H143.219C143.047 15.6849 142.805 15.9974 142.493 16.2891C142.185 16.5755 141.797 16.8073 141.329 16.9844C140.865 17.1563 140.321 17.2422 139.696 17.2422ZM140.43 15.1641C140.998 15.1641 141.49 15.0521 141.907 14.8281C142.323 14.599 142.644 14.2969 142.868 13.9219C143.097 13.5469 143.211 13.138 143.211 12.6953V11.2812C143.123 11.3542 142.972 11.4219 142.758 11.4844C142.55 11.5469 142.316 11.6016 142.055 11.6484C141.795 11.6953 141.537 11.737 141.282 11.7734C141.027 11.8099 140.805 11.8411 140.618 11.8672C140.196 11.9245 139.818 12.0182 139.485 12.1484C139.152 12.2786 138.889 12.4609 138.696 12.6953C138.503 12.9245 138.407 13.2214 138.407 13.5859C138.407 14.1068 138.597 14.5 138.977 14.7656C139.357 15.0312 139.842 15.1641 140.43 15.1641ZM150.954 9.96875V17H148.126V5H150.829V7.03906H150.969C151.245 6.36719 151.685 5.83333 152.29 5.4375C152.899 5.04167 153.652 4.84375 154.547 4.84375C155.376 4.84375 156.097 5.02083 156.711 5.375C157.331 5.72917 157.81 6.24219 158.149 6.91406C158.493 7.58594 158.662 8.40104 158.657 9.35937V17H155.829V9.79687C155.829 8.99479 155.62 8.36719 155.204 7.91406C154.792 7.46094 154.222 7.23437 153.493 7.23437C152.998 7.23437 152.558 7.34375 152.172 7.5625C151.792 7.77604 151.493 8.08594 151.274 8.49219C151.06 8.89844 150.954 9.39062 150.954 9.96875Z" fill="#0A0C11"/>
</svg>
