<svg width="143" height="36" viewBox="0 0 143 36" fill="none" xmlns="http://www.w3.org/2000/svg">
<g clip-path="url(#clip0_3_1368)">
<path d="M37.3432 18.7073L36.1382 17.486L37.174 16.4364C37.3605 16.2474 37.4238 15.9669 37.3378 15.7144L34.4618 7.31358C34.3799 7.07436 34.1769 6.89929 33.9312 6.85536L31.6953 6.45571L31.9574 4.19524C31.9918 3.90022 31.8377 3.61566 31.5741 3.48593L25.9908 0.741428C25.9061 0.699581 25.8146 0.676564 25.7203 0.67238L21.8293 0.500805C21.618 0.490343 21.4115 0.582407 21.2738 0.747008L19.4646 2.91401H18.1501L16.3416 0.747008C16.2039 0.582407 16.0002 0.49104 15.7862 0.500805L11.8952 0.67238C11.8015 0.676564 11.7093 0.700278 11.6247 0.741428L6.04201 3.48453C5.77843 3.61426 5.62427 3.89882 5.65869 4.19385L5.92088 6.45431L3.68493 6.85396C3.43925 6.8979 3.23623 7.07297 3.15433 7.31219L0.278361 15.7137C0.191648 15.9662 0.255651 16.2467 0.442152 16.4357L1.47789 17.4853L0.272856 18.7066C0.0650204 18.9172 0.0120292 19.2387 0.14141 19.5066L2.08694 23.5358C2.15026 23.6669 2.25211 23.7743 2.37874 23.8433L4.92025 25.2306L4.0834 25.8325C3.92443 25.9469 3.82051 26.1241 3.7978 26.3207C3.77509 26.5174 3.83565 26.7141 3.96503 26.8619L7.68681 31.1485C7.74115 31.2106 7.80582 31.2629 7.87813 31.302L9.58898 32.2331L11.7052 35.2106C11.8346 35.3926 12.0424 35.5 12.2633 35.5H15.6472C15.8887 35.5 16.1131 35.3716 16.2376 35.1617L18.1921 31.8599H19.424L21.3785 35.1617C21.5031 35.3716 21.7267 35.5 21.969 35.5H25.3521C25.573 35.5 25.7809 35.3919 25.9103 35.2106L28.0265 32.2331L29.7373 31.302C29.8096 31.2629 29.8743 31.2106 29.9286 31.1485L33.6504 26.8619C33.7791 26.7134 33.8397 26.5167 33.8176 26.3207C33.7956 26.1248 33.6917 25.9469 33.532 25.8325L32.6952 25.2306L35.2367 23.844C35.3633 23.775 35.4652 23.6676 35.5285 23.5365L37.4741 19.5073C37.6034 19.2394 37.5511 18.9179 37.3432 18.7073ZM14.0884 1.97174L15.4806 1.91037L14.1304 8.75526L8.24009 6.80862L14.0884 1.97174ZM23.527 1.97174L29.3753 6.80862L23.485 8.75526L22.1348 1.91037L23.527 1.97174ZM29.9933 8.07171L27.3052 19.9948L23.8326 10.1076L29.9933 8.07171ZM22.6055 10.7737L26.5593 22.0307L23.1334 24.1231L20.6263 20.5213V12.0403L22.6055 10.7737ZM19.2499 20.3881H18.3648V12.3534H19.2499V20.3881ZM16.9885 26.9499L15.5212 25.05L16.9885 22.9415V26.9499ZM18.3648 21.7831H19.2499V28.1035H18.3648V21.7831ZM20.6263 22.9415L22.0935 25.0493L20.6263 26.9492V22.9415ZM19.2499 10.9585H18.3648V4.30893H19.2499V10.9585ZM16.9885 20.522L14.4813 24.1238L11.0556 22.0314L15.0092 10.7744L16.9885 12.041V20.522ZM10.3102 19.9948L7.62214 8.07171L13.7828 10.1076L10.3102 19.9948ZM9.08594 20.8275L3.17016 17.214L6.50379 9.37525L9.08594 20.8275ZM10.8346 23.5239L13.6865 25.2662L10.7678 29.4593L10.8346 23.5239ZM14.6926 26.2399L16.9885 29.2131V30.7042L11.4223 30.9386L14.6926 26.2406V26.2399ZM18.3648 29.4984H19.2499V30.4637H18.3648V29.4984ZM20.6263 29.2131L22.9221 26.2399L26.1924 30.9386L20.6263 30.7042V29.2131ZM23.9289 25.2662L26.7808 23.5239L26.8476 29.4593L23.9289 25.2662ZM31.111 9.37525L34.4446 17.214L28.5289 20.8275L31.111 9.37525ZM35.8953 15.7584L35.4968 16.1622L31.9932 7.92457L33.2932 8.15683L35.8953 15.7584ZM30.3794 5.83916L26.2364 2.41254L30.5322 4.52375L30.3794 5.83916ZM20.9938 3.24182L22.205 9.38015L20.627 10.3901V3.68191L20.9938 3.24182ZM16.9885 10.3907L15.4105 9.38085L16.6217 3.24252L16.9892 3.68261V10.3914L16.9885 10.3907ZM11.379 2.41254L7.23603 5.83916L7.08322 4.52375L11.379 2.41254ZM4.3222 8.15683L5.62221 7.92457L2.1186 16.1622L1.72014 15.7584L4.3222 8.15683ZM3.22591 22.7212L1.59351 19.3406L2.49367 18.429L8.91939 22.3543L6.17276 24.3295L3.22591 22.7212ZM5.50247 26.5216L9.45616 23.6781L9.37906 30.5355L8.63786 30.1323L5.50247 26.5216ZM15.257 34.1044H12.6157L11.3597 32.337L16.4303 32.1236L15.257 34.1044ZM24.9998 34.1044H22.3585L21.1858 32.1236L26.2564 32.337L24.9998 34.1044ZM28.9776 30.1316L28.2364 30.5348L28.1586 23.6774L32.1123 26.5209L28.9776 30.1316ZM34.3896 22.7205L31.4427 24.3288L28.696 22.3536L35.1217 18.4283L36.0219 19.3399L34.3896 22.7205Z" fill="black"/>
<path d="M46.1494 17.5292V5.26562H51.5503C52.9561 5.26562 54.0392 5.54056 54.7995 6.09043C55.5741 6.6403 55.9614 7.41446 55.9614 8.41292C55.9614 9.4114 55.6243 10.1783 54.9501 10.7137C54.2758 11.2491 53.4008 11.5168 52.3249 11.5168L52.6262 11.0175C53.9029 11.0175 54.8855 11.2925 55.5741 11.8424C56.277 12.3778 56.6284 13.1736 56.6284 14.23C56.6284 15.2718 56.234 16.0822 55.445 16.6609C54.656 17.2398 53.4725 17.5292 51.8946 17.5292H46.1494ZM47.6986 16.3137H51.8515C52.8988 16.3137 53.6948 16.1401 54.24 15.7927C54.7851 15.431 55.0577 14.8739 55.0577 14.1214C55.0577 13.3545 54.7851 12.7974 54.24 12.4501C53.6948 12.1028 52.8988 11.9292 51.8515 11.9292H47.4404V10.7137H51.4427C52.3895 10.7137 53.1211 10.5328 53.6375 10.171C54.1683 9.80928 54.4336 9.28113 54.4336 8.58659C54.4336 7.89198 54.1683 7.37105 53.6375 7.02377C53.1211 6.66201 52.3895 6.48113 51.4427 6.48113H47.6986V16.3137Z" fill="black"/>
<path d="M59.8682 17.5292V5.26562H61.4181V17.5292H59.8682Z" fill="black"/>
<path d="M75.8583 16.0923C75.4849 16.4251 75.0547 16.7145 74.5669 16.9605C74.079 17.1921 73.5558 17.3657 72.9965 17.4814C72.451 17.5972 71.8917 17.6551 71.3178 17.6551C70.0555 17.6551 68.9222 17.3874 67.9181 16.852C66.9282 16.3022 66.1464 15.5569 65.5726 14.6163C64.9989 13.6613 64.7119 12.5833 64.7119 11.3823C64.7119 10.1812 64.9916 9.11042 65.5511 8.16983C66.1249 7.22927 66.9067 6.48405 67.8965 5.93418C68.8863 5.38431 70.0056 5.10938 71.2533 5.10938C72.2428 5.10938 73.1325 5.26131 73.9215 5.56519C74.7251 5.86906 75.3989 6.32488 75.9443 6.93263L74.9541 7.95276C74.4524 7.44633 73.893 7.07733 73.2761 6.84581C72.6731 6.59981 72.0062 6.47681 71.2748 6.47681C70.3283 6.47681 69.4747 6.69387 68.7142 7.12798C67.9539 7.5476 67.3514 8.12643 66.9067 8.86444C66.4764 9.60238 66.2612 10.4417 66.2612 11.3823C66.2612 12.3228 66.4764 13.1693 66.9067 13.9218C67.3514 14.6597 67.9539 15.2386 68.7142 15.6582C69.4886 16.0779 70.3637 16.2877 71.3393 16.2877C72.0423 16.2877 72.6946 16.1792 73.2976 15.9621C73.9146 15.745 74.4739 15.405 74.9756 14.9419L75.8583 16.0923ZM74.3732 16.0923V11.3823H75.8583V16.0923H74.3732Z" fill="black"/>
<path d="M85.6104 17.5292V5.26562H91.0113C92.4172 5.26562 93.5005 5.54056 94.2603 6.09043C95.0348 6.6403 95.4227 7.41446 95.4227 8.41292C95.4227 9.4114 95.0854 10.1783 94.4109 10.7137C93.7371 11.2491 92.862 11.5168 91.7857 11.5168L92.0869 11.0175C93.3638 11.0175 94.3464 11.2925 95.0348 11.8424C95.7377 12.3778 96.0896 13.1736 96.0896 14.23C96.0896 15.2718 95.6947 16.0822 94.9057 16.6609C94.1167 17.2398 92.9335 17.5292 91.3555 17.5292H85.6104ZM87.1599 16.3137H91.3125C92.3596 16.3137 93.1556 16.1401 93.701 15.7927C94.2465 15.431 94.5185 14.8739 94.5185 14.1214C94.5185 13.3545 94.2465 12.7974 93.701 12.4501C93.1556 12.1028 92.3596 11.9292 91.3125 11.9292H86.9018V10.7137H90.9037C91.8503 10.7137 92.5824 10.5328 93.0987 10.171C93.6295 9.80928 93.8946 9.28113 93.8946 8.58659C93.8946 7.89198 93.6295 7.37105 93.0987 7.02377C92.5824 6.66201 91.8503 6.48113 90.9037 6.48113H87.1599V16.3137Z" fill="black"/>
<path d="M99.3291 17.5292V5.26562H104.041C105.103 5.26562 106.006 5.43204 106.752 5.76485C107.513 6.09767 108.101 6.58242 108.517 7.21912C108.933 7.84137 109.141 8.60101 109.141 9.4982C109.141 10.3664 108.933 11.1188 108.517 11.7556C108.101 12.3922 107.513 12.877 106.752 13.2098C106.006 13.5427 105.103 13.709 104.041 13.709H100.19L100.878 13.0144V17.5292H99.3291ZM107.656 17.5292L104.471 13.0796H106.171L109.334 17.5292H107.656ZM100.878 13.1664L100.276 12.4284H103.976C105.153 12.4284 106.049 12.1752 106.666 11.6688C107.283 11.1478 107.592 10.4243 107.592 9.4982C107.592 8.55761 107.283 7.83409 106.666 7.32764C106.049 6.82118 105.153 6.56795 103.976 6.56795H100.276L100.878 5.82997V13.1664Z" fill="black"/>
<path d="M110.54 17.5292L116.156 5.26562H117.684L123.3 17.5292H121.751L116.652 6.11213H117.189L112.068 17.5292H110.54ZM112.907 14.3602L113.359 13.1013H120.288L120.74 14.3602H112.907Z" fill="black"/>
<path d="M125.618 17.5292V5.26562H127.168V17.5292H125.618Z" fill="black"/>
<path d="M131.688 17.5292V5.26562H132.958L141.221 15.5974H140.619V5.26562H142.168V17.5292H140.877L132.614 7.1757H133.238V17.5292H131.688Z" fill="black"/>
<path d="M46.04 31.9504V19.9297H49.2235V24.529H53.9382V19.9297H57.1216V31.9504H53.9382V27.1839H49.2235V31.9504H46.04Z" fill="black"/>
<path d="M65.8839 32.176C64.6347 32.176 63.5198 31.9112 62.5392 31.3815C61.5587 30.838 60.7863 30.0923 60.2222 29.1446C59.6581 28.197 59.376 27.1238 59.376 25.9252C59.376 24.7266 59.6581 23.6604 60.2222 22.7267C60.7863 21.7929 61.5587 21.0542 62.5392 20.5107C63.5198 19.9671 64.6347 19.6953 65.8839 19.6953C67.1331 19.6953 68.248 19.9671 69.2285 20.5107C70.209 21.0542 70.9814 21.7929 71.5456 22.7267C72.1097 23.6604 72.3915 24.7266 72.3915 25.9252C72.3915 27.1238 72.1097 28.197 71.5456 29.1446C70.9814 30.0923 70.209 30.838 69.2285 31.3815C68.248 31.9112 67.1331 32.176 65.8839 32.176ZM65.8839 29.4791C66.5286 29.4791 67.0928 29.3328 67.5764 29.0401C68.0734 28.7335 68.4629 28.3084 68.745 27.7648C69.027 27.2214 69.168 26.6151 69.168 25.9461C69.168 25.2493 69.027 24.636 68.745 24.1064C68.4629 23.5768 68.0734 23.1587 67.5764 22.8521C67.0928 22.5454 66.5286 22.3921 65.8839 22.3921C65.2526 22.3921 64.6884 22.5454 64.1914 22.8521C63.6944 23.1587 63.2982 23.5768 63.0027 24.1064C62.7206 24.636 62.5796 25.2423 62.5796 25.9252C62.5796 26.6081 62.7206 27.2214 63.0027 27.7648C63.2982 28.3084 63.6944 28.7335 64.1914 29.0401C64.6884 29.3328 65.2526 29.4791 65.8839 29.4791Z" fill="black"/>
<path d="M74.6494 31.9504V19.9297H77.8332V29.3791H83.4944V31.9504H74.6494Z" fill="black"/>
<path d="M85.2119 31.9504V19.9297H90.6725C92.0021 19.9297 93.1569 20.1736 94.1381 20.6614C95.1318 21.1492 95.8972 21.8461 96.4343 22.7519C96.9853 23.644 97.2608 24.7101 97.2608 25.9505C97.2608 27.177 96.9853 28.2432 96.4343 29.149C95.8972 30.041 95.1318 30.7309 94.1381 31.2187C93.1569 31.7065 92.0021 31.9504 90.6725 31.9504H85.2119ZM88.3957 29.3581H90.5712C91.2832 29.3581 91.8946 29.2257 92.4053 28.9609C92.9285 28.6961 93.3317 28.3128 93.6142 27.8111C93.8959 27.2954 94.0368 26.6752 94.0368 25.9505C94.0368 25.2119 93.8959 24.5917 93.6142 24.0899C93.3317 23.5742 92.9285 23.184 92.4053 22.9192C91.8946 22.6544 91.2832 22.522 90.5712 22.522H88.3957V29.3581Z" fill="black"/>
<path d="M99.5166 31.9504V19.9297H102.7V31.9504H99.5166Z" fill="black"/>
<path d="M105.774 31.9504V19.9297H108.394L114.922 28.062H113.733V19.9297H116.856V31.9504H114.237L107.688 23.8181H108.898V31.9504H105.774Z" fill="black"/>
<path d="M130.481 30.6498C130.052 30.9704 129.568 31.2492 129.031 31.486C128.507 31.7091 127.956 31.8763 127.379 31.9878C126.815 32.1132 126.257 32.176 125.706 32.176C124.417 32.176 123.276 31.9112 122.281 31.3815C121.287 30.838 120.508 30.0923 119.944 29.1446C119.394 28.197 119.118 27.1307 119.118 25.9461C119.118 24.7336 119.4 23.6604 119.964 22.7267C120.528 21.7929 121.308 21.0542 122.301 20.5107C123.296 19.9671 124.424 19.6953 125.686 19.6953C126.815 19.6953 127.795 19.8765 128.628 20.2389C129.475 20.5873 130.18 21.1239 130.744 21.8486L128.648 23.7928C128.259 23.3189 127.815 22.9705 127.318 22.7475C126.835 22.5106 126.305 22.3921 125.727 22.3921C125.069 22.3921 124.484 22.5454 123.974 22.8521C123.464 23.1448 123.06 23.5559 122.765 24.0855C122.469 24.6151 122.321 25.2353 122.321 25.9461C122.321 26.629 122.469 27.2422 122.765 27.7858C123.06 28.3154 123.464 28.7335 123.974 29.0401C124.484 29.3328 125.082 29.4791 125.767 29.4791C126.331 29.4791 126.842 29.3886 127.298 29.2073C127.768 29.0262 128.232 28.7544 128.688 28.392L130.481 30.6498ZM127.581 30.6917V25.7789H130.481V30.6498L127.581 30.6917Z" fill="black"/>
<path d="M142.331 28.2875C142.331 29.0401 142.122 29.7091 141.706 30.2944C141.303 30.8798 140.712 31.3397 139.933 31.6742C139.168 32.0087 138.22 32.176 137.092 32.176C136.165 32.176 135.252 32.0575 134.352 31.8206C133.466 31.5836 132.747 31.27 132.196 30.8798L133.305 28.4338C133.828 28.7962 134.439 29.0819 135.138 29.291C135.836 29.5001 136.548 29.6046 137.273 29.6046C137.985 29.6046 138.482 29.5001 138.764 29.291C139.046 29.0819 139.188 28.838 139.188 28.5593C139.188 28.2805 139.06 28.0576 138.805 27.8903C138.563 27.7231 138.241 27.5907 137.837 27.4931C137.448 27.3816 137.012 27.2771 136.528 27.1795C136.058 27.082 135.581 26.9566 135.098 26.8033C134.627 26.6499 134.191 26.4478 133.787 26.197C133.398 25.9322 133.076 25.5907 132.821 25.1726C132.579 24.7406 132.458 24.2039 132.458 23.5629C132.458 22.8102 132.666 22.1483 133.082 21.5768C133.513 20.9915 134.117 20.5315 134.896 20.1971C135.675 19.8625 136.602 19.6953 137.676 19.6953C138.402 19.6953 139.141 19.779 139.893 19.9462C140.645 20.1134 141.303 20.3782 141.867 20.7406L140.839 23.1866C140.316 22.8521 139.772 22.6152 139.208 22.4758C138.657 22.3364 138.106 22.2667 137.556 22.2667C136.884 22.2667 136.393 22.3713 136.084 22.5803C135.776 22.7894 135.621 23.0542 135.621 23.3747C135.621 23.6535 135.742 23.8764 135.984 24.0437C136.226 24.2109 136.541 24.3503 136.931 24.4618C137.334 24.5593 137.777 24.6569 138.261 24.7545C138.744 24.852 139.221 24.9774 139.691 25.1307C140.161 25.2701 140.598 25.4653 141.001 25.7162C141.404 25.967 141.726 26.3015 141.968 26.7196C142.21 27.1238 142.331 27.6464 142.331 28.2875Z" fill="black"/>
</g>
<defs>
<clipPath id="clip0_3_1368">
<rect width="142.258" height="35" fill="white" transform="translate(0.0712891 0.5)"/>
</clipPath>
</defs>
</svg>
