<svg width="52" height="36" viewBox="0 0 52 36" fill="none" xmlns="http://www.w3.org/2000/svg">
<path d="M41.9219 0.500469V15.2807H49.6801V12.7241H44.5925V9.22876H49.4657V6.67214H44.5925V3.05694H49.6801V0.500312L41.9219 0.500469ZM29.0995 0.500469H26.4055V9.8486C26.4055 10.7635 26.4974 11.5061 26.6809 12.0763C26.8643 12.6464 27.0741 13.0906 27.3101 13.4089C27.4674 13.621 27.677 13.8498 27.9393 14.095C28.2015 14.3403 28.5128 14.5691 28.8732 14.7812C29.2338 14.9934 29.6467 15.1691 30.1121 15.3083C30.5775 15.4476 31.0853 15.5172 31.636 15.5172C32.6323 15.5172 33.5008 15.3018 34.2413 14.8708C34.9819 14.4399 35.562 13.9261 35.9815 13.3294C36.3223 12.8388 36.5484 12.2852 36.6599 11.6686C36.7713 11.052 36.8271 10.4453 36.8271 9.84875V0.500624H34.1332V9.84875C34.1332 10.0344 34.1201 10.2996 34.0939 10.6444C34.0677 10.9891 33.9759 11.3338 33.8185 11.6786C33.6612 12.0233 33.4121 12.325 33.0714 12.5835C32.7306 12.842 32.2456 12.9714 31.6163 12.9714C30.9871 12.9714 30.502 12.842 30.1612 12.5835C29.8204 12.325 29.5713 12.0233 29.4141 11.6786C29.2567 11.3338 29.165 10.9891 29.1387 10.6444C29.1125 10.2996 29.0995 10.0344 29.0995 9.84875V0.500469ZM15.2894 0.500469V15.2807H22.3528V12.7241H17.9552V0.500312L15.2894 0.500469ZM19.1579 20.7198L25.2478 35.5H22.2814L20.7294 31.6851H15.5236L13.9716 35.5H11.0052L17.0558 20.7198H19.1579ZM18.1461 24.6216H18.1066L16.4474 29.1149H19.8053L18.1461 24.6216ZM2.08912 0.5H4.93609C5.33899 0.5 5.73881 0.506715 6.13526 0.519986C6.5317 0.533413 6.91848 0.573381 7.29542 0.639892C7.67237 0.70656 8.03642 0.819754 8.38742 0.979475C8.73841 1.13935 9.06991 1.35903 9.38191 1.63865C9.74578 1.97152 10.0415 2.38762 10.2691 2.88691C10.4965 3.38637 10.6103 3.88896 10.6103 4.39498C10.6103 4.86103 10.5485 5.25729 10.4251 5.58344C10.3016 5.9096 10.152 6.18267 9.97658 6.40234C9.80104 6.62202 9.62233 6.79517 9.4404 6.92163C9.25845 7.04809 9.10891 7.14474 8.99191 7.21125C9.22591 7.30446 9.48907 7.43109 9.7816 7.5908C10.0741 7.75068 10.3437 7.97035 10.5907 8.24998C10.8378 8.52961 11.0456 8.88247 11.2148 9.30854C11.3838 9.73463 11.4683 10.2606 11.4683 10.8864C11.4683 11.3259 11.4162 11.7288 11.3123 12.0948C11.2083 12.461 11.0718 12.7871 10.9028 13.0735C10.7338 13.3597 10.5421 13.6127 10.3276 13.8324C10.113 14.0521 9.89537 14.2419 9.67443 14.4017C9.40141 14.6014 9.09924 14.7578 8.76774 14.871C8.43624 14.9842 8.09829 15.0707 7.75375 15.1307C7.40935 15.1906 7.08108 15.2306 6.76908 15.2505C6.48825 15.2685 6.23905 15.2785 6.02148 15.2802L5.95008 15.2805H2.08912V0.5ZM6.16198 8.77724H4.7523V12.6792H6.10317C6.23368 12.6792 6.4491 12.6694 6.74928 12.6494C7.0496 12.6294 7.34978 12.5598 7.64995 12.4404C7.95013 12.3209 8.21775 12.1284 8.45267 11.863C8.68758 11.5975 8.80505 11.2258 8.80505 10.7481C8.80505 10.602 8.77895 10.4163 8.72674 10.1906C8.67453 9.96504 8.55385 9.74946 8.36453 9.54368C8.17521 9.3379 7.90774 9.15882 7.56182 9.00613C7.21589 8.85358 6.74928 8.77724 6.16198 8.77724ZM5.84552 3.1016H4.7523V6.29415H5.61552C5.76891 6.29415 5.97342 6.28743 6.22923 6.27416C6.48502 6.26089 6.73438 6.20437 6.97728 6.10461C7.22018 6.00484 7.43115 5.84527 7.61018 5.62575C7.78921 5.40623 7.87873 5.09694 7.87873 4.69787C7.87873 4.25883 7.72841 3.88302 7.42793 3.57046C7.12745 3.25789 6.60003 3.1016 5.84552 3.1016ZM4.9711 30.0473V35.5H7.64043V30.0473L12.3947 20.7198H9.45253L6.29602 27.5106L3.159 20.7198H0.236328L4.9711 30.0473ZM43.4596 20.7201C44.3433 20.7201 45.11 20.7733 45.7598 20.8798C46.4096 20.9863 46.9685 21.1261 47.4363 21.2992C47.9042 21.4724 48.2942 21.6587 48.606 21.8584C48.9179 22.0581 49.1779 22.2513 49.3857 22.4377C49.7237 22.7438 50.0389 23.1034 50.3312 23.5162C50.6236 23.929 50.8769 24.3816 51.0914 24.8744C51.306 25.367 51.4716 25.893 51.5886 26.4522C51.7056 27.0116 51.7641 27.5775 51.7641 28.15C51.7641 28.8158 51.6829 29.4683 51.5205 30.1074C51.358 30.7464 51.1273 31.3457 50.8284 31.9049C50.5295 32.4642 50.1655 32.9701 49.7368 33.4229C49.3079 33.8756 48.8336 34.2484 48.3138 34.5414C47.9759 34.7278 47.6152 34.8842 47.2318 35.0107C46.8485 35.1371 46.4489 35.2371 46.033 35.3103C45.6172 35.3836 45.1948 35.4333 44.766 35.46C44.3371 35.4868 43.9213 35.5 43.5184 35.5H40.185L40.1849 20.7201H43.4596ZM43.3563 23.321H42.8483V33.0171H43.415C43.7797 33.0171 44.1151 33.007 44.4212 32.9871C44.7274 32.9669 45.0172 32.9336 45.2908 32.8868C45.5643 32.8402 45.8346 32.7701 46.1017 32.6765C46.3688 32.583 46.6455 32.456 46.9321 32.2959C47.2839 32.0954 47.5965 31.8451 47.8701 31.5446C48.1436 31.2442 48.3716 30.9137 48.554 30.553C48.7364 30.1924 48.8732 29.8117 48.9644 29.411C49.0556 29.0104 49.1012 28.6098 49.1012 28.2092C49.1012 27.488 48.9612 26.8069 48.6811 26.1659C48.4009 25.5248 48.0264 24.9905 47.5575 24.5633C46.9974 24.0424 46.3688 23.7052 45.6719 23.5515C44.9749 23.3979 44.2031 23.321 43.3563 23.321ZM31.6756 20.7196C32.5139 20.7196 33.2079 20.7995 33.7581 20.9593C34.308 21.119 34.7926 21.3721 35.2118 21.7182C35.4212 21.8914 35.6276 22.0945 35.8306 22.3274C36.0337 22.5604 36.217 22.8268 36.3808 23.1264C36.5444 23.4259 36.6754 23.7554 36.7736 24.115C36.8719 24.4745 36.9211 24.8674 36.9211 25.2934C36.9211 25.5331 36.8982 25.806 36.8522 26.1123C36.8065 26.4187 36.7279 26.7316 36.6166 27.0512C36.5052 27.3707 36.3612 27.6836 36.1844 27.9899C36.0076 28.2963 35.7882 28.576 35.5262 28.8289C35.094 29.255 34.6748 29.5413 34.2689 29.6877C33.8629 29.8342 33.4765 29.9541 33.1099 30.0473L37.0587 35.5H33.7974L29.9469 29.8476H29.9075V35.5H27.2161V20.7196H31.6756ZM31.593 23.321H29.8793V27.8144H31.593C32.1384 27.8144 32.5798 27.7314 32.9173 27.5658C33.2549 27.4001 33.5178 27.2014 33.7061 26.9694C33.8943 26.7373 34.0175 26.492 34.076 26.2337C34.1346 25.9753 34.1638 25.7465 34.1638 25.5478C34.1638 25.3491 34.1279 25.1203 34.0566 24.8619C33.9851 24.6034 33.852 24.3583 33.6573 24.1262C33.4625 23.8942 33.1996 23.7021 32.8686 23.5497C32.5374 23.3973 32.1122 23.321 31.593 23.321Z" fill="black"/>
</svg>
