<svg width="124" height="18" viewBox="0 0 124 18" fill="none" xmlns="http://www.w3.org/2000/svg">
<path d="M14.7135 6.39844H11.7916C11.7083 5.91927 11.5546 5.49479 11.3307 5.125C11.1067 4.75 10.8281 4.43229 10.4947 4.17187C10.1614 3.91146 9.78118 3.71615 9.3541 3.58594C8.93222 3.45052 8.47649 3.38281 7.98691 3.38281C7.11712 3.38281 6.34628 3.60156 5.67441 4.03906C5.00253 4.47135 4.47649 5.10677 4.09628 5.94531C3.71607 6.77865 3.52597 7.79687 3.52597 9C3.52597 10.224 3.71607 11.2552 4.09628 12.0937C4.4817 12.9271 5.00774 13.5573 5.67441 13.9844C6.34628 14.4062 7.11451 14.6172 7.9791 14.6172C8.45826 14.6172 8.90618 14.5547 9.32285 14.4297C9.74472 14.2995 10.1223 14.1094 10.4557 13.8594C10.7942 13.6094 11.0781 13.3021 11.3072 12.9375C11.5416 12.5729 11.7031 12.1562 11.7916 11.6875L14.7135 11.7031C14.6041 12.4635 14.3671 13.1771 14.0025 13.8438C13.6432 14.5104 13.1718 15.099 12.5885 15.6094C12.0051 16.1146 11.3228 16.5104 10.5416 16.7969C9.76035 17.0781 8.89316 17.2187 7.94003 17.2187C6.53378 17.2187 5.27857 16.8932 4.17441 16.2422C3.07024 15.5911 2.20045 14.651 1.56503 13.4219C0.929616 12.1927 0.611908 10.7187 0.611908 9C0.611908 7.27604 0.93222 5.80208 1.57285 4.57812C2.21347 3.34896 3.08587 2.40885 4.19003 1.75781C5.2942 1.10677 6.5442 0.781249 7.94003 0.781249C8.83066 0.781249 9.65878 0.906249 10.4244 1.15625C11.19 1.40625 11.8723 1.77344 12.4713 2.25781C13.0702 2.73698 13.5624 3.32552 13.9478 4.02344C14.3385 4.71615 14.5937 5.50781 14.7135 6.39844ZM19.3209 9.96875V17H16.4928V1H19.2584V7.03906H19.399C19.6803 6.36198 20.1152 5.82812 20.7037 5.4375C21.2975 5.04167 22.0527 4.84375 22.9693 4.84375C23.8027 4.84375 24.5292 5.01823 25.149 5.36719C25.7688 5.71615 26.248 6.22656 26.5865 6.89844C26.9303 7.57031 27.1021 8.39062 27.1021 9.35937V17H24.274V9.79687C24.274 8.98958 24.0657 8.36198 23.649 7.91406C23.2376 7.46094 22.6594 7.23437 21.9146 7.23437C21.4146 7.23437 20.9667 7.34375 20.5709 7.5625C20.1803 7.77604 19.873 8.08594 19.649 8.49219C19.4303 8.89844 19.3209 9.39062 19.3209 9.96875ZM29.235 17V5H31.9771V7H32.1021C32.3209 6.30729 32.6959 5.77344 33.2271 5.39844C33.7636 5.01823 34.3756 4.82812 35.0631 4.82812C35.2193 4.82812 35.3938 4.83594 35.5865 4.85156C35.7844 4.86198 35.9485 4.88021 36.0787 4.90625V7.50781C35.9589 7.46615 35.7688 7.42969 35.5084 7.39844C35.2532 7.36198 35.0058 7.34375 34.7662 7.34375C34.2506 7.34375 33.787 7.45573 33.3756 7.67969C32.9693 7.89844 32.649 8.20312 32.4146 8.59375C32.1803 8.98437 32.0631 9.4349 32.0631 9.94531V17H29.235ZM37.2076 17V5H40.0357V17H37.2076ZM38.6295 3.29688C38.1816 3.29688 37.7962 3.14844 37.4732 2.85156C37.1503 2.54948 36.9889 2.1875 36.9889 1.76562C36.9889 1.33854 37.1503 0.976562 37.4732 0.679686C37.7962 0.377603 38.1816 0.226562 38.6295 0.226562C39.0826 0.226562 39.468 0.377603 39.7857 0.679686C40.1087 0.976562 40.2701 1.33854 40.2701 1.76562C40.2701 2.1875 40.1087 2.54948 39.7857 2.85156C39.468 3.14844 39.0826 3.29688 38.6295 3.29688ZM51.6783 8.17188L49.1002 8.45312C49.0273 8.19271 48.8997 7.94792 48.7174 7.71875C48.5403 7.48958 48.3007 7.30469 47.9986 7.16406C47.6965 7.02344 47.3268 6.95312 46.8893 6.95312C46.3007 6.95312 45.8059 7.08073 45.4049 7.33594C45.009 7.59115 44.8137 7.92187 44.8189 8.32812C44.8137 8.67708 44.9413 8.96094 45.2018 9.17969C45.4674 9.39844 45.9049 9.57812 46.5143 9.71875L48.5611 10.1562C49.6965 10.401 50.5403 10.7891 51.0924 11.3203C51.6497 11.8516 51.9309 12.5469 51.9361 13.4062C51.9309 14.1615 51.7096 14.8281 51.2721 15.4062C50.8398 15.9792 50.2382 16.4271 49.4674 16.75C48.6965 17.0729 47.8111 17.2344 46.8111 17.2344C45.3424 17.2344 44.1601 16.9271 43.2643 16.3125C42.3684 15.6927 41.8346 14.8307 41.6627 13.7266L44.4205 13.4609C44.5455 14.0026 44.8111 14.4115 45.2174 14.6875C45.6236 14.9635 46.1523 15.1016 46.8033 15.1016C47.4752 15.1016 48.0143 14.9635 48.4205 14.6875C48.832 14.4115 49.0377 14.0703 49.0377 13.6641C49.0377 13.3203 48.9049 13.0365 48.6393 12.8125C48.3788 12.5885 47.9726 12.4167 47.4205 12.2969L45.3736 11.8672C44.2226 11.6276 43.371 11.224 42.8189 10.6562C42.2669 10.0833 41.9934 9.35937 41.9986 8.48437C41.9934 7.74479 42.1939 7.10417 42.6002 6.5625C43.0116 6.01562 43.582 5.59375 44.3111 5.29687C45.0455 4.99479 45.8919 4.84375 46.8502 4.84375C48.2564 4.84375 49.3632 5.14323 50.1705 5.74219C50.983 6.34115 51.4856 7.15104 51.6783 8.17188ZM58.3502 17V1H61.2486V14.5703H68.2955V17H58.3502ZM73.3893 17.2422C72.6288 17.2422 71.9439 17.1068 71.3346 16.8359C70.7304 16.5599 70.2512 16.1536 69.8971 15.6172C69.5481 15.0807 69.3736 14.4193 69.3736 13.6328C69.3736 12.9557 69.4986 12.3958 69.7486 11.9531C69.9986 11.5104 70.3398 11.1562 70.7721 10.8906C71.2044 10.625 71.6913 10.4245 72.233 10.2891C72.7799 10.1484 73.345 10.0469 73.9283 9.98437C74.6314 9.91146 75.2018 9.84635 75.6393 9.78906C76.0768 9.72656 76.3945 9.63281 76.5924 9.50781C76.7955 9.3776 76.8971 9.17708 76.8971 8.90625V8.85938C76.8971 8.27083 76.7226 7.8151 76.3736 7.49219C76.0247 7.16927 75.5221 7.00781 74.8658 7.00781C74.1731 7.00781 73.6236 7.15885 73.2174 7.46094C72.8163 7.76302 72.5455 8.11979 72.4049 8.53125L69.7643 8.15625C69.9726 7.42708 70.3163 6.81771 70.7955 6.32812C71.2747 5.83333 71.8606 5.46354 72.5533 5.21875C73.246 4.96875 74.0116 4.84375 74.8502 4.84375C75.4283 4.84375 76.0038 4.91146 76.5768 5.04687C77.1497 5.18229 77.6731 5.40625 78.1471 5.71875C78.621 6.02604 79.0012 6.44531 79.2877 6.97656C79.5794 7.50781 79.7252 8.17187 79.7252 8.96875V17H77.0064V15.3516H76.9127C76.7408 15.6849 76.4986 15.9974 76.1861 16.2891C75.8788 16.5755 75.4908 16.8073 75.0221 16.9844C74.5585 17.1563 74.0143 17.2422 73.3893 17.2422ZM74.1236 15.1641C74.6913 15.1641 75.1835 15.0521 75.6002 14.8281C76.0169 14.599 76.3372 14.2969 76.5611 13.9219C76.7903 13.5469 76.9049 13.138 76.9049 12.6953V11.2812C76.8163 11.3542 76.6653 11.4219 76.4518 11.4844C76.2434 11.5469 76.009 11.6016 75.7486 11.6484C75.4882 11.6953 75.2304 11.737 74.9752 11.7734C74.72 11.8099 74.4986 11.8411 74.3111 11.8672C73.8893 11.9245 73.5116 12.0182 73.1783 12.1484C72.845 12.2786 72.582 12.4609 72.3893 12.6953C72.1965 12.9245 72.1002 13.2214 72.1002 13.5859C72.1002 14.1068 72.2903 14.5 72.6705 14.7656C73.0507 15.0312 73.5351 15.1641 74.1236 15.1641ZM81.8189 17V5H84.5611V7H84.6861C84.9049 6.30729 85.2799 5.77344 85.8111 5.39844C86.3476 5.01823 86.9596 4.82812 87.6471 4.82812C87.8033 4.82812 87.9778 4.83594 88.1705 4.85156C88.3684 4.86198 88.5325 4.88021 88.6627 4.90625V7.50781C88.5429 7.46615 88.3528 7.42969 88.0924 7.39844C87.8372 7.36198 87.5898 7.34375 87.3502 7.34375C86.8346 7.34375 86.371 7.45573 85.9596 7.67969C85.5533 7.89844 85.233 8.20312 84.9986 8.59375C84.7643 8.98437 84.6471 9.4349 84.6471 9.94531V17H81.8189ZM99.276 8.17188L96.6978 8.45312C96.6249 8.19271 96.4973 7.94792 96.315 7.71875C96.1379 7.48958 95.8984 7.30469 95.5963 7.16406C95.2942 7.02344 94.9244 6.95312 94.4869 6.95312C93.8984 6.95312 93.4036 7.08073 93.0025 7.33594C92.6067 7.59115 92.4114 7.92187 92.4166 8.32812C92.4114 8.67708 92.539 8.96094 92.7994 9.17969C93.065 9.39844 93.5025 9.57812 94.1119 9.71875L96.1588 10.1562C97.2942 10.401 98.1379 10.7891 98.69 11.3203C99.2473 11.8516 99.5286 12.5469 99.5338 13.4062C99.5286 14.1615 99.3072 14.8281 98.8697 15.4062C98.4374 15.9792 97.8359 16.4271 97.065 16.75C96.2942 17.0729 95.4088 17.2344 94.4088 17.2344C92.94 17.2344 91.7577 16.9271 90.8619 16.3125C89.9661 15.6927 89.4322 14.8307 89.2603 13.7266L92.0182 13.4609C92.1432 14.0026 92.4088 14.4115 92.815 14.6875C93.2213 14.9635 93.7499 15.1016 94.401 15.1016C95.0728 15.1016 95.6119 14.9635 96.0182 14.6875C96.4296 14.4115 96.6353 14.0703 96.6353 13.6641C96.6353 13.3203 96.5025 13.0365 96.2369 12.8125C95.9765 12.5885 95.5702 12.4167 95.0182 12.2969L92.9713 11.8672C91.8202 11.6276 90.9687 11.224 90.4166 10.6562C89.8645 10.0833 89.5911 9.35937 89.5963 8.48437C89.5911 7.74479 89.7916 7.10417 90.1978 6.5625C90.6093 6.01562 91.1796 5.59375 91.9088 5.29687C92.6432 4.99479 93.4895 4.84375 94.4478 4.84375C95.8541 4.84375 96.9609 5.14323 97.7682 5.74219C98.5807 6.34115 99.0833 7.15104 99.276 8.17188ZM106.428 17.2344C105.225 17.2344 104.186 16.9844 103.311 16.4844C102.441 15.9792 101.772 15.2656 101.303 14.3437C100.835 13.4167 100.6 12.3255 100.6 11.0703C100.6 9.83594 100.835 8.7526 101.303 7.82031C101.777 6.88281 102.439 6.15365 103.288 5.63281C104.137 5.10677 105.134 4.84375 106.28 4.84375C107.019 4.84375 107.717 4.96354 108.374 5.20312C109.035 5.4375 109.618 5.80208 110.124 6.29687C110.634 6.79167 111.035 7.42187 111.327 8.1875C111.618 8.94792 111.764 9.85417 111.764 10.9062V11.7734H101.928V9.86719H109.053C109.048 9.32552 108.931 8.84375 108.702 8.42187C108.473 7.99479 108.152 7.65885 107.741 7.41406C107.335 7.16927 106.861 7.04687 106.319 7.04687C105.741 7.04687 105.233 7.1875 104.796 7.46875C104.358 7.74479 104.017 8.10937 103.772 8.5625C103.532 9.01042 103.41 9.5026 103.405 10.0391V11.7031C103.405 12.401 103.532 13 103.788 13.5C104.043 13.9948 104.4 14.375 104.858 14.6406C105.316 14.901 105.853 15.0312 106.467 15.0312C106.879 15.0312 107.251 14.974 107.585 14.8594C107.918 14.7396 108.207 14.5651 108.452 14.3359C108.697 14.1068 108.881 13.8229 109.006 13.4844L111.647 13.7812C111.48 14.4792 111.163 15.0885 110.694 15.6094C110.23 16.125 109.637 16.526 108.913 16.8125C108.189 17.0937 107.361 17.2344 106.428 17.2344ZM116.235 9.96875V17H113.407V5H116.11V7.03906H116.251C116.527 6.36719 116.967 5.83333 117.571 5.4375C118.18 5.04167 118.933 4.84375 119.829 4.84375C120.657 4.84375 121.378 5.02083 121.993 5.375C122.613 5.72917 123.092 6.24219 123.43 6.91406C123.774 7.58594 123.943 8.40104 123.938 9.35937V17H121.11V9.79687C121.11 8.99479 120.902 8.36719 120.485 7.91406C120.073 7.46094 119.503 7.23437 118.774 7.23437C118.279 7.23437 117.839 7.34375 117.454 7.5625C117.073 7.77604 116.774 8.08594 116.555 8.49219C116.342 8.89844 116.235 9.39062 116.235 9.96875Z" fill="#0A0C11"/>
</svg>
