<svg width="190" height="20" viewBox="0 0 190 20" fill="none" xmlns="http://www.w3.org/2000/svg">
<g clip-path="url(#clip0_3_1347)">
<mask id="mask0_3_1347" style="mask-type:luminance" maskUnits="userSpaceOnUse" x="0" y="0" width="101" height="18">
<path d="M100.888 0H0.462891V17.1429H100.888V0Z" fill="white"/>
</mask>
<g mask="url(#mask0_3_1347)">
<path d="M20.6903 4.78596C17.0495 4.78596 14.2047 7.43243 14.2047 10.9753C14.2047 14.5181 16.9776 17.142 20.6903 17.142C24.403 17.142 27.2242 14.4729 27.2242 10.9526C27.2242 7.45507 24.4512 4.78596 20.6903 4.78596ZM20.7149 14.5887C18.6415 14.5887 17.1223 13.0469 17.1223 10.9761C17.1223 8.882 18.617 7.341 20.6903 7.341C22.7882 7.341 24.3066 8.9055 24.3066 10.9761C24.3066 13.0469 22.7882 14.5887 20.7149 14.5887ZM28.0193 7.47857H29.8277V16.9129H32.7208V5.01595H28.0193V7.47857ZM6.92395 7.34007C8.44324 7.34007 9.64863 8.23736 10.1063 9.57193H13.1685C12.6136 6.71899 10.1545 4.78596 6.94851 4.78596C3.30768 4.78596 0.462891 7.43243 0.462891 10.9761C0.462891 14.5199 3.23582 17.1429 6.94851 17.1429C10.0826 17.1429 12.5899 15.2099 13.1449 12.3334H10.1063C9.67236 13.6679 8.46689 14.5887 6.94762 14.5887C4.84972 14.5887 3.37955 13.0469 3.37955 10.9761C3.38047 8.882 4.82698 7.34007 6.92395 7.34007ZM82.9884 9.82543L80.8669 9.52664C79.8546 9.389 79.131 9.06664 79.131 8.30707C79.131 7.47857 80.0717 7.06482 81.3488 7.06482C82.7474 7.06482 83.6396 7.63979 83.8328 8.58322H86.6294C86.3154 6.19021 84.3871 4.78682 81.4219 4.78682C78.3597 4.78682 76.3344 6.28257 76.3344 8.39936C76.3344 10.4239 77.6607 11.5981 80.3365 11.9658L82.458 12.2646C83.4949 12.4022 84.0737 12.7942 84.0737 13.5303C84.0737 14.4737 83.0615 14.8649 81.6628 14.8649C79.9508 14.8649 78.9863 14.1976 78.8416 13.1854H75.9965C76.2628 15.5095 78.1665 17.1429 81.6382 17.1429C84.7973 17.1429 86.8942 15.7621 86.8942 13.3918C86.8942 11.2749 85.3755 10.1704 82.9884 9.82543ZM31.2743 0.114989C30.2135 0.114989 29.4177 0.851086 29.4177 1.86334C29.4177 2.87558 30.2126 3.61168 31.2743 3.61168C32.3351 3.61168 33.1311 2.87558 33.1311 1.86334C33.1311 0.851086 32.3351 0.114989 31.2743 0.114989ZM73.7307 9.08929C73.7307 6.51252 72.0915 4.78682 68.6197 4.78682C65.3409 4.78682 63.5087 6.37489 63.1467 8.814H66.0159C66.1606 7.87064 66.932 7.08833 68.5716 7.08833C70.0427 7.08833 70.7658 7.70943 70.7658 8.46907C70.7658 9.45872 69.4394 9.71129 67.8 9.8725C65.5821 10.1024 62.8337 10.8385 62.8337 13.6C62.8337 15.7404 64.4975 17.1202 67.1497 17.1202C69.2228 17.1202 70.5247 16.2918 71.1762 14.9799C71.2727 16.1533 72.1888 16.9129 73.4669 16.9129H75.1543V14.4511H73.7315V9.08929H73.7307ZM70.8859 12.0808C70.8859 13.6688 69.4394 14.8422 67.679 14.8422C66.5939 14.8422 65.6777 14.4049 65.6777 13.485C65.6777 12.3116 67.1486 11.9893 68.4989 11.8516C69.8007 11.7366 70.5238 11.4605 70.8859 10.9309V12.0808ZM55.5284 4.78596C53.9127 4.78596 52.5626 5.43059 51.5984 6.51167V0H48.7054V16.9129H51.55V15.3484C52.5142 16.4756 53.8892 17.1429 55.5284 17.1429C58.9999 17.1429 61.6283 14.5199 61.6283 10.9761C61.6283 7.43243 58.9518 4.78596 55.5284 4.78596ZM55.0946 14.5887C53.0212 14.5887 51.5019 13.0469 51.5019 10.9761C51.5019 8.9055 53.0449 7.341 55.118 7.341C57.216 7.341 58.6861 8.88286 58.6861 10.9761C58.6861 13.0469 57.1677 14.5887 55.0946 14.5887ZM41.7856 4.78596C39.9052 4.78596 38.6752 5.52207 37.9521 6.55782V5.01595H35.0826V16.912H37.9756V10.4466C37.9756 8.6285 39.1809 7.34007 40.9651 7.34007C42.629 7.34007 43.6651 8.46736 43.6651 10.1016V16.9129H46.5582V9.89507C46.5593 6.90279 44.9444 4.78596 41.7856 4.78596ZM100.685 10.5851C100.685 7.17979 98.0814 4.78682 94.5851 4.78682C90.8724 4.78682 88.1474 7.45593 88.1474 10.9761C88.1474 14.6811 91.0649 17.1429 94.6336 17.1429C97.6472 17.1429 100.01 15.4398 100.612 13.0242H97.598C97.1638 14.0826 96.1031 14.6811 94.6805 14.6811C92.8239 14.6811 91.4252 13.5765 91.1126 11.6434H100.684L100.685 10.5851ZM91.2812 9.66429C91.7407 8.00736 93.0417 7.2025 94.5366 7.2025C96.1762 7.2025 97.4302 8.09972 97.7188 9.66429H91.2812Z" fill="black"/>
</g>
<path d="M113.255 12.3623C112.989 13.1838 112.766 13.9148 112.501 14.8677C112.286 14.0709 111.994 13.1427 111.746 12.3623L109.618 5.74982H107.533L111.205 16.4284H113.796L117.476 5.74982H115.383L113.255 12.3623ZM126.525 16.4284V14.8677H121.216V11.6559H125.77V10.1938H121.216V7.31054H126.354V5.74982H119.311V16.4284H126.525ZM135.638 11.738C135.638 12.3541 135.655 12.9948 135.689 13.6438C135.304 12.9291 134.969 12.3541 134.643 11.812L130.912 5.74982H128.878V16.4284H130.731V10.4402C130.731 9.82411 130.714 9.19161 130.68 8.54268C131.057 9.24911 131.392 9.83232 131.726 10.3663L135.458 16.4284H137.491V5.74982H135.638V11.738ZM144.361 16.4284V7.30232H147.432V5.74982H139.386V7.30232H142.457V16.4284H144.361ZM153.54 16.5927C156.56 16.5927 157.881 15.0155 157.898 12.2802L157.95 5.74982H156.036V12.2638C156.036 14.0709 155.178 14.9498 153.54 14.9498C151.893 14.9498 151.035 14.0709 151.035 12.2638V5.74982H149.131L149.182 12.2802C149.2 15.0155 150.521 16.5927 153.54 16.5927ZM166.163 12.0338C167.766 11.6723 168.693 10.5716 168.693 8.95339C168.693 6.80125 167.32 5.74982 164.962 5.74982H160.612V16.4284H162.516V12.1652H164.026L166.891 16.4284H169.165L166.163 12.0338ZM164.807 7.22018C166.102 7.22018 166.737 7.77054 166.737 8.93696C166.737 10.1527 166.094 10.7852 164.781 10.7852H162.516V7.22018H164.807ZM178.416 16.4284V14.8677H173.105V11.6559H177.661V10.1938H173.105V7.31054H178.244V5.74982H171.201V16.4284H178.416ZM184.612 16.5845C187.014 16.5845 188.532 15.4016 188.532 13.463C188.532 11.4752 186.945 10.8755 184.989 10.3498C183.162 9.85697 182.33 9.53661 182.33 8.53446C182.33 7.66375 183.007 7.09696 184.303 7.09696C185.898 7.09696 186.662 7.93482 186.799 9.41339L188.446 9.12589C188.309 6.74375 186.825 5.59375 184.32 5.59375C182.098 5.59375 180.434 6.66161 180.434 8.66589C180.434 10.6373 181.943 11.3109 184.071 11.8448C185.769 12.2802 186.644 12.5677 186.644 13.5863C186.644 14.6213 185.898 15.0813 184.629 15.0813C182.776 15.0813 181.884 14.2352 181.867 12.6252L180.125 12.8388C180.151 15.5084 182.115 16.5845 184.612 16.5845Z" fill="black"/>
</g>
<defs>
<clipPath id="clip0_3_1347">
<rect width="189.474" height="20" fill="white" transform="translate(0.462891)"/>
</clipPath>
</defs>
</svg>
