<svg width="200" height="24" viewBox="0 0 200 24" fill="none" xmlns="http://www.w3.org/2000/svg">
<g clip-path="url(#clip0_3_1427)">
<path fill-rule="evenodd" clip-rule="evenodd" d="M96.2312 9.72783C95.988 10.464 95.8633 11.2433 95.8633 12.059C95.8633 12.8747 95.9938 13.6771 96.2527 14.4133C96.5111 15.1361 96.8795 15.7629 97.3543 16.2967C97.8291 16.8306 98.392 17.255 99.0403 17.5667C99.7038 17.8652 100.422 18.0144 101.201 18.0144C103.262 18.0144 104.896 17.1124 106.108 15.3053L104.248 13.9623C103.901 14.5127 103.469 14.9272 102.952 15.2091C102.434 15.491 101.856 15.6335 101.223 15.6335C100.763 15.6335 100.343 15.5407 99.9685 15.3517C99.5943 15.1626 99.2777 14.904 99.0193 14.5758C98.7604 14.2474 98.5597 13.8694 98.4135 13.445C98.2704 13.004 98.1976 12.5431 98.1976 12.0556C98.1976 11.5682 98.2615 11.1073 98.392 10.6663C98.523 10.212 98.7086 9.81074 98.9554 9.46592C99.2138 9.12104 99.5303 8.84582 99.9051 8.64357C100.294 8.43795 100.742 8.33849 101.244 8.33849C101.807 8.33849 102.339 8.51093 102.842 8.85575C103.347 9.20063 103.712 9.67148 103.944 10.2683L106.083 9.49241C105.651 8.34511 104.997 7.47634 104.117 6.87947C103.253 6.26605 102.294 5.96097 101.244 5.96097C100.422 5.96097 99.6797 6.12679 99.0193 6.45505C98.3558 6.78332 97.7867 7.23098 97.3119 7.79798C96.8522 8.34842 96.4901 8.99171 96.2312 9.72783ZM132.151 15.66H127.914V13.0935C127.914 12.4337 127.972 11.8136 128.088 11.2333C128.218 10.653 128.413 10.149 128.672 9.72783C128.946 9.30341 129.284 8.96521 129.688 8.71648C130.106 8.4645 130.596 8.33849 131.159 8.33849C131.518 8.33849 131.871 8.37828 132.218 8.45457C132.565 8.51755 132.872 8.60377 133.146 8.71317L133.6 6.28924C133.268 6.16322 132.945 6.07705 132.625 6.03063C132.309 5.98421 131.971 5.96097 131.609 5.96097C130.845 5.96097 130.112 6.17321 129.405 6.59763C128.715 7.00549 128.182 7.6952 127.808 8.67006V6.08036H122.579V8.19922H125.626V15.6633H122.579V17.7823H132.151V15.66ZM145.552 15.66V17.7789H135.98V15.66H139.026V8.19922H135.98V6.08036H141.208V8.67006C141.583 7.69851 142.115 7.00549 142.806 6.59763C143.512 6.17321 144.246 5.96097 145.01 5.96097C145.369 5.96097 145.71 5.98421 146.026 6.03063C146.343 6.07705 146.668 6.16322 146.997 6.28924L146.544 8.71317C146.27 8.60377 145.959 8.51755 145.616 8.45457C145.269 8.37497 144.915 8.33849 144.556 8.33849C143.993 8.33849 143.503 8.4645 143.086 8.71648C142.682 8.96852 142.344 9.30341 142.07 9.72783C141.811 10.1523 141.616 10.653 141.485 11.2333C141.37 11.8136 141.312 12.4337 141.312 13.0935V15.66H145.552ZM156.423 15.4943C155.933 15.7131 155.437 15.8225 154.932 15.8225C154.052 15.8225 153.34 15.5473 152.792 14.9969C152.259 14.4464 151.955 13.7269 151.885 12.8315H159.75C159.765 12.6592 159.771 12.4867 159.771 12.3143C159.786 12.1418 159.792 11.9462 159.792 11.724C159.792 10.9083 159.671 10.1556 159.424 9.46261C159.181 8.75628 158.834 8.14286 158.386 7.62554C157.938 7.10827 157.4 6.70041 156.764 6.40201C156.143 6.10355 155.452 5.95435 154.688 5.95435C153.924 5.95435 153.227 6.11017 152.591 6.42519C151.958 6.72365 151.41 7.13814 150.948 7.67196C150.488 8.20584 150.126 8.8425 149.867 9.57863C149.624 10.3148 149.499 11.1073 149.499 11.9561C149.499 12.805 149.63 13.6506 149.888 14.4033C150.163 15.1395 150.537 15.7761 151.012 16.31C151.486 16.8438 152.056 17.2583 152.719 17.5568C153.383 17.8552 154.11 18.0044 154.901 18.0044C155.808 18.0044 156.682 17.7988 157.515 17.391C158.349 16.9831 159.065 16.3332 159.655 15.4379L157.689 14.3536C157.33 14.8874 156.904 15.2655 156.414 15.4843L156.423 15.4943ZM152.813 8.92541C153.319 8.40815 153.957 8.14949 154.737 8.14949C155.111 8.14949 155.449 8.21909 155.753 8.36172C156.07 8.5043 156.344 8.69993 156.575 8.94859C156.818 9.18407 157.013 9.47585 157.16 9.82074C157.303 10.149 157.382 10.5104 157.397 10.905H151.973C152.047 10.1059 152.326 9.44599 152.817 8.92872L152.813 8.92541ZM176.048 12.0556C176.048 11.2399 176.169 10.464 176.416 9.72452C176.675 8.98839 177.037 8.3418 177.496 7.79467C177.971 7.23098 178.54 6.78332 179.204 6.45174C179.867 6.12348 180.607 5.95766 181.429 5.95766C182.478 5.95766 183.437 6.26274 184.302 6.87616C185.181 7.47303 185.836 8.34511 186.268 9.4891L184.128 10.265C183.897 9.66816 183.529 9.19732 183.027 8.85244C182.521 8.50761 181.988 8.33517 181.429 8.33517C180.923 8.33517 180.479 8.43795 180.09 8.64026C179.715 8.84582 179.398 9.11772 179.14 9.46261C178.896 9.80743 178.708 10.2087 178.577 10.663C178.446 11.104 178.382 11.5649 178.382 12.0523C178.382 12.5398 178.455 13.0007 178.598 13.4417C178.741 13.8661 178.945 14.2408 179.204 14.5725C179.462 14.9007 179.779 15.1626 180.153 15.3484C180.528 15.5374 180.944 15.6302 181.407 15.6302C182.04 15.6302 182.618 15.4876 183.136 15.2057C183.653 14.9239 184.086 14.5061 184.433 13.959L186.292 15.302C185.081 17.1058 183.446 18.0111 181.386 18.0111C180.607 18.0111 179.888 17.8619 179.225 17.5634C178.577 17.2484 178.014 16.8273 177.539 16.2934C177.064 15.7596 176.696 15.1328 176.437 14.4099C176.178 13.6738 176.048 12.888 176.048 12.0556ZM190.949 6.07705H188.465L192.419 17.7789H193.088L191.013 23.5486H193.259L199.309 6.08036H196.89L193.843 15.4976L190.949 6.08036V6.07705ZM163.384 6.07705V17.7789H165.672V8.19922H170.773V17.7823H173.062V8.19922H170.779V6.07705H163.384ZM109.635 15.6136H111.923V17.7789H119.204V6.08036H116.915V15.6169H111.923V6.08036H109.635V15.6169V15.6136Z" fill="black"/>
<path fill-rule="evenodd" clip-rule="evenodd" d="M30.6645 15.6171H26.8387V17.7824H37.5336V15.6171H32.9532V0.0090332H26.9453V2.17433H30.6614V15.6171H30.6645ZM0.59141 9.73133C0.347929 10.4675 0.223145 11.2467 0.223145 12.0624C0.223145 12.8782 0.354016 13.6806 0.612715 14.4167C0.871416 15.1396 1.23968 15.7663 1.71447 16.3002C2.18926 16.834 2.75231 17.2585 3.40058 17.5701C4.06406 17.8686 4.78233 18.0178 5.56146 18.0178C7.62191 18.0178 9.25628 17.1159 10.4676 15.3087L8.60804 13.9658C8.26109 14.5162 7.82887 14.9307 7.31149 15.2126C6.79411 15.4944 6.21583 15.637 5.58279 15.637C5.12321 15.637 4.70321 15.5441 4.32885 15.3551C3.9545 15.1661 3.63797 14.9075 3.37927 14.5792C3.12057 14.2509 2.9197 13.8729 2.77361 13.4485C2.63057 13.0075 2.55752 12.5465 2.55752 12.0591C2.55752 11.5717 2.62144 11.1107 2.75231 10.6697C2.88318 10.2154 3.06884 9.81424 3.31536 9.46936C3.57406 9.12454 3.89058 8.84932 4.26494 8.6437C4.65451 8.43814 5.10191 8.33862 5.60407 8.33862C6.16715 8.33862 6.69973 8.51106 7.20191 8.85594C7.70713 9.20076 8.07237 9.67167 8.3037 10.2685L10.4433 9.4926C10.0111 8.34524 9.35675 7.47647 8.47717 6.87961C7.61279 6.26619 6.65408 5.9611 5.60407 5.9611C4.78233 5.9611 4.03971 6.12692 3.37927 6.45518C2.71579 6.78345 2.14665 7.23111 1.67186 7.79817C1.21229 8.34861 0.850112 8.99189 0.59141 9.72802V9.73133ZM40.2393 15.6171H44.065V2.17433H40.3489V0.0090332H46.3568V15.6171H50.9373V17.7824H40.2424V15.6171H40.2393ZM67.0193 0.0090332V17.7857H69.1376V16.3731C69.5118 16.844 70.0019 17.2353 70.6077 17.5503C71.213 17.8653 71.8828 18.0211 72.6165 18.0211C73.3953 18.0211 74.0924 17.8653 74.7134 17.5503C75.3465 17.222 75.879 16.7876 76.3114 16.2538C76.7432 15.7033 77.075 15.06 77.3061 14.3239C77.5498 13.5877 77.6745 12.8085 77.6745 11.9928C77.6745 11.177 77.5529 10.3846 77.3061 9.66167C77.0598 8.92554 76.716 8.28888 76.2684 7.75506C75.8365 7.20462 75.3098 6.77352 74.6919 6.4585C74.0709 6.13023 73.3896 5.96441 72.6406 5.96441C71.9923 5.96441 71.3713 6.11367 70.7812 6.41208C70.1905 6.69392 69.7005 7.10178 69.3111 7.63566V0.0090332H67.0193ZM69.527 13.475C69.384 13.034 69.3111 12.5631 69.3111 12.0624V11.8966C69.3111 11.3959 69.384 10.9251 69.527 10.484C69.6853 10.043 69.8955 9.6683 70.1538 9.35334C70.4279 9.02501 70.7445 8.77303 71.1035 8.60059C71.4782 8.41159 71.8828 8.31875 72.3152 8.31875C72.7743 8.31875 73.1946 8.42153 73.5688 8.62383C73.943 8.81283 74.2596 9.07143 74.5185 9.39976C74.7926 9.72802 75.0022 10.1226 75.1453 10.5769C75.2883 11.0179 75.3617 11.4887 75.3617 11.9895C75.3617 12.4902 75.2826 12.971 75.1243 13.4253C74.9812 13.8663 74.7711 14.2509 74.497 14.5792C74.2386 14.9075 73.9126 15.1761 73.5264 15.3783C73.1522 15.5674 72.7261 15.6602 72.2512 15.6602C71.8189 15.6602 71.4232 15.5674 71.061 15.3783C70.702 15.1893 70.3913 14.9373 70.1329 14.6256C69.874 14.2974 69.6733 13.9127 69.527 13.4717V13.475ZM56.2451 6.07387H61.3308V8.23915H56.2451V6.07387ZM53.9564 8.23915H56.2451V15.5972H53.9564V8.23915ZM56.2451 15.5972H61.3308V8.23915H63.6195V17.7758H63.6164V17.7857H56.2451V15.5972ZM13.9251 6.10699V15.627H16.2138V17.7824H23.9352V8.26239H21.6465V6.10699H13.9251ZM21.6465 8.27232H16.2138V15.6204H21.6465V8.27232Z" fill="black"/>
<path d="M88.1051 7.82153H85.7068V10.4345H83.3086V13.0475H85.7068V15.6604H88.1051V13.0475H90.5033V10.4345H88.1051V7.82153Z" fill="black"/>
</g>
<defs>
<clipPath id="clip0_3_1427">
<rect width="199.154" height="23.9819" fill="white" transform="translate(0.223145 0.0090332)"/>
</clipPath>
</defs>
</svg>
