<svg width="176" height="28" viewBox="0 0 176 28" fill="none" xmlns="http://www.w3.org/2000/svg">
<path d="M22.8467 18.002C23.0301 18.256 23.2142 18.4978 23.3643 18.7422V18.751L23.4512 18.8867C23.3344 18.9028 21.5098 19.157 20.5762 20.4658C20.0963 21.1217 19.9661 21.8676 19.8262 22.6553C19.7694 22.9896 19.7058 23.3337 19.6191 23.6777C18.9123 26.7133 16.5787 27.9099 14.7949 28H14.7109C12.2207 27.9998 10.8408 25.8973 10.457 25.167C10.8031 25.0184 11.1373 24.8454 11.457 24.6494C11.6137 24.5593 11.76 24.4656 11.9033 24.3691C12.13 24.7969 13.1007 26.4052 14.7412 26.4053C15.2147 26.3764 17.3718 26.0963 18.0088 23.3311V23.3115C18.0821 23.0223 18.1387 22.7199 18.1953 22.3984C18.3487 21.5109 18.5262 20.5233 19.2197 19.5586C20.0155 18.5195 21.1608 17.7791 22.46 17.4648L22.8467 18.002ZM23.417 11.374C23.7338 11.4254 24.0346 11.4774 24.3213 11.5449H24.3447L24.5049 11.583C24.4315 11.673 23.331 13.0977 23.6309 14.6572C23.7742 15.4515 24.224 16.0727 24.7041 16.7158C24.9075 16.9955 25.1175 17.2818 25.3076 17.584V17.5713C27.0415 20.2082 26.2618 22.6361 25.0547 23.9385L25.0312 23.9609C24.611 24.3655 24.1088 24.6828 23.5566 24.8936C23.0046 25.1041 22.4138 25.2041 21.8203 25.1865C21.1649 25.1821 20.5134 25.0858 19.8867 24.9004C20.0243 24.5571 20.1354 24.2037 20.2197 23.8447C20.2631 23.665 20.2997 23.5108 20.333 23.3438C20.7998 23.4917 22.6707 23.9741 23.8311 22.8486C24.1446 22.5078 25.4645 20.8355 23.8877 18.4463V18.4268C23.731 18.1727 23.5439 17.9221 23.3506 17.6553C22.8104 16.922 22.1999 16.0918 21.9932 14.9502C21.7929 13.6724 22.0607 12.367 22.75 11.2588L23.417 11.374ZM3.53809 18.8965C3.89441 19.0278 4.2602 19.1349 4.63184 19.2178C4.81832 19.2595 4.98151 19.295 5.15137 19.3271C4.99791 19.7776 4.49829 21.5845 5.66504 22.7002C6.02181 23.0025 7.75214 24.2757 10.2295 22.7549H10.25C10.5133 22.6006 10.7733 22.424 11.0498 22.2344C11.8101 21.7135 12.6708 21.1242 13.8545 20.9248C15.1815 20.7344 16.5357 20.9956 17.6855 21.6621C17.6423 21.8838 17.6021 22.0991 17.5654 22.3047C17.5121 22.6165 17.462 22.909 17.3887 23.1855V23.2119C17.3785 23.2633 17.3486 23.3151 17.3486 23.3633C17.2553 23.2957 15.7816 22.231 14.1611 22.5205C13.3376 22.6588 12.6941 23.0958 12.0273 23.5557C11.7373 23.755 11.4403 23.9574 11.127 24.1406C10.1644 24.7542 9.03947 25.0891 7.88574 25.1055C6.6508 25.1078 5.45817 24.6722 4.53516 23.8809L4.51172 23.8584C2.70472 22.151 3.27795 19.7072 3.53809 18.8965ZM3.25098 9.7793C3.40654 10.1137 3.58869 10.4363 3.79492 10.7441C3.88819 10.8919 3.98114 11.0367 4.08105 11.1748C3.63748 11.3903 1.97103 12.3261 1.9707 13.9111C2.00071 14.3678 2.29063 16.4493 5.1582 17.0635H5.17871C5.46202 17.1374 5.79567 17.1886 6.12891 17.2432C7.04576 17.3943 8.06916 17.5649 9.06934 18.2305C10.1516 19.0077 10.9194 20.1247 11.2402 21.3887C11.0469 21.5141 10.8597 21.6425 10.6797 21.7646C10.4165 21.9414 10.1664 22.1148 9.91309 22.2627H9.88965L9.75 22.3438C9.73333 22.228 9.4694 20.4717 8.1123 19.5713C7.43214 19.1115 6.65824 18.9824 5.84473 18.8506C5.49477 18.7927 5.13787 18.7352 4.78125 18.6484C1.63375 17.9666 0.393165 15.7154 0.299805 13.9951V13.96C0.27313 11.5127 2.47405 10.1781 3.25098 9.7793ZM141.15 15.3867C141.149 15.7168 141.251 16.0396 141.439 16.3145C141.629 16.589 141.9 16.8032 142.215 16.9297C142.531 17.0561 142.88 17.0891 143.216 17.0244C143.551 16.9598 143.859 16.8011 144.101 16.5674C144.264 16.4139 144.392 16.2293 144.478 16.0264C144.563 15.8234 144.606 15.6057 144.601 15.3867L144.594 9.38281H146.262V15.3867C146.276 15.8245 146.198 16.2604 146.034 16.6689C145.87 17.0776 145.623 17.4511 145.308 17.7656C144.991 18.0801 144.612 18.3302 144.194 18.501C143.776 18.6716 143.327 18.7597 142.873 18.7598C142.418 18.7598 141.968 18.6718 141.55 18.501C141.132 18.3301 140.753 18.0802 140.438 17.7656C140.121 17.4511 139.874 17.0776 139.71 16.6689C139.546 16.2605 139.469 15.8245 139.482 15.3867V9.38281H141.15V15.3867ZM72.3125 9.38574C72.6824 9.38574 73.0488 9.45632 73.3906 9.59277C73.7323 9.72927 74.0431 9.92948 74.3047 10.1816C74.5663 10.4339 74.7744 10.7337 74.916 11.0635C75.0576 11.3931 75.1299 11.7467 75.1299 12.1035C75.1299 12.4603 75.0576 12.8139 74.916 13.1436C74.7744 13.4731 74.5662 13.7722 74.3047 14.0244C74.0431 14.2767 73.7324 14.4777 73.3906 14.6143C73.0489 14.7508 72.6824 14.8203 72.3125 14.8203H70.0156V18.6797H68.3486V13.21H72.3096C72.4613 13.2134 72.6124 13.1862 72.7529 13.1309C72.8933 13.0756 73.0201 12.9925 73.126 12.8877C73.3413 12.6782 73.4628 12.3955 73.4629 12.1006C73.4629 11.8055 73.3414 11.5221 73.126 11.3125C73.0201 11.2077 72.8933 11.1246 72.7529 11.0693C72.6124 11.014 72.4613 10.9868 72.3096 10.9902H68.3516V9.38281L72.3125 9.38574ZM55.7744 18.6768H48.9951V17.0684H55.7744V18.6768ZM116.94 18.6768H110.161V17.0684H116.94V18.6768ZM165.606 18.6768H158.841V17.0684H165.606V18.6768ZM153.119 9.375C153.49 9.37452 153.857 9.44501 154.2 9.58203C154.542 9.71915 154.853 9.92042 155.114 10.1738C155.376 10.4273 155.583 10.7277 155.724 11.0586C155.864 11.3894 155.936 11.744 155.934 12.1016C155.939 12.608 155.792 13.1057 155.51 13.5332C155.235 13.9574 154.845 14.3007 154.383 14.5264L155.934 18.6748H154.166L152.722 14.8418H149.161V13.208H153.119C153.425 13.208 153.719 13.0906 153.936 12.8818C154.152 12.6733 154.273 12.3905 154.273 12.0957C154.273 11.8007 154.152 11.5172 153.936 11.3086C153.719 11.1 153.425 10.9824 153.119 10.9824H149.161V9.375H153.119ZM60.3389 17.0654H65.4502V18.6729H58.6748V9.38281H60.3418L60.3389 17.0654ZM79.6953 13.2061H83.7227V9.38281H85.3906V18.6729H83.7227V14.8301H79.6953V18.6729H78.0283V9.38281H79.6953V13.2061ZM89.9541 18.6729H88.2861V9.38281H89.9541V18.6729ZM102.863 16.3164L105.498 9.38281H107.271L103.767 18.6729H101.993L98.4893 9.38281H100.249L102.863 16.3164ZM125.255 15.4932L125.258 9.38281H126.925V18.6729H125.258L121.499 12.5635V18.6729H119.833V9.38281H121.499L125.255 15.4932ZM136.599 10.9902H134.041V18.6729H132.374V10.9873H129.816L129.81 9.38281H136.599V10.9902ZM41.2812 9.38281C42.1297 9.37538 42.9644 9.59124 43.6953 10.0068C44.4221 10.412 45.0262 10.9944 45.4463 11.6953C45.8773 12.4002 46.1006 13.2051 46.0928 14.0234C46.0937 14.5202 46.0124 15.014 45.8525 15.4863C45.6995 15.949 45.4678 16.3845 45.166 16.7734C44.8704 17.1517 44.5212 17.4884 44.1289 17.7734C43.7263 18.0659 43.2751 18.2904 42.7949 18.4385C42.3041 18.5929 41.7908 18.6711 41.2744 18.6699H39.2402V17.0625H41.2744C41.6144 17.0641 41.9529 17.012 42.2754 16.9082C42.5886 16.8128 42.8817 16.6644 43.1416 16.4707C43.3916 16.285 43.616 16.0684 43.8086 15.8271C44.0069 15.5761 44.161 15.295 44.2627 14.9951C44.3686 14.6839 44.4212 14.3578 44.4189 14.0303C44.4198 13.6315 44.3394 13.2359 44.1816 12.8672C44.0238 12.4986 43.7914 12.1639 43.499 11.8818C43.2066 11.5997 42.8589 11.3759 42.4766 11.2236C42.0945 11.0714 41.685 10.9933 41.2715 10.9941H39.2373V9.38672L41.2812 9.38281ZM174.731 10.9902H171.337C171.032 10.9953 170.74 11.1153 170.524 11.3242C170.309 11.533 170.187 11.8148 170.184 12.1094C170.18 12.2548 170.207 12.3996 170.265 12.5342C170.322 12.6687 170.408 12.7908 170.517 12.8916C170.622 12.9953 170.748 13.0776 170.887 13.1328C171.026 13.1881 171.176 13.2153 171.327 13.2129L172.477 13.21C172.849 13.2032 173.22 13.2707 173.564 13.4092C173.91 13.5475 174.22 13.7535 174.479 14.0137C174.872 14.3948 175.14 14.8803 175.248 15.4082C175.357 15.9364 175.299 16.4843 175.086 16.9814C174.871 17.4786 174.509 17.9033 174.046 18.2021C173.581 18.501 173.035 18.6603 172.477 18.6602H168.52V17.0527H172.477C172.629 17.0553 172.78 17.0279 172.922 16.9727C173.062 16.9174 173.19 16.8348 173.298 16.7305C173.513 16.5204 173.634 16.2368 173.634 15.9414C173.634 15.6459 173.513 15.3625 173.298 15.1523C173.19 15.0481 173.062 14.9655 172.922 14.9102C172.78 14.8549 172.629 14.8275 172.477 14.8301H171.337C170.587 14.8301 169.87 14.543 169.34 14.0322C168.81 13.5214 168.513 12.8288 168.513 12.1064C168.513 11.3841 168.81 10.6914 169.34 10.1807C169.87 9.66986 170.587 9.38282 171.337 9.38281H174.731V10.9902ZM19.8867 5.69531C19.9003 5.8126 20.1672 7.56675 21.5234 8.4668C22.2037 8.92987 22.9741 9.05536 23.791 9.19043C24.1377 9.24827 24.4977 9.30669 24.8545 9.39355C28.0021 10.0721 29.2426 12.3233 29.3359 14.0469L29.3223 14.04C29.3523 16.4872 27.1518 17.8252 26.375 18.2207C26.2182 17.8869 26.0362 17.5643 25.8311 17.2559C25.7378 17.1049 25.6415 16.9633 25.5449 16.8252C25.9885 16.6064 27.655 15.6738 27.6553 14.0889C27.6252 13.6322 27.3353 11.5508 24.4678 10.9365H24.4443C24.1643 10.8658 23.8304 10.8145 23.4971 10.7598C22.5801 10.6086 21.5402 10.438 20.5566 9.77246C19.4851 9.00259 18.7214 7.90011 18.3955 6.65039L18.9531 6.28027C19.2164 6.10029 19.4694 5.92618 19.7227 5.77832H19.7461L19.8867 5.69531ZM4.61816 4.05859C6.38532 2.31569 8.91941 2.87122 9.75977 3.12207C9.62365 3.46463 9.5126 3.81643 9.42676 4.17383C9.3834 4.35391 9.34585 4.51177 9.3125 4.67578C8.8451 4.52772 6.97217 4.04914 5.81543 5.1709C5.50199 5.51499 4.18163 7.18387 5.75879 9.57324V9.59277C5.91541 9.84662 6.09833 10.0976 6.29492 10.3643C6.83509 11.0974 7.44561 11.9277 7.65234 13.0693C7.84696 14.3469 7.5771 15.6504 6.88867 16.7578C6.66529 16.7128 6.44173 16.6739 6.22168 16.6387C5.90499 16.5872 5.60505 16.5385 5.31836 16.4678H5.29199L5.13477 16.4326C5.20815 16.3393 6.30868 14.9183 6.00879 13.3555C5.86541 12.5644 5.41138 11.94 4.93457 11.2969C4.73123 11.0204 4.51822 10.734 4.35156 10.4287C2.6177 7.79493 3.39808 5.3703 4.5918 4.08398L4.61816 4.05859ZM54.6338 14.8496H48.9951V13.21H54.6338V14.8496ZM115.796 14.8496H110.161V13.21H115.796V14.8496ZM164.466 14.8496H158.841V13.21H164.479L164.466 14.8496ZM55.7744 10.9902H48.9951V9.38281H55.7744V10.9902ZM116.94 10.9902H110.161V9.38281H116.94V10.9902ZM165.606 10.9902H158.841V9.38281H165.606V10.9902ZM14.9277 0C17.4252 0 18.7959 2.0967 19.2227 2.84277C18.8776 2.99598 18.5437 3.17136 18.2227 3.36719C18.0693 3.45723 17.9188 3.5503 17.7754 3.64355C17.5519 3.22221 16.5852 1.60756 14.9482 1.60742C14.4781 1.63636 12.3176 1.92989 11.6807 4.68262V4.70508C11.6041 4.99121 11.5498 5.29667 11.4932 5.61816C11.3365 6.50243 11.1598 7.50554 10.4697 8.4541C9.67382 9.49399 8.52805 10.2351 7.22852 10.5508C7.09856 10.3644 6.96842 10.184 6.8418 10.0137C6.65193 9.75667 6.47552 9.51564 6.32227 9.27148V9.24902C6.29225 9.20405 6.26496 9.1583 6.23828 9.11328C6.35499 9.11328 8.17965 8.84692 9.11328 7.53809C9.5534 6.87886 9.67343 6.1323 9.81348 5.34766C9.87013 5.02624 9.9329 4.66617 10.0195 4.32227C10.7264 1.2769 13.0609 0.0900424 14.8447 0H14.9277ZM18.5225 3.8877C21.2533 2.21554 23.7678 2.96859 25.1016 4.12305L25.1279 4.14551C26.9349 5.84988 26.3621 8.29385 26.0986 9.10742C25.7439 8.97463 25.379 8.86646 25.0078 8.78516C24.8212 8.74337 24.6573 8.70793 24.4873 8.67578C24.6409 8.22509 25.1381 6.4213 23.9746 5.30566C23.6178 5.00014 21.8899 3.72694 19.4092 5.27051H19.3896C19.1262 5.42165 18.8656 5.60157 18.5889 5.78809C17.8286 6.30902 16.9687 6.89826 15.7852 7.09766C14.4608 7.28612 13.1089 7.02688 11.96 6.36426C12.0066 6.14558 12.0434 5.92973 12.0801 5.7207C12.1368 5.41204 12.1874 5.11957 12.2607 4.83984V4.81738C12.2707 4.76277 12.2968 4.71447 12.2969 4.66309C12.3936 4.73384 13.8712 5.79499 15.4883 5.50879C16.3086 5.36728 16.9552 4.93278 17.6221 4.46973C17.9089 4.27356 18.1891 4.07098 18.5225 3.8877Z" fill="black"/>
</svg>
