<svg width="107" height="16" viewBox="0 0 107 16" fill="none" xmlns="http://www.w3.org/2000/svg">
<g clip-path="url(#clip0_3_1654)">
<path d="M36.3362 8.91032V11.2161H33.6476C34.0628 12.668 34.4537 14.0385 34.8637 15.4728C34.1285 15.4728 33.4601 15.496 32.7959 15.4541C32.6582 15.4453 32.4632 15.2227 32.4134 15.0597C32.0766 13.9448 31.7566 12.8234 31.4653 11.6953C31.3689 11.3251 31.2068 11.2161 30.8424 11.2194C28.7788 11.2381 26.7163 11.2381 24.6526 11.2194C24.2872 11.2161 24.1293 11.3251 24.034 11.6986C23.7501 12.8101 23.4132 13.9074 23.1198 15.0167C23.0308 15.3516 22.892 15.4982 22.5403 15.4816C21.9301 15.4519 21.3178 15.4739 20.625 15.4739C21.0413 14.033 21.4322 12.6779 21.8443 11.2491H19.1016C19.1016 10.5176 19.0847 9.84672 19.1207 9.17912C19.126 9.08218 19.3855 8.92685 19.5307 8.92244C20.376 8.8971 21.2246 8.88829 22.0699 8.91914C22.4471 8.93346 22.5816 8.77923 22.6812 8.4278C23.3835 5.95791 24.1103 3.49684 24.8147 1.02805C24.9185 0.662305 25.0626 0.500363 25.4652 0.508075C26.9991 0.536718 28.5341 0.529006 30.068 0.512482C30.407 0.509177 30.5522 0.614935 30.6517 0.963054C31.3467 3.41642 32.0797 5.85766 32.7704 8.31213C32.9029 8.78033 33.101 8.94557 33.5755 8.92244C34.4855 8.87838 35.3997 8.90922 36.3362 8.90922V8.91032ZM30.6613 8.88058C30.156 7.07829 29.711 5.35201 29.1655 3.65988C29.0574 3.32388 28.5977 2.96254 28.246 2.88543C27.0023 2.61332 26.4737 3.0022 26.1156 4.2757C26.0764 4.41561 26.0372 4.55552 25.998 4.69543C25.6156 6.07689 25.2332 7.45725 24.8391 8.88058H30.6613Z" fill="black"/>
<path d="M50.4039 0.539062H60.0101V2.82828C59.812 2.83709 59.6245 2.85472 59.437 2.85362C57.6033 2.85142 55.7695 2.84481 53.9358 2.8437C52.9559 2.8437 52.4877 3.32733 52.4739 4.35626C52.4686 4.74074 52.4559 5.12631 52.4824 5.50969C52.5406 6.36236 52.9866 6.80632 53.8129 6.81183C55.6467 6.82285 57.4804 6.81513 59.3141 6.81624C59.8064 6.81624 60.0528 7.07476 60.0536 7.59179C60.0536 8.08092 60.0536 8.57116 60.0536 9.10656C59.8046 9.11757 59.6171 9.1341 59.4285 9.1341C57.6478 9.1363 55.867 9.1341 54.0852 9.1352C52.9008 9.1352 52.4739 9.58687 52.4728 10.8339C52.4728 11.1633 52.458 11.4949 52.4803 11.8221C52.5364 12.6461 53.0311 13.1408 53.8182 13.1408C55.7399 13.1386 57.6615 13.1298 59.5832 13.0989C59.919 13.0934 60.0758 13.1485 60.0578 13.533C60.0345 14.0265 60.0398 14.5222 60.0567 15.0158C60.0673 15.3364 59.972 15.4752 59.6394 15.4741C56.6944 15.4641 53.7494 15.4608 50.8044 15.4774C50.3774 15.4796 50.3711 15.2493 50.3711 14.9265C50.3753 10.293 50.3743 5.65951 50.3753 1.02709C50.3753 0.882776 50.3923 0.73846 50.405 0.539062H50.4039Z" fill="black"/>
<path d="M74.199 0.569915V2.82498C74.0157 2.836 73.8303 2.85693 73.646 2.85693C72.2349 2.85583 70.8228 2.84261 69.4117 2.84812C66.5663 2.85913 64.6373 4.86853 64.6076 7.82094C64.5875 9.76204 65.1638 11.3859 66.8322 12.4368C67.6363 12.9436 68.5357 13.1309 69.4637 13.132C70.8747 13.1342 72.2858 13.1143 73.6958 13.0791C74.1015 13.0692 74.2752 13.1826 74.2413 13.6332C74.2053 14.1069 74.2265 14.585 74.235 15.0621C74.2392 15.322 74.1756 15.4829 73.8843 15.473C71.8599 15.4047 69.8143 15.5126 67.8164 15.2372C64.8449 14.8263 62.6679 12.1967 62.3596 9.09114C62.1382 6.86582 62.5175 4.81896 63.9052 3.05963C65.2008 1.41708 66.9435 0.638217 68.9425 0.541272C70.6152 0.460852 72.2942 0.522544 73.9701 0.523645C74.0369 0.523645 74.1026 0.548983 74.2 0.569915H74.199Z" fill="black"/>
<path d="M0.684653 15.4165V13.1295C1.69739 13.1295 2.67941 13.1461 3.66143 13.1251C4.64662 13.1042 5.65407 13.1747 6.6096 12.9808C9.37344 12.4212 10.5059 9.92925 10.2421 7.38556C9.93914 4.45738 8.14142 2.85118 5.3013 2.85008C3.96122 2.85008 2.62009 2.85779 1.28001 2.8611C1.09038 2.8611 0.900761 2.8611 0.683594 2.8611V0.533323C2.48449 0.533323 4.26102 0.525612 6.03649 0.539933C6.36807 0.542136 6.70282 0.612642 7.0291 0.686452C10.5292 1.48074 12.6606 4.34502 12.5674 8.11044C12.4975 10.9373 11.454 13.2188 8.97937 14.5518C8.11388 15.0178 7.08631 15.3086 6.11276 15.3802C4.3267 15.5102 2.5258 15.4177 0.683594 15.4177L0.684653 15.4165Z" fill="black"/>
<path d="M106.516 13.0862V15.3787C106.473 15.4085 106.445 15.4482 106.417 15.4471C104.167 15.4074 101.899 15.7214 99.6734 15.1606C96.9159 14.4655 94.8629 11.8733 94.6606 8.92531C94.5356 7.1109 94.7601 5.37691 95.7072 3.81037C96.9562 1.74479 98.8302 0.704837 101.116 0.557216C102.89 0.443747 104.676 0.534082 106.5 0.534082V2.85745C106.334 2.85745 106.149 2.85745 105.965 2.85745C104.554 2.85304 103.143 2.83211 101.732 2.84864C98.4128 2.8894 96.632 5.4375 96.9625 8.59041C97.2719 11.5406 99.0886 13.1391 101.955 13.1336C103.277 13.1314 104.6 13.1016 105.923 13.0851C106.111 13.0829 106.301 13.0851 106.517 13.0851L106.516 13.0862Z" fill="black"/>
<path d="M76.3633 2.85272V0.554688H88.0818V2.85272C87.0352 2.85272 86.0013 2.85272 84.9673 2.85272C83.7639 2.85272 83.3656 3.27134 83.3656 4.53934C83.3656 7.94452 83.3656 11.3497 83.3656 14.7549V15.4368H81.1092C81.0954 15.2176 81.071 15.0072 81.071 14.7979C81.0689 11.3739 81.071 7.95113 81.0689 4.52722C81.0689 3.25812 80.6748 2.85272 79.4566 2.85272C78.4385 2.85272 77.4205 2.85272 76.3633 2.85272Z" fill="black"/>
<path d="M48.0753 13.1399V15.439H38.4648V0.554688H40.7075V1.17271C40.7075 4.59883 40.7075 8.02494 40.7075 11.4511C40.7075 12.6981 41.1333 13.1399 42.3283 13.1399C44.0391 13.1399 45.7511 13.1399 47.4619 13.1399H48.0753Z" fill="black"/>
<path d="M14.957 0.546875H17.1817V15.4257H14.957V0.546875Z" fill="black"/>
<path d="M90.1055 0.539062H92.3142V15.4278H90.1055V0.539062Z" fill="black"/>
</g>
<defs>
<clipPath id="clip0_3_1654">
<rect width="105.833" height="15" fill="white" transform="translate(0.683594 0.5)"/>
</clipPath>
</defs>
</svg>
