<svg width="126" height="32" viewBox="0 0 126 32" fill="none" xmlns="http://www.w3.org/2000/svg">
<g clip-path="url(#clip0_3_1358)">
<path d="M59.8544 29.5744H66.6696V29.5701H70.4218V14.7861H62.9175V22.2059H59.8544C57.8486 22.2067 55.9245 21.4258 54.5052 20.0348C53.0859 18.6438 52.2877 16.7567 52.2859 14.7883C52.2874 12.8197 53.0855 10.9322 54.5048 9.54102C55.9241 8.14981 57.8484 7.36875 59.8544 7.3696V0C51.5218 0 44.7686 6.61867 44.7686 14.7861C44.7686 22.9536 51.5218 29.5744 59.8544 29.5744Z" fill="black"/>
<path fill-rule="evenodd" clip-rule="evenodd" d="M43.1637 29.5691C39.1658 29.5708 35.3309 28.0141 32.5025 25.2415C29.6741 22.4688 28.0836 18.7072 28.0811 14.784C28.0839 10.8609 29.6745 7.09964 32.5029 4.32722C35.3313 1.55481 39.166 -0.0016967 43.1637 1.38795e-06V7.3696C38.9843 7.3696 35.5984 10.688 35.5984 14.7851C35.5984 18.8821 38.9843 22.2005 43.1637 22.2005V29.5691Z" fill="black"/>
<path d="M10.8672 0H4.05198V0.00426667H0.299805V14.7893H7.80415V7.36853H10.8672C12.8732 7.36768 14.7975 8.14875 16.2168 9.53996C17.6361 10.9312 18.4342 12.8186 18.4357 14.7872C18.4339 16.7556 17.6357 18.6428 16.2164 20.0338C14.7971 21.4247 12.8731 22.2057 10.8672 22.2048V29.5744C19.1998 29.5744 25.9531 22.9557 25.9531 14.7883C25.9531 6.6208 19.1998 0 10.8672 0ZM78.4042 0H81.3487C83.7803 0 85.3422 1.76533 85.3422 4.18453C85.3422 6.60373 83.7803 8.35733 81.3487 8.35733H78.4042V0ZM81.2889 7.45707C83.077 7.45707 84.1737 6.14827 84.1737 4.1728C84.1737 2.19733 83.077 0.8992 81.2889 0.8992H79.5009V7.456L81.2889 7.45707ZM86.4031 0H87.6074V1.3088H86.4031V0ZM86.4629 2.33707H87.5357V8.35627H86.4629V2.33707ZM88.7998 8.56747H89.8966C90.0879 9.26827 90.6237 9.60747 91.5661 9.60747C92.4596 9.60747 93.2715 9.17547 93.2715 7.936V7.15307C92.7944 7.91253 92.0792 8.24 91.2683 8.24C89.79 8.24 88.5857 6.95467 88.5857 5.18933C88.5857 3.43573 89.79 2.1856 91.2683 2.1856C92.0792 2.1856 92.865 2.55893 93.2715 3.23733V2.33707H94.3444V7.91147C94.3444 9.79307 92.9737 10.4704 91.5303 10.4704C89.9922 10.4715 88.9672 9.75787 88.8009 8.5664L88.7998 8.56747ZM91.4933 7.3632C92.602 7.3632 93.3292 6.4512 93.3292 5.18933C93.3292 3.91573 92.602 3.0624 91.4933 3.0624C90.3966 3.0624 89.6813 3.91573 89.6813 5.18933C89.6813 6.45227 90.3966 7.3632 91.4933 7.3632ZM95.6781 0H96.8824V1.3088H95.6781V0ZM95.7379 2.33707H96.8107V8.35627H95.7379V2.33707ZM98.6574 6.9536V3.20213H97.6802V2.33707H98.3835C98.5498 2.33707 98.6574 2.23253 98.6574 2.08V0.350933H99.7183V2.33813H101.066V3.2032H99.7183V6.79147C99.7183 7.3056 99.8607 7.49227 100.35 7.49227H101.22V8.35733H100.041C99.0987 8.3584 98.6585 7.9616 98.6585 6.95573L98.6574 6.9536ZM101.841 6.73173C101.841 5.32907 103.069 5.01333 104.07 4.88533L105.394 4.7104C105.884 4.64 105.978 4.37227 105.978 4.09067C105.978 3.50613 105.573 3.0272 104.654 3.0272C103.736 3.0272 103.212 3.44853 103.117 4.18347H102.044C102.176 2.9792 103.165 2.18453 104.631 2.18453C106.264 2.18453 107.039 2.9792 107.039 4.33493V7.25653C107.039 7.3856 107.145 7.49013 107.29 7.49013H107.672V8.3552H106.944C106.361 8.3552 106.038 8.0512 106.038 7.6192V7.46667C105.502 8.2496 104.654 8.50667 103.892 8.50667C102.641 8.5088 101.843 7.79627 101.843 6.7328L101.841 6.73173ZM104.166 7.6672C105.263 7.6672 105.978 6.87253 105.978 5.6928V5.27147C105.776 5.376 105.561 5.4112 105.359 5.4464L104.274 5.6096C103.343 5.74933 102.95 6.0768 102.95 6.6848C102.951 7.30453 103.428 7.6672 104.166 7.6672ZM108.624 0H109.697V8.35627H108.624V0ZM77.9629 15.0123C77.9629 12.4053 79.5487 10.6763 81.8139 10.6763C83.7933 10.6763 85.0324 11.8805 85.2835 13.68H84.1259C83.9107 12.5813 83.1955 11.6 81.8139 11.6C80.1215 11.6 79.1085 13.0613 79.1085 15.0016C79.1085 16.9419 80.1574 18.4139 81.8139 18.4139C83.2563 18.4139 84.0433 17.3973 84.2107 16.2976H85.3672C85.0216 18.3317 83.6748 19.3365 81.815 19.3365C79.5129 19.3376 77.9639 17.6192 77.9639 15.0133L77.9629 15.0123ZM86.3911 16.9408V13.1659H87.4639V16.8704C87.4639 17.9221 88.0726 18.4608 88.9542 18.4608C89.8248 18.4608 90.6107 17.7131 90.6107 16.6368V13.1659H91.6835V19.1851H90.6107V18.2496C90.2052 18.9739 89.4422 19.3365 88.5715 19.3365C87.2965 19.3365 86.3911 18.5067 86.3911 16.9408Z" fill="black"/>
<path d="M93.0342 13.1641H94.107V14.0996C94.4885 13.3625 95.0733 13.0938 95.7885 13.0938H96.1342V14.0868H95.7048C94.7277 14.0868 94.1081 14.6831 94.1081 15.9215V19.1823H93.0353V13.1641H93.0342Z" fill="black"/>
<path d="M97.0342 13.1641H98.107V14.0996C98.4885 13.3625 99.0733 13.0938 99.7885 13.0938H100.134V14.0868H99.7048C98.7277 14.0868 98.1081 14.6831 98.1081 15.9215V19.1823H97.0353V13.1641H97.0342Z" fill="black"/>
<path d="M100.448 16.1836C100.448 14.3724 101.58 13.0156 103.38 13.0156C104.906 13.0156 106.241 13.8572 106.099 16.4514H101.556C101.628 17.55 102.152 18.4972 103.38 18.4972C104.275 18.4972 104.727 18.0535 104.942 17.3986H106.027C105.729 18.5676 104.812 19.3388 103.38 19.3388C101.579 19.3388 100.446 17.9948 100.446 16.1826L100.448 16.1836ZM105.05 15.6578C104.978 14.4311 104.406 13.8583 103.381 13.8583C102.261 13.8583 101.713 14.653 101.581 15.6578H105.05ZM107.111 13.1682H108.183V14.0802C108.589 13.4146 109.364 13.0156 110.257 13.0156C111.592 13.0156 112.523 13.8338 112.523 15.4348V19.1874H111.45V15.4935C111.45 14.4418 110.841 13.8924 109.936 13.8924C108.982 13.8924 108.183 14.6519 108.183 15.7164V19.1874H107.111V13.1682ZM113.476 16.1836C113.476 14.3842 114.632 13.0156 116.432 13.0156C117.84 13.0156 118.864 13.8572 119.067 15.2364H117.982C117.804 14.3948 117.207 13.8807 116.42 13.8807C115.145 13.8807 114.585 14.9676 114.585 16.1719C114.585 17.3762 115.145 18.4738 116.42 18.4738C117.219 18.4738 117.755 18.0418 117.982 17.2108H119.055C118.829 18.4844 117.876 19.3378 116.42 19.3378C114.633 19.3388 113.476 17.9831 113.476 16.1836ZM120.927 20.3095C121.308 20.3095 121.487 20.2391 121.63 19.8775L121.94 19.0711L119.461 13.1692H120.616L122.464 17.7399L124.18 13.1692H125.301L122.546 20.2402C122.249 21.0114 121.795 21.1756 121.069 21.1756H119.865V20.3106H120.927V20.3095ZM77.9639 25.8434C77.9639 23.2364 79.5856 21.5074 81.8856 21.5074C83.8758 21.5074 85.0921 22.7116 85.3432 24.4994H84.1867C84.0204 23.4242 83.2095 22.4311 81.8856 22.4311C80.1573 22.4311 79.1073 23.8924 79.1073 25.8327C79.1073 27.773 80.1802 29.245 81.8726 29.245C83.0769 29.245 84.2443 28.5666 84.3878 26.6508H81.6465V25.7516H85.4378V30.0172H84.4247V28.7084C83.8889 29.597 83.0063 30.1698 81.6595 30.1698C79.5856 30.1687 77.9639 28.4514 77.9639 25.8444V25.8434ZM86.9171 23.9959H87.99V24.9314C88.3715 24.1954 88.9563 23.9255 89.6715 23.9255H90.0171V24.9186H89.5878C88.6106 24.9186 87.991 25.5148 87.991 26.7532V30.014H86.9182V23.9959H86.9171ZM90.3269 27.0114C90.3269 25.2119 91.4237 23.8434 93.2834 23.8434C95.1432 23.8434 96.24 25.2108 96.24 27.0114C96.24 28.8119 95.1432 30.1666 93.2834 30.1666C91.4237 30.1666 90.3269 28.8108 90.3269 27.0114ZM93.2824 29.3015C94.6171 29.3015 95.1302 28.1676 95.1302 26.9996C95.1302 25.8188 94.6171 24.7084 93.2824 24.7084C91.9345 24.7084 91.4345 25.8188 91.4345 26.9996C91.4345 28.1687 91.9345 29.3015 93.2824 29.3015ZM97.1921 27.7719V23.997H98.265V27.7015C98.265 28.7532 98.8737 29.2919 99.7552 29.2919C100.626 29.2919 101.412 28.5442 101.412 27.4679V23.997H102.485V30.0162H101.412V29.0807C101.006 29.805 100.243 30.1676 99.3726 30.1676C98.0987 30.1676 97.1921 29.3378 97.1921 27.7719ZM103.832 23.9959H104.905V24.9079C105.123 24.5709 105.427 24.2956 105.786 24.109C106.146 23.9225 106.549 23.8313 106.955 23.8444C108.445 23.8444 109.638 25.1298 109.638 27.0231C109.638 28.9164 108.445 30.1666 106.955 30.1666C106.098 30.1666 105.345 29.8039 104.905 29.1148V32.0012H103.832V23.9959ZM106.693 29.2908C107.862 29.2908 108.529 28.3436 108.529 27.0242C108.529 25.7047 107.861 24.7223 106.693 24.7223C105.537 24.7223 104.857 25.7036 104.857 27.0135C104.857 28.3234 105.537 29.2908 106.693 29.2908Z" fill="black"/>
</g>
<defs>
<clipPath id="clip0_3_1358">
<rect width="125" height="32" fill="white" transform="translate(0.299805)"/>
</clipPath>
</defs>
</svg>
