<svg width="209" height="16" viewBox="0 0 209 16" fill="none" xmlns="http://www.w3.org/2000/svg">
<path fill-rule="evenodd" clip-rule="evenodd" d="M100.238 12.6491C100.923 12.2729 101.556 11.8101 102.124 11.272L103.759 12.9296C103.398 13.3179 103.006 13.6754 102.587 13.9983C102.176 14.3101 101.735 14.5802 101.271 14.8045C100.781 15.0399 100.263 15.2146 99.7295 15.3247C99.1203 15.4456 98.5003 15.5039 97.8792 15.4985C96.8693 15.5085 95.868 15.3108 94.9377 14.9177C94.0606 14.5483 93.2654 14.0082 92.5984 13.329C91.9313 12.6498 91.4058 11.8449 91.052 10.9609C90.6726 10.0345 90.4814 9.04188 90.4893 8.04081V7.99933C90.4805 7.0032 90.6677 6.01508 91.0404 5.09132C91.3983 4.19912 91.9289 3.38649 92.6017 2.70011C93.2745 2.01372 94.0763 1.46713 94.9609 1.09173C95.9171 0.689056 96.946 0.488212 97.9832 0.501739C98.5899 0.497874 99.1954 0.55346 99.7913 0.667698C100.308 0.769208 100.812 0.925686 101.294 1.13446C101.738 1.32891 102.16 1.56787 102.555 1.84766C102.943 2.12521 103.31 2.43025 103.654 2.76044L102.019 4.64282C101.467 4.12673 100.847 3.68817 100.177 3.33922C99.4885 2.99806 98.7282 2.82732 97.9601 2.84134C97.3007 2.83498 96.6479 2.97335 96.0478 3.24669C95.473 3.50771 94.9555 3.87996 94.5251 4.34202C94.0911 4.81498 93.7532 5.36775 93.5298 5.96966C93.2928 6.60475 93.1739 7.27786 93.179 7.95576V7.99725C93.174 8.67906 93.2928 9.35614 93.5298 9.99537C93.7521 10.6034 94.0901 11.1626 94.5251 11.6421C94.9517 12.1124 95.4699 12.4903 96.0478 12.7528C96.6488 13.0231 97.3011 13.1599 97.9601 13.154C98.7495 13.1764 99.5322 13.003 100.238 12.6491ZM50.1002 12.6491C50.7854 12.2737 51.419 11.8109 51.985 11.272L53.6194 12.9296C53.2595 13.3181 52.8677 13.6756 52.4478 13.9983C52.0376 14.3102 51.5972 14.5803 51.1332 14.8045C50.6421 15.0399 50.1243 15.2146 49.5909 15.3247C48.9817 15.4456 48.3616 15.5039 47.7406 15.4985C46.7306 15.5085 45.7295 15.3108 44.7991 14.9177C43.9229 14.5466 43.1287 14.006 42.4619 13.3269C41.7951 12.6479 41.2688 11.8439 40.9133 10.9609C40.534 10.0345 40.3427 9.04189 40.3507 8.04082V7.99933C40.342 7.00318 40.5295 6.01508 40.9022 5.09132C41.2601 4.19919 41.7906 3.3866 42.4634 2.70022C43.1361 2.01384 43.9378 1.46721 44.8223 1.09173C45.7784 0.689066 46.8074 0.488212 47.8446 0.501749C48.4526 0.498056 49.0596 0.553632 49.6569 0.667708C50.1717 0.769744 50.6742 0.926202 51.156 1.13446C51.5993 1.32873 52.0217 1.5677 52.4167 1.84767C52.8044 2.12522 53.1717 2.43026 53.5157 2.76044L51.8809 4.64282C51.3286 4.12654 50.7087 3.68796 50.038 3.33922C49.3498 2.99807 48.5898 2.82733 47.8218 2.84134C47.1624 2.83495 46.5098 2.97331 45.9097 3.2467C45.3347 3.5075 44.8171 3.87979 44.3869 4.34202C43.9527 4.81487 43.6148 5.36768 43.3916 5.96966C43.1544 6.60472 43.0355 7.27785 43.0408 7.95576V7.99725C43.0356 8.67908 43.1544 9.35614 43.3916 9.99537C43.6138 10.6035 43.9517 11.1628 44.3869 11.6421C44.8132 12.1126 45.3315 12.4906 45.9097 12.7528C46.5106 13.0232 47.1629 13.1599 47.8218 13.154C48.6113 13.1763 49.394 13.0029 50.1002 12.6491ZM3.02608 9.07345V12.9498H11.3246V15.2484H0.500977V0.750247H11.2218V3.04919H3.02608V6.77495H10.2928V9.07345H3.02608ZM16.8736 0.751907V12.9498H24.4908V15.2484H14.3485V0.751907H16.8736ZM29.6685 12.9498V9.07345H36.9353V6.77495H29.6685V3.04919H37.8642V0.750247H27.1418V15.2484H37.9654V12.9498H29.6685ZM55.212 0.750247V3.11101H59.8073V15.2484H62.3747V3.11101H66.9699V0.750247H55.212ZM79.4243 9.17018C78.9873 9.4301 78.5164 9.6286 78.0251 9.76013L81.9407 15.2484H78.9375L75.3629 10.1925L73.8442 7.93624H75.9028C76.683 7.97896 77.4536 7.74704 78.0808 7.28071C78.3467 7.06933 78.559 6.79808 78.7003 6.48907C78.8417 6.18005 78.908 5.84201 78.8939 5.50247V5.46098C78.9154 5.12024 78.8551 4.77932 78.718 4.46666C78.5809 4.154 78.3711 3.87867 78.106 3.66365C77.4532 3.21789 76.6705 3.00215 75.8816 3.05043H72.1651V15.2484H69.6403V0.751077H76.1014C76.9245 0.737125 77.7436 0.866418 78.5224 1.1332C79.1784 1.35864 79.778 1.72305 80.2803 2.20155C80.6683 2.59749 80.9713 3.06865 81.1706 3.58607C81.3841 4.14191 81.49 4.73323 81.4829 5.32863V5.36721C81.4897 5.91276 81.4022 6.45537 81.2246 6.9712C81.0613 7.43167 80.8186 7.85995 80.5075 8.23663C80.2011 8.60612 79.835 8.92166 79.4243 9.17018ZM84.7336 0.750247V15.2484H87.2591V0.750247H84.7336Z" fill="#28292D"/>
<path fill-rule="evenodd" clip-rule="evenodd" d="M129.345 11.272C128.779 11.8106 128.145 12.2736 127.46 12.649C126.755 13.0033 125.973 13.1768 125.185 13.154C124.525 13.1599 123.872 13.023 123.269 12.7528C122.692 12.4897 122.174 12.1118 121.747 11.6421C121.311 11.1628 120.973 10.6036 120.751 9.99534C120.516 9.35551 120.398 8.67884 120.401 7.99721V7.95572C120.398 7.278 120.516 6.60527 120.751 5.96962C120.974 5.36758 121.312 4.81475 121.747 4.34198C122.178 3.88039 122.695 3.5082 123.269 3.24666C123.871 2.97325 124.525 2.83491 125.185 2.8413C125.952 2.8278 126.71 2.99854 127.398 3.33918C128.07 3.68721 128.69 4.12585 129.241 4.64278L130.875 2.7604C130.532 2.43026 130.167 2.12522 129.781 1.84762C129.384 1.56774 128.961 1.32878 128.516 1.13442C128.034 0.926165 127.532 0.769706 127.016 0.66767C126.419 0.553433 125.812 0.497847 125.205 0.501712C124.167 0.488488 123.139 0.689322 122.182 1.09169C121.297 1.46709 120.496 2.01369 119.823 2.70007C119.15 3.38646 118.619 4.19909 118.261 5.09128C117.892 6.01499 117.705 7.00182 117.712 7.9968V8.03829C117.706 9.03913 117.898 10.0315 118.275 10.9583C118.635 11.8419 119.162 12.6474 119.829 13.3299C120.496 14.0066 121.29 14.5453 122.165 14.9152C123.094 15.3087 124.094 15.5065 125.103 15.4961C125.724 15.5015 126.346 15.4433 126.956 15.3221C127.488 15.211 128.005 15.036 128.494 14.8011C128.958 14.5752 129.398 14.3052 129.809 13.9949C130.228 13.6721 130.619 13.3145 130.978 12.9262L129.345 11.272ZM141.102 0.646342H138.742L132.368 15.2486H134.978L136.465 11.7469L137.398 9.49027L139.88 3.6896L142.387 9.49068L143.321 11.7473L144.789 15.249H147.48L141.102 0.646342ZM159.684 2.07347C160.156 2.49929 160.53 3.02322 160.779 3.60859C161.043 4.23737 161.174 4.91404 161.164 5.59593V5.63743C161.179 6.37828 161.022 7.11257 160.705 7.78202C160.41 8.38317 159.986 8.91041 159.46 9.32465C158.91 9.75181 158.283 10.0711 157.613 10.2656C156.88 10.4845 156.116 10.5925 155.351 10.5859H152.467V15.2485H149.942V0.750372H155.655C156.432 0.73988 157.205 0.854471 157.945 1.08976C158.586 1.2959 159.178 1.63063 159.684 2.07347ZM158.368 6.72099C158.513 6.39646 158.584 6.0432 158.574 5.68763L158.572 5.64904C158.597 5.28027 158.533 4.91084 158.385 4.57229C158.236 4.23374 158.009 3.93613 157.72 3.70485C157.055 3.23648 156.252 3.00559 155.439 3.04931H152.467V8.28653H155.439C156.267 8.33428 157.083 8.07635 157.733 7.56171C158.005 7.33293 158.222 7.04552 158.368 6.72099ZM163.894 0.750372V15.2485H166.423V0.750372H163.894ZM169.256 3.11113V0.750372H181.014V3.11113H176.419V15.2485H173.851V3.11113H169.256ZM189.214 0.646342H186.854L180.478 15.2486H183.083L184.577 11.7469L185.509 9.49027L187.992 3.6896L190.497 9.49068L191.426 11.7473L192.899 15.249H195.59L189.214 0.646342ZM200.682 0.752031V12.95H208.299V15.2485H198.157V0.752031H200.682Z" fill="#28292D"/>
<path d="M112.933 7.16171H110.255V0.501099L107.579 8.83832H110.255V15.4989L112.933 7.16171Z" fill="black"/>
</svg>
