<svg width="148" height="30" viewBox="0 0 148 30" fill="none" xmlns="http://www.w3.org/2000/svg">
<path d="M13.4914 -0.000244141C13.5411 0.038942 13.5848 0.102243 13.6391 0.112793C15.1417 0.396139 16.6459 0.667427 18.147 0.955295C21.5863 1.61543 25.0257 2.28461 28.465 2.94927C29.6526 3.17835 30.8388 3.41046 32.0279 3.63352C32.1651 3.65914 32.2043 3.72093 32.2043 3.84452C32.2043 4.14444 32.2103 4.44437 32.2103 4.74278C32.2103 7.49184 32.2103 10.2409 32.2103 12.9915C32.2103 13.3472 32.1982 13.7044 32.2028 14.06C32.2043 14.2153 32.1545 14.2575 32.0023 14.2273C30.465 13.9259 28.9277 13.629 27.3889 13.3321C25.1553 12.901 22.9232 12.47 20.6896 12.0374C18.456 11.6064 16.2239 11.1753 13.9902 10.7443C13.8124 10.7096 13.6346 10.6704 13.4552 10.6463C13.3361 10.6297 13.297 10.5725 13.3 10.4594C13.3045 10.2846 13.3 10.1098 13.3 9.93495C13.3 7.1663 13.3 4.39915 13.3 1.6305C13.3 1.08792 13.3015 0.54384 13.303 0.00126302C13.3663 0.00126302 13.4281 0.00126302 13.4914 0.00126302V-0.000244141Z" fill="black"/>
<path d="M0.0498047 7.31173C0.526067 6.9892 1.00082 6.66516 1.48161 6.34715C3.16812 5.22884 4.85463 4.11354 6.54265 2.99824C7.89607 2.10449 9.25252 1.21527 10.6075 0.323033C10.7009 0.26124 10.7974 0.200953 10.8953 0.145188C11.0762 0.0442086 11.1124 0.0638017 11.1169 0.265761C11.1199 0.390855 11.1214 0.515949 11.1214 0.641044C11.1214 3.90254 11.1214 7.16403 11.1289 10.4255C11.1289 10.6169 11.0174 10.6787 10.8893 10.7631C9.24197 11.8498 7.60218 12.947 5.94732 14.0201C5.66849 14.201 5.57505 14.3878 5.57656 14.7119C5.58711 18.0352 5.58108 21.36 5.58258 24.6832C5.58258 24.8189 5.53285 24.9018 5.42283 24.9741C3.86292 25.999 2.30602 27.0284 0.746112 28.0517C0.521545 28.1979 0.281907 28.3215 0.0498047 28.4572C0.0498047 21.4082 0.0498047 14.3592 0.0498047 7.31173Z" fill="black"/>
<path d="M7.72938 14.2576C8.68643 14.446 9.60128 14.6283 10.5161 14.8047C13.2531 15.3337 15.9916 15.8582 18.7286 16.3872C20.9924 16.8228 23.2561 17.2613 25.5199 17.6969C25.8153 17.7542 26.1107 17.813 26.4076 17.8567C26.59 17.8838 26.6578 17.9637 26.6563 18.1521C26.6503 19.7572 26.6563 21.3638 26.6563 22.9689C26.6563 24.7368 26.6563 26.5047 26.6533 28.2741C26.6533 28.4851 26.6352 28.4942 26.4212 28.4535C24.7166 28.1249 23.012 27.8009 21.3074 27.4723C20.1318 27.2463 18.9577 27.0142 17.7836 26.7881C15.0708 26.2651 12.3564 25.7436 9.64348 25.2221C9.0587 25.1091 8.47392 25.0006 7.89216 24.877C7.82886 24.8634 7.77008 24.776 7.73541 24.7082C7.70979 24.6585 7.72788 24.5861 7.72788 24.5228C7.72788 21.192 7.72788 17.8627 7.72788 14.5319C7.72788 14.446 7.72788 14.3601 7.72788 14.2576H7.72938Z" fill="black"/>
<path d="M68.3124 6.50684C68.3064 6.61535 68.2958 6.72387 68.2958 6.83239C68.3034 9.60706 68.3124 12.3802 68.3215 15.1549C68.3215 15.4473 68.3245 15.4413 68.0366 15.4398C67.277 15.4368 66.5189 15.4398 65.7593 15.4413C65.5046 15.4413 65.5046 15.4458 65.5046 15.1866C65.5046 11.1308 65.5076 7.07654 65.5076 3.02078C65.5076 2.72688 65.5076 2.43299 65.5031 2.13909C65.5001 2.01852 65.5453 1.97783 65.6689 1.97783C66.641 1.98084 67.6131 1.97783 68.5852 1.98235C68.6455 1.98235 68.7284 2.03359 68.7631 2.08634C69.5031 3.1941 70.2386 4.30337 70.9726 5.41415C71.4096 6.07579 71.8392 6.74196 72.2793 7.40209C73.0389 8.54 73.8045 9.67489 74.5671 10.8113C74.5807 10.8309 74.5882 10.8565 74.5973 10.8791C74.6154 10.8716 74.6319 10.864 74.65 10.855C74.65 10.7404 74.65 10.6244 74.65 10.5099C74.65 7.75477 74.647 4.99817 74.647 2.24309C74.647 1.97481 74.6485 1.97632 74.9198 1.97632C75.7171 1.97933 76.5129 1.97933 77.3102 1.98235C77.3478 1.98235 77.384 1.98536 77.4322 1.98838C77.4398 2.03208 77.4533 2.07428 77.4533 2.11498C77.4488 4.44504 77.4413 6.77662 77.4383 9.10669C77.4352 11.1444 77.4353 13.1805 77.4428 15.2182C77.4428 15.4051 77.3855 15.4428 77.2077 15.4413C76.3426 15.4307 75.4759 15.4292 74.6108 15.4413C74.3863 15.4443 74.2521 15.384 74.1301 15.1805C73.8301 14.6832 73.497 14.2069 73.176 13.7231C72.5641 12.8007 71.9507 11.8814 71.3403 10.959C70.7299 10.0366 70.124 9.11121 69.5136 8.18732C69.1836 7.68694 68.849 7.18807 68.5144 6.6892C68.4677 6.61988 68.4119 6.55657 68.3606 6.49026L68.3124 6.50533V6.50684Z" fill="black"/>
<path d="M82.5576 8.75305C82.5576 6.59179 82.5576 4.43052 82.5576 2.26926C82.5576 2.02058 82.5576 2.01455 82.8153 2.01605C84.7973 2.01756 86.7792 2.00852 88.7611 2.02962C90.2095 2.0462 91.3489 2.70181 92.0934 3.91357C92.6194 4.76963 92.8229 5.73421 92.4265 6.73195C92.2351 7.21424 91.9186 7.60309 91.5267 7.93768C91.3408 8.09643 91.3504 8.2366 91.5554 8.35818C92.2215 8.75607 92.7581 9.27754 92.9751 10.0387C93.4242 11.6151 93.2027 13.0711 92.0391 14.2873C91.4694 14.8827 90.7324 15.2414 89.9126 15.368C89.3956 15.4479 88.8666 15.478 88.3421 15.484C86.7988 15.4991 85.2569 15.4885 83.7136 15.4901C83.4122 15.4901 83.1123 15.5021 82.8108 15.5127C82.5591 15.5217 82.5576 15.5247 82.5576 15.276C82.5576 13.264 82.5576 11.2534 82.5576 9.24137C82.5576 9.0786 82.5576 8.91583 82.5576 8.75456V8.75305ZM87.0218 9.56089V9.55788C86.5199 9.55788 86.0181 9.5624 85.5162 9.55486C85.3609 9.55336 85.3082 9.60912 85.3082 9.76134C85.3127 10.735 85.3127 11.7101 85.3082 12.6852C85.3082 12.8028 85.3413 12.8555 85.4679 12.854C86.5214 12.842 87.575 12.8555 88.6269 12.8194C89.5207 12.7892 90.2306 11.8789 90.0964 10.9957C89.9698 10.1668 89.2916 9.57295 88.4491 9.5624C87.9728 9.55637 87.4966 9.5624 87.0188 9.5624L87.0218 9.56089ZM86.9163 4.60987C86.9163 4.61892 86.9163 4.62645 86.9163 4.6355C86.4461 4.6355 85.9759 4.637 85.5056 4.6355C85.3715 4.6355 85.3052 4.66715 85.3067 4.8254C85.3157 5.61213 85.3172 6.39887 85.3097 7.18561C85.3082 7.36948 85.3549 7.43429 85.5508 7.43128C86.4657 7.42073 87.382 7.40867 88.2969 7.43128C88.7264 7.44183 89.052 7.27302 89.3293 6.98516C89.6985 6.60234 89.8191 6.13361 89.6488 5.63474C89.474 5.11929 89.1273 4.73949 88.5486 4.68523C88.0075 4.6355 87.4604 4.63399 86.9178 4.61138L86.9163 4.60987Z" fill="black"/>
<path d="M117.93 15.7963C116.141 15.831 114.58 15.317 113.215 14.2485C112.832 13.9485 112.502 13.5838 112.146 13.2492C112.049 13.1588 112.063 13.094 112.17 13.0096C112.856 12.476 113.54 11.938 114.217 11.3939C114.342 11.2944 114.404 11.3577 114.484 11.4331C114.957 11.8852 115.483 12.268 116.074 12.5544C116.943 12.9764 117.857 13.1723 118.827 13.0608C118.909 13.0518 118.99 13.0503 119.071 13.0457C119.665 13.0141 120.119 12.7096 120.399 12.2243C120.845 11.4497 120.395 10.5017 119.519 10.2922C118.88 10.1399 118.233 10.0164 117.594 9.85961C116.939 9.69985 116.257 9.59133 115.643 9.3306C114.364 8.78802 113.624 7.77822 113.429 6.4052C113.248 5.14371 113.81 3.18139 115.668 2.32683C116.499 1.94401 117.374 1.68629 118.277 1.67272C120.105 1.64559 121.798 2.12336 123.264 3.26428C123.477 3.43007 123.677 3.60942 123.888 3.77672C123.992 3.85961 123.992 3.92291 123.891 4.01485C123.285 4.56496 122.681 5.11809 122.083 5.67573C121.976 5.77521 121.909 5.74356 121.813 5.6682C121.108 5.1211 120.34 4.6991 119.451 4.52125C118.826 4.39616 118.205 4.40369 117.587 4.55592C117.24 4.64182 116.963 4.85433 116.749 5.13014C116.435 5.53557 116.508 6.33436 116.922 6.62826C117.156 6.79405 117.472 6.85735 117.759 6.93421C118.762 7.204 119.772 7.45418 120.776 7.72246C121.563 7.93195 122.22 8.38109 122.765 8.95682C123.316 9.53708 123.593 10.2741 123.7 11.0653C123.86 12.2469 123.373 13.2206 122.704 14.1369C122.262 14.7398 121.641 15.0714 120.949 15.302C119.955 15.6335 118.934 15.8114 117.933 15.7948L117.93 15.7963Z" fill="black"/>
<path d="M128.326 8.78093C128.326 6.6257 128.326 4.46895 128.326 2.31371C128.326 2.06503 128.326 2.06654 128.571 2.06654C129.323 2.06503 130.077 2.06202 130.829 2.059C131.017 2.059 131.111 2.14943 131.111 2.33029C131.111 3.85554 131.111 5.37928 131.111 6.90452C131.111 7.15622 131.111 7.15772 131.372 7.15772C132.99 7.15772 134.609 7.15923 136.228 7.15923C136.498 7.15923 136.495 7.15622 136.495 6.89548C136.493 5.34612 136.494 3.79676 136.488 2.2474C136.488 2.09367 136.549 2.05298 136.687 2.05448C137.497 2.059 138.306 2.06353 139.115 2.059C139.305 2.059 139.289 2.17355 139.289 2.29412C139.289 3.79977 139.289 5.30543 139.289 6.81108C139.289 9.64152 139.289 12.472 139.293 15.3024C139.293 15.4561 139.244 15.4938 139.1 15.4923C138.303 15.4878 137.507 15.4878 136.71 15.4968C136.534 15.4983 136.488 15.4411 136.49 15.2708C136.496 13.533 136.493 11.7968 136.493 10.059C136.493 9.79525 136.493 9.79224 136.237 9.79224C134.594 9.79224 132.95 9.79375 131.307 9.79073C131.152 9.79073 131.103 9.83745 131.105 9.9957C131.111 11.7515 131.106 13.5074 131.114 15.2632C131.114 15.4471 131.058 15.4938 130.879 15.4938C130.089 15.4908 129.298 15.4998 128.508 15.5134C128.36 15.5164 128.308 15.4727 128.308 15.325C128.311 13.1442 128.309 10.9633 128.309 8.78395C128.315 8.78395 128.321 8.78395 128.326 8.78395V8.78093Z" fill="black"/>
<path d="M51.5778 8.75483C51.5778 6.58151 51.5793 4.40668 51.5732 2.23335C51.5732 2.05551 51.632 2.01029 51.8008 2.01029C54.5921 2.01481 57.3833 2.01481 60.1731 2.01632C60.2047 2.01632 60.2364 2.02235 60.2665 2.01632C60.4384 1.97864 60.4625 2.06606 60.461 2.21225C60.4534 2.88746 60.4549 3.56116 60.4534 4.23637C60.4534 4.29816 60.4534 4.36146 60.4549 4.42325C60.461 4.7277 60.461 4.72016 60.1625 4.71112C59.724 4.69756 59.2854 4.69304 58.8468 4.69304C57.4481 4.69304 56.0495 4.69304 54.6509 4.69454C54.3826 4.69454 54.3796 4.69756 54.3781 4.9583C54.3751 5.68927 54.3751 6.42024 54.3751 7.15121C54.3751 7.3803 54.3931 7.39386 54.6222 7.39386C56.3027 7.39386 57.9832 7.39688 59.6652 7.39085C59.8475 7.39085 59.9033 7.4436 59.9003 7.62446C59.8897 8.3057 59.8852 8.98693 59.9003 9.66666C59.9048 9.86862 59.837 9.90027 59.6561 9.90027C57.9757 9.89424 56.2937 9.90027 54.6132 9.89273C54.4203 9.89273 54.369 9.94699 54.372 10.1354C54.3841 10.9101 54.3781 11.6847 54.3796 12.4594C54.3796 12.8 54.3977 12.8136 54.7428 12.8136C56.7368 12.8136 58.7322 12.8151 60.7262 12.8181C60.9839 12.8181 60.9855 12.8211 60.9855 13.0819C60.9855 13.8189 60.9809 14.5559 60.9855 15.2929C60.9855 15.4511 60.9312 15.4948 60.7775 15.4948C57.7858 15.4918 54.794 15.4933 51.8023 15.4994C51.6109 15.4994 51.5748 15.43 51.5748 15.2582C51.5793 13.0909 51.5778 10.9221 51.5778 8.75483Z" fill="black"/>
<path d="M105.591 2.09695C106.488 2.09695 107.347 2.09545 108.206 2.10298C108.251 2.10298 108.329 2.18286 108.334 2.22958C108.349 2.39688 108.338 2.56568 108.338 2.73448C108.338 5.22732 108.335 7.72016 108.337 10.2115C108.337 12.1105 107.5 13.6132 106.02 14.7254C104.938 15.5393 103.65 15.9251 102.28 15.7654C100.207 15.5227 98.6715 14.4526 97.7295 12.5853C97.303 11.7398 97.1297 10.8204 97.1282 9.88294C97.1252 7.50916 97.1493 5.13689 97.1628 2.76312C97.1628 2.58226 97.1659 2.4014 97.1598 2.21903C97.1553 2.10901 97.193 2.06078 97.3106 2.06229C98.15 2.07435 98.991 2.0864 99.8305 2.09093C100.004 2.09093 99.9812 2.20095 99.9812 2.30494C99.9843 3.58 99.9827 4.85355 99.9888 6.1286C99.9948 7.54684 99.9948 8.96508 100.02 10.3818C100.034 11.1218 100.382 11.7217 100.922 12.2145C101.451 12.6983 102.07 12.9967 102.794 12.9575C103.797 12.9033 104.622 12.4692 105.154 11.5996C105.413 11.1761 105.523 10.6863 105.549 10.1874C105.571 9.78196 105.589 9.37653 105.589 8.97111C105.594 6.7601 105.591 4.5476 105.591 2.33659C105.591 2.26425 105.591 2.1904 105.591 2.09243V2.09695Z" fill="black"/>
<path d="M39.0745 8.74457C39.0745 6.65715 39.0745 4.57125 39.0745 2.48383C39.0745 2.40244 39.0806 2.31955 39.0655 2.24118C39.0293 2.04977 39.1198 2.00757 39.2931 2.00757C42.128 2.01209 44.9645 2.0151 47.7995 2.0136C47.9321 2.0136 47.9879 2.03922 47.9864 2.18843C47.9758 2.95708 47.9743 3.72573 47.9788 4.49438C47.9788 4.65414 47.9457 4.70388 47.7708 4.70388C45.8703 4.69483 43.9698 4.69634 42.0693 4.69333C41.9321 4.69333 41.8688 4.72648 41.8703 4.88323C41.8779 5.63982 41.8794 6.39491 41.8703 7.1515C41.8688 7.34291 41.9351 7.39416 42.122 7.39416C43.81 7.38813 45.4965 7.39415 47.1846 7.38963C47.3323 7.38963 47.4001 7.41676 47.3971 7.58406C47.3835 8.29544 47.3775 9.00832 47.382 9.7197C47.382 9.89453 47.3323 9.94125 47.1589 9.93975C45.4785 9.93372 43.7965 9.93975 42.116 9.93221C41.9321 9.93221 41.8703 9.9729 41.8703 10.1703C41.8779 11.8569 41.8748 13.5449 41.8748 15.2314C41.8748 15.4906 41.8748 15.4876 41.6171 15.4876C40.8334 15.4876 40.0482 15.4906 39.2644 15.4966C39.1348 15.4966 39.073 15.477 39.0745 15.3233C39.0791 13.1304 39.0776 10.9375 39.0776 8.74306L39.0745 8.74457Z" fill="black"/>
<path d="M130.827 29.8088C130.586 29.8088 130.375 29.8088 130.163 29.8088C129.736 29.8088 129.31 29.8058 128.883 29.8163C128.722 29.8208 128.657 29.7621 128.618 29.6038C128.506 29.1562 128.372 28.7131 128.25 28.2685C128.219 28.1539 128.158 28.1117 128.036 28.1117C126.957 28.1162 125.878 28.1147 124.8 28.1117C124.68 28.1117 124.627 28.1464 124.595 28.2685C124.472 28.7327 124.336 29.1939 124.193 29.652C124.173 29.7168 124.086 29.8073 124.029 29.8088C123.396 29.8148 122.761 29.8058 122.128 29.8012C122.11 29.8012 122.092 29.7922 122.05 29.7801C122.06 29.7168 122.065 29.652 122.084 29.5917C123.084 26.5804 124.086 23.5706 125.081 20.5578C125.135 20.3936 125.212 20.3498 125.373 20.3514C126.038 20.3604 126.702 20.3559 127.367 20.3589C127.662 20.3589 127.665 20.3589 127.762 20.6483C128.041 21.4832 128.314 22.3212 128.594 23.1562C129.028 24.4538 129.467 25.7485 129.901 27.0462C130.121 27.7033 130.333 28.3634 130.553 29.0205C130.612 29.1984 130.689 29.3702 130.752 29.5465C130.781 29.6249 130.799 29.7078 130.827 29.8103V29.8088ZM127.687 26.4207C127.272 25.0823 126.862 23.7605 126.454 22.4403C126.43 22.4433 126.405 22.4448 126.381 22.4478C126.305 22.7086 126.229 22.9693 126.151 23.23C125.916 24.0062 125.682 24.7824 125.441 25.5571C125.367 25.7952 125.278 26.0288 125.192 26.2639C125.135 26.4192 125.201 26.4659 125.35 26.4644C126.071 26.4553 126.793 26.4508 127.513 26.4448C127.561 26.4448 127.61 26.4327 127.685 26.4222L127.687 26.4207Z" fill="black"/>
<path d="M57.2325 29.7786C57.2461 29.7198 57.2566 29.6611 57.2747 29.6038C58.2649 26.6226 59.2551 23.64 60.2453 20.6588C60.3116 20.4589 60.4513 20.3584 60.6643 20.3574C61.335 20.3574 62.0072 20.3604 62.6779 20.3513C62.8241 20.3498 62.8889 20.4041 62.9326 20.5367C63.6967 22.8502 64.4623 25.1622 65.231 27.4727C65.4691 28.1901 65.7208 28.903 65.965 29.6174C65.9846 29.6731 65.9951 29.7319 66.0147 29.8043C65.3335 29.8043 64.6749 29.8043 64.0177 29.8043C63.9122 29.8043 63.867 29.7636 63.8384 29.6596C63.7088 29.1908 63.5656 28.7251 63.433 28.2564C63.4013 28.1479 63.341 28.1117 63.228 28.1132C62.1489 28.1147 61.0697 28.1132 59.9906 28.1087C59.8685 28.1087 59.8128 28.1434 59.7811 28.2639C59.656 28.7281 59.5189 29.1893 59.3908 29.652C59.3621 29.7545 59.3169 29.8148 59.1978 29.8133C58.5648 29.8088 57.9303 29.8088 57.2973 29.8058C57.2807 29.8058 57.2642 29.7922 57.2295 29.7771L57.2325 29.7786ZM61.6138 22.4207C61.5807 22.4674 61.5656 22.4795 61.5611 22.496C61.1722 23.7394 60.7819 24.9844 60.3945 26.2293C60.3312 26.4312 60.3584 26.4599 60.5648 26.4599C61.2792 26.4599 61.9936 26.4553 62.708 26.4599C62.9145 26.4614 62.8602 26.3438 62.8286 26.2383C62.4548 25.022 62.078 23.8058 61.7012 22.5895C61.6847 22.5382 61.653 22.493 61.6153 22.4192L61.6138 22.4207Z" fill="black"/>
<path d="M45.8219 26.2844C46.4489 26.5271 47.0517 26.7577 47.6501 26.9958C47.6847 27.0094 47.7194 27.1103 47.7028 27.151C47.2672 28.2513 46.6101 29.1706 45.4677 29.6258C44.1037 30.1669 42.7428 30.1322 41.433 29.451C40.5197 28.9762 39.9349 28.206 39.5566 27.2611C38.7563 25.2611 38.9718 23.3862 40.2891 21.6785C41.0773 20.6567 42.1655 20.1684 43.4632 20.1639C44.4443 20.1608 45.3682 20.3643 46.1866 20.934C46.9176 21.4419 47.3833 22.1473 47.7104 22.9581C47.7571 23.0757 47.7209 23.1269 47.6124 23.1706C47.0713 23.3862 46.5302 23.6032 45.9922 23.8247C45.8701 23.8745 45.8159 23.8473 45.7661 23.7268C45.6546 23.463 45.5506 23.1917 45.3999 22.9491C44.9809 22.2754 44.3449 22.0237 43.5657 22.0207C42.3705 22.0177 41.3094 23.0666 41.2356 24.3522C41.2024 24.9189 41.1256 25.4917 41.2688 26.0508C41.5054 26.9837 41.9816 27.7147 42.9643 28.0312C43.9198 28.3372 45.3743 27.8202 45.7104 26.6386C45.742 26.5256 45.7812 26.4155 45.8234 26.2859L45.8219 26.2844Z" fill="black"/>
<path d="M76.2404 25.036C76.2404 23.5484 76.2404 22.0623 76.2404 20.5748C76.2404 20.3216 76.2403 20.3201 76.5011 20.3201C77.7249 20.3231 78.9472 20.3442 80.171 20.3246C81.7279 20.299 82.9713 21.5439 83.2215 22.7225C83.5395 24.2206 82.5131 26.3125 80.4649 26.4678C80.0791 26.4964 79.6887 26.4602 79.3014 26.4542C78.9879 26.4497 78.6744 26.4497 78.3609 26.4467C78.2569 26.4467 78.2117 26.4738 78.2132 26.5989C78.2223 27.5921 78.2177 28.5853 78.2238 29.5785C78.2238 29.7202 78.171 29.7639 78.0354 29.7624C77.5154 29.7579 76.9939 29.7549 76.474 29.7654C76.2931 29.7684 76.2358 29.7142 76.2373 29.5333C76.2464 28.7843 76.2419 28.0337 76.2419 27.2846C76.2419 26.5356 76.2419 25.785 76.2419 25.036H76.2404ZM78.2193 22.1287C78.2193 22.5401 78.2223 22.9335 78.2193 23.3253C78.2162 23.7247 78.2072 24.1241 78.1981 24.5235C78.1951 24.6396 78.2464 24.6758 78.3564 24.6758C78.9457 24.6697 79.5365 24.6833 80.1243 24.6592C81.012 24.6245 81.5817 23.6946 81.2245 22.8837C81.003 22.3804 80.6021 22.1287 80.0565 22.1166C79.4868 22.1045 78.9156 22.1106 78.3443 22.1106C78.3082 22.1106 78.272 22.1211 78.2193 22.1287Z" fill="black"/>
<path d="M147.149 8.78843C147.149 10.9437 147.149 13.0974 147.149 15.2526C147.149 15.5209 147.138 15.5164 146.876 15.5119C146.13 15.4998 145.384 15.4968 144.639 15.4938C144.356 15.4938 144.354 15.4983 144.354 15.221C144.354 11.23 144.354 7.23907 144.354 3.24962C144.354 2.91202 144.357 2.57441 144.347 2.23832C144.342 2.09212 144.4 2.05444 144.534 2.05444C145.336 2.06047 146.139 2.0665 146.941 2.06198C147.128 2.06198 147.152 2.14939 147.15 2.30463C147.147 4.4659 147.147 6.62566 147.149 8.78692V8.78843Z" fill="black"/>
<path d="M105.644 22.1905C105.644 21.6012 105.644 21.039 105.644 20.4783C105.644 20.3216 105.748 20.3201 105.861 20.3201C106.67 20.3216 107.479 20.3231 108.289 20.3231C109.757 20.3231 111.225 20.3231 112.691 20.3231C112.967 20.3231 112.968 20.3261 112.97 20.6064C112.97 21.0495 112.97 21.4941 112.97 21.9372C112.97 22.1889 112.967 22.1889 112.708 22.1889C111.962 22.1889 111.214 22.1935 110.468 22.1859C110.298 22.1844 110.26 22.2387 110.261 22.3999C110.274 24.6305 110.278 26.8596 110.286 29.0902C110.286 29.259 110.286 29.4278 110.295 29.5966C110.302 29.7262 110.271 29.7895 110.121 29.788C109.57 29.782 109.018 29.7865 108.466 29.7911C108.353 29.7911 108.304 29.7519 108.313 29.6373C108.317 29.5755 108.313 29.5122 108.313 29.4504C108.313 27.1264 108.313 24.8024 108.313 22.4783C108.313 22.1543 108.341 22.192 108.016 22.1905C107.307 22.1889 106.598 22.1905 105.889 22.1905C105.821 22.1905 105.754 22.1905 105.647 22.1905H105.644Z" fill="black"/>
<path d="M141.02 25.0842C141.02 23.5921 141.02 22.0985 141.02 20.6064C141.02 20.3638 141.026 20.3593 141.276 20.3593C141.778 20.3593 142.28 20.3653 142.78 20.3593C142.94 20.3563 143 20.4015 143 20.5703C142.988 22.8988 142.981 25.2289 142.973 27.5575C142.973 27.5951 142.976 27.6328 142.972 27.6705C142.946 27.8468 143.01 27.9071 143.198 27.9056C144.44 27.8981 145.68 27.9041 146.922 27.8981C147.088 27.8981 147.151 27.9343 147.147 28.1136C147.135 28.6125 147.139 29.1128 147.144 29.6117C147.144 29.7489 147.092 29.8001 146.955 29.8001C145.056 29.7941 143.156 29.7881 141.257 29.7881C141.07 29.7881 141.017 29.7398 141.019 29.5439C141.029 28.0578 141.025 26.5718 141.025 25.0857H141.019L141.02 25.0842Z" fill="black"/>
<path d="M95.5513 25.1178C95.5513 26.6174 95.5498 28.1171 95.5543 29.6167C95.5543 29.784 95.5031 29.8247 95.3373 29.8201C94.8173 29.8066 94.2959 29.8096 93.7759 29.8141C93.6417 29.8141 93.5905 29.7779 93.5905 29.6333C93.595 27.0651 93.5935 24.4984 93.5935 21.9302C93.5935 21.481 93.598 21.0304 93.589 20.5813C93.586 20.4366 93.6342 20.3733 93.7759 20.3748C94.3215 20.3808 94.8671 20.3838 95.4127 20.3989C95.4594 20.3989 95.5242 20.4758 95.5423 20.5285C95.5649 20.5963 95.5483 20.6762 95.5483 20.7516C95.5483 22.2075 95.5483 23.6634 95.5483 25.1193C95.5483 25.1193 95.5498 25.1193 95.5513 25.1193V25.1178Z" fill="black"/>
</svg>
