<svg width="168" height="16" viewBox="0 0 168 16" fill="none" xmlns="http://www.w3.org/2000/svg">
<g clip-path="url(#clip0_3_1329)">
<mask id="mask0_3_1329" style="mask-type:luminance" maskUnits="userSpaceOnUse" x="0" y="0" width="168" height="16">
<path d="M167.824 0.5H0.176758V15.4508H167.824V0.5Z" fill="white"/>
</mask>
<g mask="url(#mask0_3_1329)">
<path d="M33.4111 0.710938H44.0052V3.20287H36.2155V6.94038H42.9665V9.43231H36.2155V15.2466H33.4111V0.710938Z" fill="black"/>
<path d="M45.8022 0.710938H52.5531C55.025 0.710938 57.0192 2.3927 57.0192 4.65605C57.0192 6.5042 56.2091 7.72917 54.5474 8.33135C56.0637 8.33135 56.8116 9.01673 56.8116 10.3871V15.2462H54.0072V11.0931C54.0072 10.0341 53.6956 9.74333 52.657 9.74333H48.6061V15.2458H45.8018V0.710938H45.8022ZM51.7223 7.29337C53.3635 7.29337 54.2153 6.5458 54.2153 5.19602C54.2153 3.84626 53.3842 3.20248 51.7223 3.20248H48.6065V7.29337H51.7223Z" fill="black"/>
<path d="M68.6597 11.8201H62.5524L61.2438 15.2462H58.2939L64.0485 0.710938H67.3305L72.9392 15.2462H69.9687L68.6601 11.8201H68.6597ZM67.7042 9.32813L65.606 3.80466L63.4873 9.32813H67.7042Z" fill="black"/>
<path d="M90.4739 0.710938V15.2466H87.7321V3.80505L84.1177 15.2466H81.0435L77.3252 3.76384V15.2466H74.583V0.710938H78.9453L82.6014 12.1109L86.1326 0.710938H90.4739Z" fill="black"/>
<path d="M104.441 12.7546V15.2466H93.2236V0.710938H104.233V3.20287H96.028V6.54617H102.987V9.03773H96.028V12.7546H104.441Z" fill="black"/>
<path d="M124.587 0.710938L120.994 15.2462H117.359L115.157 4.67665L112.893 15.2462H109.258L105.685 0.710938H108.572L111.168 12.2146L113.454 0.710938H116.881L119.166 12.2353L121.68 0.710938H124.588H124.587Z" fill="black"/>
<path d="M141.669 0.710938H148.419C150.891 0.710938 152.886 2.3927 152.886 4.65605C152.886 6.5042 152.075 7.72917 150.414 8.33135C151.93 8.33135 152.678 9.01673 152.678 10.3871V15.2462H149.873V11.0931C149.873 10.0341 149.562 9.74331 148.524 9.74331H144.473V15.2458H141.669V0.710938ZM147.589 7.29337C149.23 7.29337 150.082 6.54579 150.082 5.19602C150.082 3.84626 149.25 3.20248 147.589 3.20248H144.473V7.29337H147.589Z" fill="black"/>
<path d="M159.97 8.85073L158.059 10.8649V15.2462H155.255V0.710938H158.059V7.23117L164.229 0.710938H167.697L161.965 6.73279L167.823 15.2462H164.354L159.971 8.85073H159.97Z" fill="black"/>
<path d="M139.969 7.97542C139.969 12.104 136.589 15.4508 132.42 15.4508C128.252 15.4508 124.872 12.104 124.872 7.97542C124.872 3.84681 128.252 0.5 132.42 0.5C136.589 0.5 139.969 3.84681 139.969 7.97542ZM132.42 2.948C129.809 2.948 127.692 5.1989 127.692 7.97542C127.692 10.7519 129.809 13.0028 132.42 13.0028C135.031 13.0028 137.148 10.7519 137.148 7.97542C137.148 5.1989 135.031 2.948 132.42 2.948Z" fill="black"/>
<path d="M9.26319 7.97874C9.26319 4.83837 11.6545 2.25663 14.716 1.95263V0.710938H8.05176V15.2466H14.7163V14.0049C11.6549 13.7009 9.26357 11.1191 9.26357 7.97874H9.26319Z" fill="black"/>
<path d="M1.38857 7.97874C1.38857 4.83837 3.77993 2.25663 6.84135 1.95263V0.710938H0.176758V15.2466H6.84135V14.0049C3.77993 13.7009 1.38857 11.1191 1.38857 7.97874Z" fill="black"/>
<path d="M23.8018 0.710938V1.95263C26.8631 2.25663 29.2546 4.83837 29.2546 7.97874C29.2546 11.1191 26.8631 13.7009 23.8018 14.0049V15.2466H30.4663V0.710938H23.8018Z" fill="black"/>
<path d="M15.9268 0.710938V1.95263C18.9881 2.25663 21.3796 4.83837 21.3796 7.97874C21.3796 11.1191 18.9881 13.7009 15.9268 14.0049V15.2466H22.5913V0.710938H15.9268Z" fill="black"/>
</g>
</g>
<defs>
<clipPath id="clip0_3_1329">
<rect width="167.647" height="15" fill="white" transform="translate(0.176758 0.5)"/>
</clipPath>
</defs>
</svg>
