<svg width="117" height="14" viewBox="0 0 117 14" fill="none" xmlns="http://www.w3.org/2000/svg">
<g clip-path="url(#clip0_3_1603)">
<path d="M10.1038 8.2831H6.94192V6.20546H12.2117C12.2185 6.28204 12.2299 6.36604 12.2299 6.45003C12.2299 8.17934 12.2322 9.90865 12.2254 11.638C12.2254 11.7516 12.1866 11.9072 12.1113 11.9715C9.79581 13.9454 7.22023 14.5654 4.43022 13.4439C2.17858 12.5397 0.962655 10.6325 0.634149 8.08794C0.358113 5.94853 0.821215 3.99441 2.14664 2.34663C3.50173 0.664258 5.25376 -0.044759 7.29095 0.0021794C8.88329 0.0417065 10.3273 0.525913 11.5684 1.63514C11.6368 1.6969 11.703 1.76113 11.7897 1.84513C11.322 2.45039 10.868 3.03588 10.4049 3.6362C10.2019 3.47068 10.0171 3.31504 9.82547 3.16435C8.81714 2.3738 7.68105 2.08723 6.45828 2.23052C4.81119 2.42074 3.43557 3.80172 3.02494 5.70396C2.66222 7.38139 2.89491 8.96 3.9443 10.3015C4.87735 11.4947 6.12978 11.8875 7.53733 11.7763C8.39966 11.7071 9.20039 11.4304 9.92356 10.9092C9.99884 10.8548 10.0969 10.7535 10.0969 10.6745C10.1106 9.88642 10.1038 9.09835 10.1038 8.2831Z" fill="black"/>
<path d="M25.0099 1.8667C24.5559 2.45219 24.1065 3.03522 23.6342 3.64295C23.5225 3.5466 23.4175 3.46013 23.3149 3.36873C22.359 2.52878 21.2571 2.1508 20.0367 2.19774C18.7454 2.24962 17.7325 2.88452 16.9774 4.00116C15.6931 5.90093 15.8414 8.75182 17.3105 10.4638C17.7668 10.995 18.3257 11.3705 18.969 11.5706C20.4359 12.0252 21.8183 11.7855 23.1232 10.9382C23.2943 10.827 23.3514 10.6961 23.3468 10.4836C23.3354 9.76224 23.3422 9.04334 23.3422 8.28244H20.1781V6.19739C20.2625 6.18997 20.3423 6.17762 20.4199 6.17762C22.0077 6.17762 23.5955 6.18256 25.1832 6.17268C25.4114 6.17268 25.4752 6.24432 25.473 6.4889C25.4638 8.19844 25.4707 9.90799 25.4616 11.6175C25.4616 11.7386 25.4159 11.9066 25.3361 11.9758C22.943 13.9966 20.299 14.5994 17.452 13.3444C15.3235 12.4056 14.1897 10.538 13.8703 8.09963C13.6125 6.12821 13.9821 4.29761 15.1113 2.69924C16.4687 0.789585 18.3074 -0.0404835 20.5089 0.00151402C22.1103 0.0336298 23.5635 0.520307 24.8114 1.64189C24.8616 1.68636 24.9095 1.73082 24.9574 1.77529C24.9711 1.78764 24.9779 1.80741 25.0121 1.86423L25.0099 1.8667Z" fill="black"/>
<path d="M26.1201 0.234243H27.8493C28.3193 0.234243 28.6379 0.465642 28.8052 0.928438C29.939 4.06096 31.0751 7.19348 32.2089 10.3235C32.2317 10.3878 32.2591 10.4471 32.3047 10.5558C32.5237 9.94802 32.729 9.38229 32.9343 8.81409C33.9313 6.04719 34.9327 3.28277 35.9228 0.513403C36.0049 0.283652 36.1053 0.221891 36.3198 0.226832C37.0019 0.241655 37.684 0.231773 38.4071 0.231773C38.2999 0.525756 38.2087 0.780211 38.1129 1.03467C36.5251 5.2023 34.9327 9.36994 33.3495 13.5425C33.2697 13.755 33.1739 13.8439 32.9526 13.834C32.4963 13.8118 32.0401 13.8143 31.5838 13.834C31.3671 13.8439 31.2644 13.7673 31.1823 13.5475C29.9481 10.2889 28.7048 7.0329 27.4638 3.77686C27.0577 2.70963 26.6517 1.6424 26.2456 0.575164C26.2091 0.476347 26.1749 0.377529 26.1247 0.234243H26.1201Z" fill="black"/>
<path d="M52.1201 13.7374C52.4532 12.9592 52.7612 12.2353 53.0691 11.5115C54.6364 7.84041 56.2082 4.16933 57.7663 0.493312C57.8872 0.206741 58.0332 0.132628 58.3138 0.112864C58.7153 0.0832187 58.8933 0.241327 59.0575 0.631657C60.8597 4.89317 62.6825 9.14233 64.4984 13.3964C64.5395 13.4928 64.5737 13.5916 64.6284 13.7349C64.2999 13.7349 64.0011 13.7497 63.7068 13.7225C63.6338 13.7151 63.5471 13.5817 63.5083 13.4878C63.0429 12.3959 62.5798 11.299 62.1281 10.1997C62.0551 10.0218 61.973 9.95017 61.7859 9.95017C59.4978 9.95758 57.2074 9.95758 54.9193 9.95017C54.7504 9.95017 54.6615 10.0045 54.5908 10.1774C54.1345 11.2867 53.6623 12.386 53.2083 13.4953C53.133 13.6756 53.0463 13.7547 52.8615 13.7398C52.6357 13.7225 52.4076 13.7349 52.1224 13.7349L52.1201 13.7374ZM61.6148 9.01881C60.529 6.42979 59.4567 3.87288 58.3617 1.26409C57.2599 3.88029 56.1808 6.43473 55.0926 9.01881H61.6148Z" fill="black"/>
<path d="M92.8701 13.7447C93.3538 12.6108 93.81 11.5361 94.2685 10.4615C95.6989 7.11156 97.1338 3.76164 98.5574 0.406774C98.6486 0.189375 98.765 0.154789 98.968 0.122673C99.4448 0.0510307 99.6547 0.2709 99.8486 0.732873C101.633 4.96227 103.442 9.17685 105.244 13.3964C105.285 13.4927 105.321 13.5915 105.381 13.7398C105.052 13.7398 104.753 13.7546 104.459 13.7299C104.386 13.7225 104.299 13.5915 104.258 13.4976C103.797 12.4131 103.337 11.3286 102.892 10.2342C102.803 10.0168 102.693 9.95751 102.481 9.95751C100.227 9.96492 97.9734 9.96492 95.7194 9.95751C95.5073 9.95751 95.4001 10.0217 95.3134 10.2391C94.8731 11.3237 94.41 12.3958 93.9674 13.4804C93.8853 13.6829 93.7826 13.7669 93.5773 13.7472C93.3629 13.7274 93.1439 13.7422 92.8701 13.7422V13.7447ZM99.1117 1.27143C98.0053 3.89504 96.9308 6.44701 95.8449 9.02121H102.363C101.279 6.4396 100.211 3.89257 99.1117 1.27143Z" fill="black"/>
<path d="M67.2686 0.271542C67.321 0.25672 67.3461 0.244368 67.3712 0.244368C69.0229 0.246838 70.6722 0.229545 72.3239 0.264131C73.1725 0.281424 73.987 0.523528 74.7192 1.0102C75.9831 1.84768 76.4895 3.10761 76.4097 4.67387C76.3344 6.18578 75.6409 7.27772 74.4295 7.99168C73.6037 8.47835 72.7071 8.69081 71.7718 8.70069C70.7042 8.71305 69.6365 8.70316 68.5712 8.70316C68.4639 8.70316 68.3544 8.70316 68.2084 8.70316V13.7256H67.2708V0.271542H67.2686ZM68.2198 1.2029V7.74957C68.2928 7.75698 68.3476 7.76934 68.4001 7.76934C69.5407 7.76934 70.6814 7.78169 71.822 7.7644C72.5589 7.75204 73.2683 7.57911 73.9299 7.20361C75.9831 6.04003 75.7983 3.22866 74.5915 2.1392C73.8706 1.487 73.0174 1.22266 72.1072 1.19796C70.8684 1.16337 69.6274 1.18067 68.3864 1.17572C68.3339 1.17572 68.2814 1.19302 68.2198 1.2029Z" fill="black"/>
<path d="M50.0719 10.9634C50.2544 11.1783 50.4392 11.3932 50.6239 11.6106C48.9312 13.6981 46.3967 14.4417 43.9215 13.6907C41.6607 13.0064 39.5665 10.7237 39.5118 7.09217C39.4639 4.01153 41.095 1.43238 43.5268 0.434325C45.9564 -0.563734 49.1046 0.214456 50.5806 2.19328C50.3479 2.4008 50.1106 2.61079 49.8825 2.81336C49.5129 2.51197 49.1069 2.12411 48.6529 1.81777C45.3792 -0.405625 41.2091 1.6399 40.5863 5.77048C40.2692 7.87036 40.6866 9.77013 42.0554 11.3389C43.8029 13.3424 46.6864 13.629 48.8172 12.0405C49.2438 11.7218 49.6316 11.3438 50.0719 10.9634Z" fill="black"/>
<path d="M92.7569 1.16533H88.4019V13.7177H87.462V1.17027H83.1436V0.251267C83.2439 0.246326 83.3397 0.233974 83.4356 0.233974C86.4377 0.233974 89.4376 0.236444 92.4398 0.226562C92.7113 0.226562 92.7934 0.317969 92.7638 0.594658C92.7455 0.77006 92.7592 0.947932 92.7592 1.16286L92.7569 1.16533Z" fill="black"/>
<path d="M108.011 0.25H108.935V12.7751H116.239V13.7164H108.011V0.25Z" fill="black"/>
<path d="M80.1821 13.7255H79.292V0.234375H80.1821V13.7255Z" fill="black"/>
</g>
<defs>
<clipPath id="clip0_3_1603">
<rect width="115.684" height="14" fill="white" transform="translate(0.557617)"/>
</clipPath>
</defs>
</svg>
