<svg width="111" height="28" viewBox="0 0 111 28" fill="none" xmlns="http://www.w3.org/2000/svg">
<g clip-path="url(#clip0_3_1516)">
<path d="M3.09812 26.757C3.72251 23.9771 4.32362 21.3053 4.94116 18.5614H0.859375C1.06476 17.634 1.23318 16.7824 1.46048 15.9436C1.49198 15.8292 1.81512 15.7211 2.00545 15.7185C3.18713 15.6979 4.37017 15.7082 5.59019 15.7082C5.93661 14.1762 6.27208 12.7007 6.62398 11.1429H2.53262C2.75718 10.1511 2.96394 9.2416 3.1748 8.3064H7.26206C7.82346 5.84427 8.37938 3.40915 8.93667 0.966309H13.0253C12.4762 3.40915 11.9354 5.81983 11.3767 8.30769C12.8802 8.30769 14.3138 8.32312 15.7447 8.28453C15.898 8.28067 16.1308 7.9758 16.1774 7.77898C16.71 5.52524 17.2153 3.26636 17.7328 0.980459H21.8269C21.2806 3.41043 20.7411 5.81211 20.1852 8.28325H24.267C24.0643 9.20944 23.8973 10.0597 23.6727 10.8959C23.6412 11.0117 23.3235 11.1236 23.1373 11.1274C21.9543 11.148 20.7712 11.1377 19.5375 11.1377C19.1911 12.6608 18.857 14.1363 18.5037 15.6915H22.5924C22.3911 16.6036 22.2309 17.4384 22.0036 18.2553C21.9666 18.3878 21.6339 18.5228 21.4353 18.528C20.2742 18.5537 19.1117 18.5408 17.8657 18.5408C17.2454 21.2641 16.6278 23.9732 16.0035 26.7171H11.9121C12.5241 23.9977 13.1266 21.3259 13.7414 18.5949H9.04895C8.64639 20.3662 8.24383 22.1427 7.83989 23.9179C7.65915 24.7129 7.49621 25.5117 7.28123 26.299C7.23331 26.474 7.00875 26.7325 6.85813 26.7364C5.65317 26.7724 4.44685 26.757 3.10086 26.757H3.09812ZM10.7263 11.166C10.3895 12.6621 10.054 14.1504 9.70894 15.6825H14.4014C14.7369 14.1852 15.071 12.6994 15.4147 11.166H10.7263Z" fill="black"/>
<path d="M94.4232 26.6632C94.7259 25.3087 95.0271 23.9528 95.3324 22.5995C96.3635 18.0406 97.4055 13.4829 98.4174 8.92015C98.5201 8.45834 98.6762 8.28339 99.2033 8.29497C101.619 8.34642 104.041 8.26924 106.45 8.4056C109.02 8.55225 110.411 9.90295 110.338 12.3239C110.281 14.2766 109.901 16.2281 109.556 18.1641C109.213 20.0898 108.644 21.9653 107.476 23.6222C106.174 25.4694 104.35 26.5744 101.988 26.6774C99.5539 26.7828 97.1111 26.734 94.6725 26.7494C94.6108 26.7494 94.5492 26.7095 94.4219 26.6645L94.4232 26.6632ZM99.139 23.9232C99.6237 23.9232 100.01 23.9232 100.395 23.9232C102.766 23.9219 103.674 23.4087 104.438 21.3106C104.989 19.7978 105.397 18.2284 105.721 16.6577C105.983 15.3868 106.12 14.076 106.13 12.7806C106.139 11.7811 105.506 11.2807 104.441 11.179C103.83 11.1211 103.208 11.1739 102.595 11.1327C102.124 11.1006 101.976 11.2974 101.891 11.7C101.574 13.2115 101.218 14.7153 100.877 16.2229C100.304 18.752 99.7333 21.281 99.1376 23.9232H99.139Z" fill="black"/>
<path d="M66.7734 26.7575C67.0993 25.2859 67.3937 23.9288 67.7004 22.5729C68.7329 18.0127 69.7776 13.4538 70.795 8.88969C70.8922 8.45232 71.0455 8.27994 71.5426 8.29538C72.6763 8.33011 73.8115 8.30696 75.0342 8.30696C74.4769 10.7897 73.9374 13.1875 73.3719 15.7062C73.8388 15.7062 74.2346 15.7062 74.6317 15.7062C75.5436 15.7062 76.4596 15.6586 77.3674 15.7217C77.9836 15.7641 78.126 15.5055 78.2315 15.0219C78.7134 12.8016 79.2283 10.5877 79.739 8.34298H83.8372C82.4474 14.4842 81.0658 20.5868 79.6774 26.7202H75.5847C76.1954 24.0085 76.7978 21.3251 77.4236 18.5466C75.8969 18.5466 74.4249 18.5337 72.9543 18.5697C72.8324 18.5723 72.6572 18.899 72.6106 19.0958C72.0533 21.4769 71.5029 23.8593 70.9867 26.2481C70.899 26.6546 70.732 26.7717 70.3157 26.764C69.1792 26.7421 68.0414 26.7562 66.7748 26.7562L66.7734 26.7575Z" fill="black"/>
<path d="M22.5625 26.7493C23.9646 20.5567 25.3448 14.4541 26.7305 8.3335H30.826C30.2769 10.7789 29.7347 13.1922 29.1719 15.6993C30.6891 15.6993 32.1391 15.7135 33.5878 15.6774C33.7248 15.6736 33.9288 15.3764 33.974 15.1886C34.482 13.0378 34.9639 10.8818 35.4541 8.72713C35.4815 8.60492 35.5199 8.484 35.5609 8.33736H39.6318C38.2406 14.4901 36.8576 20.6056 35.4733 26.7288H31.3778C31.9913 24.0003 32.5951 21.3118 33.2113 18.5744H28.5174C28.1039 20.3985 27.6918 22.2148 27.2796 24.0312C27.103 24.8056 26.9373 25.5826 26.736 26.3506C26.6963 26.4998 26.521 26.73 26.4047 26.7326C25.1586 26.7609 23.9099 26.7493 22.5625 26.7493Z" fill="black"/>
<path d="M47.4285 13.6827C47.2382 14.012 47.1163 14.2062 47.0109 14.4082C44.9556 18.3484 42.8949 22.2847 40.8629 26.2339C40.6465 26.6545 40.396 26.7793 39.9277 26.7677C38.8172 26.7394 37.704 26.7587 36.4922 26.7587C36.6141 26.4847 36.6866 26.2918 36.7811 26.1091C39.7647 20.3808 42.7579 14.6577 45.721 8.92047C45.9689 8.44065 46.2509 8.28114 46.8014 8.29529C48.1693 8.33259 49.5386 8.3223 50.9064 8.29915C51.3515 8.29143 51.487 8.43293 51.5117 8.84457C51.8581 14.5986 52.2223 20.3513 52.5811 26.1052C52.5934 26.2956 52.5824 26.486 52.5824 26.7536C51.2406 26.7536 49.9233 26.7677 48.6075 26.7317C48.4828 26.7278 48.2734 26.4243 48.261 26.2493C48.0953 23.8978 47.9584 21.545 47.816 19.1922C47.7147 17.5238 47.6161 15.8554 47.512 14.1869C47.5052 14.0673 47.4723 13.9502 47.4258 13.6827H47.4285Z" fill="black"/>
<path d="M53.5412 21.0832H57.6777C57.6216 21.4614 57.5641 21.7958 57.523 22.1316C57.3039 23.9042 58.2679 24.6619 60.0958 24.1975C61.5404 23.8309 62.666 21.6029 61.2542 20.4194C60.545 19.8238 59.7275 19.3427 58.9922 18.7728C58.083 18.0692 57.1341 17.39 56.3413 16.5808C55.5691 15.791 55.3911 14.7503 55.5622 13.6839C56.1263 10.1772 58.4445 8.23736 62.3716 8.04698C63.2986 8.00195 64.2488 8.03797 65.1621 8.18462C67.1859 8.51008 68.1471 9.66782 68.0732 11.609C68.0485 12.2406 67.8911 12.867 67.7856 13.5501C67.0517 13.5501 66.3958 13.5501 65.7386 13.5501C65.0813 13.5501 64.4693 13.5501 63.8668 13.5501C63.8668 12.9507 63.8997 12.4014 63.8586 11.8572C63.8093 11.214 63.3903 10.8667 62.7125 10.7805C61.6623 10.6468 60.623 11.1574 60.1588 12.0412C59.6344 13.0394 59.7385 13.9309 60.6203 14.6654C61.2803 15.2147 62.0649 15.6289 62.7823 16.1177C63.519 16.6194 64.294 17.0838 64.9567 17.6627C66.007 18.5786 66.4177 19.7582 66.2219 21.1025C65.6742 24.8484 63.3492 26.8256 59.162 27.0147C58.1036 27.0623 57.0109 27.0005 55.9757 26.7998C54.0629 26.4294 53.1345 25.2626 53.2071 23.4424C53.2386 22.659 53.422 21.8807 53.5398 21.0819L53.5412 21.0832Z" fill="black"/>
<path d="M96.9274 8.30758C96.7261 9.21834 96.5646 10.0532 96.3359 10.8726C96.3003 11.0013 95.9566 11.1273 95.7539 11.1299C93.952 11.1492 92.15 11.1595 90.3481 11.1299C89.8291 11.1209 89.6415 11.274 89.5512 11.7512C89.3403 12.8665 89.0528 13.9689 88.8036 15.0791C88.7625 15.2605 88.7556 15.4496 88.7241 15.7043H94.7434C94.5216 16.6922 94.3162 17.5991 94.104 18.5407C92.2705 18.5407 90.4932 18.56 88.7173 18.5292C88.1874 18.5202 87.971 18.6501 87.8697 19.1659C87.563 20.7186 87.1837 22.2584 86.8099 23.905H93.6193C93.3974 24.9045 93.1989 25.7934 92.9935 26.717H82.0859C82.3105 25.6969 82.5241 24.7025 82.7473 23.7094C83.8482 18.834 84.9669 13.9625 86.0349 9.0807C86.1773 8.43365 86.458 8.287 87.1125 8.29472C90.077 8.32688 93.0428 8.30887 96.0086 8.30887C96.2784 8.30887 96.5481 8.30887 96.9274 8.30887V8.30758Z" fill="black"/>
</g>
<defs>
<clipPath id="clip0_3_1516">
<rect width="109.482" height="26.0672" fill="white" transform="translate(0.859375 0.966309)"/>
</clipPath>
</defs>
</svg>
