<svg width="101" height="36" viewBox="0 0 101 36" fill="none" xmlns="http://www.w3.org/2000/svg">
<path opacity="0.972" fill-rule="evenodd" clip-rule="evenodd" d="M37.676 0.748779C38.2003 0.748779 38.7244 0.748779 39.2487 0.748779C41.1508 0.93614 42.847 1.65901 44.3369 2.9174C43.7379 3.86149 43.1056 4.77713 42.4404 5.66431C41.2073 4.74867 39.835 4.20249 38.3236 4.0258C37.4759 3.99306 36.8437 4.34646 36.4271 5.08602C36.2557 5.86946 36.5178 6.4317 37.2134 6.77272C38.6839 7.28428 40.1641 7.7662 41.654 8.21846C44.5462 9.50782 45.4559 11.7086 44.3831 14.8207C43.7387 16.1931 42.7056 17.0766 41.284 17.4712C38.5312 18.1377 35.9408 17.72 33.5129 16.2183C33.0385 15.9005 32.6069 15.531 32.2178 15.1099C32.8683 14.2037 33.5622 13.3362 34.2993 12.5075C35.6562 13.7118 37.2289 14.3865 39.0174 14.5316C39.5855 14.4946 40.1253 14.3501 40.6364 14.0978C41.3582 13.4311 41.4198 12.7243 40.8214 11.9774C40.4772 11.7338 40.1071 11.5411 39.7113 11.3991C38.7327 11.08 37.7459 10.7908 36.7509 10.5317C33.2381 9.49352 32.0817 7.16426 33.2817 3.54389C33.8372 2.48332 34.6544 1.72832 35.7332 1.27889C36.3753 1.03336 37.0229 0.856658 37.676 0.748779Z" fill="black"/>
<path opacity="0.977" fill-rule="evenodd" clip-rule="evenodd" d="M21.9555 0.846144C23.0885 0.815126 24.2141 0.847254 25.3322 0.942527C27.568 6.43636 29.8036 11.9302 32.0394 17.424C30.807 17.5364 29.5735 17.5525 28.3389 17.4722C27.8306 16.2848 27.3681 15.08 26.9512 13.8579C24.7301 13.8258 22.5098 13.8579 20.2903 13.9542C19.8278 15.1108 19.3652 16.2674 18.9026 17.424C17.6703 17.5364 16.4368 17.5525 15.2021 17.4722C17.4925 11.9452 19.7436 6.40322 21.9555 0.846144ZM23.5282 5.56891C23.6933 5.67241 23.8012 5.83304 23.852 6.05083C24.4506 7.55283 25.0211 9.06283 25.5635 10.5808C24.2372 10.5969 22.9111 10.5808 21.5855 10.5326C22.2462 8.88294 22.8938 7.22836 23.5282 5.56891Z" fill="black"/>
<path opacity="0.971" fill-rule="evenodd" clip-rule="evenodd" d="M0.303711 1.03784C1.50637 1.03784 2.70903 1.03784 3.91169 1.03784C3.91169 3.19039 3.91169 5.34295 3.91169 7.49551C6.00863 7.49551 8.10557 7.49551 10.2025 7.49551C10.2025 5.34295 10.2025 3.19039 10.2025 1.03784C11.4052 1.03784 12.6078 1.03784 13.8105 1.03784C13.8105 6.53168 13.8105 12.0255 13.8105 17.5193C12.6078 17.5193 11.4052 17.5193 10.2025 17.5193C10.2025 15.3346 10.2025 13.15 10.2025 10.9653C8.10557 10.9653 6.00863 10.9653 3.91169 10.9653C3.91169 13.15 3.91169 15.3346 3.91169 17.5193C2.70903 17.5193 1.50637 17.5193 0.303711 17.5193C0.303711 12.0255 0.303711 6.53168 0.303711 1.03784Z" fill="black"/>
<path opacity="0.984" fill-rule="evenodd" clip-rule="evenodd" d="M46.749 1.03784C47.9209 1.03784 49.0926 1.03784 50.2645 1.03784C50.2645 3.19039 50.2645 5.34295 50.2645 7.49551C52.3615 7.49551 54.4583 7.49551 56.5553 7.49551C56.5553 5.34295 56.5553 3.19039 56.5553 1.03784C57.758 1.03784 58.9606 1.03784 60.1633 1.03784C60.1633 6.53168 60.1633 12.0255 60.1633 17.5193C58.9606 17.5193 57.758 17.5193 56.5553 17.5193C56.5553 15.3346 56.5553 13.15 56.5553 10.9653C54.4583 10.9653 52.3615 10.9653 50.2645 10.9653C50.2645 13.15 50.2645 15.3346 50.2645 17.5193C49.0926 17.5193 47.9209 17.5193 46.749 17.5193C46.749 12.0255 46.749 6.53168 46.749 1.03784Z" fill="black"/>
<path opacity="0.975" fill-rule="evenodd" clip-rule="evenodd" d="M65.8018 1.03605C67.4981 1.01999 69.1943 1.03606 70.89 1.08424C68.4371 3.65579 65.9702 6.20994 63.489 8.74669C62.6256 7.91137 61.793 7.04392 60.9912 6.14435C62.5968 4.43958 64.2003 2.73682 65.8018 1.03605Z" fill="black"/>
<path opacity="0.987" fill-rule="evenodd" clip-rule="evenodd" d="M72.0928 1.03784C76.1016 1.03784 80.1105 1.03784 84.1194 1.03784C84.1194 2.13018 84.1194 3.22253 84.1194 4.31487C81.2823 4.31487 78.4453 4.31487 75.6082 4.31487C75.6082 5.4072 75.6082 6.49955 75.6082 7.59189C78.1061 7.59189 80.6039 7.59189 83.1017 7.59189C83.1017 8.68423 83.1017 9.77657 83.1017 10.8689C80.6039 10.8689 78.1061 10.8689 75.6082 10.8689C75.6082 11.9934 75.6082 13.1178 75.6082 14.2423C78.4761 14.2423 81.344 14.2423 84.2119 14.2423C84.2119 15.3346 84.2119 16.427 84.2119 17.5193C80.1721 17.5193 76.1325 17.5193 72.0928 17.5193C72.0928 12.0255 72.0928 6.53168 72.0928 1.03784Z" fill="black"/>
<path opacity="0.979" fill-rule="evenodd" clip-rule="evenodd" d="M100.406 1.03605C100.406 1.06818 100.406 1.1003 100.406 1.13243C98.365 4.38685 96.3454 7.66388 94.3462 10.9635C94.3 13.1479 94.2843 15.3326 94.3 17.5175C93.1278 17.5175 91.9564 17.5175 90.7845 17.5175C90.8 15.3647 90.7845 13.2122 90.7383 11.0599C88.7184 7.73467 86.6985 4.40946 84.6787 1.08424C86.0664 1.01998 87.4541 1.01998 88.8418 1.08424C90.1023 3.21271 91.3512 5.34919 92.5885 7.49371C93.8254 5.34919 95.0743 3.21271 96.3352 1.08424C97.6915 1.03606 99.0486 1.01999 100.406 1.03605Z" fill="black"/>
<path opacity="0.978" fill-rule="evenodd" clip-rule="evenodd" d="M63.3965 9.90503C65.9019 12.3706 68.369 14.8927 70.7975 17.4711C69.1323 17.5354 67.4671 17.5354 65.8018 17.4711C64.1983 15.8005 62.5947 14.1298 60.9912 12.4592C61.8117 11.6205 62.6135 10.7691 63.3965 9.90503Z" fill="black"/>
<path opacity="0.921" fill-rule="evenodd" clip-rule="evenodd" d="M75.7959 23.5925C76.5055 23.5925 77.2151 23.5925 77.9247 23.5925C77.9247 24.2029 77.9247 24.8134 77.9247 25.4238C77.2151 25.4238 76.5055 25.4238 75.7959 25.4238C75.7959 24.8134 75.7959 24.2029 75.7959 23.5925Z" fill="black"/>
<path opacity="0.92" fill-rule="evenodd" clip-rule="evenodd" d="M90.5068 23.5925C91.1855 23.5925 91.8644 23.5925 92.5431 23.5925C92.5431 26.7732 92.5431 29.9538 92.5431 33.1345C91.8644 33.1345 91.1855 33.1345 90.5068 33.1345C90.5068 29.9538 90.5068 26.7732 90.5068 23.5925Z" fill="black"/>
<path opacity="0.95" fill-rule="evenodd" clip-rule="evenodd" d="M55.8101 23.8773C57.0769 23.7205 58.2796 23.9294 59.4181 24.5038C59.7251 24.7273 60.0026 24.9843 60.2507 25.2749C59.8886 25.8193 59.4723 26.3173 59.0018 26.7688C58.5595 26.3534 58.0507 26.0482 57.4753 25.8532C55.5375 25.6228 54.489 26.5225 54.3299 28.5519C54.489 30.5814 55.5375 31.481 57.4753 31.2506C58.0858 31.0314 58.6255 30.694 59.0943 30.2386C59.4952 30.6562 59.8961 31.074 60.297 31.4916C60.3587 31.5559 60.3587 31.6201 60.297 31.6844C59.0715 33.0308 57.5759 33.5288 55.8101 33.1783C53.536 32.5558 52.3333 31.0136 52.2021 28.5519C52.3777 26.1065 53.5804 24.5483 55.8101 23.8773Z" fill="black"/>
<path opacity="0.964" fill-rule="evenodd" clip-rule="evenodd" d="M46.747 24.3582C48.1459 25.6388 49.472 27.0043 50.725 28.4544C49.4491 29.8801 48.1386 31.2777 46.7933 32.6471C46.747 29.8843 46.7316 27.1214 46.747 24.3582Z" fill="black"/>
<path opacity="0.964" fill-rule="evenodd" clip-rule="evenodd" d="M79.3094 24.3582C79.957 24.3582 80.6046 24.3582 81.2522 24.3582C81.2522 24.9365 81.2522 25.5148 81.2522 26.093C81.7765 26.093 82.3006 26.093 82.8249 26.093C82.8249 26.6713 82.8249 27.2496 82.8249 27.8279C82.3006 27.8279 81.7765 27.8279 81.2522 27.8279C81.2119 28.9598 81.2581 30.0843 81.391 31.2014C81.8665 31.4614 82.329 31.4293 82.7786 31.105C82.8535 31.7073 82.838 32.3017 82.7324 32.8881C81.8048 33.3332 80.8796 33.3332 79.957 32.8881C79.7159 32.7013 79.5464 32.4603 79.4482 32.1652C79.3155 30.725 79.2693 29.2793 79.3094 27.8279C79.0627 27.8279 78.8161 27.8279 78.5693 27.8279C78.5693 27.2496 78.5693 26.6713 78.5693 26.093C78.8161 26.093 79.0627 26.093 79.3094 26.093C79.3094 25.5148 79.3094 24.9365 79.3094 24.3582Z" fill="black"/>
<path opacity="0.945" fill-rule="evenodd" clip-rule="evenodd" d="M63.3961 25.9993C64.6253 25.8486 65.6584 26.2341 66.4952 27.1559C66.6926 27.5156 66.8159 27.9011 66.8653 28.3125C66.9115 29.9185 66.927 31.5249 66.9115 33.1317C66.264 33.1317 65.6164 33.1317 64.9688 33.1317C64.9838 32.9363 64.9683 32.7435 64.9225 32.5534C63.9728 33.2701 62.9397 33.4146 61.8234 32.9871C60.7525 32.2382 60.4596 31.2262 60.9445 29.951C61.5812 29.0917 62.4291 28.7061 63.4886 28.7944C64.0211 28.7737 64.5299 28.8701 65.015 29.0836C65.0434 28.4857 64.7813 28.0842 64.2287 27.8788C63.3937 27.7514 62.5919 27.8638 61.8234 28.2161C61.6105 27.6954 61.4255 27.1653 61.2683 26.6258C61.9604 26.3094 62.6697 26.1005 63.3961 25.9993ZM63.5811 30.0474C64.081 30.0391 64.5591 30.1355 65.015 30.3365C65.0651 31.2967 64.618 31.7786 63.6736 31.7823C62.8455 31.7419 62.5526 31.3242 62.7948 30.5293C63.0166 30.2779 63.2787 30.1173 63.5811 30.0474Z" fill="black"/>
<path opacity="0.959" fill-rule="evenodd" clip-rule="evenodd" d="M69.9652 35.159C69.3176 35.159 68.67 35.159 68.0225 35.159C68.0225 32.139 68.0225 29.119 68.0225 26.099C68.67 26.099 69.3176 26.099 69.9652 26.099C69.95 26.3899 69.9654 26.679 70.0115 26.9664C70.6961 26.1082 71.5749 25.803 72.6481 26.0508C74.272 26.6208 75.0738 27.8096 75.0534 29.617C74.9678 32.1162 73.7343 33.3049 71.3529 33.1831C70.8139 33.0711 70.3668 32.7979 70.0115 32.3639C69.9652 33.295 69.9499 34.2268 69.9652 35.159ZM71.1679 27.7375C72.3603 27.7426 73.0079 28.3691 73.1106 29.617C72.8788 31.2459 72.0462 31.76 70.6128 31.1591C69.9706 30.4884 69.8009 29.7012 70.104 28.7977C70.3294 28.2894 70.6841 27.9361 71.1679 27.7375Z" fill="black"/>
<path opacity="0.948" fill-rule="evenodd" clip-rule="evenodd" d="M85.8774 26.0019C86.8881 25.9108 87.8132 26.1518 88.6527 26.7248C89.0194 27.1515 89.2506 27.6495 89.3466 28.2187C89.3928 29.8569 89.4083 31.4954 89.3928 33.1342C88.7761 33.1342 88.1594 33.1342 87.5426 33.1342C87.5577 32.9071 87.5423 32.6822 87.4963 32.4596C86.5421 33.2739 85.4782 33.4506 84.3047 32.9897C83.0957 32.047 82.8953 30.9064 83.7033 29.5681C84.354 28.9941 85.1094 28.7371 85.9699 28.797C86.5024 28.7763 87.0112 28.8727 87.4963 29.0862C87.5229 28.4836 87.2608 28.0819 86.71 27.8814C85.8882 27.7518 85.1018 27.8643 84.3509 28.2187C84.0832 27.7035 83.929 27.1574 83.8884 26.5802C84.5348 26.2876 85.1978 26.0948 85.8774 26.0019ZM86.0624 30.05C86.5667 30.0171 87.0447 30.1135 87.4963 30.3391C87.548 31.2978 87.1009 31.7797 86.1549 31.7849C85.3319 31.7488 85.0389 31.3312 85.276 30.5319C85.4979 30.2805 85.76 30.1199 86.0624 30.05Z" fill="black"/>
<path opacity="0.971" fill-rule="evenodd" clip-rule="evenodd" d="M75.8896 26.0925C76.5375 26.0925 77.1854 26.0925 77.8333 26.0925C77.8333 28.4378 77.8333 30.7832 77.8333 33.1285C77.1854 33.1285 76.5375 33.1285 75.8896 33.1285C75.8896 30.7832 75.8896 28.4378 75.8896 26.0925Z" fill="black"/>
</svg>
