<svg width="97" height="34" viewBox="0 0 97 34" fill="none" xmlns="http://www.w3.org/2000/svg">
<g clip-path="url(#clip0_3_1386)">
<path d="M77.0932 33.4989C76.7717 33.4453 76.4412 33.4141 76.1285 33.3292C75.798 33.2354 75.481 33.0925 75.1639 32.9541C75.0969 32.9228 75.0165 32.829 75.0165 32.762C75.0031 32.3735 75.0075 31.9849 75.0075 31.5428C75.1103 31.6098 75.1773 31.65 75.2353 31.6946C76.0928 32.3422 77.062 32.503 78.0981 32.3288C78.4509 32.2663 78.7591 32.1055 78.8707 31.7169C78.9824 31.3418 78.8707 31.0158 78.5 30.8818C78.1383 30.7478 77.7453 30.6942 77.3612 30.6094C77.0039 30.5334 76.6421 30.4888 76.2893 30.395C75.5703 30.1985 75.0969 29.7653 75.0209 28.9882C74.945 28.1843 75.1728 27.5054 75.8829 27.0499C76.4233 26.706 77.0307 26.6167 77.6515 26.6256C78.2857 26.6345 78.9109 26.7238 79.4915 27.0097C79.6523 27.0901 79.7327 27.1839 79.7237 27.3804C79.7059 27.7243 79.7193 28.0681 79.7193 28.4612C79.563 28.345 79.4602 28.2513 79.3441 28.1798C78.6206 27.7332 77.8301 27.6126 77.0084 27.7868C76.8163 27.827 76.6198 27.9342 76.4724 28.0637C76.0526 28.4299 76.1509 29.0328 76.6734 29.2204C77.0039 29.341 77.3656 29.3678 77.714 29.4437C78.116 29.5286 78.5224 29.5777 78.9109 29.7027C79.7282 29.9573 80.1034 30.5513 80.1123 31.3954C80.1212 32.1993 79.8041 32.8201 79.0628 33.1684C78.7635 33.3069 78.4197 33.3605 78.0936 33.4498C78.0088 33.4721 77.9239 33.49 77.8435 33.5079H77.0932V33.4989Z" fill="black"/>
<path d="M93.3039 18.2514V18.5551H85.2604V18.2514H87.4801V1.40079C87.163 1.40079 86.8548 1.37399 86.5467 1.40526C85.9795 1.46332 85.4034 1.49905 84.8585 1.64196C83.8268 1.90993 83.1256 2.61557 82.6701 3.54898C82.3798 4.13851 82.161 4.7593 81.9332 5.38008C81.8617 5.57659 81.7769 5.63912 81.558 5.57213V1.42312H79.5126V18.2469H81.7813V18.5506H73.5727V18.2603H75.2028C75.6434 18.2603 75.8638 18.043 75.8638 17.6083V9.85065C75.7521 9.84172 75.6583 9.83278 75.569 9.83278C73.336 9.83278 71.1074 9.83278 68.8743 9.82832C68.6376 9.82832 68.5751 9.89531 68.5751 10.1275C68.584 12.7402 68.584 15.3529 68.5751 17.9655C68.5751 18.1978 68.6376 18.2737 68.8743 18.2692C69.4371 18.2514 69.9998 18.2648 70.5625 18.2648C70.6608 18.2648 70.7546 18.2648 70.8662 18.2648V18.5595H62.6575V18.2692H64.9397C64.9486 18.1531 64.9576 18.0593 64.9576 17.9655C64.9576 12.5437 64.9576 7.12186 64.962 1.70002C64.962 1.45885 64.8861 1.39632 64.6583 1.40079C63.9973 1.41419 63.3408 1.40526 62.662 1.40526C62.653 1.29807 62.6486 1.21321 62.6396 1.11049H70.8573V1.40526C70.3169 1.40526 69.7854 1.40526 69.2495 1.40526C68.8029 1.40526 68.5796 1.63154 68.5796 2.0841C68.5796 4.42881 68.5796 6.77351 68.5796 9.11821V9.4755H75.8682V9.18073C75.8682 6.69312 75.8682 4.2055 75.8727 1.71788C75.8727 1.47671 75.8146 1.39186 75.5601 1.40079C74.9973 1.41866 74.4346 1.40526 73.8719 1.40526C73.7781 1.40526 73.6798 1.40526 73.5682 1.40526V1.10156H96.9884V5.56766C96.7964 5.64805 96.7115 5.58999 96.6401 5.38902C96.4168 4.78163 96.1934 4.16531 95.9121 3.58471C95.26 2.23595 94.148 1.54817 92.6652 1.44545C92.2052 1.41419 91.7407 1.41866 91.2763 1.40079C91.12 1.39632 91.0396 1.44992 91.0574 1.61516C91.0619 1.66876 91.0574 1.72235 91.0574 1.77594C91.0574 7.14419 91.0574 12.5124 91.0574 17.8807C91.0574 18.1248 91.1765 18.2484 91.4147 18.2514C91.9417 18.2514 92.4687 18.2514 92.9957 18.2514C93.0895 18.2514 93.1878 18.2514 93.2994 18.2514H93.3039Z" fill="black"/>
<path d="M9.76278 18.2547H11.969V18.545H0.634075V18.2547C1.23253 18.2547 1.82652 18.2547 2.42498 18.2547C2.75249 18.2547 2.91625 18.0895 2.91625 17.759C2.91625 12.4265 2.91625 7.09396 2.91625 1.76144C2.91625 1.52027 2.79567 1.39968 2.5545 1.39968C1.92031 1.39968 1.29059 1.39968 0.638541 1.39968C0.629609 1.2925 0.625143 1.20764 0.616211 1.08259H0.91544C4.81434 1.08259 8.71771 1.08259 12.6166 1.07812C12.8221 1.07812 12.9337 1.14512 13.0454 1.31036C15.6402 5.04402 18.2394 8.77321 20.8387 12.5024C20.8968 12.5873 20.9638 12.6721 21.0665 12.815V1.39522C20.7628 1.39522 20.4636 1.39522 20.1643 1.39522C19.807 1.39522 19.4497 1.38629 19.0925 1.39522C18.8647 1.40415 18.7977 1.31929 18.8781 1.09152H23.6881C23.7685 1.30143 23.7193 1.39968 23.4737 1.39522C22.8261 1.38629 22.1741 1.39522 21.4863 1.39522V18.5138C20.9593 18.6388 20.8432 18.5986 20.5797 18.2279C17.0693 13.208 13.5634 8.19262 10.0531 3.17272C9.97269 3.06107 9.8923 2.94942 9.76725 2.78417V18.2592L9.76278 18.2547ZM6.50699 1.41755V18.2369H9.34297C9.3519 18.1431 9.36083 18.0672 9.36083 17.9912C9.36083 12.5471 9.36083 7.09843 9.36083 1.65425C9.36083 1.45774 9.30724 1.39075 9.10626 1.39075C8.3113 1.39968 7.51633 1.39075 6.72583 1.39522C6.65884 1.39522 6.58738 1.40862 6.50699 1.41755Z" fill="black"/>
<path d="M55.6905 12.4657V12.1397C55.7843 12.1353 55.8781 12.1219 55.9719 12.1219C58.2853 12.1219 60.5943 12.1219 62.9077 12.1219C63.1355 12.1219 63.2606 12.1665 63.1668 12.4568H61.6215V18.1823C61.3893 18.2538 61.224 18.2806 61.1124 18.0171C61.0052 17.767 60.7596 17.6732 60.5005 17.6509C60.0628 17.6152 59.6564 17.7179 59.25 17.8831C58.3791 18.2404 57.5261 18.6826 56.6195 18.9193C54.7705 19.4061 52.9439 19.1515 51.2244 18.3387C48.2143 16.9184 46.3653 14.5514 45.8472 11.2644C45.3828 8.30334 46.2581 5.69514 48.3036 3.49782C49.7194 1.97934 51.4567 1.01913 53.5066 0.630581C54.8375 0.376014 56.1282 0.572522 57.41 0.943208C58.0084 1.11739 58.6069 1.2871 59.2143 1.42555C59.5671 1.50594 59.8529 1.38535 60.0539 1.05039C60.112 0.952141 60.2995 0.92981 60.4782 0.853886V5.98543C60.237 6.09262 60.1388 5.99883 60.0718 5.75766C59.7502 4.58308 59.2813 3.47102 58.5176 2.50634C57.6377 1.39428 56.481 0.858352 55.0787 0.858352C54.5383 0.858352 53.9845 0.885149 53.4575 0.996801C51.872 1.34069 50.8939 2.38129 50.3133 3.85064C49.9829 4.69026 49.8176 5.56562 49.7863 6.45437C49.7283 8.0845 49.6702 9.71463 49.6926 11.3448C49.7149 12.8945 49.831 14.4442 50.3625 15.9225C50.7287 16.9408 51.2959 17.8161 52.3097 18.2985C53.4173 18.821 54.5919 18.9371 55.7843 18.7183C56.7713 18.5396 57.4278 17.9099 57.7583 16.9854C57.937 16.4808 58.062 15.9404 58.1067 15.4044C58.1915 14.4398 58.196 13.4706 58.2362 12.4702H55.695L55.6905 12.4657Z" fill="black"/>
<path d="M35.5428 0.947982V5.63292C35.3195 5.72224 35.2301 5.64632 35.1453 5.43641C34.8237 4.61911 34.529 3.77949 34.1225 3.00685C33.5509 1.91713 32.6621 1.15789 31.4116 0.943515C29.9378 0.688948 28.5399 0.867592 27.3475 1.8546C26.481 2.56918 26.0568 3.48919 26.3113 4.62805C26.481 5.38282 27.017 5.87409 27.6333 6.27604C28.4193 6.78517 29.3036 7.06207 30.1879 7.3479C31.3402 7.72305 32.4879 8.10267 33.6223 8.53142C34.7835 8.97356 35.7527 9.67474 36.4047 10.7689C36.954 11.6845 37.0478 12.6849 36.9362 13.7121C36.628 16.5525 34.3503 18.4596 31.7421 19C30.2772 19.2992 28.8525 19.1161 27.4323 18.7588C26.8205 18.6025 26.2131 18.4328 25.5968 18.2809C25.4092 18.2362 25.2082 18.2273 25.0162 18.2318C24.7839 18.2318 24.5963 18.3568 24.5115 18.5712C24.4177 18.8124 24.2614 18.8302 24.0381 18.7632V13.261C24.2837 13.1806 24.3864 13.2476 24.44 13.5067C24.8063 15.2306 25.57 16.7267 26.9812 17.8388C27.8075 18.4864 28.7409 18.8481 29.8038 18.8034C30.4246 18.7766 31.0633 18.7945 31.6662 18.665C33.5911 18.2407 34.8371 16.5257 34.6719 14.5651C34.5825 13.5379 33.9305 12.8814 33.0775 12.3946C32.1842 11.8855 31.1883 11.6622 30.2236 11.354C29.3259 11.0637 28.4193 10.7913 27.5484 10.4295C26.2622 9.89804 25.2127 9.05395 24.7259 7.70519C23.8818 5.38282 24.5472 3.04705 26.8026 1.58217C28.5801 0.425448 30.5095 0.25127 32.5192 0.85866C32.9435 0.988176 33.3588 1.15789 33.7786 1.3008C33.9796 1.36779 34.1895 1.43032 34.3994 1.45712C34.6674 1.48838 34.9354 1.44818 35.0515 1.15789C35.1497 0.912253 35.3105 0.903321 35.5472 0.96138L35.5428 0.947982Z" fill="black"/>
<path d="M37.2859 18.5551V18.2648H39.5368V1.41419H37.2903C37.2814 1.2936 37.2769 1.20875 37.2725 1.10156H45.4186C45.4231 1.18195 45.432 1.26681 45.441 1.38293C45.3293 1.38739 45.2355 1.40079 45.1417 1.40079C44.5611 1.40079 43.9805 1.40972 43.3999 1.40079C43.199 1.40079 43.1186 1.46778 43.1409 1.66429C43.1454 1.70895 43.1409 1.75361 43.1409 1.79827C43.1409 7.15759 43.1409 12.5169 43.1409 17.8762C43.1409 18.1323 43.2719 18.2603 43.5339 18.2603C44.1547 18.2603 44.78 18.2603 45.4186 18.2603V18.5551H37.2903H37.2859Z" fill="black"/>
<path d="M49.4756 26.7154C49.9981 26.7154 50.5028 26.7065 51.0075 26.7243C51.0834 26.7243 51.1772 26.8315 51.2308 26.9119C52.1418 28.3723 53.044 29.8327 53.9506 31.2932C54.0087 31.3825 54.0623 31.4718 54.1829 31.5611V26.7243H55.353V33.3833C54.9064 33.3833 54.4687 33.3922 54.0355 33.3744C53.9506 33.3744 53.8479 33.2627 53.7943 33.1734C52.8162 31.5924 51.8426 30.0025 50.8645 28.417C50.8065 28.3232 50.744 28.2249 50.6368 28.1401V33.3654H49.4756V26.7109V26.7154Z" fill="black"/>
<path d="M66.7803 26.7455C66.8205 26.7321 66.8473 26.7188 66.8696 26.7188C67.9995 26.7321 69.1384 26.6964 70.2638 26.7723C71.8984 26.884 72.7336 28.6168 71.8761 30.0237C71.6081 30.4613 71.1972 30.6891 70.706 30.841C71.2553 31.6806 71.7957 32.5023 72.3718 33.3777C71.8806 33.3777 71.4295 33.3866 70.9829 33.3688C70.9248 33.3688 70.8578 33.2571 70.8132 33.1812C70.3933 32.4979 69.9735 31.8146 69.5627 31.1268C69.4778 30.9883 69.3885 30.9258 69.2232 30.9303C68.8213 30.9437 68.4238 30.9303 67.9906 30.9303V33.3554H66.7803V26.7321V26.7455ZM67.9906 29.8227C68.7275 29.8227 69.4376 29.8584 70.1432 29.8093C70.6479 29.7736 70.9159 29.4118 70.9337 28.925C70.9561 28.3399 70.7328 27.9514 70.2013 27.8889C69.4733 27.804 68.7364 27.8129 67.9861 27.7817V29.8227H67.9906Z" fill="black"/>
<path d="M37.3299 30.8454C37.8792 31.6851 38.4196 32.5068 38.9957 33.3822C38.5089 33.3822 38.0668 33.3911 37.6291 33.3732C37.5666 33.3732 37.4951 33.2705 37.4504 33.2035C37.0306 32.5202 36.6108 31.8414 36.1999 31.1491C36.1061 30.9928 35.999 30.9303 35.8158 30.9347C35.4273 30.9481 35.0343 30.9347 34.61 30.9347V33.3598H33.4131V26.7455C33.4131 26.7455 33.4488 26.7188 33.4711 26.7188C34.61 26.7321 35.7578 26.692 36.8922 26.7723C38.5357 26.884 39.3664 28.6526 38.4821 30.046C38.2141 30.4703 37.8077 30.6891 37.3299 30.841V30.8454ZM34.6145 29.8673C35.2219 29.8673 35.8158 29.8673 36.4098 29.8673C36.5438 29.8673 36.6778 29.8406 36.8073 29.8138C37.1333 29.7468 37.3834 29.5771 37.4996 29.2555C37.7675 28.5097 37.3522 27.8755 36.5617 27.8263C36.4724 27.8219 36.383 27.8129 36.2937 27.8129C35.7355 27.8129 35.1817 27.8129 34.6145 27.8129V29.8718V29.8673Z" fill="black"/>
<path d="M59.9705 27.7984V29.4821H62.9315V30.5361H59.9794V32.2869H63.6774V33.3543H58.7646V26.7266H63.6729V27.7984H59.975H59.9705Z" fill="black"/>
<path d="M23.6787 33.3876C23.8395 33.0124 23.9869 32.673 24.1343 32.3336C24.9203 30.5516 25.7063 28.7696 26.4834 26.9832C26.5683 26.7911 26.6665 26.6884 26.8943 26.7108C27.1757 26.7376 27.524 26.6304 27.7295 26.7643C27.9304 26.8939 27.9974 27.2467 28.1135 27.5057C28.9398 29.377 29.766 31.2483 30.5922 33.1196C30.628 33.2 30.6548 33.2804 30.695 33.3876C30.2841 33.3876 29.9045 33.3965 29.5204 33.3786C29.4534 33.3786 29.3641 33.2804 29.3283 33.2045C29.1943 32.9142 29.0648 32.6194 28.9532 32.3202C28.8951 32.1549 28.8013 32.1147 28.6361 32.1147C27.6535 32.1237 26.6755 32.1192 25.6929 32.1147C25.5366 32.1147 25.4518 32.1594 25.3937 32.3112C25.282 32.6105 25.1436 32.9008 25.023 33.2C24.9694 33.3295 24.9024 33.3965 24.7506 33.392C24.4067 33.3786 24.0628 33.392 23.6787 33.392V33.3876ZM28.4128 31.0518C28.0019 30.0737 27.6044 29.1224 27.1712 28.0952C26.7425 29.1224 26.3405 30.0737 25.9296 31.0518H28.4128Z" fill="black"/>
<path d="M16.6787 26.7154C16.9333 26.7154 17.1744 26.7154 17.4112 26.7154C18.3044 26.7288 19.1976 26.6975 20.0819 26.769C21.5334 26.8851 22.0693 27.8364 21.9889 29.1003C21.8996 30.5027 20.9483 30.985 19.7201 31.0252C19.1127 31.0475 18.5098 31.0252 17.8667 31.0252V33.361H16.6787V26.7109V26.7154ZM17.8712 29.9087C18.5768 29.9087 19.2646 29.9489 19.9434 29.8953C20.4928 29.8506 20.7652 29.4665 20.7831 28.8949C20.7965 28.3366 20.5285 27.9793 19.9881 27.8587C19.8318 27.823 19.671 27.8141 19.5102 27.8096C18.9698 27.8051 18.4294 27.8096 17.8712 27.8096V29.9087Z" fill="black"/>
<path d="M44.6456 27.8018V33.3621H43.4263V27.8062C42.8502 27.8062 42.3098 27.8062 41.7694 27.8062C41.2692 27.8062 41.3407 27.8688 41.3362 27.3596C41.3362 27.1587 41.3362 26.9532 41.3362 26.7344H46.7V27.8018H44.6501H44.6456Z" fill="black"/>
</g>
<defs>
<clipPath id="clip0_3_1386">
<rect width="96.3829" height="33" fill="white" transform="translate(0.608398 0.5)"/>
</clipPath>
</defs>
</svg>
