<svg width="89" height="52" viewBox="0 0 89 52" fill="none" xmlns="http://www.w3.org/2000/svg">
<path d="M43.5535 4.94421H41.3234V7.14944H43.5535V4.94421ZM50.2439 6.7851H52.4741V8.99033H50.2439V6.7851ZM3.41113 12.3078H7.8714V32.174H3.41113V12.3078Z" fill="black"/>
<path fill-rule="evenodd" clip-rule="evenodd" d="M16.0361 32.1776V12.3114H31.6471V32.1776H16.0361ZM27.1868 16.7219V27.748H20.4964V16.7219H27.1868Z" fill="black"/>
<path d="M53.5843 12.3071H37.9734V24.0811H49.1241V27.7437H37.9734V32.1541H53.5843V19.6514H42.4337V16.7175H53.5843V12.3071ZM61.3898 12.3071H77.0007V16.7175H65.8501V27.7437H72.5405V24.0619H68.83V19.6514H77.0007V32.1541H61.3898V12.3071ZM82.2108 18.5584H79.9807V20.7636H82.2108V18.5584ZM35.7433 7.53225H37.9734V9.73748H35.7433V7.53225ZM11.9616 5.32703H9.73145V7.53225H11.9616V5.32703ZM84.8062 25.1741H87.0363V27.3793H84.8062V25.1741ZM81.461 29.2202H79.2309V31.4254H81.461V29.2202Z" fill="black"/>
<path d="M3.41113 38.4208H4.5262L6.94859 45.2857L9.37097 38.4208H10.486L7.50612 46.8773H6.39105L3.41113 38.4208ZM14.1965 38.4208H19.7719V39.533H15.3116V42.1025H19.4066V43.2148H15.3116V45.7651H19.7719V46.8773H14.1965V38.4208ZM24.5974 38.4208H23.4823V46.8773H24.5974V41.7382H25.7125V42.8312H26.8275V43.9434H27.9426V45.0556H29.0577V46.8965H30.1727V38.4399H29.0577V43.9626H27.9426V42.8504H26.8275V41.7382H25.7125V40.6452H24.5974C24.5974 40.626 24.5974 38.4208 24.5974 38.4208ZM55.454 44.2886H56.5691V45.3816H55.454V44.2886ZM57.6841 46.513H56.5691V45.42H57.6841V46.513ZM57.6841 46.513H58.7992V47.6252H57.6841V46.513Z" fill="black"/>
<path d="M55.4516 43.1956V44.3078H54.3366V43.1956H53.2215V46.8773H52.1064V38.4208H56.932V39.533H53.2215V42.1025H56.932V43.2148H55.4516V43.1956Z" fill="black"/>
<path d="M56.9331 42.0869V39.5174H58.0482V42.0869H56.9331ZM43.9368 38.4243H42.8217V45.7687H43.9368V46.8809H47.6473V45.7687H48.7623V38.4052H47.6473V45.7687H43.9368V38.4243ZM77.7541 43.1991H76.639V42.0869H72.9285V39.5174H77.3888V38.4052H72.9285V39.5174H71.8135V42.0869H72.9285V43.1991H76.639V45.7687H72.1787V46.8809H76.639V45.7687H77.7541V43.1991ZM39.4765 39.5174H36.8811V46.8809H35.7661V39.5174H32.7861V38.4052H39.4765V39.5174ZM62.5084 38.4243V46.8809H68.0838V45.7687H63.6235V43.1991H67.7185V42.0869H63.6235V39.5174H68.0838V38.4052H62.5084V38.4243Z" fill="black"/>
<path d="M7.8714 12.3114H5.64127V14.5166H7.8714V12.3114ZM5.64127 16.7219H7.8714V18.9271H5.64127V16.7219ZM5.64127 21.1323H3.41113V18.9271H5.64127V21.1323ZM5.64127 21.1323H7.8714V23.3375H5.64127V21.1323ZM16.0421 12.3114H18.2723V14.5166H16.0421V12.3114ZM18.2723 14.5166H20.5024V16.7219H18.2723V14.5166ZM24.9627 12.3114H27.1928V14.5166H24.9627V12.3114ZM31.6531 12.3114H29.4229V14.5166H31.6531V12.3114ZM37.9782 12.3114H40.2083V14.5166H37.9782V12.3114ZM49.1289 14.5166H51.359V16.7219H49.1289V14.5166Z" fill="#9B9B9B"/>
<path d="M51.3628 14.5166H53.593V12.3114H51.3628V14.5166ZM74.7792 14.5166H72.5491V12.3114H70.319V14.5166H72.5491V16.7219H74.7792V14.5166ZM74.7792 14.5166V12.3114H77.0094V14.5166H74.7792ZM72.5491 21.8802H74.7792V24.0854H72.5491V21.8802ZM74.7792 21.8802V19.6749H77.0094V21.8802H74.7792ZM65.8587 14.5166H63.6286V16.7219H65.8587V14.5166ZM65.8587 14.5166H68.0888V12.3114H65.8587V14.5166ZM49.1327 19.6749H51.3628V21.8802H49.1327V19.6749ZM46.9025 21.8802H49.1327V24.0854H46.9025V21.8802ZM46.9025 21.8802H44.6724V19.6749H46.9025V21.8802ZM51.3628 21.8802H53.593V24.0854H51.3628V21.8802ZM46.9025 14.5166H44.6724V12.3114H42.4423V14.5166H44.6724V16.7219H46.9025V14.5166ZM31.6569 21.1323H29.4268V23.3375H31.6569V21.1323ZM29.4268 25.5428H31.6569V27.748H29.4268V25.5428Z" fill="#9B9B9B"/>
</svg>
