<svg width="113" height="17" viewBox="0 0 113 17" fill="none" xmlns="http://www.w3.org/2000/svg">
<path d="M8.10695 -4.76837e-07H10.982V11.25C10.9767 12.2812 10.758 13.1693 10.3257 13.9141C9.89341 14.6536 9.28924 15.224 8.5132 15.625C7.74237 16.0208 6.84393 16.2187 5.81789 16.2187C4.88039 16.2187 4.03664 16.0521 3.28664 15.7187C2.54185 15.3802 1.9507 14.8802 1.5132 14.2187C1.0757 13.5573 0.856953 12.7344 0.856953 11.75H3.73977C3.74497 12.1823 3.83872 12.5547 4.02102 12.8672C4.20852 13.1797 4.46633 13.4193 4.79445 13.5859C5.12258 13.7526 5.50018 13.8359 5.92727 13.8359C6.39081 13.8359 6.78404 13.7396 7.10695 13.5469C7.42987 13.349 7.67466 13.0573 7.84133 12.6719C8.0132 12.2865 8.10174 11.8125 8.10695 11.25V-4.76837e-07ZM20.8999 10.9531V4H23.728V16H20.9859V13.8672H20.8609C20.59 14.5391 20.1447 15.0885 19.5249 15.5156C18.9103 15.9427 18.1525 16.1563 17.2515 16.1563C16.465 16.1563 15.7697 15.9818 15.1655 15.6328C14.5666 15.2786 14.0978 14.7656 13.7593 14.0938C13.4208 13.4167 13.2515 12.599 13.2515 11.6406V4H16.0796V11.2031C16.0796 11.9635 16.2879 12.5677 16.7046 13.0156C17.1213 13.4635 17.6682 13.6875 18.3452 13.6875C18.7619 13.6875 19.1655 13.5859 19.5562 13.3828C19.9468 13.1797 20.2671 12.8776 20.5171 12.4766C20.7723 12.0703 20.8999 11.5625 20.8999 10.9531ZM29.3394 16.2422C28.579 16.2422 27.8941 16.1068 27.2847 15.8359C26.6805 15.5599 26.2014 15.1536 25.8472 14.6172C25.4982 14.0807 25.3237 13.4193 25.3237 12.6328C25.3237 11.9557 25.4487 11.3958 25.6987 10.9531C25.9487 10.5104 26.2899 10.1562 26.7222 9.89062C27.1545 9.625 27.6415 9.42448 28.1831 9.28906C28.73 9.14844 29.2951 9.04687 29.8784 8.98437C30.5816 8.91146 31.1519 8.84635 31.5894 8.78906C32.0269 8.72656 32.3446 8.63281 32.5425 8.50781C32.7456 8.3776 32.8472 8.17708 32.8472 7.90625V7.85938C32.8472 7.27083 32.6727 6.8151 32.3237 6.49219C31.9748 6.16927 31.4722 6.00781 30.8159 6.00781C30.1232 6.00781 29.5737 6.15885 29.1675 6.46094C28.7665 6.76302 28.4956 7.11979 28.355 7.53125L25.7144 7.15625C25.9227 6.42708 26.2665 5.81771 26.7456 5.32812C27.2248 4.83333 27.8107 4.46354 28.5034 4.21875C29.1961 3.96875 29.9618 3.84375 30.8003 3.84375C31.3784 3.84375 31.954 3.91146 32.5269 4.04687C33.0998 4.18229 33.6232 4.40625 34.0972 4.71875C34.5711 5.02604 34.9514 5.44531 35.2378 5.97656C35.5295 6.50781 35.6753 7.17187 35.6753 7.96875V16H32.9566V14.3516H32.8628C32.6909 14.6849 32.4487 14.9974 32.1362 15.2891C31.829 15.5755 31.4409 15.8073 30.9722 15.9844C30.5086 16.1563 29.9644 16.2422 29.3394 16.2422ZM30.0737 14.1641C30.6415 14.1641 31.1336 14.0521 31.5503 13.8281C31.967 13.599 32.2873 13.2969 32.5112 12.9219C32.7404 12.5469 32.855 12.138 32.855 11.6953V10.2812C32.7665 10.3542 32.6154 10.4219 32.4019 10.4844C32.1935 10.5469 31.9592 10.6016 31.6987 10.6484C31.4383 10.6953 31.1805 10.737 30.9253 10.7734C30.6701 10.8099 30.4487 10.8411 30.2612 10.8672C29.8394 10.9245 29.4618 11.0182 29.1284 11.1484C28.7951 11.2786 28.5321 11.4609 28.3394 11.6953C28.1467 11.9245 28.0503 12.2214 28.0503 12.5859C28.0503 13.1068 28.2404 13.5 28.6206 13.7656C29.0008 14.0312 29.4852 14.1641 30.0737 14.1641ZM40.5972 8.96875V16H37.7691V4H40.4722V6.03906H40.6128C40.8889 5.36719 41.329 4.83333 41.9331 4.4375C42.5425 4.04167 43.2951 3.84375 44.1909 3.84375C45.0191 3.84375 45.7404 4.02083 46.355 4.375C46.9748 4.72917 47.454 5.24219 47.7925 5.91406C48.1362 6.58594 48.3055 7.40104 48.3003 8.35937V16H45.4722V8.79687C45.4722 7.99479 45.2639 7.36719 44.8472 6.91406C44.4357 6.46094 43.8654 6.23437 43.1362 6.23437C42.6415 6.23437 42.2014 6.34375 41.8159 6.5625C41.4357 6.77604 41.1362 7.08594 40.9175 7.49219C40.704 7.89844 40.5972 8.39062 40.5972 8.96875ZM55.2573 16V-4.76837e-07H61.3823C62.5386 -4.76837e-07 63.4995 0.182291 64.2652 0.546874C65.036 0.90625 65.6115 1.39844 65.9917 2.02344C66.3771 2.64844 66.5698 3.35677 66.5698 4.14844C66.5698 4.79948 66.4448 5.35677 66.1948 5.82031C65.9448 6.27865 65.6089 6.65104 65.187 6.9375C64.7652 7.22396 64.2938 7.42969 63.773 7.55469V7.71094C64.3407 7.74219 64.8849 7.91667 65.4058 8.23437C65.9318 8.54687 66.3615 8.98958 66.6948 9.5625C67.0282 10.1354 67.1948 10.8281 67.1948 11.6406C67.1948 12.4687 66.9943 13.2135 66.5933 13.875C66.1922 14.5312 65.5881 15.0495 64.7808 15.4297C63.9735 15.8099 62.9579 16 61.7339 16H55.2573ZM58.1558 13.5781H61.273C62.3251 13.5781 63.0829 13.3776 63.5464 12.9766C64.0152 12.5703 64.2495 12.0495 64.2495 11.4141C64.2495 10.9401 64.1323 10.513 63.898 10.1328C63.6636 9.7474 63.3303 9.44531 62.898 9.22656C62.4657 9.0026 61.9501 8.89063 61.3511 8.89063H58.1558V13.5781ZM58.1558 6.80469H61.023C61.523 6.80469 61.9735 6.71354 62.3745 6.53125C62.7756 6.34375 63.0907 6.08073 63.3198 5.74219C63.5542 5.39844 63.6714 4.99219 63.6714 4.52344C63.6714 3.90365 63.4527 3.39323 63.0152 2.99219C62.5829 2.59114 61.9396 2.39062 61.0855 2.39062H58.1558V6.80469ZM74.1538 16.2344C72.9507 16.2344 71.9116 15.9844 71.0366 15.4844C70.1668 14.9792 69.4976 14.2656 69.0288 13.3437C68.5601 12.4167 68.3257 11.3255 68.3257 10.0703C68.3257 8.83594 68.5601 7.7526 69.0288 6.82031C69.5028 5.88281 70.1642 5.15365 71.0132 4.63281C71.8622 4.10677 72.8596 3.84375 74.0054 3.84375C74.745 3.84375 75.4429 3.96354 76.0991 4.20312C76.7606 4.4375 77.3439 4.80208 77.8491 5.29687C78.3596 5.79167 78.7606 6.42187 79.0523 7.1875C79.3439 7.94792 79.4898 8.85417 79.4898 9.90625V10.7734H69.6538V8.86719H76.7788C76.7736 8.32552 76.6564 7.84375 76.4273 7.42187C76.1981 6.99479 75.8778 6.65885 75.4663 6.41406C75.0601 6.16927 74.5861 6.04687 74.0444 6.04687C73.4663 6.04687 72.9585 6.1875 72.521 6.46875C72.0835 6.74479 71.7424 7.10937 71.4976 7.5625C71.258 8.01042 71.1356 8.5026 71.1304 9.03906V10.7031C71.1304 11.401 71.258 12 71.5132 12.5C71.7684 12.9948 72.1252 13.375 72.5835 13.6406C73.0418 13.901 73.5783 14.0312 74.1929 14.0312C74.6043 14.0312 74.9767 13.974 75.3101 13.8594C75.6434 13.7396 75.9325 13.5651 76.1773 13.3359C76.4221 13.1068 76.6069 12.8229 76.7319 12.4844L79.3726 12.7812C79.2059 13.4792 78.8882 14.0885 78.4194 14.6094C77.9559 15.125 77.3622 15.526 76.6382 15.8125C75.9142 16.0937 75.0861 16.2344 74.1538 16.2344ZM83.9605 8.96875V16H81.1323V4H83.8355V6.03906H83.9761C84.2521 5.36719 84.6922 4.83333 85.2964 4.4375C85.9058 4.04167 86.6584 3.84375 87.5542 3.84375C88.3823 3.84375 89.1037 4.02083 89.7183 4.375C90.3381 4.72917 90.8172 5.24219 91.1558 5.91406C91.4995 6.58594 91.6688 7.40104 91.6636 8.35937V16H88.8355V8.79687C88.8355 7.99479 88.6271 7.36719 88.2105 6.91406C87.799 6.46094 87.2287 6.23437 86.4995 6.23437C86.0047 6.23437 85.5646 6.34375 85.1792 6.5625C84.799 6.77604 84.4995 7.08594 84.2808 7.49219C84.0672 7.89844 83.9605 8.39062 83.9605 8.96875ZM99.1011 16.2344C97.898 16.2344 96.8589 15.9844 95.9839 15.4844C95.1141 14.9792 94.4448 14.2656 93.9761 13.3437C93.5073 12.4167 93.273 11.3255 93.273 10.0703C93.273 8.83594 93.5073 7.7526 93.9761 6.82031C94.45 5.88281 95.1115 5.15365 95.9605 4.63281C96.8094 4.10677 97.8068 3.84375 98.9527 3.84375C99.6922 3.84375 100.39 3.96354 101.046 4.20312C101.708 4.4375 102.291 4.80208 102.796 5.29687C103.307 5.79167 103.708 6.42187 104 7.1875C104.291 7.94792 104.437 8.85417 104.437 9.90625V10.7734H94.6011V8.86719H101.726C101.721 8.32552 101.604 7.84375 101.375 7.42187C101.145 6.99479 100.825 6.65885 100.414 6.41406C100.007 6.16927 99.5334 6.04687 98.9917 6.04687C98.4136 6.04687 97.9058 6.1875 97.4683 6.46875C97.0308 6.74479 96.6896 7.10937 96.4448 7.5625C96.2053 8.01042 96.0829 8.5026 96.0777 9.03906V10.7031C96.0777 11.401 96.2053 12 96.4605 12.5C96.7157 12.9948 97.0724 13.375 97.5308 13.6406C97.9891 13.901 98.5256 14.0312 99.1402 14.0312C99.5516 14.0312 99.924 13.974 100.257 13.8594C100.591 13.7396 100.88 13.5651 101.125 13.3359C101.369 13.1068 101.554 12.8229 101.679 12.4844L104.32 12.7812C104.153 13.4792 103.835 14.0885 103.367 14.6094C102.903 15.125 102.309 15.526 101.585 15.8125C100.862 16.0937 100.033 16.2344 99.1011 16.2344ZM112.072 4V6.1875H105.173V4H112.072ZM106.876 1.125H109.705V12.3906C109.705 12.7708 109.762 13.0625 109.876 13.2656C109.996 13.4635 110.153 13.599 110.345 13.6719C110.538 13.7448 110.751 13.7812 110.986 13.7812C111.163 13.7812 111.324 13.7682 111.47 13.7422C111.621 13.7161 111.736 13.6927 111.814 13.6719L112.291 15.8828C112.14 15.9349 111.923 15.9922 111.642 16.0547C111.366 16.1172 111.028 16.1536 110.626 16.1641C109.918 16.1849 109.28 16.0781 108.712 15.8437C108.145 15.6042 107.694 15.2344 107.361 14.7344C107.033 14.2344 106.871 13.6094 106.876 12.8594V1.125Z" fill="#0A0C11"/>
</svg>
