<svg width="104" height="18" viewBox="0 0 104 18" fill="none" xmlns="http://www.w3.org/2000/svg">
<path d="M7.6277 1H10.5027V12.25C10.4975 13.2812 10.2787 14.1693 9.84645 14.9141C9.41416 15.6536 8.81 16.224 8.03395 16.625C7.26312 17.0208 6.36468 17.2187 5.33864 17.2187C4.40114 17.2187 3.55739 17.0521 2.80739 16.7187C2.0626 16.3802 1.47145 15.8802 1.03395 15.2187C0.596455 14.5573 0.377705 13.7344 0.377705 12.75H3.26052C3.26573 13.1823 3.35948 13.5547 3.54177 13.8672C3.72927 14.1797 3.98708 14.4193 4.3152 14.5859C4.64333 14.7526 5.02093 14.8359 5.44802 14.8359C5.91156 14.8359 6.30479 14.7396 6.62771 14.5469C6.95062 14.349 7.19541 14.0573 7.36208 13.6719C7.53395 13.2865 7.6225 12.8125 7.6277 12.25V1ZM20.4207 11.9531V5H23.2488V17H20.5066V14.8672H20.3816C20.1108 15.5391 19.6655 16.0885 19.0457 16.5156C18.4311 16.9427 17.6733 17.1563 16.7722 17.1563C15.9858 17.1563 15.2905 16.9818 14.6863 16.6328C14.0873 16.2786 13.6186 15.7656 13.28 15.0938C12.9415 14.4167 12.7722 13.599 12.7722 12.6406V5H15.6004V12.2031C15.6004 12.9635 15.8087 13.5677 16.2254 14.0156C16.642 14.4635 17.1889 14.6875 17.866 14.6875C18.2827 14.6875 18.6863 14.5859 19.0769 14.3828C19.4675 14.1797 19.7879 13.8776 20.0379 13.4766C20.2931 13.0703 20.4207 12.5625 20.4207 11.9531ZM34.8914 8.17188L32.3133 8.45312C32.2403 8.19271 32.1127 7.94792 31.9304 7.71875C31.7534 7.48958 31.5138 7.30469 31.2117 7.16406C30.9096 7.02344 30.5398 6.95312 30.1023 6.95312C29.5138 6.95312 29.019 7.08073 28.6179 7.33594C28.2221 7.59115 28.0268 7.92187 28.032 8.32812C28.0268 8.67708 28.1544 8.96094 28.4148 9.17969C28.6804 9.39844 29.1179 9.57812 29.7273 9.71875L31.7742 10.1562C32.9096 10.401 33.7534 10.7891 34.3054 11.3203C34.8627 11.8516 35.144 12.5469 35.1492 13.4062C35.144 14.1615 34.9226 14.8281 34.4851 15.4062C34.0528 15.9792 33.4513 16.4271 32.6804 16.75C31.9096 17.0729 31.0242 17.2344 30.0242 17.2344C28.5554 17.2344 27.3731 16.9271 26.4773 16.3125C25.5815 15.6927 25.0476 14.8307 24.8758 13.7266L27.6336 13.4609C27.7586 14.0026 28.0242 14.4115 28.4304 14.6875C28.8367 14.9635 29.3653 15.1016 30.0164 15.1016C30.6883 15.1016 31.2273 14.9635 31.6336 14.6875C32.045 14.4115 32.2508 14.0703 32.2508 13.6641C32.2508 13.3203 32.1179 13.0365 31.8523 12.8125C31.5919 12.5885 31.1856 12.4167 30.6336 12.2969L28.5867 11.8672C27.4356 11.6276 26.5841 11.224 26.032 10.6562C25.4799 10.0833 25.2065 9.35937 25.2117 8.48437C25.2065 7.74479 25.407 7.10417 25.8133 6.5625C26.2247 6.01562 26.795 5.59375 27.5242 5.29687C28.2586 4.99479 29.1049 4.84375 30.0633 4.84375C31.4695 4.84375 32.5763 5.14323 33.3836 5.74219C34.1961 6.34115 34.6987 7.15104 34.8914 8.17188ZM42.7234 5V7.1875H35.825V5H42.7234ZM37.5281 2.125H40.3562V13.3906C40.3562 13.7708 40.4135 14.0625 40.5281 14.2656C40.6479 14.4635 40.8041 14.599 40.9968 14.6719C41.1896 14.7448 41.4031 14.7812 41.6375 14.7812C41.8146 14.7812 41.976 14.7682 42.1218 14.7422C42.2729 14.7161 42.3875 14.6927 42.4656 14.6719L42.9422 16.8828C42.7911 16.9349 42.575 16.9922 42.2937 17.0547C42.0177 17.1172 41.6791 17.1536 41.2781 17.1641C40.5698 17.1849 39.9317 17.0781 39.364 16.8437C38.7963 16.6042 38.3458 16.2344 38.0125 15.7344C37.6843 15.2344 37.5229 14.6094 37.5281 13.8594V2.125ZM44.3386 17V5H47.1668V17H44.3386ZM45.7605 3.29688C45.3126 3.29688 44.9272 3.14844 44.6043 2.85156C44.2814 2.54948 44.1199 2.1875 44.1199 1.76562C44.1199 1.33854 44.2814 0.976562 44.6043 0.679686C44.9272 0.377603 45.3126 0.226562 45.7605 0.226562C46.2136 0.226562 46.5991 0.377603 46.9168 0.679686C47.2397 0.976562 47.4011 1.33854 47.4011 1.76562C47.4011 2.1875 47.2397 2.54948 46.9168 2.85156C46.5991 3.14844 46.2136 3.29688 45.7605 3.29688ZM52.1531 9.96875V17H49.325V5H52.0281V7.03906H52.1687C52.4448 6.36719 52.8849 5.83333 53.489 5.4375C54.0984 5.04167 54.851 4.84375 55.7468 4.84375C56.575 4.84375 57.2963 5.02083 57.9109 5.375C58.5307 5.72917 59.0099 6.24219 59.3484 6.91406C59.6922 7.58594 59.8614 8.40104 59.8562 9.35937V17H57.0281V9.79687C57.0281 8.99479 56.8198 8.36719 56.4031 7.91406C55.9916 7.46094 55.4213 7.23437 54.6922 7.23437C54.1974 7.23437 53.7573 7.34375 53.3718 7.5625C52.9916 7.77604 52.6922 8.08594 52.4734 8.49219C52.2599 8.89844 52.1531 9.39062 52.1531 9.96875ZM66.8132 17V1H69.7117V8.35156H69.907L76.1492 1H79.6882L73.5007 8.17969L79.7429 17H76.2586L71.4851 10.1406L69.7117 12.2344V17H66.8132ZM84.28 17.2422C83.5196 17.2422 82.8347 17.1068 82.2254 16.8359C81.6212 16.5599 81.142 16.1536 80.7879 15.6172C80.4389 15.0807 80.2644 14.4193 80.2644 13.6328C80.2644 12.9557 80.3894 12.3958 80.6394 11.9531C80.8894 11.5104 81.2306 11.1562 81.6629 10.8906C82.0951 10.625 82.5821 10.4245 83.1238 10.2891C83.6707 10.1484 84.2358 10.0469 84.8191 9.98437C85.5222 9.91146 86.0925 9.84635 86.53 9.78906C86.9675 9.72656 87.2853 9.63281 87.4832 9.50781C87.6863 9.3776 87.7879 9.17708 87.7879 8.90625V8.85938C87.7879 8.27083 87.6134 7.8151 87.2644 7.49219C86.9155 7.16927 86.4129 7.00781 85.7566 7.00781C85.0639 7.00781 84.5144 7.15885 84.1082 7.46094C83.7071 7.76302 83.4363 8.11979 83.2957 8.53125L80.655 8.15625C80.8634 7.42708 81.2071 6.81771 81.6863 6.32812C82.1655 5.83333 82.7514 5.46354 83.4441 5.21875C84.1368 4.96875 84.9024 4.84375 85.741 4.84375C86.3191 4.84375 86.8946 4.91146 87.4675 5.04687C88.0405 5.18229 88.5639 5.40625 89.0379 5.71875C89.5118 6.02604 89.892 6.44531 90.1785 6.97656C90.4701 7.50781 90.616 8.17187 90.616 8.96875V17H87.8972V15.3516H87.8035C87.6316 15.6849 87.3894 15.9974 87.0769 16.2891C86.7696 16.5755 86.3816 16.8073 85.9129 16.9844C85.4493 17.1563 84.905 17.2422 84.28 17.2422ZM85.0144 15.1641C85.5821 15.1641 86.0743 15.0521 86.491 14.8281C86.9076 14.599 87.228 14.2969 87.4519 13.9219C87.6811 13.5469 87.7957 13.138 87.7957 12.6953V11.2812C87.7071 11.3542 87.5561 11.4219 87.3425 11.4844C87.1342 11.5469 86.8998 11.6016 86.6394 11.6484C86.379 11.6953 86.1212 11.737 85.866 11.7734C85.6108 11.8099 85.3894 11.8411 85.2019 11.8672C84.78 11.9245 84.4024 12.0182 84.0691 12.1484C83.7358 12.2786 83.4728 12.4609 83.28 12.6953C83.0873 12.9245 82.991 13.2214 82.991 13.5859C82.991 14.1068 83.1811 14.5 83.5613 14.7656C83.9415 15.0312 84.4259 15.1641 85.0144 15.1641ZM95.5379 9.96875V17H92.7097V5H95.4129V7.03906H95.5535C95.8295 6.36719 96.2696 5.83333 96.8738 5.4375C97.4832 5.04167 98.2358 4.84375 99.1316 4.84375C99.9597 4.84375 100.681 5.02083 101.296 5.375C101.915 5.72917 102.395 6.24219 102.733 6.91406C103.077 7.58594 103.246 8.40104 103.241 9.35937V17H100.413V9.79687C100.413 8.99479 100.205 8.36719 99.7879 7.91406C99.3764 7.46094 98.8061 7.23437 98.0769 7.23437C97.5821 7.23437 97.142 7.34375 96.7566 7.5625C96.3764 7.77604 96.0769 8.08594 95.8582 8.49219C95.6446 8.89844 95.5379 9.39062 95.5379 9.96875Z" fill="#0A0C11"/>
</svg>
