<svg width="180" height="16" viewBox="0 0 180 16" fill="none" xmlns="http://www.w3.org/2000/svg">
<g clip-path="url(#clip0_3_1574)">
<path d="M10.1152 0.703369C4.56738 0.703369 0.0703125 4.86336 0.0703125 9.99485V13.9766C0.0703125 14.7091 0.71208 15.3025 1.5043 15.3025C2.29652 15.3025 2.94298 14.7091 2.94298 13.9766V9.99485C2.94298 9.26023 3.5824 8.6669 4.37696 8.6669C5.16918 8.6669 5.81093 9.26023 5.81093 9.99485V13.9766C5.81093 14.7091 6.45274 15.3025 7.24493 15.3025C8.03949 15.3025 8.68124 14.7091 8.68124 13.9766V9.99485C8.68124 9.26023 9.32305 8.6669 10.1152 8.6669C10.9098 8.6669 11.5539 9.26023 11.5539 9.99485V13.9766C11.5539 14.7091 12.1957 15.3025 12.9879 15.3025C13.7801 15.3025 14.4219 14.7091 14.4219 13.9766V9.99485C14.4219 9.26023 15.0637 8.6669 15.8606 8.6669C16.6528 8.6669 17.2945 9.26023 17.2945 9.99485V13.9766C17.2945 14.7091 17.9364 15.3025 18.7309 15.3025C19.5231 15.3025 20.1649 14.7091 20.1649 13.9766V9.99485C20.1649 4.86336 15.6655 0.703369 10.1152 0.703369Z" fill="black"/>
<path d="M22.4219 0.703369H24.9714V6.90204L31.775 0.703369H35.165L29.098 6.12936L35.5049 15.2964H32.1149L27.1503 7.87111L24.9714 9.82019V15.2986H22.4219V0.703369Z" fill="black"/>
<path d="M36.8906 0.702637H39.4119V3.22357C39.6173 2.73248 40.1248 2.13662 40.9298 1.43163C41.7348 0.72883 42.665 0.375244 43.7155 0.375244C43.765 0.375244 43.8476 0.379609 43.9657 0.38834C44.0837 0.397071 44.2844 0.414532 44.57 0.442906V3.03368C44.4119 3.00531 44.2678 2.98784 44.1357 2.97912C44.0034 2.97038 43.8571 2.96602 43.7013 2.96602C42.3652 2.96602 41.3382 3.36326 40.6206 4.15773C39.9029 4.95221 39.5441 5.86675 39.5441 6.90349V15.2978H36.8906V0.702637Z" fill="black"/>
<path d="M54.4481 6.46753C55.0571 6.39548 55.4655 6.15978 55.6709 5.76033C55.7889 5.5421 55.848 5.22779 55.848 4.81746C55.848 3.97933 55.5269 3.37038 54.8848 2.9906C54.2427 2.61301 53.3244 2.42312 52.1275 2.42312C50.7441 2.42312 49.7644 2.77015 49.186 3.46423C48.8626 3.84837 48.6525 4.41804 48.5533 5.17541H46.077C46.1265 3.37256 46.7568 2.11755 47.9679 1.41038C49.1813 0.705391 50.586 0.351807 52.1865 0.351807C54.042 0.351807 55.5481 0.679201 56.7049 1.33181C57.8546 1.9866 58.4281 3.00369 58.4281 4.3853V12.7927C58.4281 13.0482 58.485 13.2511 58.5984 13.4061C58.7089 13.561 58.9474 13.6374 59.3134 13.6374C59.4318 13.6374 59.5637 13.6309 59.7126 13.6178C59.8587 13.6047 60.0171 13.5829 60.1846 13.5567V15.3683C59.7713 15.4774 59.4577 15.5451 59.2429 15.5734C59.0252 15.5996 58.7326 15.6149 58.3576 15.6149C57.4436 15.6149 56.7804 15.3159 56.3673 14.7157C56.1525 14.397 55.9991 13.9474 55.9117 13.3668C55.3711 14.0216 54.5968 14.5891 53.584 15.0692C52.5713 15.5516 51.457 15.7917 50.2389 15.7917C48.7753 15.7917 47.5784 15.3814 46.6506 14.5607C45.7228 13.74 45.2578 12.712 45.2578 11.4788C45.2578 10.1278 45.7158 9.08012 46.6294 8.33586C47.543 7.59159 48.7422 7.13323 50.2247 6.96077L54.4481 6.46753ZM48.8626 13.094C49.4221 13.5021 50.0855 13.7051 50.8527 13.7051C51.7852 13.7051 52.6893 13.5065 53.5652 13.1071C55.0382 12.4457 55.7748 11.361 55.7748 9.85494V7.88188C55.4514 8.07394 55.0335 8.23326 54.5236 8.35984C54.0137 8.48647 53.5132 8.57813 53.0246 8.63271L51.4216 8.82258C50.4608 8.94046 49.7384 9.12595 49.2545 9.37916C48.433 9.80473 48.0245 10.4858 48.0245 11.4177C48.0222 12.1292 48.3032 12.6858 48.8626 13.094Z" fill="black"/>
<path d="M64.4662 0.703369V6.90203L71.2699 0.703369H74.6572L68.5904 6.1294L74.9972 15.2964H71.6071L66.6427 7.8711L64.4639 9.82018V15.2986H61.9141V0.703369H64.4662Z" fill="black"/>
<path d="M85.8185 1.10207C86.8645 1.5888 87.6601 2.21739 88.2054 2.99004C88.732 3.72559 89.0833 4.58336 89.2604 5.56554C89.4166 6.23781 89.4944 7.30947 89.4944 8.78054H78.0144C78.064 10.2647 78.439 11.4564 79.1404 12.3535C79.8414 13.2506 80.9296 13.7002 82.4002 13.7002C83.7744 13.7002 84.8723 13.2767 85.691 12.4277C86.1495 11.9344 86.4748 11.3648 86.666 10.7165H89.275C89.2063 11.2535 88.9773 11.8493 88.5899 12.5085C88.2031 13.1676 87.7689 13.7045 87.2919 14.1236C86.4917 14.8505 85.5021 15.3415 84.3219 15.5947C83.6893 15.741 82.9714 15.813 82.1713 15.813C80.2191 15.813 78.5642 15.1516 77.2069 13.8311C75.8497 12.5085 75.1719 10.6598 75.1719 8.27854C75.1719 5.93439 75.8542 4.03116 77.2233 2.5688C78.5901 1.10644 80.377 0.375259 82.5846 0.375259C83.6938 0.373076 84.773 0.61753 85.8185 1.10207ZM86.7675 6.83365C86.6615 5.77069 86.4111 4.92167 86.0215 4.28652C85.302 3.10573 84.0975 2.51423 82.4121 2.51423C81.2037 2.51423 80.191 2.9202 79.3739 3.73432C78.5546 4.54844 78.1227 5.58081 78.073 6.83365H86.7675Z" fill="black"/>
<path d="M94.3414 0.702637V2.77395C95.0874 1.92054 95.8785 1.30723 96.7142 0.933998C97.5499 0.560767 98.4775 0.375244 99.4998 0.375244C101.74 0.375244 103.254 1.09769 104.04 2.54259C104.471 3.3327 104.689 4.4633 104.689 5.93656V15.2978H101.99V6.10026C101.99 5.20976 101.849 4.49168 101.563 3.9482C101.091 3.04023 100.236 2.58625 98.9991 2.58625C98.3715 2.58625 97.8544 2.64517 97.4506 2.76304C96.7232 2.96384 96.0861 3.36326 95.5335 3.9613C95.0925 4.44366 94.8044 4.93911 94.6719 5.45421C94.5399 5.9693 94.4739 6.70048 94.4739 7.65432V15.2978H91.8203V0.702637H94.3414Z" fill="black"/>
</g>
<g clip-path="url(#clip1_3_1574)">
<path d="M143.921 15.4053C132.76 15.4053 121.595 15.4053 110.434 15.3984C110.097 15.3984 109.722 15.357 109.431 15.1981C109.078 15.0047 108.771 14.6973 108.494 14.3899C108.079 13.9237 107.981 13.3469 107.984 12.7114C108.004 9.57881 107.994 6.44277 107.994 3.31018C107.994 3.07187 107.968 2.8301 108.014 2.60215C108.06 2.38456 108.21 2.19115 108.265 1.97011C108.38 1.52457 108.749 1.3277 109.029 1.04795C109.14 0.937426 109.271 0.826905 109.411 0.778552C109.669 0.688753 109.944 0.636946 110.212 0.578232C110.29 0.560963 110.372 0.578232 110.453 0.578232C132.779 0.578232 155.105 0.578232 177.428 0.585139C177.768 0.585139 178.153 0.616223 178.437 0.785459C178.888 1.05485 179.293 1.38642 179.593 1.90103C179.91 2.43982 179.92 2.97862 179.92 3.53813C179.929 6.49112 179.926 9.44756 179.923 12.4006C179.923 12.6354 179.91 12.8737 179.9 13.1086C179.887 13.4505 179.756 13.7303 179.6 14.0342C179.453 14.3174 179.289 14.5626 179.061 14.7457C178.796 14.9564 178.525 15.1429 178.192 15.2637C177.431 15.5366 176.664 15.395 175.903 15.395C165.241 15.4088 154.58 15.4053 143.918 15.4053H143.921ZM133.524 3.38962C133.511 5.5655 133.53 7.73103 133.471 9.90346C133.37 9.81021 133.318 9.7135 133.259 9.6168C133.073 9.31286 132.88 9.01584 132.701 8.705C132.505 8.36307 132.351 7.99352 132.129 7.66886C131.898 7.33039 131.675 6.98846 131.48 6.62236C131.218 6.13538 130.902 5.68639 130.64 5.19595C130.395 4.72969 130.095 4.29796 129.821 3.84897C129.628 3.53122 129.435 3.25492 129.001 3.34472C128.769 3.39307 128.518 3.36889 128.279 3.34817C128.038 3.3309 127.976 3.42761 127.976 3.67283C127.982 6.53256 127.979 9.3923 127.979 12.2486C127.979 12.3487 127.989 12.4489 127.999 12.5663C128.146 12.5663 128.26 12.5698 128.374 12.5663C128.72 12.5525 129.063 12.5352 129.409 12.518C129.429 12.1553 129.461 11.7892 129.465 11.4266C129.471 10.1487 129.465 8.87078 129.465 7.59288C129.465 7.21296 129.461 6.8365 129.471 6.45658C129.471 6.37714 129.53 6.29771 129.576 6.17682C129.674 6.34951 129.719 6.44967 129.782 6.53947C129.961 6.81232 130.157 7.07826 130.327 7.35802C130.562 7.7483 130.777 8.15239 131 8.54958C131.238 8.97439 131.476 9.39921 131.715 9.82057C131.832 10.0313 131.95 10.2419 132.08 10.4423C132.214 10.646 132.378 10.8291 132.502 11.0398C132.753 11.4715 132.975 11.9205 133.236 12.3453C133.325 12.4869 133.462 12.6216 133.677 12.5732C133.814 12.5422 133.961 12.5663 134.105 12.5663C134.405 12.5663 134.706 12.5663 135.003 12.5663V3.38962H133.52H133.524ZM158.874 8.1144C159.102 7.93135 159.314 7.78629 159.501 7.6136C159.974 7.17497 160.219 6.61891 160.209 5.94887C160.206 5.63803 160.173 5.34101 160.085 5.02671C159.977 4.65025 159.775 4.37049 159.553 4.09764C159.419 3.93186 159.207 3.8317 159.021 3.72463C158.723 3.5554 158.43 3.37235 158.07 3.37235C156.594 3.37235 155.118 3.36199 153.639 3.34817C153.381 3.34817 153.355 3.46905 153.355 3.69355C153.362 6.54293 153.358 9.3923 153.358 12.2417V12.5491H154.896V8.87423C155.827 8.87423 156.722 8.85351 157.613 8.8915C157.806 8.90186 158.09 9.09182 158.155 9.27487C158.335 9.76876 158.462 10.2937 158.531 10.8187C158.606 11.392 158.485 11.993 158.753 12.5663H160.199C160.199 12.3349 160.219 12.1415 160.193 11.9585C160.17 11.7789 160.079 11.6096 160.062 11.4335C160.02 10.8671 160.003 10.3076 159.896 9.74113C159.775 9.10564 159.602 8.57375 159.021 8.27327C158.945 8.23528 158.896 8.14203 158.867 8.11095L158.874 8.1144ZM176.517 6.08012C176.533 6.01795 176.543 5.99032 176.546 5.96269C176.563 5.53787 176.412 5.16486 176.252 4.78149C176.096 4.40503 175.87 4.12182 175.554 3.90768C175.354 3.77299 175.106 3.70391 174.93 3.54504C174.659 3.29982 174.352 3.2342 174.022 3.20657C173.888 3.1962 173.748 3.20657 173.621 3.17203C173.003 2.99934 172.412 3.16167 171.828 3.34472C171.638 3.40343 171.459 3.50014 171.279 3.58994C171.139 3.66247 170.985 3.72463 170.878 3.83861C170.59 4.14254 170.319 4.43957 170.153 4.86784C170.015 5.22703 170.091 5.61386 169.904 5.94542C169.888 5.97305 169.898 6.0214 169.904 6.05594C169.953 6.29771 170.002 6.53947 170.055 6.78124C170.064 6.82268 170.077 6.87104 170.104 6.90557C170.394 7.25095 170.567 7.71031 171.034 7.883C171.318 7.99006 171.56 8.21456 171.844 8.31127C172.18 8.42869 172.54 8.46669 172.886 8.53922C172.912 8.54612 172.938 8.54958 172.964 8.55648C173.281 8.65664 173.591 8.78098 173.914 8.85351C174.31 8.94331 174.659 9.07455 174.976 9.37158C175.358 9.73077 175.279 10.6288 175.008 10.9431C174.672 11.3299 174.228 11.506 173.728 11.5026C173.47 11.5026 173.203 11.544 172.951 11.4922C172.615 11.4197 172.256 11.3402 171.971 11.1503C171.547 10.8671 171.22 10.4595 171.217 9.87238C171.217 9.6686 171.109 9.60989 170.943 9.60989C170.62 9.60989 170.3 9.61334 169.976 9.60989C169.78 9.60644 169.682 9.68587 169.718 9.8931C169.761 10.1314 169.813 10.3697 169.875 10.6046C169.934 10.8256 169.953 11.0916 170.084 11.2573C170.375 11.62 170.629 12.0206 171.054 12.2555C171.514 12.5111 171.968 12.7528 172.497 12.7839C172.595 12.7908 172.7 12.7839 172.791 12.815C173.222 12.9566 173.643 12.9255 174.074 12.8081C174.372 12.7287 174.692 12.8012 174.969 12.5767C175.113 12.4593 175.338 12.4558 175.511 12.3695C175.648 12.3004 175.766 12.1899 175.883 12.0863C176.034 11.9481 176.204 11.8169 176.308 11.6476C176.471 11.3782 176.644 11.0916 176.71 10.7876C176.795 10.3835 176.899 9.96563 176.752 9.53736C176.684 9.33013 176.736 9.09873 176.55 8.90877C176.406 8.76371 176.367 8.50468 176.22 8.36653C175.939 8.09713 175.635 7.8381 175.302 7.65505C174.989 7.48236 174.633 7.36147 174.283 7.30967C173.813 7.23714 173.363 7.10935 172.909 6.98156C172.651 6.90903 172.389 6.90212 172.141 6.75015C171.694 6.47385 171.498 6.46349 171.508 5.84871C171.511 5.66912 171.518 5.48952 171.531 5.30992C171.534 5.25121 171.557 5.18213 171.593 5.14069C171.958 4.69515 172.422 4.49828 172.977 4.48101C173.379 4.47065 173.784 4.48101 174.143 4.66752C174.453 4.82639 174.754 5.00254 174.894 5.40663C174.956 5.58277 175.021 5.76237 175.077 5.94887C175.097 6.01104 175.208 6.08012 175.279 6.08357C175.681 6.09739 176.083 6.09048 176.497 6.09048L176.517 6.08012ZM126.307 12.5525C126.32 12.4904 126.333 12.4662 126.333 12.4385C126.333 12.183 126.34 11.9274 126.34 11.6718C126.34 11.2573 126.284 11.2021 125.883 11.2021C124.514 11.2021 123.146 11.1986 121.775 11.2055C121.543 11.2055 121.455 11.1296 121.461 10.8809C121.474 10.3317 121.464 9.78258 121.464 9.23343C121.464 8.76371 121.682 8.52885 122.117 8.52885C123.234 8.52885 124.354 8.52195 125.471 8.53231C125.726 8.53231 125.856 8.47359 125.827 8.17311C125.804 7.95898 125.824 7.73794 125.824 7.52035C125.824 7.13352 125.807 7.11625 125.448 7.11625C124.25 7.11625 123.051 7.11625 121.853 7.11625C121.596 7.11625 121.468 6.9758 121.468 6.69489C121.468 6.20445 121.468 5.71056 121.468 5.22012C121.468 4.91389 121.609 4.76077 121.892 4.76077C123.208 4.76077 124.524 4.76077 125.837 4.76077C126.176 4.76077 126.199 4.73314 126.199 4.37049C126.199 4.13563 126.186 3.89732 126.203 3.66247C126.219 3.42761 126.14 3.35508 125.915 3.35508C124.028 3.36199 122.14 3.35853 120.253 3.35853C119.897 3.35853 119.877 3.38271 119.877 3.76608C119.877 6.57746 119.877 9.38885 119.877 12.1968C119.877 12.5732 119.877 12.5732 120.23 12.5732C122.144 12.5732 124.06 12.5732 125.974 12.5732C126.078 12.5732 126.186 12.5629 126.307 12.556V12.5525ZM162.061 3.35508V12.5525H168.392C168.392 12.221 168.392 11.9101 168.392 11.5993C168.392 11.3368 168.269 11.2044 168.023 11.2021C166.619 11.2021 165.212 11.1986 163.808 11.2055C163.602 11.2055 163.527 11.1503 163.533 10.9189C163.55 10.4284 163.54 9.93455 163.54 9.44065V8.51159H167.87V7.10589H163.54C163.54 6.36678 163.533 5.64839 163.55 4.93001C163.55 4.87129 163.68 4.76422 163.752 4.76077C164.144 4.7435 164.539 4.75041 164.934 4.75041C165.927 4.75041 166.92 4.75041 167.916 4.75041C168.268 4.75041 168.36 4.6537 168.363 4.29105C168.363 4.13909 168.363 3.98712 168.363 3.83515C168.363 3.5082 168.212 3.34472 167.909 3.34472C166.064 3.34472 164.222 3.34472 162.377 3.34472H162.061V3.35508ZM144.708 3.37235C144.701 3.4656 144.695 3.53813 144.695 3.61411C144.695 5.80036 144.695 7.98661 144.695 10.1763C144.695 10.5562 144.835 10.8912 144.999 11.2297C145.257 11.7685 145.603 12.1761 146.138 12.4213C146.488 12.5801 146.817 12.777 147.206 12.7977C147.252 12.7977 147.298 12.8046 147.34 12.8185C147.794 12.9739 148.251 12.9601 148.705 12.8323C149.028 12.7425 149.378 12.8185 149.685 12.5871C149.929 12.404 150.266 12.3626 150.501 12.1726C150.925 11.8307 151.154 11.3092 151.347 10.798C151.461 10.4906 151.5 10.1349 151.5 9.8033C151.513 7.75866 151.503 5.71402 151.51 3.66937C151.51 3.44142 151.419 3.36199 151.223 3.36199C150.955 3.36199 150.687 3.36199 150.416 3.36199C150.083 3.36199 149.916 3.53352 149.916 3.8766C149.916 5.79691 149.926 7.72067 149.91 9.64097C149.91 10.014 149.978 10.4319 149.685 10.7427C149.495 10.9431 149.316 11.1952 149.08 11.2953C148.783 11.4231 148.44 11.4542 148.114 11.4715C147.882 11.4853 147.65 11.392 147.415 11.3644C146.671 11.285 146.194 10.6633 146.191 9.91382C146.181 7.84846 146.187 5.78655 146.187 3.72118C146.187 3.61066 146.187 3.50014 146.187 3.3758H144.701L144.708 3.37235ZM114.754 10.6702C114.662 10.387 114.571 10.1694 114.522 9.94491C114.447 9.60644 114.398 9.26106 114.336 8.92259C114.329 8.89496 114.329 8.86733 114.319 8.83969C114.166 8.41143 113.996 7.99006 113.859 7.55489C113.663 6.9263 113.49 6.28734 113.307 5.65185C113.301 5.63458 113.301 5.61386 113.294 5.59659C113.199 5.35482 113.088 5.11651 113.013 4.86784C112.935 4.6019 112.892 4.32214 112.827 4.05274C112.781 3.86624 112.729 3.67973 112.657 3.50359C112.631 3.44142 112.537 3.37925 112.471 3.3758C111.994 3.36544 111.514 3.36889 110.946 3.36889C111.034 3.62102 111.106 3.81443 111.175 4.00784C111.279 4.30832 111.384 4.6088 111.482 4.91274C111.599 5.28229 111.71 5.65185 111.821 6.02486C112.001 6.62927 112.177 7.23714 112.357 7.84155C112.403 8.00042 112.422 8.2042 112.527 8.29745C112.765 8.50813 112.677 8.82933 112.827 9.07801C112.958 9.2956 112.955 9.59953 113.03 9.85856C113.121 10.1798 113.235 10.4906 113.34 10.8084C113.353 10.8429 113.356 10.8809 113.369 10.9154C113.467 11.171 113.575 11.4231 113.666 11.6856C113.741 11.9067 113.781 12.145 113.872 12.3557C113.931 12.4869 114.032 12.594 114.222 12.5801C114.568 12.5525 114.92 12.5594 115.266 12.5801C115.531 12.594 115.613 12.4351 115.668 12.2106C115.727 11.9688 115.805 11.7305 115.884 11.4957C115.972 11.2435 116.086 11.0018 116.161 10.7462C116.24 10.4941 116.279 10.2316 116.347 9.97945C116.396 9.79985 116.455 9.62025 116.527 9.44756C116.625 9.20234 116.749 8.96749 116.837 8.71536C116.922 8.47359 116.968 8.21801 117.04 7.96934C117.092 7.7932 117.154 7.62051 117.219 7.45127C117.314 7.19224 117.428 6.94011 117.507 6.67417C117.585 6.42204 117.624 6.15955 117.693 5.90743C117.742 5.72783 117.804 5.55169 117.872 5.38245C117.97 5.13378 118.091 4.89547 118.183 4.6468C118.29 4.34977 118.365 4.03893 118.48 3.7419C118.581 3.47596 118.525 3.36199 118.241 3.36199C117.983 3.36199 117.722 3.36199 117.464 3.36199C117.129 3.36199 116.916 3.53122 116.824 3.86969C116.811 3.91114 116.778 3.94913 116.762 3.99058C116.674 4.24616 116.579 4.50174 116.504 4.76422C116.429 5.03362 116.383 5.31338 116.315 5.58623C116.272 5.75546 116.213 5.91779 116.161 6.08357C116.099 6.28734 116.04 6.49457 115.969 6.69489C115.867 6.98156 115.746 7.25786 115.655 7.54452C115.573 7.79665 115.524 8.06259 115.456 8.31817C115.306 8.88805 115.155 9.46138 114.992 10.0313C114.93 10.2419 114.839 10.4457 114.751 10.6771L114.754 10.6702ZM143.346 3.37925C143.193 3.36889 143.069 3.35162 142.948 3.35162C140.865 3.35162 138.781 3.35162 136.695 3.35162C136.623 3.35162 136.548 3.34126 136.482 3.36199C136.433 3.3758 136.365 3.43797 136.365 3.47596C136.355 3.90768 136.358 4.33941 136.358 4.79531C136.508 4.79531 136.603 4.79531 136.701 4.79531C137.364 4.79531 138.024 4.79531 138.686 4.79531C138.919 4.79531 139.037 4.91849 139.039 5.16486C139.039 7.50308 139.039 9.83784 139.039 12.1761C139.039 12.2935 139.049 12.4144 139.055 12.5456H140.564V12.1588C140.564 9.82057 140.567 7.48581 140.558 5.14759C140.558 4.86093 140.652 4.77459 140.897 4.79531C140.976 4.80222 141.057 4.79531 141.139 4.79531C141.782 4.79531 142.425 4.79185 143.072 4.79531C143.274 4.79531 143.356 4.71932 143.35 4.49828C143.336 4.13909 143.346 3.77989 143.346 3.37925Z" fill="black"/>
<path d="M154.891 7.44691C154.891 6.59728 154.888 5.78564 154.901 4.974C154.901 4.90493 155.022 4.77368 155.087 4.77368C156.014 4.78059 156.948 4.76677 157.869 4.84276C158.176 4.87039 158.539 5.04998 158.568 5.52315C158.578 5.67857 158.685 5.82709 158.699 5.98251C158.734 6.50748 158.473 6.90122 158.124 7.22587C157.99 7.35021 157.781 7.43655 157.605 7.44001C156.713 7.46073 155.822 7.45037 154.891 7.45037V7.44691Z" fill="black"/>
</g>
<defs>
<clipPath id="clip0_3_1574">
<rect width="104.881" height="15.6402" fill="white" transform="translate(0.0703125 0.179932)"/>
</clipPath>
<clipPath id="clip1_3_1574">
<rect width="71.945" height="14.8582" fill="white" transform="translate(107.984 0.570557)"/>
</clipPath>
</defs>
</svg>
