<svg width="120" height="32" viewBox="0 0 120 32" fill="none" xmlns="http://www.w3.org/2000/svg">
<path d="M31.5234 4.50885V15.9144H38.6448V13.4669H34.2888V4.48438H31.5234V4.50885Z" fill="black"/>
<path d="M38.3984 10.2413C38.3984 11.9546 38.9613 13.3497 40.087 14.4511C41.2372 15.5525 42.6076 16.1154 44.2473 16.1154C45.8869 16.1154 47.2573 15.5525 48.4075 14.4511C49.5332 13.3497 50.0961 11.9546 50.0961 10.2413C50.0961 8.52801 49.5332 7.13291 48.4075 6.03152C47.2818 4.93012 45.9114 4.36719 44.2473 4.36719C42.5832 4.36719 41.2127 4.93012 40.087 6.03152C38.9613 7.13291 38.3984 8.55249 38.3984 10.2413ZM47.2818 10.2413C47.2818 11.2448 47.0126 12.0525 46.4497 12.6399C45.8869 13.2518 45.1772 13.5455 44.2717 13.5455C43.3418 13.5455 42.6076 13.2518 42.0692 12.6399C41.5064 12.028 41.2617 11.2448 41.2617 10.2413C41.2617 9.2378 41.5309 8.43011 42.0692 7.81823C42.6321 7.23082 43.3663 6.91264 44.2717 6.91264C45.1772 6.91264 45.9114 7.23082 46.4497 7.81823C47.0126 8.43011 47.2818 9.21333 47.2818 10.2413Z" fill="black"/>
<path d="M58.5166 4.50781V11.0672L53.7935 4.50781H51.1016V15.9134H53.8669V9.28053L58.8103 15.9134H61.3064V4.50781H58.5166Z" fill="black"/>
<path d="M62.2891 10.2403C62.2891 11.9535 62.8519 13.3486 63.9776 14.45C65.1278 15.5514 66.4983 16.1144 68.1379 16.1144C69.7041 16.1144 71.0011 15.6004 72.0534 14.5479C73.1057 13.4955 73.6441 12.1493 73.6441 10.485C73.6441 10.02 73.5951 9.62837 73.5217 9.28572H67.0366V11.4396H70.7319C70.634 12.1493 70.3404 12.7123 69.8265 13.0794C69.3125 13.471 68.7252 13.6423 68.0889 13.6423C67.1835 13.6423 66.4493 13.3242 65.9354 12.7123C65.3725 12.1004 65.1278 11.2682 65.1278 10.2403C65.1278 9.21229 65.397 8.4046 65.9354 7.79271C66.4493 7.18082 67.1835 6.86265 68.0645 6.86265C69.2146 6.86265 69.9978 7.37663 70.4138 8.33117H73.5217C73.2281 7.05845 72.5673 6.07943 71.5884 5.39412C70.5851 4.73328 69.4594 4.39062 68.1624 4.39062C66.4983 4.39062 65.1278 4.95356 64.0021 6.05496C62.8274 7.13188 62.2891 8.55145 62.2891 10.2403Z" fill="black"/>
<path d="M76.5781 16.2836H77.557V10.4095H83.724V16.2836H84.7028V4.4375H83.724V9.57735H77.557V4.4375H76.5781V16.2836Z" fill="#010202"/>
<path d="M100.828 16.5044C103.153 16.5044 104.67 15.1093 104.67 13.2736C104.67 11.4624 103.52 10.7282 102.174 10.1163L100.387 9.33308C99.531 8.96595 98.3563 8.45197 98.3563 7.10582C98.3563 5.88205 99.3597 5.09883 100.877 5.09883C102.052 5.09883 102.982 5.56386 103.667 6.29813L104.23 5.66176C103.471 4.85407 102.296 4.24219 100.877 4.24219C98.8457 4.24219 97.353 5.46596 97.353 7.2282C97.353 8.96595 98.6989 9.72469 99.7512 10.1897L101.538 10.9729C102.712 11.4869 103.642 11.952 103.642 13.3715C103.642 14.7177 102.541 15.6477 100.804 15.6477C99.4576 15.6477 98.2339 15.0359 97.3774 14.0813L96.7656 14.7666C97.7445 15.7946 99.1149 16.5044 100.828 16.5044Z" fill="#010202"/>
<path d="M107.141 16.2836H108.12V10.4095H114.286V16.2836H115.265V4.4375H114.286V9.57735H108.12V4.4375H107.141V16.2836Z" fill="#010202"/>
<path d="M89.8662 9.3805C90.3312 8.00988 90.7472 6.73715 91.1632 5.31758H91.2367C91.6527 6.73715 92.0442 8.00988 92.5337 9.3805L93.5126 12.3176L94.8341 16.3071H95.8864L91.7261 4.46094H90.7227L86.5625 16.3071H87.5414L89.8662 9.3805Z" fill="#010202"/>
<path d="M33.8014 28.3239H34.8537L37.1786 21.0547H36.2486L35.074 24.9952C34.8048 25.8519 34.6335 26.5372 34.3643 27.3938H34.3153C34.0461 26.5372 33.8748 25.8519 33.6056 24.9952L32.431 21.0547H31.4766L33.8014 28.3239Z" fill="#010202"/>
<path d="M43.1953 28.3249H47.5024V27.5417H44.1253V24.8984H46.8906V24.1152H44.1253V21.8389H47.4045V21.0312H43.1953V28.3249Z" fill="#010202"/>
<path d="M54.0391 28.3249H54.9201V24.5068C54.9201 23.748 54.8466 22.9648 54.8222 22.2305H54.8711L55.6542 23.7235L58.2972 28.3249H59.2516V21.0312H58.3706V24.8249C58.3706 25.5837 58.444 26.3914 58.493 27.1256H58.444L57.6609 25.6326L54.9935 21.0312H54.0391V28.3249Z" fill="#010202"/>
<path d="M67.7415 28.3249H68.6715V21.8389H70.874V21.0312H65.5391V21.8145H67.7415V28.3249Z" fill="#010202"/>
<path d="M79.7591 28.4473C81.2519 28.4473 82.3776 27.6641 82.3776 25.3145V21.0312H81.4967V25.3389C81.4967 27.1012 80.738 27.6396 79.7591 27.6396C78.8047 27.6396 78.0706 27.1012 78.0706 25.3389V21.0312H77.1406V25.3145C77.1651 27.6396 78.2908 28.4473 79.7591 28.4473Z" fill="#010202"/>
<path d="M89.3516 28.3239H90.2815V25.24H91.603L93.365 28.3239H94.4173L92.5574 25.1421C93.5608 24.8973 94.197 24.2365 94.197 23.1106C94.197 21.5931 93.1447 21.0547 91.6519 21.0547H89.376V28.3239H89.3516ZM90.2815 24.4813V21.789H91.5051C92.6553 21.789 93.2671 22.1316 93.2671 23.0861C93.2671 24.0162 92.6308 24.4813 91.5051 24.4813H90.2815Z" fill="#010202"/>
<path d="M100.68 28.3249H104.987V27.5417H101.61V24.8984H104.375V24.1152H101.61V21.8389H104.889V21.0312H100.68V28.3249Z" fill="#010202"/>
<path d="M113.553 28.4515C115.07 28.4515 116.025 27.5459 116.025 26.3955C116.025 25.3186 115.364 24.8291 114.532 24.462L113.479 24.0214C112.917 23.7767 112.28 23.5074 112.28 22.8221C112.28 22.1613 112.819 21.7452 113.651 21.7452C114.336 21.7452 114.85 22.0144 115.315 22.4305L115.804 21.8431C115.29 21.3046 114.532 20.9375 113.651 20.9375C112.329 20.9375 111.35 21.7452 111.35 22.8711C111.35 23.9235 112.158 24.4375 112.819 24.7312L113.871 25.1962C114.556 25.5144 115.095 25.7347 115.095 26.4934C115.095 27.2032 114.507 27.6927 113.577 27.6927C112.819 27.6927 112.085 27.3256 111.571 26.7871L111.008 27.4235C111.644 28.0354 112.525 28.4515 113.553 28.4515Z" fill="#010202"/>
<path d="M25.5778 13.6138L16.7434 15.8411C14.8346 14.7887 14.2473 13.981 13.7578 12.3411L16.7923 14.1034L23.9382 12.2188C24.3787 12.8306 24.7213 13.1243 25.5778 13.6138Z" fill="white"/>
<path d="M16.7422 17.6322V15.821L25.5766 13.5938V14.8665C25.5032 15.2091 25.4053 15.3315 25.0627 15.5028L16.7422 17.6322Z" fill="black"/>
<path d="M16.7438 17.6268L15.2266 16.7457V18.5079L17.2088 19.6827V23.2317L15.2266 23.7457V27.5394L24.061 25.1408V15.7422L16.7438 17.6268Z" fill="black"/>
<path d="M15.3506 20.1279L15.2881 20.0918L12.4395 18.4326L14.0332 18.0088L17.082 19.7578V23.1377L15.3506 23.5869V20.1279Z" fill="white" stroke="black" stroke-width="0.25"/>
<path d="M25.2402 17.5576L25.1758 17.5215L24.1875 16.9697V15.8721L24.5654 15.793L24.5879 15.8057L26.9717 17.1641V20.6152L25.2402 21.0215V17.5576Z" fill="white" stroke="black" stroke-width="0.25"/>
<path d="M19.5801 27.6406V29.3291L16.8447 30.0244V28.5693C16.8531 28.5577 16.8602 28.5446 16.8643 28.5303C16.8793 28.4765 16.8571 28.4189 16.8096 28.3896L15.5342 27.6074L18.124 26.8682L19.5801 27.6406Z" fill="white" stroke="black" stroke-width="0.25" stroke-linejoin="round"/>
<path d="M22.7207 26.7891L22.6582 26.7529L21.3965 26.0195L23.9717 25.3057L25.4316 26.1719V27.8154L22.7207 28.5098V26.7891Z" fill="white" stroke="black" stroke-width="0.25"/>
<path d="M1.91406 9.0625L4.9486 10.8737V14.2513L7.98313 16.0135V16.9436L6.68611 17.2862L9.30462 18.8037V24.1639L6.68611 22.6464V19.4401L4.92413 18.3876V14.2513L1.91406 12.4891V9.0625Z" fill="black"/>
<path d="M5.09766 10.875C5.09766 10.8309 5.07508 10.7891 5.03711 10.7666L2.23535 9.1084L4.80664 8.43848L7.73535 10.1865V13.5674C7.73552 13.6121 7.75994 13.6536 7.79883 13.6758L9.66895 14.7402V18.543L9.29395 18.668L7.03125 17.3311L8.03906 17.0654C8.09392 17.0509 8.13281 17.0011 8.13281 16.9443V16.0146C8.13281 15.9701 8.10883 15.9286 8.07031 15.9062L5.09766 14.1797V10.875Z" fill="white" stroke="black" stroke-width="0.25" stroke-linejoin="round"/>
<path d="M9.79309 24.409L9.32812 24.1643V18.8041L9.79309 18.6328V24.409Z" fill="#555454"/>
<path d="M16.7469 30.1891L9.79688 26.1751V7.0843C9.84582 6.83954 9.87029 6.71717 10.0416 6.57031L13.7124 8.72415V10.4864L16.8204 12.2976V14.1088L13.7858 12.4199C14.3242 14.0843 14.9605 14.843 16.7714 15.871V17.6822L15.2541 16.8011V18.5633L14.0795 17.9269L12.1462 18.4409L15.2541 20.2521V27.6192L16.7714 28.5003V30.1891H16.7469Z" fill="black"/>
<path d="M11.0927 9.64956C11.215 9.13557 11.9492 9.03767 12.2673 9.64956C11.7045 9.91879 11.5577 10.1146 11.9737 10.751C11.3619 10.702 10.9703 10.1635 11.0927 9.64956Z" fill="white"/>
<path d="M10.0391 6.54393C10.1125 6.42155 10.1859 6.3726 10.3327 6.29918L17.9925 4.36561C18.4574 4.34114 18.6777 4.39009 19.0448 4.48799L22.4953 6.4705V8.23273L25.6033 10.0439V11.2677C25.5543 11.6103 25.4565 11.7572 25.1873 11.9041L16.8178 14.0579V12.2467L13.7099 10.4355V8.67329L10.0391 6.54393Z" fill="black"/>
<path d="M25.1148 17.6265L24.0625 17.0391V20.6614L25.1148 21.1754V17.6265Z" fill="black"/>
<path d="M22.5964 26.8577L21.0791 25.9766L19.0234 26.4905L22.5964 28.5954V26.8577Z" fill="black"/>
<path fill-rule="evenodd" clip-rule="evenodd" d="M17.5781 19.5121L18.3368 19.3408V17.8723L19.3891 17.6275V19.096L20.9063 18.7534V17.187L21.9097 17.0156V18.4842L22.6194 18.3128V19.3653L21.9097 19.5366V21.9352L22.6194 21.7639V22.8653L21.9097 23.0366V24.5051L20.9063 24.7499V23.4037L19.3891 23.7464V25.0925L18.3368 25.3862V23.9911L17.5781 24.1625V23.0611L18.3368 22.8897V20.6135L17.5781 20.7848V19.5121ZM20.9063 19.8548L19.3891 20.2709V22.5471L20.9063 22.131V19.8548Z" fill="white"/>
</svg>
