<svg width="166" height="26" viewBox="0 0 166 26" fill="none" xmlns="http://www.w3.org/2000/svg">
<g clip-path="url(#clip0_3_1308)">
<path d="M40.8186 17.7701C40.7098 17.7701 40.6043 17.7701 40.4989 17.7701C39.6383 17.7659 38.7789 17.7596 37.9184 17.7585C37.391 17.7585 36.8646 17.7659 36.3372 17.7701C36.3006 17.7701 36.2628 17.7722 36.2262 17.7701C36.1462 17.7648 36.1018 17.726 36.0963 17.6609C36.0907 17.5978 36.1262 17.539 36.1973 17.5243C36.305 17.5022 36.4161 17.4896 36.526 17.4781C36.8258 17.4476 37.1056 17.3678 37.341 17.1819C37.4709 17.08 37.5631 16.9508 37.6352 16.8069C37.8462 16.3856 37.9162 15.934 37.975 15.4791C38.0239 15.1031 38.0805 14.727 38.1305 14.351C38.1549 14.1693 38.1682 13.9865 38.1926 13.8048C38.2437 13.4287 38.3014 13.0537 38.3514 12.6777C38.3792 12.4697 38.3914 12.2606 38.418 12.0527C38.4647 11.6987 38.5213 11.3447 38.569 10.9907C38.5957 10.7922 38.6101 10.5915 38.6368 10.3919C38.6867 10.0117 38.7456 9.63144 38.7922 9.25119C38.8422 8.84888 38.8922 8.44552 38.9233 8.04111C38.9432 7.7806 38.931 7.518 38.9266 7.25644C38.9233 7.04636 38.8477 6.85203 38.7423 6.67241C38.6168 6.45708 38.4158 6.31842 38.166 6.24804C37.9217 6.17976 37.6763 6.11779 37.4176 6.13144C37.3732 6.13355 37.3254 6.12094 37.2821 6.10834C37.1844 6.08102 37.1578 6.03796 37.1667 5.94237C37.1722 5.8867 37.2 5.85203 37.2599 5.84783C37.3199 5.84363 37.3798 5.84153 37.4398 5.84153C38.5446 5.84153 39.6505 5.84258 40.7554 5.84048C41.0418 5.84048 41.3283 5.82787 41.6148 5.82157C41.6559 5.82157 41.6981 5.82157 41.7391 5.82577C41.8124 5.83523 41.8668 5.86779 41.8935 5.93922C41.9978 6.21863 42.1033 6.49804 42.2099 6.7764C42.2943 6.99804 42.382 7.21758 42.4675 7.43922C42.5697 7.70497 42.6707 7.97178 42.7729 8.23754C42.8928 8.54846 43.0138 8.85939 43.1326 9.17136C43.247 9.47073 43.3603 9.7701 43.4746 10.0695C43.6045 10.4098 43.7356 10.7491 43.8655 11.0894C43.991 11.4172 44.1164 11.7449 44.2419 12.0726C44.4029 12.4949 44.5639 12.9172 44.7249 13.3405C44.7749 13.4718 44.8204 13.6041 44.8704 13.7354C44.8848 13.7754 44.9059 13.8121 44.9237 13.852C45.0258 13.8226 45.0425 13.7438 45.068 13.6766C45.1457 13.4718 45.2157 13.2638 45.2923 13.0579C45.4566 12.6136 45.6254 12.1703 45.7897 11.726C45.9452 11.3058 46.0951 10.8846 46.2494 10.4655C46.4071 10.0369 46.5703 9.61044 46.7291 9.18291C46.9367 8.62304 47.1422 8.06317 47.3487 7.50329C47.4964 7.10413 47.6463 6.70602 47.7951 6.30687C47.8428 6.17976 47.8917 6.05266 47.935 5.92346C47.9605 5.84993 48.0082 5.81737 48.0893 5.82052C48.2836 5.82577 48.4768 5.82997 48.6711 5.83523C48.7455 5.83733 48.8188 5.84048 48.8932 5.84048C50.008 5.84048 51.1217 5.84048 52.2365 5.84048C52.2831 5.84048 52.3287 5.84048 52.3753 5.84048C52.4908 5.84258 52.5185 5.86254 52.5263 5.94867C52.5363 6.05792 52.5041 6.09783 52.3875 6.11569C52.3464 6.12199 52.3042 6.13144 52.2643 6.12934C52.0389 6.11779 51.8223 6.16716 51.6092 6.22178C51.3649 6.28481 51.1384 6.38565 50.9896 6.59048C50.9329 6.66821 50.8808 6.75434 50.8508 6.84363C50.7775 7.06422 50.7164 7.28796 50.7231 7.52325C50.7309 7.75855 50.7331 7.99384 50.7486 8.22913C50.7586 8.37199 50.793 8.5138 50.8086 8.65665C50.863 9.1556 50.913 9.65455 50.9663 10.1525C50.9985 10.4518 51.0351 10.7501 51.0684 11.0495C51.1073 11.3919 51.1461 11.7344 51.185 12.0758C51.2216 12.4004 51.2594 12.726 51.2983 13.0506C51.3193 13.2323 51.3416 13.414 51.3638 13.5957C51.3926 13.8342 51.4248 14.0716 51.4515 14.31C51.497 14.7354 51.5281 15.1619 51.5869 15.5852C51.6347 15.9308 51.7035 16.2733 51.7802 16.6136C51.8257 16.8153 51.9212 16.998 52.0855 17.1472C52.1854 17.2375 52.2931 17.3111 52.4219 17.3478C52.6151 17.4025 52.8083 17.4686 53.016 17.4676C53.0893 17.4676 53.1637 17.4791 53.2347 17.4949C53.3191 17.5148 53.3402 17.5579 53.3313 17.6567C53.3247 17.7302 53.2947 17.7617 53.2047 17.7648C53.0893 17.7701 52.9738 17.7669 52.8583 17.7648C52.6318 17.7617 52.4053 17.7554 52.1788 17.7543C50.8241 17.7533 49.4695 17.7522 48.1137 17.7533C47.9383 17.7533 47.7629 17.7627 47.5874 17.7659C47.5419 17.7659 47.4975 17.7617 47.4531 17.7596C47.4453 17.7396 47.4375 17.7291 47.4364 17.7165C47.4175 17.4949 47.4331 17.477 47.6718 17.4739C47.9416 17.4697 48.2059 17.4329 48.4602 17.3457C48.6922 17.2659 48.8366 17.1062 48.921 16.8877C49.0398 16.58 49.0387 16.2617 49.0098 15.9434C48.9776 15.5831 48.9298 15.2239 48.8899 14.8646C48.8555 14.5527 48.8277 14.2396 48.7922 13.9277C48.7366 13.4424 48.6745 12.9571 48.6189 12.4718C48.6001 12.3111 48.5967 12.1493 48.579 11.9896C48.5257 11.5085 48.4679 11.0275 48.4146 10.5464C48.3913 10.3384 48.3813 10.1283 48.358 9.92031C48.3058 9.45182 48.247 8.98439 48.1948 8.5159C48.1692 8.28165 48.1581 8.04636 48.1315 7.81212C48.1171 7.68817 48.0838 7.56527 48.0593 7.44237C48.0482 7.44132 48.0371 7.43922 48.026 7.43817C48.0038 7.48649 47.9772 7.53376 47.9594 7.58313C47.815 7.96443 47.674 8.34783 47.5286 8.72808C47.3265 9.25644 47.1188 9.78376 46.9168 10.3121C46.7991 10.6199 46.6891 10.9298 46.5725 11.2375C46.4593 11.5369 46.3405 11.8342 46.2261 12.1335C46.1217 12.4077 46.0207 12.684 45.9152 12.9581C45.7909 13.2817 45.6609 13.6031 45.5366 13.9266C45.4289 14.205 45.3267 14.4854 45.2212 14.7638C45.1202 15.0306 45.0169 15.2964 44.9159 15.5621C44.7971 15.8741 44.6805 16.1861 44.5617 16.497C44.4384 16.8216 44.3141 17.1451 44.1919 17.4686C44.1597 17.5548 44.1331 17.643 44.0975 17.7281C44.072 17.788 44.0454 17.8625 43.961 17.8573C43.8832 17.8531 43.8544 17.788 43.8277 17.7228C43.6045 17.1598 43.3814 16.5968 43.1548 16.0348C42.925 15.4644 42.6918 14.8951 42.462 14.3247C42.3043 13.934 42.1533 13.5401 41.9967 13.1483C41.8657 12.8226 41.728 12.4991 41.597 12.1735C41.5248 11.9938 41.4604 11.8121 41.3894 11.6325C41.2917 11.3877 41.1906 11.144 41.0929 10.9004C40.903 10.4235 40.7143 9.94552 40.5233 9.46863C40.3912 9.1388 40.2546 8.81002 40.1213 8.48018C40.0469 8.29636 39.977 8.11254 39.9048 7.92871C39.8515 7.79426 39.8038 7.65771 39.7438 7.52535C39.7216 7.47703 39.6739 7.43922 39.6183 7.37409C39.6028 7.43292 39.5906 7.46338 39.5873 7.49384C39.5439 7.87094 39.5006 8.24804 39.4607 8.62514C39.4429 8.79426 39.4351 8.96443 39.4163 9.13355C39.3763 9.48859 39.3319 9.84363 39.2908 10.1987C39.253 10.519 39.2164 10.8405 39.1809 11.1609C39.162 11.3342 39.1464 11.5075 39.1264 11.6808C39.0654 12.2134 39.001 12.7459 38.9399 13.2796C38.9244 13.414 38.921 13.5495 38.9055 13.684C38.8444 14.2123 38.7767 14.7407 38.7201 15.269C38.6879 15.5768 38.6645 15.8856 38.6512 16.1955C38.6423 16.4098 38.6768 16.6241 38.7523 16.8258C38.8688 17.1388 39.1398 17.2796 39.4596 17.352C39.8338 17.4371 40.2146 17.4707 40.5999 17.4728C40.8264 17.4739 40.8586 17.5138 40.8164 17.7638L40.8186 17.7701Z" fill="black"/>
<path d="M136.53 17.6718C136.528 17.698 136.522 17.7274 136.522 17.7558C136.523 18.5804 136.522 19.406 136.529 20.2306C136.532 20.614 136.547 20.9984 136.568 21.3819C136.585 21.7085 136.685 21.8041 137.031 21.8367C137.269 21.8587 137.51 21.8629 137.75 21.8745C137.813 21.8776 137.877 21.8808 137.95 21.884V22.1665C137.455 22.177 136.963 22.1424 136.471 22.1434C135.976 22.1445 135.482 22.1392 134.986 22.1434C134.492 22.1476 133.999 22.1613 133.494 22.1707V21.926C133.541 21.9186 133.585 21.9113 133.631 21.9029C133.694 21.8924 133.76 21.885 133.821 21.8692C134.04 21.8115 134.135 21.718 134.15 21.5016C134.175 21.1539 134.198 20.8052 134.199 20.4564C134.204 18.719 134.201 16.9827 134.201 15.2453C134.201 14.2201 134.201 13.1938 134.201 12.1686C134.201 12.0856 134.201 12.0026 134.199 11.9197C134.194 11.6739 134.125 11.448 133.965 11.2484C133.834 11.0846 133.715 10.9134 133.593 10.7432C133.559 10.6949 133.533 10.6403 133.495 10.5751C133.574 10.5468 133.632 10.5226 133.692 10.5037C134.518 10.2484 135.332 9.96483 136.119 9.61504C136.207 9.57618 136.292 9.53311 136.38 9.4932C136.409 9.47954 136.438 9.46483 136.468 9.45538C136.559 9.42807 136.599 9.45538 136.592 9.54887C136.583 9.68332 136.563 9.81778 136.557 9.95328C136.544 10.2148 136.538 10.4764 136.529 10.7379C136.529 10.7495 136.535 10.7611 136.543 10.7842C136.583 10.7537 136.619 10.7285 136.652 10.7012C137.137 10.3115 137.66 9.97849 138.245 9.73689C138.732 9.53626 139.237 9.43227 139.77 9.48059C140.548 9.55097 141.221 9.83563 141.771 10.3671C142.317 10.8955 142.641 11.5289 142.787 12.2505C142.904 12.8346 142.909 13.4207 142.821 14.0079C142.709 14.7642 142.437 15.4617 141.961 16.0814C141.52 16.656 140.971 17.115 140.305 17.447C139.955 17.6203 139.59 17.7537 139.206 17.8388C138.665 17.9585 138.119 17.9827 137.567 17.9144C137.254 17.8755 136.95 17.8073 136.658 17.6938C136.628 17.6823 136.596 17.6739 136.565 17.6665C136.558 17.6644 136.548 17.6686 136.531 17.6718H136.53ZM136.534 10.9669C136.528 10.9953 136.523 11.0079 136.523 11.0205C136.523 12.177 136.523 13.3346 136.527 14.4911C136.527 14.8188 136.527 15.1466 136.545 15.4732C136.572 15.9449 136.682 16.3976 136.953 16.8031C137.098 17.0205 137.284 17.2064 137.535 17.3136C137.947 17.489 138.375 17.5111 138.806 17.3798C139.28 17.2348 139.604 16.9197 139.849 16.5237C140.174 15.9963 140.326 15.4186 140.385 14.8188C140.426 14.3976 140.443 13.9743 140.393 13.551C140.327 12.9974 140.177 12.4701 139.865 11.9942C139.411 11.3031 138.785 10.8556 137.9 10.7873C137.431 10.7516 136.98 10.8199 136.534 10.9669Z" fill="black"/>
<path d="M124.333 9.60465C124.31 9.55633 124.292 9.51852 124.275 9.4786C124.094 9.03428 123.889 8.60045 123.632 8.18974C123.347 7.7307 122.995 7.32209 122.562 6.9807C122.055 6.58154 121.472 6.34625 120.818 6.26957C120.238 6.20234 119.666 6.23806 119.104 6.39667C118.604 6.53743 118.16 6.77377 117.77 7.0973C116.977 7.75591 116.491 8.5889 116.24 9.55003C116.08 10.1593 116.027 10.7801 116.042 11.4061C116.055 12.007 116.143 12.5973 116.324 13.1729C116.551 13.8956 116.903 14.5563 117.436 15.1278C117.958 15.6866 118.584 16.0984 119.317 16.3641C119.698 16.5028 120.096 16.5784 120.505 16.6068C120.848 16.6309 121.19 16.6225 121.529 16.5847C122.432 16.486 123.229 16.1666 123.887 15.5584C124.241 15.2318 124.524 14.8578 124.766 14.4523C124.795 14.404 124.828 14.3578 124.866 14.3011C124.918 14.3315 124.96 14.3557 125.009 14.3851C124.994 14.4345 124.982 14.4797 124.967 14.5248C124.769 15.0742 124.573 15.6236 124.372 16.1708C124.349 16.2297 124.31 16.2895 124.264 16.3336C123.64 16.9271 122.898 17.3378 122.06 17.6026C121.54 17.7675 121.007 17.8725 120.463 17.9177C119.887 17.966 119.311 17.9555 118.734 17.8809C118.014 17.7874 117.326 17.591 116.672 17.2969C116.004 16.9965 115.402 16.6047 114.888 16.0952C114.528 15.7391 114.216 15.3505 113.965 14.9219C113.697 14.4618 113.5 13.9734 113.376 13.4597C113.228 12.8515 113.18 12.237 113.217 11.6141C113.247 11.111 113.336 10.6173 113.492 10.1362C113.649 9.65507 113.866 9.19919 114.143 8.76642C114.436 8.30739 114.79 7.89457 115.193 7.52062C115.577 7.16453 116.009 6.86516 116.474 6.60781C116.987 6.32419 117.531 6.10781 118.099 5.94919C118.489 5.83995 118.886 5.76222 119.292 5.71495C119.951 5.63722 120.611 5.63722 121.269 5.7118C122.089 5.80423 122.865 6.03848 123.615 6.35676C123.729 6.40507 123.841 6.4576 123.956 6.50276C124.027 6.53112 124.061 6.57314 124.071 6.64877C124.127 7.04163 124.191 7.43449 124.251 7.82734C124.328 8.3368 124.405 8.84625 124.483 9.3557C124.507 9.51642 124.508 9.51537 124.333 9.60465Z" fill="black"/>
<path d="M103.206 10.7779C103.306 10.7086 103.387 10.6518 103.469 10.5962C103.97 10.2485 104.494 9.93965 105.068 9.71276C105.39 9.58566 105.721 9.48797 106.071 9.47642C106.417 9.46486 106.753 9.52684 107.058 9.6886C107.613 9.98377 107.944 10.4365 108.104 11.0132C108.176 11.2737 108.193 11.5384 108.193 11.8041C108.195 13.1266 108.193 14.4491 108.195 15.7716C108.195 16.1245 108.206 16.4785 108.216 16.8315C108.218 16.9313 108.231 17.0321 108.244 17.1308C108.271 17.3336 108.37 17.4323 108.585 17.4722C108.688 17.4911 108.792 17.5058 108.903 17.5237V17.7705C108.488 17.7621 108.075 17.7506 107.662 17.7464C107.246 17.7422 106.829 17.7422 106.414 17.7464C105.999 17.7506 105.585 17.7632 105.162 17.7716V17.53C105.208 17.5216 105.256 17.5153 105.304 17.5058C105.389 17.489 105.477 17.4764 105.559 17.4502C105.719 17.3997 105.813 17.2926 105.824 17.1319C105.844 16.8315 105.87 16.531 105.872 16.2306C105.878 15.2621 105.879 14.2926 105.872 13.3241C105.87 12.9491 105.854 12.5731 105.771 12.2044C105.691 11.8525 105.579 11.5121 105.323 11.2317C105.112 11.0006 104.845 10.8682 104.525 10.8241C104.107 10.7663 103.706 10.8273 103.314 10.9638C103.197 11.0048 103.197 11.0069 103.197 11.1235C103.197 12.8472 103.197 14.572 103.201 16.2957C103.201 16.5741 103.225 16.8535 103.248 17.1319C103.265 17.3262 103.359 17.4197 103.562 17.4649C103.647 17.4838 103.735 17.4922 103.821 17.5058C103.926 17.5216 103.936 17.53 103.938 17.6308C103.938 17.6739 103.935 17.7159 103.931 17.7768C102.674 17.7327 101.424 17.7317 100.166 17.7758V17.53C100.272 17.5121 100.374 17.5048 100.469 17.4775C100.556 17.4523 100.641 17.4134 100.716 17.3661C100.796 17.3147 100.829 17.2275 100.834 17.1382C100.854 16.8378 100.883 16.5373 100.884 16.2369C100.89 14.8315 100.884 13.426 100.889 12.0205C100.889 11.7401 100.82 11.488 100.642 11.26C100.517 11.0983 100.406 10.927 100.288 10.759C100.268 10.7296 100.246 10.7012 100.23 10.6697C100.197 10.6004 100.21 10.5668 100.288 10.5394C100.37 10.51 100.455 10.4859 100.537 10.4596C101.396 10.1865 102.238 9.87348 103.052 9.49638C103.106 9.47117 103.164 9.41865 103.231 9.46171C103.294 9.50268 103.256 9.5657 103.253 9.61928C103.235 9.98062 103.216 10.343 103.198 10.7044C103.198 10.7212 103.202 10.738 103.207 10.78L103.206 10.7779Z" fill="black"/>
<path d="M59.1167 16.8225C59.0579 16.8635 58.999 16.9045 58.9402 16.9444C58.3506 17.3446 57.7199 17.666 57.017 17.8551C56.6606 17.9507 56.2986 17.9833 55.9333 17.9202C55.5958 17.8614 55.2926 17.7312 55.0362 17.5074C54.5798 17.1093 54.3688 16.6051 54.3233 16.0337C54.3011 15.7553 54.3 15.4759 54.3 15.1965C54.2978 13.8656 54.3 12.5337 54.2978 11.2028C54.2978 11.0767 54.2878 10.9496 54.2689 10.8257C54.2456 10.6639 54.1479 10.54 53.9946 10.4696C53.8714 10.4129 53.7381 10.3751 53.6071 10.333C53.556 10.3162 53.5005 10.3099 53.4395 10.2973V10.102C53.8025 10.0599 54.1645 10.0253 54.5232 9.97381C54.884 9.92233 55.2438 9.86141 55.6002 9.79208C55.9555 9.72275 56.3086 9.63872 56.6762 9.55784C56.6862 9.60616 56.7006 9.63872 56.6984 9.67023C56.6129 11.2007 56.6295 12.7333 56.6284 14.2648C56.6284 14.4486 56.6262 14.6314 56.6317 14.8152C56.6429 15.1471 56.6728 15.478 56.7661 15.7994C56.8338 16.0337 56.9349 16.2501 57.1236 16.4255C57.2413 16.5358 57.3779 16.6156 57.5311 16.6671C58.0164 16.8299 58.6859 16.79 59.1478 16.5915C59.1478 16.5568 59.1478 16.5148 59.1478 16.4717C59.1478 14.6912 59.1478 12.9097 59.1478 11.1293C59.1478 11.0337 59.1378 10.9381 59.1234 10.8425C59.0956 10.6534 58.9835 10.519 58.7981 10.4496C58.6704 10.4013 58.5338 10.3719 58.4017 10.3351C58.3495 10.3204 58.2962 10.3099 58.2362 10.2952V10.1009C58.606 10.0547 58.9713 10.0137 59.3355 9.96015C59.7052 9.90658 60.0739 9.8467 60.4414 9.77843C60.8023 9.71225 61.1609 9.63347 61.544 9.55469C61.544 9.63557 61.5451 9.69439 61.544 9.75322C61.524 10.4202 61.4907 11.0883 61.4863 11.7553C61.4774 13.2784 61.4818 14.8026 61.4829 16.3257C61.4829 16.4339 61.4996 16.5431 61.5185 16.6503C61.5484 16.8215 61.6639 16.9181 61.8405 16.9486C61.9171 16.9623 61.9959 16.9675 62.0747 16.9759C62.1203 16.9812 62.1647 16.9843 62.2213 16.9896V17.1681C62.0592 17.2028 61.8982 17.2364 61.7361 17.2711C60.9333 17.4412 60.1383 17.6356 59.3621 17.8971C59.3188 17.9118 59.2766 17.9318 59.2322 17.9423C59.19 17.9517 59.1456 17.9517 59.0856 17.957C59.109 17.5725 59.1301 17.2049 59.1523 16.8373C59.1401 16.832 59.1278 16.8257 59.1167 16.8204V16.8225Z" fill="black"/>
<path d="M90.338 9.46199C91.0475 9.47459 91.6671 9.59644 92.2622 9.83279C92.9129 10.0912 93.4692 10.4767 93.9389 10.9672C94.5007 11.5544 94.8527 12.2403 94.9815 13.0261C95.0826 13.6448 95.0426 14.253 94.8583 14.8527C94.7117 15.3307 94.4752 15.7687 94.1632 16.1689C93.6446 16.8328 92.9718 17.3097 92.1656 17.6174C91.3873 17.9137 90.5811 18.0177 89.7461 17.9032C88.7624 17.7677 87.8963 17.3906 87.1601 16.7624C86.5383 16.2319 86.1175 15.5807 85.8987 14.8139C85.7677 14.3527 85.7266 13.8853 85.7666 13.4126C85.8221 12.7593 86.0353 12.1511 86.3951 11.588C86.7526 11.0282 87.2212 10.5712 87.8008 10.2172C88.4148 9.84329 89.081 9.59644 89.8083 9.50821C90.0049 9.48405 90.2036 9.47249 90.3369 9.46094L90.338 9.46199ZM88.3782 13.7151C88.3782 13.837 88.376 13.9599 88.3782 14.0817C88.3871 14.4536 88.4348 14.8223 88.5037 15.1868C88.5792 15.587 88.7013 15.9746 88.8712 16.3506C88.9955 16.6259 89.1521 16.8822 89.3653 17.1038C89.7495 17.503 90.2269 17.6248 90.7766 17.5061C91.1508 17.4252 91.4306 17.2099 91.656 16.9263C91.8969 16.6217 92.0557 16.2792 92.1712 15.9179C92.3577 15.3328 92.4299 14.7309 92.4399 14.1227C92.4454 13.7918 92.4421 13.4588 92.4155 13.128C92.3877 12.7897 92.3388 12.4515 92.2744 12.1174C92.2056 11.7656 92.0868 11.4252 91.9358 11.0954C91.8136 10.8286 91.6637 10.5796 91.4594 10.3622C91.1041 9.98615 90.6633 9.82123 90.1292 9.90737C89.7295 9.97144 89.4241 10.1784 89.1799 10.4746C88.9323 10.775 88.7712 11.1164 88.6524 11.4777C88.4126 12.2078 88.3582 12.9588 88.3804 13.7162L88.3782 13.7151Z" fill="black"/>
<path d="M158.286 16.6665C158.227 16.7264 158.183 16.7747 158.135 16.8199C157.927 17.0121 157.726 17.2117 157.508 17.3934C157.211 17.6403 156.865 17.8094 156.468 17.8556C155.686 17.9449 155.005 17.7043 154.556 17.0709C154.382 16.8251 154.291 16.5468 154.264 16.2485C154.248 16.0688 154.242 15.8913 154.284 15.7148C154.362 15.3861 154.561 15.1329 154.862 14.9617C155.146 14.7999 155.437 14.6445 155.739 14.5163C156.548 14.1739 157.366 13.8482 158.18 13.5153C158.222 13.4985 158.264 13.4795 158.319 13.4554C158.319 13.4071 158.319 13.3556 158.319 13.3052C158.319 12.8472 158.307 12.3882 158.323 11.9302C158.346 11.2558 157.862 10.8482 157.313 10.697C157.028 10.6182 156.734 10.5877 156.436 10.6329C155.954 10.7064 155.827 10.9858 155.841 11.3493C155.856 11.6802 155.871 12.0121 155.97 12.3335C155.973 12.3461 155.972 12.3598 155.973 12.384C155.944 12.3966 155.913 12.4134 155.88 12.4228C155.454 12.5384 155.019 12.6245 154.579 12.6739C154.399 12.6938 154.349 12.6382 154.363 12.4627C154.385 12.1823 154.484 11.927 154.626 11.6844C154.928 11.1697 155.328 10.7348 155.808 10.3608C156.217 10.0415 156.667 9.78942 157.171 9.62345C157.681 9.45538 158.2 9.43122 158.729 9.51736C159.14 9.58459 159.522 9.71904 159.873 9.93017C160.207 10.1319 160.461 10.3976 160.565 10.7663C160.608 10.9207 160.628 11.0846 160.626 11.2442C160.616 12.0037 160.591 12.7621 160.577 13.5216C160.562 14.2768 160.553 15.031 160.542 15.7863C160.54 15.9281 160.569 16.0636 160.629 16.1938C160.719 16.3892 160.875 16.5037 161.101 16.5352C161.371 16.572 161.626 16.5457 161.855 16.3913C161.88 16.3745 161.911 16.365 161.936 16.3545C161.995 16.3829 161.974 16.4239 161.966 16.4606C161.885 16.8829 161.645 17.2127 161.31 17.4943C160.457 18.2127 158.867 17.9575 158.355 16.8146C158.336 16.7716 158.314 16.7285 158.285 16.6655L158.286 16.6665ZM158.292 13.76C158.252 13.781 158.232 13.7915 158.213 13.802C157.889 13.9943 157.563 14.1854 157.241 14.3819C157.134 14.448 157.03 14.5226 156.934 14.6035C156.738 14.7663 156.602 14.968 156.562 15.2148C156.52 15.4722 156.532 15.7295 156.624 15.9764C156.749 16.3146 156.995 16.5342 157.373 16.6024C157.594 16.6424 157.815 16.6256 158.031 16.5667C158.118 16.5426 158.203 16.5111 158.292 16.4827V13.76Z" fill="black"/>
<path d="M133.295 16.3451C133.313 16.8504 132.798 17.5678 132.093 17.7999C131.591 17.9649 131.098 17.9197 130.62 17.7201C130.135 17.5163 129.821 17.155 129.625 16.6749C129.584 16.7117 129.555 16.7359 129.529 16.7621C129.302 16.9985 129.067 17.2264 128.801 17.426C128.503 17.6518 128.172 17.8157 127.791 17.8567C127.245 17.9155 126.734 17.823 126.291 17.4869C125.92 17.2054 125.696 16.8441 125.618 16.4071C125.576 16.1718 125.558 15.9312 125.622 15.6917C125.699 15.4092 125.861 15.1833 126.11 15.0132C126.387 14.822 126.692 14.6728 127.005 14.5426C127.77 14.2243 128.538 13.9134 129.306 13.5993C129.42 13.5531 129.533 13.5069 129.645 13.4607C129.649 13.4344 129.652 13.4176 129.652 13.3997C129.652 12.8756 129.653 12.3525 129.651 11.8283C129.65 11.551 129.548 11.3073 129.35 11.1014C129.192 10.9365 129 10.8167 128.78 10.7401C128.454 10.6256 128.116 10.5857 127.772 10.6329C127.306 10.697 127.158 10.9754 127.174 11.3472C127.187 11.6739 127.2 12.0016 127.299 12.3188C127.306 12.3388 127.302 12.3609 127.305 12.3924C127.25 12.4102 127.2 12.4312 127.148 12.4438C126.755 12.5415 126.357 12.6245 125.953 12.6707C125.732 12.6959 125.686 12.655 125.699 12.448C125.716 12.1896 125.809 11.9543 125.934 11.7285C126.251 11.1634 126.697 10.7022 127.22 10.3031C127.698 9.93859 128.23 9.67494 128.828 9.53733C129.234 9.44384 129.644 9.45435 130.053 9.51842C130.445 9.57935 130.811 9.70645 131.151 9.90183C131.528 10.1182 131.808 10.4092 131.914 10.8251C131.938 10.9218 131.957 11.0237 131.956 11.1224C131.946 11.842 131.93 12.5625 131.917 13.2821C131.903 14.1203 131.885 14.9575 131.878 15.7957C131.878 15.9228 131.913 16.0562 131.957 16.177C132.033 16.3829 132.198 16.5016 132.428 16.5363C132.703 16.5772 132.962 16.5447 133.195 16.3892C133.22 16.3724 133.251 16.364 133.293 16.3462L133.295 16.3451ZM129.622 13.7674C129.585 13.7852 129.563 13.7926 129.544 13.8041C129.204 14.0069 128.861 14.2043 128.527 14.4144C128.394 14.4985 128.274 14.6035 128.16 14.7107C128.011 14.8493 127.924 15.0247 127.894 15.2191C127.854 15.4764 127.866 15.7327 127.959 15.9806C128.05 16.2254 128.205 16.4228 128.462 16.5279C128.851 16.6875 129.234 16.6287 129.622 16.4827V13.7663V13.7674Z" fill="black"/>
<path d="M62.8133 17.771V17.5304C62.8477 17.522 62.881 17.5126 62.9155 17.5063C62.9477 17.501 62.9799 17.5021 63.0121 17.4979C63.3629 17.4485 63.4873 17.3256 63.5028 16.9905C63.5195 16.6292 63.5361 16.2668 63.5361 15.9044C63.5384 12.979 63.5373 10.0546 63.5373 7.12916C63.5373 7.00311 63.5328 6.87601 63.5295 6.74996C63.5228 6.53673 63.4451 6.34975 63.293 6.19114C63.1298 6.01887 62.9676 5.84555 62.8044 5.67223C62.659 5.51887 62.6667 5.48946 62.871 5.44114C63.8448 5.2111 64.7997 4.92748 65.738 4.5903C65.7558 4.58399 65.7724 4.57664 65.7902 4.57244C65.8957 4.54408 65.939 4.57559 65.9345 4.67748C65.919 5.01362 65.8979 5.3487 65.8879 5.68484C65.8701 6.31719 65.849 6.95059 65.8479 7.58294C65.8435 10.4117 65.8435 13.2405 65.8479 16.0693C65.8479 16.4138 65.8712 16.7584 65.8946 17.1018C65.9112 17.3361 66.0189 17.4348 66.2632 17.4726C66.3365 17.4842 66.4098 17.4958 66.4831 17.501C66.5597 17.5063 66.5885 17.543 66.5852 17.6124C66.583 17.6596 66.5852 17.7058 66.5852 17.7699C65.3205 17.729 64.0702 17.7268 62.8122 17.7699L62.8133 17.771Z" fill="black"/>
<path d="M162.139 17.7719V17.5261C162.189 17.5177 162.234 17.5093 162.278 17.502C162.341 17.4915 162.406 17.4841 162.468 17.4684C162.697 17.4116 162.8 17.3055 162.819 17.085C162.842 16.8244 162.865 16.5629 162.865 16.3013C162.869 13.1805 162.868 10.0587 162.867 6.93789C162.867 6.8339 162.857 6.72886 162.844 6.62487C162.822 6.4442 162.723 6.29819 162.598 6.16478C162.436 5.99147 162.274 5.81815 162.112 5.64483C162.073 5.60281 162.02 5.56605 162.049 5.48516C162.084 5.47466 162.126 5.45995 162.17 5.44945C163.148 5.21731 164.109 4.93579 165.051 4.59546C165.221 4.53453 165.276 4.54504 165.263 4.73936C165.192 5.74987 165.179 6.76247 165.179 7.77613C165.179 10.5041 165.178 13.2331 165.179 15.961C165.179 16.2971 165.196 16.6333 165.207 16.9684C165.209 17.0377 165.223 17.107 165.233 17.1763C165.256 17.3276 165.353 17.419 165.506 17.4547C165.59 17.4747 165.678 17.4852 165.765 17.4999C165.809 17.5072 165.852 17.5156 165.901 17.5251V17.7719C164.648 17.7299 163.402 17.7278 162.138 17.773L162.139 17.7719Z" fill="black"/>
<path d="M66.9484 10.3742C67.0228 10.3206 67.0783 10.2754 67.1394 10.2387C67.7034 9.88886 68.2531 9.51701 68.7749 9.11365C69.1858 8.79643 69.5788 8.45714 69.9797 8.12731C70.0074 8.1042 70.033 8.07899 70.0596 8.05483C70.0918 8.02332 70.1262 8.01281 70.1707 8.03592C70.214 8.05903 70.2239 8.09159 70.2206 8.13466C70.1895 8.48655 70.1584 8.83844 70.1307 9.19138C70.1162 9.36996 70.1085 9.54853 70.0963 9.74496C70.426 9.75546 70.7503 9.7313 71.0756 9.72605C71.4087 9.7208 71.7407 9.70924 72.0738 9.70189C72.4003 9.69454 72.7278 9.68928 73.0776 9.68298C73.062 9.75546 73.0565 9.81428 73.0376 9.86996C72.9466 10.1378 72.8055 10.3826 72.639 10.6147C72.5813 10.6956 72.5102 10.725 72.4058 10.7218C71.6896 10.7019 70.9734 10.6872 70.2573 10.6704C70.2073 10.6693 70.1584 10.6704 70.1007 10.6704C70.0985 10.726 70.094 10.7681 70.094 10.8111C70.094 12.3784 70.094 13.9445 70.094 15.5118C70.094 15.6116 70.1029 15.7134 70.1262 15.8101C70.1762 16.0181 70.3139 16.1714 70.5149 16.2618C70.6392 16.3174 70.7714 16.3689 70.9057 16.3899C71.5264 16.4866 72.1393 16.4729 72.7278 16.2292C72.8244 16.1893 72.9166 16.1378 73.011 16.0926C73.0443 16.0769 73.0754 16.058 73.1098 16.0464C73.1631 16.0296 73.2019 16.0653 73.1864 16.1158C73.182 16.1326 73.1697 16.1473 73.1609 16.162C72.7511 16.8174 72.1971 17.3311 71.4664 17.6609C70.9523 17.892 70.4083 17.9855 69.8364 17.9351C69.5055 17.9057 69.1891 17.8384 68.8882 17.7082C68.4818 17.5307 68.162 17.2586 67.9588 16.8794C67.8744 16.7208 67.8156 16.5485 67.8089 16.3658C67.8011 16.1609 67.7856 15.9561 67.7856 15.7513C67.7845 14.4813 67.7856 13.2113 67.7878 11.9403C67.7878 11.7176 67.7945 11.495 67.8022 11.2733C67.8045 11.2061 67.7812 11.1599 67.7301 11.1137C67.5102 10.9141 67.2937 10.7103 67.0772 10.5076C67.0383 10.4708 67.0028 10.4319 66.9473 10.3731L66.9484 10.3742Z" fill="black"/>
<path d="M147.753 10.3726C147.831 10.318 147.886 10.2739 147.947 10.2361C148.508 9.88838 149.053 9.51968 149.572 9.11947C149.986 8.7991 150.382 8.45771 150.788 8.12578C150.805 8.11107 150.821 8.09531 150.838 8.08061C150.874 8.05015 150.903 8.00393 150.966 8.03229C151.032 8.06065 151.026 8.10897 151.022 8.16464C150.988 8.58166 150.954 8.99973 150.921 9.41779C150.913 9.52179 150.909 9.62683 150.901 9.74657C151.232 9.75813 151.557 9.73292 151.884 9.72767C152.217 9.72242 152.549 9.71086 152.882 9.70351C153.208 9.69615 153.536 9.69195 153.883 9.68565C153.871 9.75183 153.867 9.8033 153.851 9.85057C153.757 10.131 153.611 10.3884 153.435 10.63C153.377 10.7088 153.304 10.7256 153.208 10.7235C152.497 10.7046 151.785 10.6899 151.073 10.673C151.022 10.672 150.972 10.673 150.911 10.673C150.906 10.7109 150.9 10.7445 150.9 10.777C150.9 12.3663 150.9 13.9546 150.9 15.5438C150.9 15.6352 150.91 15.7277 150.932 15.8159C150.984 16.0239 151.124 16.1699 151.322 16.2686C151.483 16.3495 151.657 16.3968 151.837 16.4157C152.525 16.4903 153.195 16.4472 153.808 16.0995C153.836 16.0838 153.863 16.0659 153.894 16.0586C153.922 16.0522 153.966 16.048 153.978 16.0628C153.992 16.0796 153.991 16.1226 153.978 16.1436C153.888 16.2802 153.798 16.4188 153.697 16.548C153.436 16.88 153.126 17.1667 152.762 17.3968C152.298 17.6899 151.797 17.8852 151.234 17.9346C150.838 17.9693 150.448 17.9441 150.067 17.8411C149.513 17.692 149.061 17.402 148.785 16.9115C148.715 16.7865 148.668 16.6447 148.637 16.505C148.605 16.3569 148.591 16.2014 148.591 16.0501C148.589 14.7665 148.59 13.484 148.591 12.2004C148.591 11.8947 148.599 11.589 148.607 11.2844C148.609 11.214 148.589 11.1625 148.533 11.1121C148.312 10.9136 148.096 10.7088 147.88 10.506C147.841 10.4703 147.806 10.4304 147.752 10.3737L147.753 10.3726Z" fill="black"/>
<path d="M77.877 14.0235C77.9003 12.9605 78.2378 12.0035 78.954 11.18C79.6979 10.3249 80.6495 9.77453 81.8021 9.55184C82.4117 9.43419 83.0257 9.44049 83.632 9.57705C83.9839 9.65688 84.3171 9.78818 84.6169 9.98566C84.8611 10.1464 85.0599 10.3449 85.1554 10.617C85.2797 10.972 85.2209 11.2934 84.9211 11.5508C84.6224 11.8071 84.2771 11.8554 83.9029 11.7168C83.7619 11.6642 83.6453 11.5749 83.5642 11.4552C83.4687 11.3113 83.3821 11.1621 83.3 11.0119C83.1989 10.826 83.1101 10.6338 83.0079 10.4478C82.9435 10.3323 82.8636 10.2252 82.7459 10.1474C82.5383 10.0088 82.3062 10.0004 82.0675 10.0298C81.6289 10.0833 81.2791 10.2913 80.9904 10.5981C80.7639 10.8386 80.5985 11.1149 80.4685 11.4111C80.2365 11.9415 80.1765 12.4972 80.1865 13.0644C80.1943 13.4773 80.2442 13.8827 80.3631 14.2798C80.5807 15.0088 80.9793 15.6233 81.6633 16.0445C82.0175 16.2619 82.4083 16.388 82.8281 16.4342C83.1978 16.4752 83.5653 16.4825 83.9318 16.4069C84.4503 16.2997 84.8811 16.0529 85.2331 15.6789C85.2575 15.6527 85.2786 15.6201 85.3086 15.6033C85.3319 15.5897 85.3752 15.5844 85.3952 15.596C85.4119 15.6065 85.4208 15.6527 85.4097 15.6737C85.3286 15.8397 85.2498 16.0077 85.1543 16.1674C84.9922 16.4384 84.789 16.6831 84.5513 16.8985C84.3892 17.0466 84.2149 17.1863 84.0306 17.3092C83.572 17.6149 83.0657 17.8239 82.5083 17.9069C82.1285 17.9636 81.7443 17.9699 81.3613 17.9216C80.9327 17.867 80.5196 17.763 80.1288 17.5865C79.5492 17.3249 79.0728 16.9478 78.6875 16.4657C78.2567 15.9268 78.0124 15.3176 77.9358 14.6485C77.9125 14.4405 77.8969 14.2315 77.877 14.0235Z" fill="black"/>
<path d="M147.341 17.7748C146.074 17.7359 144.828 17.7286 143.572 17.7779V17.529C143.62 17.5216 143.666 17.5153 143.71 17.508C143.773 17.4975 143.838 17.4901 143.901 17.4744C144.135 17.4156 144.237 17.3074 144.252 17.0784C144.274 16.7391 144.298 16.3987 144.3 16.0595C144.305 14.737 144.303 13.4156 144.302 12.0931C144.302 11.9754 144.293 11.8578 144.277 11.7412C144.258 11.591 144.191 11.4576 144.102 11.3326C143.965 11.1403 143.829 10.9481 143.694 10.7548C143.66 10.7055 143.633 10.6508 143.594 10.5826C143.663 10.5542 143.716 10.529 143.77 10.5122C144.597 10.2601 145.405 9.96177 146.194 9.61618C146.298 9.56996 146.401 9.52059 146.506 9.47438C146.635 9.4166 146.682 9.44286 146.671 9.57206C146.596 10.509 146.612 11.4471 146.612 12.3851C146.611 13.6855 146.61 14.9859 146.614 16.2864C146.614 16.5437 146.634 16.8011 146.646 17.0574C146.648 17.0962 146.657 17.1351 146.662 17.174C146.685 17.3263 146.781 17.4166 146.933 17.4534C147.031 17.4775 147.133 17.4891 147.233 17.5048C147.332 17.5206 147.339 17.5258 147.341 17.6214C147.342 17.6645 147.341 17.7076 147.341 17.7748Z" fill="black"/>
<path d="M77.2951 17.7781C76.0281 17.7329 74.7823 17.7329 73.5254 17.776V17.526C73.5742 17.5197 73.6242 17.5176 73.6731 17.506C73.7719 17.484 73.8718 17.4661 73.9662 17.4314C74.0961 17.3831 74.175 17.2875 74.1905 17.1552C74.2094 16.9861 74.2327 16.8169 74.236 16.6468C74.2449 16.1321 74.246 15.6163 74.2471 15.1016C74.2482 14.0974 74.2471 13.0932 74.2471 12.0901C74.2471 12.0029 74.246 11.9157 74.2382 11.8285C74.2249 11.6552 74.1672 11.4966 74.0639 11.3516C73.9296 11.1636 73.7974 10.9735 73.6653 10.7844C73.6475 10.7592 73.6287 10.734 73.612 10.7077C73.5443 10.5995 73.5554 10.569 73.682 10.527C73.9829 10.4272 74.2849 10.3317 74.5836 10.2277C75.2043 10.0123 75.8138 9.77388 76.4079 9.49762C76.4623 9.47241 76.52 9.41989 76.5867 9.45981C76.6644 9.50602 76.6155 9.5785 76.6133 9.64048C76.5989 10.0943 76.5744 10.548 76.57 11.0018C76.56 12.027 76.5589 13.0533 76.5556 14.0796C76.5534 14.7434 76.55 15.4062 76.5578 16.0701C76.5622 16.423 76.5822 16.776 76.6066 17.1289C76.6211 17.3306 76.7199 17.4251 76.9275 17.4693C77.0086 17.4861 77.0919 17.4955 77.174 17.5071C77.2862 17.5228 77.294 17.5302 77.2962 17.6405C77.2962 17.6793 77.2962 17.7172 77.2962 17.7802L77.2951 17.7781Z" fill="black"/>
<path d="M95.7207 17.768V17.5232C95.7718 17.5159 95.8217 17.5127 95.8695 17.5022C95.9683 17.4801 96.0683 17.4623 96.1626 17.4287C96.2925 17.3814 96.3736 17.2869 96.3891 17.1535C96.408 16.9885 96.4302 16.8236 96.4347 16.6587C96.4435 16.2701 96.4458 15.8814 96.4458 15.4938C96.4469 14.3635 96.4458 13.2322 96.4458 12.102C96.4458 12.019 96.4447 11.936 96.4391 11.853C96.4291 11.6755 96.3769 11.5096 96.2714 11.3604C96.146 11.1818 96.0216 11.0043 95.8961 10.8257C95.8728 10.7932 95.8495 10.7606 95.8273 10.728C95.7363 10.5936 95.7474 10.5673 95.9028 10.5148C96.3381 10.3677 96.7767 10.2301 97.2053 10.0684C97.6638 9.89506 98.1124 9.69863 98.5655 9.51166C98.6032 9.4959 98.6398 9.47594 98.6787 9.46124C98.782 9.42237 98.8342 9.45493 98.8242 9.55578C98.7564 10.2438 98.762 10.9339 98.7576 11.623C98.7476 13.1156 98.752 14.6083 98.7576 16.102C98.7587 16.4423 98.7809 16.7816 98.8064 17.1209C98.822 17.3278 98.9241 17.4245 99.1384 17.4665C99.2195 17.4822 99.3027 17.4906 99.3849 17.5022C99.4826 17.5169 99.4915 17.5253 99.4959 17.6188C99.4982 17.6619 99.4959 17.7049 99.4959 17.7669C99.074 17.7743 98.6609 17.7396 98.2468 17.7427C97.826 17.747 97.4051 17.7396 96.9843 17.7427C96.569 17.747 96.1537 17.7596 95.7207 17.769V17.768Z" fill="black"/>
<path d="M145.506 8.07675C144.777 8.10721 144.162 7.47906 144.174 6.81205C144.186 6.10932 144.759 5.55679 145.502 5.55469C146.239 5.55259 146.814 6.10932 146.817 6.82045C146.82 7.55364 146.165 8.09881 145.506 8.0778V8.07675Z" fill="black"/>
<path d="M74.1275 6.81219C74.1109 6.0937 74.7593 5.54433 75.4666 5.55484C76.1728 5.56534 76.7691 6.0979 76.7647 6.82479C76.7602 7.62101 76.0551 8.0874 75.4378 8.0853C74.7704 8.0832 74.1042 7.54118 74.1275 6.81219Z" fill="black"/>
<path d="M96.324 6.80805C96.3085 6.09797 96.9525 5.54229 97.6676 5.5549C98.376 5.5675 98.9678 6.10427 98.9611 6.82906C98.9534 7.62423 98.2494 8.08851 97.6287 8.08536C96.9581 8.08116 96.2985 7.53494 96.3229 6.80805H96.324Z" fill="black"/>
<path d="M26.3333 8.76007C27.5936 8.63091 28.8247 8.31634 29.9823 7.82773C30.6303 7.52105 31.2334 7.1361 31.7766 6.68254L31.7978 6.66551C31.7978 6.66551 31.362 6.87229 30.8181 7.07907C30.329 7.23242 29.821 7.32523 29.3067 7.35518C28.2478 7.47256 27.1209 7.56439 26.19 6.97568C26.4891 6.84846 26.7741 6.69321 27.0405 6.51225C28.1405 5.91684 29.2308 5.27339 29.7817 4.13428C29.3664 4.39112 28.9293 4.61489 28.4748 4.80327C27.8328 5.02616 27.1784 5.21579 26.5146 5.37131C26.9761 4.86949 27.395 4.33405 27.7676 3.76998C28.0381 3.23287 28.2743 2.68087 28.4748 2.11695C28.3661 2.32313 28.0935 2.42712 27.6583 2.84008C27.1844 3.22548 26.6267 3.50764 26.0247 3.66659C26.4096 3.0618 26.7373 2.42601 27.0039 1.76664C27.126 1.37194 27.2089 0.864718 27.3317 0.515625C27.2771 0.67071 26.8418 1.03197 26.406 1.60061C26.0537 2.02129 25.6518 2.40264 25.2083 2.73729V2.0683C25.1939 1.8994 25.137 1.73623 25.0422 1.59243C24.9475 1.44863 24.8177 1.32839 24.6638 1.24179C24.1739 1.03501 23.5747 1.75813 23.5747 1.75813C23.5747 1.75813 24.2819 1.80982 24.3372 2.0683C24.3925 2.32678 23.738 2.89481 23.738 2.89481L23.9559 3.35946C23.9559 3.35946 23.9559 6.40703 21.5059 7.28524C19.0559 8.16345 19.1105 8.5764 18.8926 8.88657C18.5448 9.38223 19.0109 10.0847 18.7441 10.5858C18.7086 10.6597 18.6556 10.7248 18.5892 10.7762C18.4794 10.8446 18.3498 10.8786 18.2185 10.8734C18.0872 10.8683 17.961 10.8243 17.8576 10.7476C17.7331 10.6219 17.6363 10.4741 17.5728 10.3127C17.2243 9.57198 16.5686 8.22244 16.5686 8.22244C16.9788 8.0385 17.4054 7.88932 17.8434 7.77665C18.2459 7.71583 18.2459 8.34955 18.2459 8.34955L18.4477 7.90375C18.5111 7.76076 18.5383 7.60575 18.5271 7.45106C18.5159 7.29638 18.4668 7.1463 18.3834 7.01278C18.3191 6.82181 17.8466 6.56698 16.3037 5.93083C15.803 5.70014 15.2397 5.61992 14.6894 5.70094C14.4472 5.73169 14.2209 5.83236 14.0414 5.98921C14.359 5.95604 14.6786 5.94304 14.998 5.95029C15.3382 5.99022 15.6669 6.09204 15.9662 6.25012H14.7582C13.8858 6.25012 13.2796 7.33207 13.2796 7.33207L13.817 6.88627C14.2671 6.51042 14.8637 6.63206 15.36 6.63145C15.0752 6.63145 14.7441 7.07359 14.6187 7.27855C14.3493 7.77537 14.2991 8.35298 14.4792 8.88474C14.4921 8.89326 14.4876 8.87258 14.4876 8.85859C14.4876 8.60437 14.8232 8.34955 14.8232 8.34955L14.6888 9.04956C14.5993 9.49154 14.5993 9.94557 14.6888 10.3875C14.6888 10.1966 15.1581 9.81465 15.1581 9.81465V10.2604C15.1546 10.3327 15.1426 10.4043 15.1221 10.4739C15.117 10.4928 15.1105 10.514 15.1034 10.5347C15.0094 10.6864 14.8561 10.7969 14.6766 10.8424C14.4971 10.888 14.3059 10.8648 14.1443 10.778C14.0779 10.7266 14.0249 10.6614 13.9893 10.5876C13.7219 10.0865 14.1886 9.38406 13.8408 8.88839C13.6229 8.57822 13.6775 8.16527 11.2275 7.28706C8.77748 6.40886 8.77684 3.36128 8.77684 3.36128L8.99478 2.89664C8.99478 2.89664 8.34161 2.3286 8.39561 2.07012C8.44961 1.81165 9.15807 1.75995 9.15807 1.75995C9.15807 1.75995 8.56147 1.03501 8.0716 1.24179C7.91768 1.32843 7.78793 1.44867 7.6932 1.59247C7.59847 1.73626 7.5415 1.89942 7.52707 2.0683V2.73729C7.08358 2.40349 6.68176 2.02295 6.32938 1.60304C5.89415 1.0344 5.45828 0.673143 5.40427 0.518058C5.52707 0.867151 5.61 1.37437 5.73214 1.76908C5.99863 2.42848 6.32628 3.06427 6.71126 3.66902C6.10933 3.51 5.55167 3.22785 5.07769 2.84251C4.64246 2.42956 4.37052 2.32617 4.26123 2.11939C4.46213 2.68316 4.69827 3.23514 4.9684 3.77241C5.34069 4.33666 5.75966 4.87212 6.22138 5.37374C5.55734 5.21804 4.90278 5.02821 4.26059 4.80509C3.8061 4.61671 3.36894 4.39295 2.95361 4.1361C3.50456 5.27339 4.59553 5.91684 5.69679 6.51225C5.96394 6.69298 6.24952 6.84803 6.54925 6.97507C5.61835 7.56378 4.49202 7.47195 3.43255 7.35457C2.91827 7.32459 2.41024 7.23178 1.92114 7.07846C1.37533 6.87107 0.939453 6.6649 0.939453 6.6649L0.960025 6.68254C1.50312 7.13623 2.10627 7.52119 2.75431 7.82773C3.91204 8.3166 5.14347 8.63118 6.40396 8.76007C6.6655 8.82397 6.93246 8.8661 7.20178 8.88596C6.76076 9.58415 3.22233 10.6333 2.21365 10.671C3.03911 10.7719 3.862 10.8796 4.69325 10.9373C5.67325 11.0601 6.6679 11.0301 7.63765 10.8485C9.27122 10.435 8.67205 10.5901 8.67205 10.5901C8.58976 10.6114 8.37697 11.0644 8.32361 11.1374C8.05379 11.5151 7.72196 11.8495 7.34064 12.1281C6.46504 12.7814 5.5031 13.3238 4.47917 13.7416C4.44779 13.749 4.42077 13.7678 4.40395 13.7939C4.55953 13.8919 4.87711 13.8377 5.0539 13.8298C6.52452 13.7144 7.9413 13.253 9.17543 12.4876C9.38471 12.395 9.58101 12.2781 9.75981 12.1397L9.9231 11.9846C9.67015 12.449 9.47264 12.9385 9.33422 13.4442C9.11709 14.3875 9.05357 15.3565 9.14585 16.3179C9.15485 16.5514 9.1555 16.7862 9.15871 17.0197C9.15871 17.0842 9.17157 17.148 9.17157 17.2125C9.35486 16.9223 9.51371 16.6189 9.64666 16.3051C9.80481 16.001 9.96489 15.7006 10.1307 15.402C10.3501 14.9385 10.6277 14.5017 10.9575 14.1011C11.4474 13.5841 11.774 13.2229 11.774 13.2229C11.7807 14.5737 11.9082 15.9216 12.1552 17.252L12.4818 18.2336C12.4536 17.3117 12.5618 16.3905 12.8032 15.4968C12.9951 15.0035 13.2531 14.5354 13.5708 14.1041C13.7251 14.4757 13.8665 14.854 13.99 15.2359C14.1772 15.8641 14.1678 16.5302 13.963 17.1535C13.8789 17.5615 13.7474 17.9595 13.5708 18.3401C13.3529 18.7536 14.3333 17.772 14.4966 17.5136C14.6599 17.2551 15.3677 15.9639 15.313 15.3959C15.2584 14.8278 15.6943 15.3442 15.8029 15.7577C15.9222 16.1257 15.9597 16.513 15.9128 16.8952C15.866 17.2775 15.736 17.6464 15.531 17.9788C14.7596 19.1001 13.8851 20.1547 12.9176 21.1304L14.3879 20.2005L13.4622 22.7317L15.1472 20.8707L14.3307 23.8149C14.3307 23.8149 15.6248 21.7976 15.6917 21.5421C15.7386 21.3639 16.2317 24.5721 16.3661 25.4533C16.4998 24.5721 16.9935 21.3639 17.0405 21.5421C17.1047 21.7976 18.4014 23.8149 18.4014 23.8149L17.5901 20.8707L19.2777 22.7305L18.3519 20.1993L19.8222 21.1292C18.8532 20.1536 17.9772 19.099 17.2044 17.9776C16.9992 17.6453 16.8691 17.2763 16.8223 16.894C16.7755 16.5117 16.813 16.1244 16.9325 15.7565C17.0411 15.343 17.477 14.8266 17.4223 15.3947C17.3677 15.9627 18.0755 17.2539 18.2388 17.5123C18.4021 17.7708 19.3818 18.7524 19.1645 18.3389C18.9882 17.9581 18.8567 17.5602 18.7724 17.1523C18.5684 16.5292 18.5597 15.8636 18.7473 15.2359C18.8701 14.8534 19.0122 14.4757 19.1665 14.1041C19.4844 14.5353 19.7424 15.0034 19.9341 15.4968C20.1758 16.3915 20.284 17.3137 20.2555 18.2367L20.5821 17.2551C20.8291 15.9246 20.9566 14.5767 20.9633 13.2259C20.9633 13.2259 21.2899 13.5872 21.7798 14.1041C22.1088 14.5045 22.3857 14.9409 22.6046 15.4038C22.7705 15.7024 22.9312 16.0053 23.0887 16.3075C23.2217 16.6213 23.3806 16.9247 23.5638 17.2149C23.5638 17.1505 23.5754 17.0866 23.5766 17.0221C23.5766 16.7886 23.5805 16.5539 23.5895 16.3203C23.682 15.359 23.6187 14.3899 23.4018 13.4467C23.2633 12.941 23.0658 12.4514 22.8129 11.9871L22.9762 12.1421C23.1547 12.2809 23.3511 12.3978 23.5606 12.49C24.7953 13.2549 26.2125 13.7157 27.6834 13.8304C27.8602 13.8377 28.1778 13.8913 28.3333 13.7939C28.3251 13.7809 28.3142 13.7696 28.3013 13.7606C28.2884 13.7516 28.2737 13.7452 28.2581 13.7416C27.2341 13.3239 26.2722 12.7815 25.3966 12.1281C25.0157 11.8493 24.6841 11.5149 24.4143 11.1374C24.361 11.0651 24.1482 10.612 24.0659 10.5901C24.0659 10.5901 23.4667 10.435 25.1003 10.8485C26.0702 11.0301 27.0651 11.0601 28.0453 10.9373C28.8766 10.8765 29.6988 10.7719 30.5249 10.671C29.5156 10.6333 25.9772 9.58415 25.5362 8.88596C25.8052 8.8659 26.072 8.82378 26.3333 8.76007Z" fill="black"/>
</g>
<defs>
<clipPath id="clip0_3_1308">
<rect width="165" height="25" fill="white" transform="translate(0.900391 0.5)"/>
</clipPath>
</defs>
</svg>
