<svg width="146" height="36" viewBox="0 0 146 36" fill="none" xmlns="http://www.w3.org/2000/svg">
<g clip-path="url(#clip0_3_1560)">
<path d="M52.8236 19.3473C52.8236 20.3337 52.661 21.2333 52.325 22.0571C51.989 22.8701 51.5337 23.5638 50.9376 24.1491C50.3523 24.7236 49.6585 25.168 48.8456 25.4823C48.0327 25.7967 47.1547 25.9593 46.2008 25.9593C45.247 25.9593 44.369 25.7967 43.556 25.4823C42.7539 25.168 42.0602 24.7236 41.4641 24.1491C40.8787 23.5638 40.4235 22.8701 40.0875 22.0571C39.7515 21.2333 39.5889 20.3337 39.5889 19.3473C39.5889 18.3609 39.7515 17.4504 40.0875 16.6592C40.4235 15.8462 40.8787 15.1634 41.4641 14.5997C42.0602 14.0361 42.7539 13.6025 43.556 13.299C44.369 12.9955 45.247 12.8438 46.2008 12.8438C47.1547 12.8438 48.0327 12.9955 48.8456 13.299C49.6585 13.6025 50.3523 14.0361 50.9376 14.5997C51.5337 15.1634 51.9998 15.8462 52.325 16.6592C52.661 17.4613 52.8236 18.3501 52.8236 19.3473ZM49.6802 19.3473C49.6802 18.8053 49.5935 18.3067 49.4201 17.8298C49.2467 17.3637 49.0082 16.9627 48.6939 16.6375C48.4012 16.3015 48.0327 16.0305 47.5991 15.8462C47.1764 15.6511 46.7103 15.5427 46.19 15.5427C45.6697 15.5427 45.2036 15.6403 44.7809 15.8462C44.3581 16.0305 43.9896 16.3015 43.6861 16.6375C43.3718 16.9627 43.1333 17.3637 42.9599 17.8298C42.7973 18.2959 42.7214 18.8053 42.7214 19.3473C42.7214 19.8893 42.8081 20.4312 42.9816 20.9082C43.155 21.3743 43.3826 21.7861 43.6861 22.1222C44.0004 22.4582 44.3581 22.7292 44.7809 22.9351C45.2036 23.1194 45.6697 23.2169 46.19 23.2169C46.7103 23.2169 47.1764 23.1194 47.5991 22.9351C48.0218 22.74 48.3904 22.469 48.6939 22.1222C49.0082 21.7861 49.2467 21.3743 49.4201 20.9082C49.5935 20.4312 49.6802 19.9001 49.6802 19.3473ZM60.151 19.2281C60.0209 19.1956 59.9017 19.1739 59.7716 19.163C59.6524 19.1522 59.544 19.1414 59.4247 19.1414C59.0454 19.1414 58.731 19.2064 58.46 19.3473C58.2107 19.4882 58.0048 19.6617 57.8422 19.8568C57.6904 20.0519 57.5821 20.2687 57.517 20.5071C57.452 20.7456 57.4086 20.9515 57.4086 21.125V25.6232H54.5904V16.8651H57.3002V18.1333H57.3328C57.5495 17.6889 57.8639 17.3204 58.2649 17.0385C58.666 16.7567 59.1321 16.6158 59.6524 16.6158C59.7716 16.6158 59.88 16.6158 59.9775 16.6375C60.0968 16.6483 60.1835 16.67 60.2485 16.6917L60.1293 19.2281H60.151ZM66.1884 21.8187H65.8307C65.5164 21.8187 65.2021 21.8403 64.8877 21.8729C64.5734 21.8945 64.3024 21.9487 64.0423 22.0355C63.8038 22.1222 63.5978 22.2414 63.4461 22.404C63.2835 22.5557 63.2076 22.7617 63.2076 23.0218C63.2076 23.1844 63.2402 23.3253 63.316 23.4446C63.3919 23.5638 63.4895 23.6505 63.6087 23.7264C63.7279 23.7914 63.858 23.8456 63.9989 23.889C64.1507 23.9106 64.2916 23.9215 64.4325 23.9215C65.007 23.9215 65.4405 23.7589 65.7332 23.4446C66.0475 23.1194 66.1993 22.675 66.1993 22.1222V21.8187H66.1884ZM61.0181 18.0683C61.5167 17.5805 62.102 17.2011 62.7741 16.9627C63.4461 16.7134 64.1398 16.5941 64.8335 16.5941C65.5272 16.5941 66.1668 16.6917 66.6545 16.876C67.1531 17.0494 67.565 17.3312 67.8685 17.7214C68.1829 18.1008 68.3996 18.5777 68.5406 19.163C68.6923 19.7375 68.7682 20.4204 68.7682 21.2225V25.6341H66.1884V24.7019H66.1342C65.9175 25.0704 65.5814 25.3523 65.137 25.5474C64.7035 25.7425 64.2265 25.8509 63.7171 25.8509C63.3702 25.8509 63.0234 25.8075 62.6548 25.71C62.2863 25.6124 61.9503 25.4607 61.6468 25.2547C61.3541 25.0488 61.1048 24.7669 60.9097 24.4092C60.7146 24.0624 60.6171 23.618 60.6171 23.1085C60.6171 22.4799 60.7796 21.9704 61.1157 21.5802C61.4625 21.19 61.8961 20.8973 62.4164 20.6805C62.9583 20.4746 63.5545 20.3337 64.2048 20.2578C64.8552 20.1928 65.4947 20.1494 66.1126 20.1494V20.0085C66.1126 19.5749 65.9608 19.2606 65.6681 19.0547C65.3755 18.8487 65.007 18.7403 64.5734 18.7403C64.1723 18.7403 63.7821 18.827 63.4027 19.0005C63.0342 19.1739 62.7199 19.3907 62.4597 19.6291L61.0398 18.0683H61.0181ZM76.4749 25.6341V20.854C76.4749 20.6047 76.4532 20.377 76.4099 20.1494C76.3773 19.9218 76.3123 19.7375 76.2256 19.5641C76.1389 19.3907 75.998 19.2498 75.8354 19.163C75.6728 19.0547 75.4668 19.0005 75.2175 19.0005C74.9682 19.0005 74.7406 19.0547 74.5455 19.163C74.3612 19.2606 74.2095 19.3907 74.0794 19.5641C73.9494 19.7375 73.8518 19.9435 73.7868 20.1819C73.7326 20.4096 73.7 20.6372 73.7 20.8865V25.6341H70.871V16.876H73.6025V18.09H73.635C73.7434 17.9057 73.8735 17.7214 74.0252 17.548C74.1987 17.3637 74.3938 17.2011 74.6105 17.0711C74.8382 16.941 75.0875 16.8326 75.3476 16.7567C75.6078 16.67 75.8896 16.6375 76.1931 16.6375C76.7676 16.6375 77.2553 16.7459 77.6564 16.9518C78.0574 17.1578 78.3826 17.4396 78.6211 17.7756C78.8704 18.1008 79.0546 18.4802 79.1522 18.9137C79.2714 19.3473 79.3256 19.7809 79.3256 20.2145V25.6341H76.4966H76.4749ZM90.5009 24.8103C90.5009 25.6666 90.3817 26.4145 90.1432 27.0432C89.9048 27.6719 89.5687 28.203 89.1352 28.604C88.7016 29.0268 88.1705 29.3411 87.5418 29.5362C86.924 29.7422 86.2411 29.8506 85.4823 29.8506C84.7236 29.8506 83.954 29.7313 83.1519 29.5037C82.3606 29.2652 81.6777 28.9292 81.0924 28.4848L82.5015 26.4254C82.9134 26.8047 83.3687 27.0757 83.8564 27.2491C84.355 27.4334 84.8537 27.531 85.3306 27.531C86.1544 27.531 86.7614 27.3033 87.1516 26.8589C87.5526 26.4145 87.7477 25.8184 87.7477 25.0813V24.5502H87.6935C87.4334 24.897 87.0757 25.1788 86.6313 25.3956C86.1869 25.6124 85.6774 25.71 85.103 25.71C84.4526 25.71 83.8673 25.5907 83.3687 25.3631C82.8701 25.1138 82.4365 24.7886 82.0788 24.3767C81.7319 23.9648 81.4718 23.4879 81.2875 22.9568C81.1033 22.404 81.0166 21.8295 81.0166 21.2117C81.0166 20.5938 81.1033 20.0193 81.2875 19.4665C81.4718 18.9137 81.7319 18.426 82.0788 18.0032C82.4365 17.5805 82.8592 17.2445 83.3687 16.9952C83.8673 16.735 84.4418 16.605 85.0813 16.605C85.6232 16.605 86.1327 16.7134 86.6313 16.941C87.1191 17.1686 87.5201 17.5046 87.8128 17.9816H87.8453V16.8543H90.5118V24.7886L90.5009 24.8103ZM87.8236 21.2008C87.8236 20.9082 87.7694 20.6263 87.6719 20.3554C87.5851 20.0844 87.4442 19.8459 87.26 19.6508C87.0757 19.4449 86.8589 19.2714 86.6096 19.163C86.3603 19.0438 86.0677 18.9896 85.7533 18.9896C85.439 18.9896 85.1463 19.0438 84.897 19.163C84.6585 19.2823 84.4526 19.434 84.2792 19.64C84.1057 19.8351 83.9757 20.0735 83.889 20.3445C83.8022 20.6155 83.7481 20.8973 83.7481 21.2117C83.7481 21.526 83.7914 21.7861 83.889 22.0571C83.9757 22.3281 84.1166 22.5666 84.2792 22.7834C84.4526 22.9785 84.6585 23.1519 84.897 23.2711C85.1463 23.3904 85.439 23.4446 85.7533 23.4446C86.0677 23.4446 86.3603 23.3904 86.6096 23.2711C86.8698 23.1411 87.0865 22.9785 87.26 22.7834C87.4442 22.5883 87.5851 22.3498 87.6719 22.0788C87.7803 21.8078 87.8236 21.526 87.8236 21.2117V21.2008ZM98.6304 20.247C98.6304 19.7917 98.4895 19.4015 98.1968 19.0655C97.9258 18.7403 97.5031 18.5777 96.9394 18.5777C96.6685 18.5777 96.4083 18.6211 96.1807 18.7186C95.9531 18.8053 95.7471 18.9137 95.5845 19.0655C95.4111 19.2172 95.2702 19.4015 95.1726 19.6075C95.0643 19.8026 95.01 20.0193 94.9992 20.2361H98.6195L98.6304 20.247ZM101.221 21.3526V21.6994C101.221 21.8187 101.221 21.9271 101.199 22.0355H94.9992C95.0209 22.2848 95.0859 22.5015 95.2052 22.7075C95.3352 22.9026 95.487 23.0869 95.6712 23.2386C95.8664 23.3795 96.0723 23.4879 96.3108 23.5746C96.5492 23.6613 96.7985 23.6939 97.0478 23.6939C97.4922 23.6939 97.8716 23.6071 98.186 23.4446C98.5003 23.2711 98.7496 23.0435 98.9447 22.7725L100.907 24.0407C100.506 24.6369 99.9744 25.103 99.3132 25.4281C98.6629 25.7425 97.9041 25.9051 97.0262 25.9051C96.3866 25.9051 95.7796 25.8075 95.2052 25.6016C94.6307 25.3956 94.1321 25.0921 93.6985 24.7019C93.2758 24.3009 92.9398 23.8131 92.6904 23.2386C92.452 22.6641 92.3328 22.0029 92.3328 21.2659C92.3328 20.5288 92.452 19.9001 92.6904 19.3256C92.9289 18.7403 93.2541 18.2417 93.666 17.8515C94.0779 17.4396 94.5656 17.1253 95.1293 16.8976C95.6929 16.67 96.2999 16.5616 96.9503 16.5616C97.6006 16.5616 98.1534 16.67 98.6846 16.8976C99.2157 17.1036 99.6601 17.4179 100.039 17.8298C100.419 18.2417 100.712 18.7403 100.917 19.3256C101.134 19.911 101.243 20.583 101.243 21.3309L101.221 21.3526ZM118.759 19.369C118.759 20.4638 118.564 21.4068 118.163 22.198C117.773 22.9893 117.252 23.6397 116.602 24.1491C115.962 24.6586 115.236 25.0271 114.423 25.2764C113.61 25.5149 112.786 25.6232 111.952 25.6232H107.421V13.1689H111.811C112.667 13.1689 113.513 13.2773 114.347 13.4833C115.182 13.6784 115.93 14.0252 116.58 14.5022C117.231 14.9682 117.762 15.6078 118.163 16.399C118.564 17.2011 118.759 18.1767 118.759 19.3582V19.369ZM115.702 19.369C115.702 18.6644 115.583 18.09 115.355 17.6239C115.139 17.1578 114.835 16.7892 114.467 16.5183C114.098 16.2364 113.675 16.0413 113.198 15.9221C112.732 15.8029 112.244 15.7487 111.735 15.7487H110.272V23.0327H111.659C112.19 23.0327 112.689 22.9785 113.166 22.8592C113.654 22.7292 114.087 22.5232 114.456 22.2414C114.835 21.9596 115.128 21.5802 115.345 21.1141C115.572 20.648 115.691 20.0627 115.691 19.369H115.702ZM128.525 25.6341L127.582 23.1844H122.878L121.989 25.6341H118.791L123.886 13.1798H126.737L131.788 25.6341H128.525ZM125.262 16.5074L123.723 20.7781H126.78L125.273 16.5074H125.262ZM145.163 19.3582C145.163 20.3445 145.001 21.2442 144.665 22.068C144.329 22.8809 143.873 23.5746 143.277 24.1599C142.692 24.7344 141.998 25.1788 141.185 25.4932C140.372 25.8075 139.494 25.9701 138.541 25.9701C137.587 25.9701 136.709 25.8075 135.896 25.4932C135.094 25.1788 134.4 24.7344 133.804 24.1599C133.218 23.5746 132.763 22.8809 132.427 22.068C132.091 21.2442 131.929 20.3445 131.929 19.3582C131.929 18.3718 132.091 17.4613 132.427 16.67C132.763 15.8571 133.218 15.1742 133.804 14.6106C134.4 14.0469 135.094 13.6133 135.896 13.3098C136.709 13.0063 137.587 12.8546 138.541 12.8546C139.494 12.8546 140.372 13.0063 141.185 13.3098C141.998 13.6133 142.692 14.0469 143.277 14.6106C143.873 15.1742 144.34 15.8571 144.665 16.67C145.001 17.4721 145.163 18.3609 145.163 19.3582ZM142.02 19.3582C142.02 18.8162 141.933 18.3176 141.76 17.8407C141.586 17.3746 141.348 16.9735 141.044 16.6483C140.752 16.3123 140.383 16.0413 139.95 15.8571C139.527 15.662 139.061 15.5536 138.541 15.5536C138.02 15.5536 137.554 15.6511 137.131 15.8571C136.709 16.0413 136.34 16.3123 136.037 16.6483C135.722 16.9735 135.484 17.3746 135.321 17.8407C135.159 18.3067 135.083 18.8162 135.083 19.3582C135.083 19.9001 135.17 20.4421 135.343 20.919C135.516 21.3851 135.744 21.797 136.048 22.133C136.362 22.469 136.72 22.74 137.142 22.9459C137.565 23.1302 138.031 23.2278 138.551 23.2278C139.072 23.2278 139.538 23.1302 139.96 22.9459C140.383 22.7508 140.752 22.4799 141.055 22.133C141.37 21.797 141.608 21.3851 141.771 20.919C141.944 20.4421 142.031 19.911 142.031 19.3582H142.02Z" fill="black"/>
<path d="M18.0584 25.4219H15.9014V27.6331H18.0584V25.4219Z" fill="black"/>
<path d="M11.5896 27.6328H9.43262V29.8549H11.5896H13.7466H15.9037V27.6328H13.7466H11.5896Z" fill="black"/>
<path d="M9.52826 9.27981V7.0686H13.8423V5.39935V4.92242V3.18814H15.9993V0.5H13.3762V2.71121H11.2192V4.92242H9.52826V2.71121H7.37125V0.5H4.7373V3.18814H6.89432V5.39935H9.06217V7.13363V7.61056V9.27981H9.52826Z" fill="black"/>
<path d="M11.6885 12.0315V9.82027V9.34334V8.95312H11.4176V11.1643H9.06543V12.0315H11.6885Z" fill="black"/>
<path d="M26.5262 15.9152V11.4927H24.3692V9.28152H20.0551V7.07031H9.54104V9.28152H5.22701V11.4927H3.07V13.7039H0.902144V13.7907H0.81543V16.2729V23.5894H0.902144V26.6569H3.05916V31.0793H5.21617V33.2905H9.5302V35.5017H20.0443V33.2905H24.3583V31.0793H26.5153V26.6569H28.6724V15.926H26.5153L26.5262 15.9152ZM3.03748 16.2729H9.71447V13.834H7.49242V13.7581H4.94519V13.3788H7.10221V11.1676H11.4162V8.95635H18.1691V11.1676H22.4831V13.3788H24.6401V16.2729H18.6027V21.1505H16.8467H16.3698H14.1477V16.2729H7.47074V21.1505H3.03748V21.7575V16.2729ZM24.6401 24.7708V29.1933H22.4831V31.4045H18.1691V33.6157H11.4162V31.4045H7.10221V29.1933H4.94519V24.7708H2.78818V23.5894H3.04832H9.72531V18.7117H11.9474V23.5894H16.2939H18.6569H20.8572V18.7117H25.3122V21.1505H26.8297V24.7708H24.6727H24.6401Z" fill="black"/>
<path d="M15.923 16.4219H14.167V18.709V20.8551H15.923V16.4219Z" fill="white"/>
<path d="M16.3888 16.2734H14.1667H13.1045H14.1667V16.4252H15.9227V20.8584H14.1667V21.1511H16.3888H16.8549V16.2734H16.3888Z" fill="black"/>
<path d="M4.98496 16.4688H3.1748V20.8153H4.98496V16.4688Z" fill="white"/>
<path d="M3.03941 16.2713V21.756V21.149H5.92266V16.2713H3.03941ZM4.99048 16.4665V20.813H3.18032V16.4665H4.99048Z" fill="black"/>
<path d="M14.1655 16.2748H16.3876H16.8536H18.6096H20.8317V13.8359H18.6096H16.3876H14.1655H11.9326V16.2748H13.1033H14.1655Z" fill="black"/>
</g>
<defs>
<clipPath id="clip0_3_1560">
<rect width="144.769" height="35" fill="white" transform="translate(0.81543 0.5)"/>
</clipPath>
</defs>
</svg>
