<svg width="157" height="20" viewBox="0 0 157 20" fill="none" xmlns="http://www.w3.org/2000/svg">
<path d="M13.5836 11.7912C13.3466 12.2855 13.1095 12.7799 12.7539 13.1506C12.3983 13.5213 12.0427 13.7685 11.5685 14.0157C11.0944 14.2628 10.6202 14.3864 10.0276 14.3864C9.43487 14.3864 8.96073 14.2628 8.48659 14.0157C8.01245 13.7685 7.65684 13.5213 7.30123 13.1506C6.94562 12.7799 6.70855 12.2855 6.47148 11.7912C6.35295 11.2969 6.23441 10.679 6.23441 10.0611C6.23441 9.44319 6.35295 8.94887 6.47148 8.33097C6.70855 7.83665 6.94562 7.46591 7.30123 7.09516C7.65684 6.72442 8.01245 6.47726 8.48659 6.2301C8.96073 5.98294 9.43487 5.85936 10.0276 5.85936C10.6202 5.85936 11.0944 5.98294 11.5685 6.2301C12.0427 6.47726 12.3983 6.72442 12.7539 7.09516C13.1095 7.46591 13.3466 7.96023 13.5836 8.45455C13.7022 8.94887 13.8207 9.44319 13.8207 10.0611C13.8207 10.679 13.7022 11.2969 13.5836 11.7912ZM15.2431 4.74714C14.5319 4.12924 13.8207 3.63491 12.8724 3.38775C12.0427 3.01701 11.0944 2.89343 10.0276 2.89343C8.96073 2.89343 8.01245 3.01701 7.1827 3.38775C6.23441 3.63491 5.5232 4.12924 4.81198 4.74714C4.2193 5.36504 3.74516 6.2301 3.27102 7.09516C2.79687 7.96023 2.79688 8.94887 2.79688 10.0611C2.79688 11.1733 3.03395 12.162 3.38955 13.027C3.74516 13.8921 4.2193 14.7571 4.93052 15.375C5.5232 15.9929 6.35295 16.4873 7.1827 16.858C8.01245 17.2288 9.07927 17.3523 10.0276 17.3523C11.0944 17.3523 12.0427 17.2288 12.8724 16.858C13.7022 16.4873 14.5319 15.9929 15.1246 15.375C15.7173 14.7571 16.3099 13.8921 16.6656 13.027C17.0212 12.162 17.2582 11.1733 17.2582 10.0611C17.2582 8.94887 17.0212 7.96023 16.6656 7.09516C16.3099 6.2301 15.8358 5.36504 15.2431 4.74714Z" fill="black"/>
<path d="M24.9607 12.5369C24.9607 13.1548 24.8422 13.6492 24.4866 14.0199C24.2495 14.3906 23.7754 14.6378 23.3012 14.6378C23.0642 14.6378 22.8271 14.6378 22.59 14.5142C22.4715 14.3906 22.2344 14.2671 22.1159 14.0199C21.9973 13.7727 21.8788 13.6492 21.8788 13.402C21.8788 13.1548 21.8788 12.9077 21.8788 12.6605V7.34656H18.7969V13.402C18.7969 13.8963 18.9154 14.3906 19.0339 14.885C19.1525 15.3793 19.3896 15.75 19.6266 16.1208C19.8637 16.4915 20.2193 16.7387 20.6934 16.9858C21.1676 17.233 21.6417 17.3566 22.2344 17.3566C22.59 17.3566 22.8271 17.3566 23.1827 17.233C23.4198 17.1094 23.7754 16.9858 24.0124 16.8622C24.2495 16.7387 24.4866 16.4915 24.6051 16.3679C24.8422 16.1208 24.9607 15.9972 25.0793 15.75V17.1094H28.0427V7.34656H24.9607V12.5369Z" fill="black"/>
<path d="M33.7309 4.745H30.649V7.34018H29.2266V9.68821H30.7675V13.7664C30.7675 14.2607 30.7675 14.755 30.8861 15.2493C31.0046 15.6201 31.2417 15.9908 31.4787 16.3615C31.7158 16.6087 32.0714 16.8559 32.5456 17.103C33.0197 17.3502 33.4938 17.3502 34.0865 17.3502C34.4421 17.3502 34.6792 17.3502 35.0348 17.2266C35.3904 17.2266 35.6275 17.103 35.8646 16.9794V14.6314C35.746 14.6314 35.6275 14.755 35.3904 14.755C35.2719 14.755 35.0348 14.755 34.9163 14.755C34.4421 14.755 34.2051 14.6314 33.968 14.3843C33.8495 14.1371 33.7309 13.7664 33.7309 13.3956V9.68821H35.9831V7.34018H33.7309V4.745Z" fill="black"/>
<path d="M40.4882 2.27625H37.4062V17.1059H40.4882V2.27625Z" fill="black"/>
<path d="M45.4726 2.89557C45.354 2.77199 45.1169 2.64841 44.8799 2.52483C44.6428 2.40124 44.4057 2.40125 44.1687 2.40125C43.9316 2.40125 43.6945 2.40124 43.4574 2.52483C43.2204 2.64841 43.1018 2.77199 42.8648 2.89557C42.7462 3.01915 42.6277 3.26631 42.5092 3.51347C42.3906 3.76063 42.3906 4.00779 42.3906 4.13137C42.3906 4.62569 42.5092 4.99643 42.8648 5.36717C43.2204 5.73791 43.576 5.86149 44.1687 5.86149C44.4057 5.86149 44.6428 5.8615 44.8799 5.73791C45.1169 5.61433 45.2355 5.49075 45.4726 5.36717C45.5911 5.24359 45.7096 4.99643 45.8282 4.74927C45.9467 4.50211 45.9467 4.25495 45.9467 4.00779C45.9467 3.76063 45.9467 3.51347 45.8282 3.26631C45.8282 3.26631 45.7096 3.14273 45.4726 2.89557Z" fill="black"/>
<path d="M45.8241 7.34656H42.7422V17.1094H45.8241V7.34656Z" fill="black"/>
<path d="M50.4464 11.0527C50.4464 10.8056 50.565 10.5584 50.6835 10.3113C50.802 10.0641 50.9206 9.94051 51.1576 9.69335C51.2762 9.56977 51.5132 9.44619 51.7503 9.32261C51.9874 9.19903 52.2245 9.19903 52.5801 9.19903C53.1727 9.19903 53.6469 9.32261 54.0025 9.69335C54.3581 10.0641 54.4766 10.4348 54.4766 11.0527H50.4464ZM55.8991 8.45755C55.5435 7.96323 54.9508 7.59249 54.3581 7.46891C53.7654 7.22174 53.1727 7.09816 52.4615 7.09816C51.7503 6.97458 51.1576 7.09816 50.565 7.34532C49.9723 7.59249 49.3796 7.96323 49.024 8.33397C48.5498 8.82829 48.1942 9.32261 47.9572 9.94051C47.7201 10.5584 47.6016 11.2999 47.6016 12.165C47.6016 13.03 47.7201 13.7715 47.9572 14.3894C48.1942 15.0073 48.5498 15.6252 49.024 15.9959C49.4981 16.4903 50.0908 16.7374 50.6835 16.9846C51.2762 17.2318 51.9874 17.3553 52.6986 17.3553C53.6469 17.3553 54.4766 17.2318 55.1878 16.861C55.8991 16.4903 56.4917 15.9959 56.9659 15.378L54.8322 14.0187C54.5952 14.2658 54.3581 14.513 54.0025 14.7601C53.6469 15.0073 53.2913 15.0073 52.8171 15.0073C52.5801 15.0073 52.2245 15.0073 51.9874 14.8837C51.7503 14.7601 51.5132 14.6366 51.2762 14.513C51.0391 14.3894 50.9206 14.1422 50.802 13.8951C50.6835 13.6479 50.565 13.4008 50.565 13.1536H57.3215C57.3215 13.03 57.3215 12.9064 57.3215 12.7829V12.2885C57.3215 11.4235 57.203 10.682 56.9659 10.0641C56.6103 9.44619 56.2547 8.82829 55.8991 8.45755Z" fill="black"/>
<path d="M64.3198 7.09656C63.7271 7.09656 63.253 7.22014 62.7789 7.59088C62.3047 7.96162 61.9491 8.33236 61.712 8.82668V7.34372H58.8672V17.1066H61.9491V12.0398C61.9491 11.7926 61.9491 11.669 62.0677 11.2983C62.1862 11.0511 62.3047 10.804 62.4233 10.5568C62.5418 10.3096 62.7789 10.1861 63.1345 9.93891C63.3715 9.81533 63.7272 9.69174 64.2013 9.69174C64.3198 9.69174 64.4384 9.69174 64.5569 9.69174C64.6754 9.69174 64.794 9.69174 64.9125 9.81532L65.031 7.09656C64.9125 7.09656 64.9125 7.09656 64.794 7.09656C64.5569 7.09656 64.4384 7.09656 64.3198 7.09656Z" fill="black"/>
<path d="M79.6081 3.26843L76.1706 13.0313L72.7331 3.26843H69.4141L74.5111 17.1094H77.7116L82.8086 3.26843H79.6081Z" fill="black"/>
<path d="M84.3462 11.0511C84.3462 10.804 84.4647 10.5568 84.5833 10.3096C84.7018 10.0625 84.8203 9.93891 85.0574 9.69174C85.2945 9.56816 85.413 9.44458 85.7686 9.321C86.0057 9.19742 86.2428 9.19742 86.5984 9.19742C87.1911 9.19742 87.6652 9.321 88.0208 9.69174C88.3764 10.0625 88.495 10.4332 88.495 11.0511H84.3462ZM89.7988 8.45594C89.4432 7.96162 88.8506 7.59088 88.2579 7.4673C87.6652 7.22014 87.0725 7.09656 86.3613 7.09656C85.6501 7.09656 84.9389 7.22014 84.3462 7.4673C83.7535 7.71446 83.1608 8.0852 82.8052 8.45594C82.3311 8.95026 81.9755 9.44458 81.7384 10.0625C81.5014 10.6804 81.3828 11.4219 81.3828 12.2869C81.3828 13.152 81.5014 13.8935 81.7384 14.5114C81.9755 15.1293 82.3311 15.7472 82.8052 16.1179C83.2794 16.6122 83.8721 16.8594 84.4647 17.1066C85.0574 17.3537 85.7686 17.4773 86.4799 17.4773C87.4281 17.4773 88.2579 17.3537 88.9691 16.983C89.6803 16.6122 90.273 16.1179 90.7471 15.5L88.6135 14.1406C88.3764 14.3878 88.1393 14.635 87.7837 14.8821C87.4281 15.1293 87.0725 15.1293 86.5984 15.1293C86.3613 15.1293 86.0057 15.1293 85.7686 15.0057C85.5316 14.8821 85.2945 14.7585 85.0574 14.635C84.8203 14.5114 84.7018 14.2642 84.5833 14.0171C84.4647 13.7699 84.3462 13.5227 84.3462 13.2756H91.1027C91.1027 13.152 91.1027 13.0284 91.1027 12.9048V12.2869C91.1027 11.4219 90.9842 10.6804 90.7471 10.0625C90.5101 9.44458 90.1545 8.82668 89.7988 8.45594Z" fill="black"/>
<path d="M100.706 8.33236C100.469 7.96162 100.114 7.71446 99.6396 7.4673C99.1655 7.22014 98.6913 7.09656 97.9801 7.09656C97.6245 7.09656 97.3874 7.09656 97.0318 7.22014C96.7948 7.34372 96.4392 7.4673 96.2021 7.59088C95.965 7.71446 95.7279 7.96162 95.6094 8.0852C95.3723 8.33236 95.2538 8.45594 95.1353 8.7031V7.34372H92.1719V17.1066H95.2538V11.7926C95.2538 11.5454 95.2538 11.2983 95.3723 11.0511C95.4909 10.804 95.4909 10.5568 95.7279 10.4332C95.8465 10.1861 96.0836 10.0625 96.2021 9.93891C96.4392 9.81533 96.6762 9.81532 96.9133 9.81532C97.1504 9.81532 97.3874 9.81533 97.6245 9.93891C97.8616 10.0625 97.9801 10.1861 98.0987 10.4332C98.2172 10.6804 98.2172 10.804 98.3357 11.0511C98.3357 11.2983 98.4543 11.5454 98.4543 11.7926V17.1066H101.536V11.0511C101.536 10.5568 101.418 10.0625 101.299 9.56816C101.181 9.07384 100.944 8.7031 100.706 8.33236Z" fill="black"/>
<path d="M107.107 4.745H104.025V7.34018H102.484V9.68821H104.025V13.7664C104.025 14.2607 104.025 14.755 104.144 15.2493C104.262 15.6201 104.381 15.9908 104.737 16.3615C104.974 16.6087 105.329 16.8559 105.803 17.103C106.278 17.3502 106.752 17.3502 107.344 17.3502C107.7 17.3502 107.937 17.3502 108.293 17.2266C108.648 17.2266 108.885 17.103 109.122 16.9794V14.6314C109.004 14.6314 108.885 14.755 108.648 14.755C108.53 14.755 108.293 14.755 108.174 14.755C107.7 14.755 107.463 14.6314 107.226 14.3843C107.107 14.1371 106.989 13.7664 106.989 13.3956V9.68821H109.241V7.34018H106.989L107.107 4.745Z" fill="black"/>
<path d="M116.828 12.5369C116.828 13.1548 116.709 13.6492 116.354 14.0199C116.117 14.3906 115.643 14.6378 115.168 14.6378C114.931 14.6378 114.694 14.6378 114.457 14.5142C114.339 14.3906 114.102 14.2671 113.983 14.0199C113.865 13.7727 113.746 13.6492 113.746 13.402C113.746 13.1548 113.746 12.9077 113.746 12.6605V7.34656H110.664V13.402C110.664 13.8963 110.783 14.3906 110.783 14.885C110.901 15.3793 111.138 15.75 111.375 16.1208C111.612 16.4915 111.968 16.7387 112.442 16.9858C112.916 17.233 113.39 17.3566 113.983 17.3566C114.339 17.3566 114.576 17.3566 114.931 17.233C115.168 17.1094 115.524 16.9858 115.761 16.8622C115.998 16.7387 116.235 16.4915 116.354 16.3679C116.591 16.1208 116.709 15.9972 116.828 15.75V17.1094H119.791V7.34656H116.709L116.828 12.5369Z" fill="black"/>
<path d="M127.259 7.09514C126.666 7.09514 126.192 7.21872 125.718 7.58946C125.244 7.9602 124.888 8.33094 124.651 8.82526V7.3423H121.688V17.1051H124.769V12.0384C124.769 11.7912 124.769 11.6676 124.888 11.2969C125.006 11.0497 125.125 10.8025 125.244 10.5554C125.362 10.3082 125.599 10.1846 125.955 9.93749C126.192 9.81391 126.547 9.69032 127.022 9.69032C127.14 9.69032 127.259 9.69032 127.377 9.69032C127.496 9.69032 127.614 9.69032 127.733 9.81391L127.851 6.97156C127.733 6.97156 127.733 6.97156 127.614 6.97156C127.496 7.09514 127.377 7.09514 127.259 7.09514Z" fill="black"/>
<path d="M131.292 11.0511C131.292 10.804 131.41 10.5568 131.529 10.3096C131.647 10.0625 131.766 9.93891 132.003 9.69174C132.24 9.56816 132.358 9.44458 132.714 9.321C132.951 9.19742 133.188 9.19742 133.544 9.19742C134.136 9.19742 134.611 9.321 134.966 9.69174C135.322 10.0625 135.44 10.4332 135.44 11.0511H131.292ZM136.744 8.45594C136.389 7.96162 135.796 7.59088 135.203 7.4673C134.611 7.22014 134.018 7.09656 133.307 7.09656C132.595 7.09656 131.884 7.22014 131.292 7.4673C130.699 7.71446 130.106 8.0852 129.751 8.45594C129.276 8.95026 128.921 9.44458 128.684 10.0625C128.447 10.6804 128.328 11.4219 128.328 12.2869C128.328 13.152 128.447 13.8935 128.684 14.5114C128.921 15.1293 129.276 15.7472 129.751 16.1179C130.225 16.6122 130.817 16.8594 131.41 17.1066C132.003 17.3537 132.714 17.4773 133.425 17.4773C134.373 17.4773 135.203 17.3537 135.914 16.983C136.626 16.6122 137.218 16.1179 137.692 15.5L135.559 14.1406C135.322 14.3878 135.085 14.635 134.729 14.8821C134.373 15.1293 134.018 15.1293 133.544 15.1293C133.307 15.1293 132.951 15.1293 132.714 15.0057C132.477 14.8821 132.24 14.7585 132.003 14.635C131.766 14.5114 131.647 14.2642 131.529 14.0171C131.41 13.7699 131.292 13.5227 131.292 13.2756H138.048C138.048 13.152 138.048 13.0284 138.048 12.9048V12.2869C138.048 11.4219 137.93 10.6804 137.692 10.0625C137.455 9.44458 137.1 8.82668 136.744 8.45594Z" fill="black"/>
<path d="M146.106 11.9134C145.869 11.6662 145.513 11.5426 145.157 11.2954C144.802 11.1719 144.446 11.0483 144.091 10.9247C143.498 10.8011 143.024 10.6775 142.787 10.554C142.55 10.4304 142.431 10.1832 142.431 9.93607C142.431 9.68891 142.55 9.44174 142.787 9.31816C143.024 9.19458 143.261 9.19458 143.616 9.19458C143.972 9.19458 144.328 9.31816 144.683 9.44174C145.039 9.56533 145.276 9.81249 145.513 10.0596L147.173 8.20594C146.698 7.71162 146.106 7.46446 145.513 7.2173C144.802 6.97014 144.209 6.84656 143.498 6.84656C143.024 6.84656 142.55 6.97014 142.194 7.09372C141.72 7.2173 141.364 7.46446 140.89 7.71162C140.534 7.95878 140.179 8.32952 139.942 8.70026C139.705 9.071 139.586 9.56532 139.586 10.1832C139.586 10.6775 139.705 11.0483 139.823 11.419C139.942 11.7898 140.179 12.0369 140.416 12.2841C140.653 12.5313 141.009 12.6548 141.246 12.7784C141.601 12.902 141.838 13.0256 142.194 13.1492C142.787 13.2727 143.261 13.3963 143.616 13.6435C143.972 13.7671 144.091 14.0142 144.091 14.2614C144.091 14.6321 143.972 14.7557 143.735 14.8793C143.498 15.0029 143.261 15.1264 143.024 15.1264C142.55 15.1264 142.194 15.0029 141.72 14.7557C141.364 14.5085 141.009 14.2614 140.653 14.0142L138.875 15.8679C139.349 16.3622 139.942 16.733 140.653 16.9801C141.364 17.2273 142.075 17.3509 142.905 17.3509C143.379 17.3509 143.853 17.3509 144.328 17.2273C144.802 17.1037 145.276 16.9801 145.632 16.6094C145.987 16.3622 146.343 15.9915 146.58 15.6208C146.817 15.25 146.935 14.6321 146.935 14.0142C146.935 13.5199 146.817 13.1492 146.698 12.7784C146.58 12.5313 146.343 12.1605 146.106 11.9134Z" fill="black"/>
<path d="M154.283 5.61007C154.283 6.22797 154.046 6.72229 153.69 7.21661C153.216 7.58735 152.742 7.83451 152.149 7.83451C151.794 7.83451 151.557 7.83451 151.32 7.71093C151.082 7.58735 150.845 7.46377 150.608 7.21661C150.371 6.96945 150.253 6.84587 150.134 6.47513C150.016 6.22797 150.016 5.85723 150.016 5.61007C150.016 5.36291 150.016 4.99216 150.134 4.745C150.253 4.49784 150.371 4.25068 150.608 4.00352C150.845 3.75636 151.082 3.63278 151.32 3.5092C151.557 3.38562 151.912 3.38562 152.149 3.38562C152.742 3.38562 153.216 3.63278 153.69 4.00352C154.046 4.37426 154.283 4.99216 154.283 5.61007Z" fill="black"/>
</svg>
