<svg width="163" height="23" viewBox="0 0 163 23" fill="none" xmlns="http://www.w3.org/2000/svg">
<path d="M0.69769 18V1.04265H7.0567C8.35941 1.04265 9.45236 1.28553 10.3356 1.77129C11.2243 2.25704 11.895 2.92496 12.3476 3.77504C12.8057 4.61959 13.0348 5.58007 13.0348 6.65646C13.0348 7.74389 12.8057 8.70989 12.3476 9.55445C11.8894 10.399 11.2132 11.0642 10.319 11.5499C9.42476 12.0302 8.32353 12.2703 7.0153 12.2703H2.8008V9.74488H6.6013C7.36305 9.74488 7.98681 9.6124 8.47257 9.34745C8.95833 9.08249 9.31712 8.71817 9.54896 8.25449C9.78632 7.79081 9.905 7.25814 9.905 6.65646C9.905 6.05478 9.78632 5.52487 9.54896 5.06671C9.31712 4.60855 8.95557 4.25251 8.46429 3.99859C7.97853 3.73916 7.35201 3.60944 6.58474 3.60944H3.76955V18H0.69769ZM18.4561 18.2567C17.6502 18.2567 16.9243 18.1132 16.2785 17.8261C15.6382 17.5336 15.1303 17.103 14.755 16.5344C14.3851 15.9659 14.2002 15.2649 14.2002 14.4313C14.2002 13.7137 14.3327 13.1203 14.5977 12.6511C14.8626 12.182 15.2242 11.8066 15.6823 11.5251C16.1405 11.2436 16.6566 11.031 17.2307 10.8875C17.8103 10.7385 18.4092 10.6308 19.0274 10.5646C19.7726 10.4873 20.3771 10.4183 20.8408 10.3576C21.3044 10.2914 21.6411 10.192 21.8509 10.0595C22.0662 9.92152 22.1738 9.709 22.1738 9.42197V9.37229C22.1738 8.74853 21.9889 8.26553 21.6191 7.92329C21.2492 7.58106 20.7166 7.40994 20.021 7.40994C19.2869 7.40994 18.7045 7.57002 18.274 7.89017C17.8489 8.21033 17.5619 8.58845 17.4129 9.02453L14.6142 8.62709C14.835 7.85429 15.1993 7.20846 15.7072 6.68958C16.215 6.16518 16.836 5.77327 17.5702 5.51383C18.3043 5.24887 19.1158 5.11639 20.0045 5.11639C20.6172 5.11639 21.2272 5.18815 21.8343 5.33167C22.4415 5.47519 22.9963 5.71255 23.4986 6.04374C24.0009 6.36942 24.4039 6.81378 24.7075 7.37682C25.0166 7.93985 25.1712 8.64365 25.1712 9.48821V18H22.2897V16.2529H22.1904C22.0082 16.6062 21.7515 16.9374 21.4203 17.2465C21.0947 17.5501 20.6834 17.7958 20.1866 17.9834C19.6954 18.1656 19.1185 18.2567 18.4561 18.2567ZM19.2344 16.0542C19.8361 16.0542 20.3578 15.9355 20.7994 15.6982C21.2409 15.4553 21.5804 15.1351 21.8178 14.7377C22.0607 14.3403 22.1821 13.9069 22.1821 13.4377V11.9391C22.0883 12.0164 21.9282 12.0881 21.7019 12.1544C21.4811 12.2206 21.2327 12.2786 20.9567 12.3282C20.6807 12.3779 20.4074 12.4221 20.137 12.4607C19.8665 12.4993 19.6319 12.5325 19.4332 12.5601C18.986 12.6208 18.5858 12.7201 18.2326 12.8581C17.8793 12.9961 17.6005 13.1893 17.3963 13.4377C17.1921 13.6806 17.0899 13.9953 17.0899 14.3817C17.0899 14.9337 17.2914 15.3504 17.6944 15.6319C18.0973 15.9135 18.6107 16.0542 19.2344 16.0542ZM30.6359 10.548V18H27.6386V5.28199H30.5035V7.44306H30.6525C30.9451 6.73098 31.4115 6.16518 32.0518 5.74567C32.6976 5.32615 33.4953 5.11639 34.4447 5.11639C35.3224 5.11639 36.0869 5.30407 36.7383 5.67943C37.3951 6.05478 37.903 6.5985 38.2618 7.31058C38.6261 8.02265 38.8055 8.88653 38.8 9.9022V18H35.8026V10.3659C35.8026 9.51581 35.5818 8.85065 35.1402 8.37041C34.7042 7.89017 34.0997 7.65006 33.3269 7.65006C32.8025 7.65006 32.3361 7.76597 31.9276 7.99781C31.5247 8.22413 31.2073 8.55257 30.9754 8.98313C30.7491 9.41369 30.6359 9.93532 30.6359 10.548ZM47.6512 5.28199V7.60038H40.34V5.28199H47.6512ZM42.1451 2.23496H45.1424V14.1747C45.1424 14.5776 45.2031 14.8867 45.3246 15.102C45.4515 15.3118 45.6171 15.4553 45.8214 15.5326C46.0256 15.6099 46.2519 15.6485 46.5003 15.6485C46.688 15.6485 46.8591 15.6347 47.0137 15.6071C47.1738 15.5795 47.2952 15.5547 47.378 15.5326L47.8831 17.8758C47.723 17.931 47.4939 17.9917 47.1958 18.058C46.9033 18.1242 46.5445 18.1628 46.1195 18.1739C45.3687 18.196 44.6925 18.0828 44.0909 17.8344C43.4892 17.5805 43.0117 17.1886 42.6584 16.6586C42.3107 16.1287 42.1396 15.4663 42.1451 14.6715V2.23496ZM55.1053 18.2484C53.8302 18.2484 52.7289 17.9834 51.8016 17.4535C50.8797 16.9181 50.1704 16.1618 49.6736 15.1848C49.1768 14.2023 48.9284 13.0458 48.9284 11.7155C48.9284 10.4073 49.1768 9.25913 49.6736 8.27105C50.1759 7.27746 50.877 6.50466 51.7767 5.95266C52.6765 5.39515 53.7336 5.11639 54.948 5.11639C55.7318 5.11639 56.4715 5.24335 57.167 5.49727C57.868 5.74567 58.4863 6.13206 59.0217 6.65646C59.5627 7.18086 59.9877 7.84877 60.2968 8.66021C60.6059 9.46613 60.7605 10.4266 60.7605 11.5416V12.4607H50.336V10.4404H57.8873C57.8818 9.86632 57.7576 9.35573 57.5147 8.90861C57.2719 8.45597 56.9324 8.09993 56.4963 7.84049C56.0658 7.58106 55.5634 7.45134 54.9894 7.45134C54.3766 7.45134 53.8384 7.60038 53.3748 7.89845C52.9111 8.19101 52.5495 8.57741 52.2901 9.05765C52.0362 9.53237 51.9065 10.054 51.9009 10.6226V12.3862C51.9009 13.1259 52.0362 13.7607 52.3067 14.2906C52.5771 14.815 52.9553 15.2179 53.441 15.4995C53.9268 15.7755 54.4953 15.9135 55.1467 15.9135C55.5828 15.9135 55.9774 15.8527 56.3307 15.7313C56.684 15.6043 56.9903 15.4194 57.2498 15.1765C57.5092 14.9337 57.7052 14.6328 57.8377 14.274L60.6363 14.5887C60.4597 15.3283 60.1229 15.9742 59.6261 16.5262C59.1349 17.0726 58.5056 17.4977 57.7383 17.8013C56.971 18.0994 56.0934 18.2484 55.1053 18.2484ZM62.7497 18V5.28199H65.656V7.40166H65.7885C66.0203 6.6675 66.4178 6.1017 66.9808 5.70427C67.5494 5.30131 68.198 5.09983 68.9266 5.09983C69.0922 5.09983 69.2771 5.10811 69.4814 5.12467C69.6911 5.13571 69.865 5.15503 70.003 5.18263V7.93985C69.876 7.89569 69.6745 7.85705 69.3986 7.82393C69.1281 7.78529 68.8659 7.76597 68.612 7.76597C68.0655 7.76597 67.5742 7.88465 67.1381 8.12201C66.7076 8.35385 66.3681 8.67677 66.1197 9.09077C65.8713 9.50477 65.7471 9.98224 65.7471 10.5232V18H62.7497ZM74.8799 18.2567C74.074 18.2567 73.3481 18.1132 72.7023 17.8261C72.0619 17.5336 71.5541 17.103 71.1787 16.5344C70.8089 15.9659 70.624 15.2649 70.624 14.4313C70.624 13.7137 70.7565 13.1203 71.0214 12.6511C71.2864 12.182 71.6479 11.8066 72.1061 11.5251C72.5643 11.2436 73.0804 11.031 73.6544 10.8875C74.234 10.7385 74.833 10.6308 75.4512 10.5646C76.1964 10.4873 76.8008 10.4183 77.2645 10.3576C77.7282 10.2914 78.0649 10.192 78.2747 10.0595C78.4899 9.92152 78.5976 9.709 78.5976 9.42197V9.37229C78.5976 8.74853 78.4127 8.26553 78.0428 7.92329C77.673 7.58106 77.1403 7.40994 76.4448 7.40994C75.7106 7.40994 75.1283 7.57002 74.6977 7.89017C74.2727 8.21033 73.9856 8.58845 73.8366 9.02453L71.038 8.62709C71.2588 7.85429 71.6231 7.20846 72.1309 6.68958C72.6388 6.16518 73.2598 5.77327 73.9939 5.51383C74.7281 5.24887 75.5395 5.11639 76.4282 5.11639C77.0409 5.11639 77.6509 5.18815 78.2581 5.33167C78.8653 5.47519 79.4201 5.71255 79.9224 6.04374C80.4247 6.36942 80.8276 6.81378 81.1312 7.37682C81.4404 7.93985 81.5949 8.64365 81.5949 9.48821V18H78.7135V16.2529H78.6141C78.432 16.6062 78.1753 16.9374 77.8441 17.2465C77.5184 17.5501 77.1072 17.7958 76.6104 17.9834C76.1191 18.1656 75.5423 18.2567 74.8799 18.2567ZM75.6582 16.0542C76.2599 16.0542 76.7815 15.9355 77.2231 15.6982C77.6647 15.4553 78.0042 15.1351 78.2415 14.7377C78.4844 14.3403 78.6059 13.9069 78.6059 13.4377V11.9391C78.512 12.0164 78.3519 12.0881 78.1256 12.1544C77.9048 12.2206 77.6564 12.2786 77.3804 12.3282C77.1044 12.3779 76.8312 12.4221 76.5607 12.4607C76.2902 12.4993 76.0556 12.5325 75.8569 12.5601C75.4098 12.6208 75.0096 12.7201 74.6563 12.8581C74.303 12.9961 74.0243 13.1893 73.82 13.4377C73.6158 13.6806 73.5137 13.9953 73.5137 14.3817C73.5137 14.9337 73.7152 15.3504 74.1181 15.6319C74.5211 15.9135 75.0344 16.0542 75.6582 16.0542ZM103.947 6.7641H100.85C100.762 6.25626 100.599 5.80638 100.361 5.41447C100.124 5.01703 99.8288 4.68031 99.4755 4.40431C99.1222 4.12831 98.7193 3.92131 98.2666 3.78332C97.8195 3.6398 97.3365 3.56804 96.8176 3.56804C95.8958 3.56804 95.0788 3.79988 94.3668 4.26355C93.6547 4.72171 93.0972 5.39515 92.6942 6.28386C92.2912 7.16706 92.0898 8.24621 92.0898 9.52133C92.0898 10.8185 92.2912 11.9115 92.6942 12.8002C93.1027 13.6834 93.6602 14.3513 94.3668 14.8039C95.0788 15.2511 95.893 15.4746 96.8093 15.4746C97.3172 15.4746 97.7919 15.4084 98.2335 15.2759C98.6806 15.1379 99.0808 14.9364 99.4341 14.6715C99.7929 14.4065 100.094 14.0808 100.337 13.6944C100.585 13.308 100.756 12.8664 100.85 12.3696L103.947 12.3862C103.831 13.1921 103.58 13.9483 103.193 14.6549C102.812 15.3615 102.313 15.9852 101.695 16.5262C101.076 17.0616 100.353 17.4811 99.5252 17.7847C98.6972 18.0828 97.7781 18.2318 96.7679 18.2318C95.2776 18.2318 93.9472 17.8868 92.777 17.1968C91.6068 16.5068 90.6849 15.5105 90.0115 14.2078C89.3381 12.9051 89.0013 11.3429 89.0013 9.52133C89.0013 7.69421 89.3408 6.13206 90.0198 4.83487C90.6987 3.53216 91.6233 2.5358 92.7936 1.84581C93.9638 1.15581 95.2886 0.810812 96.7679 0.810812C97.7119 0.810812 98.5895 0.943291 99.401 1.20825C100.212 1.47321 100.936 1.86237 101.57 2.37572C102.205 2.88356 102.727 3.50732 103.135 4.24699C103.549 4.98115 103.82 5.82019 103.947 6.7641ZM109.741 18.2567C108.935 18.2567 108.209 18.1132 107.563 17.8261C106.923 17.5336 106.415 17.103 106.039 16.5344C105.67 15.9659 105.485 15.2649 105.485 14.4313C105.485 13.7137 105.617 13.1203 105.882 12.6511C106.147 12.182 106.509 11.8066 106.967 11.5251C107.425 11.2436 107.941 11.031 108.515 10.8875C109.095 10.7385 109.694 10.6308 110.312 10.5646C111.057 10.4873 111.662 10.4183 112.125 10.3576C112.589 10.2914 112.926 10.192 113.135 10.0595C113.351 9.92152 113.458 9.709 113.458 9.42197V9.37229C113.458 8.74853 113.273 8.26553 112.904 7.92329C112.534 7.58106 112.001 7.40994 111.305 7.40994C110.571 7.40994 109.989 7.57002 109.558 7.89017C109.133 8.21033 108.846 8.58845 108.697 9.02453L105.899 8.62709C106.119 7.85429 106.484 7.20846 106.992 6.68958C107.499 6.16518 108.12 5.77327 108.855 5.51383C109.589 5.24887 110.4 5.11639 111.289 5.11639C111.902 5.11639 112.512 5.18815 113.119 5.33167C113.726 5.47519 114.281 5.71255 114.783 6.04374C115.285 6.36942 115.688 6.81378 115.992 7.37682C116.301 7.93985 116.456 8.64365 116.456 9.48821V18H113.574V16.2529H113.475C113.293 16.6062 113.036 16.9374 112.705 17.2465C112.379 17.5501 111.968 17.7958 111.471 17.9834C110.98 18.1656 110.403 18.2567 109.741 18.2567ZM110.519 16.0542C111.121 16.0542 111.642 15.9355 112.084 15.6982C112.525 15.4553 112.865 15.1351 113.102 14.7377C113.345 14.3403 113.467 13.9069 113.467 13.4377V11.9391C113.373 12.0164 113.213 12.0881 112.986 12.1544C112.766 12.2206 112.517 12.2786 112.241 12.3282C111.965 12.3779 111.692 12.4221 111.421 12.4607C111.151 12.4993 110.916 12.5325 110.718 12.5601C110.27 12.6208 109.87 12.7201 109.517 12.8581C109.164 12.9961 108.885 13.1893 108.681 13.4377C108.476 13.6806 108.374 13.9953 108.374 14.3817C108.374 14.9337 108.576 15.3504 108.979 15.6319C109.382 15.9135 109.895 16.0542 110.519 16.0542ZM118.923 22.7693V5.28199H121.871V7.3851H122.045C122.199 7.07598 122.417 6.74754 122.699 6.39978C122.98 6.0465 123.361 5.74567 123.841 5.49727C124.322 5.24335 124.934 5.11639 125.679 5.11639C126.662 5.11639 127.548 5.36755 128.337 5.86986C129.132 6.36666 129.761 7.10358 130.225 8.08061C130.694 9.05213 130.929 10.2444 130.929 11.6576C130.929 13.0541 130.7 14.2409 130.242 15.2179C129.784 16.195 129.16 16.9402 128.37 17.4535C127.581 17.9669 126.687 18.2236 125.688 18.2236C124.959 18.2236 124.355 18.1021 123.874 17.8592C123.394 17.6164 123.008 17.3238 122.715 16.9816C122.428 16.6338 122.205 16.3054 122.045 15.9963H121.92V22.7693H118.923ZM121.862 11.641C121.862 12.4635 121.978 13.1838 122.21 13.8021C122.448 14.4203 122.787 14.9033 123.229 15.2511C123.676 15.5933 124.217 15.7644 124.851 15.7644C125.514 15.7644 126.069 15.5878 126.516 15.2345C126.963 14.8757 127.3 14.3872 127.526 13.7689C127.758 13.1452 127.874 12.4359 127.874 11.641C127.874 10.8516 127.761 10.1506 127.534 9.53789C127.308 8.92517 126.971 8.44493 126.524 8.09717C126.077 7.74941 125.519 7.57554 124.851 7.57554C124.211 7.57554 123.667 7.74389 123.22 8.08061C122.773 8.41733 122.434 8.88929 122.202 9.49649C121.976 10.1037 121.862 10.8185 121.862 11.641ZM132.949 18V5.28199H135.947V18H132.949ZM134.456 3.47696C133.982 3.47696 133.573 3.31964 133.231 3.005C132.889 2.68484 132.717 2.3012 132.717 1.85409C132.717 1.40145 132.889 1.01781 133.231 0.703172C133.573 0.383014 133.982 0.222935 134.456 0.222935C134.936 0.222935 135.345 0.383014 135.682 0.703172C136.024 1.01781 136.195 1.40145 136.195 1.85409C136.195 2.3012 136.024 2.68484 135.682 3.005C135.345 3.31964 134.936 3.47696 134.456 3.47696ZM144.833 5.28199V7.60038H137.522V5.28199H144.833ZM139.327 2.23496H142.324V14.1747C142.324 14.5776 142.385 14.8867 142.506 15.102C142.633 15.3118 142.799 15.4553 143.003 15.5326C143.207 15.6099 143.434 15.6485 143.682 15.6485C143.87 15.6485 144.041 15.6347 144.196 15.6071C144.356 15.5795 144.477 15.5547 144.56 15.5326L145.065 17.8758C144.905 17.931 144.676 17.9917 144.378 18.058C144.085 18.1242 143.726 18.1628 143.301 18.1739C142.551 18.196 141.874 18.0828 141.273 17.8344C140.671 17.5805 140.194 17.1886 139.84 16.6586C139.493 16.1287 139.321 15.4663 139.327 14.6715V2.23496ZM150.453 18.2567C149.647 18.2567 148.921 18.1132 148.275 17.8261C147.635 17.5336 147.127 17.103 146.752 16.5344C146.382 15.9659 146.197 15.2649 146.197 14.4313C146.197 13.7137 146.33 13.1203 146.595 12.6511C146.86 12.182 147.221 11.8066 147.679 11.5251C148.137 11.2436 148.654 11.031 149.228 10.8875C149.807 10.7385 150.406 10.6308 151.024 10.5646C151.77 10.4873 152.374 10.4183 152.838 10.3576C153.301 10.2914 153.638 10.192 153.848 10.0595C154.063 9.92152 154.171 9.709 154.171 9.42197V9.37229C154.171 8.74853 153.986 8.26553 153.616 7.92329C153.246 7.58106 152.714 7.40994 152.018 7.40994C151.284 7.40994 150.702 7.57002 150.271 7.89017C149.846 8.21033 149.559 8.58845 149.41 9.02453L146.611 8.62709C146.832 7.85429 147.196 7.20846 147.704 6.68958C148.212 6.16518 148.833 5.77327 149.567 5.51383C150.301 5.24887 151.113 5.11639 152.001 5.11639C152.614 5.11639 153.224 5.18815 153.831 5.33167C154.439 5.47519 154.993 5.71255 155.496 6.04374C155.998 6.36942 156.401 6.81378 156.704 7.37682C157.014 7.93985 157.168 8.64365 157.168 9.48821V18H154.287V16.2529H154.187C154.005 16.6062 153.749 16.9374 153.417 17.2465C153.092 17.5501 152.68 17.7958 152.184 17.9834C151.692 18.1656 151.116 18.2567 150.453 18.2567ZM151.231 16.0542C151.833 16.0542 152.355 15.9355 152.796 15.6982C153.238 15.4553 153.577 15.1351 153.815 14.7377C154.058 14.3403 154.179 13.9069 154.179 13.4377V11.9391C154.085 12.0164 153.925 12.0881 153.699 12.1544C153.478 12.2206 153.23 12.2786 152.954 12.3282C152.678 12.3779 152.404 12.4221 152.134 12.4607C151.863 12.4993 151.629 12.5325 151.43 12.5601C150.983 12.6208 150.583 12.7201 150.23 12.8581C149.876 12.9961 149.598 13.1893 149.393 13.4377C149.189 13.6806 149.087 13.9953 149.087 14.3817C149.087 14.9337 149.288 15.3504 149.691 15.6319C150.094 15.9135 150.608 16.0542 151.231 16.0542ZM162.633 1.04265V18H159.636V1.04265H162.633Z" fill="black"/>
</svg>
