<svg width="111" height="36" viewBox="0 0 111 36" fill="none" xmlns="http://www.w3.org/2000/svg">
<path d="M4.65744 12.3546C5.21067 12.3546 5.78233 12.3546 6.33555 12.3546C6.33555 12.6867 6.33555 12.9081 6.33555 13.1479C4.30707 13.1479 2.29703 13.1479 0.268555 13.1479C0.268555 12.9265 0.268555 12.5944 0.268555 12.3546C0.821776 12.3546 1.39344 12.3546 1.94666 12.3546C1.94666 12.1332 1.94666 12.0225 1.94666 11.9118C1.94666 8.53536 1.94666 5.28811 1.94666 1.9117C1.94666 1.5796 1.83602 1.46889 1.50408 1.46889C1.06151 1.46889 0.711132 1.46889 0.268555 1.46889C0.268555 1.13679 0.268555 0.915385 0.268555 0.564829C0.379199 0.564829 0.489843 0.564829 0.600487 0.564829C2.62897 0.564829 4.639 0.564829 6.77813 0.564829C7.57108 0.564829 8.34559 0.675531 9.02789 0.896935C10.4847 1.45044 11.3883 2.79732 11.2777 4.38404C11.167 5.95232 10.1528 7.07779 8.58532 7.4099C7.46043 7.6313 6.33555 7.6313 5.33975 7.6313C4.78653 7.6313 4.5468 7.742 4.5468 8.18481C4.5468 9.42098 4.5468 10.5465 4.5468 11.7826C4.65744 11.9118 4.65744 12.1332 4.65744 12.3546ZM4.5468 1.35819C4.5468 3.25858 4.5468 5.0667 4.5468 6.74568C5.33975 6.74568 6.11426 6.85639 6.90721 6.74568C7.92145 6.63498 8.25338 6.19217 8.36403 5.17741C8.36403 4.38404 8.36403 3.71983 8.36403 2.92647C8.25338 2.13311 7.81081 1.6903 7.01786 1.5796C6.22491 1.46889 5.4504 1.4689 4.5468 1.35819ZM24.9791 23.351C25.2004 23.1296 25.5323 22.7975 25.9934 22.4469C26.104 22.3362 26.3253 22.2255 26.4359 22.3362C26.5466 22.3362 26.6572 22.6683 26.6572 22.779C26.6572 24.1259 26.6572 25.4728 26.6572 26.8196C26.6572 27.041 26.6572 27.2624 26.2146 27.2624C25.8827 27.2624 25.6614 27.2624 25.5323 26.8196C25.4217 26.2661 25.311 25.5835 24.9791 25.03C24.4259 23.7938 23.5223 23.0004 22.0655 23.1296C20.6087 23.1296 19.3731 23.6831 18.5802 25.1591C18.3589 25.4912 18.2483 25.9525 18.1376 26.3953C17.9163 28.185 17.8057 29.9931 18.2483 31.7828C18.6908 33.6832 20.3874 34.8086 22.3974 34.5872C24.0755 34.3658 25.4217 33.0189 25.5323 31.1001C25.5323 30.768 25.7536 30.6573 26.0856 30.6573C26.4175 30.6573 26.4175 30.8787 26.4175 31.2108C26.3068 33.1112 24.85 34.8086 22.9322 35.3621C20.9037 35.8049 17.7688 35.2514 16.2013 32.6684C15.1871 30.9894 14.9658 29.1813 15.4084 27.2809C16.2013 23.2403 20.2398 21.8934 22.8215 22.5576C23.6329 22.6683 24.2968 23.0189 24.9791 23.351ZM68.8496 0.896935C68.8496 1.11834 68.8496 1.33974 68.8496 1.6903C68.407 1.6903 68.0566 1.6903 67.614 1.6903C67.2821 1.6903 67.1715 1.801 67.1715 2.13311C67.1715 3.36928 67.1715 4.71615 67.1715 5.95232C67.1715 6.17373 67.1715 6.39513 67.5034 6.39513C68.8496 6.39513 70.1957 6.39513 71.5419 6.39513C71.5419 4.82685 71.5419 3.36928 71.5419 1.67185C70.9887 1.67185 70.417 1.67185 69.8638 1.67185C69.8638 1.33974 69.8638 1.11834 69.8638 0.878484C71.7632 0.878484 73.7917 0.878484 75.6911 0.878484C75.6911 1.09989 75.6911 1.32129 75.6911 1.67185C75.2485 1.67185 74.8981 1.67185 74.4555 1.67185C74.1236 1.67185 74.013 1.78255 74.013 2.11465C74.013 5.36191 74.013 8.73832 74.013 12.004C74.013 12.3361 74.1236 12.4468 74.4555 12.3361C74.7875 12.3361 75.1379 12.3361 75.3591 12.3361C75.6911 12.3361 75.6911 12.5575 75.6911 12.7789C75.6911 13.111 75.5804 13.111 75.3591 13.111C73.5704 13.111 71.7632 13.111 69.9745 13.111H69.8638C69.6425 12.3177 69.7532 12.3177 70.417 12.3177C70.6383 12.3177 70.9703 12.3177 71.21 12.3177H71.3206C71.3206 12.207 71.3206 12.0963 71.3206 11.9856C71.3206 10.528 71.3206 9.18113 71.3206 7.72355C71.3206 7.39145 71.21 7.17005 70.7674 7.28075C69.6425 7.28075 68.5176 7.28075 67.2821 7.28075C66.9502 7.28075 66.8395 7.39145 66.8395 7.72355C66.8395 9.18113 66.8395 10.528 66.8395 11.9856C66.8395 12.3177 66.9502 12.4284 67.2821 12.4284C67.5034 12.4284 67.7247 12.4284 67.8353 12.4284C68.5176 12.4284 68.5176 12.4284 68.5176 13.2217C66.6182 13.2217 64.5898 13.2217 62.6904 13.2217C62.6904 13.0003 62.6904 12.7789 62.6904 12.4284C63.0223 12.4284 63.4833 12.4284 63.9259 12.4284C64.2578 12.4284 64.3685 12.3177 64.3685 11.9856C64.3685 8.73832 64.3685 5.47261 64.3685 2.09621C64.3685 1.7641 64.2578 1.6534 63.9259 1.6534C63.594 1.6534 63.1329 1.6534 62.6904 1.6534C62.6904 1.43199 62.6904 1.21059 62.6904 0.860032C64.9217 0.896933 66.8211 0.896935 68.8496 0.896935ZM13.5274 6.96709C13.6381 4.93755 14.0806 3.25858 15.6666 1.801C18.027 -0.339238 23.4117 -0.099382 24.7578 4.49475C25.311 6.39513 25.311 8.31396 24.4259 10.1036C23.4117 12.3546 21.0512 13.5908 18.4695 13.2402C15.9985 12.9081 14.2097 11.2107 13.7487 8.75677C13.6381 8.20326 13.5274 7.6313 13.5274 6.96709ZM16.3304 6.85639C16.3304 7.53905 16.3304 8.20326 16.4411 8.88592C16.5517 10.1221 16.8836 11.1369 17.7872 12.0225C18.6908 12.9265 20.1476 12.9265 20.9222 12.0225C21.3647 11.469 21.8258 10.7863 22.047 10.1221C22.4896 8.55382 22.4896 6.98554 22.2683 5.39881C22.1577 4.60545 22.047 3.83054 21.7151 3.14787C21.2725 2.13311 20.4796 1.46889 19.244 1.46889C18.1192 1.46889 17.3447 2.15156 16.8836 3.14787C16.2198 4.16264 16.3304 5.50951 16.3304 6.85639ZM98.0228 1.6903C98.0228 1.35819 98.0228 1.24749 98.0228 0.896935C98.2441 0.896935 98.4654 0.896935 98.8157 0.896935C99.7193 0.896935 100.715 0.896935 101.619 0.896935C102.061 0.896935 102.412 1.00764 102.633 1.45044C104.422 3.92279 106.229 6.39513 108.018 8.86747C108.018 8.75677 108.018 8.86747 108.239 8.97817C108.239 8.75677 108.35 8.64607 108.35 8.53537C108.35 6.50583 108.35 4.38404 108.35 2.35451C108.35 1.9117 108.239 1.67185 107.796 1.67185C107.464 1.67185 107.132 1.67185 106.671 1.56114C106.671 1.33974 106.671 1.11834 106.671 0.767781C108.128 0.767781 109.474 0.767781 110.931 0.767781C110.931 0.989185 110.931 1.21059 110.931 1.56114C110.489 1.56114 110.267 1.67185 109.917 1.67185C109.474 1.67185 109.235 1.89325 109.235 2.46521C109.235 5.84162 109.235 9.19958 109.235 12.576C109.235 12.7974 109.124 13.1295 108.903 13.1295C108.682 13.1295 108.46 13.0188 108.221 12.9081C108.11 12.9081 108.11 12.7974 108.11 12.6867C106.081 9.88224 104.071 7.07779 101.932 4.27334C101.6 3.71983 101.139 3.25858 100.697 2.59436C100.697 2.81577 100.697 3.03717 100.697 3.14787C100.697 5.95232 100.697 8.75677 100.697 11.5612C100.697 12.1147 100.807 12.3546 101.361 12.3546C101.471 12.3546 101.582 12.3546 101.692 12.3546C102.356 12.3546 102.356 12.3546 102.356 13.1479C100.9 13.1479 99.5534 13.1479 98.0965 13.1479C97.8753 12.4653 97.8753 12.3546 98.6498 12.3546C99.664 12.2439 99.664 12.2439 99.664 11.2291C99.664 8.20326 99.664 5.15896 99.664 2.24381C99.664 1.801 99.5534 1.56114 99.1108 1.6903C98.7051 1.6903 98.3547 1.6903 98.0228 1.6903ZM46.6285 34.3474C47.1817 34.3474 47.5321 34.3474 47.9747 34.3474C48.3066 34.3474 48.3066 34.5688 48.3066 34.7902C48.3066 35.0116 48.3066 35.233 47.9747 35.233C46.1859 35.233 44.4894 35.233 42.7006 35.233C42.3687 35.233 42.3687 35.1223 42.3687 34.7902C42.3687 34.5688 42.3687 34.3474 42.7006 34.3474C43.1432 34.3474 43.4936 34.3474 44.0468 34.3474C44.0468 34.126 44.0468 33.9046 44.0468 33.7939C44.0468 30.6573 44.0468 27.5023 44.0468 24.3657C44.0468 23.9229 43.9362 23.6831 43.4936 23.6831C43.2723 23.6831 43.051 23.6831 42.8113 23.6831C42.4794 23.6831 42.3687 23.5724 42.3687 23.2403C42.3687 22.9082 42.4794 22.7975 42.8113 22.7975C44.9504 22.7975 47.0711 22.7975 49.2102 22.7975C50.5564 22.7975 51.9026 23.2403 52.5849 24.4764C53.8204 26.506 52.6955 28.9599 50.3351 29.4211C49.3209 29.6425 48.196 29.6425 47.2002 29.6425C46.7576 29.6425 46.6469 29.7532 46.6469 30.196C46.6285 31.6536 46.6285 32.8898 46.6285 34.3474ZM46.5179 26.2661C46.5179 27.0595 46.5179 27.7237 46.5179 28.5171C46.5179 28.7385 46.5179 28.9599 46.8498 28.9599C47.5321 28.9599 48.196 28.9599 48.8783 28.8492C49.7819 28.7385 50.2244 28.2957 50.2244 27.3916C50.2244 26.5982 50.2244 25.8233 50.2244 25.03C50.1138 24.1259 49.7819 23.6831 48.8783 23.5724C48.196 23.4617 47.6427 23.5724 46.9789 23.4617C46.6469 23.4617 46.5363 23.5724 46.5363 23.9045C46.5179 24.8085 46.5179 25.6019 46.5179 26.2661ZM66.2679 23.7938C65.5856 23.9045 64.8111 23.9045 64.2394 24.1259C63.6862 24.2366 63.3358 24.6794 63.2252 25.2514C63.1145 25.6942 63.0039 26.2661 63.0039 26.7089C62.8932 27.3916 62.8932 27.3916 62.1003 27.2624C62.1003 26.9303 62.1003 26.7089 62.1003 26.3584C62.2109 25.3436 62.3216 24.3288 62.3216 23.3325C62.3216 23.1111 62.3216 22.8897 62.6535 22.8897C66.0281 22.8897 69.2737 22.8897 72.6484 22.8897C72.6484 22.8897 72.759 22.8897 72.8697 23.0004C72.9803 24.3473 73.0909 25.8049 73.2016 27.1517C72.4086 27.3731 72.4086 27.3731 72.298 26.5982C72.1873 26.2661 72.0767 25.9156 72.0767 25.4728C71.8554 24.458 71.1731 23.9045 70.1773 23.9045C69.7347 23.9045 69.3844 23.9045 68.9418 23.9045C68.9418 27.3916 68.9418 30.8603 68.9418 34.3474C69.7347 34.3474 70.5092 34.3474 71.3022 34.3474C71.3022 34.6795 71.3022 34.9009 71.3022 35.1407C68.8311 35.1407 66.4707 35.1407 63.9997 35.1407C63.9997 34.9193 63.9997 34.6979 63.9997 34.3474C64.7926 34.3474 65.5671 34.3474 66.3601 34.3474C66.2679 30.8787 66.2679 27.3916 66.2679 23.7938ZM89.3925 13.1479C87.4931 13.1479 85.6859 13.1479 83.8972 13.1479C83.6759 12.3546 83.7866 12.3546 84.4504 12.3546C84.6717 12.3546 84.893 12.3546 85.2434 12.3546C84.9114 11.5612 84.6901 10.7863 84.4504 10.1036C84.4504 9.99294 84.2291 9.99294 84.1185 9.99294C82.9936 9.99294 81.8687 9.99294 80.7438 9.99294C80.6332 9.99294 80.4119 10.1036 80.4119 10.2143C80.1906 10.897 79.9693 11.5612 79.7296 12.2439C80.0615 12.2439 80.2828 12.3546 80.5225 12.3546C81.2048 12.3546 81.2048 12.576 81.0758 13.1479C79.7296 13.1479 78.4941 13.1479 77.1479 13.1479C77.0372 12.3546 77.0372 12.3546 77.7011 12.3546C78.3834 12.3546 78.7154 12.1332 78.9366 11.4505C80.0615 8.07411 81.2971 4.71615 82.5326 1.22904C82.6432 0.896933 82.7539 0.546377 83.2149 0.546377C83.6575 0.546377 83.8972 0.767781 84.0078 1.22904C84.9114 3.92279 85.9072 6.61654 86.8108 9.31028C87.1428 10.2143 87.4931 11.1 87.7144 12.004C87.8251 12.3361 88.0464 12.4468 88.3967 12.4468C88.5074 12.4468 88.618 12.4468 88.7287 12.4468C89.5032 12.3546 89.5032 12.3546 89.3925 13.1479ZM84.2291 8.97817C83.6759 7.4099 83.1042 5.95232 82.6617 4.36559H82.551C81.9978 5.82317 81.5368 7.39145 80.9836 8.84902C81.9794 8.97818 82.9936 8.97817 84.2291 8.97817ZM35.4166 34.3474C35.9698 34.3474 36.4308 34.3474 36.8734 34.3474C36.5414 33.554 36.3202 32.7791 36.0804 32.0964C36.0804 31.9857 35.8591 31.875 35.7485 31.875C34.6236 31.875 33.4987 31.875 32.3738 31.875C32.2632 31.875 32.0419 31.9857 31.9313 32.0964C31.71 32.7791 31.4887 33.3326 31.249 34.126C31.6915 34.2367 32.1525 34.2367 32.5951 34.3474C32.5951 34.5688 32.5951 34.7902 32.5951 35.1407C31.249 35.1407 30.0134 35.1407 28.6673 35.1407C28.446 34.3474 28.446 34.3474 29.2205 34.3474C30.1241 34.3474 30.1241 34.3474 30.456 33.4433C31.6915 30.0669 32.8164 26.7089 34.0519 23.2218C34.1626 22.8897 34.2732 22.5392 34.8449 22.5392C35.3981 22.5392 35.5272 22.8713 35.6378 23.2218C36.8734 26.7089 38.1089 30.2883 39.3444 33.7754C39.4551 34.2182 39.6764 34.3289 40.1374 34.3289C40.3587 34.3289 40.4693 34.3289 40.6906 34.3289C41.0225 34.3289 41.0225 34.5503 41.0225 34.7717C41.0225 34.9931 40.9119 35.2145 40.6906 35.2145C39.1231 35.2145 37.445 35.2145 35.8591 35.2145C35.1768 35.1407 35.5272 34.6979 35.4166 34.3474ZM32.3738 30.9894C33.4987 30.9894 34.6236 30.9894 35.7485 30.9894C35.1953 29.4211 34.6236 27.9636 34.181 26.3768H34.0704C33.4987 27.9636 32.9455 29.4211 32.3738 30.9894ZM79.7296 35.1407C79.7296 34.9193 79.7296 34.6979 79.7296 34.3474C80.1722 34.3474 80.6332 34.3474 81.1864 34.3474C80.8545 33.554 80.6332 32.8898 80.3935 32.0964C80.3935 31.9857 80.1722 31.875 79.9509 31.875C78.826 31.875 77.8118 31.875 76.7053 31.875C76.5947 31.875 76.3734 31.9857 76.2627 32.2071C76.0415 32.7606 75.8202 33.4433 75.5804 34.2367C76.023 34.3474 76.484 34.3474 76.9266 34.4581C76.9266 34.6795 76.9266 34.9009 76.9266 35.2514C75.5804 35.2514 74.2343 35.2514 72.9987 35.2514C72.7774 34.5688 72.7774 34.4581 73.552 34.4581C74.4556 34.4581 74.4556 34.4581 74.7875 33.554C76.023 30.1776 77.1479 26.8196 78.3834 23.4432C78.4941 23.1111 78.6047 22.7606 79.1764 22.7606C79.7296 22.7606 79.8587 23.0927 79.9693 23.4432C81.2048 26.9303 82.4404 30.5097 83.6759 33.9968C83.7865 34.3289 84.0078 34.5503 84.3582 34.4396C84.4689 34.4396 84.6901 34.4396 84.8008 34.4396C85.1327 34.4396 85.354 34.4396 85.354 34.8824C85.354 35.3252 85.1327 35.3252 84.8008 35.3252C83.2333 35.3252 81.6659 35.3252 80.1906 35.3252C80.08 35.1407 79.9693 35.1407 79.7296 35.1407ZM78.5125 26.4875H78.4019C77.8486 27.9451 77.3876 29.5134 76.8344 30.971C77.9593 30.971 79.0842 30.971 80.2091 30.971C79.5083 29.4211 78.9551 27.9636 78.5125 26.4875ZM43.2539 6.96709C44.2681 5.17741 45.1533 3.59068 46.1675 1.801C45.7249 1.6903 45.3745 1.6903 44.932 1.5796C44.932 1.35819 44.932 1.13679 44.932 0.786232C46.2781 0.786232 47.5137 0.786232 48.8598 0.786232C48.8598 1.00764 48.8598 1.22904 48.8598 1.46889L48.7492 1.5796C47.6243 1.46889 47.0711 2.0224 46.6101 2.92647C45.8171 4.60545 44.8213 6.17372 43.9177 7.76045C43.8071 7.98185 43.6964 8.20326 43.6964 8.44312C43.6964 9.56858 43.6964 10.6941 43.6964 11.8195C43.6964 12.1516 43.8071 12.2623 44.139 12.2623C44.3603 12.2623 44.5816 12.2623 44.6922 12.2623C45.3745 12.2623 45.3745 12.2623 45.2455 13.0557C43.3461 13.0557 41.4282 13.0557 39.5288 13.0557C39.5288 12.8343 39.5288 12.6129 39.5288 12.2623C39.9714 12.2623 40.4324 12.2623 40.7644 12.2623C40.9857 12.2623 41.2069 12.1516 41.2069 11.9302C41.2069 10.8048 41.2069 9.56858 41.2069 8.44312C41.2069 8.22171 41.0963 8.11101 40.9857 7.88961C39.8608 5.86007 38.7359 3.95969 37.611 2.0593C37.3897 1.8379 37.0578 1.7272 36.8181 1.7272C36.4861 1.6165 36.1357 1.7272 35.8038 1.7272C35.8038 1.5058 35.8038 1.28439 35.8038 0.933835C37.7032 0.933835 39.5104 0.933835 41.4098 0.933835C41.4098 1.15524 41.4098 1.37664 41.4098 1.7272C40.9672 1.7272 40.6168 1.7272 40.0636 1.8379C41.2438 3.47998 42.1474 5.17741 43.2539 6.96709ZM61.2151 3.03717C61.2151 3.71983 61.2151 4.38404 61.2151 4.93755C61.2151 5.26966 61.2151 5.49106 60.7725 5.49106C60.4406 5.49106 60.2193 5.38036 60.2193 5.04826C60.1087 3.92279 59.6661 2.79732 58.6519 2.13311C56.9738 0.786233 54.1708 1.6903 53.3778 3.81208C53.1565 4.71615 53.0459 5.71247 53.0459 6.61653C53.0459 7.742 53.1565 8.97817 53.4885 10.1036C53.931 11.7826 55.6276 12.6867 57.4163 12.576C59.0944 12.3546 60.33 11.0077 60.4406 9.32873C60.4406 8.99662 60.5512 8.77522 60.9938 8.77522C61.4364 8.77522 61.3258 9.10732 61.3258 9.32873C61.2151 11.1184 59.8689 12.7051 57.9511 13.2587C55.3694 13.9413 52.3451 12.7051 50.999 10.3435C49.6528 7.87115 49.6528 3.27703 53.3594 1.35819C55.2588 0.343425 57.3979 0.12202 59.3157 1.46889C59.4264 1.5796 59.6477 1.46889 59.7583 1.46889C59.9796 1.24749 60.2009 1.02609 60.5513 0.786232C60.6619 0.786232 60.8832 0.564827 60.9938 0.675529C61.1045 0.675529 61.2151 1.00764 61.2151 1.11834C61.2151 1.801 61.2151 2.35451 61.2151 3.03717ZM96.1234 30.3067C95.9021 31.875 95.7915 33.3326 95.5702 34.9193C95.5702 35.03 95.2382 35.1407 95.0169 35.1407C92.7672 35.1407 90.5359 35.1407 88.2861 35.1407C87.9541 35.1407 87.6038 35.1407 87.2718 35.1407C86.5895 35.1407 86.5895 35.1407 86.7186 34.3474C87.2718 34.3474 87.7329 34.3474 88.2861 34.3474C88.2861 34.126 88.2861 33.9046 88.2861 33.7939C88.2861 30.6573 88.2861 27.3916 88.2861 24.255C88.2861 23.8122 88.1754 23.5724 87.7329 23.7015C87.6222 23.7015 87.4009 23.7015 87.2903 23.7015C86.4973 23.7015 86.4973 23.7015 86.7371 22.9082C88.7655 22.9082 90.8862 22.9082 92.9147 22.9082C93.136 23.7015 93.0254 23.7015 92.3615 23.7015C91.9189 23.7015 91.4579 23.7015 90.9047 23.7015C90.9047 27.2993 90.9047 30.768 90.9047 34.2551C92.9331 34.6979 94.5006 33.8123 94.9432 31.8935C95.0538 31.5614 95.0538 31.2108 95.1645 30.8787C95.3304 30.196 95.3304 30.0853 96.1234 30.3067ZM36.1911 8.31396C35.9698 9.88224 35.8591 11.5612 35.6378 13.1479C32.6136 13.1479 29.6815 13.1479 26.7679 13.1479C26.7679 12.9265 26.7679 12.7051 26.7679 12.3546C27.2104 12.3546 27.5608 12.3546 28.0034 12.3546C28.3353 12.3546 28.446 12.2439 28.446 11.9118C28.446 8.53536 28.446 5.17741 28.446 1.9117C28.446 1.801 28.446 1.801 28.446 1.6903C27.8927 1.6903 27.4317 1.6903 26.8785 1.6903C26.8785 1.35819 26.8785 1.13679 26.8785 0.896935C29.0176 0.896935 31.1383 0.896935 33.2774 0.896935C33.2774 1.11834 33.2774 1.33974 33.2774 1.6903C32.5951 1.6903 31.9313 1.6903 31.1383 1.6903C31.1383 1.9117 31.1383 2.1331 31.1383 2.24381C31.1383 5.38036 31.1383 8.64607 31.1383 11.7826C31.1383 12.2254 31.249 12.3361 31.6915 12.3361C33.9413 12.3361 34.9371 11.4321 35.3981 9.19958C35.3981 9.08888 35.5088 8.97817 35.5088 8.86747C35.2875 8.20326 35.6378 8.20326 36.1911 8.31396ZM54.5949 23.6831C54.5949 23.351 54.5949 23.1296 54.5949 22.8897C56.6234 22.8897 58.6334 22.8897 60.6619 22.8897C60.6619 23.1111 60.6619 23.3325 60.6619 23.6831C60.2193 23.6831 59.7583 23.6831 59.3157 23.6831C59.0944 23.6831 58.8731 23.7938 58.8731 24.0152C58.8731 27.3916 58.8731 30.7496 58.8731 34.126C58.8731 34.2367 58.8731 34.2367 58.9838 34.3474C59.537 34.3474 60.1087 34.3474 60.6619 34.3474C60.6619 34.6795 60.6619 34.9009 60.6619 35.1407C58.6334 35.1407 56.6234 35.1407 54.5949 35.1407C54.5949 34.9193 54.5949 34.6979 54.5949 34.3474C55.0375 34.3474 55.4985 34.3474 55.9411 34.3474C56.273 34.3474 56.273 34.2367 56.273 34.0153C56.273 30.768 56.273 27.3916 56.273 24.1259C56.273 23.7938 56.1624 23.6831 55.8304 23.6831C55.4985 23.6831 55.0559 23.6831 54.5949 23.6831ZM90.7387 1.6903C90.7387 1.35819 90.7387 1.13679 90.7387 0.896935C90.96 0.896935 91.1813 0.896935 91.2919 0.896935C92.8594 0.896935 94.5375 0.896935 96.1234 0.896935C96.7873 0.786233 96.7873 0.786231 96.7873 1.6903C96.566 1.6903 96.234 1.6903 95.8837 1.6903C95.6624 1.6903 95.3304 1.6903 94.9801 1.6903C94.9801 1.9117 94.9801 2.1331 94.9801 2.24381C94.9801 5.38036 94.9801 8.53537 94.9801 11.7826C94.9801 12.3361 95.0907 12.4653 95.6624 12.3361C95.773 12.3361 95.9943 12.3361 96.1049 12.3361C96.7688 12.3361 96.7688 12.3361 96.7688 13.1295C94.7403 13.1295 92.7303 13.1295 90.7018 13.1295C90.5912 12.3361 90.5912 12.3361 91.3841 12.3361C92.509 12.3361 92.509 12.3361 92.509 11.2107C92.509 8.18481 92.509 5.14051 92.509 2.22536C92.509 1.78255 92.3984 1.5427 91.9558 1.67185C91.5132 1.6903 91.0706 1.6903 90.7387 1.6903Z" fill="black"/>
</svg>
