<svg width="142" height="24" viewBox="0 0 142 24" fill="none" xmlns="http://www.w3.org/2000/svg">
<path d="M5.34023 0.916213L0.854032 3.43914C0.723135 3.50938 0.723135 3.69084 0.854032 3.76694L11.421 9.71425C11.54 9.77864 11.6828 9.77864 11.8018 9.71425L16.288 7.18547C16.4189 7.11523 16.4189 6.93376 16.288 6.85767L5.71507 0.916213C5.60202 0.851822 5.45327 0.851822 5.34023 0.916213Z" fill="black"/>
<path d="M17.3551 0.904738L12.857 3.43351C12.7261 3.50376 12.7261 3.69107 12.857 3.76132L17.4205 6.33107C17.5395 6.39546 17.6823 6.39546 17.8013 6.33107L22.2994 3.80229C22.4303 3.73205 22.4303 3.54473 22.2994 3.47449L17.7299 0.904738C17.6168 0.840348 17.4741 0.840348 17.3551 0.904738Z" fill="black"/>
<path d="M12.0732 11.0277V16.1438C12.0732 16.2901 12.2339 16.3779 12.3588 16.3077L16.9343 13.7321C16.9938 13.697 17.0295 13.6384 17.0295 13.5682V8.34675C17.0295 8.2004 16.8688 8.1126 16.7439 8.18284L12.2696 10.6999C12.1446 10.7702 12.0732 10.8931 12.0732 11.0277Z" fill="black"/>
<path d="M18.2551 7.32771L22.7413 4.80479C22.8663 4.73455 23.0269 4.82235 23.0269 4.96869V16.8867C23.0269 17.0214 22.9555 17.1443 22.8365 17.2145L12.3588 23.115C12.2339 23.1852 12.0732 23.0974 12.0732 22.9511V17.835C12.0732 17.7004 12.1446 17.5775 12.2636 17.5072L17.8863 14.3462C18.0053 14.2818 18.0767 14.1531 18.0767 14.0184L18.0648 7.65552C18.0648 7.52088 18.1361 7.3921 18.2551 7.32771Z" fill="black"/>
<path d="M11.0489 11.0043L11.0251 16.2258C11.0251 16.3312 10.9061 16.4014 10.8109 16.3487L5.26562 13.2346C5.14068 13.1643 4.98003 13.2521 4.98003 13.3985V19.5507C4.98003 19.697 4.81938 19.7848 4.69444 19.7146L0.190395 17.1799C0.0713981 17.1155 0 16.9868 0 16.8521V4.89313C0 4.74679 0.160646 4.65899 0.285593 4.72923L10.8585 10.6824C10.9775 10.7468 11.0489 10.8697 11.0489 11.0043Z" fill="black"/>
<path d="M6.30415 14.9414L10.832 17.4936C10.951 17.558 11.0224 17.6868 11.0224 17.8214V22.955C11.0224 23.1014 10.8617 23.1892 10.7368 23.1189L6.20895 20.5667C6.08995 20.5024 6.01855 20.3736 6.01855 20.2389V15.1053C6.01855 14.959 6.1792 14.8653 6.30415 14.9414Z" fill="black"/>
<path d="M40.5215 8.59562C40.5215 10.7849 39.0162 12.0083 37.267 12.2132C36.672 12.2834 36.2138 12.301 35.5177 12.301H33.7506V16.779H31.335V4.89612H35.5177C36.2198 4.89612 36.672 4.91368 37.267 4.98392C39.1055 5.1888 40.5215 6.41221 40.5215 8.59562ZM37.9869 8.59562C37.9869 7.47758 37.3919 6.93904 36.553 6.82197C36.2912 6.78684 35.9223 6.76928 35.482 6.76928H33.7506V10.422H35.482C35.9223 10.422 36.2852 10.4044 36.553 10.3693C37.3919 10.2522 37.9869 9.71952 37.9869 8.59562Z" fill="black"/>
<path d="M47.1216 7.46233V9.37647C45.1105 9.23598 44.111 10.1199 44.111 12.5784V16.7813H41.6953V7.61452H44.111V9.28281L44.8487 8.00672C45.3069 7.59111 45.9197 7.38623 46.4433 7.38623C46.717 7.39208 46.9074 7.40964 47.1216 7.46233Z" fill="black"/>
<path d="M57.2055 12.198C57.2055 14.9727 55.4741 17.0214 52.3743 17.0214C49.2744 17.0214 47.543 14.9727 47.543 12.198C47.543 9.40585 49.2744 7.37463 52.3743 7.37463C55.4682 7.37463 57.2055 9.4117 57.2055 12.198ZM54.7006 12.198C54.7006 10.2195 53.826 9.04292 52.3743 9.04292C50.9225 9.04292 50.0479 10.2137 50.0479 12.198C50.0479 14.159 50.9225 15.3532 52.3743 15.3532C53.826 15.3532 54.7006 14.1649 54.7006 12.198Z" fill="black"/>
<path d="M61.5821 13.4915C61.5821 13.8017 61.5821 14.0593 61.5999 14.2993C61.6713 15.1949 62.0045 15.3997 63.3492 15.3002V16.8515C62.8077 16.9393 62.296 16.9744 61.7546 16.9744C59.9518 16.9744 59.3033 16.389 59.1962 15.0954C59.1605 14.6798 59.1605 14.2876 59.1605 13.7666V9.25342H57.792V7.68464H59.1605V4.64075H61.5761V7.68464H63.5039V9.25342H61.5761V13.4915H61.5821Z" fill="black"/>
<path d="M73.8032 12.198C73.8032 14.9727 72.0718 17.0214 68.9719 17.0214C65.872 17.0214 64.1406 14.9727 64.1406 12.198C64.1406 9.40585 65.872 7.37463 68.9719 7.37463C72.0718 7.37463 73.8032 9.4117 73.8032 12.198ZM71.2983 12.198C71.2983 10.2195 70.4237 9.04292 68.9719 9.04292C67.5202 9.04292 66.6455 10.2137 66.6455 12.198C66.6455 14.159 67.5202 15.3532 68.9719 15.3532C70.4237 15.3532 71.2983 14.1649 71.2983 12.198Z" fill="black"/>
<path d="M83.5739 10.9219H81.194C80.9679 9.59316 80.2658 9.04292 79.2662 9.04292C78.0406 9.04292 77.1659 10.0263 77.1659 12.1102C77.1659 14.3814 78.0406 15.3473 79.2484 15.3473C80.1944 15.3473 80.8965 14.7619 81.1405 13.6088H83.5561C83.1515 15.8624 81.4379 17.0214 79.1115 17.0214C76.571 17.0214 74.667 15.4351 74.667 12.2683C74.667 9.13073 76.7673 7.37463 79.3257 7.37463C81.8425 7.37463 83.4014 8.89073 83.5739 10.9219Z" fill="black"/>
<path d="M94.0639 12.198C94.0639 14.9727 92.3325 17.0214 89.2327 17.0214C86.1328 17.0214 84.4014 14.9727 84.4014 12.198C84.4014 9.40585 86.1328 7.37463 89.2327 7.37463C92.3266 7.37463 94.0639 9.4117 94.0639 12.198ZM91.559 12.198C91.559 10.2195 90.6844 9.04292 89.2327 9.04292C87.7809 9.04292 86.9063 10.2137 86.9063 12.198C86.9063 14.159 87.7809 15.3532 89.2327 15.3532C90.6844 15.3532 91.559 14.1649 91.559 12.198Z" fill="black"/>
<path d="M95.1514 16.7812V4.64075H97.567V16.7812H95.1514Z" fill="black"/>
<path d="M112.504 16.7812H103.787V4.64075H106.203V14.7968H112.504V16.7812Z" fill="black"/>
<path d="M119.05 15.4408L118.591 16.4243C117.943 16.8574 117.157 17.0272 116.283 17.0272C114.67 17.0272 113.29 16.0965 113.29 14.3579C113.29 12.3443 115.039 11.2028 118.419 11.2028H119.014V11.0155C119.014 10.7404 119.014 10.4652 118.978 10.155C118.907 9.51696 118.49 9.05452 117.544 9.05452C116.58 9.05452 116.057 9.60476 115.985 10.6057L113.641 10.6233C113.712 8.55696 115.408 7.38623 117.633 7.38623C120.239 7.38623 121.221 8.50428 121.364 10.0906C121.4 10.5238 121.418 11.0038 121.418 11.5013V14.4633C121.418 15.154 121.453 15.7745 121.59 16.7872H119.228L119.05 15.4408ZM119.014 13.4038V12.6604C117.086 12.5199 115.795 12.953 115.795 14.1589C115.795 14.9667 116.354 15.3472 117.211 15.3472C118.193 15.353 119.014 14.6799 119.014 13.4038Z" fill="black"/>
<path d="M132.895 12.028C132.895 15.3354 130.831 17.0212 128.433 17.0212C127.665 17.0212 126.719 16.8339 126.243 16.5061L125.63 15.5578V16.7812H123.215V4.64075H125.63V9.01342L126.333 8.01245C126.856 7.59684 127.802 7.3744 128.748 7.3744C131.354 7.3744 132.895 9.32366 132.895 12.028ZM130.396 12.1802C130.396 10.3012 129.486 9.04269 128.052 9.04269C126.719 9.04269 125.636 9.85049 125.636 12.0924V12.5256C125.636 14.6095 126.844 15.3529 127.963 15.3529C129.361 15.3529 130.396 14.2993 130.396 12.1802Z" fill="black"/>
<path d="M141.404 10.2722H138.988C138.834 9.42926 138.358 8.94341 137.554 8.94341C136.835 8.94341 136.454 9.35901 136.454 9.92682C136.454 10.6175 137.031 10.9805 138.572 11.3551C140.482 11.8351 141.6 12.5961 141.6 14.2819C141.6 16.1258 139.905 17.0214 137.769 17.0214C135.508 17.0214 133.919 16.0556 133.651 13.9892H136.067C136.257 14.9902 136.959 15.4527 137.798 15.4527C138.572 15.4527 139.167 15.1249 139.167 14.4517C139.167 13.7434 138.554 13.3512 136.942 12.9532C135.21 12.52 134.02 11.7824 134.02 10.1961C134.02 8.43999 135.49 7.36877 137.715 7.36877C139.934 7.37463 141.196 8.59804 141.404 10.2722Z" fill="black"/>
</svg>
