<svg width="121" height="30" viewBox="0 0 121 30" fill="none" xmlns="http://www.w3.org/2000/svg">
<g clip-path="url(#clip0_3_1629)">
<path fill-rule="evenodd" clip-rule="evenodd" d="M44.3038 8.38281C47.3416 8.38281 49.3351 10.2233 49.3351 12.7716C49.3351 15.2239 47.9625 16.7027 46.4075 17.0266L49.622 22.8066H46.4341L43.4839 17.3925H42.196V22.8066H39.3252V8.38281H44.3038ZM42.196 11.0305V14.5643H44.2523C45.8162 14.5643 46.5797 13.7345 46.5589 12.7714C46.5797 11.7751 45.7751 11.0304 44.2523 11.0304L42.196 11.0305Z" fill="black"/>
<path fill-rule="evenodd" clip-rule="evenodd" d="M60.8932 17.7982C60.8932 18.1074 60.8726 18.4788 60.8417 18.705H53.7728C54.0609 20.1476 55.0693 20.7756 56.3348 20.7756C57.1992 20.7756 58.1354 20.4253 58.8556 19.818L60.43 21.5486C59.2982 22.5892 57.8576 23.0627 56.1805 23.0627C53.1246 23.0627 51.0049 20.982 51.0049 17.84C51.0049 14.6974 53.0626 12.5547 56.0464 12.5547C58.9173 12.5547 60.883 14.6871 60.8932 17.7982ZM53.7832 16.8715H58.1972C57.9504 15.5939 57.1786 14.8729 56.0261 14.8729C54.7606 14.8729 54.0197 15.635 53.7832 16.8715Z" fill="black"/>
<path fill-rule="evenodd" clip-rule="evenodd" d="M73.6728 17.8086C73.6728 20.807 71.5942 23.0629 68.8472 23.0629C67.5093 23.0629 66.5628 22.5377 65.9147 21.765V26.9267H63.2393V12.8223H65.8631V13.925C66.511 13.1107 67.468 12.5547 68.8367 12.5547C71.5942 12.5547 73.6728 14.8106 73.6728 17.8086ZM65.7809 17.8086C65.7809 19.385 66.8199 20.5595 68.343 20.5595C69.9275 20.5595 70.9152 19.3335 70.9152 17.8086C70.9152 16.2841 69.9275 15.058 68.343 15.058C66.8199 15.058 65.7809 16.2327 65.7809 17.8086Z" fill="black"/>
<path fill-rule="evenodd" clip-rule="evenodd" d="M85.1434 18.5566C85.1434 21.7089 82.9209 23.0686 80.4308 23.0686C77.9305 23.0686 75.708 21.7087 75.708 18.5566V12.8281H78.3934V18.3195C78.3934 19.9165 79.2682 20.5654 80.4308 20.5654C81.5832 20.5654 82.4681 19.9165 82.4681 18.3195V12.8281H85.1434V18.5566Z" fill="black"/>
<path fill-rule="evenodd" clip-rule="evenodd" d="M98.2353 17.815C98.2353 20.8134 96.1568 23.0693 93.4094 23.0693C92.0305 23.0693 91.0735 22.5134 90.4254 21.7094V22.8122H87.8018V7.97656H90.4769V13.8696C91.1253 13.0864 92.0614 12.5611 93.3992 12.5611C96.1568 12.5611 98.2353 14.817 98.2353 17.815ZM90.3432 17.815C90.3432 19.3914 91.3824 20.566 92.9055 20.566C94.49 20.566 95.4778 19.3399 95.4778 17.815C95.4778 16.2905 94.49 15.0644 92.9055 15.0644C91.3824 15.0644 90.3432 16.2391 90.3432 17.815Z" fill="black"/>
<path fill-rule="evenodd" clip-rule="evenodd" d="M103.112 22.8122H100.427V7.97656H103.112V22.8122Z" fill="black"/>
<path fill-rule="evenodd" clip-rule="evenodd" d="M108.978 9.55888C108.978 10.5274 108.227 11.2695 107.26 11.2695C106.293 11.2695 105.552 10.5274 105.552 9.55888C105.552 8.59085 106.293 7.82812 107.26 7.82812C108.227 7.82812 108.978 8.59085 108.978 9.55888ZM108.618 22.8083H105.932V12.8248H108.618V22.8083Z" fill="black"/>
<path fill-rule="evenodd" clip-rule="evenodd" d="M120.119 14.4398L118.185 16.0574C117.578 15.4083 116.929 15.058 116.055 15.058C114.666 15.058 113.554 16.15 113.554 17.8086C113.554 19.4782 114.655 20.5595 116.045 20.5595C116.909 20.5595 117.65 20.1683 118.216 19.5501L120.129 21.1882C119.193 22.3933 117.794 23.0629 116.127 23.0629C112.947 23.0629 110.817 20.8379 110.817 17.8086C110.817 14.7901 112.947 12.5547 116.127 12.5547C117.794 12.5548 119.203 13.2348 120.119 14.4398Z" fill="black"/>
<g clip-path="url(#clip1_3_1629)">
<path d="M18.7022 17.5386L25.9584 28.8396L1.72363 28.8397V0.679688L14.86 0.680025C15.0985 0.680025 15.9995 0.707276 16.5163 0.775142L16.5197 0.775568C20.5548 1.28812 23.6809 4.74853 23.6809 8.94809C23.6809 12.222 21.7815 15.0495 19.0291 16.3794L18.2115 16.7745L18.7022 17.5386Z" stroke="black" stroke-width="2"/>
<path d="M7.18457 0.953125L7.90258 0.495363L25.7699 28.2732L25.0519 28.731L7.18457 0.953125Z" fill="black" stroke="black"/>
<path d="M2.12304 27.9213L12.9975 11.0859L12.8495 9.75L1.50488 27.5272L1.81425 27.7244L2.12304 27.9213Z" fill="black" stroke="black"/>
<path d="M2.15332 16.8125H18.1093V17.6618H2.15332V16.8125Z" fill="black" stroke="black"/>
<path d="M12.9189 27.8984V10.1963H13.7714V27.8984H12.9189Z" fill="black" stroke="black"/>
</g>
</g>
<defs>
<clipPath id="clip0_3_1629">
<rect width="120" height="30" fill="white" transform="translate(0.200195)"/>
</clipPath>
<clipPath id="clip1_3_1629">
<rect width="27.3555" height="29.7692" fill="white" transform="translate(0.114258 -0.125)"/>
</clipPath>
</defs>
</svg>
