<svg width="212" height="18" viewBox="0 0 212 18" fill="none" xmlns="http://www.w3.org/2000/svg">
<g clip-path="url(#clip0_3_1496)">
<path d="M31.2897 9.9848H37.5613V12.2155H28.9604V14.5983H37.4588C38.0742 14.5975 38.6639 14.3347 39.0991 13.8674C39.5343 13.4002 39.7791 12.7667 39.7798 12.1059V10.0949C39.7791 9.43408 39.5343 8.80056 39.0991 8.33331C38.6639 7.86606 38.0742 7.60322 37.4588 7.60243H31.1872V5.3717H39.7798V2.98853H31.2897C30.6743 2.98929 30.0843 3.25213 29.6492 3.71939C29.2141 4.18664 28.9693 4.82016 28.9686 5.48096V7.49235C28.9693 8.15315 29.2141 8.78667 29.6492 9.25392C30.0843 9.72117 30.6743 9.98401 31.2897 9.9848Z" fill="black"/>
<path d="M50.674 2.98853H44.0646C43.4491 2.98929 42.8591 3.25213 42.4239 3.71939C41.9887 4.18664 41.7439 4.82016 41.7432 5.48096V12.1059C41.7439 12.7667 41.9887 13.4002 42.4239 13.8674C42.8591 14.3347 43.4491 14.5975 44.0646 14.5983H50.674C51.2895 14.5974 51.8795 14.3345 52.3147 13.8673C52.7498 13.4001 52.9943 12.7666 52.9954 12.1059V5.48096C52.9943 4.8202 52.7498 4.18675 52.3147 3.71952C51.8795 3.25228 51.2895 2.9894 50.674 2.98853ZM50.7767 5.37129V12.2155H43.9623V5.37129H50.7767Z" fill="black"/>
<path d="M56.435 14.5983H65.5863V12.2155H57.2138V2.98853H54.9951V13.0521C54.9955 13.4621 55.1473 13.8552 55.4172 14.1451C55.6871 14.4349 56.0531 14.5979 56.435 14.5983Z" fill="black"/>
<path d="M76.9247 2.98853H69.4342C68.9353 2.98907 68.4576 3.20199 68.1047 3.58056C67.7522 3.95913 67.5541 4.47243 67.5537 5.00782V14.5983H69.772V10.8127H76.5865V14.5983H78.806V5.00782C78.8052 4.47232 78.6067 3.95897 78.2542 3.58039C77.9013 3.20183 77.4232 2.98896 76.9247 2.98853ZM76.5861 5.37129V8.43033H69.772V5.37129H76.5861Z" fill="black"/>
<path d="M89.805 12.2155H89.3923L85.2294 3.80895C85.1066 3.56099 84.9236 3.35357 84.6996 3.20901C84.4756 3.06445 84.2189 2.98822 83.9575 2.98853H82.2114C81.8295 2.98908 81.4638 3.1522 81.1935 3.44213C80.9236 3.73206 80.7719 4.12511 80.7715 4.53508V14.5983H82.9906V5.37129H83.491L87.6523 13.7779C87.7747 14.0258 87.9582 14.2332 88.1821 14.3778C88.4061 14.5223 88.6625 14.5986 88.9239 14.5983H90.5839C90.9657 14.5978 91.3318 14.4348 91.6017 14.1449C91.8716 13.8551 92.0234 13.4621 92.0237 13.0521V2.98853H89.805V12.2155Z" fill="black"/>
<path d="M103.546 2.98853H96.0543C95.5558 2.98918 95.0778 3.20214 94.7252 3.58069C94.3727 3.95923 94.1742 4.47246 94.1738 5.00782V14.5983H96.3925V10.8127H103.207V14.5983H105.426V5.00782C105.425 4.47243 105.227 3.95913 104.875 3.58056C104.522 3.20199 104.044 2.98907 103.546 2.98853ZM103.207 5.37129V8.43033H96.3925V5.37129H103.207Z" fill="black"/>
<path d="M117.546 12.1761H116.883L113.932 2.98853H111.589L114.97 13.5104C115.067 13.8134 115.251 14.0762 115.494 14.2624C115.737 14.4485 116.029 14.5485 116.328 14.5486H118.101C118.4 14.5485 118.692 14.4484 118.935 14.2623C119.179 14.0762 119.362 13.8134 119.459 13.5104L122.84 2.98853H120.497L117.546 12.1761Z" fill="black"/>
<path d="M124.631 14.5486H135.202V12.1761H126.846V9.95486H135.202V7.58228H126.846V5.36109H135.202V2.98853H124.631V14.5486Z" fill="black"/>
<path d="M146.056 12.225H145.644L141.488 3.8544C141.366 3.60749 141.183 3.40095 140.96 3.25701C140.736 3.11307 140.48 3.03717 140.219 3.03748H138.476C138.095 3.03802 137.73 3.2004 137.461 3.489C137.191 3.7776 137.039 4.16886 137.039 4.577V14.5976H139.254V5.41004H139.754L143.907 13.7803C144.029 14.0273 144.212 14.2339 144.436 14.3779C144.659 14.5219 144.915 14.5979 145.176 14.5976H146.833C147.214 14.597 147.58 14.4347 147.849 14.1461C148.118 13.8575 148.27 13.4662 148.27 13.058V3.03748H146.056V12.225Z" fill="black"/>
<path d="M150.04 5.41004H154.328V14.5976H156.543V5.41004H160.832V3.03748H150.04V5.41004Z" fill="black"/>
<path d="M171.588 10.2309C171.587 10.7596 171.391 11.2664 171.042 11.6402C170.693 12.014 170.22 12.2243 169.726 12.225H166.648C166.154 12.2245 165.681 12.0142 165.332 11.6403C164.983 11.2665 164.787 10.7596 164.786 10.2309V3.03748H162.571V10.702C162.572 11.7347 162.956 12.7249 163.637 13.4551C164.319 14.1854 165.243 14.5963 166.207 14.5976H170.166C171.13 14.5964 172.055 14.1856 172.736 13.4553C173.418 12.725 173.802 11.7348 173.803 10.702V3.03748H171.588V10.2309Z" fill="black"/>
<path d="M186.334 6.64832C186.332 5.6782 185.972 4.74826 185.331 4.06226C184.691 3.37627 183.823 2.99017 182.917 2.98853H175.762V14.5486H177.977V10.3085H181.797L183.902 14.5486H186.412L184.179 10.0484C184.814 9.77677 185.359 9.30782 185.743 8.70184C186.127 8.09589 186.332 7.38069 186.334 6.64832ZM177.977 5.36109H182.917C183.235 5.36229 183.54 5.49833 183.765 5.73956C183.991 5.9808 184.118 6.30761 184.119 6.64873C184.118 6.98994 183.992 7.31704 183.766 7.55827C183.541 7.79955 183.236 7.93522 182.917 7.93555H177.977V5.36109Z" fill="black"/>
<path d="M188.171 14.5486H198.743V12.1761H190.386V9.95486H198.743V7.58228H190.386V5.36109H198.743V2.98853H188.171V14.5486Z" fill="black"/>
<path d="M202.931 9.95445H209.191V12.1756H200.606V14.5482H209.089C209.703 14.5475 210.292 14.2857 210.727 13.8205C211.161 13.3552 211.405 12.7244 211.406 12.0664V10.0641C211.405 9.40614 211.161 8.7754 210.726 8.31014C210.292 7.84492 209.703 7.58316 209.089 7.58229H202.829V5.3611H211.406V2.98853H202.931C202.317 2.9894 201.728 3.25114 201.294 3.71638C200.86 4.18161 200.615 4.81237 200.615 5.47031V7.47266C200.615 8.1306 200.86 8.76134 201.294 9.2266C201.728 9.69182 202.317 9.95358 202.931 9.95445Z" fill="black"/>
<mask id="mask0_3_1496" style="mask-type:luminance" maskUnits="userSpaceOnUse" x="0" y="0" width="18" height="18">
<path d="M17.762 0.5H0V17.0854H17.762V0.5Z" fill="white"/>
</mask>
<g mask="url(#mask0_3_1496)">
<path d="M17.4522 13.5766L14.5809 16.8596C14.5185 16.931 14.4431 16.9879 14.3592 17.0268C14.2753 17.0657 14.1848 17.0858 14.0933 17.0857H0.483569C0.418637 17.0857 0.355119 17.0655 0.300817 17.0275C0.246515 16.9896 0.203794 16.9355 0.177894 16.872C0.151995 16.8085 0.144047 16.7384 0.155026 16.6701C0.166006 16.6019 0.195433 16.5386 0.239698 16.4879L3.11102 13.205C3.17341 13.1336 3.24889 13.0768 3.33277 13.0379C3.41664 12.999 3.50712 12.9789 3.59858 12.9788H17.2085C17.2735 12.9788 17.337 12.999 17.3913 13.0369C17.4457 13.0749 17.4884 13.129 17.5143 13.1925C17.5402 13.256 17.5481 13.3262 17.5371 13.3944C17.526 13.4627 17.4965 13.526 17.4522 13.5766ZM14.5809 6.96571C14.5185 6.89435 14.4431 6.83742 14.3592 6.79853C14.2753 6.75963 14.1848 6.73956 14.0933 6.73961H0.483569C0.418637 6.73961 0.355119 6.75984 0.300817 6.79778C0.246515 6.83576 0.203794 6.88979 0.177894 6.95327C0.151995 7.01679 0.144047 7.08695 0.155026 7.15519C0.166006 7.2234 0.195433 7.28676 0.239698 7.33743L3.11102 10.6213C3.17339 10.6926 3.24886 10.7495 3.33274 10.7884C3.41662 10.8273 3.50711 10.8474 3.59858 10.8474H17.2085C17.2735 10.8475 17.337 10.8272 17.3913 10.7893C17.4457 10.7513 17.4884 10.6972 17.5143 10.6338C17.5402 10.5702 17.5481 10.5 17.5371 10.4318C17.526 10.3636 17.4965 10.3002 17.4522 10.2496L14.5809 6.96571ZM0.483569 4.6069H14.0933C14.1848 4.60693 14.2753 4.58686 14.3592 4.54796C14.4431 4.50906 14.5185 4.45215 14.5809 4.38079L17.4522 1.09781C17.4965 1.0472 17.526 0.98387 17.5371 0.915626C17.5481 0.847376 17.5402 0.77718 17.5143 0.713667C17.4884 0.650152 17.4457 0.596089 17.3913 0.558128C17.337 0.520167 17.2735 0.499965 17.2085 0.5H3.59858C3.50711 0.500007 3.41662 0.520083 3.33274 0.558983C3.24886 0.597883 3.17339 0.654773 3.11102 0.726112L0.239698 4.00909C0.19532 4.05973 0.165793 4.12309 0.15475 4.19139C0.143706 4.25969 0.151628 4.32994 0.177541 4.3935C0.203454 4.45707 0.246226 4.51116 0.300598 4.54914C0.35497 4.58712 0.418572 4.60695 0.483569 4.6069Z" fill="black"/>
</g>
</g>
<defs>
<clipPath id="clip0_3_1496">
<rect width="211.6" height="17" fill="white" transform="translate(0 0.5)"/>
</clipPath>
</defs>
</svg>
