<svg width="96" height="54" viewBox="0 0 96 54" fill="none" xmlns="http://www.w3.org/2000/svg">
<g clip-path="url(#clip0_3_1299)">
<path d="M50.9523 20.7805C47.0524 20.6833 43.3145 19.9055 39.7765 18.1878C37.3729 17.0211 35.169 15.5789 33.3379 13.6289C32.0254 12.2299 30.9505 10.6689 30.5669 8.74595C30.1402 6.62856 30.6588 4.84066 32.3332 3.39306C34.0401 1.91844 36.0981 1.35128 38.2641 1.08661C42.2072 0.600474 45.9775 1.32428 49.6721 2.68006C53.1885 3.96562 56.1917 5.98578 58.6818 8.75136C60.2537 10.496 61.2529 12.5216 61.0585 14.9685C60.9559 16.2541 60.4103 17.3182 59.4596 18.1878C57.5637 19.9217 55.2249 20.5159 52.7618 20.7751C52.1622 20.8399 51.5518 20.7859 50.9523 20.7859V20.7805ZM51.3628 16.9022C51.9839 16.832 52.6915 16.7618 53.3937 16.6592C53.7556 16.6052 54.1013 16.4863 54.4578 16.3891C55.4463 16.119 56.2727 15.5843 56.9101 14.8011C57.9634 13.5209 57.5691 11.5007 56.6076 10.1503C54.8467 7.68726 52.4053 6.10462 49.6451 4.9757C47.4953 4.10065 45.2645 3.51189 42.9418 3.37145C40.9973 3.25262 39.0797 3.27962 37.2486 4.18168C35.3257 5.13234 34.5587 6.99586 35.3203 8.76216C35.9415 10.2152 36.8813 11.3819 38.0696 12.3704C39.6901 13.7153 41.5374 14.666 43.4982 15.4384C46.0045 16.4269 48.5864 16.8968 51.3628 16.8968V16.9022Z" fill="black"/>
<path d="M71.9562 45.4696C71.47 45.8801 71.0271 46.3176 70.5248 46.6795C68.4776 48.1649 64.4751 47.9705 62.7574 44.7512C61.3962 42.2071 61.4124 39.5387 62.6548 36.9622C64.4535 33.2513 69.7686 33.381 71.6267 36.0655C71.6753 36.1358 71.7185 36.2114 71.7671 36.2816C71.8265 36.2654 71.886 36.2546 71.94 36.2384C71.94 35.8009 71.8968 35.3633 71.9616 34.9366C71.9886 34.7584 72.2046 34.5153 72.3829 34.4667C72.68 34.3803 73.0041 34.4397 73.0527 34.861C73.0797 35.1203 73.1067 35.3795 73.1067 35.6334C73.1067 39.5657 73.1175 43.4926 73.1067 47.4249C73.1013 49.5045 72.3937 51.26 70.4816 52.2863C68.8557 53.1613 67.0894 53.2207 65.3123 52.8534C64.7019 52.7292 64.1186 52.4915 63.5298 52.2701C63.2921 52.1783 62.9356 52.0918 63.1517 51.6813C63.3408 51.3302 63.4974 51.0709 64.043 51.2384C65.0422 51.5463 66.0739 51.838 67.1056 51.892C68.6559 51.973 70.1143 51.5895 71.1297 50.2445C71.6483 49.5531 71.9562 48.7807 71.9616 47.9111C71.9616 47.0738 71.9616 46.2366 71.9616 45.4696H71.9562ZM72.0912 40.9917C71.94 39.9492 71.8968 39.2146 71.7239 38.5016C70.9623 35.3363 67.0948 34.1048 64.5939 36.2114C63.6595 36.9946 63.2705 38.0749 63.1247 39.22C62.8276 41.5265 62.8438 43.8113 64.864 45.4426C66.9112 47.0954 70.0224 46.8524 71.254 44.2596C71.7671 43.1793 71.8698 41.9046 72.0966 40.9917H72.0912Z" fill="black"/>
<path d="M44.5765 47.4038C43.9067 47.6037 43.4638 47.4578 43.2261 46.8366C42.5888 45.1676 41.9352 43.5039 41.341 41.8186C41.1736 41.3379 40.9305 41.1921 40.4498 41.1975C38.2675 41.2137 36.0853 41.2137 33.9031 41.1975C33.498 41.1975 33.2873 41.3271 33.1469 41.7214C32.5149 43.4877 31.8505 45.2378 31.1916 46.9933C30.9323 47.6901 30.3597 47.4308 29.7764 47.4524C30.068 46.6584 30.3381 45.9184 30.6082 45.1838C32.2449 40.8032 33.8869 36.4279 35.5236 32.0527C35.8207 31.2641 36.1339 30.4863 36.4094 29.6922C36.5391 29.3141 36.7443 29.1251 37.1602 29.1305C37.587 29.1305 37.8192 29.3087 37.9705 29.7084C39.753 34.4726 41.5571 39.2259 43.345 43.9846C43.7663 45.1082 44.1552 46.2425 44.5711 47.3984L44.5765 47.4038ZM37.2197 30.7617C36.0475 33.9324 34.924 36.9843 33.7789 40.0793H40.6226C39.4829 36.9573 38.3648 33.9054 37.2142 30.7617H37.2197Z" fill="black"/>
<path d="M87.4933 45.1701C88.2171 45.9264 88.2063 46.0992 87.4663 46.6177C83.3936 49.4589 77.9164 47.4604 76.8631 42.6098C76.0259 38.7477 78.0299 35.0045 81.8865 34.2753C85.8242 33.5299 88.6708 36.2955 88.417 40.3574C88.3846 40.8705 88.0443 40.7895 87.731 40.7895C84.7277 40.7895 81.7245 40.7895 78.7266 40.7895C77.8678 40.7895 77.8246 40.8057 77.9326 41.6538C78.2081 43.8252 79.2398 45.4834 81.3248 46.3099C83.3665 47.1201 85.3003 46.8338 87.0558 45.4888C87.1908 45.3862 87.3259 45.289 87.4987 45.1647L87.4933 45.1701ZM78.0082 39.8388C78.9373 39.8388 79.7529 39.8388 80.5686 39.8388C82.5941 39.8388 84.6251 39.8497 86.6507 39.8226C86.8451 39.8226 87.2016 39.6228 87.2016 39.5202C87.1962 37.6944 86.278 35.9606 84.3874 35.415C82.6049 34.9019 81.0007 35.3124 79.6449 36.5331C78.7158 37.3704 78.1649 38.4615 78.0137 39.8388H78.0082Z" fill="black"/>
<path d="M28.1318 29.3389C27.8455 30.1707 27.5808 31.0026 27.2729 31.8236C25.5553 36.3987 23.8268 40.9738 22.1037 45.5489C21.947 45.9702 21.7688 46.3915 21.65 46.8236C21.5203 47.2935 21.2881 47.5636 20.7587 47.5906C20.2024 47.6176 19.9161 47.353 19.7432 46.883C19.1653 45.3058 18.5981 43.7285 18.0093 42.1513C16.6482 38.4999 15.2708 34.8485 13.9096 31.1916C13.6935 30.6137 13.5099 30.0195 13.3154 29.4361C14.1041 29.1823 14.4497 29.3281 14.7144 30.0303C16.3565 34.4541 17.9877 38.878 19.6244 43.3018C19.9431 44.1607 20.2726 45.0195 20.6669 46.0674C20.8938 45.4246 21.0504 44.9709 21.2178 44.5172C22.1091 42.0919 22.9949 39.6612 23.897 37.2359C24.7882 34.8322 25.6849 32.434 26.5978 30.0357C26.9597 29.085 27.0299 29.0688 28.1318 29.3281V29.3389Z" fill="black"/>
<path d="M1.12447 44.8309C2.15616 45.371 3.07442 46.0192 4.0953 46.3487C5.68875 46.8564 7.33621 46.9105 8.80002 45.841C10.5987 44.5284 10.6041 41.5197 8.7244 40.3314C7.42263 39.5104 5.96423 38.9378 4.60304 38.2032C3.7388 37.7387 2.80974 37.2958 2.10755 36.6368C0.0765764 34.7354 0.308841 30.9598 3.7442 29.4906C6.14788 28.4589 8.46513 28.8262 10.6257 30.29C11.0795 30.5979 10.8742 30.9004 10.6797 31.2245C10.4529 31.5972 10.2152 31.4891 9.93434 31.2731C8.25987 29.9821 6.41795 29.739 4.441 30.4574C3.13923 30.9274 2.33441 31.824 2.10214 33.2122C1.85908 34.6652 2.52886 35.7185 3.70099 36.4099C4.86232 37.0959 6.12087 37.6199 7.34701 38.1924C8.7244 38.8406 10.0316 39.5536 10.8094 40.9688C12.2786 43.6533 10.4259 46.8294 8.09242 47.456C5.58072 48.1312 3.31208 47.7423 1.2325 46.2191C0.341251 45.5709 0.357455 45.5493 1.13527 44.8363L1.12447 44.8309Z" fill="black"/>
<path d="M48.5243 37.1796C49.1725 36.5206 49.691 35.84 50.35 35.3539C52.1649 34.0143 54.1581 33.6848 56.2593 34.6355C57.4746 35.1865 58.1012 36.2181 58.1714 37.4983C58.274 39.4374 58.2686 41.382 58.2902 43.3265C58.3064 44.5149 58.2902 45.7032 58.2902 46.8915C58.2902 47.248 58.2578 47.5235 57.7825 47.5289C57.3072 47.5343 57.1991 47.3129 57.1991 46.8969C57.2099 44.5635 57.2261 42.23 57.1883 39.902C57.1775 39.0647 57.1019 38.2167 56.9236 37.4011C56.6104 35.9751 55.7083 35.2999 54.2445 35.2513C51.1386 35.1378 48.5675 37.6009 48.5243 40.7608C48.4973 42.7918 48.5135 44.8228 48.5243 46.8483C48.5243 47.2858 48.4217 47.5559 47.9085 47.5289C47.5304 47.5073 47.3576 47.3615 47.363 46.978C47.3738 46.481 47.363 45.9841 47.363 45.4871C47.363 42.0734 47.363 38.665 47.363 35.2513C47.363 34.8462 47.3198 34.4573 47.9301 34.4681C48.5081 34.4789 48.5189 34.8516 48.5189 35.2621C48.5189 35.8833 48.5189 36.5044 48.5189 37.185L48.5243 37.1796Z" fill="black"/>
<path d="M95.017 46.6448C95.1142 47.6441 95.044 47.7089 94.1095 47.5631C92.824 47.3578 92.0029 46.4396 92.0029 45.181C92.0029 40.109 92.0137 35.037 92.0245 29.9649C92.0245 29.603 91.9435 29.2195 92.5377 29.2087C93.1589 29.1979 93.1697 29.5652 93.1697 30.0082C93.1697 33.3949 93.1697 36.7871 93.1697 40.1738C93.1697 41.6214 93.1697 43.0636 93.1697 44.5112C93.1751 46.0182 93.5208 46.4125 95.017 46.6394V46.6448Z" fill="black"/>
</g>
<defs>
<clipPath id="clip0_3_1299">
<rect width="94.4995" height="52.13" fill="white" transform="translate(0.549805 0.935059)"/>
</clipPath>
</defs>
</svg>
