<svg width="104" height="18" viewBox="0 0 104 18" fill="none" xmlns="http://www.w3.org/2000/svg">
<g clip-path="url(#clip0_3_1431)">
<path d="M2.68786 0.835938H6.15839V3.89767H8.6409V6.33439H6.15839V11.3545C6.15839 12.4162 6.495 12.6245 7.65132 12.6245H8.63934V15.1029H6.4311C3.6338 15.1029 2.6863 14.5612 2.6863 11.9579V6.33285H0.900391V3.89612H2.68786V0.835938Z" fill="#010101"/>
<path d="M20.7988 11.5826C19.789 14.2276 17.4124 15.3742 15.1606 15.3742C11.4797 15.3742 8.95508 13.1659 8.95508 9.4375C8.95508 5.70911 11.7103 3.5625 15.0141 3.5625C18.7791 3.5625 21.0731 6.37423 20.8409 10.3742H12.4474C12.5534 11.9776 13.7939 12.7076 15.0562 12.7076C16.3808 12.7076 17.2021 12.2492 17.601 11.5826H20.7988ZM12.4895 8.2909H17.3906C17.3267 6.87423 16.3387 6.1875 15.0141 6.1875C13.7736 6.1875 12.6796 6.8125 12.4895 8.2909Z" fill="#010101"/>
<path d="M32.7469 7.99923H29.507C29.1922 6.6875 28.3709 6.22917 27.3408 6.22917C26.1003 6.22917 24.8801 7.0625 24.8801 9.45756C24.8801 11.8526 26.1003 12.7076 27.3408 12.7076C28.5813 12.7076 29.4026 12.0409 29.655 10.9792H32.8949C32.1173 14.3125 29.4026 15.3742 27.1304 15.3742C23.4074 15.3742 21.3457 12.9992 21.3457 9.4375C21.3457 5.87577 23.702 3.5625 27.1304 3.5625C29.4867 3.5625 32.0736 4.62423 32.7469 7.99923Z" fill="#010101"/>
<path d="M37.1912 5.375C37.6961 4.54167 38.9164 3.64506 40.7038 3.64506C43.6071 3.64506 44.511 5.33179 44.511 8.37346V15.1019H41.0404V9.22685C41.0404 7.62346 40.9984 6.31018 39.3153 6.31018C37.8224 6.31018 37.1912 7.26852 37.1912 9.35185V15.1019H33.7207V0H37.1912V5.375Z" fill="#010101"/>
<path d="M52.9086 7.1849C52.678 6.35156 51.7944 6.10156 50.7004 6.10156C49.502 6.10156 48.8911 6.37162 48.8911 6.9349C48.8911 7.4565 49.2901 7.74662 50.2796 7.9349L52.3835 8.3099C55.0966 8.8099 56.401 9.60156 56.401 11.58C56.401 14.1 54.0665 15.3716 50.931 15.3716C47.7956 15.3716 45.7775 14.1016 45.377 11.455H48.595C48.9098 12.5383 49.7732 12.8716 50.9716 12.8716C52.17 12.8716 53.0754 12.5383 53.0754 11.8716C53.0754 11.3716 52.6344 11.0599 51.3082 10.83L49.2885 10.4966C47.1005 10.1432 45.6076 9.0599 45.6076 7.0599C45.6076 4.82996 47.9841 3.60156 50.783 3.60156C53.3699 3.60156 55.7059 4.62162 56.147 7.1849H52.9071H52.9086Z" fill="#010101"/>
<path d="M57.9941 0.835938H61.4646V3.89767H63.9471V6.33439H61.4646V11.3545C61.4646 12.4162 61.8012 12.6245 62.9576 12.6245H63.9456V15.1029H61.7374C58.94 15.1029 57.9925 14.5612 57.9925 11.9579V6.33285H56.2051V3.89612H57.9925V0.835938H57.9941Z" fill="#010101"/>
<path d="M71.8602 7.67033C71.8602 6.337 71.2088 5.87867 69.9465 5.87867C68.8307 5.87867 68.0749 6.44194 67.9268 7.52527H64.6869C64.8553 5.42188 66.8749 3.54688 70.241 3.54688C73.6072 3.54688 75.3525 4.8586 75.2902 8.25521L75.2481 10.6919V11.8586C75.2481 13.087 75.3323 14.4203 75.5006 15.1086H72.0924L72.0503 13.7552C71.2088 14.9419 69.8624 15.3802 68.2432 15.3802C66.0973 15.3802 64.3301 14.1302 64.3301 12.0885C64.3301 9.33854 67.4656 8.44348 71.8618 8.11015V7.67342L71.8602 7.67033ZM71.9444 10.1287C69.5242 10.3586 67.905 10.6071 67.905 11.837C67.905 12.5654 68.6001 13.0453 69.5039 13.0453C70.8924 13.0453 71.9444 12.462 71.9444 10.4003V10.1302V10.1287Z" fill="#010101"/>
<path d="M83.6195 7.1875C83.2206 7.12423 82.9884 7.12423 82.6736 7.12423C80.9905 7.12423 80.1287 7.72917 80.1287 9.47762V15.1026H76.6582V3.89583H80.0025V6.02083C80.5292 4.6875 81.4752 3.87577 83.0943 3.8125H83.3468C83.4512 3.8125 83.5354 3.8125 83.6195 3.83256V7.18596V7.1875Z" fill="#010101"/>
<path d="M91.0883 7.1849C90.8577 6.35156 89.9741 6.10156 88.8801 6.10156C87.6801 6.10156 87.0708 6.37162 87.0708 6.9349C87.0708 7.4565 87.4713 7.74662 88.4593 7.9349L90.5631 8.3099C93.2763 8.8099 94.5807 9.60156 94.5807 11.58C94.5807 14.1 92.2462 15.3716 89.1107 15.3716C85.9752 15.3716 83.9571 14.1016 83.5566 11.455H86.7747C87.0911 12.5383 87.9528 12.8716 89.1512 12.8716C90.3496 12.8716 91.2551 12.5383 91.2551 11.8716C91.2551 11.3716 90.814 11.0599 89.4879 10.83L87.4682 10.4966C85.2802 10.1432 83.7873 9.0599 83.7873 7.0599C83.7873 4.82996 86.1638 3.60156 88.9627 3.60156C91.5496 3.60156 93.8856 4.62162 94.3266 7.1849H91.0868H91.0883Z" fill="#010101"/>
<path d="M94.541 17.9966V15.1016H103.902V17.9966H94.541Z" fill="#010101"/>
</g>
<defs>
<clipPath id="clip0_3_1431">
<rect width="103" height="18" fill="white" transform="translate(0.900391)"/>
</clipPath>
</defs>
</svg>
