<svg width="160" height="18" viewBox="0 0 160 18" fill="none" xmlns="http://www.w3.org/2000/svg">
<path d="M12.8356 6.2043C12.8356 5.38606 12.7195 4.71177 12.4871 4.18143C12.2548 3.63594 11.9218 3.23439 11.4881 2.9768C11.0699 2.70405 10.5665 2.57525 9.97795 2.59041H8.86276V13.2503C8.86276 13.6594 8.85502 14.0534 8.83953 14.4322C8.82404 14.811 8.80081 15.0989 8.76983 15.2959C9.03314 15.2656 9.36615 15.2504 9.76886 15.2504C10.1871 15.2353 10.4736 15.2277 10.6285 15.2277V16.9778H3.84441V15.4777C4.20065 15.4626 4.49494 15.4171 4.72727 15.3413C4.97509 15.2656 5.16095 15.0913 5.28486 14.8186C5.42426 14.5458 5.49396 14.1064 5.49396 13.5003V2.61313H4.42524C3.54238 2.62829 2.84539 2.92376 2.33426 3.49956C1.82313 4.07536 1.56757 4.97694 1.56757 6.2043H0.0341797L0.150345 1.06757H14.2296L14.369 6.2043H12.8356Z" fill="black"/>
<path d="M14.7731 16.9778V15.4777C15.1293 15.4626 15.4236 15.4171 15.6559 15.3413C15.9037 15.2656 16.0896 15.0913 16.2135 14.8186C16.3529 14.5458 16.4226 14.1064 16.4226 13.5003V4.79511C16.4226 4.38599 16.4303 3.99202 16.4458 3.61321C16.4768 3.23439 16.5 2.94649 16.5155 2.74951C16.2677 2.76466 15.9579 2.77981 15.5862 2.79497C15.2145 2.79497 14.9434 2.80254 14.7731 2.8177V1.06757C15.8728 1.05242 16.9725 1.04484 18.0722 1.04484C19.1719 1.04484 20.2716 1.03726 21.3713 1.02211C22.7343 1.00696 23.9192 1.15848 24.9259 1.47669C25.9327 1.79489 26.7071 2.31008 27.2492 3.02226C27.7913 3.73443 28.0469 4.69662 28.0159 5.90883C28.0004 6.54524 27.8378 7.15134 27.528 7.72714C27.2337 8.30294 26.7846 8.81055 26.1805 9.24998C25.5919 9.68941 24.8407 10.0379 23.9269 10.2955C24.2212 10.4167 24.5077 10.6137 24.7865 10.8865C25.0808 11.1592 25.3286 11.4471 25.53 11.7502L26.6219 13.3412C26.9627 13.8564 27.2647 14.2655 27.528 14.5685C27.7913 14.8716 28.0547 15.0989 28.318 15.2504C28.5813 15.3868 28.8833 15.4626 29.2241 15.4777V16.9778H25.3906C25.1118 16.7808 24.833 16.5005 24.5542 16.1368C24.2909 15.758 24.0043 15.3262 23.6946 14.8413L21.9753 12.1138C21.774 11.8108 21.5958 11.5532 21.441 11.341C21.3016 11.1289 21.1544 10.9471 20.9995 10.7955C20.7517 10.7955 20.5426 10.7955 20.3722 10.7955C20.2019 10.7955 20.0082 10.7955 19.7914 10.7955V13.2275C19.7914 13.6518 19.7837 14.0534 19.7682 14.4322C19.7527 14.811 19.7295 15.0989 19.6985 15.2959C19.8688 15.2807 20.0857 15.2731 20.349 15.2731C20.6123 15.258 20.8679 15.2504 21.1157 15.2504C21.379 15.2353 21.5649 15.2277 21.6733 15.2277V16.9778H14.7731ZM20.9066 9.15906C21.774 9.15906 22.471 9.03784 22.9976 8.7954C23.5242 8.53781 23.9037 8.15899 24.136 7.65896C24.3838 7.14377 24.5077 6.49978 24.5077 5.727C24.5077 4.99967 24.3916 4.43145 24.1592 4.02233C23.9269 3.59805 23.6326 3.28743 23.2764 3.09044C22.9356 2.87831 22.5871 2.74951 22.2309 2.70405C21.8746 2.64344 21.5804 2.61313 21.348 2.61313C21.0228 2.61313 20.744 2.65102 20.5116 2.72678C20.2793 2.80254 20.1012 2.96922 19.9773 3.22682C19.8534 3.48441 19.7914 3.87838 19.7914 4.40872V9.06815C19.9618 9.0833 20.1399 9.10603 20.3258 9.13633C20.5116 9.15149 20.7052 9.15906 20.9066 9.15906Z" fill="black"/>
<path d="M36.2067 2.56768C35.8659 2.58283 35.5717 2.62829 35.3238 2.70405C35.076 2.77981 34.8824 2.95407 34.743 3.22682C34.6191 3.48441 34.5571 3.92384 34.5571 4.54509V13.2503C34.5571 13.6594 34.5494 14.0534 34.5339 14.4322C34.5184 14.811 34.4952 15.0989 34.4642 15.2959C34.712 15.2656 35.0218 15.2504 35.3935 15.2504C35.7808 15.2353 36.0518 15.2277 36.2067 15.2277V16.9778H29.5388V15.4777C29.895 15.4626 30.1893 15.4171 30.4216 15.3413C30.6695 15.2656 30.8553 15.0913 30.9792 14.8186C31.1186 14.5458 31.1883 14.1064 31.1883 13.5003V4.79511C31.1883 4.38599 31.1961 3.99202 31.2116 3.61321C31.2425 3.23439 31.2658 2.94649 31.2813 2.74951C31.0335 2.76466 30.7237 2.77981 30.3519 2.79497C29.9802 2.79497 29.7092 2.80254 29.5388 2.8177V1.06757H36.2067V2.56768Z" fill="black"/>
<path d="M37.3618 16.9778V15.4777C37.7181 15.4626 38.0123 15.4171 38.2447 15.3413C38.4925 15.2656 38.6784 15.0913 38.8023 14.8186C38.9417 14.5458 39.0114 14.1064 39.0114 13.5003V4.79511C39.0114 4.38599 39.0191 3.99202 39.0346 3.61321C39.0656 3.23439 39.0888 2.94649 39.1043 2.74951C38.8565 2.76466 38.5467 2.77981 38.175 2.79497C37.8032 2.79497 37.5322 2.80254 37.3618 2.8177V1.06757C38.4305 1.05242 39.4993 1.04484 40.568 1.04484C41.6522 1.04484 42.7287 1.03726 43.7974 1.02211C45.656 1.00696 47.1275 1.34789 48.2117 2.04491C49.3114 2.72678 49.8225 3.76473 49.7451 5.15877C49.7141 5.5982 49.5747 6.03005 49.3269 6.45432C49.0791 6.86344 48.7073 7.23468 48.2117 7.56804C47.7315 7.9014 47.1275 8.16657 46.3995 8.36355V8.38628C47.9484 8.62872 49.0868 9.13634 49.8148 9.90912C50.5427 10.6667 50.9067 11.5153 50.9067 12.4548C50.9067 13.4397 50.6589 14.2731 50.1633 14.9549C49.6831 15.6217 49.0171 16.1293 48.1652 16.4778C47.3133 16.8111 46.3453 16.9778 45.2611 16.9778H37.3618ZM42.2872 15.3641C42.566 15.3641 42.8293 15.3641 43.0772 15.3641C43.325 15.3641 43.5728 15.3641 43.8206 15.3641C44.0684 15.3489 44.3085 15.3413 44.5408 15.3413C45.4857 15.2959 46.1749 15.0004 46.6086 14.4549C47.0423 13.9094 47.2591 13.22 47.2591 12.3866C47.2591 11.6896 47.112 11.1441 46.8177 10.7501C46.5234 10.341 46.1439 10.0531 45.6793 9.88639C45.2301 9.71971 44.7577 9.63637 44.2621 9.63637C43.8748 9.63637 43.5418 9.63637 43.263 9.63637C42.9842 9.63637 42.6899 9.64395 42.3802 9.6591V13.3639C42.3802 13.773 42.3724 14.1594 42.3569 14.5231C42.3414 14.8868 42.3182 15.1671 42.2872 15.3641ZM42.3802 8.04535L43.5883 8.02262C44.2388 8.00747 44.7499 7.86352 45.1217 7.59077C45.5089 7.31802 45.7799 6.95436 45.9348 6.49978C46.1052 6.03005 46.1904 5.52244 46.1904 4.97694C46.1904 4.37084 46.0665 3.90111 45.8187 3.56775C45.5708 3.21924 45.2611 2.96922 44.8893 2.8177C44.5176 2.66617 44.1304 2.59798 43.7277 2.61313C43.4799 2.61313 43.2553 2.65102 43.0539 2.72678C42.8526 2.80254 42.6899 2.9768 42.566 3.24954C42.4421 3.50714 42.3802 3.93141 42.3802 4.52236V8.04535Z" fill="black"/>
<path d="M59.21 11.5001C59.21 10.8637 59.1093 10.4092 58.908 10.1364C58.7066 9.84851 58.4278 9.66668 58.0716 9.59091C57.7308 9.51515 57.3514 9.48485 56.9332 9.5L56.3291 9.52273V13.2503C56.3291 13.6594 56.3214 14.0458 56.3059 14.4094C56.2904 14.7731 56.2672 15.0534 56.2362 15.2504H59.3494C59.8141 15.2504 60.2633 15.1519 60.6969 14.9549C61.1306 14.7428 61.4869 14.4019 61.7657 13.9321C62.0445 13.4473 62.1839 12.7957 62.1839 11.9775H63.694L63.5778 16.9778H51.3108V15.4777C51.667 15.4626 51.9613 15.4171 52.1936 15.3413C52.4414 15.2656 52.6273 15.0913 52.7512 14.8186C52.8906 14.5458 52.9603 14.1064 52.9603 13.5003V4.79511C52.9603 4.38599 52.9681 3.99202 52.9835 3.61321C53.0145 3.23439 53.0378 2.94649 53.0532 2.74951C52.8054 2.76466 52.4956 2.77981 52.1239 2.79497C51.7522 2.79497 51.4811 2.80254 51.3108 2.8177V1.06757H62.9273L63.0667 5.47698H61.5333C61.5333 4.64358 61.3862 4.01475 61.0919 3.59048C60.7976 3.1662 60.4336 2.88588 59.9999 2.74951C59.5663 2.59798 59.1403 2.5298 58.7221 2.54495L57.8857 2.56768C57.5605 2.56768 57.2817 2.61314 57.0493 2.70405C56.817 2.77981 56.6389 2.96164 56.515 3.24954C56.3911 3.52229 56.3291 3.95414 56.3291 4.54509V7.95443H59.0474L58.9545 5.97702H60.7434V11.5001H59.21Z" fill="black"/>
<path d="M81.577 6.15885C81.3756 4.90118 80.9419 3.95414 80.2759 3.31773C79.6254 2.68132 78.758 2.35554 77.6738 2.34039C76.8684 2.34039 76.1637 2.52222 75.5596 2.88588C74.9555 3.24954 74.4522 3.73443 74.0494 4.34053C73.6622 4.94664 73.3679 5.63608 73.1666 6.40886C72.9807 7.18165 72.8878 7.97716 72.8878 8.7954C72.8878 10.0985 73.0737 11.2577 73.4454 12.2729C73.8326 13.273 74.3902 14.0609 75.1182 14.6367C75.8461 15.2125 76.729 15.5004 77.7667 15.5004C78.7425 15.5004 79.7106 15.258 80.6709 14.7731C81.6312 14.2731 82.4366 13.5836 83.0871 12.7048L84.2023 13.7048C83.4434 14.7201 82.6457 15.4929 81.8093 16.0232C80.9729 16.5384 80.152 16.8869 79.3466 17.0687C78.5567 17.2506 77.8442 17.3415 77.2092 17.3415C76.0165 17.3415 74.9323 17.1369 73.9565 16.7278C72.9807 16.3035 72.1366 15.7277 71.4241 15.0004C70.7271 14.2579 70.185 13.4018 69.7978 12.432C69.4261 11.4471 69.2402 10.3864 69.2402 9.24998C69.2402 8.2196 69.4106 7.1968 69.7513 6.18158C70.0921 5.16635 70.5955 4.24962 71.2615 3.43138C71.943 2.59798 72.7949 1.93884 73.8171 1.45396C74.8394 0.953924 76.0243 0.703906 77.3718 0.703906C77.9758 0.703906 78.6341 0.802398 79.3466 0.999382C80.0746 1.18121 80.7561 1.45396 81.3911 1.81762L81.2982 0.863008H83.0871V6.15885H81.577Z" fill="black"/>
<path d="M83.1949 16.9778V15.4095C83.6286 15.4095 83.9771 15.2883 84.2404 15.0459C84.5037 14.8034 84.7206 14.4852 84.891 14.0912C85.0768 13.6973 85.2549 13.273 85.4253 12.8184L89.9558 0.658447H91.5821L96.5308 13.0457C96.6237 13.273 96.7476 13.6215 96.9025 14.0912C97.0574 14.5458 97.1503 14.9474 97.1813 15.2959C97.4446 15.2656 97.6924 15.2504 97.9247 15.2504C98.1726 15.2353 98.3739 15.2277 98.5288 15.2277V16.9778H92.2791V15.4777C92.7128 15.4777 93.0071 15.3944 93.162 15.2277C93.3323 15.0459 93.4098 14.8034 93.3943 14.5004C93.3788 14.1973 93.2936 13.8564 93.1387 13.4776L92.6741 12.2275L87.6325 12.3184L87.2607 13.3866C87.1833 13.5836 87.0671 13.8791 86.9122 14.2731C86.7729 14.6519 86.6412 14.9701 86.5173 15.2277C86.7651 15.1974 87.0594 15.1822 87.4001 15.1822C87.7564 15.1671 88.0119 15.1595 88.1668 15.1595V16.9778H83.1949ZM88.2133 10.6137H92.0932L91.0245 7.7726C90.8232 7.22711 90.645 6.68161 90.4901 6.13612C90.3353 5.57547 90.2191 5.08301 90.1416 4.65874H90.1184C90.0565 4.91633 89.9635 5.30272 89.8396 5.81791C89.7157 6.3331 89.5221 6.94678 89.2588 7.65896L88.2133 10.6137Z" fill="black"/>
<path d="M98.621 15.4777C98.9772 15.4626 99.2715 15.4171 99.5039 15.3413C99.7517 15.2656 99.9376 15.0913 100.061 14.8186C100.201 14.5458 100.271 14.1064 100.271 13.5003V4.79511C100.271 4.38599 100.278 3.99202 100.294 3.61321C100.325 3.23439 100.348 2.94649 100.363 2.74951C100.116 2.76466 99.8059 2.77981 99.4342 2.79497C99.0624 2.79497 98.7914 2.80254 98.621 2.8177V1.06757C99.7207 1.05242 100.82 1.04484 101.92 1.04484C103.02 1.04484 104.12 1.03726 105.219 1.02211C106.582 1.00696 107.767 1.18121 108.774 1.54488C109.796 1.90854 110.578 2.46919 111.12 3.22682C111.678 3.98445 111.941 4.96937 111.91 6.18158C111.895 6.78768 111.748 7.38621 111.469 7.97716C111.19 8.55296 110.78 9.0833 110.238 9.56818C109.695 10.0379 109.014 10.4243 108.193 10.7274C107.372 11.0304 106.412 11.1971 105.312 11.2274C104.971 11.2425 104.669 11.2501 104.406 11.2501C104.158 11.2501 103.903 11.2425 103.639 11.2274V13.2275C103.639 13.6518 103.632 14.0534 103.616 14.4322C103.601 14.811 103.577 15.0989 103.546 15.2959C103.717 15.2807 103.934 15.2731 104.197 15.2731C104.46 15.258 104.716 15.2504 104.964 15.2504C105.227 15.2353 105.413 15.2277 105.521 15.2277V16.9778H98.621V15.4777ZM103.639 9.52273C103.81 9.53788 103.98 9.55303 104.15 9.56818C104.321 9.58334 104.499 9.59091 104.685 9.59091C105.537 9.59091 106.226 9.45454 106.753 9.18179C107.295 8.89389 107.69 8.48477 107.937 7.95443C108.185 7.40894 108.309 6.7498 108.309 5.97702C108.309 5.21938 108.201 4.61328 107.984 4.1587C107.783 3.70412 107.519 3.37077 107.194 3.15863C106.869 2.93134 106.528 2.78739 106.172 2.72678C105.816 2.65102 105.49 2.61313 105.196 2.61313C104.871 2.61313 104.592 2.65102 104.36 2.72678C104.127 2.80254 103.949 2.96922 103.825 3.22682C103.701 3.48441 103.639 3.87838 103.639 4.40872V9.52273Z" fill="black"/>
<path d="M118.829 2.56768C118.489 2.58283 118.194 2.62829 117.947 2.70405C117.699 2.77981 117.505 2.95407 117.366 3.22682C117.242 3.48441 117.18 3.92384 117.18 4.54509V13.2503C117.18 13.6594 117.172 14.0534 117.157 14.4322C117.141 14.811 117.118 15.0989 117.087 15.2959C117.335 15.2656 117.645 15.2504 118.016 15.2504C118.404 15.2353 118.675 15.2277 118.829 15.2277V16.9778H112.162V15.4777C112.518 15.4626 112.812 15.4171 113.044 15.3413C113.292 15.2656 113.478 15.0913 113.602 14.8186C113.741 14.5458 113.811 14.1064 113.811 13.5003V4.79511C113.811 4.38599 113.819 3.99202 113.834 3.61321C113.865 3.23439 113.889 2.94649 113.904 2.74951C113.656 2.76466 113.346 2.77981 112.975 2.79497C112.603 2.79497 112.332 2.80254 112.162 2.8177V1.06757H118.829V2.56768Z" fill="black"/>
<path d="M131.996 6.2043C131.996 5.38606 131.88 4.71177 131.648 4.18143C131.415 3.63594 131.082 3.23439 130.649 2.9768C130.23 2.70405 129.727 2.57525 129.138 2.59041H128.023V13.2503C128.023 13.6594 128.015 14.0534 128 14.4322C127.985 14.811 127.961 15.0989 127.93 15.2959C128.194 15.2656 128.527 15.2504 128.929 15.2504C129.348 15.2353 129.634 15.2277 129.789 15.2277V16.9778H123.005V15.4777C123.361 15.4626 123.655 15.4171 123.888 15.3413C124.136 15.2656 124.321 15.0913 124.445 14.8186C124.585 14.5458 124.654 14.1064 124.654 13.5003V2.61313H123.586C122.703 2.62829 122.006 2.92376 121.495 3.49956C120.984 4.07536 120.728 4.97694 120.728 6.2043H119.195L119.311 1.06757H133.39L133.529 6.2043H131.996Z" fill="black"/>
<path d="M131.617 16.9778V15.4095C132.051 15.4095 132.399 15.2883 132.662 15.0459C132.926 14.8034 133.143 14.4852 133.313 14.0912C133.499 13.6973 133.677 13.273 133.847 12.8184L138.378 0.658447H140.004L144.953 13.0457C145.046 13.273 145.17 13.6215 145.324 14.0912C145.479 14.5458 145.572 14.9474 145.603 15.2959C145.867 15.2656 146.114 15.2504 146.347 15.2504C146.595 15.2353 146.796 15.2277 146.951 15.2277V16.9778H140.701V15.4777C141.135 15.4777 141.429 15.3944 141.584 15.2277C141.754 15.0459 141.832 14.8034 141.816 14.5004C141.801 14.1973 141.716 13.8564 141.561 13.4776L141.096 12.2275L136.054 12.3184L135.683 13.3866C135.605 13.5836 135.489 13.8791 135.334 14.2731C135.195 14.6519 135.063 14.9701 134.939 15.2277C135.187 15.1974 135.481 15.1822 135.822 15.1822C136.178 15.1671 136.434 15.1595 136.589 15.1595V16.9778H131.617ZM136.635 10.6137H140.515L139.447 7.7726C139.245 7.22711 139.067 6.68161 138.912 6.13612C138.757 5.57547 138.641 5.08301 138.564 4.65874H138.54C138.478 4.91633 138.386 5.30272 138.262 5.81791C138.138 6.3331 137.944 6.94678 137.681 7.65896L136.635 10.6137Z" fill="black"/>
<path d="M147.043 16.9778V15.4777C147.399 15.4626 147.694 15.4171 147.926 15.3413C148.174 15.2656 148.36 15.0913 148.483 14.8186C148.623 14.5458 148.693 14.1064 148.693 13.5003V4.79511C148.693 4.38599 148.7 3.99202 148.716 3.61321C148.747 3.23439 148.77 2.94649 148.785 2.74951C148.538 2.76466 148.228 2.77981 147.856 2.79497C147.484 2.79497 147.213 2.80254 147.043 2.8177V1.06757H153.711V2.56768C153.37 2.58283 153.076 2.62829 152.828 2.70405C152.58 2.77981 152.387 2.95407 152.247 3.22682C152.123 3.48441 152.061 3.92384 152.061 4.54509V13.2503C152.061 13.6594 152.054 14.0458 152.038 14.4094C152.023 14.7731 151.999 15.0534 151.968 15.2504H155.082C155.995 15.2353 156.708 14.9246 157.219 14.3185C157.746 13.6973 158.009 12.7654 158.009 11.5229H159.566L159.426 16.9778H147.043Z" fill="black"/>
</svg>
