<svg width="137" height="18" viewBox="0 0 137 18" fill="none" xmlns="http://www.w3.org/2000/svg">
<path d="M3.42875 1L7.59281 13.5937H7.75687L11.9131 1H15.1006L9.46 17H5.88187L0.249062 1H3.42875ZM16.333 17V5H19.1612V17H16.333ZM17.7549 3.29688C17.307 3.29688 16.9216 3.14844 16.5987 2.85156C16.2758 2.54948 16.1143 2.1875 16.1143 1.76562C16.1143 1.33854 16.2758 0.976562 16.5987 0.679686C16.9216 0.377603 17.307 0.226562 17.7549 0.226562C18.208 0.226562 18.5935 0.377603 18.9112 0.679686C19.2341 0.976562 19.3955 1.33854 19.3955 1.76562C19.3955 2.1875 19.2341 2.54948 18.9112 2.85156C18.5935 3.14844 18.208 3.29688 17.7549 3.29688ZM27.3116 5V7.1875H20.4131V5H27.3116ZM22.1162 2.125H24.9444V13.3906C24.9444 13.7708 25.0017 14.0625 25.1162 14.2656C25.236 14.4635 25.3923 14.599 25.585 14.6719C25.7777 14.7448 25.9912 14.7812 26.2256 14.7812C26.4027 14.7812 26.5642 14.7682 26.71 14.7422C26.861 14.7161 26.9756 14.6927 27.0537 14.6719L27.5303 16.8828C27.3793 16.9349 27.1631 16.9922 26.8819 17.0547C26.6058 17.1172 26.2673 17.1536 25.8662 17.1641C25.1579 17.1849 24.5199 17.0781 23.9522 16.8437C23.3845 16.6042 22.934 16.2344 22.6006 15.7344C22.2725 15.2344 22.111 14.6094 22.1162 13.8594V2.125ZM32.3799 17.2422C31.6195 17.2422 30.9346 17.1068 30.3252 16.8359C29.7211 16.5599 29.2419 16.1536 28.8877 15.6172C28.5388 15.0807 28.3643 14.4193 28.3643 13.6328C28.3643 12.9557 28.4893 12.3958 28.7393 11.9531C28.9893 11.5104 29.3304 11.1562 29.7627 10.8906C30.195 10.625 30.682 10.4245 31.2237 10.2891C31.7705 10.1484 32.3357 10.0469 32.919 9.98437C33.6221 9.91146 34.1924 9.84635 34.6299 9.78906C35.0674 9.72656 35.3851 9.63281 35.583 9.50781C35.7862 9.3776 35.8877 9.17708 35.8877 8.90625V8.85938C35.8877 8.27083 35.7133 7.8151 35.3643 7.49219C35.0153 7.16927 34.5127 7.00781 33.8565 7.00781C33.1638 7.00781 32.6143 7.15885 32.208 7.46094C31.807 7.76302 31.5362 8.11979 31.3955 8.53125L28.7549 8.15625C28.9633 7.42708 29.307 6.81771 29.7862 6.32812C30.2653 5.83333 30.8513 5.46354 31.544 5.21875C32.2367 4.96875 33.0023 4.84375 33.8409 4.84375C34.419 4.84375 34.9945 4.91146 35.5674 5.04687C36.1403 5.18229 36.6638 5.40625 37.1377 5.71875C37.6117 6.02604 37.9919 6.44531 38.2784 6.97656C38.57 7.50781 38.7159 8.17187 38.7159 8.96875V17H35.9971V15.3516H35.9034C35.7315 15.6849 35.4893 15.9974 35.1768 16.2891C34.8695 16.5755 34.4815 16.8073 34.0127 16.9844C33.5492 17.1563 33.0049 17.2422 32.3799 17.2422ZM33.1143 15.1641C33.682 15.1641 34.1742 15.0521 34.5909 14.8281C35.0075 14.599 35.3278 14.2969 35.5518 13.9219C35.781 13.5469 35.8955 13.138 35.8955 12.6953V11.2812C35.807 11.3542 35.656 11.4219 35.4424 11.4844C35.2341 11.5469 34.9997 11.6016 34.7393 11.6484C34.4789 11.6953 34.2211 11.737 33.9659 11.7734C33.7107 11.8099 33.4893 11.8411 33.3018 11.8672C32.8799 11.9245 32.5023 12.0182 32.169 12.1484C31.8357 12.2786 31.5726 12.4609 31.3799 12.6953C31.1872 12.9245 31.0909 13.2214 31.0909 13.5859C31.0909 14.1068 31.281 14.5 31.6612 14.7656C32.0414 15.0312 32.5258 15.1641 33.1143 15.1641ZM43.6377 1V17H40.8096V1H43.6377ZM45.7959 17V5H48.6241V17H45.7959ZM47.2178 3.29688C46.7699 3.29688 46.3845 3.14844 46.0616 2.85156C45.7386 2.54948 45.5772 2.1875 45.5772 1.76562C45.5772 1.33854 45.7386 0.976562 46.0616 0.679686C46.3845 0.377603 46.7699 0.226562 47.2178 0.226562C47.6709 0.226562 48.0564 0.377603 48.3741 0.679686C48.697 0.976562 48.8584 1.33854 48.8584 1.76562C48.8584 2.1875 48.697 2.54948 48.3741 2.85156C48.0564 3.14844 47.6709 3.29688 47.2178 3.29688ZM53.3604 13.2344L53.3526 9.82031H53.8057L58.1182 5H61.4229L56.1182 10.9062H55.5323L53.3604 13.2344ZM50.7823 17V1H53.6104V17H50.7823ZM58.3135 17L54.4073 11.5391L56.3135 9.54688L61.6963 17H58.3135ZM67.3897 17V1H73.5147C74.6709 1 75.6319 1.18229 76.3975 1.54687C77.1683 1.90625 77.7439 2.39844 78.1241 3.02344C78.5095 3.64844 78.7022 4.35677 78.7022 5.14844C78.7022 5.79948 78.5772 6.35677 78.3272 6.82031C78.0772 7.27865 77.7412 7.65104 77.3194 7.9375C76.8975 8.22396 76.4261 8.42969 75.9053 8.55469V8.71094C76.473 8.74219 77.0173 8.91667 77.5381 9.23437C78.0642 9.54687 78.4939 9.98958 78.8272 10.5625C79.1605 11.1354 79.3272 11.8281 79.3272 12.6406C79.3272 13.4687 79.1267 14.2135 78.7256 14.875C78.3246 15.5312 77.7204 16.0495 76.9131 16.4297C76.1058 16.8099 75.0902 17 73.8662 17H67.3897ZM70.2881 14.5781H73.4053C74.4574 14.5781 75.2152 14.3776 75.6787 13.9766C76.1475 13.5703 76.3819 13.0495 76.3819 12.4141C76.3819 11.9401 76.2647 11.513 76.0303 11.1328C75.7959 10.7474 75.4626 10.4453 75.0303 10.2266C74.598 10.0026 74.0824 9.89063 73.4834 9.89063H70.2881V14.5781ZM70.2881 7.80469H73.1553C73.6553 7.80469 74.1058 7.71354 74.5069 7.53125C74.9079 7.34375 75.223 7.08073 75.4522 6.74219C75.6866 6.39844 75.8037 5.99219 75.8037 5.52344C75.8037 4.90365 75.585 4.39323 75.1475 3.99219C74.7152 3.59114 74.072 3.39062 73.2178 3.39062H70.2881V7.80469ZM88.6221 11.9531V5H91.4502V17H88.708V14.8672H88.583C88.3122 15.5391 87.8669 16.0885 87.2471 16.5156C86.6325 16.9427 85.8747 17.1563 84.9737 17.1563C84.1872 17.1563 83.4919 16.9818 82.8877 16.6328C82.2888 16.2786 81.82 15.7656 81.4815 15.0938C81.1429 14.4167 80.9737 13.599 80.9737 12.6406V5H83.8018V12.2031C83.8018 12.9635 84.0101 13.5677 84.4268 14.0156C84.8435 14.4635 85.3903 14.6875 86.0674 14.6875C86.4841 14.6875 86.8877 14.5859 87.2784 14.3828C87.669 14.1797 87.9893 13.8776 88.2393 13.4766C88.4945 13.0703 88.6221 12.5625 88.6221 11.9531ZM99.6006 5V7.1875H92.7022V5H99.6006ZM94.4053 2.125H97.2334V13.3906C97.2334 13.7708 97.2907 14.0625 97.4053 14.2656C97.5251 14.4635 97.6814 14.599 97.8741 14.6719C98.0668 14.7448 98.2803 14.7812 98.5147 14.7812C98.6918 14.7812 98.8532 14.7682 98.9991 14.7422C99.1501 14.7161 99.2647 14.6927 99.3428 14.6719L99.8194 16.8828C99.6683 16.9349 99.4522 16.9922 99.1709 17.0547C98.8949 17.1172 98.5564 17.1536 98.1553 17.1641C97.447 17.1849 96.809 17.0781 96.2412 16.8437C95.6735 16.6042 95.223 16.2344 94.8897 15.7344C94.5616 15.2344 94.4001 14.6094 94.4053 13.8594V2.125ZM106.399 17.2344C105.196 17.2344 104.157 16.9844 103.282 16.4844C102.412 15.9792 101.743 15.2656 101.274 14.3437C100.806 13.4167 100.571 12.3255 100.571 11.0703C100.571 9.83594 100.806 8.7526 101.274 7.82031C101.748 6.88281 102.41 6.15365 103.259 5.63281C104.108 5.10677 105.105 4.84375 106.251 4.84375C106.991 4.84375 107.689 4.96354 108.345 5.20312C109.006 5.4375 109.59 5.80208 110.095 6.29687C110.605 6.79167 111.006 7.42187 111.298 8.1875C111.59 8.94792 111.735 9.85417 111.735 10.9062V11.7734H101.899V9.86719H109.024C109.019 9.32552 108.902 8.84375 108.673 8.42187C108.444 7.99479 108.123 7.65885 107.712 7.41406C107.306 7.16927 106.832 7.04687 106.29 7.04687C105.712 7.04687 105.204 7.1875 104.767 7.46875C104.329 7.74479 103.988 8.10937 103.743 8.5625C103.504 9.01042 103.381 9.5026 103.376 10.0391V11.7031C103.376 12.401 103.504 13 103.759 13.5C104.014 13.9948 104.371 14.375 104.829 14.6406C105.287 14.901 105.824 15.0312 106.439 15.0312C106.85 15.0312 107.222 14.974 107.556 14.8594C107.889 14.7396 108.178 14.5651 108.423 14.3359C108.668 14.1068 108.853 13.8229 108.978 13.4844L111.618 13.7812C111.452 14.4792 111.134 15.0885 110.665 15.6094C110.202 16.125 109.608 16.526 108.884 16.8125C108.16 17.0937 107.332 17.2344 106.399 17.2344ZM113.378 17V5H116.12V7H116.245C116.464 6.30729 116.839 5.77344 117.37 5.39844C117.907 5.01823 118.519 4.82812 119.206 4.82812C119.362 4.82812 119.537 4.83594 119.73 4.85156C119.927 4.86198 120.092 4.88021 120.222 4.90625V7.50781C120.102 7.46615 119.912 7.42969 119.651 7.39844C119.396 7.36198 119.149 7.34375 118.909 7.34375C118.394 7.34375 117.93 7.45573 117.519 7.67969C117.112 7.89844 116.792 8.20312 116.558 8.59375C116.323 8.98437 116.206 9.4349 116.206 9.94531V17H113.378ZM121.351 17V5H124.179V17H121.351ZM122.772 3.29688C122.325 3.29688 121.939 3.14844 121.616 2.85156C121.293 2.54948 121.132 2.1875 121.132 1.76562C121.132 1.33854 121.293 0.976562 121.616 0.679686C121.939 0.377603 122.325 0.226562 122.772 0.226562C123.226 0.226562 123.611 0.377603 123.929 0.679686C124.252 0.976562 124.413 1.33854 124.413 1.76562C124.413 2.1875 124.252 2.54948 123.929 2.85156C123.611 3.14844 123.226 3.29688 122.772 3.29688ZM129.165 9.96875V17H126.337V5H129.04V7.03906H129.181C129.457 6.36719 129.897 5.83333 130.501 5.4375C131.11 5.04167 131.863 4.84375 132.759 4.84375C133.587 4.84375 134.308 5.02083 134.923 5.375C135.543 5.72917 136.022 6.24219 136.36 6.91406C136.704 7.58594 136.873 8.40104 136.868 9.35937V17H134.04V9.79687C134.04 8.99479 133.832 8.36719 133.415 7.91406C133.004 7.46094 132.433 7.23437 131.704 7.23437C131.209 7.23437 130.769 7.34375 130.384 7.5625C130.004 7.77604 129.704 8.08594 129.485 8.49219C129.272 8.89844 129.165 9.39062 129.165 9.96875Z" fill="#0A0C11"/>
</svg>
