<svg width="42" height="40" viewBox="0 0 42 40" fill="none" xmlns="http://www.w3.org/2000/svg">
<path d="M41.7556 0H0.644531V40H41.7556V0Z" fill="black"/>
<path d="M19.8182 22.6194L12.7617 9.75781H15.9866L20.1375 17.8973C20.2013 18.0423 20.2758 18.1924 20.361 18.3477C20.4461 18.5031 20.5206 18.6636 20.5845 18.8293C20.627 18.8914 20.659 18.9484 20.6803 19.0001C20.7016 19.0519 20.7228 19.0985 20.7441 19.1399C20.8506 19.3471 20.9463 19.549 21.0315 19.7457C21.1166 19.9425 21.1911 20.1237 21.255 20.2894C21.4253 19.9373 21.6115 19.5593 21.8138 19.1555C22.016 18.7516 22.2235 18.3322 22.4364 17.8973L26.6511 9.75781H29.6525L22.5322 22.7747V31.0695H19.8182V22.6194Z" fill="white"/>
</svg>
