<svg width="40" height="40" viewBox="0 0 40 40" fill="none" xmlns="http://www.w3.org/2000/svg">
<path d="M33.75 8.75H27.5V7.5C27.5 6.50544 27.1049 5.55161 26.4017 4.84835C25.6984 4.14509 24.7446 3.75 23.75 3.75H16.25C15.2554 3.75 14.3016 4.14509 13.5983 4.84835C12.8951 5.55161 12.5 6.50544 12.5 7.5V8.75H6.25C5.58696 8.75 4.95107 9.01339 4.48223 9.48223C4.01339 9.95107 3.75 10.587 3.75 11.25V31.25C3.75 31.913 4.01339 32.5489 4.48223 33.0178C4.95107 33.4866 5.58696 33.75 6.25 33.75H33.75C34.413 33.75 35.0489 33.4866 35.5178 33.0178C35.9866 32.5489 36.25 31.913 36.25 31.25V11.25C36.25 10.587 35.9866 9.95107 35.5178 9.48223C35.0489 9.01339 34.413 8.75 33.75 8.75ZM15 7.5C15 7.16848 15.1317 6.85054 15.3661 6.61612C15.6005 6.3817 15.9185 6.25 16.25 6.25H23.75C24.0815 6.25 24.3995 6.3817 24.6339 6.61612C24.8683 6.85054 25 7.16848 25 7.5V8.75H15V7.5ZM33.75 11.25V17.7516C29.5309 20.0481 24.8036 21.2509 20 21.25C15.1966 21.2509 10.4694 20.0487 6.25 17.7531V11.25H33.75ZM33.75 31.25H6.25V20.5688C10.5311 22.6628 15.2342 23.7509 20 23.75C24.7659 23.7501 29.4689 22.6615 33.75 20.5672V31.25ZM16.25 17.5C16.25 17.1685 16.3817 16.8505 16.6161 16.6161C16.8505 16.3817 17.1685 16.25 17.5 16.25H22.5C22.8315 16.25 23.1495 16.3817 23.3839 16.6161C23.6183 16.8505 23.75 17.1685 23.75 17.5C23.75 17.8315 23.6183 18.1495 23.3839 18.3839C23.1495 18.6183 22.8315 18.75 22.5 18.75H17.5C17.1685 18.75 16.8505 18.6183 16.6161 18.3839C16.3817 18.1495 16.25 17.8315 16.25 17.5Z" fill="#CDD4DE"/>
</svg>
