<svg width="16" height="16" viewBox="0 0 16 16" fill="none" xmlns="http://www.w3.org/2000/svg">
<path d="M15.3161 6.6989L13.4092 4.79196L13.7436 1.27857C13.7507 1.20454 13.7354 1.13008 13.6997 1.06484C13.664 0.999595 13.6095 0.946582 13.5433 0.912669C13.4771 0.878756 13.4023 0.865505 13.3285 0.874634C13.2546 0.883762 13.1853 0.91485 13.1293 0.963867L11.0945 2.74431C11.0855 2.75218 11.0818 2.7631 11.0737 2.77161L4.77432 2.82009C4.7585 2.79236 4.73903 2.76687 4.71644 2.74431L2.68164 0.963867C2.62571 0.91485 2.55634 0.883762 2.48253 0.874634C2.40871 0.865505 2.33386 0.878756 2.26767 0.912669C2.20148 0.946582 2.14699 0.999595 2.11128 1.06484C2.07557 1.13008 2.06028 1.20454 2.06739 1.27857L2.41821 4.96446L0.683866 6.6989L0.682996 6.70022C0.648386 6.735 0.620976 6.77626 0.602334 6.82164C0.584347 6.86588 0.575068 6.91336 0.575134 6.96112L0.575073 6.96157C0.575064 6.98732 0.577728 7.013 0.583022 7.0382L1.31055 10.4766C1.32687 10.5538 1.36732 10.6237 1.42605 10.6763L5.12602 13.9928C5.18202 14.0411 5.25139 14.0711 5.32488 14.0789C5.4567 14.1819 5.59449 14.2771 5.73755 14.3639C6.11171 14.6026 6.54334 14.736 6.98694 14.7499C7.15224 14.7494 7.31659 14.7248 7.47481 14.677C7.50819 14.727 7.5533 14.768 7.6062 14.7966C7.6591 14.8252 7.71819 14.8403 7.77831 14.8408H8.287C8.33747 14.8405 8.38733 14.8298 8.43349 14.8094C8.47966 14.789 8.52114 14.7593 8.55539 14.7222C8.65208 14.7398 8.7501 14.749 8.84836 14.7499C9.29196 14.736 9.72359 14.6026 10.0978 14.3639C10.1231 14.3489 10.148 14.3299 10.1733 14.3141C10.2207 14.3009 10.265 14.2782 10.3034 14.2474L10.4495 14.1271C10.572 14.0363 10.6926 13.9355 10.8119 13.8287L14.6274 10.6865C14.6942 10.6316 14.7397 10.5551 14.756 10.4702L15.4182 7.03175C15.4297 6.97216 15.4264 6.91065 15.4086 6.85262C15.3908 6.79459 15.3591 6.74181 15.3161 6.6989ZM12.7281 4.11082L11.7634 3.14611L12.9157 2.13775L12.7281 4.11082ZM2.89524 2.13775L4.1483 3.23423L3.09929 4.28329L2.89524 2.13775ZM8.38413 13.8892C8.37211 13.8834 8.35977 13.8782 8.34718 13.8737L8.32454 13.326L9.24678 12.7496C9.31629 12.7063 9.36951 12.6411 9.39813 12.5643C9.42675 12.4875 9.42916 12.4034 9.405 12.3251C9.37993 12.2474 9.33033 12.1799 9.26365 12.1328C9.19696 12.0856 9.11679 12.0613 9.03515 12.0636L8.00036 12.1056L7.03115 12.0636C6.94937 12.0608 6.8689 12.0847 6.802 12.1319C6.7351 12.179 6.68544 12.2467 6.66056 12.3246C6.63629 12.403 6.63863 12.4872 6.6672 12.564C6.69578 12.6409 6.74899 12.7062 6.81854 12.7496L7.58388 13.228C7.58044 13.2505 7.57909 13.2733 7.57984 13.2961L7.6025 13.8456C7.5495 13.8491 7.49787 13.8639 7.45117 13.8892C7.08579 14.089 6.63645 14.0338 6.11634 13.7251C4.63595 12.847 3.23603 10.3482 3.23603 8.58342C3.23603 8.58032 3.23519 8.57745 3.2351 8.57436C3.23519 8.57127 3.23603 8.5684 3.23603 8.56529C3.22754 8.26251 3.27958 7.96108 3.3891 7.67867C3.49861 7.39626 3.6634 7.13855 3.87381 6.92066C4.08421 6.70276 4.33599 6.52905 4.6144 6.40972C4.8928 6.29039 5.19223 6.22784 5.49512 6.22572C6.04535 6.23121 6.57094 6.45471 6.95659 6.84721C7.34225 7.23971 7.55647 7.76915 7.55227 8.31939C7.553 8.4174 7.59244 8.51114 7.662 8.58019C7.73156 8.64924 7.8256 8.68799 7.92361 8.68799C8.02163 8.68799 8.11566 8.64924 8.18522 8.58019C8.25479 8.51114 8.29423 8.4174 8.29495 8.31939C8.29081 7.76912 8.50509 7.23967 8.89078 6.84718C9.27648 6.45469 9.8021 6.2312 10.3524 6.22572C10.6556 6.22992 10.955 6.29459 11.233 6.41595C11.511 6.5373 11.7619 6.71291 11.9712 6.93248C12.1804 7.15205 12.3438 7.41116 12.4516 7.69465C12.5595 7.97814 12.6097 8.28029 12.5993 8.58342C12.5993 10.0912 11.5767 12.1315 10.3558 13.2423L9.9781 13.5534C9.89216 13.6155 9.80572 13.6736 9.71897 13.7251C9.19859 14.0338 8.7495 14.089 8.38413 13.8892ZM14.0521 10.1982L12.5931 11.3998C13.0463 10.5274 13.302 9.5658 13.3419 8.58342C13.3555 7.77618 13.0484 6.9965 12.488 6.41532C11.9275 5.83415 11.1596 5.49889 10.3524 5.48306C9.85705 5.48484 9.37112 5.61825 8.94435 5.86964C8.51757 6.12103 8.1653 6.48135 7.92361 6.91369C7.68196 6.48138 7.32973 6.12107 6.903 5.86968C6.47628 5.61829 5.99039 5.48486 5.49512 5.48306C4.68867 5.49478 3.91978 5.82584 3.35707 6.40364C2.79435 6.98144 2.48374 7.75881 2.49335 8.56529C2.49335 8.5684 2.49419 8.57127 2.49428 8.57436C2.49419 8.57745 2.49335 8.58032 2.49335 8.58342C2.5287 9.50679 2.75868 10.4123 3.16822 11.2406L2.01222 10.2044L1.35142 7.08149L4.87068 3.562L11.0811 3.51431L14.6517 7.08465L14.0521 10.1982Z" fill="#156FF7"/>
<path fill-rule="evenodd" clip-rule="evenodd" d="M4.46832 13.2341L6.4416 15.0013H7.75511H8.04301H9.35652L11.3298 13.2341L9.30884 14.2904H8.04301H7.75511H6.48928L4.46832 13.2341Z" fill="#156FF7"/>
<path fill-rule="evenodd" clip-rule="evenodd" d="M9.27901 14.1626L11.2723 13.1208L11.416 13.3283L9.40655 15.1279H6.39438L4.38489 13.3283L4.52864 13.1208L6.52192 14.1626H9.27901ZM10.4886 13.8175L9.34147 14.417H6.45946L5.31238 13.8175L6.49163 14.8735H9.30931L10.4886 13.8175Z" fill="#156FF7"/>
</svg>
