<svg width="32" height="32" viewBox="0 0 32 32" fill="none" xmlns="http://www.w3.org/2000/svg">
<g clip-path="url(#clip0_1756_10125)">
<rect x="0.5" y="0.5" width="31" height="31" rx="3.5" fill="#DBEAFE"/>
<rect x="0.5" y="0.5" width="31" height="31" rx="3.5" stroke="#E2E8F0"/>
<path d="M16.2282 5.96021C16.0867 5.87993 15.9133 5.87993 15.7718 5.96021L7.40845 10.6874C7.26283 10.7696 7.17295 10.9239 7.17295 11.091V20.9092C7.17295 21.0763 7.2628 21.2306 7.4084 21.3128C7.40842 21.3128 7.40844 21.3128 7.40846 21.3128L15.772 26.0401C15.9134 26.12 16.0867 26.12 16.228 26.0401L24.5916 21.3128C24.5916 21.3128 24.5916 21.3128 24.5916 21.3128C24.7372 21.2306 24.8271 21.0763 24.8271 20.9092V11.091C24.8271 10.9239 24.7372 10.7696 24.5916 10.6874C24.5916 10.6874 24.5916 10.6874 24.5916 10.6874L16.2282 5.96021ZM8.10013 20.0982V11.9004L13.6314 15.1471L12.4343 17.5487L8.10013 20.0982ZM15.5361 20.8055L15.5362 24.8419L8.56438 20.9011L11.9397 18.9155C11.9624 18.9666 11.9945 19.0141 12.0356 19.0552C13.073 20.0926 14.2857 20.6874 15.5361 20.8055ZM19.9642 19.0552C20.0031 19.0163 20.0339 18.9717 20.0563 18.9238L23.4339 20.9021L16.4637 24.8419V20.8055C17.7141 20.6874 18.9269 20.0926 19.9642 19.0552ZM18.3628 15.1509L23.9 11.9007V20.1003L19.5743 17.5668L18.3628 15.1509ZM16.4487 11.3345L16.4613 7.15716L23.4349 11.0986L17.9463 14.3203L16.4487 11.3345ZM15.5216 11.3564L14.0462 14.3156L8.56537 11.0986L15.5342 7.15976L15.5216 11.3564Z" fill="white" stroke="white" stroke-width="0.2"/>
</g>
<defs>
<clipPath id="clip0_1756_10125">
<rect width="32" height="32" rx="4" fill="white"/>
</clipPath>
</defs>
</svg>
