<svg width="40" height="40" viewBox="0 0 40 40" fill="none" xmlns="http://www.w3.org/2000/svg">
<rect y="0.711823" width="40" height="38.5764" rx="19.2882" fill="white" fill-opacity="0.2"/>
<path d="M31.8242 18.1294L28.7422 15.0475L29.2826 9.3692C29.2941 9.24955 29.2694 9.1292 29.2117 9.02376C29.154 8.91832 29.0659 8.83264 28.959 8.77783C28.852 8.72302 28.731 8.70161 28.6117 8.71636C28.4924 8.73111 28.3803 8.78136 28.2899 8.86058L25.0013 11.7381C24.9868 11.7508 24.9806 11.7684 24.9676 11.7822L14.7867 11.8606C14.7611 11.8157 14.7297 11.7745 14.6932 11.7381L11.4046 8.86058C11.3142 8.78136 11.2021 8.73111 11.0828 8.71636C10.9635 8.70161 10.8425 8.72302 10.7355 8.77783C10.6286 8.83264 10.5405 8.91832 10.4828 9.02376C10.4251 9.1292 10.4004 9.24955 10.4118 9.3692L10.9788 15.3262L8.17583 18.1294L8.17442 18.1315C8.11849 18.1877 8.07419 18.2544 8.04406 18.3278C8.01499 18.3993 7.99999 18.476 8.0001 18.5532L8 18.5539C7.99998 18.5955 8.00429 18.637 8.01285 18.6778L9.18866 24.2349C9.21504 24.3596 9.28041 24.4726 9.37533 24.5576L15.3551 29.9177C15.4456 29.9956 15.5577 30.0441 15.6765 30.0567C15.8896 30.2233 16.1123 30.3771 16.3435 30.5174C16.9482 30.9032 17.6458 31.1187 18.3627 31.1413C18.6299 31.1404 18.8955 31.1007 19.1512 31.0233C19.2051 31.1041 19.278 31.1705 19.3635 31.2167C19.449 31.2629 19.5445 31.2874 19.6417 31.2882H20.4638C20.5454 31.2876 20.626 31.2703 20.7006 31.2373C20.7752 31.2043 20.8422 31.1564 20.8976 31.0965C21.0539 31.1248 21.2123 31.1398 21.3711 31.1413C22.088 31.1187 22.7856 30.9032 23.3903 30.5174C23.4313 30.4931 23.4715 30.4624 23.5124 30.4369C23.589 30.4155 23.6606 30.3789 23.7227 30.3291L23.9588 30.1347C24.1568 29.9879 24.3518 29.825 24.5446 29.6524L30.711 24.5741C30.8189 24.4854 30.8925 24.3617 30.9189 24.2245L31.9891 18.6673C32.0077 18.571 32.0024 18.4716 31.9736 18.3778C31.9449 18.284 31.8935 18.1987 31.8242 18.1294ZM27.6414 13.9466L26.0822 12.3875L27.9447 10.7578L27.6414 13.9466ZM11.7498 10.7578L13.775 12.5299L12.0796 14.2253L11.7498 10.7578ZM20.6208 29.7503C20.6014 29.7408 20.5814 29.7324 20.5611 29.7251L20.5245 28.84L22.015 27.9085C22.1273 27.8383 22.2134 27.733 22.2596 27.6089C22.3059 27.4848 22.3098 27.3489 22.2707 27.2224C22.2302 27.0968 22.15 26.9877 22.0423 26.9115C21.9345 26.8352 21.8049 26.796 21.673 26.7997L20.0006 26.8675L18.4342 26.7997C18.302 26.7951 18.1719 26.8338 18.0638 26.91C17.9557 26.9862 17.8754 27.0956 17.8352 27.2216C17.796 27.3482 17.7998 27.4842 17.8459 27.6085C17.8921 27.7327 17.9781 27.8382 18.0905 27.9085L19.3275 28.6815C19.3219 28.718 19.3197 28.7548 19.3209 28.7916L19.3576 29.6797C19.2719 29.6853 19.1885 29.7094 19.113 29.7503C18.5225 30.073 17.7963 29.9839 16.9557 29.4849C14.5631 28.0658 12.3006 24.0273 12.3006 21.1751C12.3006 21.1701 12.2992 21.1655 12.2991 21.1605C12.2992 21.1555 12.3006 21.1508 12.3006 21.1458C12.2869 20.6565 12.371 20.1693 12.548 19.7129C12.725 19.2565 12.9913 18.84 13.3313 18.4878C13.6714 18.1356 14.0783 17.8549 14.5283 17.662C14.9782 17.4692 15.4621 17.3681 15.9517 17.3647C16.8409 17.3735 17.6904 17.7347 18.3137 18.3691C18.9369 19.0034 19.2832 19.8591 19.2764 20.7484C19.2776 20.9068 19.3413 21.0583 19.4537 21.1699C19.5661 21.2815 19.7181 21.3441 19.8765 21.3441C20.0349 21.3441 20.1869 21.2815 20.2993 21.1699C20.4118 21.0583 20.4755 20.9068 20.4767 20.7484C20.47 19.8591 20.8163 19.0034 21.4396 18.369C22.063 17.7347 22.9125 17.3735 23.8018 17.3647C24.292 17.3714 24.7758 17.476 25.2251 17.6721C25.6743 17.8682 26.0799 18.152 26.4181 18.5069C26.7563 18.8618 27.0203 19.2805 27.1946 19.7387C27.3689 20.1969 27.45 20.6852 27.4332 21.1751C27.4332 23.612 25.7806 26.9094 23.8074 28.7047L23.1969 29.2075C23.058 29.3079 22.9183 29.4017 22.7781 29.4849C21.9371 29.9839 21.2113 30.073 20.6208 29.7503ZM29.7812 23.7849L27.4232 25.7269C28.1558 24.3168 28.569 22.7628 28.6335 21.1751C28.6554 19.8705 28.159 18.6104 27.2533 17.6711C26.3476 16.7318 25.1064 16.19 23.8018 16.1644C23.0013 16.1673 22.216 16.3829 21.5262 16.7892C20.8365 17.1955 20.2671 17.7778 19.8765 18.4765C19.486 17.7778 18.9167 17.1955 18.227 16.7892C17.5374 16.3829 16.7521 16.1673 15.9517 16.1644C14.6483 16.1833 13.4056 16.7184 12.4962 17.6522C11.5867 18.586 11.0847 19.8424 11.1003 21.1458C11.1003 21.1508 11.1016 21.1555 11.1018 21.1605C11.1016 21.1655 11.1003 21.1701 11.1003 21.1751C11.1574 22.6674 11.5291 24.1309 12.191 25.4696L10.3227 23.7949L9.25472 18.7477L14.9425 13.0596L24.9796 12.9825L30.7503 18.7528L29.7812 23.7849Z" fill="white"/>
</svg>
