<svg width="16" height="16" viewBox="0 0 16 16" fill="none" xmlns="http://www.w3.org/2000/svg">
<path d="M4.66675 11.3334L4.66675 8.66669" stroke="#64748B" stroke-linecap="round"/>
<path d="M8 11.3334L8 4.66669" stroke="#64748B" stroke-linecap="round"/>
<path d="M11.3335 11.3334L11.3335 7.33337" stroke="#64748B" stroke-linecap="round"/>
<path d="M1.66675 8.00002C1.66675 5.01446 1.66675 3.52168 2.59424 2.59418C3.52174 1.66669 5.01452 1.66669 8.00008 1.66669C10.9856 1.66669 12.4784 1.66669 13.4059 2.59418C14.3334 3.52168 14.3334 5.01446 14.3334 8.00002C14.3334 10.9856 14.3334 12.4784 13.4059 13.4059C12.4784 14.3334 10.9856 14.3334 8.00008 14.3334C5.01452 14.3334 3.52174 14.3334 2.59424 13.4059C1.66675 12.4784 1.66675 10.9856 1.66675 8.00002Z" stroke="#64748B" stroke-linejoin="round"/>
</svg>
