<svg width="16" height="16" viewBox="0 0 16 16" fill="none" xmlns="http://www.w3.org/2000/svg">
<path d="M13.6667 10.5519C11.9991 14.504 6.57613 15.6557 3.4677 12.5761C0.419738 9.5565 1.36337 4.08593 5.3711 2.33337" stroke="#64748B" stroke-linecap="round"/>
<path d="M11.7888 8.33338C13.0473 8.33338 13.6765 8.33338 14.0828 7.77004C14.098 7.74899 14.1233 7.71121 14.1369 7.68913C14.5019 7.09812 14.3138 6.64405 13.9376 5.73591C13.5965 4.91241 13.0965 4.16415 12.4663 3.53387C11.836 2.90359 11.0877 2.40363 10.2642 2.06252C9.35608 1.68636 8.90201 1.49827 8.31101 1.86323C8.28892 1.87687 8.25114 1.90211 8.23009 1.91729C7.66675 2.32365 7.66675 2.95287 7.66675 4.21129V5.61837C7.66675 6.89824 7.66675 7.53817 8.06435 7.93578C8.46196 8.33338 9.10189 8.33338 10.3818 8.33338H11.7888Z" stroke="#64748B"/>
</svg>
