<svg width="16" height="16" viewBox="0 0 16 16" fill="none" xmlns="http://www.w3.org/2000/svg">
<g clip-path="url(#clip0_43_217)">
<path d="M12.4106 13.3333H12.7374C13.504 13.3333 14.1137 12.9841 14.6612 12.4957C16.0519 11.2551 12.7827 10 11.6666 10M10.3333 3.37917C10.4846 3.34915 10.6418 3.33333 10.8031 3.33333C12.0164 3.33333 12.9999 4.22876 12.9999 5.33333C12.9999 6.4379 12.0164 7.33333 10.8031 7.33333C10.6418 7.33333 10.4846 7.31751 10.3333 7.28748" stroke="#64748B" stroke-linecap="round"/>
<path d="M2.98754 10.7408C2.20156 11.162 0.140758 12.0221 1.39592 13.0983C2.00906 13.624 2.69194 14 3.55048 14H8.44952C9.30806 14 9.99094 13.624 10.6041 13.0983C11.8592 12.0221 9.79844 11.162 9.01246 10.7408C7.16934 9.75306 4.83066 9.75306 2.98754 10.7408Z" stroke="#64748B"/>
<path d="M8.66667 4.99999C8.66667 6.47275 7.47276 7.66666 6 7.66666C4.52724 7.66666 3.33333 6.47275 3.33333 4.99999C3.33333 3.52724 4.52724 2.33333 6 2.33333C7.47276 2.33333 8.66667 3.52724 8.66667 4.99999Z" stroke="#64748B"/>
</g>
<defs>
<clipPath id="clip0_43_217">
<rect width="16" height="16" fill="white"/>
</clipPath>
</defs>
</svg>
