<svg width="16" height="16" viewBox="0 0 16 16" fill="none" xmlns="http://www.w3.org/2000/svg">
<path d="M10.6665 9.33331C10.6665 9.8856 11.1142 10.3333 11.6665 10.3333C12.2188 10.3333 12.6665 9.8856 12.6665 9.33331C12.6665 8.78103 12.2188 8.33331 11.6665 8.33331C11.1142 8.33331 10.6665 8.78103 10.6665 9.33331Z" stroke="#64748B"/>
<path d="M6.66683 4.66667H10.6668C12.5524 4.66667 13.4953 4.66667 14.081 5.25245C14.6668 5.83824 14.6668 6.78105 14.6668 8.66667V10C14.6668 11.8856 14.6668 12.8284 14.081 13.4142C13.4953 14 12.5524 14 10.6668 14H6.66683C4.15267 14 2.89559 14 2.11454 13.219C1.3335 12.4379 1.3335 11.1808 1.3335 8.66667V7.33333C1.3335 4.81918 1.3335 3.5621 2.11454 2.78105C2.89559 2 4.15267 2 6.66683 2H9.3335C9.95348 2 10.2635 2 10.5178 2.06815C11.208 2.25308 11.7471 2.79218 11.932 3.48236C12.0002 3.7367 12.0002 4.04669 12.0002 4.66667" stroke="#64748B" stroke-linecap="round"/>
</svg>
