<svg width="977" height="970" viewBox="0 0 977 970" fill="none" xmlns="http://www.w3.org/2000/svg">
<g opacity="0.2">
<rect x="-0.719693" y="-0.719693" width="88.9006" height="88.9006" transform="matrix(4.37114e-08 -1 -1 -4.37114e-08 671.693 968.227)" stroke="#E2E8F0" stroke-opacity="0.5" stroke-width="1.43939"/>
<rect x="-0.719693" y="-0.719693" width="88.9006" height="88.9006" transform="matrix(4.37114e-08 -1 -1 -4.37114e-08 671.693 880.298)" stroke="#E2E8F0" stroke-opacity="0.5" stroke-width="1.43939"/>
<rect x="-0.719693" y="-0.719693" width="88.9006" height="88.9006" transform="matrix(4.37114e-08 -1 -1 -4.37114e-08 671.693 792.369)" stroke="#E2E8F0" stroke-opacity="0.5" stroke-width="1.43939"/>
<rect width="90.34" height="90.34" transform="matrix(4.37114e-08 -1 -1 -4.37114e-08 673.133 705.881)" fill="#E2E8F0" fill-opacity="0.1"/>
<rect x="-0.719693" y="-0.719693" width="88.9006" height="88.9006" transform="matrix(4.37114e-08 -1 -1 -4.37114e-08 671.693 704.441)" stroke="#E2E8F0" stroke-opacity="0.5" stroke-width="1.43939"/>
<rect width="90.34" height="90.34" transform="matrix(4.37114e-08 -1 -1 -4.37114e-08 585.188 617.933)" fill="#D9D9D9"/>
<rect x="-0.719693" y="-0.719693" width="88.9006" height="88.9006" transform="matrix(4.37114e-08 -1 -1 -4.37114e-08 583.748 616.493)" stroke="#E2E8F0" stroke-opacity="0.5" stroke-width="1.43939"/>
<rect x="-0.719693" y="-0.719693" width="88.9006" height="88.9006" transform="matrix(4.37114e-08 -1 -1 -4.37114e-08 583.756 968.227)" stroke="#E2E8F0" stroke-opacity="0.5" stroke-width="1.43939"/>
<rect x="-0.719693" y="-0.719693" width="88.9006" height="88.9006" transform="matrix(4.37114e-08 -1 -1 -4.37114e-08 495.842 968.227)" stroke="#E2E8F0" stroke-opacity="0.5" stroke-width="1.43939"/>
<rect x="-0.719693" y="-0.719693" width="88.9006" height="88.9006" transform="matrix(4.37114e-08 -1 -1 -4.37114e-08 407.897 880.298)" stroke="#E2E8F0" stroke-opacity="0.5" stroke-width="1.43939"/>
<rect x="-0.719693" y="-0.719693" width="88.9006" height="88.9006" transform="matrix(4.37114e-08 -1 -1 -4.37114e-08 495.842 704.42)" stroke="#E2E8F0" stroke-opacity="0.5" stroke-width="1.43939"/>
<rect x="-0.719693" y="-0.719693" width="88.9006" height="88.9006" transform="matrix(4.37114e-08 -1 -1 -4.37114e-08 583.748 528.547)" stroke="#E2E8F0" stroke-opacity="0.5" stroke-width="1.43939"/>
<rect x="-0.719693" y="-0.719693" width="88.9006" height="88.9006" transform="matrix(4.37114e-08 -1 -1 -4.37114e-08 319.943 968.227)" stroke="#E2E8F0" stroke-opacity="0.5" stroke-width="1.43939"/>
<rect width="90.34" height="90.34" transform="matrix(4.37114e-08 -1 -1 -4.37114e-08 585.188 881.737)" fill="#E2E8F0" fill-opacity="0.1"/>
<rect x="-0.719693" y="-0.719693" width="88.9006" height="88.9006" transform="matrix(4.37114e-08 -1 -1 -4.37114e-08 583.748 880.298)" stroke="#E2E8F0" stroke-opacity="0.5" stroke-width="1.43939"/>
<rect x="-0.719693" y="-0.719693" width="88.9006" height="88.9006" transform="matrix(4.37114e-08 -1 -1 -4.37114e-08 583.756 792.369)" stroke="#E2E8F0" stroke-opacity="0.5" stroke-width="1.43939"/>
<path d="M91.34 880.514L1 880.514" stroke="url(#paint0_linear_1978_167365)" stroke-width="1.43939" stroke-linecap="round"/>
<path d="M584 751.634L584 661.294" stroke="url(#paint1_linear_1978_167365)" stroke-width="1.43939" stroke-linecap="round"/>
<path d="M450.277 704.649L359.938 704.649" stroke="url(#paint2_linear_1978_167365)" stroke-width="1.43939" stroke-linecap="round"/>
<rect width="90.34" height="90.34" transform="matrix(4.37114e-08 -1 -1 -4.37114e-08 409.336 793.809)" fill="#E2E8F0" fill-opacity="0.4"/>
<rect x="-0.719693" y="-0.719693" width="88.9006" height="88.9006" transform="matrix(4.37114e-08 -1 -1 -4.37114e-08 407.897 792.369)" stroke="#E2E8F0" stroke-opacity="0.5" stroke-width="1.43939"/>
<rect x="0.719693" y="0.719693" width="88.9006" height="88.9006" transform="matrix(-2.18557e-07 1 1 2.18557e-07 303.352 1.57294e-07)" stroke="#E2E8F0" stroke-opacity="0.5" stroke-width="1.43939"/>
<rect x="0.719693" y="0.719693" width="88.9006" height="88.9006" transform="matrix(-2.18557e-07 1 1 2.18557e-07 391.266 351.733)" stroke="#E2E8F0" stroke-opacity="0.5" stroke-width="1.43939"/>
<rect x="0.719693" y="0.719693" width="88.9006" height="88.9006" transform="matrix(-2.18557e-07 1 1 2.18557e-07 391.266 1.57294e-07)" stroke="#E2E8F0" stroke-opacity="0.5" stroke-width="1.43939"/>
<rect x="0.719693" y="0.719693" width="88.9006" height="88.9006" transform="matrix(-2.18557e-07 1 1 2.18557e-07 479.219 1.57294e-07)" stroke="#E2E8F0" stroke-opacity="0.5" stroke-width="1.43939"/>
<rect x="0.719693" y="0.719693" width="88.9006" height="88.9006" transform="matrix(-2.18557e-07 1 1 2.18557e-07 567.133 87.9297)" stroke="#E2E8F0" stroke-opacity="0.5" stroke-width="1.43939"/>
<rect x="0.719693" y="0.719693" width="88.9006" height="88.9006" transform="matrix(-2.18557e-07 1 1 2.18557e-07 479.219 263.808)" stroke="#E2E8F0" stroke-opacity="0.5" stroke-width="1.43939"/>
<rect x="0.719693" y="0.719693" width="88.9006" height="88.9006" transform="matrix(-2.18557e-07 1 1 2.18557e-07 655.07 263.808)" stroke="#E2E8F0" stroke-opacity="0.5" stroke-width="1.43939"/>
<rect x="0.719693" y="0.719693" width="88.9006" height="88.9006" transform="matrix(-2.18557e-07 1 1 2.18557e-07 391.266 439.68)" stroke="#E2E8F0" stroke-opacity="0.5" stroke-width="1.43939"/>
<rect x="0.719693" y="0.719693" width="88.9006" height="88.9006" transform="matrix(-2.18557e-07 1 1 2.18557e-07 93.1562 739.572)" stroke="#E2E8F0" stroke-opacity="0.5" stroke-width="1.43939"/>
<rect x="0.719693" y="0.719693" width="88.9006" height="88.9006" transform="matrix(-2.18557e-07 1 1 2.18557e-07 655.07 1.57294e-07)" stroke="#E2E8F0" stroke-opacity="0.5" stroke-width="1.43939"/>
<rect width="90.34" height="90.34" transform="matrix(-2.18557e-07 1 1 2.18557e-07 567.133 175.858)" fill="#E2E8F0" fill-opacity="0.1"/>
<rect x="0.719693" y="0.719693" width="88.9006" height="88.9006" transform="matrix(-2.18557e-07 1 1 2.18557e-07 567.133 175.858)" stroke="#E2E8F0" stroke-opacity="0.5" stroke-width="1.43939"/>
<rect width="90.34" height="90.34" transform="matrix(-2.18557e-07 1 1 2.18557e-07 391.266 87.9297)" fill="#E2E8F0" fill-opacity="0.1"/>
<rect x="0.719693" y="0.719693" width="88.9006" height="88.9006" transform="matrix(-2.18557e-07 1 1 2.18557e-07 391.266 87.9297)" stroke="#E2E8F0" stroke-opacity="0.5" stroke-width="1.43939"/>
<rect x="0.719693" y="0.719693" width="88.9006" height="88.9006" transform="matrix(-2.18557e-07 1 1 2.18557e-07 391.266 175.858)" stroke="#E2E8F0" stroke-opacity="0.5" stroke-width="1.43939"/>
<path d="M885.113 89.1416L975.453 89.1416" stroke="url(#paint3_linear_1978_167365)" stroke-width="1.43939" stroke-linecap="round"/>
<path d="M392.477 389.066L392.477 479.406" stroke="url(#paint4_linear_1978_167365)" stroke-width="1.43939" stroke-linecap="round"/>
<path d="M669.519 1.20411L759.859 1.2041" stroke="url(#paint5_linear_1978_167365)" stroke-width="1.43939" stroke-linecap="round"/>
</g>
<defs>
<linearGradient id="paint0_linear_1978_167365" x1="1" y1="881.014" x2="91.34" y2="881.014" gradientUnits="userSpaceOnUse">
<stop stop-color="#156FF7"/>
<stop offset="1" stop-color="#156FF7" stop-opacity="0"/>
</linearGradient>
<linearGradient id="paint1_linear_1978_167365" x1="583.5" y1="661.294" x2="583.5" y2="751.634" gradientUnits="userSpaceOnUse">
<stop stop-color="#156FF7"/>
<stop offset="1" stop-color="#156FF7" stop-opacity="0"/>
</linearGradient>
<linearGradient id="paint2_linear_1978_167365" x1="359.937" y1="705.149" x2="450.277" y2="705.149" gradientUnits="userSpaceOnUse">
<stop stop-color="#156FF7"/>
<stop offset="1" stop-color="#156FF7" stop-opacity="0"/>
</linearGradient>
<linearGradient id="paint3_linear_1978_167365" x1="975.453" y1="88.6416" x2="885.113" y2="88.6416" gradientUnits="userSpaceOnUse">
<stop stop-color="#156FF7"/>
<stop offset="1" stop-color="#156FF7" stop-opacity="0"/>
</linearGradient>
<linearGradient id="paint4_linear_1978_167365" x1="392.977" y1="479.406" x2="392.977" y2="389.066" gradientUnits="userSpaceOnUse">
<stop stop-color="#156FF7"/>
<stop offset="1" stop-color="#156FF7" stop-opacity="0"/>
</linearGradient>
<linearGradient id="paint5_linear_1978_167365" x1="759.859" y1="0.704102" x2="669.519" y2="0.704106" gradientUnits="userSpaceOnUse">
<stop stop-color="#156FF7"/>
<stop offset="1" stop-color="#156FF7" stop-opacity="0"/>
</linearGradient>
</defs>
</svg>
