<svg width="25" height="25" viewBox="0 0 25 25" fill="none" xmlns="http://www.w3.org/2000/svg">
<rect x="0.265625" y="0.385254" width="24" height="24" rx="4" fill="#156FF7"/>
<path d="M12.2656 6.38525C12.4645 6.38525 12.6553 6.46427 12.796 6.60492C12.9366 6.74558 13.0156 6.93634 13.0156 7.13525V11.6353H17.5156C17.7145 11.6353 17.9053 11.7143 18.046 11.8549C18.1866 11.9956 18.2656 12.1863 18.2656 12.3853C18.2656 12.5842 18.1866 12.7749 18.046 12.9156C17.9053 13.0562 17.7145 13.1353 17.5156 13.1353H13.0156V17.6353C13.0156 17.8342 12.9366 18.0249 12.796 18.1656C12.6553 18.3062 12.4645 18.3853 12.2656 18.3853C12.0667 18.3853 11.8759 18.3062 11.7353 18.1656C11.5946 18.0249 11.5156 17.8342 11.5156 17.6353V13.1353H7.01562C6.81671 13.1353 6.62595 13.0562 6.4853 12.9156C6.34464 12.7749 6.26562 12.5842 6.26562 12.3853C6.26562 12.1863 6.34464 11.9956 6.4853 11.8549C6.62595 11.7143 6.81671 11.6353 7.01562 11.6353H11.5156V7.13525C11.5156 6.93634 11.5946 6.74558 11.7353 6.60492C11.8759 6.46427 12.0667 6.38525 12.2656 6.38525Z" fill="white"/>
</svg>
