<svg width="24" height="24" viewBox="0 0 24 24" fill="none" xmlns="http://www.w3.org/2000/svg">
<rect width="24" height="24" rx="12" fill="#DD2C5A" fill-opacity="0.1"/>
<path d="M9.08464 7.33366C9.08464 7.02424 9.20755 6.72749 9.42634 6.5087C9.64514 6.28991 9.94188 6.16699 10.2513 6.16699H13.7513C14.0607 6.16699 14.3575 6.28991 14.5763 6.5087C14.7951 6.72749 14.918 7.02424 14.918 7.33366V8.50033H17.2513C17.406 8.50033 17.5544 8.56178 17.6638 8.67118C17.7732 8.78058 17.8346 8.92895 17.8346 9.08366C17.8346 9.23837 17.7732 9.38674 17.6638 9.49614C17.5544 9.60553 17.406 9.66699 17.2513 9.66699H16.6277L16.122 16.7498C16.101 17.0442 15.9693 17.3196 15.7534 17.5207C15.5374 17.7219 15.2533 17.8337 14.9582 17.8337H9.0438C8.74872 17.8337 8.46459 17.7219 8.24865 17.5207C8.03271 17.3196 7.901 17.0442 7.88005 16.7498L7.37547 9.66699H6.7513C6.59659 9.66699 6.44822 9.60553 6.33882 9.49614C6.22943 9.38674 6.16797 9.23837 6.16797 9.08366C6.16797 8.92895 6.22943 8.78058 6.33882 8.67118C6.44822 8.56178 6.59659 8.50033 6.7513 8.50033H9.08464V7.33366ZM10.2513 8.50033H13.7513V7.33366H10.2513V8.50033ZM8.54447 9.66699L9.04439 16.667H14.9588L15.4587 9.66699H8.54447Z" fill="#DD2C5A"/>
</svg>
